<?xml version="1.0" encoding="UTF-8"?>
<svg width="593px" height="228px" viewBox="0 0 593 228" version="1.1" xmlns="http://www.w3.org/2000/svg" xmlns:xlink="http://www.w3.org/1999/xlink">
    <!-- Generator: Sketch 46.2 (44496) - http://www.bohemiancoding.com/sketch -->
    <title>osgeo-ko-logo</title>
    <desc>Created with Sketch.</desc>
    <defs></defs>
    <g id="Page-1" stroke="none" stroke-width="1" fill="none" fill-rule="evenodd">
        <g id="osgeo-ko-logo">
            <text id="한국어-지부-Korea" fill="#0B3A42" font-family="AppleSDGothicNeo-Bold, Apple SD Gothic Neo" font-size="48" font-weight="bold">
                <tspan x="204.4043" y="196.4711">한국어 지부 </tspan>
                <tspan x="437.2523" y="196.4711" font-family="MiriamLibre-Regular, Miriam Libre" font-weight="normal">K</tspan>
                <tspan x="464.2763" y="196.4711" font-family="MiriamLibre-Regular, Miriam Libre" font-weight="normal">ore</tspan>
                <tspan x="540.3083" y="196.4711" font-family="MiriamLibre-Regular, Miriam Libre" font-weight="normal">a</tspan>
            </text>
            <g id="osgeo" transform="translate(7.000000, 7.000000)" fill-rule="nonzero">
                <path d="M218.7,131.7 C213.7,128.8 209.7,124.8 206.8,119.8 C203.9,114.8 202.4,109.3 202.4,103.3 L202.4,76.8 C202.4,70.8 203.9,65.3 206.8,60.3 C209.7,55.3 213.7,51.3 218.7,48.4 C223.7,45.5 229.2,44 235.1,44 C241,44 246.5,45.5 251.5,48.4 C256.5,51.3 260.5,55.3 263.4,60.3 C266.3,65.3 267.8,70.8 267.8,76.8 L267.8,103.3 C267.8,109.3 266.3,114.8 263.4,119.8 C260.5,124.8 256.5,128.8 251.5,131.7 C246.5,134.6 241,136.1 235.1,136.1 C229.2,136.1 223.7,134.6 218.7,131.7 M243.9,119.1 C246.6,117.4 248.8,115.2 250.4,112.4 C252,109.6 252.8,106.6 252.8,103.3 L252.8,76.8 C252.8,73.6 252,70.5 250.4,67.7 C248.8,64.9 246.6,62.6 243.9,61 C241.2,59.4 238.3,58.5 235.1,58.5 C232,58.5 229,59.3 226.3,61 C223.6,62.7 221.4,64.9 219.8,67.7 C218.2,70.5 217.4,73.5 217.4,76.8 L217.4,103.3 C217.4,106.5 218.2,109.6 219.8,112.4 C221.4,115.2 223.6,117.5 226.3,119.1 C229,120.8 231.9,121.6 235.1,121.6 C238.2,121.5 241.2,120.7 243.9,119.1" id="Shape" fill="#4DB05B"></path>
                <path d="M291.8,133.8 C287.5,132.4 283.5,130.3 279.8,127.8 C279.4,127.6 279.1,127.1 278.9,126.5 C278.7,125.9 278.8,125.3 279,124.8 L283.3,117 C283.8,116 284.6,115.5 285.6,115.5 C286.3,115.5 286.9,115.7 287.5,116 C293.7,119.9 299.4,121.8 304.8,121.8 C309.2,121.8 312.6,120.7 315.1,118.6 C317.6,116.5 318.9,113.7 318.9,110.3 C318.9,108.1 318.3,106.2 317,104.6 C315.8,103.1 314.1,101.8 312.1,100.7 C310,99.6 307,98.3 303.1,96.7 L299.5,95.2 C293.9,92.8 289.2,89.7 285.4,86 C281.6,82.3 279.6,76.8 279.6,69.6 C279.6,64.5 280.7,60.1 283,56.2 C285.3,52.3 288.4,49.3 292.5,47.1 C296.5,44.9 301.2,43.9 306.5,43.9 C310.9,43.9 315.2,44.6 319.5,46.1 C323.8,47.6 327.7,49.6 331.2,52.1 C331.6,52.3 331.9,52.8 332.1,53.4 C332.3,54 332.2,54.6 332,55.1 L327.9,62.9 C327.4,63.9 326.6,64.4 325.5,64.4 C324.8,64.4 324.2,64.2 323.6,63.9 C320.4,61.8 317.3,60.3 314.4,59.4 C311.5,58.5 308.9,58 306.6,58 C302.9,58 300,59 297.8,61 C295.7,63 294.6,65.6 294.6,68.8 C294.6,72 295.8,74.7 298.1,76.8 C300.5,78.9 304.2,81 309.4,83.2 C310.1,83.4 313,84.6 317.9,86.6 C322.8,88.6 326.7,91.6 329.6,95.5 C332.5,99.4 333.9,104 333.9,109.3 C333.9,114.4 332.7,119 330.3,123 C327.9,127 324.5,130.1 320.1,132.4 C315.7,134.7 310.7,135.8 305,135.8 C300.5,136 296.1,135.2 291.8,133.8" id="Shape" fill="#4DB05B"></path>
                <path d="M361.8,131.7 C356.8,128.8 352.9,124.8 349.9,119.8 C347,114.8 345.5,109.3 345.5,103.3 L345.5,76.8 C345.5,70.8 347,65.3 349.9,60.3 C352.8,55.3 356.8,51.3 361.8,48.4 C366.8,45.5 372.2,44 378.2,44 C383.4,44 388.2,44.9 392.7,46.8 C397.1,48.7 400.9,51.4 404.1,54.9 C404.6,55.5 404.8,56.2 404.8,57 C404.8,57.8 404.5,58.7 403.8,59.5 L398.4,65.2 C397.7,65.9 397.1,66.2 396.4,66.2 C395.6,66.2 394.8,65.8 394.2,65.1 C390.1,60.7 384.8,58.5 378.4,58.5 C375.3,58.5 372.3,59.3 369.6,61 C366.9,62.7 364.7,64.9 363.1,67.7 C361.5,70.5 360.7,73.5 360.7,76.8 L360.7,103.3 C360.7,106.5 361.5,109.6 363.1,112.4 C364.7,115.2 366.9,117.5 369.6,119.1 C372.3,120.8 375.2,121.6 378.4,121.6 C381.5,121.6 384.5,120.8 387.2,119.2 C389.9,117.6 392.1,115.5 393.6,112.7 C395.2,110 395.9,107 395.9,103.8 L395.9,97.7 L379.3,97.7 C378.6,97.7 377.9,97.5 377.4,97 C376.9,96.5 376.7,95.9 376.7,95.1 L376.7,86.2 C376.7,85.5 376.9,84.8 377.4,84.3 C377.9,83.8 378.5,83.6 379.3,83.6 L405.4,83.6 C406.9,83.6 408.1,84.1 409.2,85.1 C410.2,86.1 410.7,87.4 410.7,88.9 L410.7,103.3 C410.7,109.3 409.2,114.8 406.3,119.8 C403.4,124.8 399.4,128.8 394.4,131.7 C389.4,134.6 384,136.1 378.2,136.1 C372.2,136.1 366.8,134.6 361.8,131.7" id="Shape" fill="#003A40"></path>
                <path d="M438,130.5 C433.5,127.9 429.9,124.2 427.3,119.7 C424.7,115.2 423.3,110.2 423.3,104.8 L423.3,91.4 C423.3,86 424.6,81 427.3,76.5 C429.9,72 433.5,68.3 438,65.7 C442.5,63.1 447.4,61.7 452.8,61.7 C458.2,61.7 463.1,63 467.6,65.7 C472.1,68.3 475.7,72 478.3,76.5 C480.9,81.1 482.3,86 482.3,91.4 L482.3,99.7 C482.3,101.2 481.8,102.4 480.8,103.5 C479.8,104.5 478.5,105 477,105 L438.3,105 L438.3,105.6 C438.3,109.7 439.7,113.1 442.6,116 C445.5,118.9 448.9,120.3 452.9,120.3 L472.5,120.3 C473.2,120.3 473.9,120.6 474.4,121.1 C474.9,121.6 475.1,122.2 475.1,123 L475.1,132 C475.1,132.7 474.9,133.4 474.4,133.9 C473.9,134.4 473.3,134.6 472.5,134.6 L452.9,134.6 C447.4,134.5 442.4,133.1 438,130.5 L438,130.5 Z M467.3,91.6 L467.3,90.5 C467.3,86.4 465.9,83 463,80.1 C460.2,77.2 456.7,75.8 452.7,75.8 C448.7,75.8 445.2,77.2 442.4,80.1 C439.6,83 438.1,86.4 438.1,90.5 L438.1,91.6 L467.3,91.6 Z" id="Shape" fill="#003A40"></path>
                <path d="M508,132.2 C503.5,129.6 499.9,126.1 497.3,121.6 C494.7,117.1 493.4,112.3 493.4,107.1 L493.4,90.7 C493.4,85.5 494.7,80.6 497.3,76.2 C499.9,71.7 503.5,68.2 508,65.6 C512.5,63 517.4,61.7 522.8,61.7 C528.2,61.7 533.1,63 537.6,65.6 C542.1,68.2 545.7,71.8 548.3,76.2 C550.9,80.7 552.3,85.5 552.3,90.7 L552.3,107 C552.3,112.2 551,117.1 548.3,121.5 C545.7,126 542.1,129.5 537.6,132.1 C533.1,134.7 528.2,136 522.8,136 C517.4,136.1 512.4,134.8 508,132.2 M533,117.4 C535.8,114.5 537.3,111.1 537.3,107 L537.3,90.7 C537.3,86.6 535.9,83.2 533,80.3 C530.2,77.4 526.7,76 522.7,76 C518.7,76 515.2,77.4 512.4,80.3 C509.6,83.2 508.1,86.6 508.1,90.7 L508.1,107 C508.1,111.1 509.5,114.5 512.4,117.4 C515.2,120.3 518.7,121.7 522.7,121.7 C526.8,121.7 530.2,120.2 533,117.4" id="Shape" fill="#003A40"></path>
                <path d="M85.5,36.2 L85.5,18.2 L85.5,0 L74.2,19.8 C43.4,26.7 20.1,53.2 18.1,85.6 L36.2,85.6 C38.4,59.3 59.3,38.4 85.5,36.2" id="Shape" fill="#4DB05B"></path>
                <path d="M36.2,94.6 L18.2,94.6 L0,94.6 L19.8,105.9 C26.7,136.7 53.2,160 85.6,162 L85.6,143.9 C59.3,141.7 38.4,120.8 36.2,94.6" id="Shape" fill="#003A40"></path>
                <path d="M143.9,85.5 L162,85.5 L180.2,85.5 L160.4,74.2 C153.5,43.4 127,20.1 94.6,18.1 L94.6,36.2 C120.8,38.4 141.7,59.3 143.9,85.5" id="Shape" fill="#003A40"></path>
                <path d="M94.5,143.9 L94.5,162 L94.5,180.2 L105.8,160.4 C136.6,153.5 159.9,127 161.9,94.6 L143.8,94.6 C141.7,120.8 120.8,141.7 94.5,143.9" id="Shape" fill="#4DB05B"></path>
                <path d="M95.6,84.5 L62.2,62.2 L84.5,95.6 L117.9,117.9 L95.6,84.5 Z M90,93.9 C87.8,93.9 86.1,92.1 86.1,90 C86.1,87.8 87.9,86.1 90,86.1 C92.2,86.1 93.9,87.9 93.9,90 C93.9,92.1 92.2,93.9 90,93.9 L90,93.9 Z" id="Shape" fill="#003A40"></path>
                <polygon id="Shape" fill="#4DB05B" points="84.5 95.6 77 84.4 42.8 90.1 77 95.7 62.2 117.9 84.3 103.1 90 137.3 95.7 103.1"></polygon>
                <polygon id="Shape" fill="#4DB05B" points="103.1 84.4 117.9 62.2 95.7 77 90 42.8 84.4 77 95.6 84.5 103.1 95.7 137.3 90"></polygon>
            </g>
        </g>
    </g>
</svg>