<?xml version="1.0" encoding="utf-8"?>
<!-- Generator: Adobe Illustrator 16.0.0, SVG Export Plug-In . SVG Version: 6.00 Build 0)  -->
<!DOCTYPE svg PUBLIC "-//W3C//DTD SVG 1.1//EN" "http://www.w3.org/Graphics/SVG/1.1/DTD/svg11.dtd">
<svg version="1.1" id="Calque_1" xmlns="http://www.w3.org/2000/svg" xmlns:xlink="http://www.w3.org/1999/xlink" x="0px" y="0px"
	 width="258px" height="84px" viewBox="0 0 258 84" enable-background="new 0 0 258 84" xml:space="preserve">
<title>Page 1</title>
<desc>Created with Sketch.</desc>
<g id="_x30_01_x5F_home_x5F_v2">
	<g id="VD1a_home_desktopshd_v4" transform="translate(-375.000000, -23.000000)">
		<g id="Page-1" transform="translate(375.000000, 22.000000)">
			<g id="Group-25" transform="translate(0.000000, 0.208600)">
				<path id="Fill-1" fill="#4CB05B" d="M113.976,56.448c1.262-0.795,2.29-1.822,3.038-3.132c0.747-1.307,1.121-2.71,1.121-4.252
					V36.68c0-1.495-0.374-2.943-1.121-4.252c-0.748-1.309-1.776-2.383-3.038-3.131c-1.262-0.794-2.617-1.168-4.112-1.168
					c-1.449,0-2.851,0.374-4.113,1.168c-1.261,0.795-2.289,1.822-3.037,3.131s-1.121,2.71-1.121,4.252v12.384
					c0,1.495,0.373,2.945,1.121,4.252c0.748,1.31,1.776,2.384,3.037,3.132c1.262,0.795,2.618,1.168,4.113,1.168
					C111.312,57.569,112.714,57.196,113.976,56.448 M102.2,62.336c-2.336-1.356-4.205-3.225-5.561-5.562
					c-1.355-2.336-2.056-4.906-2.056-7.71V36.68c0-2.803,0.701-5.374,2.056-7.71c1.356-2.336,3.225-4.206,5.561-5.561
					c2.337-1.355,4.907-2.056,7.664-2.056c2.757,0,5.327,0.701,7.664,2.056c2.336,1.355,4.205,3.225,5.561,5.561
					c1.355,2.336,2.056,4.907,2.056,7.71v12.384c0,2.804-0.701,5.374-2.056,7.71c-1.356,2.338-3.225,4.206-5.561,5.562
					c-2.337,1.354-4.907,2.055-7.664,2.055C107.107,64.391,104.537,63.691,102.2,62.336"/>
				<path id="Fill-3" fill="#4CB05B" d="M136.359,63.317c-2.01-0.652-3.879-1.636-5.605-2.804c-0.188-0.093-0.328-0.327-0.422-0.606
					c-0.094-0.281-0.047-0.562,0.047-0.795l2.008-3.646c0.235-0.468,0.609-0.701,1.076-0.701c0.327,0,0.607,0.095,0.887,0.233
					c2.898,1.822,5.562,2.711,8.086,2.711c2.057,0,3.646-0.514,4.812-1.496c1.169-0.98,1.775-2.29,1.775-3.877
					c0-1.029-0.279-1.916-0.888-2.666c-0.562-0.7-1.354-1.307-2.29-1.821c-0.98-0.515-2.384-1.122-4.205-1.868l-1.683-0.701
					c-2.617-1.123-4.813-2.57-6.59-4.299s-2.71-4.3-2.71-7.664c0-2.384,0.515-4.44,1.589-6.262c1.073-1.823,2.522-3.225,4.438-4.253
					c1.869-1.028,4.066-1.495,6.541-1.495c2.059,0,4.066,0.327,6.076,1.028c2.01,0.701,3.832,1.635,5.467,2.804
					c0.188,0.093,0.328,0.327,0.422,0.607s0.047,0.561-0.049,0.795l-1.914,3.645c-0.233,0.467-0.607,0.701-1.121,0.701
					c-0.328,0-0.607-0.094-0.889-0.234c-1.496-0.981-2.943-1.682-4.299-2.103c-1.355-0.42-2.57-0.654-3.646-0.654
					c-1.729,0-3.084,0.467-4.111,1.402c-0.982,0.935-1.494,2.149-1.494,3.645c0,1.495,0.559,2.757,1.635,3.738
					c1.121,0.982,2.852,1.963,5.281,2.991c0.326,0.094,1.682,0.654,3.971,1.589c2.289,0.934,4.113,2.336,5.469,4.159
					c1.355,1.822,2.01,3.972,2.01,6.447c0,2.385-0.562,4.533-1.684,6.402s-2.711,3.318-4.766,4.395
					c-2.057,1.072-4.395,1.588-7.059,1.588C140.426,64.345,138.37,63.971,136.359,63.317"/>
				<path id="Fill-5" fill="#003A40" d="M169.07,62.336c-2.336-1.355-4.157-3.227-5.562-5.562c-1.354-2.335-2.055-4.906-2.055-7.709
					V36.681c0-2.804,0.7-5.374,2.055-7.711c1.356-2.336,3.226-4.206,5.562-5.561c2.338-1.355,4.861-2.056,7.664-2.056
					c2.432,0,4.674,0.42,6.776,1.309c2.056,0.887,3.832,2.149,5.327,3.785c0.232,0.28,0.327,0.607,0.327,0.981
					s-0.142,0.795-0.468,1.168l-2.522,2.664c-0.327,0.327-0.608,0.467-0.937,0.467c-0.372,0-0.746-0.186-1.026-0.514
					c-1.916-2.056-4.394-3.084-7.384-3.084c-1.449,0-2.852,0.374-4.112,1.168c-1.262,0.795-2.291,1.823-3.036,3.131
					c-0.748,1.309-1.123,2.711-1.123,4.253v12.384c0,1.495,0.375,2.943,1.123,4.251c0.745,1.31,1.774,2.384,3.036,3.132
					c1.263,0.795,2.617,1.168,4.112,1.168c1.447,0,2.852-0.373,4.111-1.121c1.263-0.748,2.289-1.729,2.99-3.037
					c0.748-1.262,1.076-2.664,1.076-4.159v-2.851h-7.758c-0.326,0-0.654-0.094-0.889-0.328c-0.233-0.231-0.327-0.513-0.327-0.888
					v-4.159c0-0.327,0.094-0.654,0.327-0.887c0.233-0.234,0.515-0.328,0.889-0.328h12.195c0.701,0,1.263,0.234,1.774,0.702
					c0.47,0.467,0.703,1.074,0.703,1.775v6.73c0,2.803-0.703,5.374-2.058,7.709c-1.354,2.338-3.225,4.207-5.562,5.562
					c-2.336,1.354-4.858,2.056-7.569,2.056C173.932,64.392,171.408,63.691,169.07,62.336"/>
				<path id="Fill-7" fill="#003A40" d="M218.373,43.596v-0.514c0-1.916-0.654-3.505-2.01-4.86
					c-1.309-1.355-2.944-2.009-4.813-2.009c-1.868,0-3.505,0.654-4.813,2.009c-1.307,1.355-2.01,2.944-2.01,4.86v0.514H218.373z
					 M204.682,61.776c-2.104-1.215-3.787-2.945-5-5.047c-1.217-2.104-1.871-4.439-1.871-6.963v-6.264
					c0-2.523,0.608-4.859,1.871-6.962c1.213-2.103,2.896-3.832,5-5.047c2.103-1.215,4.392-1.869,6.916-1.869
					c2.522,0,4.812,0.607,6.916,1.869c2.103,1.215,3.784,2.944,5,5.047c1.213,2.149,1.868,4.439,1.868,6.962v3.879
					c0,0.701-0.233,1.262-0.7,1.777c-0.468,0.465-1.076,0.699-1.777,0.699H204.82v0.28c0,1.916,0.654,3.504,2.01,4.858
					c1.355,1.355,2.943,2.011,4.814,2.011h9.157c0.327,0,0.654,0.141,0.888,0.375c0.233,0.233,0.328,0.514,0.328,0.887v4.205
					c0,0.328-0.095,0.653-0.328,0.89c-0.232,0.233-0.514,0.327-0.888,0.327h-9.157C209.072,63.645,206.736,62.991,204.682,61.776
					L204.682,61.776z"/>
				<g id="Group-11" transform="translate(230.000000, 29.000000)">
					<g id="Clip-10">
					</g>
					<defs>
						<filter id="Adobe_OpacityMaskFilter" filterUnits="userSpaceOnUse" x="0.568" y="0.625" width="27.525" height="34.722">
							<feColorMatrix  type="matrix" values="1 0 0 0 0  0 1 0 0 0  0 0 1 0 0  0 0 0 1 0"/>
						</filter>
					</defs>
					<mask maskUnits="userSpaceOnUse" x="0.568" y="0.625" width="27.525" height="34.722" id="mask-2">
						<g filter="url(#Adobe_OpacityMaskFilter)">
							<polygon id="path-1" fill="#FFFFFF" points="27.999,0.624 27.999,35.348 0.568,35.348 0.568,0.624 							"/>
						</g>
					</mask>
					<path id="Fill-9" mask="url(#mask-2)" fill="#003A40" d="M19.074,26.653c1.309-1.354,2.01-2.943,2.01-4.859v-7.616
						c0-1.916-0.654-3.505-2.01-4.86c-1.309-1.355-2.943-2.01-4.812-2.01s-3.505,0.655-4.813,2.01
						c-1.31,1.355-2.011,2.944-2.011,4.86v7.616c0,1.916,0.655,3.506,2.011,4.859c1.31,1.355,2.944,2.01,4.813,2.01
						C16.178,28.663,17.766,27.961,19.074,26.653 M7.391,33.569c-2.102-1.215-3.785-2.851-5-4.953
						c-1.213-2.104-1.822-4.346-1.822-6.774v-7.664c0-2.43,0.609-4.72,1.822-6.776c1.215-2.103,2.898-3.739,5-4.954
						c2.104-1.214,4.395-1.822,6.916-1.822c2.525,0,4.814,0.608,6.918,1.822c2.104,1.215,3.785,2.898,5,4.954
						c1.215,2.103,1.869,4.346,1.869,6.776v7.616c0,2.431-0.607,4.72-1.869,6.775c-1.215,2.104-2.896,3.738-5,4.953
						s-4.394,1.823-6.918,1.823C11.784,35.391,9.447,34.784,7.391,33.569"/>
				</g>
				<g id="Group-14" transform="translate(8.000000, 0.000000)">
					<g id="Clip-13">
					</g>
					<defs>
						<filter id="Adobe_OpacityMaskFilter_1_" filterUnits="userSpaceOnUse" x="0.458" y="0.791" width="31.497" height="40.002">
							<feColorMatrix  type="matrix" values="1 0 0 0 0  0 1 0 0 0  0 0 1 0 0  0 0 0 1 0"/>
						</filter>
					</defs>
					<mask maskUnits="userSpaceOnUse" x="0.458" y="0.791" width="31.497" height="40.002" id="mask-4">
						<g filter="url(#Adobe_OpacityMaskFilter_1_)">
							<polygon id="path-3" fill="#FFFFFF" points="0.458,0.791 31.955,0.791 31.955,40.793 0.458,40.793 							"/>
						</g>
					</mask>
					<path id="Fill-12" mask="url(#mask-4)" fill="#4CB05B" d="M31.955,17.708V9.296V0.791l-5.281,9.253
						C12.281,13.269,1.393,25.652,0.458,40.793h8.458C9.945,28.503,19.711,18.736,31.955,17.708"/>
				</g>
				<g id="Group-17" transform="translate(0.000000, 44.000000)">
					<g id="Clip-16">
					</g>
					<defs>
						<filter id="Adobe_OpacityMaskFilter_2_" filterUnits="userSpaceOnUse" x="0" y="0.998" width="40.002" height="31.496">
							<feColorMatrix  type="matrix" values="1 0 0 0 0  0 1 0 0 0  0 0 1 0 0  0 0 0 1 0"/>
						</filter>
					</defs>
					<mask maskUnits="userSpaceOnUse" x="0" y="0.998" width="40.002" height="31.496" id="mask-6">
						<g filter="url(#Adobe_OpacityMaskFilter_2_)">
							<polygon id="path-5" fill="#FFFFFF" points="0,32.495 0,0.998 40.001,0.998 40.001,32.495 							"/>
						</g>
					</mask>
					<path id="Fill-15" mask="url(#mask-6)" fill="#003A40" d="M16.917,0.998H8.505H0l9.253,5.279
						c3.225,14.395,15.608,25.282,30.749,26.217v-8.457C27.711,23.008,17.944,13.243,16.917,0.998"/>
				</g>
				<path id="Fill-18" fill="#003A40" d="M67.246,40.746h8.458h8.505l-9.253-5.28C71.731,21.073,59.349,10.184,44.208,9.25v8.458
					C56.45,18.736,66.217,28.503,67.246,40.746"/>
				<g id="Group-22" transform="translate(44.000000, 44.000000)">
					<g id="Clip-21">
					</g>
					<defs>
						<filter id="Adobe_OpacityMaskFilter_3_" filterUnits="userSpaceOnUse" x="0.208" y="0.998" width="31.496" height="40.002">
							<feColorMatrix  type="matrix" values="1 0 0 0 0  0 1 0 0 0  0 0 1 0 0  0 0 0 1 0"/>
						</filter>
					</defs>
					<mask maskUnits="userSpaceOnUse" x="0.208" y="0.998" width="31.496" height="40.002" id="mask-8">
						<g filter="url(#Adobe_OpacityMaskFilter_3_)">
							<polygon id="path-7" fill="#FFFFFF" points="31.704,40.954 0.208,40.954 0.208,0.998 31.704,0.998 							"/>
						</g>
					</mask>
					<path id="Fill-20" mask="url(#mask-8)" fill="#4CB05B" d="M0.208,24.038v8.457V41l5.28-9.254
						C19.88,28.523,30.77,16.14,31.704,0.998h-8.459C22.217,13.243,12.45,23.009,0.208,24.038"/>
				</g>
				<path id="Fill-23" fill="#003A40" d="M42.058,44.672c-1.028,0-1.822-0.842-1.822-1.824c0-1.028,0.841-1.822,1.822-1.822
					s1.823,0.841,1.823,1.822C43.88,43.83,43.085,44.672,42.058,44.672L42.058,44.672z M44.674,40.279L29.066,29.858l10.421,15.607
					l15.608,10.422L44.674,40.279z"/>
			</g>
			<polygon id="Fill-26" fill="#4CB05B" points="39.488,45.674 35.982,40.441 20,43.104 35.982,45.721 29.066,56.096 39.394,49.18 
				42.058,65.161 44.721,49.18 			"/>
			<polygon id="Fill-27" fill="#4CB05B" points="48.18,40.441 55.096,30.066 44.722,36.983 42.058,21.001 39.44,36.983 
				44.674,40.487 48.18,45.721 64.162,43.058 			"/>
		</g>
	</g>
</g>
</svg>
