<?xml version="1.0" encoding="UTF-8"?>
<svg width="593px" height="228px" viewBox="0 0 593 228" version="1.1" xmlns="http://www.w3.org/2000/svg" xmlns:xlink="http://www.w3.org/1999/xlink">
    <!-- Generator: Sketch 45.2 (43514) - http://www.bohemiancoding.com/sketch -->
    <title>OSGeo_community</title>
    <desc>Created with Sketch.</desc>
    <defs></defs>
    <g id="Page-1" stroke="none" stroke-width="1" fill="none" fill-rule="evenodd">
        <g id="OSGeo_community">
            <g id="osgeo-community-cmyk" transform="translate(7.000000, 7.000000)">
                <path d="M208.3663,192.3111 C206.239623,191.035094 204.55764,189.314444 203.3203,187.1491 C202.08296,184.983756 201.4643,182.625113 201.4643,180.0731 L201.4643,166.5011 C201.4643,163.949087 202.08296,161.590444 203.3203,159.4251 C204.55764,157.259756 206.239623,155.539106 208.3663,154.2631 C210.492977,152.987094 212.812954,152.3491 215.3263,152.3491 C217.375644,152.3491 219.289624,152.706763 221.0683,153.4221 C222.846976,154.137437 224.41296,155.17176 225.7663,156.5251 C225.959634,156.679767 226.0563,156.911765 226.0563,157.2211 C226.0563,157.491768 225.959634,157.743099 225.7663,157.9751 C224.954296,158.903105 224.432301,159.483099 224.2003,159.7151 C223.929632,159.908434 223.658968,160.0051 223.3883,160.0051 C223.078965,160.0051 222.788968,159.869768 222.5183,159.5991 C220.584957,157.743091 218.206981,156.8151 215.3843,156.8151 C213.721625,156.8151 212.194307,157.259762 210.8023,158.1491 C209.410293,159.038438 208.308304,160.227426 207.4963,161.7161 C206.684296,163.204774 206.2783,164.799758 206.2783,166.5011 L206.2783,180.0731 C206.2783,181.774442 206.684296,183.369426 207.4963,184.8581 C208.308304,186.346774 209.410293,187.535762 210.8023,188.4251 C212.194307,189.314438 213.721625,189.7591 215.3843,189.7591 C218.206981,189.7591 220.584957,188.831109 222.5183,186.9751 C222.788968,186.704432 223.078965,186.5691 223.3883,186.5691 C223.658968,186.5691 223.929632,186.665766 224.2003,186.8591 C224.432301,187.091101 224.954296,187.671095 225.7663,188.5991 C225.959634,188.792434 226.0563,189.043765 226.0563,189.3531 C226.0563,189.623768 225.959634,189.855766 225.7663,190.0491 C224.41296,191.40244 222.846976,192.436763 221.0683,193.1521 C219.289624,193.867437 217.375644,194.2251 215.3263,194.2251 C212.812954,194.2251 210.492977,193.587106 208.3663,192.3111 Z M238.8163,192.5431 C236.882957,191.421761 235.355639,189.884776 234.2343,187.9321 C233.112961,185.979424 232.5523,183.862445 232.5523,181.5811 L232.5523,172.5331 C232.5523,170.251755 233.112961,168.134776 234.2343,166.1821 C235.355639,164.229424 236.882957,162.692439 238.8163,161.5711 C240.749643,160.449761 242.856955,159.8891 245.1383,159.8891 C247.419645,159.8891 249.526957,160.449761 251.4603,161.5711 C253.393643,162.692439 254.920961,164.229424 256.0423,166.1821 C257.163639,168.134776 257.7243,170.251755 257.7243,172.5331 L257.7243,181.5811 C257.7243,183.862445 257.163639,185.979424 256.0423,187.9321 C254.920961,189.884776 253.393643,191.421761 251.4603,192.5431 C249.526957,193.664439 247.419645,194.2251 245.1383,194.2251 C242.856955,194.2251 240.749643,193.664439 238.8163,192.5431 Z M249.1983,188.8601 C250.43564,188.144763 251.411963,187.16844 252.1273,185.9311 C252.842637,184.69376 253.2003,183.340441 253.2003,181.8711 L253.2003,172.2431 C253.2003,170.773759 252.842637,169.42044 252.1273,168.1831 C251.411963,166.94576 250.43564,165.969437 249.1983,165.2541 C247.96096,164.538763 246.607641,164.1811 245.1383,164.1811 C243.668959,164.1811 242.31564,164.538763 241.0783,165.2541 C239.84096,165.969437 238.864637,166.94576 238.1493,168.1831 C237.433963,169.42044 237.0763,170.773759 237.0763,172.2431 L237.0763,181.8711 C237.0763,183.340441 237.433963,184.69376 238.1493,185.9311 C238.864637,187.16844 239.84096,188.144763 241.0783,188.8601 C242.31564,189.575437 243.668959,189.9331 245.1383,189.9331 C246.607641,189.9331 247.96096,189.575437 249.1983,188.8601 Z M266.9463,193.2391 C266.791633,193.084433 266.7143,192.891101 266.7143,192.6591 L266.7143,161.4551 C266.7143,161.223099 266.791633,161.029767 266.9463,160.8751 C267.100967,160.720433 267.294299,160.6431 267.5263,160.6431 L270.4263,160.6431 C270.658301,160.6431 270.851633,160.720433 271.0063,160.8751 C271.160967,161.029767 271.2383,161.223099 271.2383,161.4551 L271.2383,164.5871 C272.166305,163.040426 273.393959,161.870771 274.9213,161.0781 C276.448641,160.285429 278.140291,159.8891 279.9963,159.8891 C282.432312,159.8891 284.549291,160.459428 286.3473,161.6001 C288.145309,162.740772 289.430963,164.29709 290.2043,166.2691 C291.016304,164.219756 292.272958,162.653772 293.9743,161.5711 C295.675642,160.488428 297.608956,159.9471 299.7743,159.9471 C303.060983,159.9471 305.71929,160.952423 307.7493,162.9631 C309.77931,164.973777 310.7943,167.622417 310.7943,170.9091 L310.7943,192.6591 C310.7943,192.891101 310.716967,193.084433 310.5623,193.2391 C310.407633,193.393767 310.214301,193.4711 309.9823,193.4711 L307.0823,193.4711 C306.850299,193.4711 306.656967,193.393767 306.5023,193.2391 C306.347633,193.084433 306.2703,192.891101 306.2703,192.6591 L306.2703,171.7791 C306.2703,169.304421 305.62264,167.41944 304.3273,166.1241 C303.03196,164.82876 301.282311,164.1811 299.0783,164.1811 C296.680955,164.1811 294.737974,165.031758 293.2493,166.7331 C291.760626,168.434442 291.0163,170.773752 291.0163,173.7511 L291.0163,192.6591 C291.0163,192.891101 290.938967,193.084433 290.7843,193.2391 C290.629633,193.393767 290.436301,193.4711 290.2043,193.4711 L287.3043,193.4711 C287.072299,193.4711 286.878967,193.393767 286.7243,193.2391 C286.569633,193.084433 286.4923,192.891101 286.4923,192.6591 L286.4923,171.7211 C286.4923,169.246421 285.84464,167.36144 284.5493,166.0661 C283.25396,164.77076 281.504311,164.1231 279.3003,164.1231 C276.902955,164.1231 274.959974,164.973758 273.4713,166.6751 C271.982626,168.376442 271.2383,170.715752 271.2383,173.6931 L271.2383,192.6591 C271.2383,192.891101 271.160967,193.084433 271.0063,193.2391 C270.851633,193.393767 270.658301,193.4711 270.4263,193.4711 L267.5263,193.4711 C267.294299,193.4711 267.100967,193.393767 266.9463,193.2391 Z M320.5963,193.2391 C320.441633,193.084433 320.3643,192.891101 320.3643,192.6591 L320.3643,161.4551 C320.3643,161.223099 320.441633,161.029767 320.5963,160.8751 C320.750967,160.720433 320.944299,160.6431 321.1763,160.6431 L324.0763,160.6431 C324.308301,160.6431 324.501633,160.720433 324.6563,160.8751 C324.810967,161.029767 324.8883,161.223099 324.8883,161.4551 L324.8883,164.5871 C325.816305,163.040426 327.043959,161.870771 328.5713,161.0781 C330.098641,160.285429 331.790291,159.8891 333.6463,159.8891 C336.082312,159.8891 338.199291,160.459428 339.9973,161.6001 C341.795309,162.740772 343.080963,164.29709 343.8543,166.2691 C344.666304,164.219756 345.922958,162.653772 347.6243,161.5711 C349.325642,160.488428 351.258956,159.9471 353.4243,159.9471 C356.710983,159.9471 359.36929,160.952423 361.3993,162.9631 C363.42931,164.973777 364.4443,167.622417 364.4443,170.9091 L364.4443,192.6591 C364.4443,192.891101 364.366967,193.084433 364.2123,193.2391 C364.057633,193.393767 363.864301,193.4711 363.6323,193.4711 L360.7323,193.4711 C360.500299,193.4711 360.306967,193.393767 360.1523,193.2391 C359.997633,193.084433 359.9203,192.891101 359.9203,192.6591 L359.9203,171.7791 C359.9203,169.304421 359.27264,167.41944 357.9773,166.1241 C356.68196,164.82876 354.932311,164.1811 352.7283,164.1811 C350.330955,164.1811 348.387974,165.031758 346.8993,166.7331 C345.410626,168.434442 344.6663,170.773752 344.6663,173.7511 L344.6663,192.6591 C344.6663,192.891101 344.588967,193.084433 344.4343,193.2391 C344.279633,193.393767 344.086301,193.4711 343.8543,193.4711 L340.9543,193.4711 C340.722299,193.4711 340.528967,193.393767 340.3743,193.2391 C340.219633,193.084433 340.1423,192.891101 340.1423,192.6591 L340.1423,171.7211 C340.1423,169.246421 339.49464,167.36144 338.1993,166.0661 C336.90396,164.77076 335.154311,164.1231 332.9503,164.1231 C330.552955,164.1231 328.609974,164.973758 327.1213,166.6751 C325.632626,168.376442 324.8883,170.715752 324.8883,173.6931 L324.8883,192.6591 C324.8883,192.891101 324.810967,193.084433 324.6563,193.2391 C324.501633,193.393767 324.308301,193.4711 324.0763,193.4711 L321.1763,193.4711 C320.944299,193.4711 320.750967,193.393767 320.5963,193.2391 Z M376.7693,191.2091 C374.73929,189.198423 373.7243,186.549783 373.7243,183.2631 L373.7243,161.4551 C373.7243,161.223099 373.801633,161.029767 373.9563,160.8751 C374.110967,160.720433 374.304299,160.6431 374.5363,160.6431 L377.4363,160.6431 C377.668301,160.6431 377.861633,160.720433 378.0163,160.8751 C378.170967,161.029767 378.2483,161.223099 378.2483,161.4551 L378.2483,182.3931 C378.2483,184.829112 378.905627,186.704427 380.2203,188.0191 C381.534973,189.333773 383.274956,189.9911 385.4403,189.9911 C388.03098,189.9911 390.118959,189.140442 391.7043,187.4391 C393.289641,185.737758 394.0823,183.398448 394.0823,180.4211 L394.0823,161.4551 C394.0823,161.223099 394.159633,161.029767 394.3143,160.8751 C394.468967,160.720433 394.662299,160.6431 394.8943,160.6431 L397.7943,160.6431 C398.026301,160.6431 398.219633,160.720433 398.3743,160.8751 C398.528967,161.029767 398.6063,161.223099 398.6063,161.4551 L398.6063,192.6591 C398.6063,192.891101 398.528967,193.084433 398.3743,193.2391 C398.219633,193.393767 398.026301,193.4711 397.7943,193.4711 L394.8943,193.4711 C394.662299,193.4711 394.468967,193.393767 394.3143,193.2391 C394.159633,193.084433 394.0823,192.891101 394.0823,192.6591 L394.0823,189.4111 C393.076962,190.996441 391.771975,192.195096 390.1673,193.0071 C388.562625,193.819104 386.754977,194.2251 384.7443,194.2251 C381.457617,194.2251 378.79931,193.219777 376.7693,191.2091 Z M409.2783,193.1811 C409.123633,193.026433 409.0463,192.833101 409.0463,192.6011 L409.0463,161.4551 C409.0463,161.223099 409.123633,161.029767 409.2783,160.8751 C409.432967,160.720433 409.626299,160.6431 409.8583,160.6431 L412.7583,160.6431 C412.990301,160.6431 413.183633,160.720433 413.3383,160.8751 C413.492967,161.029767 413.5703,161.223099 413.5703,161.4551 L413.5703,164.6451 C414.575638,163.059759 415.880625,161.861104 417.4853,161.0491 C419.089975,160.237096 420.897623,159.8311 422.9083,159.8311 C426.194983,159.8311 428.85329,160.836423 430.8833,162.8471 C432.91331,164.857777 433.9283,167.506417 433.9283,170.7931 L433.9283,192.6011 C433.9283,192.833101 433.850967,193.026433 433.6963,193.1811 C433.541633,193.335767 433.348301,193.4131 433.1163,193.4131 L430.2163,193.4131 C429.984299,193.4131 429.790967,193.335767 429.6363,193.1811 C429.481633,193.026433 429.4043,192.833101 429.4043,192.6011 L429.4043,171.6631 C429.4043,169.188421 428.75664,167.30344 427.4613,166.0081 C426.16596,164.71276 424.416311,164.0651 422.2123,164.0651 C419.62162,164.0651 417.533641,164.915758 415.9483,166.6171 C414.362959,168.318442 413.5703,170.657752 413.5703,173.6351 L413.5703,192.6011 C413.5703,192.833101 413.492967,193.026433 413.3383,193.1811 C413.183633,193.335767 412.990301,193.4131 412.7583,193.4131 L409.8583,193.4131 C409.626299,193.4131 409.432967,193.335767 409.2783,193.1811 Z M448.0223,155.8871 C447.867633,155.732433 447.7903,155.539101 447.7903,155.3071 L447.7903,150.2611 C447.7903,150.029099 447.867633,149.835767 448.0223,149.6811 C448.176967,149.526433 448.370299,149.4491 448.6023,149.4491 L451.3863,149.4491 C451.618301,149.4491 451.811633,149.526433 451.9663,149.6811 C452.120967,149.835767 452.1983,150.029099 452.1983,150.2611 L452.1983,155.3071 C452.1983,155.539101 452.120967,155.732433 451.9663,155.8871 C451.811633,156.041767 451.618301,156.1191 451.3863,156.1191 L448.6023,156.1191 C448.370299,156.1191 448.176967,156.041767 448.0223,155.8871 Z M448.3413,192.8621 C447.935298,192.456098 447.7323,191.963103 447.7323,191.3831 L447.7323,164.9351 L441.7003,164.9351 C441.468299,164.9351 441.274967,164.857767 441.1203,164.7031 C440.965633,164.548433 440.8883,164.355101 440.8883,164.1231 L440.8883,161.4551 C440.8883,161.223099 440.965633,161.029767 441.1203,160.8751 C441.274967,160.720433 441.468299,160.6431 441.7003,160.6431 L450.1683,160.6431 C450.748303,160.6431 451.241298,160.846098 451.6473,161.2521 C452.053302,161.658102 452.2563,162.151097 452.2563,162.7311 L452.2563,189.1791 L458.2303,189.1791 C458.462301,189.1791 458.655633,189.256433 458.8103,189.4111 C458.964967,189.565767 459.0423,189.759099 459.0423,189.9911 L459.0423,192.6591 C459.0423,192.891101 458.964967,193.084433 458.8103,193.2391 C458.655633,193.393767 458.462301,193.4711 458.2303,193.4711 L449.8203,193.4711 C449.240297,193.4711 448.747302,193.268102 448.3413,192.8621 Z M469.5403,190.9481 C467.954959,189.266092 467.1623,187.149113 467.1623,184.5971 L467.1623,164.8771 L463.3343,164.8771 C463.102299,164.8771 462.908967,164.799767 462.7543,164.6451 C462.599633,164.490433 462.5223,164.297101 462.5223,164.0651 L462.5223,161.4551 C462.5223,161.223099 462.599633,161.029767 462.7543,160.8751 C462.908967,160.720433 463.102299,160.6431 463.3343,160.6431 L467.1623,160.6431 L467.1623,154.5531 C467.1623,154.321099 467.239633,154.127767 467.3943,153.9731 C467.548967,153.818433 467.742299,153.7411 467.9743,153.7411 L470.8743,153.7411 C471.106301,153.7411 471.299633,153.818433 471.4543,153.9731 C471.608967,154.127767 471.6863,154.321099 471.6863,154.5531 L471.6863,160.6431 L481.8943,160.6431 C482.126301,160.6431 482.319633,160.720433 482.4743,160.8751 C482.628967,161.029767 482.7063,161.223099 482.7063,161.4551 L482.7063,164.1231 C482.7063,164.355101 482.628967,164.548433 482.4743,164.7031 C482.319633,164.857767 482.126301,164.9351 481.8943,164.9351 L471.6863,164.9351 L471.6863,184.0751 C471.6863,185.583108 472.140629,186.791429 473.0493,187.7001 C473.957971,188.608771 475.146959,189.082433 476.6163,189.1211 L481.8943,189.1791 C482.126301,189.1791 482.319633,189.256433 482.4743,189.4111 C482.628967,189.565767 482.7063,189.759099 482.7063,189.9911 L482.7063,192.6591 C482.7063,192.891101 482.628967,193.084433 482.4743,193.2391 C482.319633,193.393767 482.126301,193.4711 481.8943,193.4711 L476.0943,193.4711 C473.310286,193.4711 471.125641,192.630108 469.5403,190.9481 Z M496.6843,204.3171 C496.490966,204.085099 496.452299,203.795102 496.5683,203.4471 L499.9323,193.8191 L488.3903,161.9191 C488.351633,161.841766 488.3323,161.706434 488.3323,161.5131 C488.3323,161.281099 488.419299,161.078101 488.5933,160.9041 C488.767301,160.730099 488.989632,160.6431 489.2603,160.6431 L491.9283,160.6431 C492.160301,160.6431 492.382632,160.710766 492.5953,160.8461 C492.807968,160.981434 492.952966,161.165099 493.0303,161.3971 L502.1363,187.3811 L511.1843,161.3971 C511.261634,161.165099 511.406632,160.981434 511.6193,160.8461 C511.831968,160.710766 512.054299,160.6431 512.2863,160.6431 L514.8383,160.6431 C515.186302,160.6431 515.447299,160.768765 515.6213,161.0201 C515.795301,161.271435 515.824301,161.571098 515.7083,161.9191 L500.8603,203.9111 C500.782966,204.143101 500.637968,204.326766 500.4253,204.4621 C500.212632,204.597434 499.990301,204.6651 499.7583,204.6651 L497.4963,204.6651 C497.148298,204.6651 496.877634,204.549101 496.6843,204.3171 Z" id="Community" fill="#0B3A42"></path>
                <g id="Group" fill-rule="nonzero">
                    <path d="M218.7,131.7 C213.7,128.8 209.7,124.8 206.8,119.8 C203.9,114.8 202.4,109.3 202.4,103.3 L202.4,76.8 C202.4,70.8 203.9,65.3 206.8,60.3 C209.7,55.3 213.7,51.3 218.7,48.4 C223.7,45.5 229.2,44 235.1,44 C241,44 246.5,45.5 251.5,48.4 C256.5,51.3 260.5,55.3 263.4,60.3 C266.3,65.3 267.8,70.8 267.8,76.8 L267.8,103.3 C267.8,109.3 266.3,114.8 263.4,119.8 C260.5,124.8 256.5,128.8 251.5,131.7 C246.5,134.6 241,136.1 235.1,136.1 C229.2,136.1 223.7,134.6 218.7,131.7 M243.9,119.1 C246.6,117.4 248.8,115.2 250.4,112.4 C252,109.6 252.8,106.6 252.8,103.3 L252.8,76.8 C252.8,73.6 252,70.5 250.4,67.7 C248.8,64.9 246.6,62.6 243.9,61 C241.2,59.4 238.3,58.5 235.1,58.5 C232,58.5 229,59.3 226.3,61 C223.6,62.7 221.4,64.9 219.8,67.7 C218.2,70.5 217.4,73.5 217.4,76.8 L217.4,103.3 C217.4,106.5 218.2,109.6 219.8,112.4 C221.4,115.2 223.6,117.5 226.3,119.1 C229,120.8 231.9,121.6 235.1,121.6 C238.2,121.5 241.2,120.7 243.9,119.1" id="Shape" fill="#4DB05B"></path>
                    <path d="M291.8,133.8 C287.5,132.4 283.5,130.3 279.8,127.8 C279.4,127.6 279.1,127.1 278.9,126.5 C278.7,125.9 278.8,125.3 279,124.8 L283.3,117 C283.8,116 284.6,115.5 285.6,115.5 C286.3,115.5 286.9,115.7 287.5,116 C293.7,119.9 299.4,121.8 304.8,121.8 C309.2,121.8 312.6,120.7 315.1,118.6 C317.6,116.5 318.9,113.7 318.9,110.3 C318.9,108.1 318.3,106.2 317,104.6 C315.8,103.1 314.1,101.8 312.1,100.7 C310,99.6 307,98.3 303.1,96.7 L299.5,95.2 C293.9,92.8 289.2,89.7 285.4,86 C281.6,82.3 279.6,76.8 279.6,69.6 C279.6,64.5 280.7,60.1 283,56.2 C285.3,52.3 288.4,49.3 292.5,47.1 C296.5,44.9 301.2,43.9 306.5,43.9 C310.9,43.9 315.2,44.6 319.5,46.1 C323.8,47.6 327.7,49.6 331.2,52.1 C331.6,52.3 331.9,52.8 332.1,53.4 C332.3,54 332.2,54.6 332,55.1 L327.9,62.9 C327.4,63.9 326.6,64.4 325.5,64.4 C324.8,64.4 324.2,64.2 323.6,63.9 C320.4,61.8 317.3,60.3 314.4,59.4 C311.5,58.5 308.9,58 306.6,58 C302.9,58 300,59 297.8,61 C295.7,63 294.6,65.6 294.6,68.8 C294.6,72 295.8,74.7 298.1,76.8 C300.5,78.9 304.2,81 309.4,83.2 C310.1,83.4 313,84.6 317.9,86.6 C322.8,88.6 326.7,91.6 329.6,95.5 C332.5,99.4 333.9,104 333.9,109.3 C333.9,114.4 332.7,119 330.3,123 C327.9,127 324.5,130.1 320.1,132.4 C315.7,134.7 310.7,135.8 305,135.8 C300.5,136 296.1,135.2 291.8,133.8" id="Shape" fill="#4DB05B"></path>
                    <path d="M361.8,131.7 C356.8,128.8 352.9,124.8 349.9,119.8 C347,114.8 345.5,109.3 345.5,103.3 L345.5,76.8 C345.5,70.8 347,65.3 349.9,60.3 C352.8,55.3 356.8,51.3 361.8,48.4 C366.8,45.5 372.2,44 378.2,44 C383.4,44 388.2,44.9 392.7,46.8 C397.1,48.7 400.9,51.4 404.1,54.9 C404.6,55.5 404.8,56.2 404.8,57 C404.8,57.8 404.5,58.7 403.8,59.5 L398.4,65.2 C397.7,65.9 397.1,66.2 396.4,66.2 C395.6,66.2 394.8,65.8 394.2,65.1 C390.1,60.7 384.8,58.5 378.4,58.5 C375.3,58.5 372.3,59.3 369.6,61 C366.9,62.7 364.7,64.9 363.1,67.7 C361.5,70.5 360.7,73.5 360.7,76.8 L360.7,103.3 C360.7,106.5 361.5,109.6 363.1,112.4 C364.7,115.2 366.9,117.5 369.6,119.1 C372.3,120.8 375.2,121.6 378.4,121.6 C381.5,121.6 384.5,120.8 387.2,119.2 C389.9,117.6 392.1,115.5 393.6,112.7 C395.2,110 395.9,107 395.9,103.8 L395.9,97.7 L379.3,97.7 C378.6,97.7 377.9,97.5 377.4,97 C376.9,96.5 376.7,95.9 376.7,95.1 L376.7,86.2 C376.7,85.5 376.9,84.8 377.4,84.3 C377.9,83.8 378.5,83.6 379.3,83.6 L405.4,83.6 C406.9,83.6 408.1,84.1 409.2,85.1 C410.2,86.1 410.7,87.4 410.7,88.9 L410.7,103.3 C410.7,109.3 409.2,114.8 406.3,119.8 C403.4,124.8 399.4,128.8 394.4,131.7 C389.4,134.6 384,136.1 378.2,136.1 C372.2,136.1 366.8,134.6 361.8,131.7" id="Shape" fill="#003A40"></path>
                    <path d="M438,130.5 C433.5,127.9 429.9,124.2 427.3,119.7 C424.7,115.2 423.3,110.2 423.3,104.8 L423.3,91.4 C423.3,86 424.6,81 427.3,76.5 C429.9,72 433.5,68.3 438,65.7 C442.5,63.1 447.4,61.7 452.8,61.7 C458.2,61.7 463.1,63 467.6,65.7 C472.1,68.3 475.7,72 478.3,76.5 C480.9,81.1 482.3,86 482.3,91.4 L482.3,99.7 C482.3,101.2 481.8,102.4 480.8,103.5 C479.8,104.5 478.5,105 477,105 L438.3,105 L438.3,105.6 C438.3,109.7 439.7,113.1 442.6,116 C445.5,118.9 448.9,120.3 452.9,120.3 L472.5,120.3 C473.2,120.3 473.9,120.6 474.4,121.1 C474.9,121.6 475.1,122.2 475.1,123 L475.1,132 C475.1,132.7 474.9,133.4 474.4,133.9 C473.9,134.4 473.3,134.6 472.5,134.6 L452.9,134.6 C447.4,134.5 442.4,133.1 438,130.5 L438,130.5 Z M467.3,91.6 L467.3,90.5 C467.3,86.4 465.9,83 463,80.1 C460.2,77.2 456.7,75.8 452.7,75.8 C448.7,75.8 445.2,77.2 442.4,80.1 C439.6,83 438.1,86.4 438.1,90.5 L438.1,91.6 L467.3,91.6 Z" id="Shape" fill="#003A40"></path>
                    <path d="M508,132.2 C503.5,129.6 499.9,126.1 497.3,121.6 C494.7,117.1 493.4,112.3 493.4,107.1 L493.4,90.7 C493.4,85.5 494.7,80.6 497.3,76.2 C499.9,71.7 503.5,68.2 508,65.6 C512.5,63 517.4,61.7 522.8,61.7 C528.2,61.7 533.1,63 537.6,65.6 C542.1,68.2 545.7,71.8 548.3,76.2 C550.9,80.7 552.3,85.5 552.3,90.7 L552.3,107 C552.3,112.2 551,117.1 548.3,121.5 C545.7,126 542.1,129.5 537.6,132.1 C533.1,134.7 528.2,136 522.8,136 C517.4,136.1 512.4,134.8 508,132.2 M533,117.4 C535.8,114.5 537.3,111.1 537.3,107 L537.3,90.7 C537.3,86.6 535.9,83.2 533,80.3 C530.2,77.4 526.7,76 522.7,76 C518.7,76 515.2,77.4 512.4,80.3 C509.6,83.2 508.1,86.6 508.1,90.7 L508.1,107 C508.1,111.1 509.5,114.5 512.4,117.4 C515.2,120.3 518.7,121.7 522.7,121.7 C526.8,121.7 530.2,120.2 533,117.4" id="Shape" fill="#003A40"></path>
                    <path d="M85.5,36.2 L85.5,18.2 L85.5,0 L74.2,19.8 C43.4,26.7 20.1,53.2 18.1,85.6 L36.2,85.6 C38.4,59.3 59.3,38.4 85.5,36.2" id="Shape" fill="#4DB05B"></path>
                    <path d="M36.2,94.6 L18.2,94.6 L0,94.6 L19.8,105.9 C26.7,136.7 53.2,160 85.6,162 L85.6,143.9 C59.3,141.7 38.4,120.8 36.2,94.6" id="Shape" fill="#003A40"></path>
                    <path d="M143.9,85.5 L162,85.5 L180.2,85.5 L160.4,74.2 C153.5,43.4 127,20.1 94.6,18.1 L94.6,36.2 C120.8,38.4 141.7,59.3 143.9,85.5" id="Shape" fill="#003A40"></path>
                    <path d="M94.5,143.9 L94.5,162 L94.5,180.2 L105.8,160.4 C136.6,153.5 159.9,127 161.9,94.6 L143.8,94.6 C141.7,120.8 120.8,141.7 94.5,143.9" id="Shape" fill="#4DB05B"></path>
                    <path d="M95.6,84.5 L62.2,62.2 L84.5,95.6 L117.9,117.9 L95.6,84.5 Z M90,93.9 C87.8,93.9 86.1,92.1 86.1,90 C86.1,87.8 87.9,86.1 90,86.1 C92.2,86.1 93.9,87.9 93.9,90 C93.9,92.1 92.2,93.9 90,93.9 L90,93.9 Z" id="Shape" fill="#003A40"></path>
                    <polygon id="Shape" fill="#4DB05B" points="84.5 95.6 77 84.4 42.8 90.1 77 95.7 62.2 117.9 84.3 103.1 90 137.3 95.7 103.1"></polygon>
                    <polygon id="Shape" fill="#4DB05B" points="103.1 84.4 117.9 62.2 95.7 77 90 42.8 84.4 77 95.6 84.5 103.1 95.7 137.3 90"></polygon>
                </g>
            </g>
        </g>
    </g>
</svg>