<?xml version="1.0" encoding="UTF-8" standalone="no"?>
<svg
   width="180.19922"
   height="180.19922"
   version="1.1"
   id="svg140"
   sodipodi:docname="harry_wood_OSGeoMatrix_logoF.svg"
   inkscape:version="1.2.2 (b0a84865, 2022-12-01)"
   inkscape:export-filename="OSGeo_logo.png"
   inkscape:export-xdpi="213.09749"
   inkscape:export-ydpi="213.09749"
   xmlns:inkscape="http://www.inkscape.org/namespaces/inkscape"
   xmlns:sodipodi="http://sodipodi.sourceforge.net/DTD/sodipodi-0.dtd"
   xmlns="http://www.w3.org/2000/svg"
   xmlns:svg="http://www.w3.org/2000/svg">
  <defs
     id="defs144" />
  <sodipodi:namedview
     id="namedview142"
     pagecolor="#ffffff"
     bordercolor="#000000"
     borderopacity="0.25"
     inkscape:showpageshadow="2"
     inkscape:pageopacity="0.0"
     inkscape:pagecheckerboard="0"
     inkscape:deskcolor="#d1d1d1"
     showgrid="false"
     inkscape:zoom="0.11588694"
     inkscape:cx="69.032798"
     inkscape:cy="133.75105"
     inkscape:window-width="1457"
     inkscape:window-height="977"
     inkscape:window-x="314"
     inkscape:window-y="35"
     inkscape:window-maximized="0"
     inkscape:current-layer="svg140" />
  <rect
     style="fill:#ffffff;fill-opacity:1;stroke:none;stroke-width:1.31951"
     id="rect1114"
     width="72.457626"
     height="79.322037"
     x="53.771187"
     y="50.720341"
     rx="4.5054493"
     ry="5.3630166" />
  <path
     d="M 85.5,0 74.199219,19.800781 c -30.8,6.9 -54.09961,33.398828 -56.09961,65.798828 h 18.09961 c 2.2,-26.3 23.100781,-47.20039 49.300781,-49.40039 z m 58.40039,94.599609 c -2.2,26.200001 -23.10078,47.100781 -49.300781,49.300781 v 36.29883 L 105.90039,160.40039 C 136.70039,153.50039 160,126.99961 162,94.599609 Z"
     style="fill:#4db05b"
     id="path136"
     sodipodi:nodetypes="cccccccccccc" />
  <path
     d="m 94.599609,18.099609 v 18.09961 C 120.79961,38.399219 141.70039,59.3 143.90039,85.5 h 36.29883 L 160.40039,74.199219 c -6.9,-30.8 -33.40078,-54.09961 -65.800781,-56.09961 z M 0,94.599609 19.800781,105.90039 c 6.9,30.8 33.398828,54.09961 65.798828,56.09961 v -18.09961 c -26.3,-2.2 -47.20039,-23.10078 -49.40039,-49.300781 z"
     style="fill:#003a40"
     id="path138"
     sodipodi:nodetypes="cccccccccccc" />
  <path
     d="m 120.10931,124.13384 0.19137,-68.702344 h -6.8657 v -2.772797 h 10.32736 V 126.7203 h -10.32736 v -2.50314 z"
     id="path526"
     style="fill:#040404;stroke-width:2.804"
     sodipodi:nodetypes="ccccccccc" />
  <path
     d="m 76.751458,77.184138 v 3.564215 h 0.105317 c 0.921532,-1.305336 2.137475,-2.383858 3.566447,-3.170763 1.388281,-0.747559 2.991986,-1.122496 4.763241,-1.122496 1.723384,0 3.303152,0.32402 4.715369,0.972059 1.424185,0.645724 2.513268,1.784421 3.25528,3.425349 0.809033,-1.157213 1.905297,-2.177874 3.303152,-3.055041 1.388282,-0.886425 3.039858,-1.32848 4.930796,-1.32848 1.44094,0 2.77656,0.171267 3.99729,0.509173 1.2303,0.342535 2.28348,0.886425 3.15954,1.636299 0.87605,0.747559 1.56301,1.726561 2.05609,2.93932 0.49068,1.20813 0.73722,2.661588 0.73722,4.374263 V 103.5871 h -7.49193 V 88.635913 c 0,-0.886424 -0.0359,-1.719617 -0.10532,-2.499579 -0.05,-0.710528 -0.24654,-1.404856 -0.57924,-2.041323 -0.31835,-0.58092 -0.80425,-1.060006 -1.39786,-1.379397 -0.61515,-0.337906 -1.45051,-0.509173 -2.513268,-0.509173 -1.053179,0 -1.905296,0.196726 -2.56114,0.585549 -0.651056,0.393452 -1.16089,0.902626 -1.529502,1.532149 -0.380581,0.66424 -0.631908,1.393284 -0.737226,2.145473 -0.124466,0.803105 -0.1867,1.613154 -0.1867,2.430146 V 103.59636 H 86.747083 V 88.784037 c 0,-0.782276 -0.01676,-1.557608 -0.05027,-2.314425 -0.02729,-0.72673 -0.179279,-1.441887 -0.449994,-2.120014 -0.258508,-0.641096 -0.718077,-1.184986 -1.316474,-1.557608 -0.617546,-0.388823 -1.522322,-0.585549 -2.728691,-0.585549 -0.47393,0.01921 -0.943074,0.09721 -1.397855,0.231442 -0.617546,0.172425 -1.192007,0.467514 -1.68748,0.865595 -0.545738,0.425854 -1.010094,1.039177 -1.397856,1.837654 -0.385367,0.800791 -0.579248,1.846911 -0.579248,3.147618 v 15.32149 H 69.647287 V 77.225798 Z"
     id="path528"
     style="fill:#040404;stroke-width:2.35367" />
  <path
     d="m 59.130898,124.13384 -0.1902,-68.702344 h 6.8248 V 52.658699 H 55.499628 V 126.7203 h 10.26587 v -2.50314 z"
     id="path1976"
     style="fill:#040404;stroke-width:2.79565"
     sodipodi:nodetypes="ccccccccc" />
</svg>
