<?xml version="1.0" encoding="UTF-8" standalone="no"?>
<svg
     xmlns:dc="http://purl.org/dc/elements/1.1/"
     xmlns:cc="http://creativecommons.org/ns#"
     xmlns:rdf="http://www.w3.org/1999/02/22-rdf-syntax-ns#"
     xmlns:svg="http://www.w3.org/2000/svg"
     xmlns="http://www.w3.org/2000/svg"
     xmlns:sodipodi="http://sodipodi.sourceforge.net/DTD/sodipodi-0.dtd"
     xmlns:inkscape="http://www.inkscape.org/namespaces/inkscape"
     xml:space="preserve"
     enable-background="new 0 0 636.271 636.269"
     viewBox="0 0 636.271 636.269"
     height="636.269px"
     width="636.271px"
     y="0px"
     x="0px"
     id="Calque_1"
     version="1.1"
     sodipodi:docname="compass.svg"
     inkscape:version="0.92.2 5c3e80d, 2017-08-06"><title
         id="title14">osgeo-compass</title><sodipodi:namedview
         pagecolor="#ffffff"
         bordercolor="#666666"
         borderopacity="1"
         objecttolerance="10"
         gridtolerance="10"
         guidetolerance="10"
         inkscape:pageopacity="0"
         inkscape:pageshadow="2"
         inkscape:window-width="640"
         inkscape:window-height="480"
         id="namedview12"
         showgrid="false"
         inkscape:zoom="0.37091231"
         inkscape:cx="318.1355"
         inkscape:cy="318.13449"
         inkscape:window-x="0"
         inkscape:window-y="0"
         inkscape:window-maximized="0"
         inkscape:current-layer="Calque_1" /><metadata
         id="metadata19"><rdf:RDF><cc:Work
                 rdf:about=""><dc:format>image/svg+xml</dc:format><dc:type
                     rdf:resource="http://purl.org/dc/dcmitype/StillImage" /><dc:title>osgeo-compass</dc:title><dc:date>08-21-2018</dc:date><dc:creator><cc:Agent><dc:title>Nicolas Bozon</dc:title></cc:Agent></dc:creator><dc:publisher><cc:Agent><dc:title>Open Source Geospatial Foundation</dc:title></cc:Agent></dc:publisher><dc:contributor><cc:Agent><dc:title>OSGeo Marketing Committee</dc:title></cc:Agent></dc:contributor><dc:identifier>osgeo-compass</dc:identifier><cc:license
                     rdf:resource="http://creativecommons.org/licenses/by-sa/4.0/" /><dc:rights><cc:Agent><dc:title>copyright OSGeo</dc:title></cc:Agent></dc:rights><dc:description>OSGeo compass</dc:description></cc:Work><cc:License
                 rdf:about="http://creativecommons.org/licenses/by-sa/4.0/"><cc:permits
                     rdf:resource="http://creativecommons.org/ns#Reproduction" /><cc:permits
                     rdf:resource="http://creativecommons.org/ns#Distribution" /><cc:requires
                     rdf:resource="http://creativecommons.org/ns#Notice" /><cc:requires
                     rdf:resource="http://creativecommons.org/ns#Attribution" /><cc:permits
                     rdf:resource="http://creativecommons.org/ns#DerivativeWorks" /><cc:requires
                     rdf:resource="http://creativecommons.org/ns#ShareAlike" /></cc:License></rdf:RDF></metadata><defs
         id="defs17" /><g
         id="g12"><path
             id="path2"
             d="M302.229,127.961V64.172V0l-39.904,69.847C153.628,94.171,71.226,187.974,64.18,302.225h63.776   C135.611,209.508,209.508,135.621,302.229,127.961z" /><path
             id="path4"
             d="M127.951,334.049H64.172H0l69.847,39.904c24.324,108.682,118.128,191.09,232.378,198.138V508.31   C209.508,500.652,135.611,426.766,127.951,334.049z" /><path
             id="path6"
             d="M566.432,262.323C542.103,153.631,448.299,71.223,334.047,64.177v63.789c92.716,7.652,166.613,81.545,174.275,174.261   h63.781h64.168L566.432,262.323z" /><path
             id="path8"
             d="M334.047,508.31v63.802v64.157l39.903-69.845C482.638,542.1,565.051,448.297,572.094,334.039h-63.776   C500.66,426.755,426.758,500.642,334.047,508.31z" /><path
             id="path10"
             d="M364.368,338.264l120.788-20.13l-120.788-20.132l52.188-78.287l-78.284,52.193l-20.135-120.802l-20.131,120.799   L219.72,219.72l63.826,95.741l-11.641-17.458l-120.791,20.143l120.791,20.119l-52.183,78.284l78.287-52.183l20.122,120.799   l20.135-120.799l78.294,52.193l-58.875-88.316L364.368,338.264z M317.938,331.764c-7.69,0-13.914-6.236-13.914-13.919   c0-7.686,6.224-13.917,13.914-13.917c7.684,0,13.914,6.231,13.914,13.917C331.853,325.527,325.622,331.764,317.938,331.764z" /></g></svg>