<?xml version="1.0" encoding="UTF-8" standalone="no"?>
<svg
     xmlns:dc="http://purl.org/dc/elements/1.1/"
     xmlns:cc="http://creativecommons.org/ns#"
     xmlns:rdf="http://www.w3.org/1999/02/22-rdf-syntax-ns#"
     xmlns:svg="http://www.w3.org/2000/svg"
     xmlns="http://www.w3.org/2000/svg"
     xmlns:sodipodi="http://sodipodi.sourceforge.net/DTD/sodipodi-0.dtd"
     xmlns:inkscape="http://www.inkscape.org/namespaces/inkscape"
     version="1.1"
     id="Calque_1"
     x="0px"
     y="0px"
     width="514.693px"
     height="591.314px"
     viewBox="0 0 514.693 591.314"
     enable-background="new 0 0 514.693 591.314"
     xml:space="preserve"
     sodipodi:docname="gdal.svg"
     inkscape:version="0.92.2 5c3e80d, 2017-08-06"><title
         id="title36">osgeo-gdal</title><metadata
         id="metadata15"><rdf:RDF><cc:Work
                 rdf:about=""><dc:format>image/svg+xml</dc:format><dc:type
                     rdf:resource="http://purl.org/dc/dcmitype/StillImage" /><dc:title>osgeo-gdal</dc:title><dc:date>08-21-2018</dc:date><dc:creator><cc:Agent><dc:title>Nicolas Bozon</dc:title></cc:Agent></dc:creator><dc:rights><cc:Agent><dc:title>copyright OSGeo</dc:title></cc:Agent></dc:rights><dc:publisher><cc:Agent><dc:title>OSGeo</dc:title></cc:Agent></dc:publisher><dc:identifier>osgeo-gdal</dc:identifier><dc:description>OSGeo GDAL</dc:description><dc:contributor><cc:Agent><dc:title>OSGeo Marketing Committee</dc:title></cc:Agent></dc:contributor><cc:license
                     rdf:resource="http://creativecommons.org/licenses/by-sa/4.0/" /></cc:Work><cc:License
                 rdf:about="http://creativecommons.org/licenses/by-sa/4.0/"><cc:permits
                     rdf:resource="http://creativecommons.org/ns#Reproduction" /><cc:permits
                     rdf:resource="http://creativecommons.org/ns#Distribution" /><cc:requires
                     rdf:resource="http://creativecommons.org/ns#Notice" /><cc:requires
                     rdf:resource="http://creativecommons.org/ns#Attribution" /><cc:permits
                     rdf:resource="http://creativecommons.org/ns#DerivativeWorks" /><cc:requires
                     rdf:resource="http://creativecommons.org/ns#ShareAlike" /></cc:License></rdf:RDF></metadata><defs
         id="defs13" /><sodipodi:namedview
         pagecolor="#ffffff"
         bordercolor="#666666"
         borderopacity="1"
         objecttolerance="10"
         gridtolerance="10"
         guidetolerance="10"
         inkscape:pageopacity="0"
         inkscape:pageshadow="2"
         inkscape:window-width="640"
         inkscape:window-height="480"
         id="namedview11"
         showgrid="false"
         inkscape:zoom="0.39911111"
         inkscape:cx="257.3465"
         inkscape:cy="295.65701"
         inkscape:window-x="0"
         inkscape:window-y="0"
         inkscape:window-maximized="0"
         inkscape:current-layer="Calque_1" /><g
         id="g8"><path
             d="M202.016,44.455l15.811,23.241l-18.098,5.088l-12.907-39.105c0,0-14.971-3.367-28.233,1.042   c-12.747,4.232-23.803,16.248-23.803,16.248l12.405,37.596l-19.929,5.601l-16.297-24.531L10.351,99.275l32.248,48.544   l100.619-29.639l-13.087-19.7l18.57-5.346l9.025,27.349c0,0,0.585-0.389,1.638-1.04c-10.688,10.362-14.925,22.273-16.158,26.464   c0.055-0.151,0.118-0.305,0.185-0.458c-0.296,0.69-0.5,1.365-0.6,2.019c-0.087,0.588-0.096,1.145-0.02,1.675   c0.036,0.259,0.092,0.515,0.169,0.764c0.116,0.372,0.276,0.731,0.479,1.066c0.469,0.788,1.17,1.479,2.084,2.07   c5.984,3.884,21.002,3.61,39.434-1.26l11.852,17.188c-1.285,2.619-0.921,5.864,1.169,8.142c2.724,2.965,7.336,3.161,10.301,0.438   c2.964-2.724,3.16-7.335,0.437-10.3c-0.595-0.645-1.302-1.178-2.087-1.57l-1.598-20.669c18.091-7.499,31.589-17.243,32.699-24.476   c0.269-1.765-0.215-3.255-1.36-4.458c-0.192-0.205-0.396-0.398-0.625-0.584c-0.281-0.227-0.579-0.436-0.886-0.627   c0.005,0.003,0.01,0.004,0.013,0.006c-3.934-3.435-12.556-9.676-25.11-11.748l-8.459-25.63l19.406-5.586l14.23,20.918   l104.345-30.644l-32.905-48.372L202.016,44.455z M146.616,140.737c0.633-0.686,1.29-1.345,1.977-1.977   C147.909,139.393,147.25,140.052,146.616,140.737z M154.453,134.125c-0.108,0.075-0.214,0.148-0.32,0.224l-0.002,0.001   c0.11-0.079,0.218-0.153,0.329-0.229L154.453,134.125z M198.541,161.89l-4.687-12.751c-0.519,0.17-1.04,0.33-1.561,0.495   c0.521-0.164,1.042-0.324,1.561-0.495L198.541,161.89z"
             id="path2" /><path
             d="M401.917,197.082c-31.509-18.386-65.916-27.579-103.225-27.579c-37.311,0-71.72,9.193-103.229,27.579   c-31.506,18.387-56.338,37.575-74.723,69.082c-18.388,31.509-27.699,71.677-27.699,108.986c0,37.31,9.311,65.957,27.699,97.467   c18.386,31.507,43.333,56.455,74.84,74.844c31.509,18.385,65.8,33.339,103.111,33.339c37.308,0,71.834-14.954,103.342-33.339   c31.508-18.389,56.456-43.336,74.842-74.844c18.389-31.51,27.58-65.916,27.58-103.227c0-37.31-9.193-71.719-27.58-103.226   C458.488,234.658,433.425,215.469,401.917,197.082z M324.503,477.573h0.011c-1.626-1.95-2.286-3.605-1.987-4.963   c-0.066,0.188-0.154,0.367-0.26,0.537c-0.318,0.53-0.819,1.022-1.502,1.479c-0.894-1.069-2.5-2.408-4.82-4.016   c-2.321-1.605-3.93-2.944-4.82-4.016c-0.5-0.753-0.99-1.514-1.473-2.275c-0.814-1.286-1.617-2.581-2.409-3.884   c-0.982-1.606-1.696-2.991-2.142-4.149c-0.336-0.872-0.445-1.467-0.326-1.783c0.032-0.098,0.101-0.178,0.188-0.225   c-3.392,1.428-8.299,0.445-14.725-2.944c-1.251-0.714-3.125-2.589-5.621-5.625c-2.501-3.032-5.088-4.372-7.768-4.017   c-0.893,0.182-2.098,0.492-3.615,0.939c-1.517,0.445-2.811,0.668-3.883,0.668s-2.5-0.356-4.285-1.07   c-1.428-0.537-3.348-1.562-5.758-3.078c-2.409-1.518-4.06-2.455-4.953-2.812l-3.481-1.874l-4.284-2.142   c-1.071-0.536-2.186-1.384-3.346-2.543c-1.162-1.16-1.92-2.365-2.278-3.617c-0.356-1.07-0.803-3.214-1.34-6.426   c-0.534-3.215-1.25-5.533-2.141-6.963c-1.071-1.785-2.588-3.57-4.552-5.354c-1.964-1.786-3.749-2.681-5.357-2.681h0.02   l-0.019-0.002c0.446,0,0.753-0.116,0.92-0.352c0.366-0.519,0.061-1.604-0.922-3.261c-1.429-2.411-2.678-4.148-3.749-5.222   c-0.357-0.355-1.428-1.517-3.213-3.481c-1.534-1.682-3.05-3.377-4.551-5.088c-1.25-1.426-2.321-3.079-3.213-4.954   c-0.895-1.872-1.072-3.433-0.537-4.686l0.001-0.001c0.021-0.02,0.038-0.044,0.049-0.067c0.077-0.177-0.118-0.421-0.586-0.733   c-0.536-0.355-1.204-0.715-2.008-1.069c-0.749-0.336-1.509-0.649-2.276-0.938c-0.712-0.267-1.247-0.4-1.603-0.4   c0.357,0.715,0.76,2.009,1.204,3.881c0.445,1.873,0.938,3.258,1.473,4.15c0.358,0.713,1.874,3.301,4.551,7.765   c4.641,7.498,6.783,13.03,6.427,16.603h-0.001v0.002c-1.071,0.357-1.786,0.181-2.142-0.537c-0.356-0.713-0.625-1.694-0.803-2.944   c-0.179-1.251-0.359-2.142-0.535-2.677c-0.535-1.072-1.919-2.232-4.15-3.481c-2.229-1.251-3.614-2.499-4.149-3.748h0.003   l-0.001-0.003c0.178,0,0.401-0.09,0.669-0.268c0.267-0.18,0.49-0.268,0.667-0.269c0.178-1.605-0.76-3.658-2.812-6.155   c-2.052-2.498-2.901-4.286-2.544-5.357c-1.43-1.07-2.679-3.168-3.749-6.291c-1.071-3.125-1.965-5.133-2.681-6.025   c-0.725-1.084-1.629-2.034-2.676-2.811c-1.073-0.803-2.41-1.695-4.018-2.68c-1.606-0.982-2.679-1.65-3.213-2.008   c-0.358-0.181-1.071-0.982-2.142-2.412c-4.971-6.023-7.018-9.699-6.14-11.021c0.158-0.241,0.417-0.404,0.771-0.488   c-2.315,0.523-4.23-1.219-5.742-5.225c-1.518-4.016-2.008-7.094-1.472-9.238l-0.535-0.267c0.179-0.713,0.267-2.812,0.267-6.294   c0-3.481,0.224-6.649,0.67-9.505c0.156-1.003,0.362-1.828,0.618-2.48c0.002-0.006,0.004-0.009,0.006-0.015   c0.041-0.104,0.083-0.2,0.125-0.295c0.408-0.885,0.924-1.377,1.554-1.478c-1.13,0.007-1.986-1.11-2.57-3.362   c-0.625-2.412-0.669-4.062-0.132-4.955c0.012-0.039,0.034-0.062,0.055-0.09c0.248-0.383,1.028-0.003,2.356,1.159   c1.429,1.251,2.231,2.054,2.41,2.409c1.304-0.703,2.156-1.519,2.56-2.444c0.311-0.724,0.352-1.513,0.116-2.374   c-0.358-0.713-2.231-2.588-5.624-5.622c-7.675-5-11.603-7.408-11.782-7.228c1.071-1.964,0.804-3.66-0.803-5.089   c-1.786,1.071-2.812,1.339-3.08,0.804c-0.269-0.535-0.491-1.519-0.669-2.947c-0.18-1.428-0.626-2.23-1.339-2.41   c-0.895-0.18-1.965-0.894-3.214-2.14l0.001-0.004c15.887-25.349,36.862-45.165,62.926-59.446c1.072-0.177,3.036-0.268,5.892-0.268   c1.415,0.175,2.78,0.63,4.016,1.34c1.249,0.714,2.544,1.696,3.882,2.946c1.339,1.249,2.366,2.141,3.079,2.678   c0.356-1.072-0.089-2.677-1.339-4.819c0.044-0.134,0.112-0.268,0.21-0.403c0.663-0.938,2.556-1.876,5.682-2.812   c4.1-0.533,6.775-0.446,8.028,0.266c-1.069-1.606-2.855-3.837-5.351-6.691l-1.34,1.338c-1.43-1.25-5.177-0.624-11.247,1.875   c-0.357,0.18-1.249,0.669-2.679,1.473c-1.428,0.802-2.589,1.384-3.481,1.741c-1.07,0.358-2.141,0.445-3.212,0.268l0.002-0.001   l-0.002-0.001c8.569-4.643,16.96-8.301,25.17-10.979c0.535,0.357,1.429,1.117,2.679,2.276c1.249,1.161,2.23,2.009,2.945,2.544   c-0.005-0.004-0.011-0.008-0.018-0.01l0.016,0.012c-0.4-0.268-0.703-0.235-0.903,0.099c-0.032,0.057-0.063,0.119-0.091,0.19   l-0.001,0.001c-0.029,0.08-0.056,0.16-0.074,0.243c-0.715,2.142-0.715,3.926,0,5.356c0.893,1.25,2.097,1.964,3.615,2.141   c1.517,0.18,3.345,0.089,5.49-0.267c2.14-0.359,3.568-0.536,4.285-0.536l2.678,0.268c4.28,0.401,6.607,0.201,6.977-0.6   c0.123-0.268,0.027-0.602-0.284-1.003c0.063,0.083,0.126,0.179,0.192,0.283c0.49,0.788,1.052,2.161,1.683,4.133   c0.714,2.231,1.519,3.793,2.41,4.687c0.22-0.174,0.399-0.39,0.534-0.634c0.401-0.737,0.401-1.774,0-3.113   c-0.536-1.785-0.536-3.036,0-3.749c0.021-0.043,0.051-0.089,0.084-0.133c0.232-0.311,0.74-0.625,1.523-0.938   c0.893-0.358,1.92-0.76,3.08-1.205c1.159-0.446,1.92-0.759,2.275-0.937c0.199-0.133,0.337-0.284,0.412-0.457   c0.326-0.743-0.525-1.84-2.555-3.29c-0.356-0.178-1.117-0.447-2.276-0.803c-1.159-0.356-2.186-0.713-3.08-1.071   c-0.892-0.356-1.829-0.849-2.811-1.47c-0.981-0.626-1.429-1.341-1.341-2.143c0.068-0.603,0.36-1.332,0.881-2.186   c0.188-0.305,0.387-0.604,0.596-0.895c1.07-0.894,2.811-1.25,5.221-1.072c2.41,0.177,4.238,0.625,5.488,1.339   c3.617,2.01,4.924,3.867,3.916,5.574c-0.336,0.569-0.926,1.121-1.771,1.654c1.783,0.179,3.927,0.895,6.423,2.142   c2.499,1.249,3.48,2.587,2.945,4.015c0.32-0.607,0.678-1.193,1.07-1.754c1.07-1.505,2.142-2.26,3.213-2.26   c0.895,0.179,1.739,1.384,2.544,3.615c0.806,2.231,1.294,3.437,1.474,3.616c1.429,1.963,2.856,2.411,4.285,1.339   c1.428-1.072,2.9-2.633,4.42-4.686c1.402-1.901,2.232-2.843,2.488-2.831c-1.189-0.486-1.643-0.972-1.346-1.457   c0.132-0.222,0.42-0.444,0.862-0.666c2.679-1.606,5.088-2.051,7.229-1.338c0.535,0.357,1.251,1.162,2.142,2.41   c1.005,2.008,1.276,3.354,0.815,4.039c-0.275,0.41-0.814,0.583-1.615,0.517c1.604,1.43,2.273,3.212,2.006,5.353   c-0.066,0.538-0.205,1-0.414,1.393c-0.035,0.068-0.078,0.133-0.119,0.197c-0.015,0.025-0.027,0.055-0.047,0.079   c-0.663,0.977-1.854,1.402-3.572,1.278c-0.893,0-2.188-0.445-3.883-1.338c-1.697-0.892-2.991-1.383-3.885-1.474   c-0.893-0.088-2.143,0.402-3.748,1.474c-0.18,0.222-0.371,0.485-0.578,0.787c-0.565,0.826-1.236,1.952-2.015,3.364   c-0.073,0.133-0.146,0.262-0.22,0.401c-0.137,0.25-0.27,0.489-0.4,0.722l-0.027,0.052c-0.068,0.124-0.141,0.238-0.207,0.355   c-0.068,0.121-0.141,0.246-0.211,0.361c-0.021,0.041-0.049,0.079-0.072,0.12c-0.113,0.189-0.229,0.375-0.348,0.564   c-0.127,0.198-0.252,0.391-0.375,0.572c-0.086,0.127-0.17,0.242-0.253,0.36c-0.041,0.059-0.085,0.122-0.124,0.178   c-0.373,0.513-0.729,0.935-1.061,1.269c-2.672,2.669-7.111,3.652-13.327,2.951c0.462,0.045,0.402,0.574-0.194,1.597l-0.002,0.001   v0.001c-0.624,1.072-1.471,2.276-2.544,3.615c-1.071,1.339-1.696,2.098-1.873,2.277c-0.788,0.869-1.464,1.836-2.009,2.875   c-0.539,1.038-0.944,2.14-1.204,3.281c0,0.357-0.091,1.563-0.269,3.614c-0.18,2.052-0.537,3.615-1.07,4.686   c2.142-0.535,3.838,0.535,5.088,3.213c0.736,1.719,0.967,2.891,0.688,3.513c-0.121,0.276-0.347,0.443-0.671,0.503   c5.883-0.892,11.055-0.533,15.514,1.072c6.428,2.321,10.086,4.642,10.979,6.962c1.071-1.606,3.66-1.696,7.767-0.268   c1.607,0.893,3.034,3.57,4.285,8.033c0.713,2.679,1.92,4.999,3.615,6.962c1.693,1.964,3.525,2.5,5.488,1.607l0.804-0.535   c0.714-0.356,1.295-0.67,1.74-0.938c0.447-0.268,0.936-0.625,1.473-1.072c0.401-0.333,0.678-0.642,0.826-0.928   c0.05-0.093,0.089-0.187,0.108-0.274c0.088-0.355-0.045-0.713-0.4-1.072c-1.252-1.068-2.188-2.543-2.812-4.418   c-0.547-1.641-0.513-3.111,0.104-4.41c0.088-0.187,0.186-0.366,0.299-0.546c0.536-0.714,1.964-1.785,4.285-3.212   c1.739-1.072,2.979-2.143,3.716-3.213c0.244-0.356,0.435-0.713,0.568-1.07c0.713-2.32-0.181-4.239-2.68-5.757   c-2.498-1.518-3.748-2.901-3.748-4.151c0-0.523,0.205-1.111,0.604-1.757c0.28-0.457,0.656-0.942,1.138-1.458   c0.435-0.469,0.775-0.924,1.02-1.367c0.412-0.74,0.562-1.443,0.451-2.112c0-0.536-0.312-1.652-0.939-3.349   c-0.623-1.695-0.98-2.944-1.07-3.749c-0.057-0.501,0.08-1.056,0.408-1.663c0.197-0.365,0.462-0.748,0.798-1.151   c1.251-0.714,4.193-0.669,8.836,0.134c4.642,0.804,7.677,1.651,9.104,2.544c0.533,0.357,1.693,0.893,3.48,1.607   c1.785,0.713,3.347,1.473,4.685,2.275c1.34,0.803,2.099,1.562,2.276,2.276h-0.003c0,0.001,0,0.002,0.002,0.003h-1.337   c1.252,1.071,2.01,2.32,2.275,3.747c0.134,0.713,0.029,1.339-0.304,1.875c-0.332,0.535-0.901,0.981-1.7,1.337   c1.069-0.178,2.495,0.09,4.278,0.804c1.786,0.669,2.489,1.305,2.111,1.906c-0.222,0.355-0.829,0.7-1.814,1.03   c0.534-0.175,1.28-0.352,2.247-0.525c0.982-0.18,1.74-0.446,2.275-0.803c0.356-0.177,0.804-0.491,1.339-0.938   c0.536-0.445,0.938-0.713,1.206-0.803c0.268-0.092,0.669-0.181,1.206-0.269c0.534-0.09,1.069,0.044,1.606,0.402   c0.18,0,0.579-0.445,1.205-1.339c0.625-0.894,1.294-1.784,2.01-2.678c0.712-0.894,1.34-1.34,1.871-1.34   c0.537,0,1.028,0.225,1.475,0.669c0.434,0.43,0.797,0.926,1.07,1.473c0.268,0.536,0.535,1.116,0.805,1.74   c0.268,0.625,0.489,1.116,0.668,1.473c0.354,0.893,1.206,1.83,2.543,2.812c1.342,0.981,2.188,1.919,2.545,2.812   c0.18,0.535,0.535,1.873,1.07,4.015c0.535,2.141,1.25,3.615,2.141,4.417c0.893,0.804,2.231,1.475,4.016,2.011   c0.355,0.179,1.16,0.089,2.411-0.269c1.251-0.358,2.274-0.446,3.079-0.267c0.803,0.178,1.205,0.892,1.205,2.14   c0.937-0.936,1.462-1.6,1.58-1.991c0.019-0.047,0.023-0.1,0.025-0.148v0v-0.002c0.181,2.318,0.76,4.195,1.74,5.622   c0.982,1.428,2.544,2.052,4.686,1.875l-0.535,5.891l-0.002,0.002c-0.534,0.893-1.875,1.56-4.016,2.009   c-2.143,0.446-3.48,0.849-4.018,1.205c-0.534,0.18-1.828,1.25-3.881,3.215c-1.281,1.224-2.096,2.138-2.438,2.737   c-0.205,0.359-0.24,0.606-0.104,0.742l-0.011-0.014l0.01,0.015c-3.035-3.39-7.587-4.374-13.658-2.945   c-6.781,1.07-11.424,2.142-13.925,3.213c-2.854,1.429-4.819,2.767-5.89,4.017c-0.066,0.066-0.15,0.196-0.26,0.391   c-0.172,0.318-0.398,0.813-0.678,1.48c-0.411,0.997-0.858,1.979-1.338,2.946c-0.049,0.093-0.092,0.183-0.139,0.263   c-0.311,0.568-0.601,0.906-0.863,1.025c1.019-0.242,2.156-1.068,3.412-2.492c1.34-1.517,2.188-2.364,2.545-2.545   c4.639-3.032,8.479-4.104,11.514-3.213c2.945,0.803,4.032,1.808,3.26,3.016c-0.256,0.4-0.719,0.824-1.388,1.271   c-0.355,0.356-1.294,0.492-2.812,0.401c-1.514-0.088-2.537-0.046-3.074,0.136c1.605,0.355,2.943,0.847,4.015,1.47   c1.068,0.625,1.337,1.473,0.802,2.544c2.499,1.405,3.222,2.948,2.166,4.63c-0.165,0.26-0.353,0.503-0.561,0.729   c-2.276,2.277-4.984,3.264-8.121,2.961c0.247,0.057,0.289,0.252,0.121,0.588c-0.087,0.163-0.186,0.32-0.301,0.467l-4.549,2.946   c-0.357,0.179-1.521,0.626-3.481,1.339c-1.966,0.715-3.305,1.518-4.019,2.411c-0.004,0.005-0.008,0.01-0.01,0.015   c-0.062,0.086-0.121,0.174-0.178,0.27c-0.409,0.701-0.615,1.676-0.615,2.928c0,1.43-0.088,2.5-0.267,3.213c0,0,0,0.001-0.003,0.001   c-0.008,0.036-0.021,0.065-0.035,0.1c-0.018,0.048-0.03,0.099-0.056,0.144c-0.271,0.51-0.956,0.609-2.05,0.296   c-0.036,0.065-0.074,0.134-0.115,0.196c-0.631,0.979-2.244,1.76-4.841,2.346c-2.765,0.626-4.593,1.56-5.488,2.811   c0.87,1.162,0.976,2.324,0.312,3.482c-0.166,0.287-0.36,0.557-0.58,0.804c-2.142,1.786-4.016,1.607-5.623-0.534   c-0.559,0.223-1.027,0.654-1.412,1.297c-0.23,0.382-0.431,0.845-0.598,1.379c-0.148,0.494-0.349,0.971-0.598,1.421   c-0.011,0.021-0.025,0.042-0.039,0.061c-0.062,0.112-0.129,0.223-0.2,0.325c-0.335,0.494-0.724,0.872-1.171,1.141   c0.859,1.351,1.043,2.45,0.551,3.292c-0.222,0.385-0.584,0.716-1.086,0.994c0.182,0.001,0.58,0.18,1.205,0.536   c0.623,0.354,1.293,0.803,2.01,1.339c0.713,0.534,1.158,0.802,1.34,0.802c-0.09,0.201-0.185,0.392-0.281,0.566   c-0.684,1.229-1.572,1.846-2.665,1.846c0.735,1.965,0.333,4.055-1.208,6.271c-0.701,1.007-1.639,2.041-2.811,3.101   c-0.713,0.715-1.828,1.428-3.346,2.141c-1.518,0.715-2.9,1.296-4.15,1.741c-1.25,0.447-1.963,0.759-2.143,0.938   c-1.438,1.294-2.581,2.619-3.441,3.969c-0.203,0.318-0.395,0.647-0.571,0.98c-0.895,1.694-1.026,3.347-0.403,4.953   c0.625,1.608,2.276,2.68,4.954,3.215l0.267,2.141v4.82l0.269,2.141c0.181,1.251,0.312,2.366,0.401,3.348   c0.09,0.98,0.09,2.229,0,3.748c-0.057,0.949-0.234,1.635-0.533,2.059c-0.182,0.258-0.405,0.42-0.672,0.487   c-0.715,0.179-1.697,0-2.947-0.537c-1.428-0.713-3.125-4.641-5.089-11.78c-0.354-1.785-1.428-3.93-3.214-6.428   c-0.891,0.895-1.65,1.474-2.275,1.742c-0.625,0.267-1.07,0.31-1.34,0.133c-0.268-0.177-0.759-0.58-1.471-1.204   c-0.716-0.624-1.342-1.116-1.875-1.473c-0.895-0.536-2.456-0.981-4.687-1.339c-2.231-0.356-3.616-0.805-4.149-1.34   c-4.284,3.213-6.873,2.408-7.766-2.41c-0.354,0.892-0.311,2.098,0.136,3.611c0.446,1.518,0.67,2.365,0.67,2.545   c-0.077,0.145-0.158,0.282-0.243,0.411c-1.256,1.927-3.141,1.969-5.648,0.126c-1.07-1.07-3.526-1.204-7.364-0.4   c-3.615,0.756-6.081,0.918-7.399,0.486c0.198,0.117,0.479,0.354,0.84,0.715c0.536,0.357,0.893,0.625,1.071,0.805   c-0.077,0.324-0.19,0.639-0.337,0.939c-0.051,0.098-0.104,0.184-0.159,0.27c-0.021,0.03-0.036,0.066-0.058,0.097   c-0.074,0.106-0.158,0.209-0.252,0.302c-0.355,0.357-0.716,0.492-1.071,0.402c-0.356-0.089-0.759-0.089-1.204,0   c-0.42,0.079-0.824,0.216-1.205,0.402c-0.717,0.536-1.607,1.471-2.68,2.812c-1.069,1.338-1.872,2.186-2.408,2.542   c1.07,2.855,1.561,5.043,1.472,6.561c-0.089,1.516-0.356,3.748-0.804,6.693c-0.447,2.947-0.669,5.309-0.669,7.096   c0,2.857,0.849,6.16,2.542,9.91c1.697,3.748,3.705,6.337,6.025,7.766c1.25,0.713,3.393,1.16,6.427,1.339   c3.033,0.179,5.175,0,6.427-0.538c1.07-0.533,1.874-1.158,2.408-1.873c0.066-0.09,0.133-0.182,0.195-0.282   c0.033-0.051,0.066-0.106,0.1-0.163c0.031-0.047,0.06-0.094,0.09-0.145c0.368-0.654,0.686-1.482,0.953-2.485   c0.356-1.341,0.625-2.276,0.805-2.812c0.156-0.424,0.33-0.823,0.52-1.199l0.014-0.024c0.091-0.178,0.185-0.348,0.282-0.514   c1.342-2.268,3.39-3.473,6.146-3.621c2.142-0.178,3.704,0.045,4.686,0.671c0.982,0.626,1.384,1.473,1.208,2.544   c-0.182,1.07-0.537,2.186-1.072,3.347c-0.14,0.301-0.28,0.598-0.428,0.896c-0.377,0.766-0.771,1.521-1.184,2.268   c-0.129,0.238-0.26,0.473-0.396,0.719c-0.804,1.429-1.295,2.5-1.471,3.214c-0.357,1.429-0.671,3.437-0.939,6.025   s-0.492,4.149-0.67,4.685c0.357,0.182,1.696,0.27,4.016,0.27c0-0.357,0.135-0.938,0.4-1.739c0.27-0.804,0.402-1.295,0.402-1.472   c0,0,0.002,0,0.002,0.002v-0.004c0.891,1.427,2.318,2.229,4.283,2.407c1.864,0.171,3.24-0.476,4.141-1.917   c0.046-0.074,0.098-0.142,0.143-0.222l0.003-0.003c0.356,0.537,1.427,1.875,3.213,4.017c1.784,2.14,2.767,3.929,2.944,5.354   c0.182,0.715,0.537,1.873,1.072,3.481c0.535,1.606,0.713,2.723,0.535,3.348c-0.021,0.077-0.058,0.149-0.102,0.22   c-0.312,0.479-1.171,0.718-2.578,0.718c-0.623,0-1.045,0.206-1.26,0.615c-0.031,0.06-0.058,0.122-0.078,0.187   c-0.18,0.534-0.18,1.205,0,2.009c0.169,0.774,0.394,1.534,0.67,2.276c0.269,0.715,0.623,1.472,1.07,2.274   c0.447,0.804,0.669,1.294,0.669,1.473c3.216,5.891,7.587,7.497,13.122,4.819c0,2.915-0.396,5.093-1.188,6.539   c-0.613,1.121-1.47,1.801-2.562,2.035C327.893,480.606,326.288,479.715,324.503,477.573z M328.528,538.081   c-0.356-1.782-0.533-3.208-0.533-4.277c-0.18-1.428,0.447-3.346,1.873-5.757c1.428-2.41,2.141-4.238,2.141-5.491   c-2.854-0.713-3.927-3.033-3.213-6.961c0.358-2.678,2.944-6.247,7.767-10.71c3.392-3.032,4.46-7.319,3.214-12.854   c-0.535-2.32-0.98-5.713-1.339-10.174c-0.356-4.463-0.716-7.586-1.071-9.374c0,0.536,0.848,1.024,2.543,1.473   c1.696,0.446,2.725,1.025,3.081,1.739c0.354-0.533,0.802-1.518,1.339-2.943c0.536-1.43,1.071-2.5,1.605-3.215   c0.356-0.537,1.115-1.205,2.276-2.01c1.159-0.803,1.918-1.293,2.275-1.472c0.356-0.181,1.159-0.761,2.409-1.74   c1.25-0.981,2.277-1.739,3.08-2.276c0.801-0.535,1.874-0.936,3.211-1.205c1.342-0.27,2.279,0.134,2.814,1.205   c0.893,1.07,0.714,2.723-0.535,4.953c-1.252,2.231-1.252,3.795,0,4.687c0.181-0.536,0.355-1.696,0.535-3.481   c0.178-1.785,0.714-3.125,1.606-4.017c1.071-1.071,2.097-1.696,3.079-1.876c0.98-0.178,1.874-0.043,2.68,0.403   c0.803,0.448,1.739,1.07,2.809,1.873c1.073,0.804,2.055,1.296,2.946,1.475c2.679,0.893,5.89,2.854,9.642,5.892   c-0.182-0.182-0.182-0.402,0-0.671c0.178-0.267,0.535-0.535,1.069-0.802c0.501-0.251,0.991-0.52,1.471-0.806   c0.449-0.268,0.939-0.489,1.474-0.671l0.805-0.265c1.252,0,2.141-0.093,2.678-0.271c0.537-0.18,1.295,0,2.275,0.535   c0.982,0.537,1.65,0.938,2.01,1.205c0.355,0.27,0.981,0.76,1.875,1.474c0.893,0.714,1.518,1.249,1.873,1.606   c0.534,0.355,1.518,0.982,2.945,1.873c1.126,0.699,2.24,1.412,3.348,2.143c0.802,0.535,1.516,1.338,2.142,2.408   c0.624,1.071,0.85,2.232,0.669,3.481c1.071,0.181,3.215,0.893,6.426,2.142c0.537,0.355,1.652,0.668,3.348,0.938   c1.694,0.267,2.811,0.669,3.346,1.204C396.63,514.786,365.301,531.656,328.528,538.081z"
             id="path4" /><polygon
             points="507.204,100.153 507.206,100.155 507.206,100.153  "
             id="polygon6" /></g></svg>