<?xml version="1.0" encoding="UTF-8" standalone="no"?>
<svg
     xmlns:dc="http://purl.org/dc/elements/1.1/"
     xmlns:cc="http://creativecommons.org/ns#"
     xmlns:rdf="http://www.w3.org/1999/02/22-rdf-syntax-ns#"
     xmlns:svg="http://www.w3.org/2000/svg"
     xmlns="http://www.w3.org/2000/svg"
     xmlns:sodipodi="http://sodipodi.sourceforge.net/DTD/sodipodi-0.dtd"
     xmlns:inkscape="http://www.inkscape.org/namespaces/inkscape"
     version="1.1"
     id="Calque_1"
     x="0px"
     y="0px"
     width="569.668px"
     height="544.566px"
     viewBox="0 0 569.668 544.566"
     enable-background="new 0 0 569.668 544.566"
     xml:space="preserve"
     sodipodi:docname="geonetwork.svg"
     inkscape:version="0.92.2 5c3e80d, 2017-08-06"><title
         id="title21">osgeo-geonetwork</title><metadata
         id="metadata19"><rdf:RDF><cc:Work
                 rdf:about=""><dc:format>image/svg+xml</dc:format><dc:type
                     rdf:resource="http://purl.org/dc/dcmitype/StillImage" /><dc:title>osgeo-geonetwork</dc:title><dc:date>08-21-2018</dc:date><dc:creator><cc:Agent><dc:title>Nicolas Bozon</dc:title></cc:Agent></dc:creator><dc:rights><cc:Agent><dc:title>copyright OSGeo</dc:title></cc:Agent></dc:rights><dc:publisher><cc:Agent><dc:title>OSGeo</dc:title></cc:Agent></dc:publisher><dc:identifier>osgeo-geonetwork</dc:identifier><dc:description>OSGeo GeoNetwork</dc:description><dc:contributor><cc:Agent><dc:title>OSGeo Marketing Committee</dc:title></cc:Agent></dc:contributor><cc:license
                     rdf:resource="http://creativecommons.org/licenses/by-sa/4.0/" /></cc:Work><cc:License
                 rdf:about="http://creativecommons.org/licenses/by-sa/4.0/"><cc:permits
                     rdf:resource="http://creativecommons.org/ns#Reproduction" /><cc:permits
                     rdf:resource="http://creativecommons.org/ns#Distribution" /><cc:requires
                     rdf:resource="http://creativecommons.org/ns#Notice" /><cc:requires
                     rdf:resource="http://creativecommons.org/ns#Attribution" /><cc:permits
                     rdf:resource="http://creativecommons.org/ns#DerivativeWorks" /><cc:requires
                     rdf:resource="http://creativecommons.org/ns#ShareAlike" /></cc:License></rdf:RDF></metadata><defs
         id="defs17" /><sodipodi:namedview
         pagecolor="#ffffff"
         bordercolor="#666666"
         borderopacity="1"
         objecttolerance="10"
         gridtolerance="10"
         guidetolerance="10"
         inkscape:pageopacity="0"
         inkscape:pageshadow="2"
         inkscape:window-width="640"
         inkscape:window-height="480"
         id="namedview15"
         showgrid="false"
         inkscape:zoom="0.43337265"
         inkscape:cx="284.83401"
         inkscape:cy="272.28299"
         inkscape:window-x="0"
         inkscape:window-y="0"
         inkscape:window-maximized="0"
         inkscape:current-layer="Calque_1" /><g
         id="g12"><path
             d="M520.149,333.328c-11.172-5.986-22.552-12.257-34.609-15.807c-57.564-16.951-116.977-20.757-176.486-21.713   c-64.449-1.039-128.861-1.829-192.285-14.826c-26.495-5.429-53.799-9.855-73.962-31.231c-1.907,9.044-2.89,23.306-2.751,37.636   c-0.159,17.584,1.353,36.213,4.91,46.197c2.676,7.516,8.79,14.834,15.26,19.684c6.673,5.008,15.48,7.537,23.688,10.06   c51.878,15.944,105.38,20.499,159.28,22.567c48.155,1.851,96.448,2.692,144.36,7.305c27.348,2.636,54.285,11.105,80.904,18.727   c7.977,2.278,14.237,10.539,22.098,16.699c15.739-20.191,28.121-44.459,36.795-70.668c1.019-3.09,1.297-6.055,0.854-8.769   C529.174,342.508,526.444,336.697,520.149,333.328z"
             id="path2" /><path
             d="M58.273,229.067c11.172,5.978,22.666,11.92,34.719,15.579c45.7,13.874,92.972,18.083,140.392,20.449   c17.953,0.895,35.99,0.144,54.534,0.144c-0.298,0.365,0.148,0.073,0.15-0.224c0.422-45.56,0.895-91.123,0.928-136.686   c0-1.878-4.033-5.263-6.321-5.384c-10.849-0.572-21.742-0.256-33.6-0.256c-1.607,11.221-3.121,21.974-4.685,32.717   c-3.292,22.611-3.532,24.297-25.947,21.231c-33.778-4.62-67.355-11.16-100.696-18.379c-12.125-2.625-24.256-8.412-27.911-23.509   c-17.673,22.554-30.01,47.288-38.873,73.839C48.087,217.21,50.463,224.889,58.273,229.067z"
             id="path4" /><path
             d="M321.428,439.951c-48.019-3.716-96.329-3.697-144.327-7.623c-33.939-2.775-67.918-8.078-98.584-25.004   c-1.103,0.888-2.208,1.78-3.312,2.667c15.606,17.47,29.878,36.437,47.277,51.884c11.912,10.573,27.366,19.303,42.694,23.379   c23.06,6.127,47.299,9,71.209,10.502c43.202,2.709,87.155-0.495,129.579,6.339c26.188,4.222,43.135-5.596,61.691-17.481   c6.725-4.305,19.826-14.809,25.514-20.734c-7.32-4.666-22.457-8.956-30.339-10.283C389.207,447.93,355.395,442.578,321.428,439.951   z"
             id="path6" /><path
             d="M339.178,179.029c1.592,29.335,3.117,57.413,4.676,86.124c3.505,0,6.141,0.293,8.695-0.044   c38.015-4.991,76.212-8.957,113.936-15.619c17.047-3.012,33.409-10.799,49.559-17.646c8.26-3.5,14.485-10.69,11.5-20.843   c-8.107-27.573-21.033-52.742-38.939-76.057c-4.398,11.738-7.281,16.644-23.655,21.257c-26.994,7.601-54.636,13.071-82.218,18.337   C368.496,177.257,353.801,177.601,339.178,179.029z"
             id="path8" /><path
             d="M289.002,87.533c55.156,0,99.873-11.479,99.873-25.643c0-14.162-44.717-25.644-99.873-25.644   c-1.387,0-2.769,0.009-4.141,0.024c-10.035-0.125-20.034,0.333-29.96,1.51c-38.366,3.579-65.773,13.022-65.773,24.11   C189.13,76.052,233.844,87.533,289.002,87.533z"
             id="path10" /></g></svg>