<?xml version="1.0" encoding="UTF-8" standalone="no"?>
<svg
     xmlns:dc="http://purl.org/dc/elements/1.1/"
     xmlns:cc="http://creativecommons.org/ns#"
     xmlns:rdf="http://www.w3.org/1999/02/22-rdf-syntax-ns#"
     xmlns:svg="http://www.w3.org/2000/svg"
     xmlns="http://www.w3.org/2000/svg"
     xmlns:sodipodi="http://sodipodi.sourceforge.net/DTD/sodipodi-0.dtd"
     xmlns:inkscape="http://www.inkscape.org/namespaces/inkscape"
     version="1.1"
     id="Calque_1"
     x="0px"
     y="0px"
     width="595.279px"
     height="595.281px"
     viewBox="0 0 595.279 595.281"
     enable-background="new 0 0 595.279 595.281"
     xml:space="preserve"
     sodipodi:docname="geonode.svg"
     inkscape:version="0.92.2 5c3e80d, 2017-08-06"><title
         id="title30">osgeo-geonode</title><metadata
         id="metadata9"><rdf:RDF><cc:Work
                 rdf:about=""><dc:format>image/svg+xml</dc:format><dc:type
                     rdf:resource="http://purl.org/dc/dcmitype/StillImage" /><dc:title>osgeo-geonode</dc:title><dc:date>08-21-2018</dc:date><dc:creator><cc:Agent><dc:title>Nicolas Bozon</dc:title></cc:Agent></dc:creator><dc:rights><cc:Agent><dc:title>copyright OSGeo</dc:title></cc:Agent></dc:rights><dc:publisher><cc:Agent><dc:title>OSGeo</dc:title></cc:Agent></dc:publisher><dc:identifier>osgeo-geonode</dc:identifier><dc:description>OSGeo Geonode</dc:description><dc:contributor><cc:Agent><dc:title>OSGeo Marketing Committee</dc:title></cc:Agent></dc:contributor><cc:license
                     rdf:resource="http://creativecommons.org/licenses/by-sa/4.0/" /></cc:Work><cc:License
                 rdf:about="http://creativecommons.org/licenses/by-sa/4.0/"><cc:permits
                     rdf:resource="http://creativecommons.org/ns#Reproduction" /><cc:permits
                     rdf:resource="http://creativecommons.org/ns#Distribution" /><cc:requires
                     rdf:resource="http://creativecommons.org/ns#Notice" /><cc:requires
                     rdf:resource="http://creativecommons.org/ns#Attribution" /><cc:permits
                     rdf:resource="http://creativecommons.org/ns#DerivativeWorks" /><cc:requires
                     rdf:resource="http://creativecommons.org/ns#ShareAlike" /></cc:License></rdf:RDF></metadata><defs
         id="defs7" /><sodipodi:namedview
         pagecolor="#ffffff"
         bordercolor="#666666"
         borderopacity="1"
         objecttolerance="10"
         gridtolerance="10"
         guidetolerance="10"
         inkscape:pageopacity="0"
         inkscape:pageshadow="2"
         inkscape:window-width="640"
         inkscape:window-height="480"
         id="namedview5"
         showgrid="false"
         inkscape:zoom="0.39645142"
         inkscape:cx="297.6395"
         inkscape:cy="297.6405"
         inkscape:window-x="0"
         inkscape:window-y="0"
         inkscape:window-maximized="0"
         inkscape:current-layer="Calque_1" /><path
         d="M498.356,351.429c-23.827-10.756-47.755-21.332-71.993-31.114c-6.479-2.613-14.465-3.571-21.342-2.53  c-6.818,1.031-12.957,5.958-19.664,8.439c-17.449,6.454-19.531,9.21-18.909,27.314c0.071,2.066,0.007,4.137,0.007,6.204  c-0.053,0.003-0.107,0.003-0.16,0.006c0.113,2.524-0.268,5.194,0.425,7.552c2.387,8.124,2.646,19.329,8.181,23.664  c29.783,23.323,60.653,45.306,91.723,66.924c10.513,7.313,22.82,13.329,36.263,9.915c9.185-2.333,18.044-6.62,26.471-11.12  c24.388-13.025,29.972-51.465,15.64-73.064C533.531,366.337,515.773,359.291,498.356,351.429L498.356,351.429z M228.554,335.863  c-11.126-5.336-22.195-10.862-33.646-15.412c-5.556-2.21-12.466-4.574-17.752-3.143c-10.678,2.893-20.697,8.268-30.934,12.737  c-21.119,9.228-42.138,18.685-63.319,27.767c-20.046,8.596-42.342,28.361-40.4,53.525L54.48,446.69  c7.685,13.794,37.23,26.562,50.188,21.005c15.78-6.768,31.229-14.893,45.543-24.359c20.043-13.258,38.977-28.206,58.239-42.629  c5.884-4.402,14.669-8.547,16.242-14.393c4.047-15.045,4.877-30.967,6.723-46.57C231.557,338.549,229.876,336.498,228.554,335.863  L228.554,335.863z M417.594,275.719c8.348-1.831,16.065-6.569,24.026-10.122c25.193-11.238,50.521-22.193,75.514-33.86  c16.505-7.706,30.458-18.8,34.197-37.805c6.647-33.811-8.295-56.03-36.662-65.915c-22.139-7.713-42.593,1.011-60.869,15.068  c-22.154,17.036-44.826,33.404-67.258,50.083c-8.676,6.449-18.539,11.418-18.645,24.997c-0.098,12.482-2.334,24.948-3.79,38.992  c11.337,5,23.263,10.729,35.564,15.478C405.296,274.805,412.075,276.93,417.594,275.719L417.594,275.719z M107.886,244.76  c17.823,8.587,35.936,16.626,54.226,24.168c8.13,3.354,17.805,8.29,25.371,6.512c13.159-3.092,25.276-10.73,37.69-16.752  c1.701-0.824,3.793-3.397,3.677-5.016c-1.109-15.496-2.549-30.973-4.23-46.419c-0.172-1.57-2.36-3.143-3.917-4.305  c-26.461-19.757-52.711-39.813-79.583-58.998c-12.758-9.107-25.33-20.172-40.883-16.717c-19.048,0.031-25.602,2.402-38.796,13.2  c-22.543,18.448-25.263,52.101-6.385,73.86C69.223,230.621,89.559,235.932,107.886,244.76L107.886,244.76z M277.654,26.733  c-16.804,7.493-29.767,20.116-30.31,38.975c-0.641,22.265,2.203,44.652,3.936,66.958c1.238,15.943,3.019,31.849,4.849,47.738  c0.307,2.66,1.388,6.046,3.316,7.573c11.746,9.295,23.797,18.212,35.907,27.033c0.978,0.712,3.567,0.318,4.737-0.512  c11.498-8.158,23.047-16.268,34.1-25c2.587-2.042,4.389-6.268,4.775-9.688c1.588-14.065,2.197-28.24,3.717-42.314  c2.257-20.899,4.982-41.747,7.746-64.596c-2.18-7.241-3.691-16.256-7.504-24.163C333.132,28.423,303.372,15.266,277.654,26.733  L277.654,26.733z M338.531,414.683c-0.613-4.072-2.336-9.064-5.305-11.501c-9.309-7.644-19.646-14.021-29.191-21.396  c-4.977-3.846-8.619-3.219-13.299,0.416c-9.154,7.107-18.968,13.376-28.017,20.605c-3.01,2.406-6.008,6.511-6.446,10.146  c-1.767,14.722-2.173,29.6-3.76,44.348c-2.022,18.781-4.703,37.493-7.577,59.967c1.863,7.061,2.898,17.971,7.518,27.059  c10.049,19.768,27.795,26.531,49.495,25.625c20.568-0.854,44.315-18.07,45.443-38.133c1.289-22.895-1.204-46.062-2.903-69.048  C343.301,446.678,340.931,430.657,338.531,414.683L338.531,414.683z M345.767,272.93c-0.255-3.105-2.34-7.125-4.865-8.802  c-11.664-7.738-23.602-15.115-35.837-21.905c-3.639-2.021-9.563-3.705-12.734-2.123c-12.47,6.219-24.448,13.511-36.174,21.079  c-3.083,1.991-6.399,6.332-6.535,9.718c-0.671,16.737-0.582,33.526-0.062,50.273c0.092,2.987,2.81,6.85,5.446,8.633  c11.191,7.572,22.627,14.83,34.372,21.504c3.769,2.141,9.771,4.258,13.005,2.718c10.962-5.221,21.028-12.288,31.661-18.249  c8.563-4.805,14.242-10.512,12.117-21.513c-1.026-5.319-0.176-11.001-0.173-16.519C345.993,289.466,346.436,281.153,345.767,272.93  L345.767,272.93z"
         id="path2" /></svg>