<?xml version="1.0" encoding="UTF-8" standalone="no"?>
<svg
     xmlns:dc="http://purl.org/dc/elements/1.1/"
     xmlns:cc="http://creativecommons.org/ns#"
     xmlns:rdf="http://www.w3.org/1999/02/22-rdf-syntax-ns#"
     xmlns:svg="http://www.w3.org/2000/svg"
     xmlns="http://www.w3.org/2000/svg"
     xmlns:sodipodi="http://sodipodi.sourceforge.net/DTD/sodipodi-0.dtd"
     xmlns:inkscape="http://www.inkscape.org/namespaces/inkscape"
     version="1.1"
     id="Calque_1"
     x="0px"
     y="0px"
     width="595.279px"
     height="595.281px"
     viewBox="0 0 595.279 595.281"
     enable-background="new 0 0 595.279 595.281"
     xml:space="preserve"
     sodipodi:docname="geoserver.svg"
     inkscape:version="0.92.2 5c3e80d, 2017-08-06"><title
         id="title11">osgeo-geoserver</title><metadata
         id="metadata9"><rdf:RDF><cc:Work
                 rdf:about=""><dc:format>image/svg+xml</dc:format><dc:type
                     rdf:resource="http://purl.org/dc/dcmitype/StillImage" /><dc:title>osgeo-geoserver</dc:title><dc:date>08-21-2018</dc:date><dc:creator><cc:Agent><dc:title>Nicolas Bozon</dc:title></cc:Agent></dc:creator><dc:rights><cc:Agent><dc:title>copyright OSGeo</dc:title></cc:Agent></dc:rights><dc:publisher><cc:Agent><dc:title>OSGeo</dc:title></cc:Agent></dc:publisher><dc:identifier>osgeo-geoserver</dc:identifier><dc:description>OSGeo Geoserver</dc:description><dc:contributor><cc:Agent><dc:title>OSGeo Marketing Committee</dc:title></cc:Agent></dc:contributor><cc:license
                     rdf:resource="http://creativecommons.org/licenses/by-sa/4.0/" /></cc:Work><cc:License
                 rdf:about="http://creativecommons.org/licenses/by-sa/4.0/"><cc:permits
                     rdf:resource="http://creativecommons.org/ns#Reproduction" /><cc:permits
                     rdf:resource="http://creativecommons.org/ns#Distribution" /><cc:requires
                     rdf:resource="http://creativecommons.org/ns#Notice" /><cc:requires
                     rdf:resource="http://creativecommons.org/ns#Attribution" /><cc:permits
                     rdf:resource="http://creativecommons.org/ns#DerivativeWorks" /><cc:requires
                     rdf:resource="http://creativecommons.org/ns#ShareAlike" /></cc:License></rdf:RDF></metadata><defs
         id="defs7" /><sodipodi:namedview
         pagecolor="#ffffff"
         bordercolor="#666666"
         borderopacity="1"
         objecttolerance="10"
         gridtolerance="10"
         guidetolerance="10"
         inkscape:pageopacity="0"
         inkscape:pageshadow="2"
         inkscape:window-width="640"
         inkscape:window-height="480"
         id="namedview5"
         showgrid="false"
         inkscape:zoom="0.39645142"
         inkscape:cx="297.6395"
         inkscape:cy="297.6405"
         inkscape:window-x="0"
         inkscape:window-y="0"
         inkscape:window-maximized="0"
         inkscape:current-layer="Calque_1" /><path
         d="M533.781,215.019L380.263,61.5c-44.646-44.646-114.259-47.418-155.481-6.195L55.305,224.78  c-41.224,41.224-38.45,110.837,6.195,155.481l153.519,153.52c44.646,44.645,114.257,47.418,155.48,6.195L539.976,370.5  C581.198,329.277,578.425,259.665,533.781,215.019L533.781,215.019z M266.276,61.429c-0.013-1.179,0.773-1.308,1.599-1.558  c9.296-2.812,18.809-4.141,29.569-4.235c22.081,0.325,42.808,7.443,60.988,21.874c1.382,1.097,1.573,2.086,1.169,3.661  c-1.924,7.47-6,13.651-11.402,18.982c-8.676,8.56-18.823,14.669-30.828,17.186c-3.401,0.714-7.119,0.833-10.55,0.302  c-5.712-0.883-8.052-4.666-7.022-10.356c0.673-3.727,1.773-7.384,2.336-11.125c0.891-5.926-1.543-8.77-7.589-8.917  c-3.182-0.078-6.375,0.438-9.562,0.425c-2.807-0.011-5.73,0.043-8.397-0.683c-6.529-1.777-9.445-6.876-10.194-13.123  C265.903,69.771,266.32,65.578,266.276,61.429L266.276,61.429z M331.5,179.9c-1.507,0.366-3.085,0.445-4.631,0.654  c-6.704,0.114-11.647-3.013-15.399-8.283c-1.338-1.877-0.873-3.557,1.066-4.732c6.383-3.864,16.565-1.486,20.484,4.813  c0.506,0.809,0.939,1.694,1.219,2.601c0.771,2.509-0.205,4.328-2.739,4.944V179.9z M246.241,212.934  c-1.559,2.036-3.431,3.932-5.477,5.47c-3.561,2.675-7.329,5.08-11.077,7.499c-4.479,2.891-8.75,6.015-12.336,9.997  c-6.17,6.851-8.173,14.717-5.12,23.467c1.659,4.756,3.967,9.292,6.072,13.885c1.932,4.215,4.066,8.334,4.671,13.034  c0.505,3.919-0.299,7.532-2.804,10.523c-1.759,2.102-3.818,4.056-6.061,5.623c-3.86,2.7-7.332,2.017-9.626-2.075  c-1.838-3.278-3.089-6.902-4.445-10.432c-1.574-4.1-2.846-8.32-4.52-12.376c-0.74-1.793-1.992-3.447-3.286-4.922  c-1.762-2.005-4.191-2.511-6.624-1.529c-8.849,3.566-16.793,8.5-22.75,16.124c-1.308,1.672-2.305,3.696-3.006,5.711  c-1.273,3.662-0.292,6.963,2.662,9.461c1.498,1.268,3.245,2.311,5.015,3.176c11.698,5.711,23.487,11.248,34.397,18.43  c6.627,4.359,12.931,9.107,17.949,15.344c2.677,3.329,4.783,6.968,5.497,11.251c0.916,5.491-0.704,10.384-4.309,14.412  c-2.672,2.983-5.684,5.788-8.954,8.093c-13.854,9.762-27.907,19.238-41.791,28.959c-7.077,4.955-13.945,10.257-19.235,17.184  c-2.568,3.363-4.534,7.182-6.851,10.92c-0.093-0.086-0.456-0.393-0.79-0.727c-6.666-6.652-13.307-13.327-20.008-19.94  c-0.901-0.89-1.06-1.64-0.721-2.846c1.557-5.535,2.55-11.159,2.349-16.947c-0.203-5.868-1.927-11.036-6.101-15.409  c-4.374-4.58-6.266-10.43-6.914-16.574c-1.917-18.15,3.349-33.918,16.08-47.119c9.651-10.008,12.339-24.068,6.661-35.718  c-3.761-7.717-9.749-12.111-18.716-12.146c-9.091-0.037-18.06-1.163-26.461-4.99c-6.763-3.081-11.952-7.671-13.951-15.16  c-0.233-0.871-0.386-1.764-0.571-2.647c-0.404-1.945-0.036-3.587,1.453-5.077c2.812-2.816,5.408-5.848,8.221-8.663  c38.024-38.037,76.074-76.046,114.084-114.095c1.074-1.076,2.12-1.51,3.626-1.489c8.289,0.112,16.53,0.587,24.522,3.003  c1.952,0.588,3.883,1.345,5.688,2.286c6.352,3.312,8.457,8.278,6.653,15.24c-0.961,3.713-2.815,6.963-5.467,9.653  c-3.638,3.693-7.477,7.19-11.258,10.743c-3.576,3.361-6.904,6.917-9.299,11.252c-2.539,4.593-3.676,9.518-3.595,14.755  c0.077,5.056,2.397,9.074,6.397,11.784c4.061,2.752,8.492,4.999,12.9,7.189c4.039,2.006,8.28,3.6,12.392,5.469  c1.25,0.567,2.426,1.355,3.522,2.19C248.241,206.699,248.781,209.619,246.241,212.934L246.241,212.934z M377.835,500.76  c-7.829,7.684-15.107,15.96-24.184,22.292c-18.8,13.114-39.633,19.156-62.533,18.038c-14.3-0.699-27.775-4.434-40.484-10.988  c-0.418-0.215-0.813-0.479-1.657-0.98c12.411-3.709,24.376-7.388,36.404-10.855c18.801-5.42,37.691-10.518,56.877-14.418  c9.333-1.895,18.699-3.637,28.26-3.901c2.443-0.067,4.892-0.009,7.323-0.009C377.841,500.543,377.891,500.705,377.835,500.76  L377.835,500.76z M388.159,340.261c-5.909,11.591-7.423,23.914-5.356,36.766c1.178,7.324,1.953,14.709,0.9,22.159  c-0.857,6.077-2.667,11.869-5.202,17.425c-5.414,11.856-12.332,22.809-20.676,32.801c-2.445,2.927-5.411,5.561-8.547,7.74  c-9.256,6.43-19.164,5.477-27.33-2.314c-6.65-6.346-10.613-14.278-13.127-22.963c-2.74-9.462-3.726-19.044-0.891-28.697  c0.461-1.559,1.061-3.073,1.791-4.525c7.032-13.984,5.132-27.062-4.447-39.008c-9.102-11.352-21.22-17.611-35.636-19.285  c-9.161-1.062-15.533-6.994-17.456-16.695c-1.956-9.869-0.142-19.337,3.408-28.52c5.763-14.91,15.277-27,28.184-36.391  c7.033-5.118,15.1-7.694,23.603-8.935c4.05-0.59,8.155-0.792,10.271-0.987c12.762,0.143,23.289,1.676,33.061,6.45  c3.373,1.647,6.514,3.894,9.469,6.233c3.027,2.398,5.066,5.669,6.007,9.472c1.121,4.531,3.853,7.784,8.179,9.163  c4.268,1.359,8.738,2.15,13.169,2.918c5.099,0.883,10.331,1.113,15.358,2.27c7.601,1.75,9.75,5.788,6.996,13.105  c-1.773,4.711-4.156,9.215-6.523,13.678C398.365,321.537,393.001,330.766,388.159,340.261L388.159,340.261z M509.788,368.891  c-12.657,12.766-25.357,25.488-38.264,38.432c-4.884-5.532-10.97-7.815-17.904-7.716c-3.902,0.055-7.805,0.596-11.691,1.057  c-5.562,0.663-11.092,1.777-16.669,2.075c-4.04,0.216-8.214-0.19-12.185-1.014c-6.649-1.377-9.591-6.574-8.261-13.577  c1.351-7.121,4.885-13.203,9.282-18.779c12.38-15.695,27.979-26.771,47.375-32.078c8.846-2.421,17.657-2.346,26.062,1.971  c5.777,2.967,10.354,7.356,13.818,12.741c3.153,4.901,5.828,10.116,8.643,15.229C510.218,367.639,510.109,368.564,509.788,368.891  L509.788,368.891z M515.896,300.181c-1.241,0.379-2.594,0.389-3.549,0.521c-5.541-0.559-10.686-1.302-15.411-3.51  c-1.995-0.932-3.781-2.508-5.34-4.105c-1.229-1.257-1.366-3.062-0.417-4.71c0.923-1.604,2.473-2.115,4.176-1.938  c7.012,0.722,13.684,2.61,19.845,6.106c0.774,0.438,1.498,1.023,2.126,1.659C519.406,296.306,518.71,299.33,515.896,300.181z   M517.057,282.11c-2.903,1.146-6.197,1.528-9.351,1.77c-6.023,0.463-11.045-1.833-15.156-6.259  c-7.124-7.668-15.154-14.167-24.703-18.608c-6.184-2.876-12.621-4.832-19.537-4.457c-1.777,0.097-3.611,0.451-5.277,1.068  c-3.947,1.464-4.4,4.395-1.123,7.03c2.861,2.301,4.583,5.179,5.25,8.785c1.85,10.001-5.467,19.743-15.592,20.763  c-9.516,0.958-16.693-3.315-22.572-10.212c-5.777-6.778-8.896-14.698-9.169-23.646c-0.196-6.459-0.564-12.88-2.241-19.171  c-2.887-10.82-8.944-19.383-18.094-25.793c-3.455-2.421-6.907-4.848-10.387-7.237c-2.439-1.676-5.093-1.827-7.75-0.668  c-4.17,1.819-7.059,4.972-8.836,9.125c-0.315,0.74-0.488,1.679-0.344,2.455c0.656,3.49-0.551,6.419-2.566,9.11  c-3.972,5.304-9.308,8.876-15.211,11.656c-5.067,2.386-10.344,3.949-16.045,3.694c-5.936-0.266-12.429-6.085-13.227-11.993  c-0.322-2.388,0.538-4.484,2.246-6.048c1.766-1.617,3.76-2.998,5.724-4.384c1.817-1.284,3.815-2.329,5.582-3.676  c2.771-2.113,2.876-4.22,0.083-6.327c-2.285-1.727-4.871-3.095-7.428-4.419c-3.17-1.642-3.575-2.996-0.836-5.303  c2.519-2.123,5.252-4.09,8.148-5.646c8.383-4.507,16.929-8.711,25.344-13.161c3.936-2.081,7.85-4.257,11.537-6.74  c4.82-3.245,5.467-6.55,2.695-11.625c-1.529-2.802-3.248-5.502-4.73-8.33c-2.061-3.933-3.046-8.174-2.421-12.587  c0.287-2.028,0.927-4.185,2.017-5.893c8.357-13.078,19.688-22.146,35.123-25.569c1.934-0.428,3.275-0.128,4.773,1.372  c39.391,39.474,78.881,78.849,118.264,118.33c11.864,11.894,19.842,26.14,24.412,42.297c0.129,0.457,0.219,0.927,0.422,1.815  c-6.389,2.887-12.603,5.947-19.023,8.484L517.057,282.11z"
         id="path2" /></svg>