<?xml version="1.0" encoding="UTF-8" standalone="no"?>
<svg
     xmlns:dc="http://purl.org/dc/elements/1.1/"
     xmlns:cc="http://creativecommons.org/ns#"
     xmlns:rdf="http://www.w3.org/1999/02/22-rdf-syntax-ns#"
     xmlns:svg="http://www.w3.org/2000/svg"
     xmlns="http://www.w3.org/2000/svg"
     xmlns:sodipodi="http://sodipodi.sourceforge.net/DTD/sodipodi-0.dtd"
     xmlns:inkscape="http://www.inkscape.org/namespaces/inkscape"
     version="1.1"
     id="Calque_1"
     x="0px"
     y="0px"
     width="577.205px"
     height="576.783px"
     viewBox="0 0 577.205 576.783"
     enable-background="new 0 0 577.205 576.783"
     xml:space="preserve"
     sodipodi:docname="geowebcache.svg"
     inkscape:version="0.92.2 5c3e80d, 2017-08-06"><title
         id="title45">osgeo-geowebcache</title><metadata
         id="metadata43"><rdf:RDF><cc:Work
                 rdf:about=""><dc:format>image/svg+xml</dc:format><dc:type
                     rdf:resource="http://purl.org/dc/dcmitype/StillImage" /><dc:title>osgeo-geowebcache</dc:title><dc:date>08-21-2018</dc:date><dc:creator><cc:Agent><dc:title>Nicolas Bozon</dc:title></cc:Agent></dc:creator><dc:rights><cc:Agent><dc:title>copyright OSGeo</dc:title></cc:Agent></dc:rights><dc:publisher><cc:Agent><dc:title>OSGeo</dc:title></cc:Agent></dc:publisher><dc:identifier>osgeo-geowebcache</dc:identifier><dc:description>OSGeo Geowebcache</dc:description><dc:contributor><cc:Agent><dc:title>OSGeo Marketing Committee</dc:title></cc:Agent></dc:contributor><cc:license
                     rdf:resource="http://creativecommons.org/licenses/by-sa/4.0/" /></cc:Work><cc:License
                 rdf:about="http://creativecommons.org/licenses/by-sa/4.0/"><cc:permits
                     rdf:resource="http://creativecommons.org/ns#Reproduction" /><cc:permits
                     rdf:resource="http://creativecommons.org/ns#Distribution" /><cc:requires
                     rdf:resource="http://creativecommons.org/ns#Notice" /><cc:requires
                     rdf:resource="http://creativecommons.org/ns#Attribution" /><cc:permits
                     rdf:resource="http://creativecommons.org/ns#DerivativeWorks" /><cc:requires
                     rdf:resource="http://creativecommons.org/ns#ShareAlike" /></cc:License></rdf:RDF></metadata><defs
         id="defs41" /><sodipodi:namedview
         pagecolor="#ffffff"
         bordercolor="#666666"
         borderopacity="1"
         objecttolerance="10"
         gridtolerance="10"
         guidetolerance="10"
         inkscape:pageopacity="0"
         inkscape:pageshadow="2"
         inkscape:window-width="640"
         inkscape:window-height="480"
         id="namedview39"
         showgrid="false"
         inkscape:zoom="0.409166"
         inkscape:cx="288.60251"
         inkscape:cy="288.39151"
         inkscape:window-x="0"
         inkscape:window-y="0"
         inkscape:window-maximized="0"
         inkscape:current-layer="Calque_1" /><g
         id="g36"><g
             id="g34"><path
                 d="M131.954,282.057c5.489,0.013,8.699-0.848,9.072-7.582c1.735-31.055,2.848-62.233,12.573-92.225    c1.321-4.07,1.101-7.418-4.29-8.873c-11.362-3.066-21.405-9.919-33.147-12.005l-57.694,57.693    c-17.237,17.237-26.372,39.702-27.587,63.068C64.572,282.086,98.262,281.977,131.954,282.057z"
                 id="path2" /><path
                 d="M153.925,398.083c-9.804-29.609-10.445-60.516-12.699-91.139c-0.56-7.641-3.471-9.222-10.366-9.174    c-33.201,0.226-66.408,0.046-99.614,0c2.411,24.73,13.509,49.399,33.109,69.002l51.932,51.932    c12.318-1.633,22.525-9.268,34.357-12.297C155.431,405.177,155.049,401.471,153.925,398.083z"
                 id="path4" /><path
                 d="M282.449,414.087c0.162-11.221-4.133-13.11-13.516-12.086c-29.222,3.195-58.775,3.838-87.177,12.899    c-5.219,1.665-7.719,3.054-5.668,8.718c3.532,9.751,6.894,19.562,10.283,29.368c8.032,23.239,20.279,44.491,31.179,66.38    c18.661,15.766,40.925,24.649,63.157,26.497c1.765-2.552,2.342-6.115,2.251-10.774    C282.169,494.763,281.867,454.411,282.449,414.087z"
                 id="path6" /><path
                 d="M161.18,152.648c4.598-19.165,15.306-36.182,19.251-55.547l-52.435,52.435c7.49,2.445,14.917,5.125,22.515,7.168    C154.643,157.814,159.812,158.351,161.18,152.648z"
                 id="path8" /><path
                 d="M156.384,423.001c-9.439-3.51-18.867,4.439-28.441,7.359l52.457,52.456c-1.121-12.001-6.521-22.585-11.676-33.114    C164.334,440.727,166.879,426.91,156.384,423.001z"
                 id="path10" /><path
                 d="M430.486,173.732c-5.196,1.563-5.109,4.878-3.781,9.113c9.148,29.208,9.94,59.57,11.873,89.722    c0.455,7.13,2.346,9.716,9.766,9.671c29.869-0.184,59.74-0.058,89.598,0.58c3.813,0.078,6.584-0.443,8.385-1.769    c-1.938-25.481-13.107-51.058-33.304-71.255l0,0l-48.561-48.56c0.007,0.022,0.015,0.044,0.021,0.067    C452.4,163.4,442.05,170.242,430.486,173.732z"
                 id="path12" /><path
                 d="M177.438,153.975c-1.515,4.8-3.987,8.328,3.644,10.617c29.755,8.935,60.513,10.23,91.091,13.078    c7.102,0.661,9.868-1.506,9.837-9.181c-0.184-42.512-0.13-85.027,0.5-127.532c0.116-7.801-2.941-9.726-8.314-9.706    c-20.325,2.74-39.551,11.635-54.724,26.81l-0.356,0.358c0.005,0.748,0.102,1.552-0.228,2.101    C201.106,89.92,187.764,121.264,177.438,153.975z"
                 id="path14" /><path
                 d="M409.497,129.671c2.598,8.79,3.832,21.994,13.457,26.523c9.479,4.462,19.227-5.24,29.343-6.808    c0.148,0.037,0.291,0.081,0.437,0.12L398.72,95.492c0.211,0.295,0.424,0.585,0.631,0.88    C400.648,108.139,406.24,118.638,409.497,129.671z"
                 id="path16" /><path
                 d="M297.765,167.171c-0.069,8.865,2.912,11.329,11.163,10.49c30.062-3.061,60.358-4.306,89.593-13.208    c4.936-1.506,6.514-3.297,4.739-8.151c-3.556-9.73-6.962-19.518-10.337-29.315c-8.312-24.135-21.412-46.029-32.295-68.958    c0.219,0.132,0.43,0.272,0.646,0.408c-18.66-16.289-41.094-25.551-63.553-27.642C297.806,76.255,298.11,121.715,297.765,167.171z"
                 id="path18" /><path
                 d="M273.432,297.584c-17.751,0.403-35.517,0.139-53.274,0.139c0-0.021,0-0.041,0-0.061c-18.192,0-36.389,0.244-54.571-0.122    c-6.753-0.14-9.119,1.986-8.909,8.869c0.855,27.754,5.459,54.991,10.301,82.238c1.626,9.16,5.463,12.232,14.961,9.844    c30.26-7.615,60.915-12.939,92.3-12.016c6.397,0.187,8.054-2.496,7.994-8.447c-0.238-23.817-0.293-47.646,0.021-71.467    C282.344,299.864,280.336,297.427,273.432,297.584z"
                 id="path20" /><path
                 d="M274.428,193.736c-31.955,1.211-62.982-4.986-93.833-12.238c-7.389-1.737-11.342,0.095-12.824,7.917    c-5.247,27.645-9.961,55.312-10.848,83.543c-0.253,8.019,3.235,9.282,10.023,9.155c17.358-0.325,34.726-0.112,52.092-0.112    c0,0.061,0,0.117,0,0.173c18.233,0,36.473-0.163,54.7,0.098c5.92,0.081,8.589-1.507,8.493-7.988    c-0.367-24.304-0.411-48.62-0.301-72.929C281.956,195.811,280.104,193.522,274.428,193.736z"
                 id="path22" /><path
                 d="M297.603,377.654c-0.045,5.578,0.797,9.07,7.634,8.804c31.912-1.241,62.954,4.931,93.803,12    c8.386,1.924,11.849-0.723,13.335-8.725c5.139-27.681,9.639-55.401,10.611-83.623c0.258-7.437-3.217-8.496-9.384-8.407    c-17.78,0.251-35.569,0.09-53.353,0.09c0-0.021,0-0.041,0-0.062c-17.786,0-35.572,0.184-53.352-0.095    c-6.252-0.101-9.469,1.12-9.354,8.455C297.921,329.935,297.784,353.798,297.603,377.654z"
                 id="path24" /><path
                 d="M534.843,296.991c-28.567,0.919-57.176,0.897-85.761,0.65c-7.915-0.073-10.085,2.432-10.56,10.269    c-1.797,29.755-2.781,59.689-11.951,88.479c-1.19,3.73-2.803,8.02,2.684,9.652c10.146,3.013,19.232,8.923,29.475,11.631    l60.176-60.177c15.955-15.952,24.969-36.384,27.186-57.863C543.499,297.558,539.82,296.829,534.843,296.991z"
                 id="path26" /><path
                 d="M306.615,282.281c17.785-0.352,35.578-0.116,53.367-0.116c0-0.021,0-0.041,0-0.055c17.793,0,35.588-0.285,53.367,0.136    c7.268,0.17,9.94-1.996,9.63-9.527c-1.113-27.35-5.324-54.243-10.509-81.06c-1.771-9.152-5.525-11.994-15.104-9.653    c-29.935,7.312-60.252,12.53-91.245,11.717c-6.148-0.161-8.313,1.989-8.265,8.215c0.18,23.86,0.139,47.729-0.307,71.586    C297.419,280.53,299.995,282.416,306.615,282.281z"
                 id="path28" /><path
                 d="M415.995,434.107c-1.541,7.553-5.785,14.499-7.87,21.746c-2.106,7.308-7.425,13.646-8.745,21.17l48.227-48.226    c-4.382-1.476-8.764-2.946-13.06-4.642C424.286,420.105,418.303,422.794,415.995,434.107z"
                 id="path30" /><path
                 d="M398.904,415.165c-30.216-9.039-61.393-10.646-92.477-13.211c-6.891-0.57-8.898,2.014-8.887,8.805    c0.075,42.544-0.008,85.092-0.617,127.633c-0.045,3.309,0.379,5.752,1.335,7.458c22.129-1.892,43.252-10.957,59.644-27.352    l9.913-9.911c13.661-26.695,26.478-53.75,34.812-82.771C404.015,420.958,406.48,417.43,398.904,415.165z"
                 id="path32" /></g></g></svg>
