<?xml version="1.0" encoding="UTF-8" standalone="no"?>
<svg
     xmlns:dc="http://purl.org/dc/elements/1.1/"
     xmlns:cc="http://creativecommons.org/ns#"
     xmlns:rdf="http://www.w3.org/1999/02/22-rdf-syntax-ns#"
     xmlns:svg="http://www.w3.org/2000/svg"
     xmlns="http://www.w3.org/2000/svg"
     xmlns:sodipodi="http://sodipodi.sourceforge.net/DTD/sodipodi-0.dtd"
     xmlns:inkscape="http://www.inkscape.org/namespaces/inkscape"
     version="1.1"
     id="Calque_1"
     x="0px"
     y="0px"
     width="577.863px"
     height="559.963px"
     viewBox="0 0 577.863 559.963"
     enable-background="new 0 0 577.863 559.963"
     xml:space="preserve"
     sodipodi:docname="grass-gis.svg"
     inkscape:version="0.92.2 5c3e80d, 2017-08-06"><title
         id="title49">osgeo-grass-gis</title><metadata
         id="metadata9"><rdf:RDF><cc:Work
                 rdf:about=""><dc:format>image/svg+xml</dc:format><dc:type
                     rdf:resource="http://purl.org/dc/dcmitype/StillImage" /><dc:title>osgeo-grass-gis</dc:title><dc:date>08-21-2018</dc:date><dc:creator><cc:Agent><dc:title>Nicolas Bozon</dc:title></cc:Agent></dc:creator><dc:rights><cc:Agent><dc:title>copyright OSGeo</dc:title></cc:Agent></dc:rights><dc:publisher><cc:Agent><dc:title>OSGeo</dc:title></cc:Agent></dc:publisher><dc:identifier>osgeo-grass-gis</dc:identifier><dc:description>OSGeo GRASS GIS</dc:description><dc:contributor><cc:Agent><dc:title>OSGeo Marketing Committee</dc:title></cc:Agent></dc:contributor><cc:license
                     rdf:resource="http://creativecommons.org/licenses/by-sa/4.0/" /></cc:Work><cc:License
                 rdf:about="http://creativecommons.org/licenses/by-sa/4.0/"><cc:permits
                     rdf:resource="http://creativecommons.org/ns#Reproduction" /><cc:permits
                     rdf:resource="http://creativecommons.org/ns#Distribution" /><cc:requires
                     rdf:resource="http://creativecommons.org/ns#Notice" /><cc:requires
                     rdf:resource="http://creativecommons.org/ns#Attribution" /><cc:permits
                     rdf:resource="http://creativecommons.org/ns#DerivativeWorks" /><cc:requires
                     rdf:resource="http://creativecommons.org/ns#ShareAlike" /></cc:License></rdf:RDF></metadata><defs
         id="defs7" /><sodipodi:namedview
         pagecolor="#ffffff"
         bordercolor="#666666"
         borderopacity="1"
         objecttolerance="10"
         gridtolerance="10"
         guidetolerance="10"
         inkscape:pageopacity="0"
         inkscape:pageshadow="2"
         inkscape:window-width="640"
         inkscape:window-height="480"
         id="namedview5"
         showgrid="false"
         inkscape:zoom="0.42145641"
         inkscape:cx="288.93149"
         inkscape:cy="279.98151"
         inkscape:window-x="0"
         inkscape:window-y="0"
         inkscape:window-maximized="0"
         inkscape:current-layer="Calque_1" /><path
         d="M258.057,495.081l-13.572-105.979l-3.677-52.31l-0.859-63.179l2.596-22.649l15.53,91.186l8.827,74.486l13.563,91.066  l2.893,26.202l0.085-1.509l11.201-91.975l3.651-41.268l6.231-71.307l0.414-63.827l-4.98-3.2l-3.529-17.9l1.461-4.093l0.768-1.839  l-0.314-4.374l-0.127-0.253l-2.011-0.894l-3.335-7.336l1.484-5.089l-0.452-0.907l-1.976-1.535l-2.69-5.715l0.351-1.397l-0.516-0.115  l-3.957-5.542l0.694-3.476l-0.2-0.36l-1.312-1.498l-2.377-3.056v-2.511l-1.587-1.905l-2.258-4.834l1.118-5.192l2.781-3.306  l-0.31-1.183l-0.942-0.941l-4.404-2.934l-0.771-7.307l2.157-3.021l1.681-1.511l0.191-0.627l-1.732-1.441l-2.154-2.633l-2.705-3.241  l-0.893-3.576l-0.735-4.414l2.319-2.894l-1.31-3.654l2.914-2.185l-0.028-0.138l-0.37-0.557l-2.492-3.231l-1.187-3.8l-1.557-3.116  v-4.543l0.4-1.796l-0.604-8.051l2.177-0.722l1.55-5.122l0.652-4.545l1.79-5.665l8.028-5.353l3.234,6.923l1.269,1.776l2.694,0.993  l5.886,1.122l3.914,6.521l0.538,6.164l-0.356,3.914l1.234,2.244l3.848,1.92l1.899,3.335l4.055,3.04l1.109,7.21l1.11,9.977v4  l-0.102,1.52l1.41,1.283l3.213,5.254v3.576l0.999,1.9l8.239,2.744l-5.221,8.602l1.631,4.885l6.053,4.238l-3.357,6.2l3.104,4.962  l-2.419,5.73l-2.309,7.562l-0.912,2.914v5.361l1.45,9.155l-3.096,5.747l0.573,7.644v8.03l-2.279,4.041l-1.645,4.52l-2.051,4.924  l-0.26,1.218l-1.521,83.731l-3.459,39.576l-10.328,102.429l-5.359,62.387l0.188-0.45l24.58-63.385l29.584-60.459l35.122-69.607  l27.586-51.722l27.03-48.483l6.768-15.646l5.074-14.007l-0.35-5.887l-3.328-7.966l-7.428-20.134l17.635,17.641l5.26,10.28  l2.133,11.316l-0.684,13.679l-1.845,8.523l-5.12,14.018l-40.178,79.702l-24.498,45.99l-20.409,42.973l-38.312,80.396L575.014,275.76  L296.287,11.199L20.265,287.223l239.959,227.764L258.057,495.081z"
         id="path2" /></svg>