<?xml version="1.0" encoding="UTF-8" standalone="no"?>
<svg
     xmlns:dc="http://purl.org/dc/elements/1.1/"
     xmlns:cc="http://creativecommons.org/ns#"
     xmlns:rdf="http://www.w3.org/1999/02/22-rdf-syntax-ns#"
     xmlns:svg="http://www.w3.org/2000/svg"
     xmlns="http://www.w3.org/2000/svg"
     xmlns:sodipodi="http://sodipodi.sourceforge.net/DTD/sodipodi-0.dtd"
     xmlns:inkscape="http://www.inkscape.org/namespaces/inkscape"
     version="1.1"
     id="Calque_1"
     inkscape:version="0.92.2 5c3e80d, 2017-08-06"
     sodipodi:docname="istsos.svg"
     x="0px"
     y="0px"
     width="496.92px"
     height="497.312px"
     viewBox="0 0 496.92 497.312"
     enable-background="new 0 0 496.92 497.312"
     xml:space="preserve"><title
         id="title16">osgeo-istsos</title><metadata
         id="metadata14"><rdf:RDF><cc:Work
                 rdf:about=""><dc:format>image/svg+xml</dc:format><dc:type
                     rdf:resource="http://purl.org/dc/dcmitype/StillImage" /><dc:title>osgeo-istsos</dc:title><dc:date>08-21-2018</dc:date><dc:creator><cc:Agent><dc:title>Nicolas Bozon</dc:title></cc:Agent></dc:creator><dc:rights><cc:Agent><dc:title>copyright OSGeo</dc:title></cc:Agent></dc:rights><dc:publisher><cc:Agent><dc:title>OSGeo</dc:title></cc:Agent></dc:publisher><dc:identifier>osgeo-istsos</dc:identifier><dc:description>OSGeo istSOS</dc:description><dc:contributor><cc:Agent><dc:title>OSGeo Marketing Committee</dc:title></cc:Agent></dc:contributor><cc:license
                     rdf:resource="http://creativecommons.org/licenses/by-sa/4.0/" /></cc:Work><cc:License
                 rdf:about="http://creativecommons.org/licenses/by-sa/4.0/"><cc:permits
                     rdf:resource="http://creativecommons.org/ns#Reproduction" /><cc:permits
                     rdf:resource="http://creativecommons.org/ns#Distribution" /><cc:requires
                     rdf:resource="http://creativecommons.org/ns#Notice" /><cc:requires
                     rdf:resource="http://creativecommons.org/ns#Attribution" /><cc:permits
                     rdf:resource="http://creativecommons.org/ns#DerivativeWorks" /><cc:requires
                     rdf:resource="http://creativecommons.org/ns#ShareAlike" /></cc:License></rdf:RDF></metadata><defs
         id="defs12" /><sodipodi:namedview
         inkscape:cy="248.65601"
         inkscape:cx="248.46001"
         inkscape:zoom="0.47455118"
         showgrid="false"
         id="namedview7"
         guidetolerance="10"
         gridtolerance="10"
         objecttolerance="10"
         borderopacity="1"
         bordercolor="#666666"
         pagecolor="#ffffff"
         inkscape:current-layer="Calque_1"
         inkscape:window-maximized="0"
         inkscape:window-y="0"
         inkscape:window-height="480"
         inkscape:window-width="640"
         inkscape:pageshadow="2"
         inkscape:pageopacity="0"
         inkscape:window-x="0" /><g
         id="g9"><path
             fill="none"
             d="M420.36,181.824c-0.809-0.103-1.605-0.241-2.445-0.241c-1.605,0-3.142,0.26-4.628,0.637l-11.65-13.933   c0.822-2.104,1.23-4.408,1.136-6.803c-0.333-9.468-8.296-16.908-17.77-16.575c-9.455,0.329-16.898,8.302-16.572,17.776   c0.112,3.176,1.104,6.114,2.696,8.619l-29.457,66.555l-33.671-73.79c2.106-2.966,3.322-6.622,3.179-10.537   c-0.326-9.478-8.302-16.908-17.764-16.575c-9.48,0.322-16.905,8.298-16.578,17.772c0.031,0.956,0.169,1.881,0.351,2.79   c0.063,0.273,0.119,0.542,0.188,0.812c0.175,0.677,0.389,1.338,0.64,1.981c0.15,0.367,0.301,0.728,0.464,1.082   c0.27,0.555,0.552,1.094,0.878,1.615c0.264,0.429,0.552,0.849,0.853,1.254c0.15,0.2,0.313,0.395,0.477,0.589   c1.204,1.473,2.634,2.759,4.251,3.771c0.007,0.003,0.013,0.006,0.013,0.006l-27.771,108.8l-26.761-58.645   c1.912-2.881,3-6.367,2.865-10.083c-0.332-9.471-8.308-16.907-17.763-16.572c-9.471,0.329-16.917,8.298-16.585,17.77   c0.129,3.75,1.483,7.179,3.627,9.929l-30.545,69.019c-0.624,0.037-1.229,0.101-1.828,0.188l-13.032-15.575   c0.639-1.882,0.962-3.894,0.88-6.007c-0.322-9.456-8.292-16.889-17.76-16.56c-9.474,0.323-16.904,8.295-16.581,17.764   c0.078,2.194,0.58,4.251,1.392,6.145l-11.052,16.158c-0.178-0.006-0.37-0.02-0.542-0.02L97.39,261.308   c1.354-2.433,2.188-5.185,2.188-8.156c0-9.309-7.546-16.854-16.854-16.854c-9.309,0-16.854,7.546-16.854,16.854   c0,9.247,7.458,16.747,16.685,16.835l15.725,28.956c-1.784,2.821-2.755,6.182-2.636,9.756c0.323,9.475,8.292,16.905,17.763,16.578   c9.474-0.332,16.904-8.314,16.578-17.781c-0.091-2.471-0.705-4.804-1.727-6.898l10.594-15.487c0.862,0.095,1.73,0.151,2.615,0.113   c0.975-0.024,1.915-0.163,2.84-0.352l12.484,14.93c-0.825,2.101-1.232,4.408-1.142,6.803c0.333,9.469,8.299,16.905,17.773,16.578   c9.453-0.338,16.898-8.302,16.569-17.781c-0.113-3.173-1.104-6.107-2.697-8.615l29.455-66.555l33.675,73.791   c-2.108,2.966-3.321,6.622-3.18,10.534c0.328,9.48,8.309,16.905,17.764,16.578c9.481-0.325,16.904-8.302,16.579-17.77   c-0.032-1.028-0.17-2.019-0.377-2.985c-0.075-0.325-0.188-0.627-0.27-0.952c-0.176-0.621-0.357-1.235-0.596-1.824   c-0.15-0.371-0.326-0.722-0.489-1.073c-0.251-0.501-0.507-0.996-0.795-1.467c-0.227-0.37-0.465-0.728-0.71-1.066   c-0.3-0.413-0.621-0.809-0.952-1.191c-0.302-0.351-0.602-0.688-0.929-1.01c-0.332-0.331-0.689-0.627-1.054-0.927   c-0.369-0.313-0.733-0.633-1.128-0.915c-0.351-0.245-0.715-0.439-1.085-0.659c-1.098-0.658-2.264-1.216-3.505-1.618   c-0.113-0.037-0.213-0.087-0.313-0.125l28.924-113.318l29.702,65.072c-1.919,2.881-3.01,6.367-2.872,10.086   c0.333,9.468,8.309,16.904,17.77,16.572c9.469-0.332,16.911-8.296,16.58-17.775c-0.126-3.748-1.48-7.177-3.625-9.927l30.542-69.016   c0.627-0.041,1.235-0.1,1.83-0.191l12.159,14.528c-0.791,2.057-1.279,4.261-1.279,6.59c0,10.264,8.421,18.584,18.798,18.584   c10.383,0,18.798-8.32,18.798-18.584c0-3.113-0.847-6.004-2.22-8.584C431.714,186.355,426.53,182.631,420.36,181.824z"
             id="path3" /><path
             fill="none"
             d="M280.685,164.852c1.204,1.486,2.634,2.752,4.251,3.771C283.319,167.611,281.889,166.325,280.685,164.852z"
             id="path5" /><path
             d="M474.797,246.342c-0.739-37.659-11.713-72.929-30.423-103.439C405.173,78.981,332.125,35.965,248.424,35.965   c-125.078,0-226.477,95.984-226.477,214.384c0,118.406,101.398,214.385,226.477,214.385s226.474-95.979,226.474-214.385   C474.898,249.007,474.823,247.677,474.797,246.342z M395.956,317.754c-8.108,2.809-16.654,4.364-28.43,7.348   c9.682,5.229,16.44,8.767,23.074,12.521c2.54,1.437,6.058,2.991,3.562,6.866c-1.724,2.671-4.295,1.731-6.734,0.414   c-10.345-5.624-20.93-10.828-31.062-16.816c-7.825-4.614-3.957-8.139,2.15-9.832c9.851-2.733,19.996-4.439,29.777-7.38   c7.323-2.214,15.443-5.098,15.826-14.497c0.413-10.031-8.34-11.631-15.47-14.239c-2.583-0.953-7.186,0.477-6.783-4.038   c0.47-5.392,5.21-4.013,8.451-3.36c11.093,2.188,21.238,6.659,23.068,19.167C415.256,306.718,406.966,313.923,395.956,317.754z    M417.914,218.756c-10.377,0-18.798-8.32-18.798-18.584c0-2.33,0.488-4.534,1.279-6.59l-12.159-14.528   c-0.595,0.091-1.203,0.15-1.83,0.191l-30.542,69.016c2.145,2.75,3.499,6.179,3.625,9.927c0.331,9.479-7.111,17.443-16.58,17.775   c-9.461,0.332-17.437-7.104-17.77-16.572c-0.138-3.719,0.953-7.205,2.872-10.086l-29.702-65.072l-28.924,113.318   c0.101,0.038,0.2,0.088,0.313,0.125c1.241,0.402,2.407,0.96,3.505,1.618c0.37,0.22,0.734,0.414,1.085,0.659   c0.395,0.282,0.759,0.602,1.128,0.915c0.364,0.3,0.722,0.596,1.054,0.927c0.327,0.321,0.627,0.659,0.929,1.01   c0.331,0.383,0.652,0.778,0.952,1.191c0.245,0.339,0.483,0.696,0.71,1.066c0.288,0.471,0.544,0.966,0.795,1.467   c0.163,0.352,0.339,0.702,0.489,1.073c0.238,0.589,0.42,1.203,0.596,1.824c0.082,0.325,0.194,0.627,0.27,0.952   c0.207,0.967,0.345,1.957,0.377,2.985c0.325,9.468-7.098,17.444-16.579,17.77c-9.455,0.327-17.436-7.098-17.764-16.578   c-0.142-3.912,1.071-7.568,3.18-10.534l-33.675-73.791l-29.455,66.555c1.593,2.508,2.583,5.442,2.697,8.615   c0.329,9.479-7.117,17.443-16.569,17.781c-9.474,0.327-17.44-7.109-17.773-16.578c-0.091-2.395,0.317-4.702,1.142-6.803   l-12.484-14.93c-0.925,0.188-1.865,0.327-2.84,0.352c-0.884,0.038-1.753-0.019-2.615-0.113l-10.594,15.487   c1.022,2.095,1.636,4.428,1.727,6.898c0.326,9.467-7.104,17.449-16.578,17.781c-9.471,0.327-17.44-7.104-17.763-16.578   c-0.119-3.574,0.853-6.935,2.636-9.756l-15.725-28.956c-9.227-0.088-16.685-7.588-16.685-16.835   c0-9.309,7.546-16.854,16.854-16.854c9.308,0,16.854,7.546,16.854,16.854c0,2.972-0.834,5.724-2.188,8.156l16.102,29.633   c0.172,0,0.364,0.014,0.542,0.02l11.052-16.158c-0.812-1.894-1.314-3.95-1.392-6.145c-0.323-9.469,7.107-17.44,16.581-17.764   c9.468-0.329,17.438,7.104,17.76,16.56c0.082,2.113-0.241,4.125-0.88,6.007l13.032,15.575c0.599-0.088,1.204-0.151,1.828-0.188   l30.545-69.019c-2.145-2.75-3.499-6.18-3.627-9.929c-0.333-9.471,7.114-17.44,16.585-17.77c9.456-0.335,17.431,7.101,17.763,16.572   c0.135,3.715-0.953,7.202-2.865,10.083l26.761,58.645l27.771-108.8c0,0-0.006-0.003-0.013-0.006   c-1.617-1.02-3.047-2.286-4.251-3.771c-0.163-0.195-0.326-0.389-0.477-0.589c-0.301-0.405-0.589-0.825-0.853-1.254   c-0.326-0.521-0.608-1.06-0.878-1.615c-0.163-0.354-0.313-0.715-0.464-1.082c-0.251-0.643-0.465-1.304-0.64-1.981   c-0.069-0.27-0.125-0.54-0.188-0.812c-0.182-0.909-0.319-1.834-0.351-2.79c-0.327-9.475,7.098-17.45,16.578-17.772   c9.462-0.333,17.438,7.097,17.764,16.575c0.144,3.916-1.072,7.571-3.179,10.537l33.671,73.79l29.457-66.555   c-1.593-2.505-2.584-5.443-2.696-8.619c-0.326-9.474,7.117-17.447,16.572-17.776c9.474-0.333,17.437,7.107,17.77,16.575   c0.095,2.396-0.313,4.7-1.136,6.803l11.65,13.933c1.486-0.376,3.022-0.637,4.628-0.637c0.84,0,1.637,0.138,2.445,0.241   c6.17,0.806,11.354,4.531,14.133,9.763c1.373,2.58,2.22,5.471,2.22,8.584C436.712,210.436,428.297,218.756,417.914,218.756z"
             id="path7" /></g></svg>
