<?xml version="1.0" encoding="UTF-8" standalone="no"?>
<svg
     xmlns:dc="http://purl.org/dc/elements/1.1/"
     xmlns:cc="http://creativecommons.org/ns#"
     xmlns:rdf="http://www.w3.org/1999/02/22-rdf-syntax-ns#"
     xmlns:svg="http://www.w3.org/2000/svg"
     xmlns="http://www.w3.org/2000/svg"
     xmlns:sodipodi="http://sodipodi.sourceforge.net/DTD/sodipodi-0.dtd"
     xmlns:inkscape="http://www.inkscape.org/namespaces/inkscape"
     version="1.1"
     id="Calque_1"
     x="0px"
     y="0px"
     width="636.271px"
     height="636.27px"
     viewBox="0 0 636.271 636.27"
     enable-background="new 0 0 636.271 636.27"
     xml:space="preserve"
     sodipodi:docname="mapcentia.svg"
     inkscape:version="0.92.2 5c3e80d, 2017-08-06"><title
         id="title17">osgeo-mapcentia</title><metadata
         id="metadata15"><rdf:RDF><cc:Work
                 rdf:about=""><dc:format>image/svg+xml</dc:format><dc:type
                     rdf:resource="http://purl.org/dc/dcmitype/StillImage" /><dc:title>osgeo-mapcentia</dc:title><dc:date>08-21-2018</dc:date><dc:creator><cc:Agent><dc:title>Nicolas Bozon</dc:title></cc:Agent></dc:creator><dc:rights><cc:Agent><dc:title>copyright OSGeo</dc:title></cc:Agent></dc:rights><dc:publisher><cc:Agent><dc:title>OSGeo</dc:title></cc:Agent></dc:publisher><dc:identifier>osgeo-mapcentia</dc:identifier><dc:description>OSGeo MapCentia</dc:description><dc:contributor><cc:Agent><dc:title>OSGeo Marketing Committee</dc:title></cc:Agent></dc:contributor><cc:license
                     rdf:resource="http://creativecommons.org/licenses/by-sa/4.0/" /></cc:Work><cc:License
                 rdf:about="http://creativecommons.org/licenses/by-sa/4.0/"><cc:permits
                     rdf:resource="http://creativecommons.org/ns#Reproduction" /><cc:permits
                     rdf:resource="http://creativecommons.org/ns#Distribution" /><cc:requires
                     rdf:resource="http://creativecommons.org/ns#Notice" /><cc:requires
                     rdf:resource="http://creativecommons.org/ns#Attribution" /><cc:permits
                     rdf:resource="http://creativecommons.org/ns#DerivativeWorks" /><cc:requires
                     rdf:resource="http://creativecommons.org/ns#ShareAlike" /></cc:License></rdf:RDF></metadata><defs
         id="defs13" /><sodipodi:namedview
         pagecolor="#ffffff"
         bordercolor="#666666"
         borderopacity="1"
         objecttolerance="10"
         gridtolerance="10"
         guidetolerance="10"
         inkscape:pageopacity="0"
         inkscape:pageshadow="2"
         inkscape:window-width="640"
         inkscape:window-height="480"
         id="namedview11"
         showgrid="false"
         inkscape:zoom="0.37091171"
         inkscape:cx="318.1355"
         inkscape:cy="318.13501"
         inkscape:window-x="0"
         inkscape:window-y="0"
         inkscape:window-maximized="0"
         inkscape:current-layer="Calque_1" /><path
         fill-rule="evenodd"
         clip-rule="evenodd"
         d="M412.958,524.656c36.785,0,72.332,0,110.906,0c0-38.379,0-73.874,0-111.268  c20.924,0,38.801,0,58.58,0c0,55.46,0,111.004,0,168.531c-56.707,0-112.293,0-169.486,0  C412.958,563.311,412.958,545.491,412.958,524.656z"
         id="path2" /><path
         fill-rule="evenodd"
         clip-rule="evenodd"
         d="M53.689,413.002c19.46,0,36.597,0,56.649,0c0,37.109,0,72.739,0,111.091  c38.519,0,74.17,0,112.282,0c0,20.461,0,38.146,0,57.817c-56.208,0-111.914,0-168.932,0  C53.689,525.619,53.689,470.551,53.689,413.002z"
         id="path4" /><path
         fill-rule="evenodd"
         clip-rule="evenodd"
         d="M583.01,54.677c0,56.501,0,111.369,0,168.462c-19.051,0-36.773,0-58.172,0  c0-37.056,0-73.309,0-112.358c-39.09,0-74.633,0-111.797,0c0-19.92,0-37.029,0-56.104C468.635,54.677,524.302,54.677,583.01,54.677z  "
         id="path6" /><path
         fill-rule="evenodd"
         clip-rule="evenodd"
         d="M110.954,109.541c0,39.809,0,75.539,0,113.513c-20.027,0-37.768,0-57.083,0  c0-55.703,0-110.754,0-168.065c55.266,0,110.983,0,169.025,0c0,16.812,0,34.497,0,54.553  C186.536,109.541,150.832,109.541,110.954,109.541z"
         id="path8" /></svg>
