<?xml version="1.0" encoding="UTF-8" standalone="no"?>
<svg
     xmlns:dc="http://purl.org/dc/elements/1.1/"
     xmlns:cc="http://creativecommons.org/ns#"
     xmlns:rdf="http://www.w3.org/1999/02/22-rdf-syntax-ns#"
     xmlns:svg="http://www.w3.org/2000/svg"
     xmlns="http://www.w3.org/2000/svg"
     xmlns:sodipodi="http://sodipodi.sourceforge.net/DTD/sodipodi-0.dtd"
     xmlns:inkscape="http://www.inkscape.org/namespaces/inkscape"
     version="1.1"
     id="Calque_1"
     x="0px"
     y="0px"
     width="636.271px"
     height="636.27px"
     viewBox="0 0 636.271 636.27"
     enable-background="new 0 0 636.271 636.27"
     xml:space="preserve"
     sodipodi:docname="mapguide.svg"
     inkscape:version="0.92.2 5c3e80d, 2017-08-06"><title
         id="title11">osgeo-mapguide</title><metadata
         id="metadata9"><rdf:RDF><cc:Work
                 rdf:about=""><dc:format>image/svg+xml</dc:format><dc:type
                     rdf:resource="http://purl.org/dc/dcmitype/StillImage" /><dc:title>osgeo-mapguide</dc:title><dc:date>08-21-2018</dc:date><dc:creator><cc:Agent><dc:title>Nicolas Bozon</dc:title></cc:Agent></dc:creator><dc:rights><cc:Agent><dc:title>copyright OSGeo</dc:title></cc:Agent></dc:rights><dc:publisher><cc:Agent><dc:title>OSGeo</dc:title></cc:Agent></dc:publisher><dc:identifier>osgeo-mapguide</dc:identifier><dc:description>OSGeo MapGuide</dc:description><dc:contributor><cc:Agent><dc:title>OSGeo Marketing Committee</dc:title></cc:Agent></dc:contributor><cc:license
                     rdf:resource="http://creativecommons.org/licenses/by-sa/4.0/" /></cc:Work><cc:License
                 rdf:about="http://creativecommons.org/licenses/by-sa/4.0/"><cc:permits
                     rdf:resource="http://creativecommons.org/ns#Reproduction" /><cc:permits
                     rdf:resource="http://creativecommons.org/ns#Distribution" /><cc:requires
                     rdf:resource="http://creativecommons.org/ns#Notice" /><cc:requires
                     rdf:resource="http://creativecommons.org/ns#Attribution" /><cc:permits
                     rdf:resource="http://creativecommons.org/ns#DerivativeWorks" /><cc:requires
                     rdf:resource="http://creativecommons.org/ns#ShareAlike" /></cc:License></rdf:RDF></metadata><defs
         id="defs7" /><sodipodi:namedview
         pagecolor="#ffffff"
         bordercolor="#666666"
         borderopacity="1"
         objecttolerance="10"
         gridtolerance="10"
         guidetolerance="10"
         inkscape:pageopacity="0"
         inkscape:pageshadow="2"
         inkscape:window-width="640"
         inkscape:window-height="480"
         id="namedview5"
         showgrid="false"
         inkscape:zoom="0.37091171"
         inkscape:cx="318.1355"
         inkscape:cy="318.13501"
         inkscape:window-x="0"
         inkscape:window-y="0"
         inkscape:window-maximized="0"
         inkscape:current-layer="Calque_1" /><path
         d="M172.784,364.621c8.321-7.794-1.976-24.391-30.871-49.821c-30.973-12.743-49.899-24.743-56.792-36.047  c-6.892-11.293-10.319-24.528-10.319-39.717c0-0.458,0.021-0.96,0.114-1.475c-8.321,25.304-12.458,52.312-12.458,81.047  c0,70.783,24.996,131.197,74.988,181.178c20.72,20.734,43.236,37.182,67.569,49.364c-0.308-10.23-0.604-23.203-0.902-38.918  c-0.458-15.794-7.406-27.316-20.88-34.595c-13.557-7.307-25.214-12.061-35.009-14.243c-9.807-2.24-14.823-10.55-15.029-24.916  c-0.241-14.378,2.834-24.847,9.188-31.43c6.299-6.583,10.859-13.03,13.705-19.306C158.909,379.366,164.487,372.336,172.784,364.621z   M353.518,64.587c-11.384-1.428-23.03-2.126-34.917-2.126c-27.009,0-52.496,3.658-76.44,10.985c0.971,0.616,2.104,1.314,3.384,2.147  c6.878,4.698,13.051,9.566,18.514,14.584c17.499,16.082,26.266,32.024,26.266,47.821c0,4.559-5.246,17.531-15.728,38.927  c-10.184,20.733-16.904,32.826-20.208,36.256c-3.13,3.451-8.045,7.667-14.708,12.686c-6.949,5.246-11.772,9.234-14.481,12.013  c-4.413,4.411-5.828,12-4.252,22.779c0.662,4.788,0.708,8.286,0.113,10.446c-0.81,3.304-3.187,5.68-7.062,7.178  c-7.269-8.218-12.732-14.104-16.402-17.624c-6.434-6.195-13.703-9.315-21.784-9.315c-3.965,0-7.657,4.468-11.098,13.348  c-3.086,8.011-4.606,15.156-4.606,21.442c0,11.063,6.024,22.71,18.058,34.907c13.26,13.407,25.03,20.128,35.387,20.206  c10.308,0.069,16.48,0.411,18.513,0.994c1.922,0.605,11.636,0.823,29.065,0.686c17.443-0.159,30.597,6.48,39.51,19.878  c8.824,13.395,14.665,31.485,17.511,54.323c2.755,22.744-6.48,49.844-27.726,81.264c-10.401,16.685-17.91,29.074-22.562,37.156  c-6.596,11.669-11.338,22.184-14.264,31.566c20.572,5.145,42.242,7.716,64.999,7.716c70.783,0,131.197-25.019,181.178-75.081  c50.061-49.979,75.09-110.384,75.09-181.179c0-17.43-1.495-34.184-4.514-50.3c-2.617,4.811-4.584,8.068-5.943,9.783  c-2.389,3.143-5.452,4.71-9.199,4.71c-5.304,0-12.984-5.681-23.021-17.065c-10.4-11.819-18.457-18.092-24.115-18.858  c-3.018,2.994-4.502,6.744-4.502,11.234c0,7.463,2.676,14.104,8.068,19.854c2.033,2.171,7.944,6.902,17.751,14.149  c8.159,6.057,14.069,11.967,17.737,17.726c5.396,8.332,8.082,18.378,8.082,30.199c0,8.388-3.521,21.385-10.551,38.951  c-6.743,16.697-15.201,34.023-25.373,51.991c-10.629,18.71-20.756,33.9-30.413,45.557c-10.778,13.019-19.339,19.545-25.717,19.545  c-5.153,0-8.126-1.474-8.868-4.399c-0.08-0.217-0.116-4.377-0.116-12.447c0-8.31,2.241-19.911,6.744-34.803  c4.493-14.903,6.743-26.127,6.743-33.683c0-19.132-6.058-33.282-18.186-42.426c-7.861-5.979-21.258-11.108-40.195-15.371  c-20.219-4.63-33.568-8.939-40.082-12.915c-12.184-7.236-18.299-18.848-18.299-34.804c0-20.412,3.738-37.604,11.223-51.513  c8.904-16.538,21.625-24.802,38.174-24.802c2.836,0,8.801,1.109,17.842,3.36c9.121,2.24,15.533,3.36,19.201,3.36  c3.59,0,8.445-1.484,14.595-4.49c7.476-3.738,11.214-7.851,11.214-12.344c0-4.344-3.738-9.955-11.214-16.835  c-8.079-7.475-15.564-11.224-22.458-11.224c-8.239,0-22.172,6.73-41.878,20.208c-18.183,13.474-27.407,20.195-27.728,20.195  c-3.428,0-7.131-1.485-11.098-4.491c-4.57-3.36-6.857-7.11-6.857-11.224c0-30.827,8.596-51.811,25.818-62.965  c4.344-2.766,10.241-5.921,17.728-9.429c5.406-3.133,8.104-7.065,8.104-11.796c0-4.938-2.698-8.938-8.104-11.99  c-0.675-0.458-6.583-2.892-17.728-7.303c-8-3.223-13.919-6.915-17.748-11.12c-5.372-5.911-8.07-13.739-8.07-23.454  c0-0.582,2.435-3.485,7.303-8.653C350.81,67.091,352.239,65.698,353.518,64.587z M601.594,318.607  c0,78.119-27.65,144.809-82.967,200.036c-55.217,55.296-121.906,82.943-200.026,82.943c-78.121,0-144.834-27.647-200.14-82.943  C63.234,463.416,35.62,396.726,35.62,318.607c0-78.131,27.613-144.845,82.841-200.14c55.306-55.227,122.02-82.841,200.14-82.841  c78.12,0,144.809,27.614,200.026,82.841C573.944,173.762,601.594,240.476,601.594,318.607z"
         id="path2" /></svg>