<?xml version="1.0" encoding="UTF-8" standalone="no"?>
<svg
     xmlns:dc="http://purl.org/dc/elements/1.1/"
     xmlns:cc="http://creativecommons.org/ns#"
     xmlns:rdf="http://www.w3.org/1999/02/22-rdf-syntax-ns#"
     xmlns:svg="http://www.w3.org/2000/svg"
     xmlns="http://www.w3.org/2000/svg"
     xmlns:sodipodi="http://sodipodi.sourceforge.net/DTD/sodipodi-0.dtd"
     xmlns:inkscape="http://www.inkscape.org/namespaces/inkscape"
     version="1.1"
     id="Calque_1"
     x="0px"
     y="0px"
     width="703.688px"
     height="612.066px"
     viewBox="0 0 703.688 612.066"
     enable-background="new 0 0 703.688 612.066"
     xml:space="preserve"
     sodipodi:docname="marble.svg"
     inkscape:version="0.92.2 5c3e80d, 2017-08-06"><title
         id="title19">osgeo-marble</title><metadata
         id="metadata17"><rdf:RDF><cc:Work
                 rdf:about=""><dc:format>image/svg+xml</dc:format><dc:type
                     rdf:resource="http://purl.org/dc/dcmitype/StillImage" /><dc:title>osgeo-marble</dc:title><dc:date>08-21-2018</dc:date><dc:creator><cc:Agent><dc:title>Nicolas Bozon</dc:title></cc:Agent></dc:creator><dc:rights><cc:Agent><dc:title>copyright OSGeo</dc:title></cc:Agent></dc:rights><dc:publisher><cc:Agent><dc:title>OSGeo</dc:title></cc:Agent></dc:publisher><dc:identifier>osgeo-marble</dc:identifier><dc:description>OSGeo Marble</dc:description><dc:contributor><cc:Agent><dc:title>OSGeo MArketing Committee</dc:title></cc:Agent></dc:contributor><cc:license
                     rdf:resource="http://creativecommons.org/licenses/by-sa/4.0/" /></cc:Work><cc:License
                 rdf:about="http://creativecommons.org/licenses/by-sa/4.0/"><cc:permits
                     rdf:resource="http://creativecommons.org/ns#Reproduction" /><cc:permits
                     rdf:resource="http://creativecommons.org/ns#Distribution" /><cc:requires
                     rdf:resource="http://creativecommons.org/ns#Notice" /><cc:requires
                     rdf:resource="http://creativecommons.org/ns#Attribution" /><cc:permits
                     rdf:resource="http://creativecommons.org/ns#DerivativeWorks" /><cc:requires
                     rdf:resource="http://creativecommons.org/ns#ShareAlike" /></cc:License></rdf:RDF></metadata><defs
         id="defs15" /><sodipodi:namedview
         pagecolor="#ffffff"
         bordercolor="#666666"
         borderopacity="1"
         objecttolerance="10"
         gridtolerance="10"
         guidetolerance="10"
         inkscape:pageopacity="0"
         inkscape:pageshadow="2"
         inkscape:window-width="640"
         inkscape:window-height="480"
         id="namedview13"
         showgrid="false"
         inkscape:zoom="0.38557935"
         inkscape:cx="351.84399"
         inkscape:cy="306.03299"
         inkscape:window-x="0"
         inkscape:window-y="0"
         inkscape:window-maximized="0"
         inkscape:current-layer="Calque_1" /><g
         id="g10"><path
             fill="none"
             d="M214.891,204.233c1.518-0.629,3.073-1.222,4.61-1.829C217.964,203.011,216.41,203.602,214.891,204.233z"
             id="path2" /><path
             fill="none"
             d="M349.101,355.88c-16.981,0-30.768-9.384-30.768-20.946c0.108-2.615,0.516-10.874,0.633-18.652L214.891,204.233   c-55.912,23.139-98.368,59.801-117.441,103.281c17.042,86.412,125.291,153.095,256.314,153.095   c57.586,0,110.79-12.892,153.798-34.667l-135.064-77.427C366.858,353.014,358.473,355.88,349.101,355.88z"
             id="path4" /><path
             fill="none"
             d="M368.815,178.073c-3.445,0.353-6.932,0.599-10.5,0.599c-4.173,0-8.236-0.319-12.232-0.793   c-45.151,0.88-87.48,9.385-124.36,23.645l54.868,27.199l101.804,50.425l-0.058,0.003l0.066,0.035l138.672,141.698   c49.823-27.758,84.278-67.937,93.203-113.618C578.631,235.511,483.235,182.358,368.815,178.073z"
             id="path6" /><path
             d="M633.626,326.535c2.509-8.839,4.188-17.828,4.872-27.067c0.246-3.32,0.304-6.661,0.304-10.024   c0-3.36-0.058-6.705-0.304-10.024c-0.74-9.961-2.592-19.8-5.441-29.312c-0.95-3.167-2.007-6.303-3.178-9.416   c-2.344-6.221-5.117-12.258-8.314-18.225c-1.582-2.945-3.367-5.929-5.139-8.81c-0.025-0.035,0.02-0.117,0-0.151   c-1.766-2.851-3.643-5.664-5.607-8.436c-1.337-1.882-2.771-3.728-4.194-5.578c-0.671-0.871-1.297-1.762-1.983-2.624   c-2.848-3.573-5.905-7.049-9.057-10.486c-0.455-0.493-0.914-0.981-1.375-1.468c-1.357-1.456-2.683-2.937-4.096-4.368   c-2.312-2.341-4.656-4.711-7.1-6.992c11.262,10.169,21.38,21.171,30.312,32.896c1.411,1.852,2.867,3.674,4.215,5.566   c-7.156-11.378-16.013-22.193-26.122-32.332c-2.562-2.562-5.011-5.189-7.745-7.666c-10.918-9.875-23.294-19.083-36.754-27.367   c-0.037-0.022-0.113,0.022-0.152,0c-6.873-4.227-14.068-8.217-21.528-11.972c-7.157-3.598-14.562-6.983-22.212-10.131   c-0.044-0.017-0.107,0.016-0.152,0c-3.878-1.593-7.853-3.192-11.846-4.661c-0.045-0.017-0.107,0.016-0.152,0   c-12.117-4.456-24.723-8.335-37.816-11.578c-6.215-1.541-12.549-2.92-18.939-4.192c-0.055-0.148-0.131-0.288-0.188-0.44   c-9.494-25.135-39.734-43.54-75.682-43.531c-35.073,0.013-64.717,17.542-74.938,41.751c-0.117,0.275-0.26,0.538-0.374,0.812   c-0.829,0.146-1.679,0.256-2.513,0.405c-7.479,1.361-14.849,2.952-22.078,4.708c-4.613,1.124-9.15,2.348-13.654,3.622   c-1.974,0.563-3.967,1.111-5.923,1.7c-0.118,0.038-0.238,0.076-0.36,0.113c-44.977,13.618-83.839,34.916-112.977,61.541   c-2.733,2.499-5.3,5.154-7.858,7.745c-10.215,10.34-19.118,21.332-26.313,32.957c-0.022,0.035,0.02,0.117,0,0.151   c-8.979,14.536-15.607,29.942-19.202,46.018c-0.012,0.048,0.009,0.108,0,0.152c-0.709,3.177-1.339,6.345-1.816,9.568   c-0.007,0.05,0.006,0.101,0,0.151c-0.962,6.502-1.361,13.222-1.361,19.895c0,12.536,1.781,24.788,5.094,36.662   c-0.399,1.378-0.693,2.78-1.05,4.169c-2.632,10.434-4.113,21.133-4.113,32.077c0,3.816,0.215,7.596,0.542,11.354   c8.749,100.514,132.696,180.218,284.376,180.218c157.354,0,284.918-85.771,284.918-191.571c0-11.894-1.68-23.507-4.775-34.792   C633.781,327.217,633.721,326.874,633.626,326.535z M353.765,460.608c-131.024,0-239.272-66.683-256.314-153.095   c19.073-43.48,61.529-80.142,117.441-103.281c1.519-0.63,3.073-1.222,4.61-1.829c-1.537,0.607-3.092,1.2-4.61,1.829   l104.075,112.048c-0.117,7.778-0.525,16.037-0.633,18.652c0,11.562,13.786,20.946,30.768,20.946c9.372,0,17.756-2.865,23.397-7.365   l135.064,77.427C464.555,447.717,411.351,460.608,353.765,460.608z M517.074,420.884L378.403,279.186l-0.066-0.035l0.058-0.003   L276.59,228.722l-54.868-27.199c36.88-14.26,79.209-22.765,124.36-23.645c3.997,0.475,8.06,0.793,12.232,0.793   c3.568,0,7.055-0.246,10.5-0.599c114.42,4.285,209.816,57.438,241.463,129.192C601.353,352.947,566.898,393.126,517.074,420.884z"
             id="path8" /></g></svg>