<?xml version="1.0" encoding="UTF-8" standalone="no"?>
<svg
     xmlns:dc="http://purl.org/dc/elements/1.1/"
     xmlns:cc="http://creativecommons.org/ns#"
     xmlns:rdf="http://www.w3.org/1999/02/22-rdf-syntax-ns#"
     xmlns:svg="http://www.w3.org/2000/svg"
     xmlns="http://www.w3.org/2000/svg"
     xmlns:sodipodi="http://sodipodi.sourceforge.net/DTD/sodipodi-0.dtd"
     xmlns:inkscape="http://www.inkscape.org/namespaces/inkscape"
     version="1.1"
     id="Calque_1"
     x="0px"
     y="0px"
     width="595.279px"
     height="595.281px"
     viewBox="0 0 595.279 595.281"
     enable-background="new 0 0 595.279 595.281"
     xml:space="preserve"
     sodipodi:docname="openlayers.svg"
     inkscape:version="0.92.2 5c3e80d, 2017-08-06"><title
         id="title21">osgeo-openlayers</title><metadata
         id="metadata19"><rdf:RDF><cc:Work
                 rdf:about=""><dc:format>image/svg+xml</dc:format><dc:type
                     rdf:resource="http://purl.org/dc/dcmitype/StillImage" /><dc:title>osgeo-openlayers</dc:title><dc:date>08-21-2018</dc:date><dc:creator><cc:Agent><dc:title>Nicolas Bozon</dc:title></cc:Agent></dc:creator><dc:rights><cc:Agent><dc:title>copyright OSGeo</dc:title></cc:Agent></dc:rights><dc:publisher><cc:Agent><dc:title>OSGeo</dc:title></cc:Agent></dc:publisher><dc:identifier>osgeo-openlayers</dc:identifier><dc:description>OSGeo OpenLayers</dc:description><dc:contributor><cc:Agent><dc:title>OSGeo Marketing Committee</dc:title></cc:Agent></dc:contributor><cc:license
                     rdf:resource="http://creativecommons.org/licenses/by-sa/4.0/" /></cc:Work><cc:License
                 rdf:about="http://creativecommons.org/licenses/by-sa/4.0/"><cc:permits
                     rdf:resource="http://creativecommons.org/ns#Reproduction" /><cc:permits
                     rdf:resource="http://creativecommons.org/ns#Distribution" /><cc:requires
                     rdf:resource="http://creativecommons.org/ns#Notice" /><cc:requires
                     rdf:resource="http://creativecommons.org/ns#Attribution" /><cc:permits
                     rdf:resource="http://creativecommons.org/ns#DerivativeWorks" /><cc:requires
                     rdf:resource="http://creativecommons.org/ns#ShareAlike" /></cc:License></rdf:RDF></metadata><defs
         id="defs17" /><sodipodi:namedview
         pagecolor="#ffffff"
         bordercolor="#666666"
         borderopacity="1"
         objecttolerance="10"
         gridtolerance="10"
         guidetolerance="10"
         inkscape:pageopacity="0"
         inkscape:pageshadow="2"
         inkscape:window-width="640"
         inkscape:window-height="480"
         id="namedview15"
         showgrid="false"
         inkscape:zoom="0.39645142"
         inkscape:cx="297.6395"
         inkscape:cy="297.6405"
         inkscape:window-x="0"
         inkscape:window-y="0"
         inkscape:window-maximized="0"
         inkscape:current-layer="Calque_1" /><g
         id="g12"><path
             fill="none"
             d="M563.899,333.65c-0.07,0.115-0.141,0.23-0.211,0.345s-0.14,0.228-0.211,0.342s-0.143,0.228-0.215,0.341   c-0.071,0.114-0.144,0.228-0.216,0.341l-0.033,0.051l-0.031,0.051l-0.031,0.052l-0.035,0.051c-0.071,0.111-0.144,0.226-0.216,0.338   s-0.145,0.225-0.218,0.336c-0.072,0.113-0.146,0.226-0.221,0.338c-0.072,0.111-0.146,0.223-0.22,0.335   c-0.007,0.009-0.015,0.019-0.02,0.028c-0.007,0.01-0.013,0.02-0.019,0.029c-0.007,0.009-0.013,0.02-0.02,0.029   c-0.006,0.009-0.012,0.018-0.02,0.026c-0.248,0.374-0.5,0.745-0.756,1.116c-0.256,0.369-0.514,0.736-0.773,1.104   c-0.262,0.365-0.525,0.729-0.791,1.091c-0.268,0.362-0.537,0.72-0.809,1.078c-0.094,0.122-0.188,0.245-0.282,0.366   s-0.188,0.243-0.283,0.365c-0.095,0.123-0.19,0.244-0.285,0.364c-0.095,0.122-0.19,0.243-0.286,0.366   c-0.006,0.007-0.011,0.014-0.017,0.021c-0.005,0.008-0.011,0.014-0.017,0.021s-0.012,0.014-0.016,0.021   c-0.008,0.008-0.012,0.013-0.018,0.021c-0.287,0.36-0.576,0.719-0.868,1.074c-0.292,0.356-0.587,0.709-0.885,1.06   s-0.597,0.7-0.899,1.047c-0.303,0.346-0.609,0.691-0.918,1.033l-0.009,0.01l-0.009,0.011l-0.012,0.011l-0.009,0.01   c-0.524,0.582-1.058,1.158-1.599,1.727c-0.539,0.57-1.086,1.133-1.641,1.689c-0.554,0.556-1.114,1.104-1.682,1.645   c-0.568,0.541-1.142,1.076-1.723,1.604c-0.238,0.216-0.475,0.43-0.714,0.643c-0.238,0.213-0.479,0.424-0.72,0.635   c-0.239,0.211-0.482,0.42-0.725,0.629c-0.243,0.208-0.486,0.415-0.731,0.62l-42.141,35.362l-42.14,35.361l-42.14,35.361   L375.93,497.51c-4.966,4.168-10.341,7.867-16.048,11.072c-5.705,3.207-11.742,5.918-18.036,8.107s-12.843,3.857-19.572,4.979   c-6.729,1.121-13.637,1.695-20.65,1.695h-0.001l0,0l0,0l0,0c-6.942,0-13.784-0.564-20.45-1.666   c-6.667-1.101-13.158-2.74-19.4-4.892s-12.232-4.815-17.899-7.964c-5.666-3.15-11.006-6.785-15.946-10.88l-42.853-35.521   l-42.852-35.521L99.369,391.4L56.516,355.88c-0.245-0.204-0.487-0.407-0.73-0.613c-0.244-0.205-0.486-0.412-0.727-0.622   c-0.241-0.207-0.48-0.416-0.72-0.625c-0.238-0.211-0.476-0.422-0.713-0.635c-0.01-0.01-0.021-0.02-0.033-0.03   c-0.01-0.01-0.021-0.019-0.032-0.029c-0.01-0.009-0.021-0.018-0.032-0.028c-0.01-0.01-0.021-0.021-0.031-0.029   c-0.352-0.316-0.701-0.635-1.046-0.955c-0.346-0.321-0.69-0.645-1.031-0.971s-0.68-0.654-1.016-0.986   c-0.337-0.331-0.67-0.664-1.002-1.002c-0.007-0.006-0.014-0.013-0.021-0.02c-0.007-0.008-0.014-0.016-0.022-0.023   c-0.007-0.008-0.015-0.015-0.021-0.021c-0.008-0.008-0.015-0.017-0.022-0.023c-0.099-0.1-0.196-0.199-0.292-0.299   c-0.098-0.1-0.195-0.199-0.292-0.299c-0.096-0.101-0.192-0.201-0.289-0.303c-0.096-0.1-0.191-0.201-0.287-0.303   c-0.019-0.02-0.038-0.039-0.056-0.059c-0.019-0.019-0.038-0.039-0.057-0.059c-0.02-0.02-0.038-0.039-0.056-0.06   c-0.019-0.02-0.038-0.04-0.055-0.06c-0.088-0.094-0.176-0.188-0.264-0.281c-0.088-0.094-0.175-0.188-0.262-0.281   c-0.087-0.094-0.174-0.188-0.261-0.281s-0.172-0.189-0.258-0.283l-0.05-0.055l-0.05-0.055l-0.049-0.055l-0.05-0.054   c-0.203-0.224-0.405-0.45-0.605-0.677c-0.202-0.227-0.401-0.455-0.601-0.684c-0.199-0.229-0.396-0.459-0.593-0.689   c-0.197-0.23-0.393-0.463-0.588-0.695c-0.011-0.014-0.021-0.025-0.033-0.039c-0.01-0.012-0.021-0.026-0.032-0.039   c-0.011-0.014-0.021-0.027-0.032-0.04s-0.021-0.024-0.032-0.039c-0.083-0.1-0.166-0.198-0.249-0.3   c-0.083-0.099-0.165-0.2-0.247-0.301c-0.082-0.1-0.164-0.2-0.245-0.301c-0.082-0.102-0.163-0.202-0.245-0.303l-0.063-0.08   l-0.063-0.078l-0.063-0.078l-0.063-0.08c-0.073-0.092-0.145-0.184-0.217-0.275s-0.145-0.184-0.217-0.275   c-0.072-0.094-0.144-0.185-0.215-0.277c-0.072-0.092-0.144-0.185-0.215-0.277c-0.02-0.026-0.04-0.052-0.06-0.078   c-0.02-0.025-0.04-0.051-0.06-0.076c-0.019-0.027-0.039-0.053-0.059-0.078c-0.02-0.025-0.039-0.053-0.06-0.078   c-0.083-0.11-0.167-0.221-0.251-0.332c-0.084-0.11-0.168-0.222-0.25-0.334c-0.083-0.111-0.167-0.221-0.25-0.332   s-0.165-0.223-0.247-0.335c-0.093-0.126-0.185-0.252-0.276-0.379c-0.092-0.126-0.183-0.253-0.274-0.38   c-0.092-0.127-0.182-0.254-0.272-0.381c-0.09-0.128-0.18-0.256-0.269-0.383c-0.011-0.018-0.022-0.033-0.035-0.05   c-0.011-0.017-0.022-0.032-0.034-0.05c-0.011-0.017-0.022-0.033-0.034-0.049c-0.011-0.017-0.022-0.033-0.034-0.051   c-0.071-0.1-0.143-0.201-0.213-0.303c-0.069-0.103-0.14-0.205-0.209-0.307c-0.07-0.103-0.139-0.205-0.208-0.307   s-0.138-0.205-0.207-0.307l-0.063-0.097l-0.064-0.095l-0.063-0.095l-0.063-0.096c-0.06-0.09-0.12-0.181-0.179-0.272   c-0.06-0.09-0.119-0.18-0.178-0.271c-0.06-0.091-0.119-0.182-0.178-0.271c-0.058-0.092-0.117-0.182-0.175-0.273   c-0.021-0.032-0.042-0.065-0.063-0.098c-0.021-0.032-0.042-0.064-0.062-0.098c-0.022-0.033-0.042-0.066-0.063-0.099   s-0.041-0.065-0.062-0.099c-0.064-0.102-0.129-0.204-0.194-0.307c-0.064-0.104-0.128-0.206-0.191-0.307   c-0.063-0.104-0.127-0.206-0.19-0.309c-0.063-0.102-0.126-0.205-0.188-0.307c-0.01-0.016-0.02-0.032-0.029-0.047   c-0.009-0.016-0.02-0.031-0.029-0.045c-0.009-0.016-0.019-0.031-0.029-0.045c-0.009-0.017-0.019-0.031-0.028-0.047   c-0.142,1.958-0.193,3.921-0.154,5.883c0.038,1.961,0.167,3.921,0.385,5.875c0.218,1.957,0.528,3.905,0.927,5.846   c0.398,1.938,0.888,3.867,1.467,5.779c1.018,3.361,2.31,6.652,3.862,9.854c1.551,3.199,3.364,6.31,5.421,9.309   c2.057,2.999,4.359,5.887,6.895,8.643c2.534,2.756,5.3,5.379,8.283,7.852l42.853,35.521l42.853,35.521l42.853,35.523l42.852,35.521   c4.432,3.675,9.23,6.936,14.329,9.761s10.496,5.214,16.123,7.145c5.629,1.93,11.488,3.4,17.512,4.389s12.209,1.494,18.49,1.494   h0.002h0.002h0.003h0.002c6.345,0,12.591-0.514,18.669-1.52c6.08-1.006,11.99-2.504,17.664-4.469   c5.676-1.964,11.113-4.396,16.248-7.271c5.133-2.877,9.963-6.196,14.419-9.936l42.14-35.361l42.14-35.361l42.14-35.361   l42.141-35.359c2.951-2.478,5.689-5.105,8.195-7.861c2.508-2.758,4.787-5.645,6.82-8.639c2.033-2.995,3.824-6.1,5.355-9.291   c1.533-3.191,2.809-6.471,3.811-9.818l0,0l0,0h0.002v-0.002c0.567-1.896,1.047-3.809,1.438-5.73   c0.39-1.922,0.694-3.855,0.907-5.793c0.213-1.939,0.339-3.882,0.377-5.827c0.037-1.943-0.014-3.889-0.153-5.829l-0.013,0.02   l-0.011,0.019l-0.011,0.019L563.899,333.65z"
             id="path2" /><path
             fill="none"
             d="M36.51,293.058c0.011,1.709,0.088,3.416,0.234,5.12c0.147,1.704,0.363,3.407,0.647,5.104   c0.285,1.697,0.639,3.389,1.062,5.072c0.422,1.685,0.914,3.361,1.475,5.027c-0.561-1.666-1.053-3.343-1.475-5.027   c-0.423-1.686-0.776-3.377-1.061-5.073s-0.5-3.399-0.647-5.104C36.598,296.472,36.521,294.765,36.51,293.058z"
             id="path4" /><path
             fill="none"
             d="M552.314,298.933c-0.834,1.014-1.699,2.018-2.594,3.008c-0.896,0.989-1.82,1.965-2.776,2.928   s-1.941,1.912-2.958,2.848c-1.016,0.934-2.062,1.853-3.141,2.758l-42.139,35.361l-42.139,35.363l-42.141,35.362l-42.14,35.363   c-9.085,7.624-19.503,13.472-30.63,17.539c-11.127,4.069-22.965,6.36-34.891,6.87c-11.925,0.511-23.939-0.759-35.419-3.811   c-11.48-3.053-22.428-7.887-32.219-14.506c-0.654-0.441-1.302-0.892-1.945-1.35c-0.642-0.457-1.28-0.923-1.911-1.395   c-0.631-0.475-1.256-0.955-1.876-1.443s-1.233-0.984-1.841-1.488l-42.852-35.519l-42.853-35.519l-42.853-35.52l-42.853-35.518   c-1.116-0.926-2.199-1.865-3.249-2.822c-1.051-0.957-2.069-1.931-3.055-2.917c-0.986-0.987-1.941-1.989-2.862-3.005   c-0.923-1.016-1.813-2.045-2.672-3.088c-1.071-1.123-2.108-2.269-3.112-3.436c-1.003-1.164-1.973-2.352-2.908-3.557   c-0.935-1.205-1.834-2.431-2.699-3.672c-0.864-1.242-1.693-2.501-2.484-3.777c-0.088,0.64-0.166,1.281-0.234,1.921   c-0.068,0.642-0.127,1.283-0.175,1.924c-0.05,0.642-0.088,1.284-0.118,1.926c-0.029,0.642-0.05,1.286-0.059,1.929   c0.025,1.658,0.114,3.316,0.269,4.971c0.155,1.656,0.373,3.309,0.656,4.954c0.284,1.648,0.634,3.29,1.047,4.925   c0.413,1.637,0.892,3.263,1.437,4.881c1.068,3.176,2.384,6.287,3.935,9.312c1.551,3.027,3.335,5.971,5.34,8.811   c2.004,2.84,4.23,5.576,6.661,8.189c2.432,2.613,5.07,5.104,7.9,7.451l42.853,35.52l42.852,35.521l42.854,35.521l42.852,35.52   c4.432,3.674,9.229,6.936,14.328,9.76c5.097,2.825,10.495,5.215,16.122,7.146c5.629,1.931,11.487,3.401,17.51,4.39   c6.022,0.986,12.208,1.494,18.49,1.494c6.346,0.001,12.594-0.515,18.674-1.521c6.08-1.004,11.991-2.502,17.668-4.467   c5.676-1.966,11.115-4.398,16.25-7.273s9.964-6.195,14.421-9.936l42.139-35.361l42.141-35.362l42.14-35.361l42.139-35.362   c2.787-2.338,5.385-4.814,7.781-7.412c2.396-2.598,4.59-5.316,6.566-8.134c1.977-2.819,3.738-5.739,5.27-8.74   c1.532-3.001,2.834-6.083,3.892-9.228v0.002l0,0v0.002l0,0c0.544-1.619,1.022-3.251,1.438-4.887   c0.413-1.637,0.763-3.281,1.047-4.93c0.283-1.65,0.503-3.304,0.657-4.959c0.154-1.656,0.244-3.316,0.27-4.976   c-0.011-0.642-0.029-1.284-0.059-1.925c-0.029-0.643-0.069-1.283-0.118-1.924c-0.048-0.641-0.106-1.28-0.175-1.92   c-0.068-0.641-0.147-1.28-0.234-1.919c-0.793,1.279-1.622,2.541-2.487,3.785c-0.864,1.246-1.766,2.472-2.702,3.68   c-0.935,1.207-1.904,2.396-2.91,3.562C554.424,296.66,553.386,297.807,552.314,298.933z"
             id="path6" /><path
             fill="none"
             d="M235.175,489.226c4.432,3.674,9.229,6.936,14.328,9.76c5.097,2.826,10.494,5.215,16.122,7.145   c5.628,1.93,11.486,3.4,17.509,4.39c6.022,0.987,12.208,1.493,18.489,1.493c-6.281,0-12.467-0.507-18.489-1.495   c-6.021-0.987-11.881-2.458-17.509-4.388c-5.627-1.932-11.025-4.32-16.122-7.146C244.405,496.16,239.607,492.899,235.175,489.226z"
             id="path8" /><path
             d="M570.535,266.27L570.535,266.27L570.535,266.27L570.535,266.27h0.002l-0.381-1.011l-0.379-1.013l-0.381-1.01l-0.381-1.012   c0.92-6.151,1.015-12.37,0.288-18.534c-0.728-6.162-2.28-12.27-4.656-18.196c-2.376-5.926-5.575-11.671-9.601-17.111   c-4.025-5.439-8.875-10.574-14.549-15.279l-42.855-35.522l-42.855-35.521L411.929,86.54l-42.855-35.522   c-9.74-8.073-20.982-14.116-32.975-18.131c-11.991-4.014-24.73-6.001-37.464-5.962c-12.734,0.039-25.462,2.103-37.428,6.191   c-11.966,4.088-23.171,10.199-32.861,18.332l-42.14,35.361l-42.14,35.361l-42.141,35.361l-42.14,35.361   c-5.615,4.712-10.412,9.844-14.392,15.273c-3.979,5.43-7.142,11.157-9.488,17.059c-2.347,5.903-3.877,11.98-4.593,18.11   c-0.715,6.13-0.616,12.313,0.298,18.428l-0.38,1.014l-0.381,1.014l-0.38,1.013l-0.381,1.014c-1.509,4.018-2.673,8.096-3.49,12.206   c-0.818,4.111-1.29,8.255-1.417,12.404c-0.125,4.148,0.095,8.305,0.662,12.44c0.566,4.136,1.48,8.25,2.74,12.319   c-2.382,7.686-3.506,15.494-3.433,23.229c0.074,7.735,1.344,15.398,3.752,22.795c2.409,7.397,5.954,14.531,10.576,21.205   c4.623,6.673,10.323,12.89,17.039,18.455l42.853,35.521l42.853,35.522l42.853,35.521l42.853,35.521   c4.939,4.096,10.281,7.729,15.946,10.879c5.667,3.148,11.658,5.812,17.9,7.963c6.242,2.15,12.734,3.791,19.4,4.893   s13.508,1.666,20.45,1.668h0.002h0.003h0.002h0.001c7.012,0,13.921-0.574,20.648-1.695c6.729-1.121,13.277-2.789,19.569-4.979   s12.331-4.9,18.036-8.105c5.706-3.205,11.08-6.906,16.047-11.072l42.137-35.361l42.139-35.361l42.138-35.361l42.138-35.361   c6.64-5.571,12.273-11.784,16.84-18.449c4.566-6.663,8.066-13.777,10.443-21.15c2.375-7.373,3.625-15.002,3.689-22.699   c0.064-7.696-1.057-15.458-3.42-23.094c1.262-4.072,2.176-8.191,2.744-12.331c0.567-4.138,0.787-8.298,0.661-12.45   s-0.599-8.298-1.417-12.41C573.211,274.366,572.046,270.287,570.535,266.27z M561.377,356.754v0.002h-0.002l0,0l0,0   c-1.002,3.348-2.277,6.627-3.811,9.818c-1.531,3.191-3.322,6.296-5.355,9.291c-2.033,2.994-4.312,5.881-6.82,8.639   c-2.506,2.756-5.244,5.384-8.195,7.861l-42.141,35.359l-42.14,35.361l-42.14,35.361l-42.14,35.361   c-4.456,3.739-9.286,7.059-14.419,9.936c-5.135,2.876-10.572,5.308-16.248,7.271c-5.674,1.965-11.584,3.463-17.664,4.469   c-6.078,1.006-12.324,1.52-18.669,1.52h-0.002h-0.003h-0.002h-0.002c-6.281,0-12.467-0.506-18.49-1.494s-11.883-2.459-17.512-4.389   c-5.627-1.931-11.025-4.319-16.123-7.145s-9.897-6.086-14.329-9.761l-42.852-35.521l-42.853-35.523l-42.853-35.521L63.76,392.129   c-2.983-2.473-5.749-5.096-8.283-7.852c-2.535-2.756-4.837-5.644-6.895-8.643c-2.058-2.999-3.87-6.109-5.421-9.309   c-1.552-3.201-2.844-6.492-3.862-9.854c-0.579-1.912-1.068-3.842-1.467-5.779c-0.399-1.94-0.709-3.889-0.927-5.846   c-0.219-1.954-0.347-3.914-0.385-5.875c-0.039-1.962,0.013-3.925,0.154-5.883c0.01,0.016,0.019,0.03,0.028,0.047   c0.01,0.014,0.02,0.029,0.029,0.045c0.01,0.014,0.02,0.029,0.029,0.045c0.009,0.015,0.019,0.031,0.029,0.047   c0.062,0.102,0.125,0.205,0.188,0.307c0.063,0.103,0.127,0.205,0.19,0.309c0.063,0.101,0.127,0.203,0.191,0.307   c0.064,0.103,0.129,0.205,0.194,0.307c0.021,0.033,0.042,0.066,0.062,0.099s0.041,0.065,0.063,0.099   c0.021,0.033,0.041,0.065,0.062,0.098c0.021,0.032,0.042,0.065,0.063,0.098c0.058,0.092,0.117,0.182,0.175,0.273   c0.059,0.09,0.118,0.181,0.178,0.271c0.059,0.092,0.118,0.182,0.178,0.271c0.059,0.092,0.119,0.183,0.179,0.272l0.063,0.096   l0.063,0.095l0.064,0.095l0.063,0.097c0.069,0.102,0.138,0.205,0.207,0.307s0.138,0.204,0.208,0.307   c0.069,0.102,0.14,0.204,0.209,0.307c0.07,0.102,0.142,0.203,0.213,0.303c0.011,0.018,0.022,0.034,0.034,0.051   c0.011,0.016,0.022,0.032,0.034,0.049c0.012,0.018,0.023,0.033,0.034,0.05c0.012,0.017,0.023,0.032,0.035,0.05   c0.089,0.127,0.179,0.255,0.269,0.383c0.091,0.127,0.181,0.254,0.272,0.381c0.091,0.127,0.182,0.254,0.274,0.38   c0.092,0.127,0.184,0.253,0.276,0.379c0.082,0.112,0.164,0.224,0.247,0.335s0.166,0.221,0.25,0.332   c0.083,0.112,0.166,0.224,0.25,0.334c0.083,0.111,0.167,0.222,0.251,0.332c0.021,0.025,0.041,0.053,0.06,0.078   c0.02,0.025,0.041,0.051,0.059,0.078c0.021,0.025,0.041,0.051,0.06,0.076c0.021,0.026,0.041,0.052,0.06,0.078   c0.071,0.093,0.143,0.186,0.215,0.277c0.071,0.093,0.143,0.184,0.215,0.277c0.072,0.092,0.145,0.184,0.217,0.275   s0.144,0.184,0.217,0.275l0.063,0.08l0.063,0.078l0.063,0.078l0.063,0.08c0.082,0.101,0.163,0.201,0.245,0.303   c0.081,0.101,0.163,0.201,0.245,0.301c0.082,0.101,0.164,0.202,0.247,0.301c0.083,0.102,0.165,0.2,0.249,0.3   c0.01,0.015,0.021,0.026,0.032,0.039s0.021,0.026,0.032,0.04c0.01,0.013,0.021,0.027,0.032,0.039   c0.012,0.014,0.022,0.025,0.033,0.039c0.195,0.232,0.391,0.465,0.588,0.695c0.197,0.23,0.395,0.461,0.593,0.689   c0.2,0.229,0.399,0.457,0.601,0.684c0.2,0.227,0.403,0.453,0.605,0.677l0.05,0.054l0.049,0.055l0.05,0.055l0.05,0.055   c0.085,0.094,0.171,0.189,0.258,0.283s0.173,0.188,0.261,0.281c0.087,0.094,0.174,0.188,0.262,0.281   c0.087,0.094,0.175,0.188,0.264,0.281c0.018,0.02,0.037,0.04,0.055,0.06c0.018,0.021,0.037,0.04,0.056,0.06   c0.019,0.02,0.038,0.04,0.057,0.059c0.019,0.02,0.037,0.039,0.056,0.059c0.096,0.102,0.191,0.203,0.287,0.303   c0.097,0.102,0.193,0.202,0.289,0.303c0.096,0.1,0.194,0.199,0.292,0.299c0.096,0.1,0.194,0.199,0.292,0.299   c0.007,0.007,0.015,0.016,0.022,0.023c0.006,0.007,0.014,0.014,0.021,0.021c0.008,0.008,0.015,0.016,0.022,0.023   c0.007,0.007,0.014,0.014,0.021,0.02c0.332,0.338,0.666,0.671,1.002,1.002c0.336,0.332,0.675,0.66,1.016,0.986   s0.686,0.649,1.031,0.971c0.346,0.32,0.695,0.639,1.046,0.955c0.01,0.009,0.021,0.02,0.031,0.029   c0.011,0.011,0.021,0.02,0.032,0.028c0.011,0.011,0.022,0.02,0.032,0.029c0.011,0.011,0.022,0.021,0.033,0.03   c0.237,0.213,0.475,0.424,0.713,0.635c0.24,0.209,0.479,0.418,0.72,0.625c0.241,0.21,0.482,0.417,0.727,0.622   c0.243,0.206,0.485,0.409,0.73,0.613L99.369,391.4l42.854,35.521l42.852,35.521l42.853,35.521c4.94,4.095,10.28,7.729,15.946,10.88   c5.667,3.148,11.657,5.812,17.899,7.964s12.733,3.791,19.4,4.892c6.667,1.102,13.508,1.666,20.45,1.666l0,0l0,0l0,0h0.001   c7.014,0,13.922-0.574,20.65-1.695c6.729-1.121,13.278-2.789,19.572-4.979s12.331-4.9,18.036-8.107   c5.707-3.205,11.082-6.904,16.048-11.072l42.141-35.361l42.14-35.361l42.14-35.361l42.141-35.362   c0.245-0.205,0.488-0.412,0.731-0.62c0.242-0.209,0.485-0.418,0.725-0.629c0.24-0.211,0.481-0.422,0.72-0.635   c0.239-0.213,0.476-0.427,0.714-0.643c0.581-0.527,1.154-1.062,1.723-1.604c0.567-0.541,1.128-1.089,1.682-1.645   c0.555-0.557,1.102-1.119,1.641-1.689c0.541-0.568,1.074-1.145,1.599-1.727l0.009-0.01l0.012-0.011l0.009-0.011l0.009-0.01   c0.309-0.342,0.615-0.688,0.918-1.033c0.303-0.347,0.602-0.696,0.899-1.047s0.593-0.703,0.885-1.06   c0.292-0.355,0.581-0.714,0.868-1.074c0.006-0.008,0.01-0.013,0.018-0.021c0.004-0.008,0.01-0.014,0.016-0.021   s0.012-0.014,0.017-0.021c0.006-0.008,0.011-0.015,0.017-0.021c0.096-0.123,0.191-0.244,0.286-0.366   c0.095-0.12,0.19-0.241,0.285-0.364c0.095-0.122,0.189-0.244,0.283-0.365s0.188-0.244,0.282-0.366   c0.271-0.358,0.541-0.716,0.809-1.078c0.266-0.362,0.529-0.726,0.791-1.091c0.26-0.367,0.518-0.734,0.773-1.104   c0.256-0.371,0.508-0.742,0.756-1.116c0.008-0.009,0.014-0.018,0.02-0.026c0.007-0.01,0.013-0.021,0.02-0.029   c0.006-0.01,0.012-0.02,0.019-0.029c0.005-0.01,0.013-0.02,0.02-0.028c0.073-0.112,0.147-0.224,0.22-0.335   c0.074-0.112,0.148-0.225,0.221-0.338c0.073-0.111,0.146-0.224,0.218-0.336s0.145-0.227,0.216-0.338l0.035-0.051l0.031-0.052   l0.031-0.051l0.033-0.051c0.072-0.113,0.145-0.227,0.216-0.341c0.072-0.113,0.144-0.227,0.215-0.341s0.141-0.228,0.211-0.342   s0.141-0.229,0.211-0.345l0.013-0.02l0.011-0.019l0.011-0.019l0.013-0.02c0.14,1.94,0.19,3.886,0.153,5.829   c-0.038,1.945-0.164,3.888-0.377,5.827c-0.213,1.938-0.518,3.871-0.907,5.793C562.424,352.945,561.944,354.857,561.377,356.754z    M36.51,293.058c0.011,1.707,0.088,3.414,0.235,5.12c0.146,1.704,0.363,3.407,0.647,5.104s0.638,3.388,1.061,5.073   c0.422,1.685,0.914,3.361,1.475,5.027c-0.561-1.666-1.053-3.343-1.475-5.027c-0.423-1.684-0.776-3.375-1.062-5.072   c-0.284-1.697-0.5-3.4-0.647-5.104C36.598,296.474,36.521,294.767,36.51,293.058z M235.175,489.226   c4.432,3.673,9.229,6.934,14.328,9.759c5.097,2.825,10.495,5.214,16.122,7.146c5.628,1.93,11.487,3.4,17.509,4.388   c6.022,0.988,12.208,1.495,18.489,1.495c-6.281,0-12.467-0.506-18.489-1.493c-6.022-0.989-11.881-2.46-17.509-4.39   c-5.628-1.93-11.025-4.318-16.122-7.145C244.405,496.162,239.607,492.9,235.175,489.226z M560.702,311.902L560.702,311.902V311.9   l0,0v-0.002c-1.058,3.145-2.359,6.227-3.892,9.228c-1.531,3.001-3.293,5.921-5.27,8.74c-1.977,2.817-4.171,5.536-6.566,8.134   c-2.396,2.598-4.994,5.074-7.781,7.412l-42.139,35.362l-42.14,35.361l-42.141,35.362l-42.139,35.361   c-4.457,3.74-9.286,7.061-14.421,9.936s-10.574,5.308-16.25,7.273c-5.677,1.965-11.588,3.463-17.668,4.467   c-6.08,1.007-12.328,1.522-18.674,1.521c-6.282,0-12.468-0.508-18.49-1.494c-6.022-0.988-11.881-2.459-17.51-4.39   c-5.627-1.931-11.025-4.32-16.122-7.146c-5.098-2.824-9.896-6.086-14.328-9.76l-42.852-35.52l-42.854-35.521l-42.852-35.521   l-42.853-35.52c-2.831-2.348-5.468-4.838-7.9-7.451c-2.431-2.613-4.657-5.35-6.661-8.189c-2.005-2.84-3.789-5.783-5.34-8.811   c-1.551-3.025-2.867-6.137-3.935-9.312c-0.545-1.618-1.024-3.244-1.437-4.881c-0.414-1.635-0.763-3.276-1.047-4.925   c-0.283-1.646-0.501-3.298-0.656-4.954c-0.155-1.654-0.244-3.312-0.269-4.971c0.009-0.643,0.03-1.287,0.059-1.929   c0.03-0.642,0.068-1.284,0.118-1.926c0.048-0.641,0.107-1.282,0.175-1.924c0.068-0.64,0.146-1.281,0.234-1.921   c0.791,1.276,1.62,2.535,2.484,3.777c0.864,1.241,1.764,2.467,2.699,3.672c0.935,1.205,1.905,2.393,2.908,3.557   c1.003,1.167,2.041,2.312,3.112,3.436c0.858,1.043,1.749,2.072,2.672,3.088c0.921,1.016,1.876,2.018,2.862,3.005   c0.986,0.986,2.004,1.96,3.055,2.917c1.05,0.957,2.133,1.896,3.249,2.822l42.853,35.518l42.853,35.52l42.853,35.519l42.852,35.519   c0.608,0.504,1.222,1,1.841,1.488s1.245,0.969,1.876,1.443c0.631,0.472,1.269,0.938,1.911,1.395   c0.643,0.458,1.291,0.908,1.945,1.35c9.792,6.619,20.739,11.453,32.219,14.506c11.479,3.052,23.494,4.321,35.419,3.811   c11.926-0.51,23.764-2.801,34.891-6.87c11.127-4.067,21.545-9.915,30.63-17.539l42.14-35.363l42.141-35.362l42.139-35.363   l42.139-35.361c1.078-0.905,2.125-1.824,3.141-2.758c1.017-0.936,2.002-1.885,2.958-2.848s1.881-1.938,2.776-2.928   c0.895-0.99,1.76-1.994,2.594-3.008c1.072-1.126,2.109-2.273,3.113-3.443c1.006-1.166,1.976-2.355,2.91-3.562   c0.937-1.208,1.838-2.434,2.702-3.68c0.865-1.245,1.694-2.506,2.487-3.785c0.087,0.64,0.166,1.279,0.234,1.919   c0.068,0.64,0.127,1.279,0.175,1.92c0.049,0.641,0.089,1.281,0.118,1.924c0.029,0.641,0.048,1.283,0.059,1.925   c-0.025,1.659-0.115,3.319-0.27,4.976c-0.154,1.655-0.374,3.309-0.657,4.959c-0.284,1.648-0.634,3.293-1.047,4.93   C561.724,308.651,561.246,310.283,560.702,311.902z"
             id="path10" /></g></svg>