<?xml version="1.0" encoding="UTF-8" standalone="no"?>
<svg
     xmlns:dc="http://purl.org/dc/elements/1.1/"
     xmlns:cc="http://creativecommons.org/ns#"
     xmlns:rdf="http://www.w3.org/1999/02/22-rdf-syntax-ns#"
     xmlns:svg="http://www.w3.org/2000/svg"
     xmlns="http://www.w3.org/2000/svg"
     xmlns:sodipodi="http://sodipodi.sourceforge.net/DTD/sodipodi-0.dtd"
     xmlns:inkscape="http://www.inkscape.org/namespaces/inkscape"
     version="1.1"
     id="Calque_1"
     x="0px"
     y="0px"
     width="740.691px"
     height="563.783px"
     viewBox="0 0 740.691 563.783"
     enable-background="new 0 0 740.691 563.783"
     xml:space="preserve"
     sodipodi:docname="orfeotoolbox.svg"
     inkscape:version="0.92.2 5c3e80d, 2017-08-06"><title
         id="title11">osgeo-orfeotoolbox</title><metadata
         id="metadata9"><rdf:RDF><cc:Work
                 rdf:about=""><dc:format>image/svg+xml</dc:format><dc:type
                     rdf:resource="http://purl.org/dc/dcmitype/StillImage" /><dc:title>osgeo-orfeotoolbox</dc:title><dc:date>08-21-2018</dc:date><dc:creator><cc:Agent><dc:title>Nicolas Bozon</dc:title></cc:Agent></dc:creator><dc:rights><cc:Agent><dc:title>copyright OSGeo</dc:title></cc:Agent></dc:rights><dc:publisher><cc:Agent><dc:title>OSGeo</dc:title></cc:Agent></dc:publisher><dc:identifier>osgeo-orfeotoolbox</dc:identifier><dc:description>OSGeo Orfeo Toolbox</dc:description><dc:contributor><cc:Agent><dc:title>OSGeo Marketing Committee</dc:title></cc:Agent></dc:contributor><cc:license
                     rdf:resource="http://creativecommons.org/licenses/by-sa/4.0/" /></cc:Work><cc:License
                 rdf:about="http://creativecommons.org/licenses/by-sa/4.0/"><cc:permits
                     rdf:resource="http://creativecommons.org/ns#Reproduction" /><cc:permits
                     rdf:resource="http://creativecommons.org/ns#Distribution" /><cc:requires
                     rdf:resource="http://creativecommons.org/ns#Notice" /><cc:requires
                     rdf:resource="http://creativecommons.org/ns#Attribution" /><cc:permits
                     rdf:resource="http://creativecommons.org/ns#DerivativeWorks" /><cc:requires
                     rdf:resource="http://creativecommons.org/ns#ShareAlike" /></cc:License></rdf:RDF></metadata><defs
         id="defs7" /><sodipodi:namedview
         pagecolor="#ffffff"
         bordercolor="#666666"
         borderopacity="1"
         objecttolerance="10"
         gridtolerance="10"
         guidetolerance="10"
         inkscape:pageopacity="0"
         inkscape:pageshadow="2"
         inkscape:window-width="640"
         inkscape:window-height="480"
         id="namedview5"
         showgrid="false"
         inkscape:zoom="0.41860076"
         inkscape:cx="370.34549"
         inkscape:cy="281.89151"
         inkscape:window-x="0"
         inkscape:window-y="0"
         inkscape:window-maximized="0"
         inkscape:current-layer="Calque_1" /><path
         fill="#010101"
         d="M696.345,275.84c-2.766-25.061-11.854-47.729-29.279-66.321c-14.051-14.992-31.192-25.229-51.634-28.758  c-15.137-2.614-30.45-4.094-45.842-4.674c-20.209-0.763-40.359-0.307-60.477,1.696c-6.642,0.66-13.269,1.452-19.905,2.177  c-4.633,0.507-5.032,0.239-4.76-4.236c0.227-3.721,0.615-7.443,1.16-11.131c1.969-13.317,4.037-26.62,6.057-39.929  c2.84-18.706,5.782-37.397,8.461-56.126c1.513-10.563,3.348-21.092,3.837-31.796c0.134-2.96-0.718-3.668-3.476-3.482  c-3.061,0.207-6.15-0.048-9.228-0.055c-16.316-0.037-32.631-0.669-48.952,0.103c-3.038,0.143-4.869,0.964-5.08,4.197  c-0.086,1.328-0.343,2.646-0.428,3.973c-1.038,16.007-1.997,32.021-3.117,48.021c-0.358,5.107-1.298,5.78-6.476,5.306  c-6.249-0.574-12.468-1.566-18.729-1.927c-32.87-1.895-65.761-2.536-98.665-0.92c-9.346,0.459-18.688,1.022-28.026,1.649  c-2.701,0.182-3.98-0.576-3.698-3.501c0.192-1.986-0.231-4.032-0.009-6.012c0.841-7.517-1.674-13.396-7.761-17.999  c-1.798-1.361-3.295-2.322-5.625-2.264c-6.017,0.152-12.042,0.051-18.061,0.051c-4.283,0.001-8.618,0.431-12.832-0.099  c-6.608-0.832-11.404,1.364-15.593,6.473c-2.089,2.549-3.313,4.819-3.308,8.119c0.014,8.561-0.432,17.125-0.344,25.682  c0.034,3.206-0.957,4.638-4.034,5.624c-16.745,5.368-33.261,11.365-49.073,19.143c-38.501,18.935-70.141,45.985-94.264,81.401  c-10.868,15.956-17.788,33.67-18.37,53.5c-0.312,10.672-0.065,21.495-2.279,31.985c-4.817,22.832-3.491,45.779-1.314,68.633  c1.749,18.379,8.408,35.689,16.504,52.086c15.703,31.798,38.551,57.809,68.144,77.405c38.578,25.548,80.876,38.885,127.546,36.815  c11.62-0.516,23.33-0.191,34.829-1.945c29.434-4.486,56.627-15.219,82.098-30.52c15.03-9.03,27.844-20.715,40.37-32.836  c7.392-7.152,6.085-7.67,14.438,0.137c6.056,5.659,11.569,12.02,18.591,16.48c29.741,18.893,62.045,22.857,95.435,13.349  c50.091-14.265,88.477-45.106,117.198-87.991C686.955,367.635,701.695,324.325,696.345,275.84z M452.542,154.229  c1.271-32.726,3.047-65.429,2.917-98.18c-0.009-2.585,0.756-3.44,3.41-3.432c5.74,0.019,11.489-0.247,17.223-0.583  c2.672-0.158,3.154,0.585,3.062,3.35c-1.072,31.959-9.613,62.681-15.342,93.865c-1.107,6.03-2.357,12.035-3.623,18.035  c-0.324,1.549-0.752,3.142-1.492,4.519c-0.875,1.628-2.638,1.621-4.276,1.481c-1.945-0.166-1.819-1.802-1.839-3.03  C452.49,164.914,452.542,159.572,452.542,154.229z M447.111,227.991c0.514-2.726,1.634-4.067,4.555-4.57  c10.314-1.781,20.174,0.825,30.041,2.902c17.876,3.763,34.604,10.796,50.469,19.634c12.496,6.961,22.311,17.307,31.676,28.009  c5.143,5.879,8.861,12.693,12.693,19.392c7.441,12.999,5.4,26.144-0.178,39.182c-4.605,10.76-12.232,18.698-22.66,23.892  c-14.989,7.461-30.729,11.672-47.536,8.825c-10.291-1.743-19.341-6.585-27.206-13.568c-15.789-14.021-24.256-32.138-29.314-52.163  c-3.65-14.45-4.402-29.232-4.893-44.533C445.276,246.292,445.393,237.084,447.111,227.991z M366.259,486.343  C366.259,486.342,366.259,486.342,366.259,486.343c-0.002,0,0.061-0.035,0.061-0.035L366.259,486.343z M411.701,305.247  c-2.318,31.035-4.625,62.069-6.979,93.101c-0.355,4.659-1.24,9.296-1.328,13.954c-0.072,3.765-1.98,5.525-5.098,6.73  c-6.396,2.474-13.076,3.76-19.836,4.555c-7.3,0.863-14.638,1.4-21.232,1.213c-16.15,0.549-30.537-3.356-44.601-9.256  c-27.563-11.564-47.752-31.161-62.867-56.525c-1.885-3.166-2.143-5.834-0.487-9.238c6.627-13.619,14.04-26.748,23.724-38.438  c7.832-9.451,15.676-18.912,25.173-26.845c2.536-2.119,4.075-2.129,6.643,0.13c9.54,8.402,19.481,16.373,31.363,21.29  c18.928,7.83,38.172,9.405,57.659,1.979c4.612-1.754,9.178-3.624,13.751-5.475C411.107,300.996,411.974,301.567,411.701,305.247z   M288.267,204.834c-1.656-8.391-3.186-16.805-4.012-25.324c-0.15-1.548-0.759-3.656,2.08-4.1c2.93,1.398,6.328,1.533,9.531,2.419  c25.061,6.932,48.623,17.076,69.732,32.524c2.867,2.099,2.005,2.855-0.509,4.155c-15.805,8.16-31.254,16.931-45.715,27.343  c-2.601,1.874-5.108,3.877-7.701,5.76c-4.173,3.034-4.504,2.976-7.287-1.546C296.527,233.298,291.169,219.541,288.267,204.834z   M414.103,269.608c-0.359,1.706-2.01,2.831-3.426,3.824c-13.734,9.639-28.774,15.699-45.694,16.512  c-6.705,0.42-12.571-2.332-18.417-4.931c-7.967-3.546-15.343-8.143-22.316-13.375c-4.8-3.6-4.773-3.759-0.259-7.878  c4.696-4.286,10.304-7.159,15.817-10.151c15.759-8.556,31.832-16.384,49.208-21.24c2.912-0.813,5.1-0.396,7.373,1.444  c5.521,4.465,10.917,9.058,15.283,14.694C416.711,255.007,415.635,262.338,414.103,269.608z M420.183,187.508  c-0.33,3.494-1.525,5.905-5.262,7.014c-5.754,1.708-11.409,3.774-17.02,5.916c-3.1,1.183-5.671,0.606-8.224-1.237  c-5.962-4.301-11.859-8.699-17.956-12.8c-23.213-15.611-48.582-26.109-75.985-31.71c-10.228-2.09-20.454-4.103-30.993-3.259  c-2.642,0.21-4.724,0.703-4.507,4.129c1.644,26.011,3.793,51.951,12.014,76.913c3.65,11.084,9.36,21.238,15.505,31.101  c1.599,2.565,1.408,3.999-0.73,6.036c-16.237,15.467-29.291,33.246-38.35,53.83c-2.287,5.197-4.226,10.547-6.412,16.042  c-0.643-0.475-1.096-0.633-1.206-0.919c-3.755-9.842-7.651-19.823-7.8-30.397c-0.692-49.098-0.901-98.199-1.425-147.296  c-0.107-10.036,1.101-10.227-10.28-8.187c-17.761,3.183-34.872,8.839-51.452,16.151c-15.411,6.797-29.611,15.408-42.572,26.115  c-0.801,0.662-1.455,1.504-2.178,2.263c-2.183,0.956-3.891,2.477-5.244,4.417c-9.82,7.341-17.895,16.341-25.319,26.049  c-10.213,13.354-18.597,27.701-24.813,43.32c-0.683,1.715-1.449,3.422-3.243,4.962c-1.514-4.611-0.128-8.87,0.606-13.034  c4.417-25.094,16.647-46.236,33.47-64.936c25.101-27.902,56.105-47.042,90.708-60.808c12.258-4.875,24.763-9.022,37.449-12.583  c2.988-0.838,3.618-2.155,3.624-4.97c0.021-11.1,0.369-22.203,0.417-33.304c0.014-3.315,1.433-4.585,4.572-4.554  c5.616,0.055,11.235,0.01,16.852,0.041c3.34,0.018,5.398,1.186,5.613,5.053c0.381,6.838-0.163,13.633-0.351,20.445l9.101,8.115  c41.69-8.2,83.768-7.099,125.848-5.376c9.41,0.386,18.807,2.007,28.136,3.693c3.494,0.633,4.785,2.108,4.423,5.603  c-1.744,16.87-3.357,33.753-5.062,50.625C421.545,175.822,420.744,181.654,420.183,187.508z M673.144,331.486  c-10.748,39.552-30.177,74.082-59.817,102.062c-26.044,24.586-57.524,39.991-92.869,46.883c-14.261,2.781-27.831-0.451-41.188-5.298  c-15.873-5.759-29.996-13.741-39.73-28.253c-7.128-10.623-10.566-22.678-14.566-34.547c-0.404-1.201-0.166-2.664-0.059-3.99  c1.492-18.645,3.027-37.283,4.525-55.929c0.631-7.856,1.176-15.723,1.815-23.58c0.089-1.081-0.53-2.715,1.148-3.005  c1.67-0.291,1.687,1.475,2.094,2.445c8.08,19.229,20.913,34.764,37.413,47.225c9.557,7.218,20.326,11.523,32.688,11.375  c12.672-0.149,25.423,1.295,37.925-1.727c20.185-4.877,37.341-14.576,48.554-32.66c5.711-9.214,8.235-19.618,8.869-30.461  c0.545-9.346,0.932-18.669,0.215-28.047c-0.393-5.102-1.841-9.709-4.377-13.989c-13.312-22.47-30.603-41.567-52.924-54.916  c-14.768-8.83-30.972-15.659-48.467-18.189c-4.572-0.659-8.942-2.184-13.21-4.873c3.11-2.408,6.495-2.557,9.688-3.106  c28.336-4.875,56.893-5.958,85.502-3.786c15.52,1.179,31.076,2.492,45.991,7.978c26.099,9.597,41.119,28.88,49.83,54.374  C680.616,282.12,679.929,306.526,673.144,331.486z"
         id="path2" /></svg>