<?xml version="1.0" encoding="UTF-8" standalone="no"?>
<svg
     xmlns:dc="http://purl.org/dc/elements/1.1/"
     xmlns:cc="http://creativecommons.org/ns#"
     xmlns:rdf="http://www.w3.org/1999/02/22-rdf-syntax-ns#"
     xmlns:svg="http://www.w3.org/2000/svg"
     xmlns="http://www.w3.org/2000/svg"
     xmlns:sodipodi="http://sodipodi.sourceforge.net/DTD/sodipodi-0.dtd"
     xmlns:inkscape="http://www.inkscape.org/namespaces/inkscape"
     version="1.1"
     id="Calque_1"
     x="0px"
     y="0px"
     width="636.271px"
     height="636.27px"
     viewBox="0 0 636.271 636.27"
     enable-background="new 0 0 636.271 636.27"
     xml:space="preserve"
     sodipodi:docname="osgeo4w.svg"
     inkscape:version="0.92.2 5c3e80d, 2017-08-06"><title
         id="title27">osgeo-osgeo4w</title><metadata
         id="metadata25"><rdf:RDF><cc:Work
                 rdf:about=""><dc:format>image/svg+xml</dc:format><dc:type
                     rdf:resource="http://purl.org/dc/dcmitype/StillImage" /><dc:title>osgeo-osgeo4w</dc:title><dc:date>08-21-2018</dc:date><dc:creator><cc:Agent><dc:title>Nicolas Bozon</dc:title></cc:Agent></dc:creator><dc:rights><cc:Agent><dc:title>copyright OSGeo</dc:title></cc:Agent></dc:rights><dc:publisher><cc:Agent><dc:title>OSGeo</dc:title></cc:Agent></dc:publisher><dc:identifier>osgeo-osgeo4w</dc:identifier><dc:description>OSGeo OSGeo4W</dc:description><dc:contributor><cc:Agent><dc:title>OSGeo Marketing Committee</dc:title></cc:Agent></dc:contributor><cc:license
                     rdf:resource="http://creativecommons.org/licenses/by-sa/4.0/" /></cc:Work><cc:License
                 rdf:about="http://creativecommons.org/licenses/by-sa/4.0/"><cc:permits
                     rdf:resource="http://creativecommons.org/ns#Reproduction" /><cc:permits
                     rdf:resource="http://creativecommons.org/ns#Distribution" /><cc:requires
                     rdf:resource="http://creativecommons.org/ns#Notice" /><cc:requires
                     rdf:resource="http://creativecommons.org/ns#Attribution" /><cc:permits
                     rdf:resource="http://creativecommons.org/ns#DerivativeWorks" /><cc:requires
                     rdf:resource="http://creativecommons.org/ns#ShareAlike" /></cc:License></rdf:RDF></metadata><defs
         id="defs23" /><sodipodi:namedview
         pagecolor="#ffffff"
         bordercolor="#666666"
         borderopacity="1"
         objecttolerance="10"
         gridtolerance="10"
         guidetolerance="10"
         inkscape:pageopacity="0"
         inkscape:pageshadow="2"
         inkscape:window-width="640"
         inkscape:window-height="480"
         id="namedview21"
         showgrid="false"
         inkscape:zoom="0.37091171"
         inkscape:cx="318.1355"
         inkscape:cy="318.13501"
         inkscape:window-x="0"
         inkscape:window-y="0"
         inkscape:window-maximized="0"
         inkscape:current-layer="Calque_1" /><g
         id="g18"><path
             d="M64.18,302.225h63.774c7.656-92.718,81.553-166.604,174.274-174.265V64.172V0l-39.904,69.848   C153.628,94.171,71.226,187.974,64.18,302.225z"
             id="path2" /><path
             d="M127.951,334.048H64.172H0l69.849,39.904c24.322,108.683,118.128,191.091,232.378,198.14V508.31   C209.508,500.652,135.611,426.765,127.951,334.048z"
             id="path4" /><path
             d="M566.432,262.323c-24.329-108.692-118.132-191.1-232.384-198.146v63.788c92.716,7.652,166.611,81.546,174.273,174.262   h63.781h64.168L566.432,262.323z"
             id="path6" /><path
             d="M334.049,508.31v63.803v64.156l39.901-69.846c108.688-24.324,191.103-118.127,198.146-232.386h-63.776   C500.66,426.756,426.76,500.642,334.049,508.31z"
             id="path8" /><polygon
             points="436.47,199.762 308.436,218.448 308.436,313.143 436.47,312.127  "
             id="polygon10" /><polygon
             points="200.289,403.998 296.805,417.266 296.731,324.043 200.284,323.418  "
             id="polygon12" /><polygon
             points="436.501,324.92 308.257,324.711 308.436,418.709 436.47,436.779  "
             id="polygon14" /><polygon
             points="296.777,220.169 200.214,233.32 200.302,313.861 296.819,313.311  "
             id="polygon16" /></g></svg>
