<?xml version="1.0" encoding="UTF-8" standalone="no"?>
<svg
     xmlns:dc="http://purl.org/dc/elements/1.1/"
     xmlns:cc="http://creativecommons.org/ns#"
     xmlns:rdf="http://www.w3.org/1999/02/22-rdf-syntax-ns#"
     xmlns:svg="http://www.w3.org/2000/svg"
     xmlns="http://www.w3.org/2000/svg"
     xmlns:sodipodi="http://sodipodi.sourceforge.net/DTD/sodipodi-0.dtd"
     xmlns:inkscape="http://www.inkscape.org/namespaces/inkscape"
     version="1.1"
     id="Calque_1"
     x="0px"
     y="0px"
     width="595.279px"
     height="595.281px"
     viewBox="0 0 595.279 595.281"
     enable-background="new 0 0 595.279 595.281"
     xml:space="preserve"
     sodipodi:docname="portablegis.svg"
     inkscape:version="0.92.2 5c3e80d, 2017-08-06"><title
         id="title127">osgeo-portablegis</title><metadata
         id="metadata125"><rdf:RDF><cc:Work
                 rdf:about=""><dc:format>image/svg+xml</dc:format><dc:type
                     rdf:resource="http://purl.org/dc/dcmitype/StillImage" /><dc:title>osgeo-portablegis</dc:title><dc:date>08-21-2018</dc:date><dc:creator><cc:Agent><dc:title>Nicolas Bozon</dc:title></cc:Agent></dc:creator><dc:rights><cc:Agent><dc:title>copyright OSGeo</dc:title></cc:Agent></dc:rights><dc:publisher><cc:Agent><dc:title>OSGeo</dc:title></cc:Agent></dc:publisher><dc:identifier>osgeo-portablegis</dc:identifier><dc:description>OSGeo PortableGIS</dc:description><dc:contributor><cc:Agent><dc:title>OSGeo Marketing Committee</dc:title></cc:Agent></dc:contributor><cc:license
                     rdf:resource="http://creativecommons.org/licenses/by-sa/4.0/" /></cc:Work><cc:License
                 rdf:about="http://creativecommons.org/licenses/by-sa/4.0/"><cc:permits
                     rdf:resource="http://creativecommons.org/ns#Reproduction" /><cc:permits
                     rdf:resource="http://creativecommons.org/ns#Distribution" /><cc:requires
                     rdf:resource="http://creativecommons.org/ns#Notice" /><cc:requires
                     rdf:resource="http://creativecommons.org/ns#Attribution" /><cc:permits
                     rdf:resource="http://creativecommons.org/ns#DerivativeWorks" /><cc:requires
                     rdf:resource="http://creativecommons.org/ns#ShareAlike" /></cc:License></rdf:RDF></metadata><defs
         id="defs123" /><sodipodi:namedview
         pagecolor="#ffffff"
         bordercolor="#666666"
         borderopacity="1"
         objecttolerance="10"
         gridtolerance="10"
         guidetolerance="10"
         inkscape:pageopacity="0"
         inkscape:pageshadow="2"
         inkscape:window-width="640"
         inkscape:window-height="480"
         id="namedview121"
         showgrid="false"
         inkscape:zoom="0.39645142"
         inkscape:cx="297.6395"
         inkscape:cy="297.6405"
         inkscape:window-x="0"
         inkscape:window-y="0"
         inkscape:window-maximized="0"
         inkscape:current-layer="Calque_1" /><g
         id="g118"><path
             fill="none"
             d="M240.548,234.334c0.011-0.165-0.223-0.345-0.349-0.518C240.325,233.989,240.557,234.169,240.548,234.334z"
             id="path2" /><path
             fill="none"
             d="M291.866,291.208c-0.083,0.054-0.115,0.115-0.107,0.179C291.751,291.323,291.783,291.262,291.866,291.208   c1.035-0.673,1.307-1.741,1.285-2.955C293.173,289.467,292.9,290.533,291.866,291.208z"
             id="path4" /><path
             fill="none"
             d="M320.608,326.982c-3.163,0.106-4.969-2.779-7.402-4.278C315.639,324.204,317.444,327.09,320.608,326.982z"
             id="path6" /><path
             fill="none"
             d="M326.757,175.979c-1.02-1.961-0.555-3.778,1.111-5.479c0-0.001,0-0.001-0.001-0.002   C326.201,172.199,325.736,174.018,326.757,175.979z"
             id="path8" /><path
             fill="none"
             d="M240.139,234.807c0.146-0.157,0.397-0.309,0.408-0.474C240.537,234.499,240.285,234.649,240.139,234.807z"
             id="path10" /><path
             fill="none"
             d="M314.711,393.381c-0.514-0.364-1.356-0.643-1.479-1.108C313.353,392.739,314.197,393.016,314.711,393.381z"
             id="path12" /><path
             fill="none"
             d="M240.139,234.807c-0.126-0.175-0.357-0.354-0.349-0.521C239.781,234.452,240.013,234.633,240.139,234.807z"
             id="path14" /><path
             fill="none"
             d="M329.73,316.536c-0.001,0-0.001,0-0.002,0c2.662,0.277,4.451,1.865,4.156,4.962   c-0.029,0.312,0.473,0.671,0.727,1.009l0.001-0.001c-0.254-0.338-0.755-0.696-0.726-1.008   C334.181,318.401,332.392,316.813,329.73,316.536z"
             id="path16" /><path
             fill="none"
             d="M328.49,172.122c-0.025-0.507-0.181-1.026-0.521-1.564c-0.001,0-0.001,0-0.001,0   C328.308,171.095,328.464,171.615,328.49,172.122z"
             id="path18" /><path
             fill="none"
             d="M293.478,200.571c2.005,0.056,2.024-2,3.065-2.967C295.501,198.57,295.483,200.626,293.478,200.571z"
             id="path20" /><path
             fill="none"
             d="M291.942,203.569C291.942,203.569,291.942,203.569,291.942,203.569c1.963-0.267,1.88-1.566,1.536-2.998   C293.822,202.002,293.905,203.302,291.942,203.569z"
             id="path22" /><path
             fill="none"
             d="M286.299,215.193c0,0.001,0,0.001,0,0.002c4.558-5.781,4.585-5.82,5.643-11.626c0,0,0,0,0,0   C290.884,209.373,290.856,209.412,286.299,215.193z"
             id="path24" /><path
             fill="none"
             d="M204.903,289.012c0,0,0,0.001,0,0.001l0.005,0.005c-0.111,0.201-0.224,0.403-0.336,0.604   c-0.005,0.01-0.011,0.02-0.017,0.03c0.117-0.211,0.235-0.424,0.354-0.636L204.903,289.012c0.095-1.585-0.162-2.548-0.641-3.118   C204.74,286.465,204.997,287.427,204.903,289.012z"
             id="path26" /><path
             fill="none"
             d="M220.033,293.162c0.114-0.812,0.467-1.582,0.573-2.347C220.499,291.581,220.146,292.351,220.033,293.162z"
             id="path28" /><path
             fill="none"
             d="M226.078,287.489c-0.808-1.168-1.614-2.338-2.655-3.846c0,0,0,0,0,0.001   C224.464,285.152,225.271,286.321,226.078,287.489C226.078,287.49,226.078,287.49,226.078,287.489z"
             id="path30" /><path
             fill="none"
             d="M353.001,116.507c7.486,7.166,14.981,14.472,22.378,21.729l-1.938-3.38l26.454,27.491   c0.012,0.011,0.021,0.021,0.033,0.032l0.114,0.116l2.692,2.802l0.062,0.659l0.106,0.186l0.222,0.161l3.781-1.551l0.333,4.463   c0.104,0.092,0.215,0.184,0.314,0.275l5.15-7.474l0.455,1.466c2.189-1.895,4.378-2.987,6.967-2.987   c4.811,0,8.324,3.766,12.995,10.074c0.312-0.374,0.62-0.737,0.916-1.08l0.245-0.283c2.197-2.547,4.449-5.157,4.885-6.201   c-0.356-0.885-1.997-2.921-3.738-5.034c-0.399-0.272-0.766-0.588-1.084-0.955c-0.029-0.02-0.057-0.04-0.086-0.06   c-0.918-0.613-2.175-1.452-3.163-2.856c-3.056-4.328-2.805-9.361,0.63-12.52c1.549-1.422,3.241-2.143,5.033-2.143   c2.535,0,4.213,1.401,5.253,2.536c0.31-0.485,0.61-0.977,0.907-1.473c0.966-1.614,2.061-3.444,3.604-5.07   c2.836-2.988,6.301-6.638,11.177-6.638c3.503,0,6.775,1.915,9.727,5.692c0.938,1.199,1.592,1.716,1.929,1.928   c0.257-0.223,0.711-0.703,1.31-1.672c1.053-1.706,2.383-3.138,3.883-4.27c-0.85-0.61-1.764-1.351-2.555-2.339   c-0.809-1.009-2.047-1.99-3.356-3.028c-0.06-0.047-0.115-0.096-0.175-0.143l-0.442,0.091l-1.73-1.877l-7.442-6.442l4.522-0.934   c0.044-0.355,0.108-0.689,0.189-0.994c0.424-1.595,1.822-4.488,6.423-5.945c2.081-0.659,3.774-1.83,5.391-3.757   c-15.514-13.473-30.308-27.973-44.637-42.041c-2.205-2.165-4.41-4.33-6.619-6.492c-1.869-1.83-3.397-3.894-4.506-6.006   c-2.886,3.268-5.938,6.355-9.061,9.467c-5.119,5.102-9.678,8.738-14.347,11.445l-1.183,0.675l0.163,0.701l-2.939,1.908   c-0.332,0.216-1.345,0.873-2.834,0.874l-0.1,0c-0.02,0.197-0.035,0.368-0.044,0.477l-0.184,2.101l-7.298,5.967l-8.58,8.763   c-1.894,2.127-3.761,4.282-5.628,6.436c-4.588,5.295-9.333,10.77-14.467,15.823c-0.288,0.284-0.517,0.521-0.696,0.718   C352.571,116.086,352.764,116.28,353.001,116.507z"
             id="path32" /><path
             fill="none"
             d="M278.291,173.054c1.214,0.153,2.426,0.424,3.644,0.439C280.717,173.477,279.505,173.208,278.291,173.054z"
             id="path34" /><path
             fill="none"
             d="M262.24,401.44c-3.841-0.033-7.389,3.206-11.225,3.215C254.851,404.646,258.399,401.408,262.24,401.44z"
             id="path36" /><path
             fill="none"
             d="M218.709,364.195c0.022,0.193,0.253,0.363,0.389,0.544c0-0.001,0-0.002,0.001-0.003   c-0.136-0.18-0.363-0.349-0.387-0.541c-0.09-0.81-0.083-1.582,0.819-1.637C218.625,362.612,218.62,363.385,218.709,364.195z"
             id="path38" /><path
             fill="none"
             d="M182.587,279.233c-0.019,0.377,0.329,0.771,0.518,1.158C182.916,280.004,182.569,279.61,182.587,279.233z"
             id="path40" /><path
             fill="none"
             d="M249.961,404.572c0.082,2.734,0.256,5.448,2.459,6.701C250.217,410.02,250.044,407.306,249.961,404.572z"
             id="path42" /><path
             fill="none"
             d="M143.5,429.399c-0.97,0-1.922,0.091-2.832,0.271c-6.795,1.344-11.881,5.003-16.772,12.133   c0.133,2.275,0.055,4.477-0.03,6.618c-0.146,3.685-0.283,7.164,0.798,10.312c2.664,7.757,9.16,10.426,17.413,12.914   c8.478-0.233,13.888-1.86,16.971-5.107c3.324-3.501,4.716-9.674,4.38-19.427C163.121,438.174,153.25,429.399,143.5,429.399z"
             id="path44" /><path
             fill="none"
             d="M182.186,284.397c-2.09-0.087-4.322,0.571-6.911,2.39c-0.833,0.586-1.474,0.831-1.975,0.827   c0.501,0.003,1.142-0.241,1.976-0.827C177.864,284.969,180.096,284.311,182.186,284.397z"
             id="path46" /><path
             fill="none"
             d="M361.284,288.311c-0.367-0.228-0.728-0.622-1.104-0.638C360.556,287.689,360.916,288.084,361.284,288.311z"
             id="path48" /><path
             fill="none"
             d="M321.996,236.975c0.679,0.318,1.073,0.833,1.148,1.49C323.07,237.809,322.676,237.293,321.996,236.975z"
             id="path50" /><path
             fill="none"
             d="M329.977,244.308c0.428-0.842,0.893-1.55,1.386-2.153C330.87,242.759,330.405,243.466,329.977,244.308   C329.977,244.308,329.977,244.308,329.977,244.308z"
             id="path52" /><path
             fill="none"
             d="M321.511,240.491c-0.224-0.031-0.466-0.126-0.728-0.297C321.046,240.365,321.288,240.46,321.511,240.491z"
             id="path54" /><path
             fill="none"
             d="M309.886,230.544c2.277-2.333,4.539-4.691,8.079-4.568C314.425,225.853,312.163,228.212,309.886,230.544z"
             id="path56" /><path
             fill="none"
             d="M373.991,233.028c-1.874-1.469-5.481-0.726-8.301-0.989C368.509,232.303,372.117,231.56,373.991,233.028z"
             id="path58" /><path
             fill="none"
             d="M356.177,234.621c-1.287,0.904-2.467,2.081-3.739,3.018C353.71,236.701,354.889,235.526,356.177,234.621z"
             id="path60" /><path
             fill="none"
             d="M539.269,164.957c-10.111-11.321-21.612-21.739-32.734-31.813c-6.307-5.711-12.801-11.611-19.058-17.667   c-0.041,0.025-0.081,0.05-0.122,0.075c-1.052,0.642-1.95,1.202-2.711,1.75c0.622,0.675,1.197,1.358,1.742,2.013   c1.975,2.373,3.102,3.628,5.174,3.976c2.372,0.399,4.241,2.044,4.88,4.292c0.756,2.665-0.424,5.449-1.869,7.647l0.874,0.834   l-4.542,3.435l-3.306,2.897l-0.338-0.323c-0.278,0.188-0.561,0.382-0.836,0.567c-2.901,1.948-5.642,3.787-7.447,6.004   c-1.163,1.429-4.703,5.775-9.938,5.775c-4.178,0-7.397-2.723-9.455-4.772c-0.748-0.745-1.261-1.196-1.611-1.466   c-0.878,1.004-1.869,1.863-2.747,2.625c-0.725,0.627-1.912,1.657-2.184,2.168c0.021,0.089,0.088,0.276,0.228,0.548   c5.601,4.469,9.974,9.498,14.061,16.199l8.176,13.41l-14.424-6.215c-2.305-0.993-4.35-1.496-6.078-1.496   c-4.527,0-7.241,3.593-11.293,9.456c-0.492,0.713-0.985,1.425-1.483,2.127c-2.371,3.339-5.228,4.04-7.207,4.041   c-3.048,0-5.437-1.658-7.018-2.755l-0.253-0.175c-3.463-2.389-5.878-5.035-7.357-8.042c-0.089-0.067-0.192-0.138-0.276-0.203   l-1.597,1.531c0.106,0.287,0.581,1.246,2.575,3.037c20.373,18.292,40.305,36.702,55.562,50.861   c0.213-0.266,0.442-0.541,0.694-0.815c5.955-6.477,11.889-12.967,17.822-19.458c9.573-10.472,19.474-21.3,29.296-31.884   c4.936-5.317,10.855-10.409,17.953-15.47C541.309,166.959,540.256,166.059,539.269,164.957z"
             id="path62" /><path
             fill="none"
             d="M269.517,206.453c0.287-0.687,0.7-0.895,1.353-0.191C270.217,205.557,269.803,205.765,269.517,206.453z"
             id="path64" /><path
             fill="none"
             d="M408.084,277.874c2.996,0.699,5.991-0.628,8.987-1.018C414.075,277.245,411.08,278.573,408.084,277.874z"
             id="path66" /><path
             fill="none"
             d="M366.311,227.936C366.312,227.937,366.312,227.937,366.311,227.936c1.03-2.697,0.038-6.551,3.268-7.624   C366.348,221.385,367.341,225.239,366.311,227.936z"
             id="path68" /><path
             fill="none"
             d="M476.258,258.049c-2.874-2.621-5.739-5.252-8.603-7.886c-6.678-6.143-13.584-12.495-20.504-18.55   c-17.493-15.31-35.843-32.1-51.588-51.145l-13.209-12.512c-13.948-13.209-27.896-26.417-41.816-39.654   c-0.414-0.394-0.809-0.8-1.195-1.201c-0.315-0.328-0.751-0.779-1.062-1.05c-0.118,0.053-0.281,0.131-0.487,0.249   c-1.314,0.745-2.661,1.122-4.002,1.123c-2.426,0-4.563-1.248-5.719-3.338c-1.316-2.384-1.113-5.431,0.534-8.202   c-0.268-0.192-0.563-0.392-0.801-0.553c-0.014-0.01-0.028-0.019-0.042-0.028c-0.217,0.335-0.455,0.678-0.722,1.011   c-14.863,18.545-31.806,35.991-51.789,53.324c-5.59,5.69-11.242,11.514-16.708,17.147c-12.269,12.642-24.955,25.715-37.841,38.205   c-14.247,13.807-28.893,27.657-43.057,41.051c-19.141,18.1-38.933,36.816-57.955,55.633   c-16.046,15.873-31.689,32.771-46.816,49.113c-6.7,7.237-13.626,14.718-20.511,22.029c-5.419,7.847-11.414,22.986,7.295,38.099   c0.742,0.6,1.486,1.194,2.231,1.789c2.996,2.392,6.094,4.864,8.971,7.641c10.259,9.901,20.651,20.003,30.7,29.772   c20.181,19.618,41.049,39.905,61.849,59.542c1.465,1.383,2.921,2.794,4.38,4.209c9.222,8.941,17.959,17.384,30.234,19.956   c5.678-2.2,10.436-6.06,14.885-12.056c7.714-10.39,15.708-20.014,23.762-28.605l9.872-10.533   c33.167-35.391,67.462-71.986,101.807-107.417c13.93-14.369,28.733-28.272,43.05-41.717c6.41-6.021,13.036-12.243,19.486-18.418   c13.615-14.858,26.367-27.659,38.971-39.121c0.781-0.838,1.562-1.677,2.341-2.517c5.855-6.311,11.911-12.831,18.927-18.437   c0.327-0.315,0.65-0.633,0.974-0.952c0.901-0.891,1.834-1.812,2.899-2.702c1.413-1.181,2.98-2.208,4.495-3.201   c1.301-0.853,3.309-2.169,4.24-3.114c-0.517-0.442-1.239-0.978-1.782-1.379C480.06,262.254,477.764,260.549,476.258,258.049z    M412.69,244.225c6.101,0.93,2.865,7.59,3.482,11.812c-3.74-1.323-7.582-1.853-11.537-1.496   C405.927,249.895,406.927,243.347,412.69,244.225z M158.061,320.408c0.699-2.468,1.397-4.937,2.098-7.403   c3.823-1.051,7.848-5.729,11.293,0.627c0.103,0.188,1.175,0.174,1.264-0.009c-0.091,0.182-1.16,0.195-1.263,0.008   c-3.447-6.356-7.471-1.677-11.295-0.626c0.005-3.545,1.711-6.583,2.86-9.795c0.458-1.281,2.714-3.024-0.757-3.766   c-4.369-0.93-2.16-3.619-1.147-5.648c2.333-4.677,5.416-8.853,9.142-12.541l0,0c9.715-11.203,14.018-12.363,25.352-6.85   c0.518,2.358,2.033,1.794,3.553,1.22c-0.857,2.899-1.718,5.797-2.578,8.695c0.23,0.401,0.54,0.662,0.905,0.826   c-0.364-0.164-0.673-0.425-0.903-0.826c0.86-2.898,1.721-5.796,2.578-8.695c3.104-0.946,4.165-6.128,8.603-4.245   c3.85,1.636,3.65,5.217,3.133,9.396c5.771-5.291,10.561-7.822,14.274,0.598c1.491,3.381,7.369,2.829,7.18,7.821   c-3.437,6.202-6.84,12.423-10.329,18.595c-0.836,1.478-1.693,3.164-3.007,4.097c-2.018,1.427-3.345,4.965-6.65,3.324   c-3.134-1.553-3.347-4.579-2.769-7.688c0.18-0.967,0.375-1.928,0.56-2.895c-0.411-0.346-0.826-0.692-1.242-1.04   c0.451-0.682,0.901-1.361,1.353-2.045c0.318,0.398,0.463,0.789,0.489,1.177c-0.026-0.388-0.17-0.779-0.489-1.178   c-0.45,0.684-0.9,1.363-1.353,2.045c-6.587,1.904-10.014-0.557-10.16-8.147c-2.315,2.057-3.616,5.128-6.945,4.363   c-1.926-3.303,1.515-6.089,0.884-9.265c0.016-1.251,0.516-2.2,1.181-3.046c-0.666,0.846-1.166,1.795-1.182,3.047   c-0.884-0.004-1.771-0.009-2.655-0.012c-1.486,3.589-2.889,7.213-4.481,10.752c-1.266,2.811-2.262,5.264,1.219,7.438   c1.41,0.882,2.092,2.795,0.173,4.314c-4.23-1.984-8.583-6.919-12.553-2.107c3.97-4.81,8.323,0.125,12.552,2.108   c-0.071,0.999-0.143,1.995-0.214,2.994c0.175,0.891-0.118,1.526-1.004,1.837l0.053,0.126c-1.723,6.34-5.292,11.786-8.752,17.212   c-1.617,2.536-3.715,6.331-7.525,4.629c-3.568-1.594-4.007-5.214-2.778-8.971c0.514-1.57,0.425-3.337,0.621-5.126   c-3.265-0.187-5.1,4.549-8.285,1.821C156.802,325.625,155.832,323.144,158.061,320.408c1.97-0.104,3.919-0.433,5.861-0.844   C161.98,319.975,160.031,320.303,158.061,320.408z M155.694,489.015l0.017,0.508l-4.806,0.189l-5.176,0.54l-0.019-0.588   c-11.954-0.698-22.26-5.663-29.94-14.484c-9.778-11.228-11.571-24.115-5.137-36.386c2.719-14.418,16.948-25.189,33.499-25.189   c5.436,0,10.606,1.189,15.368,3.536c14.996,7.39,22.71,20.807,22.307,38.8C181.381,474.905,172.821,485.762,155.694,489.015z    M323.226,408.996c-0.837,4.022-2.493,7.663-6.704,8.868c-2.5,0.718-2.66,2.748-3.568,4.318c-4.873,8.417-4.822,8.446-11.563,1.248   c-0.988,4.191-2.228,9.53-6.968,9.29c-5.625-0.286-4.103-6.967-6.389-10.93c-1.786,3.597-3.342,7.189-5.312,10.539   c-1.352,2.298-2.979,5.281-6.054,4.812c-3.334-0.508-4.371-3.876-5.032-6.766c-0.534-2.335-0.346-4.833-0.473-7.158   c-1.763-0.511-2.45,0.664-3.286,1.508c-4.691,4.744-7.146,4.258-8.812-2.09c-0.818-3.117-0.512-6.066-5.62-4.863   c-3.104,0.73-5.393-2.138-5.133-5.783c0.191-2.693-0.547-5.503,0.893-8.061c0-0.001,0-0.001,0-0.001   c0.23-1.43,0.463-2.854,0.966-5.947c-5.979,7.327-10.737,10.23-12.38-1.009c-0.054-0.368-0.485-0.847-0.849-0.979   c-13.364-4.895-14.557-6.679-14.146-21.273c1.522-0.688,2.347-0.468,2.762,0.106c-0.415-0.575-1.24-0.796-2.763-0.107   c-3.17-0.697-2.128,5.548-6.033,3.645c0.367,2.241-0.2,4.134-2.692,4.27c-2.185,0.114-3.716-1.589-4.219-3.49   c-0.683-2.578-0.957-5.325,0.309-7.912c0-0.001,0-0.001-0.001-0.001c0.207-1.438,0.415-2.875,0.657-4.56   c-3.447,0.314-4.529,5.959-8.668,3.332c-3.883-2.465-3.312-6.152-2.64-9.858c0-0.001,0-0.002,0-0.003   c-0.235-0.234-0.47-0.479-0.699-0.729c0.366-0.289,0.731-0.578,1.098-0.868c0-0.001,0-0.003,0.001-0.004   c-0.367,0.291-0.734,0.581-1.102,0.871c-5.728,3.079-7.98,0.595-7.677-5.095c0.181-3.378,1.043-6.722,1.812-11.355   c-2.406,3.12-4.023,5.268-5.694,7.371c-1.396,1.759-2.929,3.979-5.456,2.665c-2.11-1.098-3.121-3.692-2.274-5.864   c3.42-8.779,4.391-18.345,8.725-26.814c0.844-1.649,1.824-3.33,3.863-2.6c2.387,0.855,2.333,2.714,1.354,4.896   c-1.181,2.637-2.815,5.241-2.098,8.371c0.031-0.006,0.062-0.012,0.094-0.018c0,0,0.001,0,0.002,0c0,0.001,0,0.001,0,0.002   l0.001-0.003c-0.004,0.031-0.008,0.062-0.011,0.093c0.612-0.716,1.222-1.435,1.836-2.15c2.179-2.537,5.029-5.054,8.164-3.246   c3.214,1.857,2.506,5.438,0.774,8.474c-3.404-2.146-7.235-1.52-10.945-1.68c0.057-0.464,0.114-0.932,0.17-1.397   c0,0.001,0,0.001-0.001,0.001c-0.056,0.467-0.114,0.934-0.17,1.397c-0.287-0.43-0.576-0.858-0.865-1.291   c0.318-0.06,0.635-0.12,0.951-0.181v-0.001c-0.317,0.061-0.635,0.123-0.953,0.182c0.289,0.433,0.578,0.861,0.865,1.291   c3.71,0.16,7.541-0.467,10.945,1.68c1.367,4.705,2.471-0.272,3.77-0.221c1.568,0.064,3.036-1.854,4.874-0.584   c2.036,1.406,1.677,3.574,1.37,5.459c-0.453,2.777-1.346,5.484-2.049,8.217c2.308,0.6,2.969-1.188,4.227-1.764   c5.194-2.387,7.295-0.825,7.287,4.895c-0.006,4.193-2.572,7.986-1.755,12.258c2.919-1.927,2.979-6.202,6.437-7.768   c1.65-0.747,3.216-1.534,4.956-0.707c2.157,1.023,1.32,2.66,0.962,4.448c-0.774,3.861-1.136,7.805-1.728,12.169   c2.375-1.451,4.212-2.643,6.118-3.711c1.262-0.709,3.867-1.752,3.885-0.504c0.096,7.27,11.371,3.41,10.523,10.904   c-0.211,1.858-1.675,3.574-2.562,5.355c-2.94,4.77-8.522,5.159-12.558,4.796c-2.124-0.193-5.022-0.207-7.284-1.09   c2.262,0.884,5.161,0.897,7.285,1.091c4.034,0.363,9.616-0.026,12.558-4.796c10.233-0.561,10.233-0.561,9.357,13.403   c0.235-0.051,0.543-0.023,0.697-0.165c3.267-2.962,6.5-9.202,11.106-4.903c3.162,2.949,0.272,8.605-3.125,12.167h0   c0.348,0.992,0.695,1.988,1.042,2.981c0.606,0.545,1.213,1.09,1.82,1.635c-0.281,4.289,4.568,7.035,10.188,5.771   c-0.252,4.619-3.396,8.797-1.979,14.056c0,0,0-0.001,0.001-0.001c-1.417-5.259,1.727-9.436,1.979-14.056   c-5.62,1.266-10.471-1.48-10.188-5.771c0.992-3.59,2.562-6.321,7.029-6.174c4.475,0.147,3.091,3.607,3.753,5.945   c-0.197,2.001-0.396,4-0.594,5.999c0.198-1.999,0.396-3.998,0.594-5.998c1.717-0.014,3.436-0.026,5.151-0.039   c2.288-3.83,5.986-3.022,9.48-2.888c0,4.405,0,8.812,0,15.152c0-0.001,0-0.002,0.001-0.003c0-6.339,0-10.745,0-15.149   c1.104,0.032,2.208,0.067,3.312,0.1c-0.115,2.458-0.229,4.913-0.346,7.368c0,0,0,0,0.001,0c0.115-2.455,0.229-4.909,0.346-7.367   c2.051-0.99,0.546-3.653,2.258-4.805c4.617-0.157,7.923-7.107,13.968-2.244c1.09,0.879,5.562-3.41,3.521-7.673   c0-0.006,0.124-0.134,0.132-0.121c-0.001,0-0.001,0-0.001,0c0.372-3.281,2.522-5.5,5.401-4.301   c4.126,1.714,0.875,5.633,1.325,8.531c0,0.001,0.001,0.001,0.001,0.001C328.11,399.423,325.908,404.232,323.226,408.996z    M248.675,351.486c-1.041-0.729-4.544-1.324-1.223-4.786c2.365-2.465,2.164-7.39,3.105-11.216c1.401,0.076,2.806,0.149,4.209,0.226   c-0.172,1.924-0.346,3.849-0.519,5.773c0,0,0,0.001-0.001,0.001c8.182,5.767,17.891,6.074,27.252,7.626c0,0,0-0.001,0-0.001   c-9.36-1.552-19.07-1.858-27.25-7.626c0.173-1.926,0.347-3.851,0.519-5.773c0.759-1.119,1.517-2.237,2.274-3.356   c3.582-1.409,4.231,4.263,7.679,3.179c0.163,0.961,0.327,1.923,0.491,2.883c1.18,1.048,0.951-0.368,1.181-0.703   c1.579-2.312,1.915-6.551,5.245-6.258c3.569,0.313,3.064,4.541,3.421,7.177c0.408,3.039,1.434,2.444,3.125,1.285   c1.155-0.054,2.312-0.106,3.471-0.162c0,0,0,0,0-0.001c-1.158,0.056-2.315,0.108-3.472,0.162c1.073-1.786,2.225-1.884,3.461-0.181   c-0.001-0.002-0.002-0.004-0.003-0.006c0.001,0,0.021,0.025,0.021,0.025c-0.002,0-0.004,0-0.006,0   c0.332,0.587,0.664,1.171,0.997,1.755c-0.007,0.506-0.013,1.012-0.02,1.519c-0.001,0.001-0.002,0.001-0.002,0.002   c-0.07,0.482-0.142,0.965-0.215,1.449c0,0.002,0.001,0.003,0.001,0.005c-0.17,1.081-0.339,2.164-0.508,3.243   c0,0.001-0.001,0.003-0.001,0.004c0.032,0.352,0.115,0.711,0.072,1.054c-0.017,0.128-0.282,0.226-0.457,0.335   c0.108,1.193,0.218,2.388,0.355,3.886c3.413-1.399,4.29-7.98,8.075-5.113c4.951,3.752-0.061,9.654,0.838,14.598   c0.424-0.18,0.881-0.272,1.209-0.53c2.549-2.001,3.251-7.755,7.261-5.943c3.063,1.383-0.543,5.757,0.045,8.897   c0.291,1.566-0.634,3.357-1.008,5.047c-0.001,3.152-0.001,6.302-0.001,10.519c0.744-0.964,1.418-1.874,2.025-2.753   c-0.607,0.878-1.28,1.788-2.023,2.75c0-4.217,0-7.365,0.001-10.519c1.93,0.052,3.856,0.103,5.784,0.153   c2.858-1.901,3.414-6.448,9.511-1.541c9.397,7.563,1.997,14.074,1.989,20.998c0.151,0.462,0.261,0.935,0.33,1.412   c0.666-0.353,1.33-0.704,1.996-1.053c2.041,4.263-2.432,8.552-3.521,7.673c-6.045-4.863-9.351,2.087-13.969,2.244   c0.398-3.241,0.798-6.483,1.19-9.728c-0.418-0.357-0.843-0.72-1.267-1.083c0.487-0.652,0.979-1.31,1.467-1.966l-0.001-0.001   c-0.488,0.656-0.979,1.312-1.467,1.966c-1.979,2.022-2.365,7.078-5.601,5.941c-3.487-1.225-2.967-5.772-2.216-9.183   c0.751-3.416,1.354-6.775,0.538-10.271c-0.555,0.071-1.084,0.004-1.458,0.215c-2.444,1.381-2.306,6.794-5.891,5.34   c-3.043-1.234-2.764-5.51-2.641-8.753c0.08-2.114,0.484-4.216,0.74-6.296c-1.312-0.246-1.786,0.396-2.488,1.229   c-1.841,2.185-2.196,7.266-5.19,6.392c-4.462-1.306-1.119-6.062-1.777-9.236c0,0,0-0.001,0.001-0.001   c-0.219-0.188-0.442-0.384-0.662-0.585c0.234-0.473,0.092-1.404,0.458-1.677c-0.367,0.271-0.225,1.205-0.458,1.678   c-1.823,0.501-2.771,3.712-4.961,2.3c-1.949-1.254-2.194-3.914-1.916-6.135c0.359-2.884,1.865-5.642,0.797-8.812   c-3.69,1.366-3.08,6.237-6.544,7.69c-2.375-0.576-2.818-3.135-4.437-4.84c-0.295,0.369-0.632,0.642-0.773,0.994   c-3.547,8.715-4.848,8.955-11.402,2.094c-12.31-12.887-12.334-14.635-0.85-28.216c2.399-2.839,4.453-5.968,6.784-8.868   c1.276-1.588,2.146-5.01,4.794-3.254c1.854,1.229,0.906,4.241-0.254,6.199c-2.312,3.897-3.174,8.254-4.38,12.509   c-0.941,3.826-0.74,8.751-3.105,11.216C244.13,350.163,247.633,350.758,248.675,351.486c0.814,0.571,1.343,0.676,1.71,0.512   C250.018,352.161,249.49,352.056,248.675,351.486z M257.041,332.352c0.04-0.24,0.066-0.484,0.125-0.724   c0.96-3.93,1.342-9.938,6.317-8.982c5.101,0.98,2.047,6.372,1.59,9.976c-0.123,0.97-0.236,1.939-0.354,2.909   C261.273,336.615,260.623,330.943,257.041,332.352z M378.836,354.364c-2.091,2.335-3.537,5.326-6.55,6.776   c-1.733,2.319-3.095,5.122-5.302,6.846c-3.223,2.521-4.301,10.945-11.783,2.374c-6.28-7.195-8.027-5.755-3.289-14.474   c-2.42-0.13-3.385,1.693-4.489,3.339c-1.23,1.829-2.269,4.266-5.147,2.78c-2.937-1.515-2.448-3.825-1.267-6.365   c0.486-1.05,0.299-2.411,0.422-3.691c-13.879,2.987-4.447-8.806-8.617-12.392c-2.479,0.156-2.154,6.812-6.715,3.842   c-3.939-2.568-2.367-5.969-1.392-9.328c1.025-3.532,1.89-7.112,2.824-10.67c-0.155-1.065,0.129-2.299-1.122-2.946   c-0.436,0.146-0.879,0.265-1.331,0.352c-2.132-3.002-4.85-3.713-7.723-3.826c2.872,0.114,5.59,0.825,7.721,3.826   c-0.578,1.403-1.155,2.808-1.733,4.213c-0.424,0.571-0.845,1.14-1.268,1.71c0.028-0.008,0.053-0.011,0.081-0.02   c-0.27,2.646-2.002,4.516-3.619,6.353c-1.096,1.244-2.762,1.26-4.043,0.201c-1.283-1.064-2.799-2.113-2.512-4.22   c0.299-2.199,0.491-4.413,0.727-6.619c-2.303,1.781-5.045,4.065-7.692,2.197c-2.668-1.882-0.492-4.759,0.515-7.117   c0.001,0,0.001-0.001,0.002-0.001c-0.135-1.689-0.27-3.383-0.406-5.122c-2.999,0.603-2.753,6.507-7.061,4.363   c-4.974-2.475-2.787-7.162-2.978-11.084c1.154-0.889,1.759-2.656,1.093-3.3c0.666,0.646,0.061,2.411-1.094,3.3   c-0.272-0.224-0.55-0.443-0.833-0.657c-1.468,2.131-2.616,5.624-5.955,3.842c-5.986-3.195,0.212-8.06-1.277-12.543   c-2.851,0.599-6.587,10.809-8.767,0.002c-0.61-3.036-0.093-6.301-0.093-9.5c-0.681,0.118-1.186,0.089-1.565,0.293   c-2.67,1.428-3.473,7.521-6.779,5.276c-4.498-3.051-1.662-8.656-1.125-13.225c0.11-0.883,0.562-2.389,0.283-2.539   c-0.153-0.082-0.286-0.131-0.403-0.153c0.117,0.022,0.25,0.071,0.402,0.153c0.277,0.15-0.173,1.656-0.283,2.539   c-0.459-0.385-0.921-0.77-1.385-1.156c-1.528,1.08-2.076,3.965-4.548,3.194c-3.928-1.227-1.729-5.129-2.829-7.624   c-2.576,0.117-4.155,4.82-7.097,1.904c-3.153-3.128-0.89-6.968-0.138-11.451c-2.606,1.261-4.638,3.854-7.282,1.821   c-1.919-1.475-1.901-3.621-1.333-5.461c1.288-4.154,2.985-8.186,4.975-13.489c-4.99,2.682-5.735,6.936-8.235,9.745   c-1.13,1.268-1.27,4.472-4.104,3.034c-2.059-1.044-2.021-3.389-1.57-5.353c1.321-5.751,2.828-11.461,4.398-17.736   c-3.799,2.288-4.181,6.234-6.632,8.674c-1.536,1.53-2.554,4.12-5.328,3.05c-2.355-0.91-1.732-3.303-1.828-5.222   c-0.07-1.463-0.014-2.934-0.014-4.45c-3.802-0.649-6.195,3.492-10.394,2.31c7.303-6.647,14.345-13.06,21.621-19.684   c0.771,2.562-1.609,4.572-0.084,6.827c2.818-1.205,4.491-6.59,8.04-4.208c5.048,3.387,0.157,8.666,0.862,13.479   c1.867-1.236,3.371-2.477,5.076-3.296c1.857-0.896,5.347-0.946,5.272,0.618c-0.305,6.51,5.88,7.236,8.602,10.915   c0.415,0.561,0.55,1.967,0.75,1.953c8.687-0.543,4.958,5.98,5.652,10.598c2.856-0.632,5.516-3.782,8.504-0.769   c2.867,2.894,0.59,5.57,0.022,8.314c-0.446,2.173-1.122,4.3-1.692,6.449c-0.834,0.873-1.419,1.782-0.459,2.938   c-0.958-1.154-0.374-2.063,0.46-2.937c0.35,0.308,0.71,0.614,1.073,0.914c1.193-1.859,2.184-3.904,3.643-5.525   c1.399-1.557,2.46-4.254,5.113-3.668c3.309,0.732,2.504,3.752,2.637,6.117c0.108,1.973-0.205,4.203,2.934,3.84   c5.293-0.611,4.668,2.9,4.326,6.215c-4.269-0.221-5.126,1.375-5.088,3.465c-0.038-2.09,0.821-3.686,5.088-3.464   c0.434,0.961-0.01,3.069,1.812,2.411c6.851-2.473,7.77,1.186,7.22,6.607c7.02,1.581,7.02,1.581,8.348,11.977   c6.183-2.562,11.421-3.093,10.964,6.107c-0.064,1.286,0.274,2.944,1.741,2.742c12.133-1.664,6.1,7.406,7.307,12.173   c0.69-0.475,1.388-0.954,2.083-1.438c0.901-0.479,1.805-0.955,2.707-1.433c7.417-1.114,3.764,4.374,4.368,7.322   c0.627,1.835-1.365,5.588,3.536,4.162c8.24-2.396,8.287-2.239,5.825,7.25c5.22-1.172,11.372-2.951,8.151,6.186   c-0.115,0.331,0.211,1.181,0.365,1.188c9.823,0.545,4.375,7.647,5.012,12.259c3.476-1.287,4.969-4.154,6.692-6.776   c1.084-1.646,2.386-2.562,4.316-1.397C380.395,350.728,380.346,352.676,378.836,354.364z M337.177,320.61   c0.436-1.359,1.498-1.532,2.707-1.433C338.981,319.655,338.078,320.132,337.177,320.61z M437.419,273.226   c-1.515,12.268-2.121,25.039-15.806,31.151c-2.043,0.914-2.364,3.136-3.325,4.802c-2.359,4.09-4.349,8.396-7.623,11.899   c-0.849,0.908-1.691,1.843-2.39,2.865c-3.387,4.969-5.32-7.486-9.578-0.612c-1.877,3.029-5.627,0.662-8.61-5.688   c-1.183,1.425-2.146,2.9-3.416,4.033c-1.334,1.185-1.949,3.976-4.595,2.733c-2.166-1.014-4.918-1.712-4.592-5.045   c0.332-3.372-0.535-3.188-3.703-2.438c-3.153,0.75-5.938-1.371-5.387-5.843c0.592-4.793,2.678-9.525,1.057-14.616   c-3.371,2.271-2.35,9.624-8.907,7.826c-9.415-2.579-2.99-10-4.441-15.124c-0.318-0.031-0.896-0.232-1.012-0.082   c-1.823,2.405-2.938,7.51-6.592,5.244c-3.078-1.907,0.069-5.696,1.706-8.38c2.231-5.135,3.97-10.514,7.442-15.033   c6.994,2.084,9.55,5.255,8.171,10.182c1.38-4.928-1.176-8.1-8.171-10.183c0.658-2.604,2.541-4.2,4.648-5.59   c1.629-1.076,3.294-2.705,5.364-1.418c2.159,1.342,2.697,3.509,1.673,5.876c-1.136,2.623-1.037,5.291-0.75,8.085   c9.557-3.638,11.004-2.494,10.22,8.056c-0.237,3.19-0.77,6.359-1.194,9.779c3.238-0.753,4.266-3.287,5.15-5.376   c1.389-3.271,3.67-5.188,6.813-4.16c3.793,1.236,1.578,4.557,1.226,7.043c-0.235,1.673-1.738,3.085-1.054,4.85   c8.548-1.658,13.586-7.115,15.998-15.304c0.095-1.904,0.189-3.806,0.284-5.71c0.008-3.523,0.016-7.051,0.021-10.575   c0.6-0.277,1.2-0.556,1.801-0.832l-0.001,0c-0.601,0.276-1.2,0.554-1.8,0.832c-2.547,0.552-2.726,3.425-4.511,4.644   c-2.092,1.431-3.95,4.573-6.957,2.602c-2.542-1.671-4.335-4.23-2.118-7.562c4.463-0.401,8.927-0.803,13.391-1.205   c-4.465,0.402-8.928,0.804-13.392,1.205c0.161-0.566,0.325-1.133,0.491-1.691c0.435-0.061,0.861-0.13,1.289-0.196   c-0.002,0-0.003,0-0.005,0c-0.425,0.066-0.85,0.136-1.282,0.195c-0.006-0.007-0.058-0.193-0.059-0.196c0,0-0.001,0-0.002,0   c-0.094-0.746-0.188-1.492-0.282-2.238c0.001,0,0.001,0,0.002,0c-0.122-1.703-0.241-3.407-0.364-5.158   c-3.438-0.083-3.209,6.384-7.438,4.099c-3.031-1.64-2.996-4.795-2.941-7.832c0.021-1.069,0.244-2.382-1.883-2.028   c-6.994,1.158-6.51-4.038-6.885-8.434c0.315-0.553,0.668-1.089,0.914-1.671c0.009-0.02-0.017-0.055-0.062-0.098   c0.044,0.042,0.068,0.076,0.06,0.096c-0.246,0.582-0.599,1.118-0.914,1.671c0.003,0.003-0.308-0.264-0.313-0.27   c-3.169,1.817-2.187,9.236-7.609,7.104c-5.959-2.342-0.998-7.214-0.769-10.948c0.138-2.193,0.835-4.35,1.282-6.522   c-0.622-1.13-1.254-1.164-1.895-0.018c-0.358,0.606-0.715,1.216-1.07,1.823c0.033,0.015,0.064,0.021,0.098,0.037   c-0.55,2.154-0.987,4.344-1.67,6.452c-3.07,9.465-5.699,10.305-13.054,4.341c-2.768,3.359-2.146,10.535-8.589,9.587   c-6.84-1.009-2.869-7.729-4.912-12.322c-1.424,4.16-3.744,7.158-6.286,10.127c-3.206,3.747-5.372,5.895-8.479,0.004   c-1.896-3.59-3.535-0.051-5.144,0.838c-1.745,0.963-3.436,2.272-5.497,1.086c-2.262-1.301-2.619-3.576-2.242-5.869   c0.595-3.606,0.855-7.325,2.728-10.611c0,0,0,0,0-0.001c0.052-2.275,0.103-4.547,0.151-6.822c-2.467,4.183-4.763,8.48-7.498,12.478   c-0.965,1.41-1.645,4.326-4.225,3.378c-2.584-0.947-3.551-3.508-3.141-6.131c0.61-3.886,1.182-7.831,3.142-11.362   c2.187-0.045,4.191,1.926,6.64-0.558c1.189-1.207,2.685-1.472,3.767-0.625c-1.082-0.847-2.577-0.583-3.768,0.625   c-2.447,2.482-4.453,0.513-6.64,0.558c-0.822-1.829,1.189-4.417-1.515-5.741c-0.989,3.38-2.943,6.135-5.452,8.563   c-2.052,1.984-4.646,2.409-6.865,1.17c-2.5-1.396-2.323-4.036-1.371-6.586c1.115-2.987,3.035-5.734,2.85-9.129   c4.282,0.698,6.338,5.516,10.812,5.857c0,0,0-0.001,0-0.001c-4.474-0.341-6.531-5.159-10.812-5.857   c-0.326,0-0.647-0.045-0.964-0.135c-4.25,0.627-5.987-3.917-9.576-4.652c-1.685-1.748-1.047-3.97-1.224-6.024   c1.431-1.492,2.779-3.148,4.974-3.117c-2.195-0.032-3.544,1.625-4.975,3.117c-1.04-0.086-2.079-0.17-3.118-0.255   c-0.479,0.112-0.954,0.238-1.426,0.375c0,0,0,0,0,0.001c0.473-0.137,0.947-0.263,1.427-0.375c1.039,0.085,2.078,0.169,3.118,0.255   c0.178,2.054-0.46,4.275,1.225,6.024c3.589,0.735,5.326,5.279,9.576,4.652c-4.263,5.665-10.499,5.824-14.623,0.214   c-1.439-1.96-2.395-4.278-3.569-6.434c0.965-0.493,1.929-0.986,2.894-1.479c0,0,0,0,0,0c0,0,0,0,0-0.001   c-0.965,0.493-1.93,0.986-2.896,1.479c-0.37-2.98-0.939-5.959-0.133-8.956c0,0,0,0,0.001,0c0.061-3.011,0.119-6.02,0.179-9.028   c0.412-8.638,3.614-15.642,11.607-19.828c0.005-0.01,0.042-0.106,0.042-0.106c-0.764-1.472,0.316-2.005,1.313-2.58   c2.461-3.271,5.427-5.927,9.227-7.564c0,0.006,0,0.011,0.001,0.017c0.519-0.373,1.037-0.745,1.556-1.117   c0.989-0.132,1.979-0.262,2.97-0.394c0,0-0.001,0-0.001-0.001c0,0,0.001,0,0.001,0.001h0c0,0,0,0,0,0.001   c5.303,4.337,9.426-3.191,12.638-2.089c6.183,2.122,11.281-1.559,16.777-0.762c7.807,1.133,4.262,7.565,5.093,11.933   c0.015-0.015,0.025-0.03,0.04-0.045l-0.002,0.005c0.001-0.001,0.001-0.002,0.002-0.003l0.001-0.002   c0.023,0.035,0.039,0.069,0.062,0.104c3.509,1.263,5.955-6.202,9.301-1.669c2.591,3.51,3.546,8.145,2.181,12.738   c-0.125,0.424-0.621,0.735-0.944,1.099c-0.377-2.943-1.931-3.349-4.6-2.554c-3.429,1.021-6.99,1.603-10.499,2.371   c0.494-2.445,4.252-2.675,3.884-5.707c0.041-0.538,0.201-1.065,0.391-1.589c-0.19,0.524-0.35,1.052-0.392,1.59   c0,0-0.001-0.001-0.001-0.001c0.369,3.033-3.389,3.262-3.883,5.708c-2.658,4.669-5.128,2.025-7.662-0.165   c-2.695-2.33-3.85,0.908-5.656,1.688c-0.954,0.413-1.555,1.243-1.488,2.152c-0.065-0.909,0.534-1.738,1.488-2.15   c1.808-0.78,2.961-4.02,5.656-1.688c2.534,2.19,5.004,4.834,7.662,0.164c3.508-0.77,7.07-1.35,10.499-2.371   c2.669-0.795,4.223-0.391,4.6,2.554c-0.485,0.944-0.973,1.891-1.458,2.836c-1.047,6.061-5.181,10.677-7.56,16.114   c-0.805,1.835-3.396,3.161-3.719,1.273c-0.97-5.716-8.146-6.9-8.428-12.716c-9.081,5.12-14.643,1.654-16.106-9.865   c-2.141,5.714-4.281,11.428-6.42,17.143c0.576,0.029,1.151,0.061,1.728,0.092c4.687,2.376,0.24,5.648,0.83,8.43   c-0.797,0.926-1.396,1.887-0.597,3.117l0,0c-0.799-1.23-0.2-2.191,0.597-3.117c0.48,0.521,0.962,1.042,1.447,1.563   c8.472-2.216,8.788-1.927,8.614,6.775c-0.028,1.349,0.576,2.709,0.92,4.065c0.031,0.004,0.055,0,0.088,0.006v0.001h0.001   c0.001,0.044-0.015,0.074-0.016,0.117c3.543-1.68,7.375-3.289,10.755-0.423c2.758,2.34,0.834,5.312-0.486,7.897h0.001   c-0.301,1.83-0.602,3.658-0.908,5.521c3.1,0.358,3.867-1.739,4.855-3.306c3.318-5.268,6.166-3.518,10.215-0.478   c1.021,0.767,4.58-6.125,9.025-3.825c1.68,0.869,2.5,3.403,3.643,5.076c2.191-0.17,2.596-1.847,3.187-3.054   c2.428-4.988,5.553-6.251,9.662-1.928c1.271,1.338,2.161,1.834,3.476,0.312h-0.001c1.922-4.064,3.807-8.21,9.388-4.32   c-0.178,0.008-0.329,0.033-0.492,0.05c0.163-0.018,0.315-0.042,0.493-0.05c0.797,1.897,1.513,4.072,3.896,1.361   c1.869-2.125,4.053-4.289,6.812-2.065c2.492,2.012,1.451,4.803,0.287,7.423c-0.451,1.017-0.062,2.405-0.055,3.625   c0.25-0.004,0.555,0.086,0.74-0.022c2.883-1.718,4.733-6.592,9.096-3.861c3.666,2.293,1.586,6.196,1.035,9.252   c1.479,0.826,2.174,0.168,2.896-0.525c1.516-1.455,2.531-4.153,5.393-2.635c2.789,1.483,3.659,4.146,3.062,7.016   c-1.008,4.835-2.367,9.598-3.585,14.389c-0.581,2.287-2.203,4.66,0.595,6.64c1.073-2.029,2.146-4.059,3.224-6.088   c3.955-0.355,7.797,0.173,11.537,1.496c-0.38,1.925-0.758,3.85-1.137,5.776c-1.961,2.956-4.2,0.764-6.373,0.384   c-1.452-0.254-2.833-0.352-3.145,0.637c0.312-0.988,1.692-0.89,3.146-0.636c2.173,0.38,4.412,2.572,6.373-0.384   c3.545-1.606,5.465-8.193,10.121-5.239c4.828,3.064,0.246,8.069-0.199,12.095c-0.321,2.912-2.774,5.588-4.277,8.369h-0.001   c-0.102,1.516-0.202,3.029-0.304,4.545c-0.312,0.504-0.623,1.011-0.935,1.517c-0.143,0.943-0.285,1.891-0.426,2.834   c-0.469,0.519-0.938,1.034-1.406,1.553c-1.222,4.792-4.137,9.167-3.91,15.799l0.001-0.001c-0.227-6.631,2.689-11.006,3.91-15.799   c0.469-0.52,0.938-1.034,1.406-1.553c1.197,0.063,2.395,0.127,3.592,0.189c-0.738,4.382-2.759,8.073-5.359,11.999   c2.601-3.925,4.621-7.616,5.359-11.998c4.234-4.146,4.938-10.182,7.98-14.993c1.346-2.124,2.569-3.7,5.209-2.912   C438.596,269.053,437.641,271.429,437.419,273.226z"
             id="path70" /><path
             fill="none"
             d="M323.876,188.875c0.413,0.928,0.667,2.28,0.72,4.176C324.543,191.155,324.289,189.803,323.876,188.875z"
             id="path72" /><path
             fill="none"
             d="M293.133,176.267c0.32-0.711,0.043-2.319,1.369-1.647c0.106,0.054,0.19,0.121,0.256,0.199   c-0.065-0.079-0.15-0.146-0.257-0.2C293.175,173.947,293.452,175.556,293.133,176.267c-0.891,1.125-1.781,2.252-2.673,3.379   c0,0.001,0,0.002,0,0.003C291.352,178.522,292.242,177.395,293.133,176.267L293.133,176.267z"
             id="path74" /><path
             fill="none"
             d="M287.215,178.094c-0.091,1.448-0.773,2.173-1.683,2.627C286.441,180.268,287.124,179.543,287.215,178.094z"
             id="path76" /><path
             fill="none"
             d="M289.381,206.637c-0.279-0.123-0.558-0.247-0.837-0.37C288.823,206.39,289.101,206.514,289.381,206.637   C289.381,206.637,289.381,206.637,289.381,206.637z"
             id="path78" /><path
             fill="none"
             d="M275.213,214.824c0,0.67,0,1.466,0,2.481c0,0,0,0.001,0.001,0.001   C275.213,216.291,275.213,215.494,275.213,214.824z"
             id="path80" /><path
             fill="none"
             d="M279.94,183.073c-1.047-1.519-2.873-2.707-2.839-4.689C277.067,180.366,278.893,181.553,279.94,183.073z"
             id="path82" /><path
             fill="none"
             d="M299.094,217.65c1.538,4.858,1.538,4.858,7.868,2.347h0.001c0.23-0.742,0.213-1.722,1.392-1.559v0   c-1.18-0.164-1.161,0.816-1.393,1.558C300.633,222.509,300.633,222.509,299.094,217.65c-1.875,1.412-2.605,3.291-2.529,5.535   C296.49,220.942,297.219,219.063,299.094,217.65z"
             id="path84" /><path
             fill="none"
             d="M290.116,181.043c0.188-0.445,0.303-0.91,0.344-1.394C290.419,180.132,290.304,180.596,290.116,181.043z"
             id="path86" /><path
             d="M569.899,161.148L428.01,20.591l-2.454,7.839c-1.253,4.003-0.568,7.097,0.592,9.4c-0.125-0.007-0.239-0.03-0.368-0.03   c-0.294,0-0.586,0.022-0.878,0.06c-0.444-1.784-1.553-4.004-4.226-5.847c-1.592-1.098-3.23-1.655-4.869-1.655   c-3.613,0-5.709,2.576-6.835,3.959c-0.209,0.257-0.419,0.521-0.646,0.764c-3.622,3.857-7.563,7.943-11.844,11.693   c-2.951,2.585-6.039,5.161-9.024,7.653c-6.893,5.752-13.988,11.684-20.373,18.467l-0.015-0.156l-2.118,2.297   c-2.434,1.578-4.408,3.731-5.904,6.405c-1.556,1.689-3.105,3.383-4.655,5.078c-4.271,4.674-8.688,9.507-13.147,14.098   c-0.719,0.741-1.312,1.559-1.835,2.281c-0.126,0.174-0.275,0.38-0.427,0.582c-0.816-0.432-1.67-0.936-1.853-1.264   c-0.009-0.073,0.014-0.379,0.224-0.915c0.726-1.842,0.647-3.998-0.213-5.916c-0.897-2-2.559-3.57-4.557-4.305   c-0.833-0.307-1.686-0.462-2.534-0.462c-3.693,0-5.776,2.79-6.779,4.133c-1.524,2.045-3.171,4-4.914,6.069l-1.042,1.24   c-14.172,16.913-30.172,32.709-45.758,47.989l-0.008-0.124l-7.79,7.773c-0.01,0.01-0.021,0.021-0.031,0.031l-1.578,1.551   l0.001,0.024c-4.679,4.67-9.356,9.342-14.032,14.014c-11.017,11.008-22.409,22.391-33.644,33.551   c-17.006,16.895-34.839,33.577-52.084,49.71c-32.665,30.557-66.441,62.155-96.334,96.792c-3.087,3.579-6.474,6.854-10.059,10.319   c-6.179,5.975-12.56,12.158-17.324,20.027l-0.032,0.048c-0.009,0.014-0.016,0.027-0.025,0.041   c-0.033,0.054-0.069,0.104-0.102,0.159l-0.217,0.362c-0.504,0.786-0.988,1.584-1.436,2.4l-3.25,5.432l0.764-0.051   c-4.729,12.512-3.601,27.186,3.475,38.85c4.83,7.959,11.54,13.362,18.029,18.588c2.252,1.813,4.379,3.525,6.444,5.35   c12.275,10.84,24.09,22.666,35.516,34.103c10.606,10.615,21.573,21.592,32.977,31.861c5.074,4.568,10.123,9.389,15.005,14.052   c11.055,10.556,22.488,21.453,35.386,30.613c2.423,3.578,6.058,5.479,10.612,5.479c0.78,0,1.61-0.055,2.469-0.161   c11.509-1.437,20.507-6.043,26.744-13.693c17-20.85,35.853-40.732,54.084-59.961c8.551-9.019,17.394-18.345,25.952-27.671   c3.661-3.989,7.313-7.986,10.966-11.982c23.968-26.227,48.751-53.346,75.468-77.595c11.904-10.81,23.82-22.516,35.416-34.795   l21.281-21.715l7.971-7.7c2.025-1.086,3.763-2.586,5.189-4.473c0.574-0.387,1.091-0.862,1.509-1.436l1.101-1.201l0.639-0.96   c5.745-4.423,10.692-9.569,15.473-14.561c1.125-1.174,2.25-2.348,3.384-3.512c1.652-1.629,3.778-3.012,6.029-4.476   c3.922-2.551,8.277-5.383,11.147-10.211c0.718,0.338,1.568,0.576,2.553,0.576c1.188,0,3.457-0.385,5.317-2.966   c2.425-3.368,1.839-7.703-1.494-11.045c-2-2.003-4.065-3.921-6.118-5.805l0.597-0.296l-6.098-4.749l-2.387-2.207l-0.028,0.014   c-0.872-1.003-0.939-1.518-0.939-1.521c0.001-0.01,0.269-1.044,3.056-2.757c1.162-0.714,1.89-1.645,2.325-2.201   c0.067-0.087,0.133-0.176,0.193-0.245c6.1-6.371,11.998-13.063,17.703-19.535c10.437-11.839,21.228-24.082,33.363-34.435   c2.421-2.068,4.964-3.973,7.656-5.989c1.528-1.145,3.058-2.291,4.559-3.463c1.842-1.436,7.239-6.333,4.337-12.343   c1.095-0.309,2.188-0.778,3.271-1.449L569.899,161.148z M353.11,115.203c5.134-5.053,9.879-10.528,14.467-15.823   c1.867-2.154,3.734-4.309,5.628-6.436l8.58-8.763l7.298-5.967l0.184-2.101c0.009-0.109,0.024-0.28,0.044-0.477l0.1,0   c1.489-0.001,2.502-0.658,2.834-0.874l2.939-1.908l-0.163-0.701l1.183-0.675c4.669-2.707,9.228-6.344,14.347-11.445   c3.122-3.112,6.175-6.2,9.061-9.467c1.108,2.112,2.637,4.176,4.506,6.006c2.209,2.162,4.414,4.327,6.619,6.492   c14.329,14.068,29.123,28.567,44.637,42.041c-1.616,1.927-3.31,3.098-5.391,3.757c-4.601,1.458-5.999,4.351-6.423,5.945   c-0.081,0.305-0.146,0.639-0.189,0.994l-4.522,0.934l7.442,6.442l1.73,1.877l0.442-0.091c0.06,0.047,0.115,0.096,0.175,0.143   c1.31,1.038,2.548,2.019,3.356,3.028c0.791,0.989,1.705,1.729,2.555,2.339c-1.5,1.132-2.83,2.563-3.883,4.27   c-0.599,0.969-1.053,1.449-1.31,1.672c-0.337-0.212-0.99-0.729-1.929-1.928c-2.951-3.777-6.224-5.692-9.727-5.692   c-4.876,0-8.341,3.65-11.177,6.638c-1.544,1.626-2.639,3.456-3.604,5.07c-0.297,0.496-0.598,0.988-0.907,1.473   c-1.04-1.135-2.718-2.536-5.253-2.536c-1.792,0-3.484,0.72-5.033,2.143c-3.435,3.158-3.686,8.192-0.63,12.52   c0.988,1.405,2.245,2.244,3.163,2.856c0.029,0.02,0.057,0.04,0.086,0.06c0.318,0.366,0.685,0.682,1.084,0.955   c1.741,2.112,3.382,4.148,3.738,5.034c-0.436,1.044-2.688,3.654-4.885,6.201l-0.245,0.283c-0.296,0.343-0.604,0.706-0.916,1.08   c-4.671-6.309-8.185-10.074-12.995-10.074c-2.589,0-4.777,1.092-6.967,2.987l-0.455-1.466l-5.15,7.474   c-0.1-0.091-0.211-0.183-0.314-0.275l-0.333-4.463l-3.781,1.551l-0.222-0.161l-0.106-0.186l-0.062-0.659l-2.692-2.802l-0.114-0.116   c-0.012-0.01-0.021-0.021-0.033-0.032l-26.454-27.491l1.938,3.38c-7.396-7.257-14.892-14.563-22.378-21.729   c-0.236-0.227-0.43-0.42-0.587-0.585C352.594,115.724,352.822,115.487,353.11,115.203z M479.493,268.146   c-1.515,0.994-3.082,2.021-4.495,3.201c-1.065,0.89-1.998,1.811-2.899,2.702c-0.323,0.319-0.646,0.637-0.974,0.952   c-7.016,5.606-13.071,12.126-18.927,18.437c-0.779,0.84-1.56,1.679-2.341,2.517c-12.604,11.462-25.355,24.263-38.971,39.121   c-6.45,6.175-13.076,12.397-19.486,18.418c-14.316,13.444-29.12,27.348-43.05,41.717c-34.345,35.431-68.64,72.026-101.807,107.417   l-9.872,10.533c-8.053,8.592-16.048,18.216-23.762,28.605c-4.449,5.996-9.207,9.855-14.885,12.056   c-12.274-2.572-21.012-11.015-30.234-19.956c-1.459-1.415-2.915-2.826-4.38-4.209c-20.8-19.637-41.668-39.924-61.849-59.542   c-10.049-9.77-20.441-19.871-30.7-29.772c-2.877-2.776-5.975-5.249-8.971-7.641c-0.745-0.595-1.49-1.189-2.231-1.789   c-18.709-15.112-12.714-30.252-7.295-38.099c6.885-7.312,13.811-14.792,20.511-22.029c15.127-16.342,30.77-33.24,46.816-49.113   c19.022-18.816,38.814-37.533,57.955-55.633c14.164-13.394,28.811-27.244,43.057-41.051c12.886-12.49,25.572-25.562,37.841-38.205   c5.467-5.633,11.118-11.457,16.708-17.147c19.983-17.333,36.926-34.779,51.789-53.324c0.267-0.333,0.505-0.676,0.722-1.011   c0.014,0.009,0.028,0.019,0.042,0.028c0.237,0.161,0.533,0.361,0.801,0.553c-1.647,2.771-1.851,5.818-0.534,8.202   c1.155,2.09,3.293,3.338,5.719,3.338c1.341,0,2.688-0.378,4.002-1.123c0.206-0.117,0.369-0.196,0.487-0.249   c0.311,0.271,0.746,0.723,1.062,1.05c0.387,0.4,0.781,0.807,1.195,1.201c13.92,13.237,27.868,26.445,41.816,39.654l13.209,12.512   c15.745,19.044,34.095,35.834,51.588,51.145c6.92,6.055,13.826,12.407,20.504,18.55c2.863,2.633,5.729,5.265,8.603,7.886   c1.507,2.5,3.803,4.205,5.693,5.604c0.543,0.401,1.266,0.937,1.782,1.379C482.802,265.977,480.794,267.293,479.493,268.146z    M524.469,183.141c-9.822,10.583-19.723,21.412-29.296,31.884c-5.934,6.491-11.867,12.981-17.822,19.458   c-0.252,0.274-0.481,0.549-0.694,0.815c-15.258-14.159-35.189-32.569-55.562-50.861c-1.994-1.791-2.469-2.75-2.575-3.037   l1.597-1.531c0.084,0.065,0.188,0.136,0.276,0.203c1.479,3.006,3.895,5.652,7.357,8.042l0.253,0.175   c1.581,1.097,3.97,2.756,7.018,2.755c1.979,0,4.836-0.701,7.207-4.041c0.498-0.702,0.991-1.414,1.483-2.127   c4.052-5.863,6.766-9.456,11.293-9.456c1.729,0,3.773,0.503,6.078,1.496l14.424,6.215l-8.176-13.41   c-4.087-6.701-8.46-11.73-14.061-16.199c-0.14-0.272-0.206-0.459-0.228-0.548c0.271-0.512,1.459-1.542,2.184-2.168   c0.878-0.761,1.869-1.62,2.747-2.625c0.351,0.27,0.863,0.721,1.611,1.466c2.058,2.049,5.277,4.772,9.455,4.772   c5.235,0,8.775-4.347,9.938-5.775c1.806-2.217,4.546-4.057,7.447-6.004c0.275-0.185,0.558-0.379,0.836-0.567l0.338,0.323   l3.306-2.897l4.542-3.435l-0.874-0.834c1.445-2.198,2.625-4.982,1.869-7.647c-0.639-2.249-2.508-3.893-4.88-4.292   c-2.072-0.348-3.199-1.603-5.174-3.976c-0.545-0.655-1.12-1.338-1.742-2.013c0.761-0.548,1.659-1.108,2.711-1.75   c0.041-0.025,0.081-0.05,0.122-0.075c6.257,6.056,12.751,11.956,19.058,17.667c11.122,10.075,22.623,20.492,32.734,31.813   c0.986,1.102,2.04,2.001,3.152,2.714C535.324,172.732,529.404,177.824,524.469,183.141z"
             id="path88" /><path
             d="M159.499,417.141c-4.762-2.347-9.933-3.536-15.368-3.536c-16.55,0-30.779,10.771-33.499,25.189   c-6.434,12.271-4.641,25.158,5.137,36.386c7.68,8.821,17.986,13.786,29.94,14.484l0.019,0.588l5.176-0.54l4.806-0.189l-0.017-0.508   c17.127-3.253,25.687-14.11,26.112-33.074C182.209,437.948,174.495,424.531,159.499,417.141z M159.049,466.54   c-3.083,3.247-8.494,4.874-16.971,5.107c-8.253-2.488-14.749-5.157-17.413-12.914c-1.082-3.148-0.944-6.628-0.798-10.312   c0.084-2.142,0.163-4.343,0.03-6.618c4.891-7.13,9.977-10.789,16.772-12.133c0.91-0.18,1.862-0.271,2.832-0.271   c9.75,0,19.622,8.774,19.929,17.714C163.764,456.866,162.373,463.039,159.049,466.54z"
             id="path90" /><path
             d="M435.798,268.219c-2.64-0.788-3.863,0.788-5.209,2.912c-3.042,4.812-3.746,10.848-7.98,14.993   c-0.738,4.382-2.759,8.072-5.359,11.998c2.601-3.925,4.621-7.616,5.359-11.999c-1.197-0.062-2.395-0.126-3.592-0.189   c-0.468,0.519-0.938,1.033-1.406,1.553c-1.221,4.793-4.137,9.167-3.91,15.799l-0.001,0.001c-0.227-6.631,2.688-11.006,3.91-15.799   c0.468-0.519,0.938-1.034,1.406-1.553c0.141-0.943,0.283-1.891,0.426-2.834c0.312-0.506,0.623-1.013,0.935-1.517   c0.102-1.516,0.202-3.029,0.304-4.545h0.001c1.503-2.781,3.956-5.457,4.277-8.369c0.445-4.025,5.027-9.03,0.199-12.095   c-4.656-2.954-6.576,3.633-10.121,5.239c-1.961,2.956-4.2,0.764-6.373,0.384c-1.453-0.254-2.833-0.352-3.146,0.636   c0.312-0.989,1.692-0.891,3.145-0.637c2.173,0.38,4.412,2.572,6.373-0.384c0.379-1.927,0.757-3.852,1.137-5.776   c-3.74-1.323-7.582-1.852-11.537-1.496c-1.077,2.029-2.15,4.059-3.224,6.088c-2.798-1.98-1.176-4.354-0.595-6.64   c1.218-4.791,2.577-9.554,3.585-14.389c0.598-2.87-0.272-5.532-3.062-7.016c-2.861-1.519-3.877,1.18-5.393,2.635   c-0.722,0.693-1.416,1.352-2.896,0.525c0.551-3.056,2.631-6.959-1.035-9.252c-4.362-2.73-6.213,2.144-9.096,3.861   c-0.186,0.108-0.49,0.019-0.74,0.022c-0.007-1.22-0.396-2.608,0.055-3.625c1.164-2.62,2.205-5.411-0.287-7.423   c-2.759-2.224-4.942-0.06-6.812,2.065c-2.384,2.711-3.1,0.536-3.896-1.361c-0.178,0.008-0.33,0.033-0.493,0.05   c0.163-0.018,0.314-0.042,0.492-0.05c-5.581-3.89-7.466,0.256-9.388,4.32h0.001c-1.314,1.522-2.205,1.026-3.476-0.312   c-4.109-4.323-7.234-3.061-9.662,1.928c-0.591,1.207-0.995,2.884-3.187,3.054c-1.143-1.673-1.963-4.207-3.643-5.076   c-4.445-2.3-8.005,4.592-9.025,3.825c-4.049-3.04-6.896-4.79-10.215,0.478c-0.988,1.566-1.756,3.664-4.855,3.306   c0.307-1.862,0.607-3.69,0.908-5.521h-0.001c1.32-2.586,3.244-5.558,0.486-7.897c-3.38-2.865-7.212-1.257-10.755,0.423   c0.001-0.042,0.017-0.072,0.016-0.117h-0.001v-0.001c-0.033-0.006-0.057-0.002-0.088-0.006v0c-1.179-0.163-1.161,0.817-1.392,1.559   h-0.001c-6.33,2.512-6.33,2.512-7.868-2.347c-1.875,1.413-2.605,3.292-2.529,5.535c0,0,0,0,0,0.001   c-4.474-0.341-6.531-5.159-10.812-5.857c0.186,3.395-1.734,6.142-2.85,9.129c-0.952,2.55-1.129,5.19,1.371,6.586   c2.219,1.239,4.813,0.814,6.865-1.17c2.509-2.429,4.463-5.183,5.452-8.563c2.704,1.324,0.692,3.913,1.515,5.741   c2.187-0.045,4.192,1.925,6.64-0.558c1.19-1.207,2.686-1.472,3.768-0.625c-1.082-0.847-2.577-0.582-3.767,0.625   c-2.448,2.483-4.453,0.513-6.64,0.558c-1.96,3.531-2.531,7.477-3.142,11.362c-0.41,2.623,0.557,5.184,3.141,6.131   c2.58,0.948,3.26-1.968,4.225-3.378c2.735-3.998,5.031-8.295,7.498-12.478c-0.049,2.274-0.1,4.546-0.151,6.822c0,0,0,0,0,0.001   c-1.872,3.287-2.133,7.005-2.728,10.611c-0.377,2.293-0.02,4.568,2.242,5.869c2.062,1.187,3.752-0.123,5.497-1.086   c1.608-0.889,3.248-4.428,5.144-0.838c3.107,5.891,5.273,3.743,8.479-0.004c2.542-2.969,4.862-5.967,6.286-10.127   c2.043,4.593-1.928,11.313,4.912,12.322c6.443,0.948,5.821-6.228,8.589-9.587c7.354,5.964,9.983,5.124,13.054-4.341   c0.683-2.108,1.12-4.298,1.67-6.452c-0.033-0.015-0.064-0.022-0.098-0.037c0.355-0.606,0.712-1.216,1.07-1.823   c0.641-1.146,1.272-1.112,1.895,0.018c2.819,0.264,6.427-0.479,8.301,0.989c-1.874-1.468-5.482-0.725-8.301-0.989   c-0.447,2.173-1.145,4.329-1.282,6.522c-0.229,3.734-5.19,8.606,0.769,10.948c5.423,2.132,4.44-5.287,7.609-7.104   c0.006,0.005,0.316,0.272,0.313,0.27c0.315-0.553,0.668-1.089,0.914-1.671c0.009-0.02-0.016-0.054-0.06-0.096   c0.045,0.043,0.07,0.078,0.062,0.098c-0.246,0.582-0.599,1.118-0.914,1.671c0.375,4.396-0.109,9.592,6.885,8.434   c2.127-0.354,1.904,0.959,1.883,2.028c-0.055,3.037-0.09,6.192,2.941,7.832c4.229,2.285,4.001-4.182,7.438-4.099   c0.123,1.751,0.242,3.455,0.364,5.158c-0.001,0-0.001,0-0.002,0c0.094,0.746,0.188,1.492,0.282,2.238c0.001,0,0.002,0,0.002,0   c0.001,0.003,0.053,0.189,0.059,0.196c0.433-0.059,0.857-0.129,1.282-0.195c0.002,0,0.003,0,0.005,0   c-0.428,0.066-0.854,0.136-1.289,0.196c-0.166,0.559-0.33,1.125-0.491,1.691c4.464-0.401,8.927-0.803,13.392-1.205   c-4.464,0.402-8.928,0.804-13.391,1.205c-2.217,3.331-0.424,5.891,2.118,7.562c3.007,1.972,4.865-1.171,6.957-2.602   c1.785-1.219,1.964-4.092,4.511-4.644c0.6-0.277,1.199-0.555,1.8-0.832l0.001,0c-0.601,0.276-1.201,0.555-1.801,0.832   c-0.006,3.524-0.014,7.052-0.021,10.575c-0.095,1.904-0.189,3.806-0.284,5.71c-2.412,8.188-7.45,13.646-15.998,15.304   c-0.685-1.765,0.818-3.177,1.054-4.85c0.353-2.486,2.567-5.807-1.226-7.043c-3.144-1.027-5.425,0.889-6.813,4.16   c-0.885,2.089-1.912,4.623-5.15,5.376c0.425-3.42,0.957-6.589,1.194-9.779c0.784-10.55-0.663-11.693-10.22-8.056   c-0.287-2.794-0.386-5.462,0.75-8.085c1.024-2.367,0.486-4.534-1.673-5.876c-2.07-1.287-3.735,0.342-5.364,1.418   c-2.107,1.39-3.99,2.986-4.648,5.59c6.995,2.083,9.551,5.254,8.171,10.183c1.379-4.927-1.177-8.098-8.171-10.182   c-3.473,4.519-5.211,9.898-7.442,15.033c-1.637,2.684-4.784,6.473-1.706,8.38c3.654,2.266,4.769-2.839,6.592-5.244   c0.115-0.15,0.693,0.051,1.012,0.082c1.451,5.124-4.974,12.545,4.441,15.124c6.558,1.798,5.536-5.555,8.907-7.826   c1.621,5.091-0.465,9.823-1.057,14.616c-0.551,4.472,2.233,6.593,5.387,5.843c3.168-0.751,4.035-0.935,3.703,2.438   c-0.326,3.333,2.426,4.031,4.592,5.045c2.646,1.242,3.261-1.549,4.595-2.733c1.27-1.133,2.233-2.608,3.416-4.033   c2.983,6.351,6.733,8.718,8.61,5.688c4.258-6.874,6.191,5.581,9.578,0.612c0.698-1.022,1.541-1.957,2.39-2.865   c3.274-3.504,5.264-7.81,7.623-11.899c0.961-1.666,1.282-3.888,3.325-4.802c13.685-6.112,14.291-18.884,15.806-31.151   C437.641,271.429,438.596,269.053,435.798,268.219z M309.886,230.544c2.276-2.332,4.538-4.691,8.079-4.568   C314.426,225.853,312.164,228.212,309.886,230.544z M320.784,240.194c0.262,0.171,0.504,0.266,0.728,0.297   C321.288,240.46,321.046,240.365,320.784,240.194z M321.996,236.975c0.68,0.318,1.074,0.833,1.148,1.49   C323.069,237.808,322.675,237.293,321.996,236.975z M329.977,244.308C329.977,244.308,329.977,244.308,329.977,244.308   c0.428-0.842,0.893-1.55,1.386-2.153C330.87,242.759,330.405,243.466,329.977,244.308z M352.437,237.638   c1.272-0.937,2.452-2.113,3.739-3.018C354.889,235.526,353.71,236.701,352.437,237.638z M366.312,227.937   C366.312,227.937,366.312,227.937,366.312,227.937c1.028-2.699,0.036-6.552,3.267-7.625   C366.349,221.385,367.342,225.24,366.312,227.937z M360.18,287.674c0.376,0.016,0.736,0.41,1.104,0.638   C360.916,288.084,360.556,287.689,360.18,287.674z M408.084,277.874c2.996,0.699,5.991-0.628,8.987-1.018   C414.075,277.246,411.08,278.573,408.084,277.874z"
             id="path92" /><path
             d="M248.674,351.487c-1.041-0.729-4.544-1.324-1.223-4.786c2.365-2.465,2.164-7.39,3.105-11.216   c1.206-4.255,2.068-8.611,4.38-12.509c1.16-1.958,2.107-4.971,0.254-6.199c-2.648-1.756-3.518,1.666-4.794,3.254   c-2.331,2.9-4.385,6.029-6.784,8.868c-11.484,13.581-11.46,15.329,0.85,28.216c6.555,6.861,7.855,6.621,11.402-2.094   c0.142-0.353,0.479-0.625,0.773-0.994c1.618,1.705,2.062,4.264,4.437,4.84c3.464-1.453,2.854-6.324,6.544-7.69   c1.068,3.171-0.438,5.929-0.797,8.812c-0.278,2.221-0.033,4.881,1.916,6.135c2.19,1.412,3.138-1.799,4.961-2.3   c0.234-0.473,0.092-1.406,0.458-1.678c-0.366,0.272-0.223,1.204-0.458,1.677c0.22,0.201,0.443,0.396,0.662,0.585   c0,0,0,0.001-0.001,0.001c0.658,3.174-2.685,7.931,1.777,9.236c2.994,0.874,3.35-4.207,5.19-6.392   c0.702-0.833,1.176-1.475,2.488-1.229c-0.256,2.08-0.66,4.182-0.74,6.296c-0.123,3.243-0.402,7.519,2.641,8.753   c3.585,1.454,3.446-3.959,5.891-5.34c0.374-0.211,0.903-0.144,1.458-0.215c0.815,3.496,0.213,6.855-0.538,10.271   c-0.751,3.41-1.271,7.958,2.216,9.183c3.235,1.137,3.621-3.919,5.601-5.941c0.487-0.653,0.979-1.31,1.467-1.966l0.001,0.001   c-0.488,0.656-0.979,1.313-1.467,1.966c0.424,0.363,0.849,0.726,1.267,1.083c-0.393,3.244-0.792,6.486-1.19,9.728   c4.618-0.157,7.924-7.107,13.969-2.244c1.089,0.879,5.562-3.41,3.521-7.673c-0.666,0.349-1.33,0.7-1.996,1.053   c-0.069-0.478-0.179-0.95-0.33-1.412c0.008-6.924,7.408-13.435-1.989-20.998c-6.097-4.907-6.652-0.36-9.511,1.541   c-1.928-0.051-3.854-0.102-5.784-0.153c-0.001,3.153-0.001,6.302-0.001,10.519c0.743-0.962,1.416-1.872,2.023-2.75   c-0.607,0.879-1.281,1.789-2.025,2.753c0-4.217,0-7.366,0.001-10.519c0.374-1.689,1.299-3.48,1.008-5.047   c-0.588-3.141,3.019-7.515-0.045-8.897c-4.01-1.812-4.712,3.942-7.261,5.943c-0.328,0.258-0.785,0.351-1.209,0.53   c-0.898-4.943,4.113-10.846-0.838-14.598c-3.785-2.867-4.662,3.714-8.075,5.113c-0.137-1.498-0.247-2.692-0.355-3.886   c0.174-0.109,0.44-0.207,0.457-0.335c0.043-0.343-0.04-0.702-0.072-1.054c0-0.001,0-0.003,0.001-0.004   c0.169-1.079,0.338-2.162,0.508-3.243c0-0.002-0.001-0.003-0.001-0.005c0.073-0.484,0.145-0.967,0.215-1.449   c0-0.001,0.001-0.001,0.002-0.002c0.007-0.507,0.013-1.013,0.02-1.519c-0.333-0.584-0.665-1.168-0.997-1.755   c-1.158,0.056-2.315,0.108-3.471,0.162c-1.691,1.159-2.717,1.754-3.125-1.285c-0.356-2.636,0.148-6.863-3.421-7.177   c-3.33-0.293-3.666,3.946-5.245,6.258c-0.229,0.335-0.001,1.751-1.181,0.703c-0.164-0.96-0.328-1.922-0.491-2.883   c-3.447,1.084-4.097-4.588-7.679-3.179c-0.758,1.119-1.516,2.237-2.274,3.356c-0.172,1.923-0.346,3.848-0.519,5.773   c8.18,5.768,17.89,6.074,27.25,7.626c0,0,0,0.001,0,0.001c-9.361-1.552-19.07-1.859-27.252-7.626c0,0,0-0.001,0.001-0.001   c0.173-1.925,0.347-3.85,0.519-5.773c-1.403-0.076-2.808-0.149-4.209-0.226c-0.941,3.826-0.74,8.751-3.105,11.216   C244.131,350.162,247.634,350.757,248.674,351.487c0.816,0.569,1.344,0.674,1.711,0.511   C250.018,352.162,249.489,352.057,248.674,351.487z M314.711,393.381c-0.514-0.364-1.357-0.642-1.479-1.108   C313.354,392.738,314.197,393.016,314.711,393.381z"
             id="path94" /><path
             d="M378.149,349.372c-1.931-1.164-3.232-0.249-4.316,1.397c-1.724,2.622-3.217,5.489-6.692,6.776   c-0.637-4.611,4.812-11.714-5.012-12.259c-0.154-0.008-0.48-0.857-0.365-1.188c3.221-9.137-2.932-7.357-8.151-6.186   c2.462-9.489,2.415-9.646-5.825-7.25c-4.901,1.426-2.909-2.327-3.536-4.162c-0.604-2.948,3.049-8.437-4.368-7.322   c-0.902,0.478-1.806,0.954-2.707,1.433c-0.695,0.483-1.393,0.963-2.083,1.438c-1.207-4.767,4.826-13.837-7.307-12.173   c-1.467,0.202-1.806-1.456-1.741-2.742c0.457-9.2-4.781-8.67-10.964-6.107c-1.328-10.396-1.328-10.396-8.348-11.977   c0.55-5.422-0.369-9.08-7.22-6.607c-1.822,0.658-1.379-1.45-1.812-2.411c-4.268-0.221-5.126,1.374-5.088,3.464   c-0.038-2.091,0.82-3.687,5.088-3.465c0.342-3.314,0.967-6.826-4.326-6.215c-3.139,0.363-2.825-1.867-2.934-3.84   c-0.133-2.365,0.672-5.385-2.637-6.117c-2.653-0.586-3.714,2.111-5.113,3.668c-1.459,1.621-2.449,3.666-3.643,5.525   c-0.363-0.3-0.723-0.606-1.073-0.914c-0.833,0.874-1.418,1.783-0.46,2.937c-0.96-1.155-0.375-2.064,0.459-2.938   c0.57-2.149,1.246-4.276,1.692-6.449c0.567-2.744,2.845-5.421-0.022-8.314c-2.988-3.014-5.647,0.137-8.504,0.769   c-0.694-4.617,3.034-11.141-5.652-10.598c-0.2,0.014-0.335-1.393-0.75-1.953c-2.722-3.679-8.906-4.405-8.602-10.915   c0.074-1.564-3.415-1.514-5.272-0.618c-1.705,0.819-3.209,2.06-5.076,3.296c-0.705-4.812,4.186-10.092-0.862-13.479   c-3.549-2.382-5.222,3.003-8.04,4.208c-1.525-2.255,0.855-4.266,0.084-6.827c-7.276,6.624-14.318,13.036-21.621,19.684   c4.198,1.183,6.592-2.959,10.394-2.31c0,1.517-0.057,2.987,0.014,4.45c0.096,1.919-0.527,4.312,1.828,5.222   c2.774,1.07,3.792-1.52,5.328-3.05c2.451-2.439,2.833-6.386,6.632-8.674c-1.57,6.275-3.077,11.985-4.398,17.736   c-0.451,1.964-0.488,4.309,1.57,5.353c2.834,1.438,2.974-1.767,4.104-3.034c2.5-2.81,3.245-7.063,8.235-9.745   c-1.989,5.304-3.687,9.335-4.975,13.489c-0.568,1.84-0.586,3.986,1.333,5.461c2.645,2.032,4.676-0.561,7.282-1.821   c-0.752,4.483-3.016,8.323,0.138,11.451c2.941,2.916,4.521-1.787,7.097-1.904c1.1,2.495-1.099,6.397,2.829,7.624   c2.472,0.771,3.021-2.114,4.548-3.194c0.464,0.386,0.926,0.771,1.385,1.156c0.11-0.883,0.561-2.389,0.283-2.539   c-0.153-0.082-0.286-0.131-0.402-0.153c0.117,0.022,0.25,0.071,0.403,0.153c0.278,0.15-0.173,1.656-0.283,2.539   c-0.537,4.568-3.373,10.174,1.125,13.225c3.307,2.244,4.109-3.849,6.779-5.276c0.38-0.204,0.885-0.175,1.565-0.293   c0,3.199-0.518,6.464,0.093,9.5c2.18,10.807,5.916,0.597,8.767-0.002c1.489,4.483-4.709,9.348,1.277,12.543   c3.339,1.782,4.486-1.711,5.955-3.842c0.283,0.214,0.561,0.434,0.833,0.657c1.154-0.889,1.759-2.654,1.094-3.3   c0.666,0.644,0.062,2.411-1.093,3.3c0.19,3.922-1.996,8.609,2.978,11.084c4.308,2.144,4.062-3.761,7.061-4.363   c0.137,1.739,0.271,3.433,0.406,5.122c-0.001,0-0.001,0.001-0.002,0.001c-1.007,2.358-3.183,5.235-0.515,7.117   c2.647,1.868,5.39-0.416,7.692-2.197c-0.235,2.206-0.428,4.42-0.727,6.619c-0.287,2.106,1.229,3.155,2.512,4.22   c1.281,1.059,2.947,1.043,4.043-0.201c1.617-1.837,3.35-3.706,3.619-6.353c-0.028,0.009-0.053,0.012-0.081,0.02   c0.423-0.57,0.844-1.139,1.268-1.71c0.578-1.405,1.155-2.81,1.733-4.213c-2.131-3.001-4.849-3.712-7.721-3.826   c2.873,0.113,5.591,0.824,7.723,3.826c0.452-0.087,0.896-0.205,1.331-0.352c1.251,0.647,0.967,1.881,1.122,2.946   c-0.935,3.558-1.799,7.138-2.824,10.67c-0.976,3.359-2.548,6.76,1.392,9.328c4.561,2.971,4.236-3.686,6.715-3.842   c4.17,3.586-5.262,15.379,8.617,12.392c-0.123,1.28,0.064,2.642-0.422,3.691c-1.182,2.54-1.67,4.851,1.267,6.365   c2.879,1.485,3.917-0.951,5.147-2.78c1.104-1.646,2.069-3.469,4.489-3.339c-4.738,8.719-2.991,7.278,3.289,14.474   c7.482,8.571,8.561,0.147,11.783-2.374c2.207-1.724,3.568-4.526,5.302-6.846c3.013-1.45,4.459-4.441,6.55-6.776   C380.346,352.676,380.395,350.728,378.149,349.372z M240.139,234.807c-0.126-0.175-0.358-0.355-0.349-0.521   C239.782,234.453,240.013,234.633,240.139,234.807c0.146-0.158,0.397-0.309,0.408-0.474c0.01-0.165-0.223-0.345-0.349-0.518   c0.126,0.173,0.359,0.353,0.349,0.518S240.285,234.65,240.139,234.807z M291.866,291.209c-0.083,0.054-0.115,0.114-0.107,0.178   C291.751,291.323,291.783,291.262,291.866,291.209c1.034-0.675,1.307-1.742,1.285-2.956   C293.173,289.467,292.901,290.534,291.866,291.209z M320.608,326.982c-3.164,0.107-4.969-2.778-7.402-4.278   C315.639,324.203,317.445,327.089,320.608,326.982z M334.611,322.507c-0.254-0.338-0.756-0.697-0.727-1.009   c0.295-3.097-1.494-4.685-4.156-4.962c0.001,0,0.001,0,0.002,0c2.662,0.277,4.451,1.865,4.156,4.962   C333.857,321.809,334.358,322.168,334.611,322.507L334.611,322.507z"
             id="path96" /><path
             d="M299.094,217.649c1.538,4.859,1.538,4.859,7.868,2.347c0.231-0.742,0.213-1.722,1.393-1.558   c-0.344-1.356-0.948-2.716-0.92-4.065c0.174-8.703-0.143-8.991-8.614-6.775c-0.485-0.521-0.967-1.043-1.447-1.563   c-0.797,0.926-1.396,1.887-0.597,3.117l0,0c-0.799-1.23-0.2-2.191,0.597-3.117c-0.59-2.781,3.856-6.054-0.83-8.43   c-1.041,0.967-1.06,3.022-3.065,2.967c0.344,1.431,0.427,2.731-1.536,2.998c-1.058,5.806-1.085,5.845-5.643,11.626   c0,0,0-0.001,0-0.002c4.557-5.781,4.584-5.82,5.642-11.624c0,0,0,0,0,0c0,0,0,0,0,0c1.963-0.267,1.88-1.567,1.536-2.998   c2.005,0.055,2.023-2.001,3.065-2.967c-0.576-0.031-1.151-0.062-1.728-0.092c2.139-5.715,4.279-11.429,6.42-17.143   c1.464,11.52,7.025,14.985,16.106,9.865c0.281,5.815,7.458,7,8.428,12.716c0.323,1.888,2.914,0.562,3.719-1.273   c2.379-5.437,6.513-10.053,7.56-16.114c0.485-0.945,0.973-1.892,1.458-2.836c-0.377-2.944-1.931-3.349-4.6-2.554   c-3.429,1.021-6.991,1.602-10.499,2.371c-2.658,4.67-5.128,2.026-7.662-0.164c-2.695-2.331-3.849,0.908-5.656,1.688   c-0.954,0.412-1.554,1.242-1.488,2.15c-0.066-0.909,0.534-1.74,1.488-2.152c1.807-0.78,2.961-4.019,5.656-1.688   c2.534,2.19,5.004,4.834,7.662,0.165c0.494-2.446,4.252-2.676,3.883-5.708c0,0,0.001,0.001,0.001,0.001   c0.042-0.539,0.201-1.066,0.392-1.59c-0.189,0.524-0.35,1.051-0.391,1.589c0.368,3.032-3.39,3.262-3.884,5.707   c3.509-0.769,7.07-1.35,10.499-2.371c2.669-0.795,4.223-0.39,4.6,2.554c0.323-0.363,0.819-0.675,0.944-1.099   c1.365-4.594,0.41-9.229-2.181-12.738c-3.346-4.533-5.792,2.933-9.301,1.669c0.34,0.538,0.495,1.057,0.521,1.564   c-0.026-0.507-0.182-1.027-0.521-1.564c0,0,0,0,0.001,0c-0.022-0.035-0.038-0.069-0.062-0.104l-0.001,0.002   c-0.001,0.001-0.001,0.002-0.002,0.003l0.002-0.005c-0.015,0.015-0.025,0.03-0.04,0.045c0.001,0,0.001,0.001,0.001,0.002   c-1.666,1.7-2.131,3.518-1.111,5.479c-1.021-1.961-0.556-3.78,1.11-5.48c-0.831-4.368,2.714-10.799-5.093-11.933   c-5.496-0.797-10.595,2.884-16.777,0.762c-3.212-1.103-7.335,6.426-12.638,2.089c0,0,0,0,0-0.001h0c0,0-0.001,0-0.001-0.001   c0,0,0,0.001,0.001,0.001c-0.991,0.132-1.981,0.262-2.97,0.394c-0.519,0.372-1.037,0.745-1.556,1.117c0-0.006,0-0.011-0.001-0.017   c-3.8,1.638-6.766,4.294-9.227,7.564c-0.997,0.575-2.077,1.108-1.313,2.58c1.214,0.153,2.426,0.423,3.644,0.439   c-1.218-0.016-2.43-0.286-3.644-0.439c0,0-0.037,0.097-0.042,0.106c-7.993,4.187-11.195,11.19-11.607,19.828   c-0.06,3.008-0.118,6.018-0.179,9.028c0,0,0,0-0.001,0c-0.807,2.997-0.237,5.976,0.133,8.956c0.966-0.493,1.931-0.986,2.896-1.479   c0,0,0,0,0,0.001c0,0,0,0,0,0c-0.964,0.493-1.929,0.986-2.894,1.479c1.175,2.155,2.13,4.474,3.569,6.434   c4.124,5.61,10.36,5.451,14.623-0.214c-4.25,0.627-5.987-3.917-9.576-4.652c-1.685-1.749-1.047-3.971-1.225-6.024   c-1.04-0.086-2.079-0.17-3.118-0.255c-0.479,0.112-0.954,0.238-1.427,0.375c0,0,0-0.001,0-0.001   c0.473-0.137,0.948-0.263,1.426-0.375c-0.653-0.704-1.066-0.495-1.353,0.191c0.287-0.688,0.7-0.896,1.353-0.191   c1.039,0.085,2.078,0.169,3.118,0.255c1.431-1.492,2.78-3.148,4.975-3.117c-2.195-0.032-3.543,1.625-4.974,3.117   c0.177,2.055-0.461,4.276,1.224,6.024c3.589,0.735,5.326,5.279,9.576,4.652c0.316,0.09,0.638,0.135,0.964,0.135   c4.282,0.698,6.338,5.516,10.812,5.857C296.49,220.941,297.219,219.062,299.094,217.649z M324.595,193.052   c-0.053-1.896-0.307-3.248-0.72-4.176C324.289,189.803,324.543,191.155,324.595,193.052z M275.213,214.824   c0,0.67,0,1.467,0.001,2.482c0,0,0-0.001-0.001-0.001C275.213,216.29,275.213,215.494,275.213,214.824z M277.101,178.384   c-0.034,1.982,1.792,3.17,2.839,4.689C278.893,181.553,277.067,180.366,277.101,178.384z M290.46,179.649c0-0.001,0-0.002,0-0.003   c0.892-1.126,1.782-2.254,2.672-3.38c0.32-0.71,0.043-2.319,1.369-1.647c0.106,0.054,0.191,0.121,0.257,0.2   c-0.065-0.078-0.15-0.145-0.256-0.199c-1.326-0.672-1.049,0.937-1.369,1.647l0,0C292.242,177.395,291.352,178.522,290.46,179.649   c-0.041,0.483-0.155,0.948-0.344,1.394C290.304,180.596,290.419,180.132,290.46,179.649z M289.381,206.637   C289.381,206.637,289.381,206.637,289.381,206.637c-0.279-0.123-0.558-0.247-0.837-0.37   C288.823,206.39,289.101,206.514,289.381,206.637z M285.532,180.721c0.909-0.454,1.591-1.179,1.683-2.627   C287.124,179.543,286.441,180.268,285.532,180.721z"
             id="path98" /><path
             d="M324.768,394.037c-0.45-2.898,2.801-6.817-1.325-8.531c-2.879-1.199-5.029,1.02-5.401,4.301c0,0,0,0,0.001,0   c-0.008-0.013-0.132,0.115-0.132,0.121c2.041,4.263-2.431,8.552-3.521,7.673c-6.045-4.863-9.351,2.087-13.968,2.244   c-1.712,1.151-0.207,3.814-2.258,4.805c-0.116,2.458-0.23,4.912-0.346,7.367c0,0,0,0-0.001,0c0.116-2.455,0.23-4.91,0.346-7.368   c-1.104-0.032-2.209-0.067-3.312-0.1c0,4.404,0,8.811,0,15.149c0,0.001,0,0.002-0.001,0.003c0-6.341,0-10.747,0-15.152   c-3.494-0.135-7.192-0.942-9.48,2.888c-1.715,0.013-3.434,0.025-5.151,0.039c-0.197,2-0.396,3.999-0.594,5.998   c-0.252,4.62-3.396,8.797-1.979,14.056c0,0,0,0.001-0.001,0.001c-1.417-5.259,1.727-9.437,1.979-14.056   c-5.62,1.265-10.47-1.481-10.188-5.771c-0.607-0.545-1.214-1.09-1.82-1.635c-0.347-0.993-0.694-1.989-1.042-2.981h0   c3.397-3.562,6.287-9.218,3.125-12.167c-4.606-4.299-7.84,1.941-11.106,4.903c-0.154,0.142-0.462,0.114-0.697,0.165   c0.876-13.964,0.876-13.964-9.357-13.403c-2.941,4.77-8.523,5.159-12.558,4.796c-2.124-0.193-5.023-0.207-7.285-1.091   c2.262,0.883,5.16,0.896,7.284,1.09c4.035,0.363,9.617-0.026,12.558-4.796c0.887-1.781,2.351-3.497,2.562-5.355   c0.848-7.494-10.428-3.635-10.523-10.904c-0.018-1.248-2.623-0.205-3.885,0.504c-1.906,1.068-3.743,2.26-6.118,3.711   c0.592-4.364,0.953-8.308,1.728-12.169c0.358-1.788,1.195-3.425-0.962-4.448c-1.74-0.827-3.306-0.04-4.956,0.707   c-3.458,1.565-3.518,5.841-6.437,7.768c-0.817-4.271,1.749-8.064,1.755-12.258c0.008-5.72-2.093-7.281-7.287-4.895   c-1.258,0.576-1.919,2.363-4.227,1.764c0.703-2.732,1.596-5.439,2.049-8.217c0.307-1.885,0.666-4.053-1.37-5.459   c-1.838-1.27-3.306,0.648-4.874,0.584c-1.299-0.052-2.402,4.926-3.77,0.221c-3.404-2.146-7.235-1.52-10.945-1.68   c-0.287-0.43-0.576-0.858-0.865-1.291c0.318-0.059,0.636-0.121,0.953-0.182c-0.718-3.13,0.917-5.734,2.098-8.371   c0.979-2.183,1.032-4.041-1.354-4.896c-2.039-0.73-3.02,0.95-3.863,2.6c-4.334,8.47-5.305,18.035-8.725,26.814   c-0.847,2.172,0.164,4.767,2.274,5.864c2.527,1.314,4.06-0.906,5.456-2.665c1.671-2.104,3.288-4.251,5.694-7.371   c-0.769,4.634-1.631,7.978-1.812,11.355c-0.304,5.689,1.949,8.174,7.677,5.095c0.367-0.29,0.734-0.58,1.102-0.871   c0,0.001,0,0.003-0.001,0.004c-0.367,0.29-0.732,0.579-1.098,0.868c0.229,0.251,0.464,0.495,0.699,0.729c0,0.001,0,0.002,0,0.003   c-0.672,3.706-1.243,7.394,2.64,9.858c4.139,2.627,5.221-3.018,8.668-3.332c-0.242,1.685-0.45,3.121-0.657,4.56   c0,0,0,0,0.001,0.001c-1.266,2.587-0.991,5.334-0.309,7.912c0.503,1.901,2.034,3.604,4.219,3.49c2.492-0.136,3.06-2.028,2.692-4.27   c3.905,1.903,2.863-4.342,6.033-3.645c1.523-0.688,2.348-0.468,2.763,0.107c-0.415-0.574-1.24-0.795-2.762-0.106   c-0.411,14.595,0.781,16.379,14.146,21.273c0.363,0.132,0.795,0.61,0.849,0.979c1.643,11.239,6.4,8.336,12.38,1.009   c-0.503,3.093-0.735,4.518-0.966,5.947c0,0,0,0,0,0.001c-1.44,2.558-0.702,5.367-0.893,8.061c-0.26,3.646,2.028,6.514,5.133,5.783   c5.108-1.203,4.802,1.746,5.62,4.863c1.665,6.348,4.12,6.834,8.812,2.09c0.836-0.844,1.523-2.019,3.286-1.508   c0.127,2.325-0.062,4.823,0.473,7.158c0.661,2.89,1.698,6.258,5.032,6.766c3.074,0.47,4.702-2.514,6.054-4.812   c1.97-3.35,3.525-6.942,5.312-10.539c2.286,3.963,0.764,10.644,6.389,10.93c4.74,0.24,5.979-5.099,6.968-9.29   c6.741,7.198,6.69,7.169,11.563-1.248c0.908-1.57,1.068-3.601,3.568-4.318c4.211-1.205,5.867-4.846,6.704-8.868   C325.908,404.232,328.11,399.423,324.768,394.037C324.769,394.038,324.768,394.038,324.768,394.037z M218.712,364.195   c0.023,0.192,0.25,0.361,0.387,0.541c0,0.001,0,0.002-0.001,0.003c-0.136-0.181-0.366-0.351-0.389-0.544   c-0.089-0.811-0.083-1.583,0.822-1.637C218.628,362.613,218.622,363.385,218.712,364.195z M249.961,404.572   c0.083,2.734,0.256,5.448,2.459,6.701C250.217,410.02,250.043,407.306,249.961,404.572z M251.014,404.655   c3.836-0.009,7.384-3.248,11.225-3.215C258.399,401.408,254.851,404.646,251.014,404.655z"
             id="path100" /><path
             d="M159.06,327.556c3.186,2.728,5.021-2.008,8.285-1.821c-0.196,1.789-0.107,3.556-0.621,5.126   c-1.229,3.757-0.79,7.377,2.778,8.971c3.811,1.702,5.908-2.093,7.525-4.629c3.46-5.426,7.029-10.872,8.752-17.212l-0.053-0.126   c0.886-0.311,1.179-0.946,1.004-1.837c0.071-0.999,0.143-1.995,0.214-2.994c-4.229-1.983-8.582-6.918-12.552-2.108   c3.97-4.812,8.323,0.123,12.553,2.107c1.919-1.52,1.237-3.433-0.173-4.314c-3.48-2.175-2.484-4.628-1.219-7.438   c1.592-3.539,2.996-7.163,4.481-10.752c0.885,0.003,1.771,0.008,2.655,0.012c0.016-1.252,0.516-2.201,1.182-3.047   c-0.665,0.846-1.165,1.794-1.181,3.046c0.631,3.176-2.81,5.962-0.884,9.265c3.329,0.765,4.63-2.307,6.945-4.363   c0.146,7.591,3.573,10.052,10.16,8.147c0.452-0.682,0.902-1.361,1.353-2.045c0.319,0.398,0.463,0.79,0.489,1.178   c-0.026-0.388-0.171-0.778-0.489-1.177c-0.451,0.684-0.901,1.363-1.353,2.045c0.416,0.348,0.831,0.694,1.242,1.04   c-0.185,0.967-0.38,1.928-0.56,2.895c-0.578,3.108-0.365,6.135,2.769,7.688c3.306,1.641,4.633-1.897,6.65-3.324   c1.313-0.933,2.171-2.619,3.007-4.097c3.489-6.172,6.893-12.393,10.329-18.595c0.189-4.992-5.688-4.44-7.18-7.821   c-3.714-8.42-8.504-5.889-14.274-0.598c0.518-4.18,0.717-7.761-3.133-9.396c-4.438-1.883-5.498,3.299-8.603,4.245   c-0.857,2.899-1.718,5.797-2.578,8.695c0.23,0.401,0.539,0.662,0.903,0.826c-0.365-0.164-0.674-0.424-0.905-0.826   c0.86-2.898,1.721-5.796,2.578-8.695c-1.52,0.574-3.035,1.139-3.553-1.22c-11.334-5.514-15.637-4.354-25.352,6.85l0,0   c-3.727,3.688-6.809,7.864-9.142,12.541c-1.013,2.029-3.222,4.719,1.147,5.648c3.471,0.741,1.215,2.484,0.757,3.766   c-1.149,3.212-2.855,6.25-2.86,9.795c3.824-1.051,7.848-5.73,11.295,0.626c0.103,0.188,1.171,0.174,1.263-0.008   c-0.089,0.183-1.161,0.197-1.264,0.009c-3.445-6.356-7.47-1.678-11.293-0.627c-0.7,2.467-1.398,4.936-2.098,7.403   c1.969-0.104,3.919-0.433,5.861-0.844c-1.942,0.411-3.892,0.739-5.86,0.844C155.832,323.144,156.802,325.625,159.06,327.556z    M223.424,283.643c1.041,1.507,1.847,2.677,2.655,3.846c0,0,0,0,0,0.001C225.271,286.321,224.464,285.152,223.424,283.643   C223.424,283.644,223.424,283.644,223.424,283.643z M220.606,290.816c-0.106,0.765-0.459,1.535-0.573,2.347   C220.146,292.351,220.499,291.581,220.606,290.816z M204.904,289.013l0.005,0.005c-0.118,0.212-0.236,0.425-0.354,0.636   c0.005-0.01,0.011-0.021,0.017-0.03c0.112-0.201,0.225-0.403,0.336-0.604l-0.005-0.005   C204.903,289.013,204.903,289.013,204.904,289.013c0.093-1.586-0.164-2.549-0.642-3.119   C204.741,286.465,204.998,287.427,204.904,289.013z M183.104,280.391c-0.188-0.388-0.536-0.781-0.518-1.158   C182.569,279.61,182.916,280.004,183.104,280.391z M175.275,286.787c2.588-1.818,4.821-2.477,6.911-2.39   C180.096,284.311,177.864,284.969,175.275,286.787c-0.833,0.586-1.474,0.831-1.975,0.827   C173.801,287.617,174.442,287.373,175.275,286.787z"
             id="path102" /><path
             d="M281.639,339.728c0.001,0.002,0.002,0.004,0.003,0.006c-1.236-1.703-2.389-1.605-3.461,0.181   c1.157-0.054,2.314-0.106,3.472-0.162c0,0.001,0,0.001,0,0.001c0.002,0,0.004,0,0.006,0   C281.66,339.754,281.64,339.728,281.639,339.728z"
             id="path104" /><path
             d="M276.467,401.529c-4.468-0.147-6.037,2.584-7.029,6.174c-0.282,4.29,4.568,7.036,10.188,5.771   c0.198-1.999,0.396-3.998,0.594-5.999C279.557,405.136,280.941,401.677,276.467,401.529z"
             id="path106" /><path
             d="M416.173,256.037c-0.617-4.222,2.618-10.882-3.482-11.812c-5.764-0.878-6.764,5.67-8.055,10.315   C408.591,254.184,412.432,254.714,416.173,256.037z"
             id="path108" /><path
             d="M264.719,335.531c0.117-0.97,0.23-1.939,0.354-2.909c0.457-3.604,3.511-8.995-1.59-9.976   c-4.976-0.955-5.357,5.053-6.317,8.982c-0.059,0.239-0.085,0.483-0.125,0.724C260.623,330.943,261.273,336.615,264.719,335.531z"
             id="path110" /><path
             d="M202.223,334.136c1.731-3.036,2.439-6.616-0.774-8.474c-3.135-1.808-5.985,0.709-8.164,3.246   c-0.615,0.716-1.224,1.435-1.836,2.15c-0.056,0.466-0.114,0.934-0.17,1.397C194.988,332.617,198.819,331.99,202.223,334.136z"
             id="path112" /><path
             d="M337.177,320.61c0.901-0.479,1.805-0.955,2.707-1.433C338.675,319.078,337.612,319.251,337.177,320.61z"
             id="path114" /><path
             d="M190.412,331.167c0.289,0.433,0.578,0.861,0.865,1.291c0.057-0.464,0.114-0.931,0.17-1.397c0,0,0,0,0.001-0.001   c0.003-0.031,0.007-0.062,0.011-0.093l-0.001,0.003c0-0.001,0-0.001,0-0.002c-0.001,0-0.001,0-0.002,0   c-0.031,0.006-0.062,0.012-0.094,0.018v0.001C191.047,331.047,190.73,331.107,190.412,331.167z"
             id="path116" /></g></svg>
