<?xml version="1.0" encoding="UTF-8" standalone="no"?>
<svg
     xmlns:dc="http://purl.org/dc/elements/1.1/"
     xmlns:cc="http://creativecommons.org/ns#"
     xmlns:rdf="http://www.w3.org/1999/02/22-rdf-syntax-ns#"
     xmlns:svg="http://www.w3.org/2000/svg"
     xmlns="http://www.w3.org/2000/svg"
     xmlns:sodipodi="http://sodipodi.sourceforge.net/DTD/sodipodi-0.dtd"
     xmlns:inkscape="http://www.inkscape.org/namespaces/inkscape"
     version="1.1"
     id="Calque_1"
     sodipodi:docname="postgis.svg"
     inkscape:version="0.92.2 5c3e80d, 2017-08-06"
     x="0px"
     y="0px"
     width="496.92px"
     height="497.312px"
     viewBox="0 0 496.92 497.312"
     enable-background="new 0 0 496.92 497.312"
     xml:space="preserve"><title
         id="title13">osgeo-postgis</title><metadata
         id="metadata11"><rdf:RDF><cc:Work
                 rdf:about=""><dc:format>image/svg+xml</dc:format><dc:type
                     rdf:resource="http://purl.org/dc/dcmitype/StillImage" /><dc:title>osgeo-postgis</dc:title><dc:date>08-21-2018</dc:date><dc:creator><cc:Agent><dc:title>Nicolas Bozon</dc:title></cc:Agent></dc:creator><dc:rights><cc:Agent><dc:title>copyright OSGeo</dc:title></cc:Agent></dc:rights><dc:publisher><cc:Agent><dc:title>OSGeo</dc:title></cc:Agent></dc:publisher><dc:identifier>osgeo-postgis</dc:identifier><dc:description>OSGeo PostGIS</dc:description><dc:contributor><cc:Agent><dc:title>OSGeo Marketing Committee</dc:title></cc:Agent></dc:contributor><cc:license
                     rdf:resource="http://creativecommons.org/licenses/by-sa/4.0/" /></cc:Work><cc:License
                 rdf:about="http://creativecommons.org/licenses/by-sa/4.0/"><cc:permits
                     rdf:resource="http://creativecommons.org/ns#Reproduction" /><cc:permits
                     rdf:resource="http://creativecommons.org/ns#Distribution" /><cc:requires
                     rdf:resource="http://creativecommons.org/ns#Notice" /><cc:requires
                     rdf:resource="http://creativecommons.org/ns#Attribution" /><cc:permits
                     rdf:resource="http://creativecommons.org/ns#DerivativeWorks" /><cc:requires
                     rdf:resource="http://creativecommons.org/ns#ShareAlike" /></cc:License></rdf:RDF></metadata><defs
         id="defs9" /><sodipodi:namedview
         inkscape:window-height="480"
         inkscape:window-width="640"
         inkscape:current-layer="layer1"
         inkscape:window-y="0"
         inkscape:window-x="0"
         inkscape:pageopacity="0"
         inkscape:pageshadow="2"
         inkscape:window-maximized="0"
         pagecolor="#ffffff"
         bordercolor="#666666"
         borderopacity="1"
         objecttolerance="10"
         gridtolerance="10"
         guidetolerance="10"
         showgrid="false"
         inkscape:zoom="0.47455118"
         inkscape:cx="248.46001"
         inkscape:cy="248.65601"
         id="namedview7" /><g
         id="layer1"
         transform="translate(-370.22687,-243.22803)"
         inkscape:groupmode="layer"
         inkscape:label="Calque 1"><g
             id="g5"><path
                 d="M777.627,685.348c-10.838,3.29-22.103,1.595-27.044-4.063c-2.405-2.757-2.919-6.433-4.158-29.799    c-0.574-10.812-1.803-23.644-2.729-28.514c-5.296-27.82-18.1-48.388-39.139-62.854l-2.983-2.051    c0.948-0.741,1.882-1.466,2.751-2.13l10.527-8.052v-7.974c0-5.928-1.075-8.572-5.479-13.472c-1.597-1.778-4.239-4.425-7.44-7.502    c-2.832-3.811-6.37-8.312-10.807-13.782c-22.413-27.64-23.117-28.223-33.447-27.644c-6.425,0.358-7.458,0.151-8.015-1.605    c-2.729-8.597-28.887-25.909-41.72-27.61c-4.891-0.647-6.181-0.35-11.414,2.646c-3.245,1.855-7.2,4.58-8.787,6.051    c-4.095,3.796-6.942,4.437-10.201,2.3c-3.294-2.156-4.993-1.23-1.957,1.066c2.507,1.895,0.327,2.248-2.976,0.479    c-2.696-1.441-4.397-0.172-1.751,1.311c1.681,0.939,1.486,1.407-1.771,4.27c-1.576,1.383-2.51,2.492-2.947,3.544    c-1.354-0.862-2.731-1.273-4.271-1.247c-0.011,0-0.021,0-0.029,0c-1.329,0.028-2.773,0.363-4.445,1.039l0.278,0.688    c-1.348-0.479-5.377,3.206-6.252,5.964c-0.621,1.956-0.757,1.949-3.737-0.172c-1.699-1.212-3.831-2.201-4.735-2.201    c-2.276,0-6.967,5.825-7.82,9.71c-0.853,3.882-2.188,4.488-8.325,3.783c-8.686-0.996-16.138-5.494-26.703-16.113    c-22.062-22.177-24.526-42.492-7.377-60.826c6.71-7.173,13.822-11.447,21.633-12.995c1.751-0.35,3.868-0.896,5.895-1.506    l22.21,3.581l1.907,0.032c12.551,0,20.388-1.676,31.058-6.644c27.094-12.609,43.925-38.771,43.925-68.271    c0-32.672-21.622-62.303-52.583-72.056c-7.615-2.4-15.385-3.616-23.089-3.616c-20.422,0-39.79,8.604-54.529,24.231    c-8.808,9.337-13.24,16.757-16.942,28.354c-8.466,26.521-1.671,55.271,17.734,75.028c3.74,3.81,8.475,8.302,10.349,9.664    c-1.705,1.955-4.346,4.271-6.613,5.838c-10.713,7.4-23.21,22.076-27.569,32.379c-4.966,11.731-6.117,26.667-3.002,38.892    c2.515,9.867,9.479,23.578,15.225,29.968c8.794,9.78,27.587,20.311,43.329,24.274c4.121,1.035,5.351,1.928,6.51,4.719    c0.786,1.893,1.44,4.044,1.454,4.781c0.042,2.412,9.35,13.358,16.212,19.069c6.33,5.27,18.112,11.802,21.286,11.805    c0.871,0,1.201,0.754,0.834,1.913c-2.467,7.808-3.035,17.695-3.559,61.97c-0.485,41.191-0.841,49.436-2.19,50.96    c-1.914,2.163-6.897,17.362-6.897,21.037c0,2.906,1.809,3.898,7.11,3.898c2.962,0,3.725,0.467,4.006,2.457    c0.286,2.008,2.446,3.292,11.814,7.029c15.737,6.278,28.569,8.837,36.236,7.227c5.75-1.207,5.844-1.186,9.628,2.356    c2.104,1.968,4.808,4.146,6.006,4.84c1.383,0.798,4.999,1.049,9.828,0.683c4.205-0.318,11.576-0.824,16.382-1.127    c17.853-1.122,47.15-10.701,74.208-24.265l11.967-5.997l6.598,2.309c9.771,3.417,15.698,3.923,22.541,1.922    c6.224-1.824,14.09-7.442,14.09-10.072C785.717,683.297,784.333,683.314,777.627,685.348z M518.469,258.557    c1.793,0,3.734,1.717,4.779,3.311c1.002,1.529,1.728,2.636,1.051,3.885c-0.418,0.774-1.211,1.167-2.356,1.167    c-0.601,0-1.371-0.084-2.566-0.225c-2.157-0.25-3.785,0.153-5.646,1.533c-2.273,1.68-4.435,2.604-6.084,2.604l0,0    c-1.963,0-3.282-1.286-3.282-3.203C504.363,264.275,516.006,258.557,518.469,258.557z M488.739,314.049    c-1.948-6.422-1.343-8.333-0.6-9.28c0.257-0.384,0.975-2.533,1.382-5.196c0.579-3.791,0.579-3.791-2.629-6.729l-5.202-4.763    l3.672-4.27c2.526-2.938,5.291-3.847,12.311-5.082c0.361-0.063,8.857-1.56,9.713-1.587c0.672,0.005,2.238-0.002,3.266,4.667    c0.605,2.761,3.406,5.124,5.271,5.124c1.551-0.015,3.184-0.37,3.184-4.422c0-2.975,0-5.785,3.904-5.785    c0.366,0,0.788,0.021,1.277,0.05c1.879,0.11,5.425,0.623,7.904,1.14c3.006,0.627,4.886,1.813,5.747,3.625    c1.252,2.633-0.085,5.804-1.201,7.963c-1.303,2.521-1.219,2.686-0.172,4.694c0.761,1.463,2.572,3.709,3.957,4.905    c4.144,3.583,3.529,4.882-1.262,14.987c-3.763,7.94-8.364,12.495-12.629,12.495c-1.001,0-2.962,0.683-4.087,1.594    c-1.379,1.116-1.628,1.316-1.067,4.293c0.481,2.577,1.401,3.806,4.277,5.707c1.812,1.2,2.939,2.202,3.622,3.034l6.316-2.155    c0.912-0.287,3.87-1.188,5.309-1.188c0.449,0,0.96,0.039,1.492,0.082c0.854,0.07,1.824,0.146,2.376-0.012    c0.229-0.066,0.483-0.122,0.744-0.179l-0.012-0.101l5.858-0.878c2.44-0.365,6.278-0.441,9.067-0.441    c0.202,0,20.257,0.025,22.522,2.29c0.251,0.252,1.42,0.732,2.497,0.732c0.988,0,2.777,0.154,3.666,1.195    c0.249,0.289,0.4,0.638,0.472,0.997c-0.367,0.151-0.661,0.383-0.836,0.696c-0.267,0.479-0.235,1.05,0.084,1.568    c0.533,0.864,1.596,1.519,2.468,1.519c0.961,0,1.726-0.744,1.869-1.696c0.312-0.026,0.628-0.057,0.962-0.09    c0.928-0.094,1.889-0.188,2.761-0.188c0.979,0,2.386,0.106,3.316,1.033c1.71,1.698,0.406,4.56-0.854,7.325    c-0.38,0.837-0.812,1.781-0.896,2.185c-0.665,3.198-2.812,6.465-4.888,9.622c-1.388,2.112-2.697,4.105-3.251,5.655    c-1.203,3.384-4.218,6.112-8.955,8.11l-0.551,0.247c-0.02,0.036-0.038,0.073-0.059,0.112c-0.401,0.768-1.008,1.927-2.341,2.829    c-1.069,0.723-2.579,0.878-4.18,1.04c-0.545,0.057-1.092,0.109-1.59,0.192l-0.785,0.122c-1.207,0.183-3.031,0.457-3.772,0.961    c-0.284,0.193-0.579,0.597-0.892,1.022c-0.436,0.595-0.93,1.27-1.669,1.759c-2.505,1.66-3.909,2.357-5.783,2.867    c-0.216,0.059-0.576,0.164-1.024,0.297c-3.372,0.987-5.386,1.523-6.375,1.523c-0.411,0-0.766-0.083-1.077-0.256l-0.77-0.42    l-0.185-0.925c-0.212-1.271,0.439-2.067,5.651-7.731c2.234-2.432,5.979-6.498,6.395-7.497c0.534-1.664,0.55-3.59,0.563-5.29    l0.002-0.083c-0.729-0.771-1.733-2.14-3.457-4.539c-0.718-1-1.402-1.953-1.9-2.602c-0.826-0.26-1.592-0.649-1.998-1.488    c-0.2-0.416-0.256-0.816-0.226-1.209c-1.61-0.765-3.188-2.173-3.943-2.899c-3.246-3.126-4.359-5.435-4.973-10.293l-0.465-3.688    c-0.07,0.017-0.146,0.032-0.208,0.051c-1.182,0.339-2.493,0.231-3.654,0.14c-0.431-0.035-0.842-0.07-1.204-0.07    c-0.595,0-2.645,0.521-4.186,1.01l-7.265,2.477c-0.724,0.757-1.784,1.16-3.201,1.16c-1.641,0-4.066-0.479-8.113-1.604    c-3.197-0.888-5.562-1.454-5.974-1.505c-1.541-0.086-2.776-2.082-3.532-3.74c-0.478-1.047-1.77-2.09-2.562-2.29    C501.277,335.75,491,321.5,488.739,314.049z M564.088,476.717c-2.595,2.35-10.399,3.487-11.516,1.684    c-0.994-1.607,2.369-6.552,4.457-6.552c0.544,0,0.887-0.194,1.018-0.478l0.021,0.051c3.358-1.358,5.438-1.239,7.67,0.432    l0.119-0.159c0.013,0.146,0.02,0.291,0.048,0.44C566.214,473.745,565.564,475.381,564.088,476.717z M655.494,657.765    c-0.519,1.56-3.292,2.348-4.39,1.25c-1.188-1.188,0.247-2.615,2.637-2.615C655.022,656.399,655.758,656.971,655.494,657.765z     M668.52,674.308c-0.37,0.961-1.125,1.746-1.682,1.746c-1.411,0-2.592-3.455-1.544-4.506    C666.673,670.172,669.258,672.381,668.52,674.308z M662.538,660.767c3.088,0,3.742,1.315,2.396,4.823    c-0.892,2.316-4.044,2.188-6.251-0.253C656.405,662.823,658.137,660.767,662.538,660.767z M582.958,501.226    c1.396-2.26,3.547-3.946,4.537-3.946c0.612,0,1.233-0.149,1.891-0.308c0.584-0.144,1.189-0.288,1.894-0.312    c0.262,0,0.495,0.03,0.707,0.088c2.447,1.708,2.016,4.203,1.711,5.206c-0.703,2.324-3.035,4.728-5.724,4.728    c-0.706,0.001-1.402-0.168-2.068-0.502c-0.218-0.107-0.465-0.16-0.757-0.16c-0.194,0-0.411,0.024-0.63,0.059    c-0.052,0.007-0.109,0.009-0.163,0.017c-0.155-0.052-0.304-0.099-0.456-0.147c-0.31-0.199-0.643-0.354-0.955-0.477    c-0.367-0.143-0.784-0.305-0.878-0.493C581.666,504.179,582,502.775,582.958,501.226z M566.92,690.795    c-0.396,1.029-2.062,1.641-4.484,1.641c-3.339,0-3.855-0.353-3.855-2.608c0-3.557,3.542-7.77,5.803-6.903    C566.384,683.692,567.875,688.31,566.92,690.795z M580.198,697.714c-0.178,2.708-0.816,5.064-1.418,5.238    c-1.863,0.534-8.188-2.689-8.896-4.535c-1.043-2.719,1.424-6.938,4.506-7.712C578.677,689.629,580.582,691.926,580.198,697.714z     M590.595,701.121c-0.683,5.764-2.004,6.705-6.082,4.329c-3.877-2.258-1.785-15.201,2.458-15.201    C590.023,690.249,591.395,694.368,590.595,701.121z M599.192,708.814c-5.674,0-7.071-2.046-6.194-9.07    c0.591-4.722,1.207-6.213,2.562-6.199c4.032,0.036,6.698,4.622,6.698,11.52C602.258,708.446,601.958,708.814,599.192,708.814z     M632.395,716.482c-6.632-2.975-10.689-8.47-12.292-16.714c-0.596-2.839-0.896-6.003-0.896-9.52c0-7.362,0.519-10.409,2.505-14.74    c4.459-9.722,10.852-14.742,18.756-14.742c11.019,0,18.776,9.471,21.162,20.788c2.238,9.938,0.321,21.393-7.227,29.142    c-2.706,2.777-6.352,5.199-9.029,5.998C639.699,718.388,636.53,718.334,632.395,716.482z"
                 id="path3" /></g></g></svg>
