<?xml version="1.0" encoding="UTF-8" standalone="no"?>
<svg
     xmlns:dc="http://purl.org/dc/elements/1.1/"
     xmlns:cc="http://creativecommons.org/ns#"
     xmlns:rdf="http://www.w3.org/1999/02/22-rdf-syntax-ns#"
     xmlns:svg="http://www.w3.org/2000/svg"
     xmlns="http://www.w3.org/2000/svg"
     xmlns:sodipodi="http://sodipodi.sourceforge.net/DTD/sodipodi-0.dtd"
     xmlns:inkscape="http://www.inkscape.org/namespaces/inkscape"
     version="1.1"
     id="Calque_1"
     x="0px"
     y="0px"
     width="643.197px"
     height="443.18px"
     viewBox="0 0 643.197 443.18"
     enable-background="new 0 0 643.197 443.18"
     xml:space="preserve"
     sodipodi:docname="pywps.svg"
     inkscape:version="0.92.2 5c3e80d, 2017-08-06"><title
         id="title11">osgeo-pywps</title><metadata
         id="metadata9"><rdf:RDF><cc:Work
                 rdf:about=""><dc:format>image/svg+xml</dc:format><dc:type
                     rdf:resource="http://purl.org/dc/dcmitype/StillImage" /><dc:title>osgeo-pywps</dc:title><dc:date>08-21-2018</dc:date><dc:creator><cc:Agent><dc:title>Nicolas Bozon</dc:title></cc:Agent></dc:creator><dc:rights><cc:Agent><dc:title>copyright OSGeo</dc:title></cc:Agent></dc:rights><dc:publisher><cc:Agent><dc:title>OSGeo</dc:title></cc:Agent></dc:publisher><dc:identifier>osgeo-pywps</dc:identifier><dc:description>OSGeo PyWPS</dc:description><dc:contributor><cc:Agent><dc:title>OSGeo Marketing Committee</dc:title></cc:Agent></dc:contributor><cc:license
                     rdf:resource="http://creativecommons.org/licenses/by-sa/4.0/" /></cc:Work><cc:License
                 rdf:about="http://creativecommons.org/licenses/by-sa/4.0/"><cc:permits
                     rdf:resource="http://creativecommons.org/ns#Reproduction" /><cc:permits
                     rdf:resource="http://creativecommons.org/ns#Distribution" /><cc:requires
                     rdf:resource="http://creativecommons.org/ns#Notice" /><cc:requires
                     rdf:resource="http://creativecommons.org/ns#Attribution" /><cc:permits
                     rdf:resource="http://creativecommons.org/ns#DerivativeWorks" /><cc:requires
                     rdf:resource="http://creativecommons.org/ns#ShareAlike" /></cc:License></rdf:RDF></metadata><defs
         id="defs7" /><sodipodi:namedview
         pagecolor="#ffffff"
         bordercolor="#666666"
         borderopacity="1"
         objecttolerance="10"
         gridtolerance="10"
         guidetolerance="10"
         inkscape:pageopacity="0"
         inkscape:pageshadow="2"
         inkscape:window-width="640"
         inkscape:window-height="480"
         id="namedview5"
         showgrid="false"
         inkscape:zoom="0.53251501"
         inkscape:cx="321.59851"
         inkscape:cy="221.59"
         inkscape:window-x="0"
         inkscape:window-y="0"
         inkscape:window-maximized="0"
         inkscape:current-layer="Calque_1" /><path
         d="M594.513,103.149c-0.78-0.685-1.735-1.046-2.763-1.046c-1.436,0-2.623,0.7-3.372,1.292  c-1.543,1.225-3.156,2.638-4.934,4.322c-6.999,6.636-13.554,12.107-23.012,11.91l-0.385-0.004c-1.601,0-3.147,0.2-4.645,0.394  c-1.231,0.16-2.396,0.31-3.533,0.346c-2.071,0.064-4.156,0.187-6.173,0.305c-2.889,0.17-5.876,0.345-8.788,0.345  c-1.365,0-2.616-0.037-3.825-0.114c-1.249-0.079-2.521-0.275-3.868-0.484c-1.844-0.285-3.75-0.58-5.722-0.58  c-1.999,0-3.781,0.307-5.448,0.939c-1.666,0.631-3.399,0.748-5.024,0.779c-3.762,0.073-7.525,0.05-11.289,0.025  c-1.88-0.012-3.761-0.024-5.642-0.024c-3.309,0-7.68,0.032-12.15,0.283c-6.674,0.373-7.56,3.049-8.224,7.413  c-0.05,0.324-0.102,0.666-0.16,1.025c-1.216,7.417-2.484,15.312-3.457,23.128c-0.034,0.274-0.073,0.46-0.105,0.581  c-0.146,0.018-0.384,0.035-0.763,0.035c-51.086-0.046-102.153-0.047-153.276-0.002c-0.046,0-0.091,0-0.134,0  c2.525-8.31,5.041-17.099,7.689-26.871c0.256-0.946,0.256-0.946,1.464-1.087c3.907-0.455,7.914-0.508,11.364-0.522  c4.751-0.021,9.852-0.212,14.968-1.463c2.603-0.639,8.019-1.967,7.92-7.458c-0.083-4.753-4.603-5.819-7.03-6.393l-0.678-0.163  c-6.22-1.545-12.503-1.58-18.58-1.614c-3.175-0.018-6.458-0.036-9.629-0.278c-3.196-0.244-6.423-0.312-9.542-0.377  c-6.419-0.135-12.482-0.263-18.51-1.775c-4.36-1.094-8.453-1.104-12.15-0.033c-5.356,1.558-11.473,8.811-10.629,14.382  c0.812,5.342,5.301,6.401,8.271,7.103c0.69,0.163,1.343,0.317,1.926,0.502c0.64,0.204,1.238,0.283,1.765,0.354  c0.206,0.028,0.412,0.054,0.609,0.091c2.098,0.396,4.29,0.59,6.702,0.59c3.571,0,7.108-0.429,10.529-0.844  c2.29-0.277,4.651-0.563,6.957-0.708c-2.571,8.714-5.456,18.52-8.007,28.246c-1.119,4.272-2.808,6.956-5.65,8.975  c-2.064,1.467-3.886,3.19-5.648,4.857c-0.829,0.784-1.658,1.568-2.509,2.322c-3.697,3.271-7.399,6.536-11.1,9.802  c-9.834,8.676-20.003,17.648-29.925,26.567c-0.575,0.517-0.949,0.701-1.108,0.701c-0.136,0-0.493-0.083-1.356-0.639  c-2.351-1.514-4.915-2.839-7.62-3.939c-10.015-4.069-20.572-6.047-32.275-6.047c-7.947,0-16.387,0.918-25.804,2.807  c-26.758,5.366-51.984,16.414-77.122,33.775c-23.329,16.112-47.647,35.11-76.531,59.79c-0.643,0.55-1.297,1.09-1.954,1.632  c-2.534,2.092-5.155,4.254-7.342,7.104l-1.97,2.565l2.979,1.26c0.584,0.247,1.17,0.372,1.741,0.372c1.558,0,2.544-0.906,3.018-1.342  c0.057-0.052,0.112-0.104,0.168-0.15c13.075-10.824,26.579-21.092,39.224-30.576l4.438-3.333  c17.631-13.257,35.862-26.964,56.068-36.807c26.81-13.059,49.924-19.141,72.741-19.141c1.151,0,2.307,0.016,3.466,0.048  c11.989,0.33,22.274,2.884,31.426,7.806c-4.246,3.671-8.496,7.453-12.609,11.113c-1.452,1.293-2.904,2.585-4.358,3.874  l-30.985,27.466l-9.177,9.539l3.248,3.772l10.347-7.332l2.675-2.24c7.012-5.899,14.022-11.798,21.056-17.669  c5.636-4.704,11.29-9.387,16.943-14.069c3.512-2.909,7.024-5.818,10.533-8.732c0.121-0.1,0.237-0.201,0.353-0.302  c4.025,3.377,8.055,7.092,9.891,11.946c5.83,15.426,6.484,29.339,1.999,42.535c-1.849,5.442-4.638,10.337-7.591,15.519  c-0.8,1.405-1.601,2.81-2.381,4.225l-1.004,1.822l1.609,1.318c0.15,0.123,0.298,0.249,0.446,0.382l1.595,1.432l1.658-1.357  c0.075-0.062,0.156-0.119,0.236-0.178c0.35-0.256,0.831-0.606,1.246-1.158c7.801-10.391,13.466-20.561,17.318-31.092  c3.66-10.012,5.198-19.151,4.703-27.94c-0.635-11.292-4.891-21.509-13.011-31.233c-0.062-0.075-0.116-0.142-0.162-0.202  c0.112-0.102,0.259-0.23,0.452-0.391c7.795-6.501,15.668-13.167,23.281-19.612c3.677-3.113,7.354-6.227,11.038-9.335  c2.219-1.875,4.455-3.73,6.862-5.724l-11.095,62.502l0.23,0.031l-1.786,12.821l-0.85-0.031l-3.231,26.666l22.713-10.559  c0.396-0.174,0.795-0.343,1.194-0.512c0.91-0.385,1.851-0.782,2.782-1.25l46.425-23.345c15.027-7.552,30.054-15.104,45.084-22.651  c22.859-11.481,45.728-22.944,68.601-34.406c-0.265,3.117-0.593,6.285-0.911,9.353c-0.314,3.031-0.64,6.167-0.904,9.264  c-0.066,0.772-0.071,0.835-0.912,1.154c-19.553,7.394-38.406,17.835-57.637,31.923c-1.362,0.998-2.742,1.974-4.122,2.949  c-4.752,3.359-9.664,6.833-13.861,11.233l-4.031,4.226h11.894l0.661-0.485c21.347-15.684,42.215-26.982,63.798-34.542  c0.688-0.241,1.403-0.446,2.16-0.664c0.166-0.048,0.333-0.096,0.499-0.144c-1.392,10.531-2.746,21.069-4.101,31.605l-0.544,4.229  h9.392l2.168-11.326c1.711-8.934,3.423-17.867,5.124-26.806c0.196-1.043,0.375-1.318,1.68-1.625  c11.21-2.641,21.229-3.924,30.633-3.924c4.406,0,8.768,0.288,12.962,0.857c13.934,1.887,23.946,6.161,31.508,13.452  c14.587,14.065,19.878,32.157,16.173,55.309c-1.885,11.785-6.641,23.764-14.539,36.622c-0.1,0.162-0.223,0.319-0.346,0.481  c-0.652,0.864-1.868,2.474-1.341,4.771l0.597,2.6l2.556-0.764c1.984-0.594,2.935-1.977,3.563-2.891  c0.107-0.156,0.213-0.312,0.325-0.459c4.377-5.747,7.96-11.135,10.952-16.471c12.49-22.265,16.985-41.535,14.148-60.646  c-2.744-18.458-11.354-32.213-25.593-40.883c-9.683-5.895-21.094-9.047-34.886-9.637c-1.694-0.073-3.418-0.109-5.122-0.109  c-13.179,0-26.428,2.1-40.49,6.417c0.53-3.103,1.021-6.25,1.496-9.296l2.636-16.607c2.252-14.119,4.58-28.718,6.756-43.099  c0.114-0.751,0.246-1.062,0.302-1.168c0.089-0.025,0.308-0.07,0.752-0.07c0.121,0,0.247,0.003,0.378,0.009  c2.905,0.131,5.836,0.177,8.67,0.222c5.958,0.093,12.119,0.189,18.137,1.099c2.924,0.442,6.052,0.657,9.562,0.657  c4.242,0,8.527-0.315,12.672-0.619c3.621-0.266,7.366-0.541,11.004-0.597c11.303-0.172,19.937-2.994,27.169-8.882l1.185-0.963  c4.258-3.458,8.659-7.035,12.581-11.13c1.379-1.437,2.899-3.216,3.732-5.539C595.751,107.707,596.701,105.068,594.513,103.149z   M312.547,173.385c0.114-0.627,0.223-0.896,0.274-0.998c0.099-0.029,0.344-0.081,0.85-0.081v-2.5l0,0l0.008,2.5  c29.706,0.038,59.41,0.047,89.115,0.057c22.094,0.007,44.188,0.014,66.286,0.033c0.062,0,0.125-0.001,0.188-0.003  c0,0.086,0,0.17,0,0.254c0.006,1.918-0.109,2.112-0.826,2.45c-3.62,1.708-7.229,3.549-10.721,5.33c-1.4,0.714-2.8,1.428-4.203,2.135  l-19.312,9.734c-21.244,10.708-42.489,21.416-63.729,32.134c-10.645,5.371-21.286,10.747-31.927,16.123  c-9.124,4.609-18.249,9.219-27.375,13.825l-7.811,3.961c-0.746,0.376-1.562,0.691-2.426,1.025c-0.434,0.168-0.868,0.335-1.297,0.512  l-2.761,1.347c1.122-7.649,2.947-18.553,5.354-31.964c1.804-10.05,3.71-20.26,5.553-30.134  C309.388,190.547,310.99,181.969,312.547,173.385z"
         id="path2" /></svg>