<?xml version="1.0" encoding="UTF-8" standalone="no"?>
<svg
     xmlns:dc="http://purl.org/dc/elements/1.1/"
     xmlns:cc="http://creativecommons.org/ns#"
     xmlns:rdf="http://www.w3.org/1999/02/22-rdf-syntax-ns#"
     xmlns:svg="http://www.w3.org/2000/svg"
     xmlns="http://www.w3.org/2000/svg"
     xmlns:sodipodi="http://sodipodi.sourceforge.net/DTD/sodipodi-0.dtd"
     xmlns:inkscape="http://www.inkscape.org/namespaces/inkscape"
     version="1.1"
     id="Calque_1"
     x="0px"
     y="0px"
     width="595.279px"
     height="595.281px"
     viewBox="0 0 595.279 595.281"
     enable-background="new 0 0 595.279 595.281"
     xml:space="preserve"
     sodipodi:docname="teamengine.svg"
     inkscape:version="0.92.2 5c3e80d, 2017-08-06"><title
         id="title17">osgeo-teamengine</title><metadata
         id="metadata15"><rdf:RDF><cc:Work
                 rdf:about=""><dc:format>image/svg+xml</dc:format><dc:type
                     rdf:resource="http://purl.org/dc/dcmitype/StillImage" /><dc:title>osgeo-teamengine</dc:title><dc:date>08-21-2018</dc:date><dc:creator><cc:Agent><dc:title>Nicolas Bozon</dc:title></cc:Agent></dc:creator><dc:rights><cc:Agent><dc:title>copyright OSGeo </dc:title></cc:Agent></dc:rights><dc:publisher><cc:Agent><dc:title>OSGeo</dc:title></cc:Agent></dc:publisher><dc:identifier>osgeo-teamengine</dc:identifier><dc:description>OSGeo Team Engine</dc:description><dc:contributor><cc:Agent><dc:title>OSGeo Marketing Committee</dc:title></cc:Agent></dc:contributor><cc:license
                     rdf:resource="http://creativecommons.org/licenses/by-sa/4.0/" /></cc:Work><cc:License
                 rdf:about="http://creativecommons.org/licenses/by-sa/4.0/"><cc:permits
                     rdf:resource="http://creativecommons.org/ns#Reproduction" /><cc:permits
                     rdf:resource="http://creativecommons.org/ns#Distribution" /><cc:requires
                     rdf:resource="http://creativecommons.org/ns#Notice" /><cc:requires
                     rdf:resource="http://creativecommons.org/ns#Attribution" /><cc:permits
                     rdf:resource="http://creativecommons.org/ns#DerivativeWorks" /><cc:requires
                     rdf:resource="http://creativecommons.org/ns#ShareAlike" /></cc:License></rdf:RDF></metadata><defs
         id="defs13" /><sodipodi:namedview
         pagecolor="#ffffff"
         bordercolor="#666666"
         borderopacity="1"
         objecttolerance="10"
         gridtolerance="10"
         guidetolerance="10"
         inkscape:pageopacity="0"
         inkscape:pageshadow="2"
         inkscape:window-width="640"
         inkscape:window-height="480"
         id="namedview11"
         showgrid="false"
         inkscape:zoom="0.39645142"
         inkscape:cx="297.6395"
         inkscape:cy="297.6405"
         inkscape:window-x="0"
         inkscape:window-y="0"
         inkscape:window-maximized="0"
         inkscape:current-layer="Calque_1" /><g
         id="g8"><path
             d="M532.782,434.867c0.962-11.354,9.429-17.856,20.03-22.528c10.621-4.665,16.364-7.131,13.706-14.877   c-2.625-7.656-0.83-2.455-5.104-14.896c-0.047-0.126-0.069-0.202-0.134-0.358c-4.267-12.437-2.471-7.229-5.096-14.886   c-0.156-0.455-0.326-0.871-0.506-1.263c-0.017-0.037-0.032-0.077-0.05-0.113c-0.174-0.368-0.359-0.704-0.556-1.018   c-0.028-0.046-0.056-0.093-0.084-0.137c-0.195-0.3-0.4-0.572-0.617-0.824c-0.036-0.041-0.072-0.083-0.108-0.123   c-0.22-0.243-0.449-0.464-0.69-0.661c-0.039-0.031-0.078-0.061-0.117-0.091c-0.249-0.194-0.509-0.37-0.781-0.521   c-0.033-0.019-0.066-0.033-0.1-0.051c-0.288-0.152-0.586-0.287-0.9-0.396c-0.011-0.004-0.021-0.007-0.031-0.01   c-0.321-0.109-0.656-0.196-1.006-0.264c-0.021-0.005-0.04-0.01-0.062-0.014c-0.343-0.064-0.702-0.106-1.072-0.134   c-0.044-0.004-0.087-0.008-0.131-0.011c-0.263-0.017-0.53-0.027-0.807-0.027c-0.076,0-0.16,0.008-0.237,0.009   c-0.173,0.003-0.353,0.012-0.531,0.021c-0.256,0.013-0.516,0.027-0.782,0.051c-0.188,0.017-0.38,0.037-0.573,0.06   c-0.275,0.031-0.556,0.066-0.843,0.107c-0.2,0.029-0.402,0.06-0.608,0.093c-0.3,0.049-0.606,0.103-0.918,0.16   c-0.209,0.039-0.417,0.077-0.631,0.12c-0.329,0.064-0.668,0.137-1.011,0.21c-0.214,0.046-0.424,0.09-0.643,0.139   c-0.371,0.083-0.754,0.173-1.14,0.263c-0.206,0.049-0.405,0.094-0.614,0.145c-0.453,0.108-0.921,0.223-1.395,0.34   c-0.157,0.039-0.307,0.075-0.466,0.114c-0.633,0.157-1.28,0.319-1.949,0.486c-0.627,0.158-1.252,0.305-1.875,0.444   c-0.178,0.04-0.354,0.077-0.53,0.115c-0.473,0.103-0.944,0.198-1.414,0.288c-0.173,0.033-0.347,0.068-0.52,0.1   c-0.621,0.113-1.24,0.219-1.855,0.309c-0.037,0.006-0.074,0.009-0.112,0.015c-0.574,0.083-1.145,0.152-1.714,0.213   c-0.174,0.019-0.347,0.034-0.52,0.051c-0.463,0.044-0.922,0.079-1.38,0.106c-0.159,0.01-0.318,0.021-0.477,0.029   c-0.6,0.028-1.196,0.046-1.787,0.045c-0.045,0-0.09-0.003-0.135-0.003c-0.548-0.003-1.091-0.022-1.63-0.054   c-0.111-0.007-0.223-0.012-0.333-0.02c-0.561-0.038-1.116-0.092-1.667-0.162c-0.101-0.013-0.2-0.029-0.3-0.043   c-0.511-0.071-1.017-0.156-1.518-0.258c-0.069-0.014-0.14-0.024-0.209-0.039c-0.539-0.114-1.07-0.249-1.598-0.398   c-0.115-0.033-0.229-0.067-0.343-0.102c-0.532-0.16-1.06-0.334-1.578-0.534c-0.023-0.01-0.047-0.021-0.071-0.03   c-0.498-0.194-0.989-0.413-1.475-0.646c-0.105-0.051-0.212-0.101-0.316-0.153c-0.491-0.246-0.976-0.511-1.453-0.799   c-0.085-0.051-0.168-0.107-0.253-0.16c-0.433-0.27-0.859-0.558-1.279-0.864c-0.076-0.055-0.152-0.106-0.228-0.162   c-0.457-0.344-0.905-0.713-1.348-1.103c-0.098-0.086-0.195-0.176-0.292-0.265c-0.45-0.41-0.894-0.836-1.325-1.297   c-1.326-1.601-2.682-3.218-4.105-4.74c-0.068-0.123-0.067-0.194-0.167-0.294c-7.321-8.699-5.955-19.298-1.759-30.076   c4.19-10.821,6.505-16.627-0.808-20.237c-7.321-3.54-2.361-1.13-14.158-6.931c-0.09-0.032-0.133-0.069-0.221-0.107   c-0.039-0.014-0.068-0.033-0.103-0.059c-11.818-5.767-6.877-3.329-14.185-6.888c-0.426-0.208-0.834-0.379-1.233-0.527   c-0.133-0.05-0.259-0.084-0.39-0.127c-0.263-0.087-0.522-0.167-0.774-0.227c-0.145-0.035-0.285-0.061-0.426-0.087   c-0.232-0.043-0.461-0.077-0.685-0.098c-0.136-0.013-0.271-0.024-0.404-0.029c-0.078-0.003-0.161-0.017-0.238-0.017   c-0.163,0-0.319,0.021-0.478,0.033c-0.092,0.007-0.186,0.007-0.276,0.019c-0.323,0.04-0.64,0.1-0.949,0.19   c-0.043,0.012-0.084,0.032-0.127,0.045c-0.266,0.083-0.527,0.185-0.785,0.305c-0.094,0.043-0.186,0.094-0.278,0.142   c-0.21,0.109-0.418,0.229-0.623,0.362c-0.092,0.06-0.185,0.12-0.276,0.184c-0.227,0.16-0.451,0.335-0.675,0.523   c-0.059,0.05-0.118,0.093-0.178,0.145c-0.282,0.249-0.562,0.519-0.842,0.812c-0.057,0.059-0.113,0.126-0.17,0.187   c-0.223,0.241-0.445,0.493-0.669,0.761c-0.086,0.104-0.173,0.211-0.259,0.319c-0.202,0.251-0.404,0.513-0.608,0.786   c-0.082,0.11-0.163,0.218-0.246,0.331c-0.249,0.343-0.499,0.699-0.753,1.072c-0.03,0.045-0.061,0.087-0.092,0.133   c-0.291,0.431-0.586,0.883-0.885,1.352c-0.073,0.115-0.148,0.235-0.222,0.353c-0.229,0.362-0.461,0.733-0.696,1.116   c-0.097,0.157-0.193,0.315-0.291,0.476c-0.233,0.382-0.47,0.771-0.71,1.172c-0.087,0.145-0.172,0.285-0.26,0.432   c-0.314,0.525-0.633,1.059-0.963,1.613c-0.363,0.61-0.732,1.211-1.108,1.803c-0.132,0.208-0.269,0.407-0.402,0.612   c-0.246,0.378-0.491,0.759-0.743,1.127c-0.168,0.245-0.341,0.479-0.511,0.72c-0.227,0.319-0.45,0.643-0.681,0.953   c-0.183,0.247-0.372,0.482-0.558,0.724c-0.226,0.292-0.448,0.588-0.679,0.872c-0.196,0.242-0.399,0.473-0.6,0.708   c-0.228,0.269-0.453,0.542-0.686,0.802c-0.208,0.232-0.423,0.452-0.634,0.677c-0.234,0.249-0.466,0.502-0.705,0.741   c-0.218,0.22-0.443,0.426-0.666,0.637c-0.241,0.229-0.479,0.461-0.726,0.681c-0.23,0.204-0.468,0.396-0.702,0.591   c-0.248,0.208-0.495,0.419-0.749,0.617c-0.241,0.188-0.489,0.361-0.736,0.539c-0.257,0.187-0.513,0.377-0.775,0.553   c-0.252,0.168-0.512,0.322-0.769,0.481c-0.268,0.164-0.534,0.332-0.808,0.485c-0.263,0.148-0.533,0.281-0.802,0.418   c-0.279,0.143-0.557,0.287-0.842,0.418c-0.274,0.125-0.556,0.236-0.836,0.35c-0.291,0.119-0.581,0.239-0.878,0.345   c-0.286,0.103-0.58,0.189-0.872,0.279c-0.303,0.094-0.605,0.188-0.915,0.268c-0.299,0.077-0.604,0.14-0.909,0.204   c-0.315,0.067-0.631,0.134-0.953,0.187c-0.312,0.051-0.631,0.088-0.949,0.126c-0.328,0.038-0.658,0.076-0.993,0.101   c-0.325,0.023-0.656,0.033-0.988,0.043c-0.469,0.014-0.936,0.032-1.419,0.017c-0.007-0.001-0.014-0.001-0.021-0.002   c0.637-1.429,1.395-3.13,2.312-5.189c0.09-0.17,0.137-0.281,0.227-0.493c7.668-17.089,4.479-9.931,9.168-20.455   c4.76-10.651-3.08-14.917-17.549-22.913c-14.33-7.912-25.371-18.13-25.488-34.062c0.193-2.997,0.273-6.014,0.281-9.03   c0.025-0.241,0.145-0.358,0.143-0.611c0.816-16.232,12.557-25.895,27.445-33.068c14.881-7.15,22.986-10.979,18.816-21.848   c-4.113-10.779-1.309-3.442-8.008-20.978c-0.051-0.184-0.098-0.308-0.18-0.486c-6.652-17.55-3.869-10.19-7.99-20.95   c-0.133-0.349-0.271-0.682-0.412-1.004c-0.049-0.11-0.101-0.211-0.15-0.318c-0.096-0.206-0.19-0.413-0.29-0.607   c-0.06-0.116-0.122-0.223-0.183-0.334c-0.095-0.174-0.188-0.35-0.286-0.514c-0.066-0.112-0.137-0.214-0.204-0.322   c-0.097-0.152-0.192-0.306-0.293-0.45c-0.072-0.104-0.148-0.201-0.223-0.301c-0.101-0.135-0.2-0.271-0.304-0.398   c-0.078-0.095-0.158-0.183-0.238-0.273c-0.105-0.121-0.21-0.242-0.319-0.354c-0.082-0.085-0.167-0.165-0.251-0.246   c-0.111-0.107-0.222-0.214-0.336-0.313c-0.087-0.076-0.177-0.146-0.266-0.218c-0.116-0.094-0.233-0.187-0.354-0.274   c-0.092-0.066-0.187-0.129-0.28-0.191c-0.121-0.081-0.244-0.161-0.369-0.235c-0.097-0.058-0.196-0.112-0.296-0.167   c-0.127-0.069-0.255-0.136-0.386-0.198c-0.103-0.049-0.207-0.096-0.312-0.141c-0.133-0.058-0.267-0.113-0.402-0.164   c-0.108-0.041-0.218-0.08-0.329-0.117c-0.138-0.046-0.276-0.089-0.417-0.13c-0.115-0.033-0.23-0.064-0.348-0.093   c-0.143-0.036-0.287-0.068-0.433-0.098c-0.121-0.025-0.242-0.048-0.365-0.07c-0.148-0.025-0.298-0.047-0.449-0.068   c-0.127-0.017-0.255-0.033-0.384-0.047c-0.153-0.016-0.309-0.028-0.465-0.04c-0.134-0.01-0.268-0.019-0.403-0.025   c-0.157-0.007-0.317-0.01-0.479-0.013c-0.093-0.001-0.183-0.007-0.276-0.007c-0.03,0-0.064,0.004-0.095,0.004   c-0.501,0.003-1.019,0.027-1.552,0.068c-0.085,0.007-0.171,0.013-0.258,0.021c-0.532,0.047-1.081,0.112-1.646,0.194   c-0.098,0.014-0.196,0.029-0.295,0.044c-0.567,0.087-1.151,0.189-1.753,0.307c-0.105,0.021-0.212,0.042-0.318,0.063   c-0.608,0.123-1.231,0.259-1.875,0.409c-0.109,0.025-0.22,0.052-0.33,0.078c-0.654,0.155-1.323,0.322-2.014,0.5   c-0.107,0.028-0.219,0.058-0.327,0.086c-0.705,0.185-1.424,0.379-2.166,0.584c-0.104,0.028-0.211,0.059-0.315,0.087   c-0.762,0.212-1.538,0.432-2.34,0.661c-0.102,0.029-0.205,0.059-0.307,0.088c-0.819,0.234-1.651,0.475-2.513,0.723   c-0.719,0.208-1.436,0.403-2.15,0.594c-0.146,0.039-0.291,0.078-0.436,0.116c-0.695,0.181-1.389,0.354-2.08,0.518   c-0.127,0.03-0.254,0.059-0.381,0.088c-0.66,0.153-1.317,0.298-1.974,0.433c-0.073,0.015-0.147,0.032-0.222,0.047   c-0.695,0.141-1.388,0.269-2.078,0.389c-0.146,0.025-0.29,0.05-0.436,0.074c-0.688,0.115-1.375,0.22-2.058,0.312   c-0.089,0.012-0.177,0.021-0.266,0.033c-0.642,0.083-1.28,0.155-1.917,0.216c-0.105,0.01-0.211,0.022-0.316,0.032   c-0.672,0.061-1.341,0.106-2.006,0.141c-0.138,0.007-0.274,0.013-0.412,0.019c-0.678,0.029-1.353,0.049-2.022,0.049   c-0.071,0-0.143-0.003-0.214-0.003c-0.435-0.002-0.867-0.009-1.299-0.024c-0.166-0.006-0.331-0.016-0.497-0.023   c-0.338-0.015-0.675-0.034-1.01-0.057c-0.187-0.013-0.373-0.029-0.56-0.045c-0.316-0.027-0.632-0.058-0.946-0.093   c-0.188-0.021-0.375-0.042-0.562-0.065c-0.326-0.041-0.65-0.088-0.974-0.138c-0.166-0.025-0.333-0.048-0.499-0.076   c-0.417-0.07-0.831-0.148-1.244-0.233c-0.068-0.014-0.139-0.025-0.207-0.04c-0.477-0.101-0.949-0.214-1.419-0.335   c-0.151-0.039-0.302-0.084-0.453-0.125c-0.32-0.088-0.641-0.179-0.958-0.277c-0.18-0.055-0.359-0.115-0.539-0.174   c-0.289-0.095-0.577-0.193-0.863-0.297c-0.185-0.067-0.367-0.135-0.551-0.205c-0.286-0.11-0.571-0.226-0.855-0.345   c-0.173-0.073-0.347-0.144-0.519-0.22c-0.319-0.141-0.636-0.29-0.951-0.443c-0.131-0.063-0.264-0.123-0.395-0.188   c-0.44-0.221-0.877-0.453-1.31-0.698c-0.106-0.06-0.211-0.126-0.316-0.188c-0.33-0.192-0.658-0.389-0.983-0.595   c-0.156-0.099-0.31-0.203-0.465-0.305c-0.274-0.181-0.548-0.366-0.819-0.558c-0.164-0.116-0.327-0.235-0.489-0.355   c-0.265-0.194-0.526-0.395-0.786-0.6c-0.158-0.124-0.315-0.248-0.473-0.375c-0.277-0.227-0.553-0.463-0.826-0.703   c-0.132-0.115-0.265-0.227-0.396-0.345c-0.401-0.363-0.8-0.737-1.193-1.128c-1.975-2.257-3.941-4.472-6.068-6.584   c-0.139-0.156-0.123-0.273-0.273-0.424c-10.816-12.043-9.41-27.206-3.943-42.745c5.457-15.608,8.455-24.003-2.127-28.774   c-10.58-4.698-3.408-1.495-20.51-9.195c-0.123-0.056-0.186-0.098-0.311-0.157c-0.053-0.016-0.094-0.029-0.17-0.058   c-17.09-7.659-9.93-4.416-20.498-9.166c-0.467-0.207-0.916-0.382-1.359-0.541c-0.1-0.036-0.199-0.072-0.298-0.105   c-0.429-0.146-0.849-0.273-1.258-0.374c-0.061-0.015-0.12-0.025-0.181-0.04c-0.37-0.086-0.731-0.153-1.086-0.203   c-0.075-0.01-0.151-0.023-0.227-0.033c-0.384-0.046-0.759-0.07-1.126-0.073c-0.028,0-0.06-0.006-0.088-0.006   c-0.046,0-0.089,0.009-0.135,0.009c-0.354,0.005-0.701,0.026-1.04,0.071c-0.031,0.004-0.064,0.005-0.096,0.01   c-0.357,0.051-0.706,0.129-1.05,0.223c-0.075,0.021-0.15,0.042-0.226,0.064c-0.337,0.102-0.67,0.22-0.996,0.363   c-0.043,0.019-0.085,0.042-0.128,0.061c-0.3,0.137-0.594,0.292-0.886,0.464c-0.06,0.035-0.121,0.068-0.181,0.105   c-0.311,0.191-0.617,0.402-0.92,0.631c-0.064,0.049-0.129,0.101-0.193,0.151c-0.292,0.229-0.581,0.472-0.867,0.736   c-0.021,0.02-0.043,0.037-0.064,0.057c-0.3,0.28-0.598,0.584-0.894,0.902c-0.067,0.071-0.133,0.143-0.2,0.216   c-0.291,0.32-0.58,0.655-0.869,1.01c-0.044,0.055-0.089,0.113-0.133,0.168c-0.265,0.331-0.53,0.677-0.794,1.037   c-0.054,0.073-0.108,0.144-0.162,0.218c-0.288,0.397-0.577,0.812-0.867,1.242c-0.063,0.093-0.126,0.189-0.19,0.284   c-0.288,0.433-0.577,0.877-0.869,1.341c-0.011,0.018-0.022,0.035-0.034,0.053c-0.302,0.481-0.608,0.983-0.916,1.497   c-0.068,0.114-0.137,0.228-0.205,0.343c-0.301,0.505-0.604,1.021-0.912,1.555c-0.054,0.093-0.108,0.189-0.163,0.284   c-0.287,0.499-0.577,1.009-0.871,1.531c-0.054,0.095-0.106,0.188-0.16,0.283c-0.324,0.577-0.654,1.168-0.99,1.773   c-0.097,0.174-0.194,0.349-0.292,0.525c-0.316,0.569-0.633,1.143-0.961,1.735c-7.9,14.353-18.193,25.464-34.214,25.519   c-1.375-0.088-2.756-0.156-4.137-0.203c-0.43-0.015-0.859-0.014-1.289-0.024c-0.795-0.019-1.591-0.045-2.384-0.045   c-0.313,0-0.625,0.002-0.938,0.005c-0.316-0.042-0.427-0.186-0.763-0.186c-16.171-0.852-25.881-12.584-33.026-27.444   c-0.307-0.637-0.604-1.254-0.9-1.865c-0.079-0.164-0.158-0.328-0.237-0.49c-0.309-0.638-0.612-1.261-0.91-1.87   c-0.053-0.108-0.106-0.215-0.159-0.323c-0.295-0.599-0.586-1.186-0.873-1.755c-0.018-0.034-0.035-0.07-0.052-0.104   c-0.29-0.575-0.576-1.129-0.859-1.672c-0.058-0.111-0.116-0.222-0.174-0.332c-0.28-0.531-0.558-1.047-0.834-1.545   c-0.045-0.082-0.09-0.16-0.135-0.24c-0.266-0.476-0.532-0.938-0.797-1.383c-0.027-0.045-0.054-0.093-0.081-0.138   c-0.277-0.461-0.554-0.901-0.832-1.327c-0.056-0.085-0.111-0.17-0.167-0.254c-0.276-0.417-0.554-0.818-0.833-1.199   c-0.039-0.052-0.078-0.102-0.116-0.154c-0.266-0.356-0.534-0.696-0.804-1.018c-0.038-0.045-0.074-0.092-0.112-0.136   c-0.285-0.334-0.574-0.645-0.866-0.94c-0.06-0.06-0.119-0.119-0.179-0.177c-0.295-0.289-0.594-0.562-0.899-0.812   c-0.034-0.027-0.068-0.051-0.102-0.078c-0.29-0.231-0.585-0.442-0.886-0.637c-0.05-0.032-0.099-0.067-0.149-0.099   c-0.315-0.196-0.638-0.369-0.967-0.524c-0.067-0.031-0.135-0.061-0.203-0.091c-0.338-0.148-0.681-0.281-1.035-0.385   c-0.027-0.008-0.056-0.013-0.083-0.021c-0.338-0.096-0.687-0.168-1.042-0.223c-0.067-0.011-0.134-0.023-0.203-0.032   c-0.367-0.048-0.744-0.073-1.131-0.077c-0.034,0-0.066-0.007-0.1-0.007c-0.056,0-0.117,0.009-0.173,0.01   c-0.272,0.004-0.55,0.02-0.833,0.046c-0.085,0.008-0.168,0.012-0.254,0.022c-0.358,0.041-0.725,0.099-1.102,0.176   c-0.082,0.017-0.167,0.039-0.251,0.058c-0.31,0.068-0.626,0.149-0.949,0.241c-0.111,0.032-0.223,0.063-0.336,0.098   c-0.406,0.125-0.818,0.261-1.246,0.423c-10.781,4.141-3.47,1.344-20.991,8.025c-0.109,0.024-0.172,0.053-0.281,0.095   c-0.082,0.026-0.137,0.04-0.191,0.081c-17.507,6.68-10.185,3.93-20.99,8.011c-10.871,4.142-8.367,12.712-3.772,28.595   c4.602,15.855,5.197,31.066-6.364,42.464c-2.16,1.939-4.312,3.853-6.356,5.884c-0.157,0.17-0.281,0.138-0.474,0.309   c-0.392,0.353-0.788,0.691-1.186,1.018c-0.133,0.109-0.268,0.21-0.402,0.316c-0.267,0.212-0.533,0.424-0.803,0.625   c-0.162,0.12-0.325,0.232-0.488,0.349c-0.245,0.176-0.49,0.352-0.738,0.519c-0.173,0.117-0.349,0.228-0.524,0.34   c-0.239,0.154-0.478,0.308-0.719,0.455c-0.182,0.11-0.365,0.215-0.547,0.321c-0.237,0.137-0.475,0.273-0.714,0.403   c-0.187,0.102-0.375,0.199-0.563,0.296c-0.238,0.123-0.476,0.243-0.715,0.358c-0.191,0.092-0.383,0.182-0.575,0.27   c-0.24,0.11-0.481,0.216-0.724,0.319c-0.192,0.082-0.385,0.162-0.579,0.24c-0.245,0.098-0.492,0.192-0.739,0.284   c-0.192,0.071-0.385,0.142-0.578,0.209c-0.252,0.087-0.505,0.169-0.759,0.25c-0.19,0.061-0.38,0.123-0.572,0.179   c-0.262,0.078-0.525,0.148-0.788,0.219c-0.186,0.05-0.371,0.102-0.557,0.148c-0.279,0.069-0.559,0.13-0.839,0.192   c-0.173,0.038-0.346,0.08-0.519,0.115c-0.321,0.065-0.645,0.121-0.968,0.177c-0.134,0.023-0.268,0.05-0.403,0.072   c-0.459,0.073-0.92,0.137-1.383,0.191c-0.085,0.01-0.172,0.016-0.258,0.025c-0.378,0.042-0.758,0.08-1.139,0.11   c-0.17,0.013-0.342,0.021-0.513,0.031c-0.299,0.019-0.597,0.039-0.897,0.051c-0.193,0.007-0.388,0.01-0.582,0.015   c-0.279,0.007-0.559,0.014-0.839,0.016c-0.121,0-0.243-0.002-0.364-0.003c-0.762-0.004-1.527-0.024-2.297-0.069   c-0.056-0.003-0.111-0.009-0.167-0.012c-0.786-0.048-1.575-0.116-2.369-0.205c-0.038-0.004-0.075-0.007-0.112-0.012   c-0.791-0.09-1.586-0.202-2.384-0.329c-0.096-0.016-0.192-0.029-0.288-0.045c-0.769-0.126-1.541-0.271-2.315-0.429   c-0.123-0.025-0.246-0.049-0.369-0.076c-0.763-0.16-1.529-0.336-2.297-0.524c-0.13-0.032-0.26-0.065-0.391-0.098   c-0.772-0.194-1.546-0.401-2.322-0.621c-0.116-0.033-0.232-0.067-0.348-0.101c-0.795-0.229-1.591-0.47-2.39-0.724   c-0.082-0.026-0.165-0.054-0.247-0.081c-0.837-0.27-1.676-0.549-2.517-0.843c-0.999-0.349-1.967-0.688-2.907-1.014   c-0.003-0.001-0.006-0.002-0.009-0.003c-0.927-0.321-1.824-0.629-2.696-0.922c-0.033-0.011-0.065-0.021-0.098-0.033   c-0.843-0.283-1.662-0.552-2.456-0.803c-0.05-0.016-0.099-0.031-0.148-0.046c-0.773-0.244-1.523-0.471-2.25-0.68   c-0.06-0.017-0.119-0.033-0.178-0.05c-0.711-0.202-1.4-0.385-2.068-0.547c-0.067-0.016-0.132-0.031-0.198-0.046   c-0.653-0.156-1.288-0.292-1.902-0.405c-0.07-0.013-0.139-0.024-0.208-0.037c-0.602-0.106-1.185-0.191-1.749-0.251   c-0.072-0.008-0.144-0.014-0.215-0.021c-0.554-0.054-1.09-0.083-1.609-0.087c-0.034,0-0.071-0.005-0.104-0.005   c-0.086,0-0.169,0.006-0.254,0.007c-0.129,0.002-0.258,0.005-0.386,0.011c-0.147,0.006-0.292,0.017-0.437,0.028   c-0.125,0.01-0.249,0.02-0.371,0.033c-0.142,0.015-0.282,0.035-0.421,0.055c-0.12,0.017-0.24,0.035-0.358,0.056   c-0.137,0.024-0.272,0.054-0.406,0.083c-0.115,0.025-0.229,0.05-0.342,0.08c-0.133,0.035-0.264,0.074-0.395,0.114   c-0.109,0.033-0.219,0.066-0.327,0.103c-0.128,0.045-0.254,0.095-0.379,0.145c-0.105,0.042-0.211,0.083-0.314,0.129   c-0.124,0.055-0.245,0.117-0.366,0.178c-0.101,0.05-0.202,0.1-0.3,0.154c-0.12,0.066-0.236,0.139-0.353,0.211   c-0.096,0.06-0.193,0.117-0.287,0.181c-0.115,0.078-0.228,0.163-0.34,0.248c-0.091,0.068-0.184,0.134-0.273,0.206   c-0.111,0.09-0.219,0.188-0.328,0.285c-0.087,0.078-0.175,0.151-0.261,0.233c-0.108,0.103-0.212,0.215-0.317,0.325   c-0.082,0.086-0.166,0.168-0.246,0.258c-0.105,0.118-0.207,0.245-0.309,0.37c-0.077,0.094-0.156,0.184-0.231,0.282   c-0.102,0.132-0.199,0.275-0.298,0.415c-0.073,0.103-0.147,0.2-0.218,0.308c-0.1,0.149-0.195,0.31-0.292,0.468   c-0.067,0.109-0.136,0.212-0.202,0.326c-0.104,0.18-0.205,0.373-0.307,0.564c-0.055,0.102-0.111,0.198-0.164,0.303   c-0.153,0.301-0.303,0.615-0.45,0.942c-4.705,10.549-1.508,3.36-9.223,20.47c-0.041,0.124-0.07,0.214-0.111,0.302   c-0.04,0.078-0.054,0.145-0.082,0.18c-7.646,17.122-4.415,9.95-9.154,20.51c-4.732,10.623,3.072,14.889,17.549,22.891   c14.408,7.941,25.544,18.229,25.531,34.33c-0.171,2.867-0.269,5.705-0.269,8.586c-0.041,0.315-0.171,0.46-0.184,0.802   c-0.851,16.199-12.57,25.861-27.465,33.006c-14.841,7.201-22.939,11.007-18.825,21.884c4.137,10.78,1.358,3.456,8.011,20.998   c0.04,0.109,0.068,0.172,0.123,0.295c0.013,0.06,0.041,0.13,0.082,0.177c6.698,17.522,3.902,10.157,8.002,20.999   c0.133,0.347,0.271,0.679,0.412,0.998c0.043,0.098,0.09,0.187,0.134,0.282c0.101,0.216,0.201,0.433,0.306,0.637   c0.056,0.108,0.115,0.208,0.172,0.312c0.097,0.18,0.194,0.36,0.295,0.528c0.063,0.106,0.13,0.203,0.194,0.305   c0.1,0.157,0.199,0.315,0.303,0.463c0.069,0.099,0.142,0.189,0.212,0.285c0.104,0.138,0.207,0.277,0.314,0.408   c0.075,0.092,0.153,0.176,0.23,0.263c0.107,0.123,0.215,0.245,0.326,0.36c0.081,0.083,0.164,0.159,0.246,0.238   c0.112,0.107,0.225,0.216,0.341,0.316c0.085,0.073,0.173,0.142,0.26,0.212c0.118,0.095,0.236,0.188,0.357,0.275   c0.091,0.065,0.184,0.126,0.277,0.188c0.123,0.081,0.246,0.16,0.371,0.235c0.097,0.057,0.195,0.109,0.294,0.163   c0.127,0.068,0.256,0.136,0.388,0.198c0.102,0.049,0.205,0.094,0.308,0.139c0.134,0.057,0.268,0.112,0.405,0.164   c0.107,0.04,0.216,0.077,0.325,0.113c0.14,0.047,0.28,0.091,0.423,0.131c0.112,0.032,0.225,0.062,0.339,0.09   c0.146,0.036,0.292,0.069,0.441,0.1c0.118,0.024,0.237,0.047,0.357,0.067c0.151,0.026,0.304,0.049,0.458,0.069   c0.123,0.017,0.247,0.032,0.372,0.045c0.158,0.017,0.318,0.029,0.48,0.04c0.128,0.01,0.256,0.019,0.386,0.024   c0.166,0.007,0.334,0.011,0.503,0.013c0.084,0.001,0.166,0.007,0.251,0.007c0.029,0,0.062-0.004,0.091-0.004   c0.507-0.003,1.032-0.026,1.572-0.069c0.077-0.006,0.153-0.012,0.23-0.019c0.543-0.048,1.103-0.114,1.681-0.197   c0.084-0.013,0.169-0.025,0.254-0.038c0.582-0.088,1.181-0.193,1.798-0.313c0.089-0.018,0.179-0.035,0.27-0.054   c0.625-0.125,1.267-0.265,1.929-0.418c0.089-0.021,0.181-0.043,0.271-0.064c0.674-0.159,1.364-0.33,2.076-0.515   c0.086-0.022,0.174-0.046,0.261-0.068c0.729-0.19,1.474-0.391,2.243-0.603c0.071-0.02,0.145-0.04,0.216-0.061   c0.794-0.22,1.606-0.448,2.445-0.688c0.044-0.013,0.091-0.025,0.135-0.038c0.865-0.247,1.751-0.502,2.665-0.765   c0.715-0.208,1.429-0.405,2.142-0.597c0.149-0.04,0.299-0.08,0.448-0.119c0.694-0.183,1.387-0.357,2.078-0.521   c0.125-0.03,0.25-0.058,0.375-0.087c0.653-0.152,1.304-0.297,1.954-0.432c0.083-0.018,0.167-0.036,0.251-0.054   c0.695-0.142,1.387-0.271,2.078-0.391c0.144-0.024,0.288-0.05,0.432-0.073c0.694-0.116,1.387-0.224,2.075-0.316   c0.069-0.009,0.137-0.017,0.206-0.025c0.65-0.085,1.297-0.157,1.942-0.22c0.116-0.011,0.232-0.023,0.348-0.034   c0.675-0.061,1.346-0.107,2.015-0.142c0.127-0.007,0.255-0.012,0.382-0.018c0.625-0.026,1.246-0.042,1.865-0.045   c0.579-0.003,1.156,0.004,1.729,0.024c0.143,0.005,0.284,0.014,0.426,0.021c0.365,0.017,0.729,0.036,1.091,0.062   c0.177,0.013,0.353,0.028,0.529,0.044c0.329,0.028,0.657,0.061,0.984,0.098c0.183,0.021,0.365,0.042,0.547,0.064   c0.329,0.043,0.657,0.091,0.984,0.142c0.168,0.026,0.337,0.05,0.505,0.079c0.389,0.066,0.775,0.141,1.16,0.22   c0.1,0.021,0.202,0.038,0.301,0.06c0.481,0.104,0.959,0.219,1.435,0.344c0.13,0.034,0.259,0.074,0.389,0.11   c0.345,0.095,0.688,0.193,1.03,0.301c0.172,0.054,0.343,0.112,0.515,0.17c0.299,0.1,0.597,0.202,0.893,0.312   c0.18,0.066,0.359,0.134,0.538,0.204c0.292,0.113,0.581,0.232,0.87,0.355c0.171,0.073,0.343,0.146,0.514,0.222   c0.317,0.143,0.632,0.293,0.947,0.447c0.135,0.066,0.271,0.129,0.405,0.197c0.442,0.226,0.881,0.463,1.315,0.713   c0.09,0.052,0.178,0.109,0.267,0.162c0.347,0.204,0.691,0.414,1.033,0.635c0.152,0.099,0.303,0.203,0.454,0.305   c0.278,0.188,0.555,0.378,0.83,0.576c0.162,0.116,0.323,0.236,0.484,0.357c0.265,0.199,0.528,0.404,0.79,0.614   c0.156,0.126,0.313,0.252,0.469,0.382c0.277,0.231,0.552,0.473,0.825,0.717c0.131,0.117,0.264,0.231,0.394,0.352   c0.4,0.369,0.797,0.75,1.188,1.148c0.026,0.015,0.048,0.015,0.048,0.015c1.933,2.161,3.833,4.292,5.857,6.323   c0.143,0.164,0.143,0.303,0.294,0.479c10.863,12.036,9.423,27.184,3.957,42.776c-5.452,15.595-8.449,23.981,2.14,28.749   c10.546,4.737,3.415,1.528,20.483,9.202c0.151,0.04,0.261,0.096,0.426,0.166c0,0.021,0.013,0.024,0.029,0.025   c0,0,0,0.001,0.001,0.001c0.007,0,0.015-0.001,0.023-0.001c17.125,7.695,9.973,4.432,20.513,9.169   c0.469,0.21,0.921,0.387,1.366,0.548c0.1,0.036,0.2,0.072,0.298,0.106c0.43,0.147,0.851,0.275,1.26,0.378   c0.066,0.017,0.131,0.027,0.197,0.043c0.368,0.086,0.728,0.153,1.081,0.203c0.075,0.011,0.151,0.024,0.226,0.033   c0.384,0.047,0.758,0.07,1.125,0.073c0.032,0.001,0.066,0.007,0.098,0.007c0.048,0,0.093-0.009,0.14-0.01   c0.355-0.005,0.705-0.026,1.046-0.071c0.026-0.003,0.053-0.004,0.079-0.008c0.357-0.051,0.705-0.13,1.048-0.223   c0.077-0.021,0.154-0.043,0.231-0.065c0.335-0.102,0.666-0.22,0.99-0.361c0.049-0.021,0.097-0.048,0.146-0.07   c0.295-0.135,0.585-0.288,0.872-0.457c0.06-0.035,0.121-0.067,0.181-0.104c0.31-0.19,0.614-0.4,0.916-0.629   c0.068-0.051,0.135-0.105,0.203-0.158c0.292-0.23,0.583-0.474,0.87-0.739c0.018-0.017,0.037-0.031,0.055-0.049   c0.3-0.279,0.597-0.584,0.892-0.9c0.068-0.073,0.136-0.146,0.204-0.221c0.289-0.318,0.577-0.65,0.863-1.003   c0.049-0.061,0.097-0.124,0.146-0.186c0.261-0.326,0.521-0.667,0.782-1.021c0.055-0.074,0.11-0.146,0.165-0.223   c0.286-0.394,0.572-0.806,0.86-1.232c0.067-0.099,0.134-0.2,0.201-0.301c0.284-0.428,0.569-0.866,0.857-1.324   c0.013-0.021,0.026-0.04,0.039-0.061c0.3-0.479,0.604-0.978,0.909-1.488c0.07-0.116,0.14-0.233,0.211-0.352   c0.298-0.502,0.599-1.015,0.904-1.545c0.057-0.099,0.115-0.201,0.173-0.301c0.281-0.491,0.566-0.992,0.855-1.506   c0.055-0.099,0.11-0.194,0.166-0.293c0.325-0.58,0.656-1.173,0.993-1.78c0.084-0.151,0.168-0.304,0.253-0.456   c0.325-0.587,0.653-1.179,0.99-1.789c7.9-14.388,18.215-25.523,34.303-25.524c1.396,0.087,2.804,0.15,4.218,0.192   c0.538,0.016,1.082,0.015,1.622,0.023c0.82,0.015,1.637,0.037,2.461,0.037c0.127,0,0.253,0,0.38,0   c0.302,0.041,0.398,0.179,0.714,0.187c16.238,0.844,25.921,12.549,33.074,27.451c0.318,0.661,0.626,1.303,0.932,1.938   c0.066,0.136,0.132,0.272,0.197,0.407c0.312,0.647,0.619,1.278,0.921,1.896c0.049,0.102,0.098,0.2,0.147,0.3   c0.302,0.616,0.601,1.219,0.895,1.803c0.01,0.021,0.021,0.043,0.032,0.063c0.294,0.584,0.584,1.147,0.873,1.698   c0.053,0.101,0.105,0.201,0.158,0.301c0.283,0.537,0.564,1.058,0.843,1.561c0.042,0.076,0.084,0.15,0.126,0.226   c0.27,0.482,0.539,0.95,0.808,1.399c0.025,0.041,0.049,0.085,0.074,0.126c0.279,0.464,0.557,0.905,0.836,1.332   c0.054,0.083,0.107,0.165,0.161,0.246c0.278,0.418,0.558,0.821,0.838,1.203c0.037,0.049,0.073,0.096,0.11,0.145   c0.268,0.358,0.538,0.699,0.81,1.023c0.037,0.044,0.073,0.09,0.11,0.133c0.286,0.334,0.575,0.645,0.867,0.939   c0.059,0.06,0.118,0.117,0.177,0.175c0.295,0.289,0.595,0.562,0.9,0.81c0.033,0.027,0.068,0.052,0.102,0.078   c0.289,0.23,0.583,0.44,0.883,0.633c0.051,0.033,0.102,0.069,0.153,0.101c0.314,0.194,0.635,0.366,0.963,0.52   c0.069,0.033,0.139,0.062,0.208,0.094c0.336,0.146,0.677,0.278,1.029,0.382c0.029,0.008,0.059,0.014,0.088,0.021   c0.335,0.095,0.68,0.166,1.031,0.221c0.07,0.011,0.14,0.024,0.211,0.033c0.365,0.048,0.74,0.072,1.125,0.076   c0.035,0,0.066,0.007,0.101,0.007c0.057,0,0.119-0.009,0.177-0.01c0.27-0.005,0.544-0.02,0.824-0.046   c0.087-0.008,0.172-0.013,0.261-0.022c0.357-0.042,0.723-0.1,1.098-0.176c0.081-0.017,0.166-0.038,0.248-0.057   c0.312-0.068,0.629-0.148,0.953-0.241c0.11-0.031,0.219-0.062,0.331-0.097c0.406-0.124,0.819-0.261,1.246-0.422   c8.911-3.408,5.425-2.083,13.76-5.263c-1.282,10.854-9.579,17.197-19.934,21.751c-10.598,4.688-16.358,7.16-13.724,14.879   c2.646,7.672,0.868,2.465,5.105,14.917c0.041,0.079,0.041,0.132,0.071,0.218c0.013,0.055,0.03,0.081,0.053,0.129   c4.283,12.452,2.503,7.217,5.142,14.9c0.155,0.453,0.325,0.869,0.504,1.26c0.017,0.037,0.033,0.078,0.05,0.114   c0.172,0.367,0.358,0.701,0.552,1.015c0.029,0.046,0.058,0.095,0.087,0.14c0.193,0.299,0.398,0.571,0.614,0.821   c0.036,0.042,0.072,0.084,0.109,0.124c0.219,0.243,0.448,0.463,0.689,0.661c0.039,0.031,0.078,0.061,0.117,0.091   c0.249,0.194,0.507,0.369,0.779,0.521c0.033,0.018,0.068,0.033,0.102,0.052c0.287,0.151,0.583,0.285,0.896,0.395   c0.013,0.004,0.025,0.007,0.038,0.011c0.318,0.108,0.65,0.195,0.997,0.263c0.022,0.004,0.043,0.01,0.065,0.014   c0.341,0.064,0.698,0.106,1.067,0.134c0.046,0.003,0.09,0.008,0.136,0.011c0.262,0.017,0.528,0.027,0.804,0.027   c0.076,0,0.159-0.008,0.235-0.009c0.175-0.003,0.357-0.012,0.538-0.021c0.253-0.013,0.509-0.027,0.773-0.051   c0.19-0.018,0.385-0.038,0.582-0.061c0.272-0.03,0.549-0.065,0.833-0.106c0.203-0.03,0.408-0.061,0.617-0.095   c0.294-0.048,0.596-0.102,0.902-0.158c0.215-0.04,0.43-0.08,0.651-0.124c0.319-0.063,0.647-0.134,0.979-0.205   c0.224-0.049,0.445-0.095,0.675-0.146c0.354-0.08,0.72-0.166,1.088-0.253c0.225-0.053,0.442-0.103,0.673-0.158   c0.415-0.1,0.844-0.206,1.275-0.313c0.199-0.049,0.389-0.095,0.591-0.146c0.626-0.156,1.268-0.318,1.93-0.485   c0.626-0.158,1.25-0.305,1.873-0.444c0.188-0.043,0.377-0.083,0.565-0.123c0.461-0.1,0.921-0.193,1.38-0.281   c0.186-0.036,0.371-0.073,0.556-0.106c0.614-0.112,1.227-0.216,1.835-0.306c0.078-0.011,0.154-0.019,0.231-0.03   c0.536-0.076,1.068-0.142,1.6-0.198c0.19-0.021,0.38-0.038,0.569-0.056c0.448-0.042,0.895-0.076,1.339-0.103   c0.17-0.011,0.34-0.022,0.51-0.031c0.593-0.027,1.183-0.044,1.768-0.042c0.073,0,0.146,0.003,0.22,0.004   c0.523,0.005,1.042,0.023,1.557,0.053c0.12,0.008,0.24,0.013,0.359,0.021c0.555,0.039,1.105,0.094,1.651,0.164   c0.113,0.015,0.226,0.033,0.339,0.049c0.504,0.072,1.005,0.157,1.5,0.258c0.07,0.015,0.142,0.026,0.212,0.041   c0.538,0.115,1.068,0.252,1.595,0.403c0.118,0.034,0.237,0.07,0.354,0.106c0.53,0.162,1.056,0.337,1.573,0.539   c0.034,0.014,0.067,0.029,0.102,0.043c0.491,0.194,0.975,0.412,1.452,0.645c0.106,0.052,0.213,0.102,0.317,0.155   c0.492,0.249,0.978,0.519,1.455,0.811c0.086,0.053,0.17,0.11,0.255,0.164c0.436,0.274,0.864,0.568,1.286,0.881   c0.073,0.054,0.146,0.104,0.219,0.158c0.458,0.349,0.908,0.725,1.351,1.12c0.098,0.088,0.194,0.178,0.291,0.268   c0.449,0.416,0.893,0.849,1.324,1.316c0.011,0.002,0.011,0.002,0.014,0.013c1.313,1.553,2.584,3.101,3.953,4.58   c0.086,0.117,0.094,0.207,0.204,0.329c7.312,8.718,5.965,19.297,1.754,30.105c-4.177,10.807-6.509,16.616,0.821,20.224   c7.295,3.551,2.352,1.131,14.143,6.916c0.125,0.053,0.172,0.09,0.287,0.129c0.007,0.027,0.024,0.011,0.048,0.035   c11.811,5.78,6.885,3.345,14.175,6.896c0.427,0.209,0.837,0.381,1.236,0.53c0.129,0.048,0.252,0.082,0.378,0.124   c0.268,0.089,0.532,0.17,0.788,0.231c0.142,0.035,0.28,0.06,0.418,0.086c0.233,0.044,0.463,0.078,0.688,0.1   c0.136,0.013,0.271,0.024,0.405,0.029c0.079,0.002,0.162,0.017,0.24,0.017c0.159,0,0.312-0.021,0.467-0.032   c0.095-0.007,0.191-0.008,0.284-0.02c0.321-0.039,0.636-0.099,0.943-0.188c0.048-0.014,0.094-0.036,0.141-0.051   c0.26-0.082,0.516-0.182,0.768-0.298c0.099-0.046,0.195-0.1,0.293-0.15c0.202-0.106,0.403-0.223,0.602-0.351   c0.099-0.064,0.197-0.128,0.295-0.196c0.215-0.152,0.428-0.319,0.64-0.497c0.07-0.059,0.141-0.111,0.21-0.172   c0.277-0.245,0.553-0.511,0.828-0.799c0.067-0.071,0.136-0.151,0.204-0.226c0.21-0.228,0.42-0.465,0.63-0.717   c0.096-0.114,0.19-0.233,0.286-0.352c0.191-0.239,0.383-0.487,0.576-0.745c0.091-0.121,0.182-0.241,0.273-0.367   c0.234-0.323,0.471-0.66,0.709-1.009c0.045-0.066,0.089-0.126,0.134-0.193c0.286-0.424,0.577-0.868,0.871-1.328   c0.086-0.134,0.173-0.273,0.26-0.41c0.217-0.343,0.436-0.692,0.659-1.054c0.106-0.172,0.213-0.346,0.321-0.522   c0.226-0.369,0.455-0.746,0.688-1.133c0.093-0.153,0.184-0.303,0.277-0.458c0.313-0.521,0.631-1.05,0.96-1.599   c0.362-0.61,0.731-1.212,1.106-1.804c0.137-0.215,0.277-0.42,0.415-0.632c0.243-0.373,0.484-0.748,0.733-1.112   c0.166-0.243,0.338-0.476,0.507-0.715c0.227-0.32,0.45-0.645,0.683-0.957c0.186-0.251,0.377-0.49,0.566-0.734   c0.223-0.289,0.442-0.581,0.669-0.861c0.198-0.244,0.403-0.477,0.604-0.715c0.227-0.267,0.451-0.538,0.682-0.797   c0.21-0.234,0.427-0.456,0.641-0.684c0.231-0.246,0.46-0.495,0.696-0.732c0.222-0.222,0.45-0.431,0.676-0.645   c0.238-0.226,0.475-0.456,0.718-0.672c0.231-0.206,0.47-0.398,0.706-0.596c0.247-0.206,0.492-0.415,0.745-0.611   c0.242-0.188,0.492-0.363,0.739-0.542c0.257-0.186,0.511-0.374,0.772-0.549c0.253-0.169,0.513-0.323,0.771-0.482   c0.268-0.164,0.533-0.331,0.807-0.484c0.264-0.147,0.534-0.28,0.803-0.417c0.279-0.143,0.557-0.286,0.842-0.416   c0.275-0.125,0.558-0.236,0.838-0.351c0.291-0.118,0.581-0.236,0.878-0.342c0.286-0.102,0.58-0.19,0.873-0.279   c0.304-0.093,0.606-0.186,0.916-0.266c0.299-0.076,0.604-0.14,0.909-0.204c0.316-0.066,0.634-0.132,0.957-0.184   c0.312-0.051,0.629-0.088,0.946-0.125c0.33-0.039,0.661-0.075,0.998-0.1c0.325-0.022,0.656-0.033,0.987-0.042   c0.48-0.014,0.959-0.03,1.453-0.014c2.018,0.168,4.054,0.294,6.068,0.377c0.218,0.032,0.304,0.125,0.536,0.137   c11.349,0.976,17.865,9.426,22.523,20.043c0.26,0.591,0.51,1.161,0.758,1.721c0.087,0.198,0.171,0.386,0.257,0.579   c0.172,0.388,0.343,0.77,0.51,1.141c0.097,0.213,0.19,0.419,0.285,0.626c0.153,0.337,0.306,0.665,0.457,0.987   c0.095,0.203,0.19,0.405,0.284,0.604c0.155,0.322,0.308,0.633,0.461,0.94c0.084,0.17,0.17,0.345,0.254,0.51   c0.203,0.397,0.405,0.778,0.608,1.146c0.031,0.058,0.062,0.12,0.095,0.177c0.23,0.414,0.463,0.805,0.696,1.18   c0.074,0.119,0.15,0.229,0.226,0.344c0.163,0.25,0.326,0.494,0.491,0.724c0.091,0.127,0.183,0.246,0.275,0.366   c0.154,0.203,0.312,0.397,0.47,0.583c0.097,0.112,0.192,0.223,0.29,0.328c0.166,0.18,0.336,0.346,0.507,0.506   c0.092,0.087,0.183,0.178,0.276,0.258c0.218,0.188,0.441,0.355,0.67,0.512c0.05,0.034,0.098,0.076,0.148,0.109   c0.28,0.181,0.569,0.335,0.866,0.468c0.088,0.039,0.181,0.066,0.27,0.102c0.217,0.084,0.436,0.161,0.663,0.221   c0.117,0.031,0.238,0.053,0.358,0.077c0.212,0.042,0.429,0.075,0.65,0.096c0.13,0.013,0.262,0.022,0.396,0.026   c0.086,0.004,0.167,0.018,0.255,0.018c0.213,0,0.433-0.015,0.655-0.033c0.032-0.002,0.062-0.002,0.095-0.005   c0.359-0.033,0.735-0.099,1.121-0.181c0.097-0.021,0.194-0.043,0.292-0.066c0.397-0.096,0.804-0.206,1.231-0.353   c7.751-2.656,2.284-0.785,15.238-5.233c12.439-4.276,7.229-2.503,14.902-5.126c7.729-2.658,6.153-8.701,3.334-19.946   c-2.819-11.204-2.882-21.849,5.397-29.567c1.604-1.336,3.198-2.666,4.733-4.08c0.096-0.073,0.158-0.082,0.266-0.159   c0.55-0.464,1.106-0.892,1.671-1.287c0.187-0.131,0.377-0.236,0.564-0.36c0.381-0.25,0.761-0.506,1.148-0.728   c0.229-0.131,0.463-0.236,0.694-0.357c0.352-0.186,0.702-0.378,1.059-0.541c0.246-0.112,0.498-0.2,0.747-0.302   c0.347-0.142,0.691-0.292,1.043-0.415c0.259-0.09,0.521-0.157,0.783-0.236c0.347-0.105,0.691-0.22,1.041-0.308   c0.269-0.066,0.54-0.112,0.811-0.17c0.349-0.073,0.695-0.153,1.047-0.21c0.276-0.045,0.556-0.069,0.834-0.104   c0.351-0.044,0.699-0.094,1.053-0.121c0.283-0.022,0.569-0.027,0.854-0.04c0.353-0.017,0.704-0.038,1.06-0.039   c0.321-0.002,0.646,0.014,0.97,0.023c0.31,0.01,0.618,0.012,0.93,0.031c0.329,0.021,0.661,0.058,0.993,0.089   c0.31,0.029,0.619,0.052,0.931,0.09c0.339,0.042,0.681,0.101,1.021,0.152c0.307,0.048,0.612,0.087,0.921,0.143   c0.351,0.062,0.703,0.142,1.056,0.215c0.302,0.062,0.602,0.117,0.904,0.188c0.369,0.085,0.74,0.186,1.11,0.28   c0.288,0.074,0.574,0.141,0.862,0.221c0.4,0.11,0.804,0.236,1.205,0.357c0.261,0.079,0.521,0.15,0.782,0.234   c0.452,0.144,0.907,0.302,1.361,0.459c0.212,0.073,0.424,0.14,0.637,0.215c0.667,0.238,1.336,0.488,2.006,0.749   c0.687,0.268,1.351,0.525,1.998,0.775c0.218,0.084,0.421,0.161,0.635,0.243c0.435,0.166,0.868,0.333,1.285,0.489   c0.237,0.089,0.461,0.169,0.693,0.255c0.374,0.138,0.748,0.276,1.107,0.403c0.236,0.084,0.461,0.158,0.691,0.237   c0.338,0.116,0.674,0.231,0.999,0.336c0.229,0.073,0.447,0.138,0.67,0.206c0.308,0.094,0.614,0.186,0.91,0.268   c0.219,0.061,0.431,0.112,0.644,0.166c0.282,0.071,0.562,0.14,0.835,0.197c0.207,0.045,0.409,0.081,0.61,0.118   c0.261,0.047,0.518,0.089,0.769,0.122c0.196,0.026,0.388,0.046,0.577,0.062c0.241,0.021,0.478,0.036,0.709,0.042   c0.095,0.003,0.196,0.018,0.29,0.018c0.099,0,0.19-0.014,0.287-0.017c0.175-0.006,0.346-0.016,0.515-0.031   c0.195-0.018,0.387-0.045,0.575-0.076c0.161-0.027,0.32-0.057,0.477-0.094c0.186-0.045,0.364-0.102,0.543-0.162   c0.147-0.05,0.295-0.099,0.438-0.159c0.176-0.074,0.345-0.165,0.514-0.257c0.134-0.072,0.27-0.141,0.398-0.225   c0.169-0.108,0.329-0.237,0.491-0.365c0.119-0.095,0.242-0.182,0.357-0.287c0.164-0.149,0.32-0.324,0.478-0.495   c0.104-0.114,0.211-0.216,0.312-0.34c0.169-0.207,0.329-0.444,0.489-0.681c0.08-0.117,0.164-0.221,0.242-0.346   c0.234-0.376,0.461-0.782,0.679-1.228c3.56-7.287,1.141-2.341,6.927-14.147c0.054-0.124,0.091-0.196,0.16-0.334   c5.786-11.829,3.35-6.885,6.914-14.147c3.595-7.358-1.817-10.525-11.759-16.477c-9.854-5.881-17.354-13.319-17.09-24.487   c0.222-2.101,0.339-4.211,0.423-6.332C532.677,435.13,532.76,435.064,532.782,434.867z M397.895,367.934   c6.997-2.401,14.266-3.618,21.604-3.618c28.425,0,53.72,18.063,62.943,44.95c11.903,34.722-6.643,72.65-41.339,84.553   c-7.001,2.404-14.277,3.625-21.622,3.625c-28.402,0-53.692-18.07-62.931-44.966C344.648,417.769,363.195,379.845,397.895,367.934z    M186.829,300.103c-15.458-10.456-27.152-25.23-33.817-42.725c-8.631-22.603-7.936-47.221,1.959-69.311   c9.893-22.085,27.795-38.998,50.408-47.622c10.376-3.958,21.227-5.966,32.251-5.966c0.001,0,0.003,0,0.004,0   c18.158,0,35.734,5.397,50.833,15.608c15.458,10.454,27.152,25.223,33.821,42.709c8.629,22.609,7.937,47.229-1.951,69.321   c-9.887,22.089-27.78,39.004-50.384,47.628c-10.391,3.961-21.25,5.968-32.277,5.968   C219.51,315.713,201.927,310.315,186.829,300.103z"
             id="path2" /><path
             d="M272.846,272.782c2.357,0,4.978-1.047,6.811-2.881c3.667-3.667,3.667-9.691,0-13.62l-29.336-29.335l29.336-29.335   c3.667-3.93,3.667-9.954,0-13.62c-3.667-3.667-9.691-3.667-13.62,0l-29.335,29.335l-29.336-29.335c-3.667-3.667-9.69-3.667-13.62,0   c-3.667,3.666-3.667,9.69,0,13.62l29.336,29.335l-29.336,29.335c-3.667,3.667-3.667,9.691,0,13.62   c1.834,1.834,4.453,2.881,6.811,2.881s4.977-1.047,6.81-2.881l29.336-29.335l29.335,29.335   C267.871,271.735,270.489,272.782,272.846,272.782z"
             id="path4" /><path
             d="M405.927,473.637c2.708,0,5.258-1.101,7.179-3.099l53.644-55.794c3.851-4.003,3.92-10.579,0.12-14.695   c-1.92-1.997-4.469-3.098-7.179-3.098s-5.259,1.101-7.178,3.097l-46.462,48.303l-19.708-20.583   c-1.92-1.997-4.469-3.098-7.178-3.098s-5.259,1.1-7.179,3.098c-3.896,4.051-3.896,10.644-0.008,14.688l26.77,28.083   C400.668,472.537,403.218,473.637,405.927,473.637z"
             id="path6" /></g></svg>
