<?xml version="1.0" encoding="UTF-8" standalone="no"?>
<svg
     xmlns:dc="http://purl.org/dc/elements/1.1/"
     xmlns:cc="http://creativecommons.org/ns#"
     xmlns:rdf="http://www.w3.org/1999/02/22-rdf-syntax-ns#"
     xmlns:svg="http://www.w3.org/2000/svg"
     xmlns="http://www.w3.org/2000/svg"
     xmlns:sodipodi="http://sodipodi.sourceforge.net/DTD/sodipodi-0.dtd"
     xmlns:inkscape="http://www.inkscape.org/namespaces/inkscape"
     version="1.1"
     id="Calque_1"
     x="0px"
     y="0px"
     width="595.279px"
     height="595.281px"
     viewBox="0 0 595.279 595.281"
     enable-background="new 0 0 595.279 595.281"
     xml:space="preserve"
     sodipodi:docname="zoo-project.svg"
     inkscape:version="0.92.2 5c3e80d, 2017-08-06"><title
         id="title11">osgeo-zoo-project</title><metadata
         id="metadata9"><rdf:RDF><cc:Work
                 rdf:about=""><dc:format>image/svg+xml</dc:format><dc:type
                     rdf:resource="http://purl.org/dc/dcmitype/StillImage" /><dc:title>osgeo-zoo-project</dc:title><dc:date>08-21-2018</dc:date><dc:creator><cc:Agent><dc:title>Nicolas Bozon</dc:title></cc:Agent></dc:creator><dc:rights><cc:Agent><dc:title>copyright OSGeo</dc:title></cc:Agent></dc:rights><dc:publisher><cc:Agent><dc:title>OSGeo</dc:title></cc:Agent></dc:publisher><dc:identifier>osgeo-zoo-project</dc:identifier><dc:description>OSGeo ZOO-Project</dc:description><dc:contributor><cc:Agent><dc:title>OSGeo Marketing Committee</dc:title></cc:Agent></dc:contributor><cc:license
                     rdf:resource="http://creativecommons.org/licenses/by-sa/4.0/" /></cc:Work><cc:License
                 rdf:about="http://creativecommons.org/licenses/by-sa/4.0/"><cc:permits
                     rdf:resource="http://creativecommons.org/ns#Reproduction" /><cc:permits
                     rdf:resource="http://creativecommons.org/ns#Distribution" /><cc:requires
                     rdf:resource="http://creativecommons.org/ns#Notice" /><cc:requires
                     rdf:resource="http://creativecommons.org/ns#Attribution" /><cc:permits
                     rdf:resource="http://creativecommons.org/ns#DerivativeWorks" /><cc:requires
                     rdf:resource="http://creativecommons.org/ns#ShareAlike" /></cc:License></rdf:RDF></metadata><defs
         id="defs7" /><sodipodi:namedview
         pagecolor="#ffffff"
         bordercolor="#666666"
         borderopacity="1"
         objecttolerance="10"
         gridtolerance="10"
         guidetolerance="10"
         inkscape:pageopacity="0"
         inkscape:pageshadow="2"
         inkscape:window-width="640"
         inkscape:window-height="480"
         id="namedview5"
         showgrid="false"
         inkscape:zoom="0.39645142"
         inkscape:cx="297.6395"
         inkscape:cy="297.6405"
         inkscape:window-x="0"
         inkscape:window-y="0"
         inkscape:window-maximized="0"
         inkscape:current-layer="Calque_1" /><path
         d="M299.044,31.545c-135.43,0-247.274,120.872-264.436,277.444h528.876C546.322,152.417,434.476,31.545,299.046,31.545H299.044  z M189.918,495.39c-4.231-3.688-10.145-5.56-17.58-5.56h-70.89l69.394-85.943c6.611-8.056,10.939-13.819,13.227-17.616  c2.894-4.791,4.36-10.936,4.36-18.266c0-8.443-2.458-15.108-7.308-19.811c-4.774-4.632-11.519-6.98-20.044-6.98H65.24  c-7.505,0-13.494,2.077-17.799,6.172c-4.37,4.154-6.681,9.756-6.681,16.195c0,6.369,2.365,11.873,6.839,15.924  c4.289,3.88,10.222,5.848,17.641,5.848h56.127l-75.085,93.474c-1.381,1.677-3.01,3.673-4.84,5.936  c-1.941,2.397-3.511,8.335-4.676,9.994c-1.458,2.08-2.641,4.342-3.517,6.728c-0.965,2.63-1.453,5.493-1.453,8.508  c0,8.213,2.919,11.359,8.436,16.451c5.403,4.994,13.042,7.525,22.708,7.525h109.398c7.577,0,13.583-2.057,17.851-6.108  c4.337-4.115,6.629-9.778,6.629-16.38C196.817,503.16,193.065,498.139,189.918,495.39L189.918,495.39z M333.116,350.494  c-13.83-8.14-30.459-12.267-49.424-12.267c-13.96,0-26.683,2.335-37.816,6.94c-11.287,4.672-21.016,11.523-28.915,20.366  c-7.814,8.749-13.846,19.438-17.923,31.772c-3.99,12.075-6.014,25.468-6.014,39.807c0,13.976,1.933,27.208,5.747,39.332  c3.908,12.412,9.805,23.23,17.529,32.148c7.815,9.029,17.667,16.107,29.28,21.037c11.463,4.863,24.52,7.328,38.806,7.328  c14.359,0,27.366-2.4,38.657-7.135c11.466-4.808,21.288-11.867,29.194-20.986c7.798-8.992,13.713-19.723,17.582-31.89  c3.779-11.887,5.697-25.208,5.697-39.593c0-19.549-3.53-36.918-10.493-51.623C357.855,370.59,347.118,358.734,333.116,350.494  L333.116,350.494z M256.915,478.578c-3.632-4.371-6.518-10.074-8.578-16.951c-2.159-7.207-3.254-15.455-3.254-24.514  c0-8.977,1.091-17.11,3.245-24.182c2.064-6.792,4.852-12.363,8.283-16.556c3.357-4.101,7.232-7.13,11.84-9.263  c4.671-2.154,9.657-3.201,15.241-3.201c7.915,0,14.682,1.902,20.682,5.812c5.961,3.893,10.473,9.594,13.793,17.432  c3.506,8.285,5.283,18.363,5.283,29.953c0,12.551-1.918,23.119-5.701,31.407c-3.633,7.959-8.254,13.602-14.125,17.249  c-5.966,3.701-12.334,5.501-19.472,5.501c-5.591,0-10.541-1.029-15.132-3.146C264.469,486.025,260.51,482.902,256.915,478.578  L256.915,478.578z M551.415,385.728c-7.17-15.141-17.904-26.994-31.904-35.233c-13.823-8.141-30.452-12.269-49.427-12.269  c-13.96,0-26.683,2.336-37.812,6.939c-11.282,4.664-21.012,11.518-28.918,20.367c-7.816,8.75-13.846,19.439-17.921,31.773  c-3.991,12.068-6.016,25.462-6.016,39.807c0,13.984,1.933,27.217,5.745,39.328c3.907,12.414,9.807,23.23,17.531,32.148  c7.816,9.031,17.668,16.109,29.275,21.036c11.457,4.864,24.513,7.331,38.809,7.331c14.355,0,27.361-2.4,38.657-7.137  c11.464-4.806,21.286-11.865,29.193-20.984c7.799-8.992,13.716-19.721,17.583-31.887c3.779-11.887,5.697-25.207,5.697-39.594  C561.909,417.808,558.379,400.437,551.415,385.728L551.415,385.728z M443.309,478.578c-3.636-4.375-6.521-10.078-8.577-16.953  c-2.159-7.207-3.254-15.455-3.254-24.512c0-8.979,1.09-17.113,3.245-24.184c2.062-6.79,4.849-12.359,8.283-16.555  c3.354-4.1,7.229-7.129,11.84-9.26c4.669-2.154,9.654-3.203,15.239-3.203c7.914,0,14.682,1.904,20.682,5.813  c5.961,3.89,10.473,9.593,13.791,17.431c3.506,8.286,5.285,18.363,5.285,29.953c0,12.551-1.918,23.119-5.699,31.408  c-3.635,7.959-8.256,13.602-14.128,17.248c-5.964,3.703-12.333,5.501-19.471,5.501c-5.589,0-10.54-1.028-15.131-3.144  C450.863,486.025,446.903,482.902,443.309,478.578L443.309,478.578z"
         id="path2" /></svg>