<?xml version="1.0" encoding="UTF-8"?>
<svg width="593px" height="228px" viewBox="0 0 593 228" version="1.1" xmlns="http://www.w3.org/2000/svg" xmlns:xlink="http://www.w3.org/1999/xlink">
    <!-- Generator: Sketch 45.2 (43514) - http://www.bohemiancoding.com/sketch -->
    <title>OSGeo_incubation</title>
    <desc>Created with Sketch.</desc>
    <defs></defs>
    <g id="Page-1" stroke="none" stroke-width="1" fill="none" fill-rule="evenodd">
        <g id="OSGeo_incubation">
            <path d="M208.4063,200.2391 C208.251633,200.084433 208.1743,199.891101 208.1743,199.6591 L208.1743,196.9331 C208.1743,196.701099 208.251633,196.507767 208.4063,196.3531 C208.560967,196.198433 208.754299,196.1211 208.9863,196.1211 L214.8443,196.1211 L214.8443,164.5111 L208.9863,164.5111 C208.754299,164.5111 208.560967,164.433767 208.4063,164.2791 C208.251633,164.124433 208.1743,163.931101 208.1743,163.6991 L208.1743,160.9731 C208.1743,160.741099 208.251633,160.547767 208.4063,160.3931 C208.560967,160.238433 208.754299,160.1611 208.9863,160.1611 L225.4583,160.1611 C225.690301,160.1611 225.883633,160.238433 226.0383,160.3931 C226.192967,160.547767 226.2703,160.741099 226.2703,160.9731 L226.2703,163.6991 C226.2703,163.931101 226.192967,164.124433 226.0383,164.2791 C225.883633,164.433767 225.690301,164.5111 225.4583,164.5111 L219.6003,164.5111 L219.6003,196.1211 L225.4583,196.1211 C225.690301,196.1211 225.883633,196.198433 226.0383,196.3531 C226.192967,196.507767 226.2703,196.701099 226.2703,196.9331 L226.2703,199.6591 C226.2703,199.891101 226.192967,200.084433 226.0383,200.2391 C225.883633,200.393767 225.690301,200.4711 225.4583,200.4711 L208.9863,200.4711 C208.754299,200.4711 208.560967,200.393767 208.4063,200.2391 Z M235.4923,200.1811 C235.337633,200.026433 235.2603,199.833101 235.2603,199.6011 L235.2603,168.4551 C235.2603,168.223099 235.337633,168.029767 235.4923,167.8751 C235.646967,167.720433 235.840299,167.6431 236.0723,167.6431 L238.9723,167.6431 C239.204301,167.6431 239.397633,167.720433 239.5523,167.8751 C239.706967,168.029767 239.7843,168.223099 239.7843,168.4551 L239.7843,171.6451 C240.789638,170.059759 242.094625,168.861104 243.6993,168.0491 C245.303975,167.237096 247.111623,166.8311 249.1223,166.8311 C252.408983,166.8311 255.06729,167.836423 257.0973,169.8471 C259.12731,171.857777 260.1423,174.506417 260.1423,177.7931 L260.1423,199.6011 C260.1423,199.833101 260.064967,200.026433 259.9103,200.1811 C259.755633,200.335767 259.562301,200.4131 259.3303,200.4131 L256.4303,200.4131 C256.198299,200.4131 256.004967,200.335767 255.8503,200.1811 C255.695633,200.026433 255.6183,199.833101 255.6183,199.6011 L255.6183,178.6631 C255.6183,176.188421 254.97064,174.30344 253.6753,173.0081 C252.37996,171.71276 250.630311,171.0651 248.4263,171.0651 C245.83562,171.0651 243.747641,171.915758 242.1623,173.6171 C240.576959,175.318442 239.7843,177.657752 239.7843,180.6351 L239.7843,199.6011 C239.7843,199.833101 239.706967,200.026433 239.5523,200.1811 C239.397633,200.335767 239.204301,200.4131 238.9723,200.4131 L236.0723,200.4131 C235.840299,200.4131 235.646967,200.335767 235.4923,200.1811 Z M274.8163,199.5431 C272.882957,198.421761 271.355639,196.884776 270.2343,194.9321 C269.112961,192.979424 268.5523,190.862445 268.5523,188.5811 L268.5523,179.5331 C268.5523,177.251755 269.112961,175.134776 270.2343,173.1821 C271.355639,171.229424 272.882957,169.692439 274.8163,168.5711 C276.749643,167.449761 278.856955,166.8891 281.1383,166.8891 C282.800975,166.8891 284.376626,167.19843 285.8653,167.8171 C287.353974,168.43577 288.658961,169.286428 289.7803,170.3691 C290.012301,170.601101 290.1283,170.871765 290.1283,171.1811 C290.1283,171.451768 290.012301,171.741765 289.7803,172.0511 C289.393631,172.476435 288.948969,172.921098 288.4463,173.3851 C288.175632,173.617101 287.885635,173.7331 287.5763,173.7331 C287.228298,173.7331 286.918968,173.597768 286.6483,173.3271 C285.101626,171.896426 283.264977,171.1811 281.1383,171.1811 C279.668959,171.1811 278.31564,171.538763 277.0783,172.2541 C275.84096,172.969437 274.864637,173.94576 274.1493,175.1831 C273.433963,176.42044 273.0763,177.773759 273.0763,179.2431 L273.0763,188.8711 C273.0763,190.340441 273.433963,191.69376 274.1493,192.9311 C274.864637,194.16844 275.84096,195.144763 277.0783,195.8601 C278.31564,196.575437 279.668959,196.9331 281.1383,196.9331 C283.264977,196.9331 285.101626,196.217774 286.6483,194.7871 C286.918968,194.516432 287.228298,194.3811 287.5763,194.3811 C287.885635,194.3811 288.175632,194.497099 288.4463,194.7291 C288.910302,195.115769 289.354965,195.560431 289.7803,196.0631 C290.012301,196.295101 290.1283,196.585098 290.1283,196.9331 C290.1283,197.242435 290.012301,197.513099 289.7803,197.7451 C288.658961,198.827772 287.353974,199.67843 285.8653,200.2971 C284.376626,200.91577 282.800975,201.2251 281.1383,201.2251 C278.856955,201.2251 276.749643,200.664439 274.8163,199.5431 Z M301.0033,198.2091 C298.97329,196.198423 297.9583,193.549783 297.9583,190.2631 L297.9583,168.4551 C297.9583,168.223099 298.035633,168.029767 298.1903,167.8751 C298.344967,167.720433 298.538299,167.6431 298.7703,167.6431 L301.6703,167.6431 C301.902301,167.6431 302.095633,167.720433 302.2503,167.8751 C302.404967,168.029767 302.4823,168.223099 302.4823,168.4551 L302.4823,189.3931 C302.4823,191.829112 303.139627,193.704427 304.4543,195.0191 C305.768973,196.333773 307.508956,196.9911 309.6743,196.9911 C312.26498,196.9911 314.352959,196.140442 315.9383,194.4391 C317.523641,192.737758 318.3163,190.398448 318.3163,187.4211 L318.3163,168.4551 C318.3163,168.223099 318.393633,168.029767 318.5483,167.8751 C318.702967,167.720433 318.896299,167.6431 319.1283,167.6431 L322.0283,167.6431 C322.260301,167.6431 322.453633,167.720433 322.6083,167.8751 C322.762967,168.029767 322.8403,168.223099 322.8403,168.4551 L322.8403,199.6591 C322.8403,199.891101 322.762967,200.084433 322.6083,200.2391 C322.453633,200.393767 322.260301,200.4711 322.0283,200.4711 L319.1283,200.4711 C318.896299,200.4711 318.702967,200.393767 318.5483,200.2391 C318.393633,200.084433 318.3163,199.891101 318.3163,199.6591 L318.3163,196.4111 C317.310962,197.996441 316.005975,199.195096 314.4013,200.0071 C312.796625,200.819104 310.988977,201.2251 308.9783,201.2251 C305.691617,201.2251 303.03331,200.219777 301.0033,198.2091 Z M341.5453,200.2101 C340.017959,199.53343 338.693639,198.595773 337.5723,197.3971 L337.5723,199.6591 C337.5723,199.891101 337.494967,200.084433 337.3403,200.2391 C337.185633,200.393767 336.992301,200.4711 336.7603,200.4711 L334.0923,200.4711 C333.860299,200.4711 333.666967,200.393767 333.5123,200.2391 C333.357633,200.084433 333.2803,199.891101 333.2803,199.6591 L333.2803,157.2611 C333.2803,157.029099 333.357633,156.835767 333.5123,156.6811 C333.666967,156.526433 333.860299,156.4491 334.0923,156.4491 L336.9923,156.4491 C337.224301,156.4491 337.417633,156.526433 337.5723,156.6811 C337.726967,156.835767 337.8043,157.029099 337.8043,157.2611 L337.8043,170.9491 C338.886972,169.673094 340.172626,168.677437 341.6613,167.9621 C343.149974,167.246763 344.725625,166.8891 346.3883,166.8891 C348.592311,166.8891 350.622291,167.430428 352.4783,168.5131 C354.334309,169.595772 355.803628,171.065091 356.8863,172.9211 C357.968972,174.777109 358.5103,176.807089 358.5103,179.0111 L358.5103,189.1031 C358.5103,191.307111 357.968972,193.337091 356.8863,195.1931 C355.803628,197.049109 354.334309,198.518428 352.4783,199.6011 C350.622291,200.683772 348.592311,201.2251 346.3883,201.2251 C344.686958,201.2251 343.072641,200.88677 341.5453,200.2101 Z M349.9843,195.8601 C351.22164,195.144763 352.197963,194.16844 352.9133,192.9311 C353.628637,191.69376 353.9863,190.340441 353.9863,188.8711 L353.9863,179.2431 C353.9863,177.773759 353.628637,176.42044 352.9133,175.1831 C352.197963,173.94576 351.22164,172.969437 349.9843,172.2541 C348.74696,171.538763 347.393641,171.1811 345.9243,171.1811 C344.454959,171.1811 343.091973,171.538763 341.8353,172.2541 C340.578627,172.969437 339.592637,173.94576 338.8773,175.1831 C338.161963,176.42044 337.8043,177.773759 337.8043,179.2431 L337.8043,188.8711 C337.8043,190.340441 338.161963,191.69376 338.8773,192.9311 C339.592637,194.16844 340.578627,195.144763 341.8353,195.8601 C343.091973,196.575437 344.454959,196.9331 345.9243,196.9331 C347.393641,196.9331 348.74696,196.575437 349.9843,195.8601 Z M368.0223,198.7021 C366.127624,197.020092 365.1803,194.806447 365.1803,192.0611 C365.1803,189.509087 366.040625,187.401775 367.7613,185.7391 C369.481975,184.076425 371.888951,183.032435 374.9823,182.6071 L382.5223,181.5631 C383.643639,181.408433 384.455631,181.031436 384.9583,180.4321 C385.460969,179.832764 385.7123,178.972439 385.7123,177.8511 L385.7123,177.3871 C385.7123,175.531091 384.987307,174.032772 383.5373,172.8921 C382.087293,171.751428 380.279644,171.1811 378.1143,171.1811 C376.412958,171.1811 374.933973,171.51943 373.6773,172.1961 C372.420627,172.87277 371.42497,173.810427 370.6903,175.0091 C370.380965,175.511769 369.994302,175.7631 369.5303,175.7631 C369.298299,175.7631 369.046968,175.666434 368.7763,175.4731 L367.2103,174.4291 C366.862298,174.119765 366.6883,173.791102 366.6883,173.4431 C366.6883,173.288433 366.746299,173.095101 366.8623,172.8631 C367.983639,171.007091 369.520624,169.547439 371.4733,168.4841 C373.425976,167.420761 375.678287,166.8891 378.2303,166.8891 C380.550312,166.8891 382.618958,167.324096 384.4363,168.1941 C386.253642,169.064104 387.655295,170.291759 388.6413,171.8771 C389.627305,173.462441 390.1203,175.29909 390.1203,177.3871 L390.1203,199.6591 C390.1203,199.891101 390.042967,200.084433 389.8883,200.2391 C389.733633,200.393767 389.540301,200.4711 389.3083,200.4711 L386.8723,200.4711 C386.640299,200.4711 386.446967,200.393767 386.2923,200.2391 C386.137633,200.084433 386.0603,199.891101 386.0603,199.6591 L386.0603,195.6571 C384.861627,197.397109 383.324643,198.760095 381.4493,199.7461 C379.573957,200.732105 377.534311,201.2251 375.3303,201.2251 C372.352952,201.2251 369.916976,200.384108 368.0223,198.7021 Z M380.9563,195.6571 C382.502974,194.651762 383.711296,193.385441 384.5813,191.8581 C385.451304,190.330759 385.8863,188.832441 385.8863,187.3631 L385.8863,184.9851 C384.958295,185.101101 381.980992,185.507097 376.9543,186.2031 L375.3303,186.4351 C371.463614,187.015103 369.5303,188.832418 369.5303,191.8871 C369.5303,193.472441 370.110294,194.748429 371.2703,195.7151 C372.430306,196.681771 373.938291,197.1651 375.7943,197.1651 C377.688976,197.1651 379.409626,196.662438 380.9563,195.6571 Z M403.8083,197.9481 C402.222959,196.266092 401.4303,194.149113 401.4303,191.5971 L401.4303,171.8771 L397.6023,171.8771 C397.370299,171.8771 397.176967,171.799767 397.0223,171.6451 C396.867633,171.490433 396.7903,171.297101 396.7903,171.0651 L396.7903,168.4551 C396.7903,168.223099 396.867633,168.029767 397.0223,167.8751 C397.176967,167.720433 397.370299,167.6431 397.6023,167.6431 L401.4303,167.6431 L401.4303,161.5531 C401.4303,161.321099 401.507633,161.127767 401.6623,160.9731 C401.816967,160.818433 402.010299,160.7411 402.2423,160.7411 L405.1423,160.7411 C405.374301,160.7411 405.567633,160.818433 405.7223,160.9731 C405.876967,161.127767 405.9543,161.321099 405.9543,161.5531 L405.9543,167.6431 L416.1623,167.6431 C416.394301,167.6431 416.587633,167.720433 416.7423,167.8751 C416.896967,168.029767 416.9743,168.223099 416.9743,168.4551 L416.9743,171.1231 C416.9743,171.355101 416.896967,171.548433 416.7423,171.7031 C416.587633,171.857767 416.394301,171.9351 416.1623,171.9351 L405.9543,171.9351 L405.9543,191.0751 C405.9543,192.583108 406.408629,193.791429 407.3173,194.7001 C408.225971,195.608771 409.414959,196.082433 410.8843,196.1211 L416.1623,196.1791 C416.394301,196.1791 416.587633,196.256433 416.7423,196.4111 C416.896967,196.565767 416.9743,196.759099 416.9743,196.9911 L416.9743,199.6591 C416.9743,199.891101 416.896967,200.084433 416.7423,200.2391 C416.587633,200.393767 416.394301,200.4711 416.1623,200.4711 L410.3623,200.4711 C407.578286,200.4711 405.393641,199.630108 403.8083,197.9481 Z M429.9083,162.8871 C429.753633,162.732433 429.6763,162.539101 429.6763,162.3071 L429.6763,157.2611 C429.6763,157.029099 429.753633,156.835767 429.9083,156.6811 C430.062967,156.526433 430.256299,156.4491 430.4883,156.4491 L433.2723,156.4491 C433.504301,156.4491 433.697633,156.526433 433.8523,156.6811 C434.006967,156.835767 434.0843,157.029099 434.0843,157.2611 L434.0843,162.3071 C434.0843,162.539101 434.006967,162.732433 433.8523,162.8871 C433.697633,163.041767 433.504301,163.1191 433.2723,163.1191 L430.4883,163.1191 C430.256299,163.1191 430.062967,163.041767 429.9083,162.8871 Z M430.2273,199.8621 C429.821298,199.456098 429.6183,198.963103 429.6183,198.3831 L429.6183,171.9351 L423.5863,171.9351 C423.354299,171.9351 423.160967,171.857767 423.0063,171.7031 C422.851633,171.548433 422.7743,171.355101 422.7743,171.1231 L422.7743,168.4551 C422.7743,168.223099 422.851633,168.029767 423.0063,167.8751 C423.160967,167.720433 423.354299,167.6431 423.5863,167.6431 L432.0543,167.6431 C432.634303,167.6431 433.127298,167.846098 433.5333,168.2521 C433.939302,168.658102 434.1423,169.151097 434.1423,169.7311 L434.1423,196.1791 L440.1163,196.1791 C440.348301,196.1791 440.541633,196.256433 440.6963,196.4111 C440.850967,196.565767 440.9283,196.759099 440.9283,196.9911 L440.9283,199.6591 C440.9283,199.891101 440.850967,200.084433 440.6963,200.2391 C440.541633,200.393767 440.348301,200.4711 440.1163,200.4711 L431.7063,200.4711 C431.126297,200.4711 430.633302,200.268102 430.2273,199.8621 Z M452.4123,199.5431 C450.478957,198.421761 448.951639,196.884776 447.8303,194.9321 C446.708961,192.979424 446.1483,190.862445 446.1483,188.5811 L446.1483,179.5331 C446.1483,177.251755 446.708961,175.134776 447.8303,173.1821 C448.951639,171.229424 450.478957,169.692439 452.4123,168.5711 C454.345643,167.449761 456.452955,166.8891 458.7343,166.8891 C461.015645,166.8891 463.122957,167.449761 465.0563,168.5711 C466.989643,169.692439 468.516961,171.229424 469.6383,173.1821 C470.759639,175.134776 471.3203,177.251755 471.3203,179.5331 L471.3203,188.5811 C471.3203,190.862445 470.759639,192.979424 469.6383,194.9321 C468.516961,196.884776 466.989643,198.421761 465.0563,199.5431 C463.122957,200.664439 461.015645,201.2251 458.7343,201.2251 C456.452955,201.2251 454.345643,200.664439 452.4123,199.5431 Z M462.7943,195.8601 C464.03164,195.144763 465.007963,194.16844 465.7233,192.9311 C466.438637,191.69376 466.7963,190.340441 466.7963,188.8711 L466.7963,179.2431 C466.7963,177.773759 466.438637,176.42044 465.7233,175.1831 C465.007963,173.94576 464.03164,172.969437 462.7943,172.2541 C461.55696,171.538763 460.203641,171.1811 458.7343,171.1811 C457.264959,171.1811 455.91164,171.538763 454.6743,172.2541 C453.43696,172.969437 452.460637,173.94576 451.7453,175.1831 C451.029963,176.42044 450.6723,177.773759 450.6723,179.2431 L450.6723,188.8711 C450.6723,190.340441 451.029963,191.69376 451.7453,192.9311 C452.460637,194.16844 453.43696,195.144763 454.6743,195.8601 C455.91164,196.575437 457.264959,196.9331 458.7343,196.9331 C460.203641,196.9331 461.55696,196.575437 462.7943,195.8601 Z M480.5423,200.1811 C480.387633,200.026433 480.3103,199.833101 480.3103,199.6011 L480.3103,168.4551 C480.3103,168.223099 480.387633,168.029767 480.5423,167.8751 C480.696967,167.720433 480.890299,167.6431 481.1223,167.6431 L484.0223,167.6431 C484.254301,167.6431 484.447633,167.720433 484.6023,167.8751 C484.756967,168.029767 484.8343,168.223099 484.8343,168.4551 L484.8343,171.6451 C485.839638,170.059759 487.144625,168.861104 488.7493,168.0491 C490.353975,167.237096 492.161623,166.8311 494.1723,166.8311 C497.458983,166.8311 500.11729,167.836423 502.1473,169.8471 C504.17731,171.857777 505.1923,174.506417 505.1923,177.7931 L505.1923,199.6011 C505.1923,199.833101 505.114967,200.026433 504.9603,200.1811 C504.805633,200.335767 504.612301,200.4131 504.3803,200.4131 L501.4803,200.4131 C501.248299,200.4131 501.054967,200.335767 500.9003,200.1811 C500.745633,200.026433 500.6683,199.833101 500.6683,199.6011 L500.6683,178.6631 C500.6683,176.188421 500.02064,174.30344 498.7253,173.0081 C497.42996,171.71276 495.680311,171.0651 493.4763,171.0651 C490.88562,171.0651 488.797641,171.915758 487.2123,173.6171 C485.626959,175.318442 484.8343,177.657752 484.8343,180.6351 L484.8343,199.6011 C484.8343,199.833101 484.756967,200.026433 484.6023,200.1811 C484.447633,200.335767 484.254301,200.4131 484.0223,200.4131 L481.1223,200.4131 C480.890299,200.4131 480.696967,200.335767 480.5423,200.1811 Z" id="Incubation" fill="#0B3A42"></path>
            <g id="Group" transform="translate(7.000000, 7.000000)" fill-rule="nonzero">
                <path d="M218.7,131.7 C213.7,128.8 209.7,124.8 206.8,119.8 C203.9,114.8 202.4,109.3 202.4,103.3 L202.4,76.8 C202.4,70.8 203.9,65.3 206.8,60.3 C209.7,55.3 213.7,51.3 218.7,48.4 C223.7,45.5 229.2,44 235.1,44 C241,44 246.5,45.5 251.5,48.4 C256.5,51.3 260.5,55.3 263.4,60.3 C266.3,65.3 267.8,70.8 267.8,76.8 L267.8,103.3 C267.8,109.3 266.3,114.8 263.4,119.8 C260.5,124.8 256.5,128.8 251.5,131.7 C246.5,134.6 241,136.1 235.1,136.1 C229.2,136.1 223.7,134.6 218.7,131.7 M243.9,119.1 C246.6,117.4 248.8,115.2 250.4,112.4 C252,109.6 252.8,106.6 252.8,103.3 L252.8,76.8 C252.8,73.6 252,70.5 250.4,67.7 C248.8,64.9 246.6,62.6 243.9,61 C241.2,59.4 238.3,58.5 235.1,58.5 C232,58.5 229,59.3 226.3,61 C223.6,62.7 221.4,64.9 219.8,67.7 C218.2,70.5 217.4,73.5 217.4,76.8 L217.4,103.3 C217.4,106.5 218.2,109.6 219.8,112.4 C221.4,115.2 223.6,117.5 226.3,119.1 C229,120.8 231.9,121.6 235.1,121.6 C238.2,121.5 241.2,120.7 243.9,119.1" id="Shape" fill="#4DB05B"></path>
                <path d="M291.8,133.8 C287.5,132.4 283.5,130.3 279.8,127.8 C279.4,127.6 279.1,127.1 278.9,126.5 C278.7,125.9 278.8,125.3 279,124.8 L283.3,117 C283.8,116 284.6,115.5 285.6,115.5 C286.3,115.5 286.9,115.7 287.5,116 C293.7,119.9 299.4,121.8 304.8,121.8 C309.2,121.8 312.6,120.7 315.1,118.6 C317.6,116.5 318.9,113.7 318.9,110.3 C318.9,108.1 318.3,106.2 317,104.6 C315.8,103.1 314.1,101.8 312.1,100.7 C310,99.6 307,98.3 303.1,96.7 L299.5,95.2 C293.9,92.8 289.2,89.7 285.4,86 C281.6,82.3 279.6,76.8 279.6,69.6 C279.6,64.5 280.7,60.1 283,56.2 C285.3,52.3 288.4,49.3 292.5,47.1 C296.5,44.9 301.2,43.9 306.5,43.9 C310.9,43.9 315.2,44.6 319.5,46.1 C323.8,47.6 327.7,49.6 331.2,52.1 C331.6,52.3 331.9,52.8 332.1,53.4 C332.3,54 332.2,54.6 332,55.1 L327.9,62.9 C327.4,63.9 326.6,64.4 325.5,64.4 C324.8,64.4 324.2,64.2 323.6,63.9 C320.4,61.8 317.3,60.3 314.4,59.4 C311.5,58.5 308.9,58 306.6,58 C302.9,58 300,59 297.8,61 C295.7,63 294.6,65.6 294.6,68.8 C294.6,72 295.8,74.7 298.1,76.8 C300.5,78.9 304.2,81 309.4,83.2 C310.1,83.4 313,84.6 317.9,86.6 C322.8,88.6 326.7,91.6 329.6,95.5 C332.5,99.4 333.9,104 333.9,109.3 C333.9,114.4 332.7,119 330.3,123 C327.9,127 324.5,130.1 320.1,132.4 C315.7,134.7 310.7,135.8 305,135.8 C300.5,136 296.1,135.2 291.8,133.8" id="Shape" fill="#4DB05B"></path>
                <path d="M361.8,131.7 C356.8,128.8 352.9,124.8 349.9,119.8 C347,114.8 345.5,109.3 345.5,103.3 L345.5,76.8 C345.5,70.8 347,65.3 349.9,60.3 C352.8,55.3 356.8,51.3 361.8,48.4 C366.8,45.5 372.2,44 378.2,44 C383.4,44 388.2,44.9 392.7,46.8 C397.1,48.7 400.9,51.4 404.1,54.9 C404.6,55.5 404.8,56.2 404.8,57 C404.8,57.8 404.5,58.7 403.8,59.5 L398.4,65.2 C397.7,65.9 397.1,66.2 396.4,66.2 C395.6,66.2 394.8,65.8 394.2,65.1 C390.1,60.7 384.8,58.5 378.4,58.5 C375.3,58.5 372.3,59.3 369.6,61 C366.9,62.7 364.7,64.9 363.1,67.7 C361.5,70.5 360.7,73.5 360.7,76.8 L360.7,103.3 C360.7,106.5 361.5,109.6 363.1,112.4 C364.7,115.2 366.9,117.5 369.6,119.1 C372.3,120.8 375.2,121.6 378.4,121.6 C381.5,121.6 384.5,120.8 387.2,119.2 C389.9,117.6 392.1,115.5 393.6,112.7 C395.2,110 395.9,107 395.9,103.8 L395.9,97.7 L379.3,97.7 C378.6,97.7 377.9,97.5 377.4,97 C376.9,96.5 376.7,95.9 376.7,95.1 L376.7,86.2 C376.7,85.5 376.9,84.8 377.4,84.3 C377.9,83.8 378.5,83.6 379.3,83.6 L405.4,83.6 C406.9,83.6 408.1,84.1 409.2,85.1 C410.2,86.1 410.7,87.4 410.7,88.9 L410.7,103.3 C410.7,109.3 409.2,114.8 406.3,119.8 C403.4,124.8 399.4,128.8 394.4,131.7 C389.4,134.6 384,136.1 378.2,136.1 C372.2,136.1 366.8,134.6 361.8,131.7" id="Shape" fill="#003A40"></path>
                <path d="M438,130.5 C433.5,127.9 429.9,124.2 427.3,119.7 C424.7,115.2 423.3,110.2 423.3,104.8 L423.3,91.4 C423.3,86 424.6,81 427.3,76.5 C429.9,72 433.5,68.3 438,65.7 C442.5,63.1 447.4,61.7 452.8,61.7 C458.2,61.7 463.1,63 467.6,65.7 C472.1,68.3 475.7,72 478.3,76.5 C480.9,81.1 482.3,86 482.3,91.4 L482.3,99.7 C482.3,101.2 481.8,102.4 480.8,103.5 C479.8,104.5 478.5,105 477,105 L438.3,105 L438.3,105.6 C438.3,109.7 439.7,113.1 442.6,116 C445.5,118.9 448.9,120.3 452.9,120.3 L472.5,120.3 C473.2,120.3 473.9,120.6 474.4,121.1 C474.9,121.6 475.1,122.2 475.1,123 L475.1,132 C475.1,132.7 474.9,133.4 474.4,133.9 C473.9,134.4 473.3,134.6 472.5,134.6 L452.9,134.6 C447.4,134.5 442.4,133.1 438,130.5 L438,130.5 Z M467.3,91.6 L467.3,90.5 C467.3,86.4 465.9,83 463,80.1 C460.2,77.2 456.7,75.8 452.7,75.8 C448.7,75.8 445.2,77.2 442.4,80.1 C439.6,83 438.1,86.4 438.1,90.5 L438.1,91.6 L467.3,91.6 Z" id="Shape" fill="#003A40"></path>
                <path d="M508,132.2 C503.5,129.6 499.9,126.1 497.3,121.6 C494.7,117.1 493.4,112.3 493.4,107.1 L493.4,90.7 C493.4,85.5 494.7,80.6 497.3,76.2 C499.9,71.7 503.5,68.2 508,65.6 C512.5,63 517.4,61.7 522.8,61.7 C528.2,61.7 533.1,63 537.6,65.6 C542.1,68.2 545.7,71.8 548.3,76.2 C550.9,80.7 552.3,85.5 552.3,90.7 L552.3,107 C552.3,112.2 551,117.1 548.3,121.5 C545.7,126 542.1,129.5 537.6,132.1 C533.1,134.7 528.2,136 522.8,136 C517.4,136.1 512.4,134.8 508,132.2 M533,117.4 C535.8,114.5 537.3,111.1 537.3,107 L537.3,90.7 C537.3,86.6 535.9,83.2 533,80.3 C530.2,77.4 526.7,76 522.7,76 C518.7,76 515.2,77.4 512.4,80.3 C509.6,83.2 508.1,86.6 508.1,90.7 L508.1,107 C508.1,111.1 509.5,114.5 512.4,117.4 C515.2,120.3 518.7,121.7 522.7,121.7 C526.8,121.7 530.2,120.2 533,117.4" id="Shape" fill="#003A40"></path>
                <path d="M85.5,36.2 L85.5,18.2 L85.5,0 L74.2,19.8 C43.4,26.7 20.1,53.2 18.1,85.6 L36.2,85.6 C38.4,59.3 59.3,38.4 85.5,36.2" id="Shape" fill="#4DB05B"></path>
                <path d="M36.2,94.6 L18.2,94.6 L0,94.6 L19.8,105.9 C26.7,136.7 53.2,160 85.6,162 L85.6,143.9 C59.3,141.7 38.4,120.8 36.2,94.6" id="Shape" fill="#003A40"></path>
                <path d="M143.9,85.5 L162,85.5 L180.2,85.5 L160.4,74.2 C153.5,43.4 127,20.1 94.6,18.1 L94.6,36.2 C120.8,38.4 141.7,59.3 143.9,85.5" id="Shape" fill="#003A40"></path>
                <path d="M94.5,143.9 L94.5,162 L94.5,180.2 L105.8,160.4 C136.6,153.5 159.9,127 161.9,94.6 L143.8,94.6 C141.7,120.8 120.8,141.7 94.5,143.9" id="Shape" fill="#4DB05B"></path>
                <path d="M95.6,84.5 L62.2,62.2 L84.5,95.6 L117.9,117.9 L95.6,84.5 Z M90,93.9 C87.8,93.9 86.1,92.1 86.1,90 C86.1,87.8 87.9,86.1 90,86.1 C92.2,86.1 93.9,87.9 93.9,90 C93.9,92.1 92.2,93.9 90,93.9 L90,93.9 Z" id="Shape" fill="#003A40"></path>
                <polygon id="Shape" fill="#4DB05B" points="84.5 95.6 77 84.4 42.8 90.1 77 95.7 62.2 117.9 84.3 103.1 90 137.3 95.7 103.1"></polygon>
                <polygon id="Shape" fill="#4DB05B" points="103.1 84.4 117.9 62.2 95.7 77 90 42.8 84.4 77 95.6 84.5 103.1 95.7 137.3 90"></polygon>
            </g>
        </g>
    </g>
</svg>