<?xml version="1.0" encoding="UTF-8" standalone="no"?>
<!-- Generator: Adobe Illustrator 21.1.0, SVG Export Plug-In . SVG Version: 6.00 Build 0)  -->

<svg
   xmlns:osb="http://www.openswatchbook.org/uri/2009/osb"
   xmlns:dc="http://purl.org/dc/elements/1.1/"
   xmlns:cc="http://creativecommons.org/ns#"
   xmlns:rdf="http://www.w3.org/1999/02/22-rdf-syntax-ns#"
   xmlns:svg="http://www.w3.org/2000/svg"
   xmlns="http://www.w3.org/2000/svg"
   xmlns:xlink="http://www.w3.org/1999/xlink"
   xmlns:sodipodi="http://sodipodi.sourceforge.net/DTD/sodipodi-0.dtd"
   xmlns:inkscape="http://www.inkscape.org/namespaces/inkscape"
   version="1.1"
   id="Layer_1"
   x="0px"
   y="0px"
   viewBox="0 0 474.80318 184.25196"
   xml:space="preserve"
   inkscape:version="0.91 r13725"
   sodipodi:docname="osgeo-logo-cmyk-Orginal_Abstand.svg"
   width="134mm"
   height="52mm"><metadata
     id="metadata41"><rdf:RDF><cc:Work
         rdf:about=""><dc:format>image/svg+xml</dc:format><dc:type
           rdf:resource="http://purl.org/dc/dcmitype/StillImage" /><dc:title></dc:title></cc:Work></rdf:RDF></metadata><defs
     id="defs39"><linearGradient
       id="Cutkontur"
       osb:paint="solid"><stop
         style="stop-color:#ff00ff;stop-opacity:1;"
         offset="0"
         id="stop4554" /></linearGradient><clipPath
       id="SVGID_2_-3"><rect
         height="180.10001"
         width="552.09998"
         y="0"
         id="use11-6"
         x="0" /></clipPath><clipPath
       id="clipPath4179"><rect
         height="180.10001"
         width="552.09998"
         y="0"
         id="use4181"
         x="0" /></clipPath><clipPath
       id="clipPath4183"><rect
         height="180.10001"
         width="552.09998"
         y="0"
         id="use4185"
         x="0" /></clipPath><clipPath
       id="clipPath4187"><rect
         height="180.10001"
         width="552.09998"
         y="0"
         id="use4189"
         x="0" /></clipPath><clipPath
       id="clipPath4191"><rect
         height="180.10001"
         width="552.09998"
         y="0"
         id="use4193"
         x="0" /></clipPath><clipPath
       id="clipPath4195"><rect
         height="180.10001"
         width="552.09998"
         y="0"
         id="use4197"
         x="0" /></clipPath><clipPath
       id="clipPath4199"><rect
         height="180.10001"
         width="552.09998"
         y="0"
         id="use4201"
         x="0" /></clipPath><clipPath
       id="clipPath4203"><rect
         height="180.10001"
         width="552.09998"
         y="0"
         id="use4205"
         x="0" /></clipPath><clipPath
       id="clipPath4207"><rect
         height="180.10001"
         width="552.09998"
         y="0"
         id="use4209"
         x="0" /></clipPath><clipPath
       id="clipPath4211"><rect
         height="180.10001"
         width="552.09998"
         y="0"
         id="use4213"
         x="0" /></clipPath><clipPath
       id="clipPath4215"><rect
         height="180.10001"
         width="552.09998"
         y="0"
         id="use4217"
         x="0" /></clipPath><clipPath
       id="clipPath4219"><rect
         height="180.10001"
         width="552.09998"
         y="0"
         id="use4221"
         x="0" /></clipPath><clipPath
       id="SVGID_2_-6"><use
         xlink:href="#SVGID_1_-8"
         style="overflow:visible"
         id="use11-2"
         x="0"
         y="0"
         width="100%"
         height="100%" /></clipPath><clipPath
       id="clipPath4364"><use
         xlink:href="#SVGID_1_-8"
         style="overflow:visible"
         id="use4366"
         x="0"
         y="0"
         width="100%"
         height="100%" /></clipPath><clipPath
       id="clipPath4368"><use
         xlink:href="#SVGID_1_-8"
         style="overflow:visible"
         id="use4370"
         x="0"
         y="0"
         width="100%"
         height="100%" /></clipPath><clipPath
       id="clipPath4372"><use
         xlink:href="#SVGID_1_-8"
         style="overflow:visible"
         id="use4374"
         x="0"
         y="0"
         width="100%"
         height="100%" /></clipPath><clipPath
       id="clipPath4376"><use
         xlink:href="#SVGID_1_-8"
         style="overflow:visible"
         id="use4378"
         x="0"
         y="0"
         width="100%"
         height="100%" /></clipPath><clipPath
       id="clipPath4380"><use
         xlink:href="#SVGID_1_-8"
         style="overflow:visible"
         id="use4382"
         x="0"
         y="0"
         width="100%"
         height="100%" /></clipPath><clipPath
       id="clipPath4384"><use
         xlink:href="#SVGID_1_-8"
         style="overflow:visible"
         id="use4386"
         x="0"
         y="0"
         width="100%"
         height="100%" /></clipPath><clipPath
       id="clipPath4388"><use
         xlink:href="#SVGID_1_-8"
         style="overflow:visible"
         id="use4390"
         x="0"
         y="0"
         width="100%"
         height="100%" /></clipPath><clipPath
       id="clipPath4392"><use
         xlink:href="#SVGID_1_-8"
         style="overflow:visible"
         id="use4394"
         x="0"
         y="0"
         width="100%"
         height="100%" /></clipPath><clipPath
       id="clipPath4396"><use
         xlink:href="#SVGID_1_-8"
         style="overflow:visible"
         id="use4398"
         x="0"
         y="0"
         width="100%"
         height="100%" /></clipPath><clipPath
       id="clipPath4400"><use
         xlink:href="#SVGID_1_-8"
         style="overflow:visible"
         id="use4402"
         x="0"
         y="0"
         width="100%"
         height="100%" /></clipPath><clipPath
       id="clipPath4404"><use
         xlink:href="#SVGID_1_-8"
         style="overflow:visible"
         id="use4406"
         x="0"
         y="0"
         width="100%"
         height="100%" /></clipPath><defs
       id="defs7-1"><rect
         x="0"
         height="180.10001"
         width="552.09998"
         y="0"
         id="SVGID_1_-8" /></defs><clipPath
       id="clipPath4411"><use
         height="100%"
         width="100%"
         y="0"
         x="0"
         id="use4413"
         style="overflow:visible"
         xlink:href="#SVGID_1_-8" /></clipPath><linearGradient
       inkscape:collect="always"
       xlink:href="#Cutkontur"
       id="linearGradient4556"
       x1="11.060058"
       y1="92.125974"
       x2="463.74312"
       y2="92.125974"
       gradientUnits="userSpaceOnUse" /></defs><sodipodi:namedview
     pagecolor="#ffffff"
     bordercolor="#666666"
     borderopacity="1"
     objecttolerance="10"
     gridtolerance="10"
     guidetolerance="10"
     inkscape:pageopacity="0"
     inkscape:pageshadow="2"
     inkscape:window-width="1920"
     inkscape:window-height="1056"
     id="namedview37"
     showgrid="false"
     units="mm"
     inkscape:zoom="0.85310636"
     inkscape:cx="556.13754"
     inkscape:cy="76.947835"
     inkscape:window-x="1920"
     inkscape:window-y="24"
     inkscape:window-maximized="1"
     inkscape:current-layer="layer1" /><style
     type="text/css"
     id="style3">
	.st0{clip-path:url(#SVGID_2_);fill:#4DB05B;}
	.st1{clip-path:url(#SVGID_2_);fill:#003A40;}
</style><g
     inkscape:groupmode="layer"
     id="layer1"
     inkscape:label="Logo"
     style="display:inline"><g
       id="g5"
       transform="matrix(0.7869643,0,0,0.78696435,20.160089,21.259843)"><defs
         id="defs7"><rect
           id="SVGID_1_"
           y="0"
           width="552.09998"
           height="180.10001"
           x="0" /></defs><clipPath
         id="SVGID_2_"><use
           xlink:href="#SVGID_1_"
           style="overflow:visible"
           id="use11"
           x="0"
           y="0"
           width="100%"
           height="100%" /></clipPath><path
         class="st0"
         d="m 218.7,131.7 c -5,-2.9 -9,-6.9 -11.9,-11.9 -2.9,-5 -4.4,-10.5 -4.4,-16.5 l 0,-26.5 c 0,-6 1.5,-11.5 4.4,-16.5 2.9,-5 6.9,-9 11.9,-11.9 5,-2.9 10.5,-4.4 16.4,-4.4 5.9,0 11.4,1.5 16.4,4.4 5,2.9 9,6.9 11.9,11.9 2.9,5 4.4,10.5 4.4,16.5 l 0,26.5 c 0,6 -1.5,11.5 -4.4,16.5 -2.9,5 -6.9,9 -11.9,11.9 -5,2.9 -10.5,4.4 -16.4,4.4 -5.9,0 -11.4,-1.5 -16.4,-4.4 m 25.2,-12.6 c 2.7,-1.7 4.9,-3.9 6.5,-6.7 1.6,-2.8 2.4,-5.8 2.4,-9.1 l 0,-26.5 c 0,-3.2 -0.8,-6.3 -2.4,-9.1 -1.6,-2.8 -3.8,-5.1 -6.5,-6.7 -2.7,-1.7 -5.6,-2.5 -8.8,-2.5 -3.1,0 -6.1,0.8 -8.8,2.5 -2.7,1.7 -4.9,3.9 -6.5,6.7 -1.6,2.8 -2.4,5.8 -2.4,9.1 l 0,26.5 c 0,3.2 0.8,6.3 2.4,9.1 1.6,2.8 3.8,5.1 6.5,6.7 2.7,1.7 5.6,2.5 8.8,2.5 3.1,-0.1 6.1,-0.9 8.8,-2.5"
         id="path13"
         clip-path="url(#SVGID_2_)"
         inkscape:connector-curvature="0"
         style="fill:#4db05b" /><path
         class="st0"
         d="m 291.8,133.8 c -4.3,-1.4 -8.3,-3.5 -12,-6 -0.4,-0.2 -0.7,-0.7 -0.9,-1.3 -0.2,-0.6 -0.1,-1.2 0.1,-1.7 l 4.3,-7.8 c 0.5,-1 1.3,-1.5 2.3,-1.5 0.7,0 1.3,0.2 1.9,0.5 6.2,3.9 11.9,5.8 17.3,5.8 4.4,0 7.8,-1.1 10.3,-3.2 2.5,-2.1 3.8,-4.9 3.8,-8.3 0,-2.2 -0.6,-4.1 -1.9,-5.7 -1.2,-1.5 -2.9,-2.8 -4.9,-3.9 -2.1,-1.1 -5.1,-2.4 -9,-4 l -3.6,-1.5 c -5.6,-2.4 -10.3,-5.5 -14.1,-9.2 -3.8,-3.7 -5.8,-9.2 -5.8,-16.4 0,-5.1 1.1,-9.5 3.4,-13.4 2.3,-3.9 5.4,-6.9 9.5,-9.1 4,-2.2 8.7,-3.2 14,-3.2 4.4,0 8.7,0.7 13,2.2 4.3,1.5 8.2,3.5 11.7,6 0.4,0.2 0.7,0.7 0.9,1.3 0.2,0.6 0.1,1.2 -0.1,1.7 l -4.1,7.8 c -0.5,1 -1.3,1.5 -2.4,1.5 -0.7,0 -1.3,-0.2 -1.9,-0.5 -3.2,-2.1 -6.3,-3.6 -9.2,-4.5 -2.9,-0.9 -5.5,-1.4 -7.8,-1.4 -3.7,0 -6.6,1 -8.8,3 -2.1,2 -3.2,4.6 -3.2,7.8 0,3.2 1.2,5.9 3.5,8 2.4,2.1 6.1,4.2 11.3,6.4 0.7,0.2 3.6,1.4 8.5,3.4 4.9,2 8.8,5 11.7,8.9 2.9,3.9 4.3,8.5 4.3,13.8 0,5.1 -1.2,9.7 -3.6,13.7 -2.4,4 -5.8,7.1 -10.2,9.4 -4.4,2.3 -9.4,3.4 -15.1,3.4 -4.5,0.2 -8.9,-0.6 -13.2,-2"
         id="path15"
         clip-path="url(#SVGID_2_)"
         inkscape:connector-curvature="0"
         style="fill:#4db05b" /><path
         class="st1"
         d="m 361.8,131.7 c -5,-2.9 -8.9,-6.9 -11.9,-11.9 -2.9,-5 -4.4,-10.5 -4.4,-16.5 l 0,-26.5 c 0,-6 1.5,-11.5 4.4,-16.5 2.9,-5 6.9,-9 11.9,-11.9 5,-2.9 10.4,-4.4 16.4,-4.4 5.2,0 10,0.9 14.5,2.8 4.4,1.9 8.2,4.6 11.4,8.1 0.5,0.6 0.7,1.3 0.7,2.1 0,0.8 -0.3,1.7 -1,2.5 l -5.4,5.7 c -0.7,0.7 -1.3,1 -2,1 -0.8,0 -1.6,-0.4 -2.2,-1.1 -4.1,-4.4 -9.4,-6.6 -15.8,-6.6 -3.1,0 -6.1,0.8 -8.8,2.5 -2.7,1.7 -4.9,3.9 -6.5,6.7 -1.6,2.8 -2.4,5.8 -2.4,9.1 l 0,26.5 c 0,3.2 0.8,6.3 2.4,9.1 1.6,2.8 3.8,5.1 6.5,6.7 2.7,1.7 5.6,2.5 8.8,2.5 3.1,0 6.1,-0.8 8.8,-2.4 2.7,-1.6 4.9,-3.7 6.4,-6.5 1.6,-2.7 2.3,-5.7 2.3,-8.9 l 0,-6.1 -16.6,0 c -0.7,0 -1.4,-0.2 -1.9,-0.7 -0.5,-0.5 -0.7,-1.1 -0.7,-1.9 l 0,-8.9 c 0,-0.7 0.2,-1.4 0.7,-1.9 0.5,-0.5 1.1,-0.7 1.9,-0.7 l 26.1,0 c 1.5,0 2.7,0.5 3.8,1.5 1,1 1.5,2.3 1.5,3.8 l 0,14.4 c 0,6 -1.5,11.5 -4.4,16.5 -2.9,5 -6.9,9 -11.9,11.9 -5,2.9 -10.4,4.4 -16.2,4.4 -6,0 -11.4,-1.5 -16.4,-4.4"
         id="path17"
         clip-path="url(#SVGID_2_)"
         inkscape:connector-curvature="0"
         style="fill:#003a40" /><path
         class="st1"
         d="m 438,130.5 c -4.5,-2.6 -8.1,-6.3 -10.7,-10.8 -2.6,-4.5 -4,-9.5 -4,-14.9 l 0,-13.4 c 0,-5.4 1.3,-10.4 4,-14.9 2.6,-4.5 6.2,-8.2 10.7,-10.8 4.5,-2.6 9.4,-4 14.8,-4 5.4,0 10.3,1.3 14.8,4 4.5,2.6 8.1,6.3 10.7,10.8 2.6,4.6 4,9.5 4,14.9 l 0,8.3 c 0,1.5 -0.5,2.7 -1.5,3.8 -1,1 -2.3,1.5 -3.8,1.5 l -38.7,0 0,0.6 c 0,4.1 1.4,7.5 4.3,10.4 2.9,2.9 6.3,4.3 10.3,4.3 l 19.6,0 c 0.7,0 1.4,0.3 1.9,0.8 0.5,0.5 0.7,1.1 0.7,1.9 l 0,9 c 0,0.7 -0.2,1.4 -0.7,1.9 -0.5,0.5 -1.1,0.7 -1.9,0.7 l -19.6,0 c -5.5,-0.1 -10.5,-1.5 -14.9,-4.1 m 29.3,-38.9 0,-1.1 c 0,-4.1 -1.4,-7.5 -4.3,-10.4 -2.8,-2.9 -6.3,-4.3 -10.3,-4.3 -4,0 -7.5,1.4 -10.3,4.3 -2.8,2.9 -4.3,6.3 -4.3,10.4 l 0,1.1 29.2,0 z"
         id="path19"
         clip-path="url(#SVGID_2_)"
         inkscape:connector-curvature="0"
         style="fill:#003a40" /><path
         class="st1"
         d="m 508,132.2 c -4.5,-2.6 -8.1,-6.1 -10.7,-10.6 -2.6,-4.5 -3.9,-9.3 -3.9,-14.5 l 0,-16.4 c 0,-5.2 1.3,-10.1 3.9,-14.5 2.6,-4.5 6.2,-8 10.7,-10.6 4.5,-2.6 9.4,-3.9 14.8,-3.9 5.4,0 10.3,1.3 14.8,3.9 4.5,2.6 8.1,6.2 10.7,10.6 2.6,4.5 4,9.3 4,14.5 l 0,16.3 c 0,5.2 -1.3,10.1 -4,14.5 -2.6,4.5 -6.2,8 -10.7,10.6 -4.5,2.6 -9.4,3.9 -14.8,3.9 -5.4,0.1 -10.4,-1.2 -14.8,-3.8 m 25,-14.8 c 2.8,-2.9 4.3,-6.3 4.3,-10.4 l 0,-16.3 c 0,-4.1 -1.4,-7.5 -4.3,-10.4 -2.8,-2.9 -6.3,-4.3 -10.3,-4.3 -4,0 -7.5,1.4 -10.3,4.3 -2.8,2.9 -4.3,6.3 -4.3,10.4 l 0,16.3 c 0,4.1 1.4,7.5 4.3,10.4 2.8,2.9 6.3,4.3 10.3,4.3 4.1,0 7.5,-1.5 10.3,-4.3"
         id="path21"
         clip-path="url(#SVGID_2_)"
         inkscape:connector-curvature="0"
         style="fill:#003a40" /><path
         class="st0"
         d="m 85.5,36.2 0,-18 L 85.5,0 74.2,19.8 C 43.4,26.7 20.1,53.2 18.1,85.6 l 18.1,0 C 38.4,59.3 59.3,38.4 85.5,36.2"
         id="path23"
         clip-path="url(#SVGID_2_)"
         inkscape:connector-curvature="0"
         style="fill:#4db05b" /><path
         class="st1"
         d="m 36.2,94.6 -18,0 -18.2,0 19.8,11.3 c 6.9,30.8 33.4,54.1 65.8,56.1 l 0,-18.1 C 59.3,141.7 38.4,120.8 36.2,94.6"
         id="path25"
         clip-path="url(#SVGID_2_)"
         inkscape:connector-curvature="0"
         style="fill:#003a40" /><path
         class="st1"
         d="m 143.9,85.5 18.1,0 18.2,0 -19.8,-11.3 C 153.5,43.4 127,20.1 94.6,18.1 l 0,18.1 c 26.2,2.2 47.1,23.1 49.3,49.3"
         id="path27"
         clip-path="url(#SVGID_2_)"
         inkscape:connector-curvature="0"
         style="fill:#003a40" /><path
         class="st0"
         d="m 94.6,143.9 0,18.1 0,18.2 11.3,-19.8 C 136.7,153.5 160,127 162,94.6 l -18.1,0 c -2.2,26.2 -23.1,47.1 -49.3,49.3"
         id="path29"
         clip-path="url(#SVGID_2_)"
         inkscape:connector-curvature="0"
         style="fill:#4db05b" /><path
         class="st1"
         d="M 95.6,84.5 62.2,62.2 84.5,95.6 117.9,117.9 95.6,84.5 Z M 90,93.9 c -2.2,0 -3.9,-1.8 -3.9,-3.9 0,-2.2 1.8,-3.9 3.9,-3.9 2.1,0 3.9,1.8 3.9,3.9 0,2.1 -1.7,3.9 -3.9,3.9"
         id="path31"
         clip-path="url(#SVGID_2_)"
         inkscape:connector-curvature="0"
         style="fill:#003a40" /><polygon
         class="st0"
         points="84.3,103.1 90,137.3 95.7,103.1 84.5,95.6 77,84.4 42.8,90.1 77,95.7 62.2,117.9 "
         id="polygon33"
         clip-path="url(#SVGID_2_)"
         style="fill:#4db05b" /><polygon
         class="st0"
         points="95.6,84.5 103.1,95.7 137.3,90 103.1,84.4 117.9,62.2 95.7,77 90,42.8 84.4,77 "
         id="polygon35"
         clip-path="url(#SVGID_2_)"
         style="fill:#4db05b" /></g></g><g
     inkscape:groupmode="layer"
     id="layer2"
     inkscape:label="Cutkontur"
     style="display:inline"><path
       transform="translate(0,7.6293945e-6)"
       style="color:#000000;font-style:normal;font-variant:normal;font-weight:normal;font-stretch:normal;font-size:medium;line-height:normal;font-family:sans-serif;text-indent:0;text-align:start;text-decoration:none;text-decoration-line:none;text-decoration-style:solid;text-decoration-color:#000000;letter-spacing:normal;word-spacing:normal;text-transform:none;direction:ltr;block-progression:tb;writing-mode:lr-tb;baseline-shift:baseline;text-anchor:start;white-space:normal;clip-rule:nonzero;display:inline;overflow:visible;visibility:visible;opacity:1;isolation:auto;mix-blend-mode:normal;color-interpolation:sRGB;color-interpolation-filters:linearRGB;solid-color:#000000;solid-opacity:1;fill:none;fill-opacity:1;fill-rule:nonzero;stroke:url(#linearGradient4556);stroke-width:0.3125;stroke-linecap:butt;stroke-linejoin:round;stroke-miterlimit:4;stroke-dasharray:none;stroke-dashoffset:0;stroke-opacity:1;color-rendering:auto;image-rendering:auto;shape-rendering:auto;text-rendering:auto;enable-background:accumulate"
       d="m 87.11,12.361047 c -3.0845,0.0913 -5.89924,1.7811 -7.43005,4.46049 l -7.06577,12.38085 c -25.669242,7.46089 -44.781376,30.12814 -46.996528,57.59903 l -5.530269,0 c -9.085236,0.002 -12.280878,12.047217 -4.391323,16.552373 l 12.380856,7.06424 c 7.460781,25.66941 30.128012,44.78136 57.599034,46.99653 l 0,5.60865 c 0.002,9.08522 12.0472,12.28086 16.55237,4.39133 l 7.06424,-12.37932 c 12.84714,-3.73395 24.05241,-11.27699 32.31898,-21.3249 12.00033,-13.59075 38.87788,-4.58993 46.14075,-1.1912 5.22684,3.03157 11.20562,4.65723 17.35011,4.65723 6.14449,0 12.1248,-1.62566 17.35164,-4.65723 3.52824,-2.04638 6.60787,-4.73209 9.19765,-7.84352 0.55106,1.53953 1.41821,3.40969 4.66644,5.03381 l -0.99753,-0.58254 c 3.45901,2.33717 7.33419,4.39701 11.65998,5.80541 4.10148,1.33536 8.61913,2.19199 13.42451,1.99353 5.52172,-0.0392 10.90201,-1.16444 15.69317,-3.66891 4.69833,-2.45594 8.77128,-6.10872 11.52011,-10.69011 0.31723,-0.52872 0.54874,-1.09748 0.82847,-1.64464 2.98326,4.67057 6.97087,8.72662 11.91974,11.59697 5.18251,3.00585 11.15195,4.65723 17.35011,4.65723 6.09168,0 12.01082,-1.65138 17.19333,-4.65723 5.21919,-3.02714 9.5566,-7.36455 12.58374,-12.58374 0.23379,-0.40309 0.40244,-0.83909 0.61943,-1.25116 0.20063,0.38181 0.35783,0.78752 0.57331,1.16047 2.75155,4.7623 6.70149,8.84586 11.58774,11.68765 l -0.003,0.006 c 0.0144,0.009 0.0302,0.0146 0.0446,0.0231 0.0107,0.006 0.0201,0.0138 0.0307,0.02 l 0.002,-0.005 c 4.77703,2.80481 10.29073,4.31375 15.99444,4.41746 0.0538,0.001 0.10759,0.002 0.16139,0.002 l 15.42419,0 c 2.10595,0 5.69517,-1.08098 7.75898,-3.14479 2.48139,-2.4814 3.14478,-5.52081 3.14478,-7.75898 l 0,-5.66245 c 0.31317,0.6374 0.5862,1.29283 0.9422,1.909 2.80775,4.85956 6.86893,8.78922 11.58775,11.53242 l -0.003,0.005 c 0.0105,0.006 0.0218,0.0107 0.0323,0.0169 0.0147,0.009 0.0283,0.0191 0.043,0.0277 l 0.003,-0.006 c 4.84032,2.8408 10.44563,4.27106 16.16043,4.17921 5.64183,-0.0145 11.17142,-1.46725 15.9929,-4.25299 4.71694,-2.72535 8.77194,-6.64311 11.59235,-11.48015 2.95473,-4.85783 4.40362,-10.41087 4.40362,-15.94217 l 0,-12.828133 c 0,-5.68216 -1.61391,-11.13097 -4.33598,-15.84227 -0.0147,-0.0252 -0.0296,-0.0503 -0.0446,-0.0753 -2.79143,-4.72397 -6.77915,-8.71047 -11.6154,-11.50474 -4.84572,-2.79975 -10.40613,-4.2576 -16.07744,-4.2576 -5.6713,0 -11.23325,1.45785 -16.07897,4.2576 -4.69187,2.71085 -8.72464,6.60483 -11.54317,11.40637 -2.7409,-4.58508 -6.58138,-8.53064 -11.32798,-11.28802 -4.88339,-2.91348 -10.49077,-4.37595 -16.13738,-4.37595 -5.78067,0 -11.31846,1.58546 -16.07898,4.33598 -4.89577,2.82867 -8.84841,6.91115 -11.61233,11.66614 -0.73163,1.22505 -1.37213,2.49178 -1.91823,3.79341 -1.82942,-1.25297 -4.17226,-2.16193 -6.45556,-2.42391 l 3.93328,-4.15155 c 0.0806,-0.085 0.15953,-0.17162 0.2367,-0.25976 1.89304,-2.16346 2.97879,-4.95633 2.97879,-7.80047 0,-2.10595 -0.78479,-5.14124 -2.60374,-7.324 -0.0868,-0.10399 -0.17597,-0.20597 -0.26745,-0.30587 -3.34396,-3.65745 -7.43559,-6.55884 -11.99813,-8.52903 -0.022,-0.01 -0.044,-0.0196 -0.0661,-0.0292 -4.69737,-1.98334 -9.7427,-2.9004 -14.85702,-2.9004 -6.19816,0 -12.1676,1.65138 -17.35011,4.65723 -4.08695,2.37044 -7.60609,5.56455 -10.40575,9.33598 -0.05,-0.18274 -0.0567,-0.35449 -0.11836,-0.5395 -0.53089,-1.59267 -1.1384,-4.13897 -5.15061,-6.14508 l 1.18659,0.71472 c -3.46871,-2.47765 -7.31536,-4.43775 -11.43865,-5.8761 -4.3088,-1.50307 -8.74569,-2.22564 -13.14784,-2.22564 -5.27015,0 -10.53256,1.01432 -15.24436,3.59514 -4.52589,2.43814 -8.31727,6.09855 -10.87917,10.44265 -0.37964,0.64372 -0.66597,1.33149 -0.98831,2.00276 -2.97038,-4.63286 -6.95256,-8.53628 -11.72608,-11.30493 -5.22684,-3.03157 -11.20715,-4.65723 -17.35164,-4.65723 -6.14449,0 -12.12327,1.62566 -17.35011,4.65723 -25.25399,13.50327 -31.80521,8.28372 -56.72163,-13.06703 -9.27085,-6.84198 -21.04654,-10.74529 -34.79986,-11.83762 l 0,-5.52105 c -0.002,-4.99392 -4.12906,-8.9993 -9.1208,-8.85181 z m 316.70858,64.31111 c -0.007,0.0115 -0.0117,0.0239 -0.0184,0.0354 -0.008,0.0139 -0.0181,0.0261 -0.0261,0.04 l 0.0446,-0.0753 z"
       id="polygon35-8"
       inkscape:connector-curvature="0"
       sodipodi:nodetypes="cccccccccccccsscccscsscsssscscccccccsssccccccccscssccsssccsscccccsccccssccccsscccssccccccccccc" /></g></svg>