<?xml version="1.0" encoding="UTF-8"?>
<svg width="593px" height="228px" viewBox="0 0 593 228" version="1.1" xmlns="http://www.w3.org/2000/svg" xmlns:xlink="http://www.w3.org/1999/xlink">
    <!-- Generator: Sketch 45.2 (43514) - http://www.bohemiancoding.com/sketch -->
    <title>OSGeo_project</title>
    <desc>Created with Sketch.</desc>
    <defs></defs>
    <g id="Page-1" stroke="none" stroke-width="1" fill="none" fill-rule="evenodd">
        <g id="OSGeo_project">
            <path d="M209.8563,200.2391 C209.701633,200.084433 209.6243,199.891101 209.6243,199.6591 L209.6243,162.2491 C209.6243,161.669097 209.827298,161.176102 210.2333,160.7701 C210.639302,160.364098 211.132297,160.1611 211.7123,160.1611 L221.4563,160.1611 C223.776312,160.1611 225.902957,160.721761 227.8363,161.8431 C229.769643,162.964439 231.296961,164.472424 232.4183,166.3671 C233.539639,168.261776 234.1003,170.349755 234.1003,172.6311 C234.1003,174.912445 233.539639,177.000424 232.4183,178.8951 C231.296961,180.789776 229.769643,182.297761 227.8363,183.4191 C225.902957,184.540439 223.776312,185.1011 221.4563,185.1011 L214.3803,185.1011 L214.3803,199.6591 C214.3803,199.891101 214.302967,200.084433 214.1483,200.2391 C213.993633,200.393767 213.800301,200.4711 213.5683,200.4711 L210.4363,200.4711 C210.204299,200.4711 210.010967,200.393767 209.8563,200.2391 Z M221.1663,180.6351 C222.635641,180.6351 223.98896,180.277437 225.2263,179.5621 C226.46364,178.846763 227.439963,177.87044 228.1553,176.6331 C228.870637,175.39576 229.2283,174.061774 229.2283,172.6311 C229.2283,171.200426 228.870637,169.86644 228.1553,168.6291 C227.439963,167.39176 226.46364,166.415437 225.2263,165.7001 C223.98896,164.984763 222.635641,164.6271 221.1663,164.6271 L214.3803,164.6271 L214.3803,180.6351 L221.1663,180.6351 Z M240.4223,200.2391 C240.267633,200.084433 240.1903,199.891101 240.1903,199.6591 L240.1903,196.9911 C240.1903,196.759099 240.267633,196.565767 240.4223,196.4111 C240.576967,196.256433 240.770299,196.1791 241.0023,196.1791 L245.8163,196.1791 L245.8163,171.7611 L241.0023,171.7611 C240.770299,171.7611 240.576967,171.683767 240.4223,171.5291 C240.267633,171.374433 240.1903,171.181101 240.1903,170.9491 L240.1903,168.4551 C240.1903,168.223099 240.267633,168.029767 240.4223,167.8751 C240.576967,167.720433 240.770299,167.6431 241.0023,167.6431 L248.2523,167.6431 C248.832303,167.6431 249.325298,167.846098 249.7313,168.2521 C250.137302,168.658102 250.3403,169.151097 250.3403,169.7311 L250.3403,172.6311 L253.7043,170.0211 C255.096307,168.938428 256.227296,168.213435 257.0973,167.8461 C257.967304,167.478765 258.885628,167.2951 259.8523,167.2951 L261.5923,167.2951 C261.862968,167.2951 262.065966,167.372433 262.2013,167.5271 C262.336634,167.681767 262.4043,167.875099 262.4043,168.1071 L262.4043,170.9491 C262.4043,171.181101 262.326967,171.374433 262.1723,171.5291 C262.017633,171.683767 261.824301,171.7611 261.5923,171.7611 L260.3163,171.7611 C259.349628,171.7611 258.440971,171.964098 257.5903,172.3701 C256.739629,172.776102 255.463642,173.65576 253.7623,175.0091 L250.3403,177.7351 L250.3403,196.1791 L257.0683,196.1791 C257.300301,196.1791 257.493633,196.256433 257.6483,196.4111 C257.802967,196.565767 257.8803,196.759099 257.8803,196.9911 L257.8803,199.6591 C257.8803,199.891101 257.802967,200.084433 257.6483,200.2391 C257.493633,200.393767 257.300301,200.4711 257.0683,200.4711 L241.0023,200.4711 C240.770299,200.4711 240.576967,200.393767 240.4223,200.2391 Z M273.3083,199.5431 C271.374957,198.421761 269.847639,196.884776 268.7263,194.9321 C267.604961,192.979424 267.0443,190.862445 267.0443,188.5811 L267.0443,179.5331 C267.0443,177.251755 267.604961,175.134776 268.7263,173.1821 C269.847639,171.229424 271.374957,169.692439 273.3083,168.5711 C275.241643,167.449761 277.348955,166.8891 279.6303,166.8891 C281.911645,166.8891 284.018957,167.449761 285.9523,168.5711 C287.885643,169.692439 289.412961,171.229424 290.5343,173.1821 C291.655639,175.134776 292.2163,177.251755 292.2163,179.5331 L292.2163,188.5811 C292.2163,190.862445 291.655639,192.979424 290.5343,194.9321 C289.412961,196.884776 287.885643,198.421761 285.9523,199.5431 C284.018957,200.664439 281.911645,201.2251 279.6303,201.2251 C277.348955,201.2251 275.241643,200.664439 273.3083,199.5431 Z M283.6903,195.8601 C284.92764,195.144763 285.903963,194.16844 286.6193,192.9311 C287.334637,191.69376 287.6923,190.340441 287.6923,188.8711 L287.6923,179.2431 C287.6923,177.773759 287.334637,176.42044 286.6193,175.1831 C285.903963,173.94576 284.92764,172.969437 283.6903,172.2541 C282.45296,171.538763 281.099641,171.1811 279.6303,171.1811 C278.160959,171.1811 276.80764,171.538763 275.5703,172.2541 C274.33296,172.969437 273.356637,173.94576 272.6413,175.1831 C271.925963,176.42044 271.5683,177.773759 271.5683,179.2431 L271.5683,188.8711 C271.5683,190.340441 271.925963,191.69376 272.6413,192.9311 C273.356637,194.16844 274.33296,195.144763 275.5703,195.8601 C276.80764,196.575437 278.160959,196.9331 279.6303,196.9331 C281.099641,196.9331 282.45296,196.575437 283.6903,195.8601 Z M306.8323,161.7271 C306.677633,161.572433 306.6003,161.379101 306.6003,161.1471 L306.6003,156.1011 C306.6003,155.869099 306.677633,155.675767 306.8323,155.5211 C306.986967,155.366433 307.180299,155.2891 307.4123,155.2891 L310.1963,155.2891 C310.428301,155.2891 310.621633,155.366433 310.7763,155.5211 C310.930967,155.675767 311.0083,155.869099 311.0083,156.1011 L311.0083,161.1471 C311.0083,161.379101 310.930967,161.572433 310.7763,161.7271 C310.621633,161.881767 310.428301,161.9591 310.1963,161.9591 L307.4123,161.9591 C307.180299,161.9591 306.986967,161.881767 306.8323,161.7271 Z M298.2483,211.4331 C298.093633,211.278433 298.0163,211.085101 298.0163,210.8531 L298.0163,208.3011 C298.0163,208.069099 298.093633,207.875767 298.2483,207.7211 C298.402967,207.566433 298.596299,207.4891 298.8283,207.4891 L302.1923,207.4891 C303.506973,207.4891 304.560629,207.073437 305.3533,206.2421 C306.145971,205.410763 306.5423,204.31844 306.5423,202.9651 L306.5423,171.9351 L298.8283,171.9351 C298.596299,171.9351 298.402967,171.857767 298.2483,171.7031 C298.093633,171.548433 298.0163,171.355101 298.0163,171.1231 L298.0163,168.4551 C298.0163,168.223099 298.093633,168.029767 298.2483,167.8751 C298.402967,167.720433 298.596299,167.6431 298.8283,167.6431 L308.9783,167.6431 C309.558303,167.6431 310.051298,167.846098 310.4573,168.2521 C310.863302,168.658102 311.0663,169.151097 311.0663,169.7311 L311.0663,202.9651 C311.0663,205.401112 310.302641,207.460092 308.7753,209.1421 C307.247959,210.824108 305.227646,211.6651 302.7143,211.6651 L298.8283,211.6651 C298.596299,211.6651 298.402967,211.587767 298.2483,211.4331 Z M326.6103,198.7891 C324.676957,197.667761 323.149639,196.130776 322.0283,194.1781 C320.906961,192.225424 320.3463,190.108445 320.3463,187.8271 L320.3463,179.5331 C320.3463,177.251755 320.906961,175.134776 322.0283,173.1821 C323.149639,171.229424 324.676957,169.692439 326.6103,168.5711 C328.543643,167.449761 330.650955,166.8891 332.9323,166.8891 C335.213645,166.8891 337.320957,167.449761 339.2543,168.5711 C341.187643,169.692439 342.714961,171.229424 343.8363,173.1821 C344.957639,175.134776 345.5183,177.251755 345.5183,179.5331 L345.5183,183.4771 C345.5183,184.057103 345.315302,184.550098 344.9093,184.9561 C344.503298,185.362102 344.010303,185.5651 343.4303,185.5651 L324.8703,185.5651 L324.8703,188.1171 C324.8703,189.586441 325.227963,190.93976 325.9433,192.1771 C326.658637,193.41444 327.63496,194.390763 328.8723,195.1061 C330.10964,195.821437 331.462959,196.1791 332.9323,196.1791 L341.3423,196.1791 C341.574301,196.1791 341.767633,196.256433 341.9223,196.4111 C342.076967,196.565767 342.1543,196.759099 342.1543,196.9911 L342.1543,199.6591 C342.1543,199.891101 342.076967,200.084433 341.9223,200.2391 C341.767633,200.393767 341.574301,200.4711 341.3423,200.4711 L332.9323,200.4711 C330.650955,200.4711 328.543643,199.910439 326.6103,198.7891 Z M340.9943,181.3891 L340.9943,179.2431 C340.9943,177.773759 340.636637,176.42044 339.9213,175.1831 C339.205963,173.94576 338.22964,172.969437 336.9923,172.2541 C335.75496,171.538763 334.401641,171.1811 332.9323,171.1811 C331.462959,171.1811 330.10964,171.538763 328.8723,172.2541 C327.63496,172.969437 326.658637,173.94576 325.9433,175.1831 C325.227963,176.42044 324.8703,177.773759 324.8703,179.2431 L324.8703,181.3891 L340.9943,181.3891 Z M358.9163,199.5431 C356.982957,198.421761 355.455639,196.884776 354.3343,194.9321 C353.212961,192.979424 352.6523,190.862445 352.6523,188.5811 L352.6523,179.5331 C352.6523,177.251755 353.212961,175.134776 354.3343,173.1821 C355.455639,171.229424 356.982957,169.692439 358.9163,168.5711 C360.849643,167.449761 362.956955,166.8891 365.2383,166.8891 C366.900975,166.8891 368.476626,167.19843 369.9653,167.8171 C371.453974,168.43577 372.758961,169.286428 373.8803,170.3691 C374.112301,170.601101 374.2283,170.871765 374.2283,171.1811 C374.2283,171.451768 374.112301,171.741765 373.8803,172.0511 C373.493631,172.476435 373.048969,172.921098 372.5463,173.3851 C372.275632,173.617101 371.985635,173.7331 371.6763,173.7331 C371.328298,173.7331 371.018968,173.597768 370.7483,173.3271 C369.201626,171.896426 367.364977,171.1811 365.2383,171.1811 C363.768959,171.1811 362.41564,171.538763 361.1783,172.2541 C359.94096,172.969437 358.964637,173.94576 358.2493,175.1831 C357.533963,176.42044 357.1763,177.773759 357.1763,179.2431 L357.1763,188.8711 C357.1763,190.340441 357.533963,191.69376 358.2493,192.9311 C358.964637,194.16844 359.94096,195.144763 361.1783,195.8601 C362.41564,196.575437 363.768959,196.9331 365.2383,196.9331 C367.364977,196.9331 369.201626,196.217774 370.7483,194.7871 C371.018968,194.516432 371.328298,194.3811 371.6763,194.3811 C371.985635,194.3811 372.275632,194.497099 372.5463,194.7291 C373.010302,195.115769 373.454965,195.560431 373.8803,196.0631 C374.112301,196.295101 374.2283,196.585098 374.2283,196.9331 C374.2283,197.242435 374.112301,197.513099 373.8803,197.7451 C372.758961,198.827772 371.453974,199.67843 369.9653,200.2971 C368.476626,200.91577 366.900975,201.2251 365.2383,201.2251 C362.956955,201.2251 360.849643,200.664439 358.9163,199.5431 Z M386.7563,197.9481 C385.170959,196.266092 384.3783,194.149113 384.3783,191.5971 L384.3783,171.8771 L380.5503,171.8771 C380.318299,171.8771 380.124967,171.799767 379.9703,171.6451 C379.815633,171.490433 379.7383,171.297101 379.7383,171.0651 L379.7383,168.4551 C379.7383,168.223099 379.815633,168.029767 379.9703,167.8751 C380.124967,167.720433 380.318299,167.6431 380.5503,167.6431 L384.3783,167.6431 L384.3783,161.5531 C384.3783,161.321099 384.455633,161.127767 384.6103,160.9731 C384.764967,160.818433 384.958299,160.7411 385.1903,160.7411 L388.0903,160.7411 C388.322301,160.7411 388.515633,160.818433 388.6703,160.9731 C388.824967,161.127767 388.9023,161.321099 388.9023,161.5531 L388.9023,167.6431 L399.1103,167.6431 C399.342301,167.6431 399.535633,167.720433 399.6903,167.8751 C399.844967,168.029767 399.9223,168.223099 399.9223,168.4551 L399.9223,171.1231 C399.9223,171.355101 399.844967,171.548433 399.6903,171.7031 C399.535633,171.857767 399.342301,171.9351 399.1103,171.9351 L388.9023,171.9351 L388.9023,191.0751 C388.9023,192.583108 389.356629,193.791429 390.2653,194.7001 C391.173971,195.608771 392.362959,196.082433 393.8323,196.1211 L399.1103,196.1791 C399.342301,196.1791 399.535633,196.256433 399.6903,196.4111 C399.844967,196.565767 399.9223,196.759099 399.9223,196.9911 L399.9223,199.6591 C399.9223,199.891101 399.844967,200.084433 399.6903,200.2391 C399.535633,200.393767 399.342301,200.4711 399.1103,200.4711 L393.3103,200.4711 C390.526286,200.4711 388.341641,199.630108 386.7563,197.9481 Z" id="Project" fill="#0B3A42"></path>
            <g id="Group" transform="translate(7.000000, 7.000000)" fill-rule="nonzero">
                <path d="M218.7,131.7 C213.7,128.8 209.7,124.8 206.8,119.8 C203.9,114.8 202.4,109.3 202.4,103.3 L202.4,76.8 C202.4,70.8 203.9,65.3 206.8,60.3 C209.7,55.3 213.7,51.3 218.7,48.4 C223.7,45.5 229.2,44 235.1,44 C241,44 246.5,45.5 251.5,48.4 C256.5,51.3 260.5,55.3 263.4,60.3 C266.3,65.3 267.8,70.8 267.8,76.8 L267.8,103.3 C267.8,109.3 266.3,114.8 263.4,119.8 C260.5,124.8 256.5,128.8 251.5,131.7 C246.5,134.6 241,136.1 235.1,136.1 C229.2,136.1 223.7,134.6 218.7,131.7 M243.9,119.1 C246.6,117.4 248.8,115.2 250.4,112.4 C252,109.6 252.8,106.6 252.8,103.3 L252.8,76.8 C252.8,73.6 252,70.5 250.4,67.7 C248.8,64.9 246.6,62.6 243.9,61 C241.2,59.4 238.3,58.5 235.1,58.5 C232,58.5 229,59.3 226.3,61 C223.6,62.7 221.4,64.9 219.8,67.7 C218.2,70.5 217.4,73.5 217.4,76.8 L217.4,103.3 C217.4,106.5 218.2,109.6 219.8,112.4 C221.4,115.2 223.6,117.5 226.3,119.1 C229,120.8 231.9,121.6 235.1,121.6 C238.2,121.5 241.2,120.7 243.9,119.1" id="Shape" fill="#4DB05B"></path>
                <path d="M291.8,133.8 C287.5,132.4 283.5,130.3 279.8,127.8 C279.4,127.6 279.1,127.1 278.9,126.5 C278.7,125.9 278.8,125.3 279,124.8 L283.3,117 C283.8,116 284.6,115.5 285.6,115.5 C286.3,115.5 286.9,115.7 287.5,116 C293.7,119.9 299.4,121.8 304.8,121.8 C309.2,121.8 312.6,120.7 315.1,118.6 C317.6,116.5 318.9,113.7 318.9,110.3 C318.9,108.1 318.3,106.2 317,104.6 C315.8,103.1 314.1,101.8 312.1,100.7 C310,99.6 307,98.3 303.1,96.7 L299.5,95.2 C293.9,92.8 289.2,89.7 285.4,86 C281.6,82.3 279.6,76.8 279.6,69.6 C279.6,64.5 280.7,60.1 283,56.2 C285.3,52.3 288.4,49.3 292.5,47.1 C296.5,44.9 301.2,43.9 306.5,43.9 C310.9,43.9 315.2,44.6 319.5,46.1 C323.8,47.6 327.7,49.6 331.2,52.1 C331.6,52.3 331.9,52.8 332.1,53.4 C332.3,54 332.2,54.6 332,55.1 L327.9,62.9 C327.4,63.9 326.6,64.4 325.5,64.4 C324.8,64.4 324.2,64.2 323.6,63.9 C320.4,61.8 317.3,60.3 314.4,59.4 C311.5,58.5 308.9,58 306.6,58 C302.9,58 300,59 297.8,61 C295.7,63 294.6,65.6 294.6,68.8 C294.6,72 295.8,74.7 298.1,76.8 C300.5,78.9 304.2,81 309.4,83.2 C310.1,83.4 313,84.6 317.9,86.6 C322.8,88.6 326.7,91.6 329.6,95.5 C332.5,99.4 333.9,104 333.9,109.3 C333.9,114.4 332.7,119 330.3,123 C327.9,127 324.5,130.1 320.1,132.4 C315.7,134.7 310.7,135.8 305,135.8 C300.5,136 296.1,135.2 291.8,133.8" id="Shape" fill="#4DB05B"></path>
                <path d="M361.8,131.7 C356.8,128.8 352.9,124.8 349.9,119.8 C347,114.8 345.5,109.3 345.5,103.3 L345.5,76.8 C345.5,70.8 347,65.3 349.9,60.3 C352.8,55.3 356.8,51.3 361.8,48.4 C366.8,45.5 372.2,44 378.2,44 C383.4,44 388.2,44.9 392.7,46.8 C397.1,48.7 400.9,51.4 404.1,54.9 C404.6,55.5 404.8,56.2 404.8,57 C404.8,57.8 404.5,58.7 403.8,59.5 L398.4,65.2 C397.7,65.9 397.1,66.2 396.4,66.2 C395.6,66.2 394.8,65.8 394.2,65.1 C390.1,60.7 384.8,58.5 378.4,58.5 C375.3,58.5 372.3,59.3 369.6,61 C366.9,62.7 364.7,64.9 363.1,67.7 C361.5,70.5 360.7,73.5 360.7,76.8 L360.7,103.3 C360.7,106.5 361.5,109.6 363.1,112.4 C364.7,115.2 366.9,117.5 369.6,119.1 C372.3,120.8 375.2,121.6 378.4,121.6 C381.5,121.6 384.5,120.8 387.2,119.2 C389.9,117.6 392.1,115.5 393.6,112.7 C395.2,110 395.9,107 395.9,103.8 L395.9,97.7 L379.3,97.7 C378.6,97.7 377.9,97.5 377.4,97 C376.9,96.5 376.7,95.9 376.7,95.1 L376.7,86.2 C376.7,85.5 376.9,84.8 377.4,84.3 C377.9,83.8 378.5,83.6 379.3,83.6 L405.4,83.6 C406.9,83.6 408.1,84.1 409.2,85.1 C410.2,86.1 410.7,87.4 410.7,88.9 L410.7,103.3 C410.7,109.3 409.2,114.8 406.3,119.8 C403.4,124.8 399.4,128.8 394.4,131.7 C389.4,134.6 384,136.1 378.2,136.1 C372.2,136.1 366.8,134.6 361.8,131.7" id="Shape" fill="#003A40"></path>
                <path d="M438,130.5 C433.5,127.9 429.9,124.2 427.3,119.7 C424.7,115.2 423.3,110.2 423.3,104.8 L423.3,91.4 C423.3,86 424.6,81 427.3,76.5 C429.9,72 433.5,68.3 438,65.7 C442.5,63.1 447.4,61.7 452.8,61.7 C458.2,61.7 463.1,63 467.6,65.7 C472.1,68.3 475.7,72 478.3,76.5 C480.9,81.1 482.3,86 482.3,91.4 L482.3,99.7 C482.3,101.2 481.8,102.4 480.8,103.5 C479.8,104.5 478.5,105 477,105 L438.3,105 L438.3,105.6 C438.3,109.7 439.7,113.1 442.6,116 C445.5,118.9 448.9,120.3 452.9,120.3 L472.5,120.3 C473.2,120.3 473.9,120.6 474.4,121.1 C474.9,121.6 475.1,122.2 475.1,123 L475.1,132 C475.1,132.7 474.9,133.4 474.4,133.9 C473.9,134.4 473.3,134.6 472.5,134.6 L452.9,134.6 C447.4,134.5 442.4,133.1 438,130.5 L438,130.5 Z M467.3,91.6 L467.3,90.5 C467.3,86.4 465.9,83 463,80.1 C460.2,77.2 456.7,75.8 452.7,75.8 C448.7,75.8 445.2,77.2 442.4,80.1 C439.6,83 438.1,86.4 438.1,90.5 L438.1,91.6 L467.3,91.6 Z" id="Shape" fill="#003A40"></path>
                <path d="M508,132.2 C503.5,129.6 499.9,126.1 497.3,121.6 C494.7,117.1 493.4,112.3 493.4,107.1 L493.4,90.7 C493.4,85.5 494.7,80.6 497.3,76.2 C499.9,71.7 503.5,68.2 508,65.6 C512.5,63 517.4,61.7 522.8,61.7 C528.2,61.7 533.1,63 537.6,65.6 C542.1,68.2 545.7,71.8 548.3,76.2 C550.9,80.7 552.3,85.5 552.3,90.7 L552.3,107 C552.3,112.2 551,117.1 548.3,121.5 C545.7,126 542.1,129.5 537.6,132.1 C533.1,134.7 528.2,136 522.8,136 C517.4,136.1 512.4,134.8 508,132.2 M533,117.4 C535.8,114.5 537.3,111.1 537.3,107 L537.3,90.7 C537.3,86.6 535.9,83.2 533,80.3 C530.2,77.4 526.7,76 522.7,76 C518.7,76 515.2,77.4 512.4,80.3 C509.6,83.2 508.1,86.6 508.1,90.7 L508.1,107 C508.1,111.1 509.5,114.5 512.4,117.4 C515.2,120.3 518.7,121.7 522.7,121.7 C526.8,121.7 530.2,120.2 533,117.4" id="Shape" fill="#003A40"></path>
                <path d="M85.5,36.2 L85.5,18.2 L85.5,0 L74.2,19.8 C43.4,26.7 20.1,53.2 18.1,85.6 L36.2,85.6 C38.4,59.3 59.3,38.4 85.5,36.2" id="Shape" fill="#4DB05B"></path>
                <path d="M36.2,94.6 L18.2,94.6 L0,94.6 L19.8,105.9 C26.7,136.7 53.2,160 85.6,162 L85.6,143.9 C59.3,141.7 38.4,120.8 36.2,94.6" id="Shape" fill="#003A40"></path>
                <path d="M143.9,85.5 L162,85.5 L180.2,85.5 L160.4,74.2 C153.5,43.4 127,20.1 94.6,18.1 L94.6,36.2 C120.8,38.4 141.7,59.3 143.9,85.5" id="Shape" fill="#003A40"></path>
                <path d="M94.5,143.9 L94.5,162 L94.5,180.2 L105.8,160.4 C136.6,153.5 159.9,127 161.9,94.6 L143.8,94.6 C141.7,120.8 120.8,141.7 94.5,143.9" id="Shape" fill="#4DB05B"></path>
                <path d="M95.6,84.5 L62.2,62.2 L84.5,95.6 L117.9,117.9 L95.6,84.5 Z M90,93.9 C87.8,93.9 86.1,92.1 86.1,90 C86.1,87.8 87.9,86.1 90,86.1 C92.2,86.1 93.9,87.9 93.9,90 C93.9,92.1 92.2,93.9 90,93.9 L90,93.9 Z" id="Shape" fill="#003A40"></path>
                <polygon id="Shape" fill="#4DB05B" points="84.5 95.6 77 84.4 42.8 90.1 77 95.7 62.2 117.9 84.3 103.1 90 137.3 95.7 103.1"></polygon>
                <polygon id="Shape" fill="#4DB05B" points="103.1 84.4 117.9 62.2 95.7 77 90 42.8 84.4 77 95.6 84.5 103.1 95.7 137.3 90"></polygon>
            </g>
        </g>
    </g>
</svg>