<?xml version="1.0" encoding="UTF-8" standalone="no"?>
<!-- Created with Inkscape (http://www.inkscape.org/) -->

<svg
   xmlns:dc="http://purl.org/dc/elements/1.1/"
   xmlns:cc="http://creativecommons.org/ns#"
   xmlns:rdf="http://www.w3.org/1999/02/22-rdf-syntax-ns#"
   xmlns:svg="http://www.w3.org/2000/svg"
   xmlns="http://www.w3.org/2000/svg"
   xmlns:sodipodi="http://sodipodi.sourceforge.net/DTD/sodipodi-0.dtd"
   xmlns:inkscape="http://www.inkscape.org/namespaces/inkscape"
   width="85.825371"
   height="110.30853"
   id="svg4088"
   version="1.1"
   inkscape:version="0.48.4 r9939"
   sodipodi:docname="grassgis_logo_multilayer.svg"
   inkscape:export-filename="/home/vincent/Documents/developpement/grass/grass_splash/logo/logo_variant_bw_bg.png"
   inkscape:export-xdpi="600"
   inkscape:export-ydpi="600">
  <defs
     id="defs4090" />
  <sodipodi:namedview
     id="base"
     pagecolor="#ffffff"
     bordercolor="#666666"
     borderopacity="1.0"
     inkscape:pageopacity="0.0"
     inkscape:pageshadow="2"
     inkscape:zoom="0.39754282"
     inkscape:cx="48.805358"
     inkscape:cy="61.425853"
     inkscape:document-units="px"
     inkscape:current-layer="layer5"
     showgrid="false"
     inkscape:window-width="1600"
     inkscape:window-height="853"
     inkscape:window-x="-3"
     inkscape:window-y="-3"
     inkscape:window-maximized="1"
     fit-margin-top="0"
     fit-margin-left="0"
     fit-margin-right="0"
     fit-margin-bottom="0" />
  <metadata
     id="metadata4093">
    <rdf:RDF>
      <cc:Work
         rdf:about="">
        <dc:format>image/svg+xml</dc:format>
        <dc:type
           rdf:resource="http://purl.org/dc/dcmitype/StillImage" />
        <dc:title />
      </cc:Work>
    </rdf:RDF>
  </metadata>
  <g
     inkscape:groupmode="layer"
     id="layer5"
     inkscape:label="bg"
     transform="translate(-329.13455,-457.36984)">
    <rect
       style="color:#000000;fill:#ffffff;fill-opacity:1;fill-rule:nonzero;stroke:none;stroke-width:0.14742532;marker:none;visibility:visible;display:inline;overflow:visible;enable-background:accumulate"
       id="rect5449"
       width="85.825371"
       height="110.30853"
       x="329.13455"
       y="457.36984"
       rx="0"
       ry="0"
       inkscape:export-filename="/home/vincent/Documents/developpement/grass/grass_splash/logo/logo_variant_wbg.png"
       inkscape:export-xdpi="600"
       inkscape:export-ydpi="600" />
  </g>
  <g
     inkscape:label="logo"
     inkscape:groupmode="layer"
     id="layer1"
     style="display:inline"
     transform="translate(-329.13455,-457.36984)">
    <g
       transform="matrix(0.37476995,0,0,0.37476995,232.61522,307.09071)"
       id="g5376"
       inkscape:export-filename="/home/vincent/Documents/developpement/grass/grass_splash/logo/logo_variant_bg.png"
       inkscape:export-xdpi="600"
       inkscape:export-ydpi="600">
      <g
         inkscape:label="color"
         id="g5378"
         style="display:inline">
        <path
           id="path5380"
           d="m 367.81011,602.52854 4.21781,4.2809 1.43857,-1.54392 -2.57138,-19.15924 0.21875,-3.09375 1.3125,-4.625 1.375,-4.25 1.5,-3.34375 4.875,8.1875 4.75,8.65625 1.05469,5.08007 6.62885,-6.5039 3.34766,-25.16992 7.03125,-34.0625 4.53125,-23.12499 9.1875,-18.21875 1.375,-3.78125 0.5,-2.21875 0.1875,-3.59375 -0.5625,-2.875 -1.3125,-2.59375 -2.40625,-2.40625 0.125,0.65625 1.1875,1.21875 1.09375,2.5625 0.125,2.0625 -1.5,4.125 -1.9375,4.4375 -4.15625,7.46875 2.3125,-17.25 0.65625,-9.0625 -0.84375,-0.15625 -4.65625,31 -0.875,1.5625 -7.65625,14.40625 -9.78125,19.37499 -8.21875,16.8125 -4.5625,11.71875 -2.59375,-4.4375 1.625,-3.34375 8.9375,-17.15625 9.0625,-15.125 3.78125,-7.37499 3.125,-6.125 0.84375,-2.09375 0.1875,-2.03125 -0.375,-1.5625 -0.375,0 -0.28125,1.375 -1.5625,3.59375 -3.78125,6.375 -10.8125,16.62499 -6.15625,9.125 -4.21875,7.46875 2.59375,-25.71875 0.96875,-10.96874 0.40625,-23.1875 -0.0625,0 0.18755,-0.78125 0.59375,-1.4375 0.46875,-1.3125 0.5625,-0.96875 0,-1.90625 -0.1875,-2.40625 0.84375,-1.5625 -0.375,-2.28125 0,-1.71875 0.3125,-0.96875 0.65625,-2.15625 0.46875,-1.15625 -0.875,-1.4375 0.75,-1.4375 -1.1875,-0.84375 -0.71875,-2.15625 1.03125,-1.6875 -1.4375,-0.46875 -0.625,-1.125 0,-0.96875 -0.65625,-1.09375 -0.65625,-0.59375 0.0625,-0.90625 0,-1 -0.3125,-2.71875 -0.21875,-1.5625 -0.96875,-0.71875 -0.46875,-0.84375 -1.09375,-0.53125 -0.65625,-1.1875 0.125,-1.34375 -0.125,-1.375 -0.71875,-1.1875 -1.25,-0.25 -1.15625,-0.40625 -0.59375,-0.84375 -0.40625,-0.90625 -0.90625,0.59375 -0.375,1.15625 -0.1875,1.25 -0.59375,1.96875 -0.40625,-0.65625 0.1875,2.40625 -0.125,0.53125 0,0.90625 0.34375,0.71875 0.3125,0.96875 0.59375,0.78125 0.25,0.34375 0.1875,0.90625 -0.75,0.5625 0.3125,0.8125 -0.71875,0.90625 0.125,0.71875 0.1875,0.71875 0.59375,0.71875 0.53125,0.65625 0.71875,0.625 0.125,0.53125 -0.25,0.78125 -0.59375,0.53125 -0.28125,0.4375 0.0937,1.125 0.90625,0.59375 0.53125,0.5625 0.3125,1.125 -0.96875,1.15625 -0.15625,0.8125 0.40625,0.90625 0.59375,0.71875 0,0.71875 0.4375,0.5625 0.40625,0.46875 0.3125,0.53125 -0.1875,0.90625 0.59375,0.84375 0.53125,0.125 0.1875,0.40625 -0.1875,0.71875 0.5,1.03125 0.53125,0.40625 0.40625,0.84375 -0.40625,1.4375 0.59375,1.3125 0.5625,0.25 0.28125,0.59375 0.125,1.6875 -0.3125,0.71875 -0.28125,0.84375 0.84375,4.25 1.5,0.96875 -0.125,18.4375 -1.75,19.90624 -1.03125,11.53125 -1.6875,14 -0.65625,1.6875 -5.5625,-9.53125 -1.90625,-12.78125 -2.46875,-20.74999 -2.9375,-19.25 0.21875,17.5625 1.0313,14.53124 1.78125,13.84375 -12.40625,-19.65625 -17.8125,-26.71874 -4.09375,-5.6875 -0.34375,0 1.1875,3.40625 2.21875,5.53125 3.25,7.375 5.6875,12.1875 3.4375,6.12499 4.25,7.375 8.78125,13.90625 7.9375,12.625 1.21875,11.3125 3.78125,25.84375 -0.002,-0.0161 -4.37265,-13.57769 -9.25,-22.78125 -7.375,-15.3125 -9.78125,-15.90625 -4.96875,-6.53124 -3.96875,-3.96875 -6.46875,-6 2.6875,3.3125 4.34375,4.4375 2.5625,2.87499 1.6875,2.9375 2.03125,3.25 3.3125,5.6875 2.875,5.28125 2.9375,6.53125 3.59375,8.71875 7.03125,18.1875 7.375,19.1875 4.4375,13.5625 z m -12.9406,-12.88394 -1.2869,-3.44454 -2.375,-4.5 -5.1875,-9.90625 -7.3125,-13.1875 -5.15625,-8.46875 -4.78125,-7.3125 -2.59375,-3.59375 -2.15625,-2.15625 3.71875,7.0625 3.40625,7.90625 5.125,11.65625 2.25,5.15625 2.25393,6.7029 z m -30.8494,-52.56954 -0.0625,-0.125 -0.1875,-0.125 z m 78.46875,-23.53124 -1.25,5.21874 -5.65625,22.625 -2.75,12.84375 -2.875,15.53125 -3.1875,10.125 -1.125,-2.625 -7.25,-13.4375 2.4375,-5.65625 7.9375,-16.625 4.25,-8.9375 5.6875,-12 z m 7.03125,16.84374 -1.03125,6 -2.9375,9.96875 -2.9375,7.375 -3.25,9.59375 -1.71875,9.4375 -1.625,10.0332 5.875,-5.9707 0.25,-3.0625 0.65625,-5.3125 1.5625,-7.5 3.40625,-13.40625 1.5625,-9.9375 z m -42.0625,27.34375 2.375,3.96875 -0.5,9.25 -0.375,0.28125 z m 4,6.65625 1.375,2.28125 -1.0625,2.5 -0.78125,0.5625 z"
           style="fill:#009000;stroke:none;display:inline"
           inkscape:connector-curvature="0"
           sodipodi:nodetypes="cccccccccccccccccccccccccccccccccccccccccccccccccccccccccccccccccccccccccccccccccccccccccccccccccccccccccccccccccccccccccccccccccccccccccccccccccccccccccccccccccccccccccccccccccccccccccccccccccccccccccccccccccccccccccccccccccccccccccccccccccccccccccccc" />
        <path
           inkscape:connector-curvature="0"
           style="color:#000000;fill:#000000;fill-opacity:1;stroke:none;stroke-width:0.82688445;marker:none;visibility:visible;display:inline;overflow:visible;enable-background:accumulate"
           d="m 297.50037,539.11859 -3,3 22.53125,22.53125 -2.96875,2.96875 22.5,22.5 -3,3 38.46875,38.46875 38.5,-38.46875 -3,-3 22.5,-22.5 -2.96875,-2.96875 22.53125,-22.53125 -3,-3 -74.5625,74.53125 -74.53125,-74.53125 z"
           id="path5382" />
        <path
           inkscape:connector-curvature="0"
           style="color:#000000;fill:#000000;fill-opacity:1;stroke:none;stroke-width:0.80000001;marker:none;visibility:visible;display:inline;overflow:visible;enable-background:accumulate"
           d="m 372.03162,420.77484 -93.375,93.40625 93.375,93.40625 93.40625,-93.40625 -93.40625,-93.40625 z m 0,1.65625 91.75,91.75 -91.75,91.75 -91.75,-91.75 91.75,-91.75 z"
           id="path5384" />
        <g
           style="display:inline"
           id="g5386"
           transform="translate(268.5353,413.93109)">
          <path
             inkscape:connector-curvature="0"
             id="path5388"
             d="m 30.875,210.40625 0,1.25 60.3125,0 0,-1.25 -60.3125,0 z"
             style="font-size:medium;font-style:normal;font-variant:normal;font-weight:normal;font-stretch:normal;text-indent:0;text-align:start;text-decoration:none;line-height:normal;letter-spacing:normal;word-spacing:normal;text-transform:none;direction:ltr;block-progression:tb;writing-mode:lr-tb;text-anchor:start;baseline-shift:baseline;color:#000000;fill:#000000;fill-opacity:1;stroke:none;stroke-width:1.25;marker:none;visibility:visible;display:inline;overflow:visible;enable-background:accumulate;font-family:Sans;-inkscape-font-specification:Sans" />
          <path
             style="font-size:medium;font-style:normal;font-variant:normal;font-weight:normal;font-stretch:normal;text-indent:0;text-align:start;text-decoration:none;line-height:normal;letter-spacing:normal;word-spacing:normal;text-transform:none;direction:ltr;block-progression:tb;writing-mode:lr-tb;text-anchor:start;baseline-shift:baseline;color:#000000;fill:#000000;fill-opacity:1;stroke:none;stroke-width:1.25;marker:none;visibility:visible;display:inline;overflow:visible;enable-background:accumulate;font-family:Sans;-inkscape-font-specification:Sans"
             d="m 115.83638,210.40625 0,1.25 60.3125,0 0,-1.25 -60.3125,0 z"
             id="path5390"
             inkscape:connector-curvature="0" />
        </g>
      </g>
      <g
         id="g5392"
         inkscape:label="grayscale_opaque"
         style="display:none">
        <path
           sodipodi:nodetypes="cccccccccccccccccccccccccccccccccccccccccccccccccccccccccccccccccccccccccccccccccccccccccccccccccccccccccccccccccccccccccccccccccccccccccccccccccccccccccccccccccccccccccccccccccccccccccccccccccccccccccccccccccccccccccccccccccccccccccccccccccccccccccccc"
           inkscape:connector-curvature="0"
           style="fill:#909090;fill-opacity:1;stroke:none;display:inline"
           d="m 367.81011,602.52854 4.21781,4.2809 1.43857,-1.54392 -2.57138,-19.15924 0.21875,-3.09375 1.3125,-4.625 1.375,-4.25 1.5,-3.34375 4.875,8.1875 4.75,8.65625 1.05469,5.08007 6.62885,-6.5039 3.34766,-25.16992 7.03125,-34.0625 4.53125,-23.12499 9.1875,-18.21875 1.375,-3.78125 0.5,-2.21875 0.1875,-3.59375 -0.5625,-2.875 -1.3125,-2.59375 -2.40625,-2.40625 0.125,0.65625 1.1875,1.21875 1.09375,2.5625 0.125,2.0625 -1.5,4.125 -1.9375,4.4375 -4.15625,7.46875 2.3125,-17.25 0.65625,-9.0625 -0.84375,-0.15625 -4.65625,31 -0.875,1.5625 -7.65625,14.40625 -9.78125,19.37499 -8.21875,16.8125 -4.5625,11.71875 -2.59375,-4.4375 1.625,-3.34375 8.9375,-17.15625 9.0625,-15.125 3.78125,-7.37499 3.125,-6.125 0.84375,-2.09375 0.1875,-2.03125 -0.375,-1.5625 -0.375,0 -0.28125,1.375 -1.5625,3.59375 -3.78125,6.375 -10.8125,16.62499 -6.15625,9.125 -4.21875,7.46875 2.59375,-25.71875 0.96875,-10.96874 0.40625,-23.1875 -0.0625,0 0.18755,-0.78125 0.59375,-1.4375 0.46875,-1.3125 0.5625,-0.96875 0,-1.90625 -0.1875,-2.40625 0.84375,-1.5625 -0.375,-2.28125 0,-1.71875 0.3125,-0.96875 0.65625,-2.15625 0.46875,-1.15625 -0.875,-1.4375 0.75,-1.4375 -1.1875,-0.84375 -0.71875,-2.15625 1.03125,-1.6875 -1.4375,-0.46875 -0.625,-1.125 0,-0.96875 -0.65625,-1.09375 -0.65625,-0.59375 0.0625,-0.90625 0,-1 -0.3125,-2.71875 -0.21875,-1.5625 -0.96875,-0.71875 -0.46875,-0.84375 -1.09375,-0.53125 -0.65625,-1.1875 0.125,-1.34375 -0.125,-1.375 -0.71875,-1.1875 -1.25,-0.25 -1.15625,-0.40625 -0.59375,-0.84375 -0.40625,-0.90625 -0.90625,0.59375 -0.375,1.15625 -0.1875,1.25 -0.59375,1.96875 -0.40625,-0.65625 0.1875,2.40625 -0.125,0.53125 0,0.90625 0.34375,0.71875 0.3125,0.96875 0.59375,0.78125 0.25,0.34375 0.1875,0.90625 -0.75,0.5625 0.3125,0.8125 -0.71875,0.90625 0.125,0.71875 0.1875,0.71875 0.59375,0.71875 0.53125,0.65625 0.71875,0.625 0.125,0.53125 -0.25,0.78125 -0.59375,0.53125 -0.28125,0.4375 0.0937,1.125 0.90625,0.59375 0.53125,0.5625 0.3125,1.125 -0.96875,1.15625 -0.15625,0.8125 0.40625,0.90625 0.59375,0.71875 0,0.71875 0.4375,0.5625 0.40625,0.46875 0.3125,0.53125 -0.1875,0.90625 0.59375,0.84375 0.53125,0.125 0.1875,0.40625 -0.1875,0.71875 0.5,1.03125 0.53125,0.40625 0.40625,0.84375 -0.40625,1.4375 0.59375,1.3125 0.5625,0.25 0.28125,0.59375 0.125,1.6875 -0.3125,0.71875 -0.28125,0.84375 0.84375,4.25 1.5,0.96875 -0.125,18.4375 -1.75,19.90624 -1.03125,11.53125 -1.6875,14 -0.65625,1.6875 -5.5625,-9.53125 -1.90625,-12.78125 -2.46875,-20.74999 -2.9375,-19.25 0.21875,17.5625 1.0313,14.53124 1.78125,13.84375 -12.40625,-19.65625 -17.8125,-26.71874 -4.09375,-5.6875 -0.34375,0 1.1875,3.40625 2.21875,5.53125 3.25,7.375 5.6875,12.1875 3.4375,6.12499 4.25,7.375 8.78125,13.90625 7.9375,12.625 1.21875,11.3125 3.78125,25.84375 -0.002,-0.0161 -4.37265,-13.57769 -9.25,-22.78125 -7.375,-15.3125 -9.78125,-15.90625 -4.96875,-6.53124 -3.96875,-3.96875 -6.46875,-6 2.6875,3.3125 4.34375,4.4375 2.5625,2.87499 1.6875,2.9375 2.03125,3.25 3.3125,5.6875 2.875,5.28125 2.9375,6.53125 3.59375,8.71875 7.03125,18.1875 7.375,19.1875 4.4375,13.5625 z m -12.9406,-12.88394 -1.2869,-3.44454 -2.375,-4.5 -5.1875,-9.90625 -7.3125,-13.1875 -5.15625,-8.46875 -4.78125,-7.3125 -2.59375,-3.59375 -2.15625,-2.15625 3.71875,7.0625 3.40625,7.90625 5.125,11.65625 2.25,5.15625 2.25393,6.7029 z m -30.8494,-52.56954 -0.0625,-0.125 -0.1875,-0.125 z m 78.46875,-23.53124 -1.25,5.21874 -5.65625,22.625 -2.75,12.84375 -2.875,15.53125 -3.1875,10.125 -1.125,-2.625 -7.25,-13.4375 2.4375,-5.65625 7.9375,-16.625 4.25,-8.9375 5.6875,-12 z m 7.03125,16.84374 -1.03125,6 -2.9375,9.96875 -2.9375,7.375 -3.25,9.59375 -1.71875,9.4375 -1.625,10.0332 5.875,-5.9707 0.25,-3.0625 0.65625,-5.3125 1.5625,-7.5 3.40625,-13.40625 1.5625,-9.9375 z m -42.0625,27.34375 2.375,3.96875 -0.5,9.25 -0.375,0.28125 z m 4,6.65625 1.375,2.28125 -1.0625,2.5 -0.78125,0.5625 z"
           id="path5394" />
        <path
           id="path5396"
           d="m 297.50037,539.11859 -3,3 22.53125,22.53125 -2.96875,2.96875 22.5,22.5 -3,3 38.46875,38.46875 38.5,-38.46875 -3,-3 22.5,-22.5 -2.96875,-2.96875 22.53125,-22.53125 -3,-3 -74.5625,74.53125 -74.53125,-74.53125 z"
           style="color:#000000;fill:#000000;fill-opacity:1;stroke:none;stroke-width:0.82688445;marker:none;visibility:visible;display:inline;overflow:visible;enable-background:accumulate"
           inkscape:connector-curvature="0" />
        <path
           id="path5398"
           d="m 372.03162,420.77484 -93.375,93.40625 93.375,93.40625 93.40625,-93.40625 -93.40625,-93.40625 z m 0,1.65625 91.75,91.75 -91.75,91.75 -91.75,-91.75 91.75,-91.75 z"
           style="color:#000000;fill:#000000;fill-opacity:1;stroke:none;stroke-width:0.80000001;marker:none;visibility:visible;display:inline;overflow:visible;enable-background:accumulate"
           inkscape:connector-curvature="0" />
        <g
           transform="translate(268.5353,413.93109)"
           id="g5400"
           style="display:inline">
          <path
             style="font-size:medium;font-style:normal;font-variant:normal;font-weight:normal;font-stretch:normal;text-indent:0;text-align:start;text-decoration:none;line-height:normal;letter-spacing:normal;word-spacing:normal;text-transform:none;direction:ltr;block-progression:tb;writing-mode:lr-tb;text-anchor:start;baseline-shift:baseline;color:#000000;fill:#000000;fill-opacity:1;stroke:none;stroke-width:1.25;marker:none;visibility:visible;display:inline;overflow:visible;enable-background:accumulate;font-family:Sans;-inkscape-font-specification:Sans"
             d="m 30.875,210.40625 0,1.25 60.3125,0 0,-1.25 -60.3125,0 z"
             id="path5402"
             inkscape:connector-curvature="0" />
          <path
             inkscape:connector-curvature="0"
             id="path5404"
             d="m 115.83638,210.40625 0,1.25 60.3125,0 0,-1.25 -60.3125,0 z"
             style="font-size:medium;font-style:normal;font-variant:normal;font-weight:normal;font-stretch:normal;text-indent:0;text-align:start;text-decoration:none;line-height:normal;letter-spacing:normal;word-spacing:normal;text-transform:none;direction:ltr;block-progression:tb;writing-mode:lr-tb;text-anchor:start;baseline-shift:baseline;color:#000000;fill:#000000;fill-opacity:1;stroke:none;stroke-width:1.25;marker:none;visibility:visible;display:inline;overflow:visible;enable-background:accumulate;font-family:Sans;-inkscape-font-specification:Sans" />
        </g>
      </g>
      <g
         style="display:none"
         inkscape:label="grayscale_transparent"
         id="g5406">
        <path
           id="path5408"
           d="m 367.81011,602.52854 4.21781,4.2809 1.43857,-1.54392 -2.57138,-19.15924 0.21875,-3.09375 1.3125,-4.625 1.375,-4.25 1.5,-3.34375 4.875,8.1875 4.75,8.65625 1.05469,5.08007 6.62885,-6.5039 3.34766,-25.16992 7.03125,-34.0625 4.53125,-23.12499 9.1875,-18.21875 1.375,-3.78125 0.5,-2.21875 0.1875,-3.59375 -0.5625,-2.875 -1.3125,-2.59375 -2.40625,-2.40625 0.125,0.65625 1.1875,1.21875 1.09375,2.5625 0.125,2.0625 -1.5,4.125 -1.9375,4.4375 -4.15625,7.46875 2.3125,-17.25 0.65625,-9.0625 -0.84375,-0.15625 -4.65625,31 -0.875,1.5625 -7.65625,14.40625 -9.78125,19.37499 -8.21875,16.8125 -4.5625,11.71875 -2.59375,-4.4375 1.625,-3.34375 8.9375,-17.15625 9.0625,-15.125 3.78125,-7.37499 3.125,-6.125 0.84375,-2.09375 0.1875,-2.03125 -0.375,-1.5625 -0.375,0 -0.28125,1.375 -1.5625,3.59375 -3.78125,6.375 -10.8125,16.62499 -6.15625,9.125 -4.21875,7.46875 2.59375,-25.71875 0.96875,-10.96874 0.40625,-23.1875 -0.0625,0 0.18755,-0.78125 0.59375,-1.4375 0.46875,-1.3125 0.5625,-0.96875 0,-1.90625 -0.1875,-2.40625 0.84375,-1.5625 -0.375,-2.28125 0,-1.71875 0.3125,-0.96875 0.65625,-2.15625 0.46875,-1.15625 -0.875,-1.4375 0.75,-1.4375 -1.1875,-0.84375 -0.71875,-2.15625 1.03125,-1.6875 -1.4375,-0.46875 -0.625,-1.125 0,-0.96875 -0.65625,-1.09375 -0.65625,-0.59375 0.0625,-0.90625 0,-1 -0.3125,-2.71875 -0.21875,-1.5625 -0.96875,-0.71875 -0.46875,-0.84375 -1.09375,-0.53125 -0.65625,-1.1875 0.125,-1.34375 -0.125,-1.375 -0.71875,-1.1875 -1.25,-0.25 -1.15625,-0.40625 -0.59375,-0.84375 -0.40625,-0.90625 -0.90625,0.59375 -0.375,1.15625 -0.1875,1.25 -0.59375,1.96875 -0.40625,-0.65625 0.1875,2.40625 -0.125,0.53125 0,0.90625 0.34375,0.71875 0.3125,0.96875 0.59375,0.78125 0.25,0.34375 0.1875,0.90625 -0.75,0.5625 0.3125,0.8125 -0.71875,0.90625 0.125,0.71875 0.1875,0.71875 0.59375,0.71875 0.53125,0.65625 0.71875,0.625 0.125,0.53125 -0.25,0.78125 -0.59375,0.53125 -0.28125,0.4375 0.0937,1.125 0.90625,0.59375 0.53125,0.5625 0.3125,1.125 -0.96875,1.15625 -0.15625,0.8125 0.40625,0.90625 0.59375,0.71875 0,0.71875 0.4375,0.5625 0.40625,0.46875 0.3125,0.53125 -0.1875,0.90625 0.59375,0.84375 0.53125,0.125 0.1875,0.40625 -0.1875,0.71875 0.5,1.03125 0.53125,0.40625 0.40625,0.84375 -0.40625,1.4375 0.59375,1.3125 0.5625,0.25 0.28125,0.59375 0.125,1.6875 -0.3125,0.71875 -0.28125,0.84375 0.84375,4.25 1.5,0.96875 -0.125,18.4375 -1.75,19.90624 -1.03125,11.53125 -1.6875,14 -0.65625,1.6875 -5.5625,-9.53125 -1.90625,-12.78125 -2.46875,-20.74999 -2.9375,-19.25 0.21875,17.5625 1.0313,14.53124 1.78125,13.84375 -12.40625,-19.65625 -17.8125,-26.71874 -4.09375,-5.6875 -0.34375,0 1.1875,3.40625 2.21875,5.53125 3.25,7.375 5.6875,12.1875 3.4375,6.12499 4.25,7.375 8.78125,13.90625 7.9375,12.625 1.21875,11.3125 3.78125,25.84375 -0.002,-0.0161 -4.37265,-13.57769 -9.25,-22.78125 -7.375,-15.3125 -9.78125,-15.90625 -4.96875,-6.53124 -3.96875,-3.96875 -6.46875,-6 2.6875,3.3125 4.34375,4.4375 2.5625,2.87499 1.6875,2.9375 2.03125,3.25 3.3125,5.6875 2.875,5.28125 2.9375,6.53125 3.59375,8.71875 7.03125,18.1875 7.375,19.1875 4.4375,13.5625 z m -12.9406,-12.88394 -1.2869,-3.44454 -2.375,-4.5 -5.1875,-9.90625 -7.3125,-13.1875 -5.15625,-8.46875 -4.78125,-7.3125 -2.59375,-3.59375 -2.15625,-2.15625 3.71875,7.0625 3.40625,7.90625 5.125,11.65625 2.25,5.15625 2.25393,6.7029 z m -30.8494,-52.56954 -0.0625,-0.125 -0.1875,-0.125 z m 78.46875,-23.53124 -1.25,5.21874 -5.65625,22.625 -2.75,12.84375 -2.875,15.53125 -3.1875,10.125 -1.125,-2.625 -7.25,-13.4375 2.4375,-5.65625 7.9375,-16.625 4.25,-8.9375 5.6875,-12 z m 7.03125,16.84374 -1.03125,6 -2.9375,9.96875 -2.9375,7.375 -3.25,9.59375 -1.71875,9.4375 -1.625,10.0332 5.875,-5.9707 0.25,-3.0625 0.65625,-5.3125 1.5625,-7.5 3.40625,-13.40625 1.5625,-9.9375 z m -42.0625,27.34375 2.375,3.96875 -0.5,9.25 -0.375,0.28125 z m 4,6.65625 1.375,2.28125 -1.0625,2.5 -0.78125,0.5625 z"
           style="fill:#000000;fill-opacity:0.44075832;stroke:none;display:inline"
           inkscape:connector-curvature="0"
           sodipodi:nodetypes="cccccccccccccccccccccccccccccccccccccccccccccccccccccccccccccccccccccccccccccccccccccccccccccccccccccccccccccccccccccccccccccccccccccccccccccccccccccccccccccccccccccccccccccccccccccccccccccccccccccccccccccccccccccccccccccccccccccccccccccccccccccccccccc" />
        <path
           inkscape:connector-curvature="0"
           style="color:#000000;fill:#000000;fill-opacity:1;stroke:none;stroke-width:0.82688445;marker:none;visibility:visible;display:inline;overflow:visible;enable-background:accumulate"
           d="m 297.50037,539.11859 -3,3 22.53125,22.53125 -2.96875,2.96875 22.5,22.5 -3,3 38.46875,38.46875 38.5,-38.46875 -3,-3 22.5,-22.5 -2.96875,-2.96875 22.53125,-22.53125 -3,-3 -74.5625,74.53125 -74.53125,-74.53125 z"
           id="path5410" />
        <path
           inkscape:connector-curvature="0"
           style="color:#000000;fill:#000000;fill-opacity:1;stroke:none;stroke-width:0.80000001;marker:none;visibility:visible;display:inline;overflow:visible;enable-background:accumulate"
           d="m 372.03162,420.77484 -93.375,93.40625 93.375,93.40625 93.40625,-93.40625 -93.40625,-93.40625 z m 0,1.65625 91.75,91.75 -91.75,91.75 -91.75,-91.75 91.75,-91.75 z"
           id="path5412" />
        <g
           style="display:inline"
           id="g5414"
           transform="translate(268.5353,413.93109)">
          <path
             inkscape:connector-curvature="0"
             id="path5416"
             d="m 30.875,210.40625 0,1.25 60.3125,0 0,-1.25 -60.3125,0 z"
             style="font-size:medium;font-style:normal;font-variant:normal;font-weight:normal;font-stretch:normal;text-indent:0;text-align:start;text-decoration:none;line-height:normal;letter-spacing:normal;word-spacing:normal;text-transform:none;direction:ltr;block-progression:tb;writing-mode:lr-tb;text-anchor:start;baseline-shift:baseline;color:#000000;fill:#000000;fill-opacity:1;stroke:none;stroke-width:1.25;marker:none;visibility:visible;display:inline;overflow:visible;enable-background:accumulate;font-family:Sans;-inkscape-font-specification:Sans" />
          <path
             style="font-size:medium;font-style:normal;font-variant:normal;font-weight:normal;font-stretch:normal;text-indent:0;text-align:start;text-decoration:none;line-height:normal;letter-spacing:normal;word-spacing:normal;text-transform:none;direction:ltr;block-progression:tb;writing-mode:lr-tb;text-anchor:start;baseline-shift:baseline;color:#000000;fill:#000000;fill-opacity:1;stroke:none;stroke-width:1.25;marker:none;visibility:visible;display:inline;overflow:visible;enable-background:accumulate;font-family:Sans;-inkscape-font-specification:Sans"
             d="m 115.83638,210.40625 0,1.25 60.3125,0 0,-1.25 -60.3125,0 z"
             id="path5418"
             inkscape:connector-curvature="0" />
        </g>
      </g>
      <g
         style="display:none"
         inkscape:label="white_transparent"
         id="g5420">
        <rect
           sodipodi:insensitive="true"
           ry="15.09564"
           rx="15.09564"
           y="307.29431"
           x="32.395325"
           height="437.77356"
           width="679.30383"
           id="rect5422"
           style="color:#000000;fill:#c6c6c6;fill-opacity:1;fill-rule:nonzero;stroke:none;stroke-width:0.125;marker:none;visibility:visible;display:inline;overflow:visible;enable-background:accumulate" />
        <path
           id="path5424"
           d="m 367.81011,602.52854 4.21781,4.2809 1.43857,-1.54392 -2.57138,-19.15924 0.21875,-3.09375 1.3125,-4.625 1.375,-4.25 1.5,-3.34375 4.875,8.1875 4.75,8.65625 1.05469,5.08007 6.62885,-6.5039 3.34766,-25.16992 7.03125,-34.0625 4.53125,-23.12499 9.1875,-18.21875 1.375,-3.78125 0.5,-2.21875 0.1875,-3.59375 -0.5625,-2.875 -1.3125,-2.59375 -2.40625,-2.40625 0.125,0.65625 1.1875,1.21875 1.09375,2.5625 0.125,2.0625 -1.5,4.125 -1.9375,4.4375 -4.15625,7.46875 2.3125,-17.25 0.65625,-9.0625 -0.84375,-0.15625 -4.65625,31 -0.875,1.5625 -7.65625,14.40625 -9.78125,19.37499 -8.21875,16.8125 -4.5625,11.71875 -2.59375,-4.4375 1.625,-3.34375 8.9375,-17.15625 9.0625,-15.125 3.78125,-7.37499 3.125,-6.125 0.84375,-2.09375 0.1875,-2.03125 -0.375,-1.5625 -0.375,0 -0.28125,1.375 -1.5625,3.59375 -3.78125,6.375 -10.8125,16.62499 -6.15625,9.125 -4.21875,7.46875 2.59375,-25.71875 0.96875,-10.96874 0.40625,-23.1875 -0.0625,0 0.18755,-0.78125 0.59375,-1.4375 0.46875,-1.3125 0.5625,-0.96875 0,-1.90625 -0.1875,-2.40625 0.84375,-1.5625 -0.375,-2.28125 0,-1.71875 0.3125,-0.96875 0.65625,-2.15625 0.46875,-1.15625 -0.875,-1.4375 0.75,-1.4375 -1.1875,-0.84375 -0.71875,-2.15625 1.03125,-1.6875 -1.4375,-0.46875 -0.625,-1.125 0,-0.96875 -0.65625,-1.09375 -0.65625,-0.59375 0.0625,-0.90625 0,-1 -0.3125,-2.71875 -0.21875,-1.5625 -0.96875,-0.71875 -0.46875,-0.84375 -1.09375,-0.53125 -0.65625,-1.1875 0.125,-1.34375 -0.125,-1.375 -0.71875,-1.1875 -1.25,-0.25 -1.15625,-0.40625 -0.59375,-0.84375 -0.40625,-0.90625 -0.90625,0.59375 -0.375,1.15625 -0.1875,1.25 -0.59375,1.96875 -0.40625,-0.65625 0.1875,2.40625 -0.125,0.53125 0,0.90625 0.34375,0.71875 0.3125,0.96875 0.59375,0.78125 0.25,0.34375 0.1875,0.90625 -0.75,0.5625 0.3125,0.8125 -0.71875,0.90625 0.125,0.71875 0.1875,0.71875 0.59375,0.71875 0.53125,0.65625 0.71875,0.625 0.125,0.53125 -0.25,0.78125 -0.59375,0.53125 -0.28125,0.4375 0.0937,1.125 0.90625,0.59375 0.53125,0.5625 0.3125,1.125 -0.96875,1.15625 -0.15625,0.8125 0.40625,0.90625 0.59375,0.71875 0,0.71875 0.4375,0.5625 0.40625,0.46875 0.3125,0.53125 -0.1875,0.90625 0.59375,0.84375 0.53125,0.125 0.1875,0.40625 -0.1875,0.71875 0.5,1.03125 0.53125,0.40625 0.40625,0.84375 -0.40625,1.4375 0.59375,1.3125 0.5625,0.25 0.28125,0.59375 0.125,1.6875 -0.3125,0.71875 -0.28125,0.84375 0.84375,4.25 1.5,0.96875 -0.125,18.4375 -1.75,19.90624 -1.03125,11.53125 -1.6875,14 -0.65625,1.6875 -5.5625,-9.53125 -1.90625,-12.78125 -2.46875,-20.74999 -2.9375,-19.25 0.21875,17.5625 1.0313,14.53124 1.78125,13.84375 -12.40625,-19.65625 -17.8125,-26.71874 -4.09375,-5.6875 -0.34375,0 1.1875,3.40625 2.21875,5.53125 3.25,7.375 5.6875,12.1875 3.4375,6.12499 4.25,7.375 8.78125,13.90625 7.9375,12.625 1.21875,11.3125 3.78125,25.84375 -0.002,-0.0161 -4.37265,-13.57769 -9.25,-22.78125 -7.375,-15.3125 -9.78125,-15.90625 -4.96875,-6.53124 -3.96875,-3.96875 -6.46875,-6 2.6875,3.3125 4.34375,4.4375 2.5625,2.87499 1.6875,2.9375 2.03125,3.25 3.3125,5.6875 2.875,5.28125 2.9375,6.53125 3.59375,8.71875 7.03125,18.1875 7.375,19.1875 4.4375,13.5625 z m -12.9406,-12.88394 -1.2869,-3.44454 -2.375,-4.5 -5.1875,-9.90625 -7.3125,-13.1875 -5.15625,-8.46875 -4.78125,-7.3125 -2.59375,-3.59375 -2.15625,-2.15625 3.71875,7.0625 3.40625,7.90625 5.125,11.65625 2.25,5.15625 2.25393,6.7029 z m -30.8494,-52.56954 -0.0625,-0.125 -0.1875,-0.125 z m 78.46875,-23.53124 -1.25,5.21874 -5.65625,22.625 -2.75,12.84375 -2.875,15.53125 -3.1875,10.125 -1.125,-2.625 -7.25,-13.4375 2.4375,-5.65625 7.9375,-16.625 4.25,-8.9375 5.6875,-12 z m 7.03125,16.84374 -1.03125,6 -2.9375,9.96875 -2.9375,7.375 -3.25,9.59375 -1.71875,9.4375 -1.625,10.0332 5.875,-5.9707 0.25,-3.0625 0.65625,-5.3125 1.5625,-7.5 3.40625,-13.40625 1.5625,-9.9375 z m -42.0625,27.34375 2.375,3.96875 -0.5,9.25 -0.375,0.28125 z m 4,6.65625 1.375,2.28125 -1.0625,2.5 -0.78125,0.5625 z"
           style="fill:#ffffff;fill-opacity:0.43668123;stroke:none;display:inline"
           inkscape:connector-curvature="0"
           sodipodi:nodetypes="cccccccccccccccccccccccccccccccccccccccccccccccccccccccccccccccccccccccccccccccccccccccccccccccccccccccccccccccccccccccccccccccccccccccccccccccccccccccccccccccccccccccccccccccccccccccccccccccccccccccccccccccccccccccccccccccccccccccccccccccccccccccccccc" />
        <path
           inkscape:connector-curvature="0"
           style="color:#000000;fill:#ffffff;fill-opacity:1;stroke:none;stroke-width:0.82688445;marker:none;visibility:visible;display:inline;overflow:visible;enable-background:accumulate"
           d="m 297.50037,539.11859 -3,3 22.53125,22.53125 -2.96875,2.96875 22.5,22.5 -3,3 38.46875,38.46875 38.5,-38.46875 -3,-3 22.5,-22.5 -2.96875,-2.96875 22.53125,-22.53125 -3,-3 -74.5625,74.53125 -74.53125,-74.53125 z"
           id="path5426" />
        <path
           inkscape:connector-curvature="0"
           style="color:#000000;fill:#ffffff;fill-opacity:1;stroke:none;stroke-width:0.80000001;marker:none;visibility:visible;display:inline;overflow:visible;enable-background:accumulate"
           d="m 372.03162,420.77484 -93.375,93.40625 93.375,93.40625 93.40625,-93.40625 -93.40625,-93.40625 z m 0,1.65625 91.75,91.75 -91.75,91.75 -91.75,-91.75 91.75,-91.75 z"
           id="path5428" />
        <g
           style="fill:#ffffff;fill-opacity:1;display:inline"
           id="g5430"
           transform="translate(268.5353,413.93109)">
          <path
             inkscape:connector-curvature="0"
             id="path5432"
             d="m 30.875,210.40625 0,1.25 60.3125,0 0,-1.25 -60.3125,0 z"
             style="font-size:medium;font-style:normal;font-variant:normal;font-weight:normal;font-stretch:normal;text-indent:0;text-align:start;text-decoration:none;line-height:normal;letter-spacing:normal;word-spacing:normal;text-transform:none;direction:ltr;block-progression:tb;writing-mode:lr-tb;text-anchor:start;baseline-shift:baseline;color:#000000;fill:#ffffff;fill-opacity:1;stroke:none;stroke-width:1.25;marker:none;visibility:visible;display:inline;overflow:visible;enable-background:accumulate;font-family:Sans;-inkscape-font-specification:Sans" />
          <path
             style="font-size:medium;font-style:normal;font-variant:normal;font-weight:normal;font-stretch:normal;text-indent:0;text-align:start;text-decoration:none;line-height:normal;letter-spacing:normal;word-spacing:normal;text-transform:none;direction:ltr;block-progression:tb;writing-mode:lr-tb;text-anchor:start;baseline-shift:baseline;color:#000000;fill:#ffffff;fill-opacity:1;stroke:none;stroke-width:1.25;marker:none;visibility:visible;display:inline;overflow:visible;enable-background:accumulate;font-family:Sans;-inkscape-font-specification:Sans"
             d="m 115.83638,210.40625 0,1.25 60.3125,0 0,-1.25 -60.3125,0 z"
             id="path5434"
             inkscape:connector-curvature="0" />
        </g>
      </g>
      <g
         id="g5436"
         inkscape:label="white_opaque"
         style="display:none">
        <rect
           style="color:#000000;fill:#c6c6c6;fill-opacity:1;fill-rule:nonzero;stroke:none;stroke-width:0.125;marker:none;visibility:visible;display:inline;overflow:visible;enable-background:accumulate"
           id="rect5438"
           width="679.30383"
           height="437.77356"
           x="32.395325"
           y="307.29431"
           rx="15.09564"
           ry="15.09564"
           sodipodi:insensitive="true" />
        <path
           sodipodi:nodetypes="cccccccccccccccccccccccccccccccccccccccccccccccccccccccccccccccccccccccccccccccccccccccccccccccccccccccccccccccccccccccccccccccccccccccccccccccccccccccccccccccccccccccccccccccccccccccccccccccccccccccccccccccccccccccccccccccccccccccccccccccccccccccccccc"
           inkscape:connector-curvature="0"
           style="fill:#ffffff;fill-opacity:1;stroke:none;display:inline"
           d="m 367.81011,602.52854 4.21781,4.2809 1.43857,-1.54392 -2.57138,-19.15924 0.21875,-3.09375 1.3125,-4.625 1.375,-4.25 1.5,-3.34375 4.875,8.1875 4.75,8.65625 1.05469,5.08007 6.62885,-6.5039 3.34766,-25.16992 7.03125,-34.0625 4.53125,-23.12499 9.1875,-18.21875 1.375,-3.78125 0.5,-2.21875 0.1875,-3.59375 -0.5625,-2.875 -1.3125,-2.59375 -2.40625,-2.40625 0.125,0.65625 1.1875,1.21875 1.09375,2.5625 0.125,2.0625 -1.5,4.125 -1.9375,4.4375 -4.15625,7.46875 2.3125,-17.25 0.65625,-9.0625 -0.84375,-0.15625 -4.65625,31 -0.875,1.5625 -7.65625,14.40625 -9.78125,19.37499 -8.21875,16.8125 -4.5625,11.71875 -2.59375,-4.4375 1.625,-3.34375 8.9375,-17.15625 9.0625,-15.125 3.78125,-7.37499 3.125,-6.125 0.84375,-2.09375 0.1875,-2.03125 -0.375,-1.5625 -0.375,0 -0.28125,1.375 -1.5625,3.59375 -3.78125,6.375 -10.8125,16.62499 -6.15625,9.125 -4.21875,7.46875 2.59375,-25.71875 0.96875,-10.96874 0.40625,-23.1875 -0.0625,0 0.18755,-0.78125 0.59375,-1.4375 0.46875,-1.3125 0.5625,-0.96875 0,-1.90625 -0.1875,-2.40625 0.84375,-1.5625 -0.375,-2.28125 0,-1.71875 0.3125,-0.96875 0.65625,-2.15625 0.46875,-1.15625 -0.875,-1.4375 0.75,-1.4375 -1.1875,-0.84375 -0.71875,-2.15625 1.03125,-1.6875 -1.4375,-0.46875 -0.625,-1.125 0,-0.96875 -0.65625,-1.09375 -0.65625,-0.59375 0.0625,-0.90625 0,-1 -0.3125,-2.71875 -0.21875,-1.5625 -0.96875,-0.71875 -0.46875,-0.84375 -1.09375,-0.53125 -0.65625,-1.1875 0.125,-1.34375 -0.125,-1.375 -0.71875,-1.1875 -1.25,-0.25 -1.15625,-0.40625 -0.59375,-0.84375 -0.40625,-0.90625 -0.90625,0.59375 -0.375,1.15625 -0.1875,1.25 -0.59375,1.96875 -0.40625,-0.65625 0.1875,2.40625 -0.125,0.53125 0,0.90625 0.34375,0.71875 0.3125,0.96875 0.59375,0.78125 0.25,0.34375 0.1875,0.90625 -0.75,0.5625 0.3125,0.8125 -0.71875,0.90625 0.125,0.71875 0.1875,0.71875 0.59375,0.71875 0.53125,0.65625 0.71875,0.625 0.125,0.53125 -0.25,0.78125 -0.59375,0.53125 -0.28125,0.4375 0.0937,1.125 0.90625,0.59375 0.53125,0.5625 0.3125,1.125 -0.96875,1.15625 -0.15625,0.8125 0.40625,0.90625 0.59375,0.71875 0,0.71875 0.4375,0.5625 0.40625,0.46875 0.3125,0.53125 -0.1875,0.90625 0.59375,0.84375 0.53125,0.125 0.1875,0.40625 -0.1875,0.71875 0.5,1.03125 0.53125,0.40625 0.40625,0.84375 -0.40625,1.4375 0.59375,1.3125 0.5625,0.25 0.28125,0.59375 0.125,1.6875 -0.3125,0.71875 -0.28125,0.84375 0.84375,4.25 1.5,0.96875 -0.125,18.4375 -1.75,19.90624 -1.03125,11.53125 -1.6875,14 -0.65625,1.6875 -5.5625,-9.53125 -1.90625,-12.78125 -2.46875,-20.74999 -2.9375,-19.25 0.21875,17.5625 1.0313,14.53124 1.78125,13.84375 -12.40625,-19.65625 -17.8125,-26.71874 -4.09375,-5.6875 -0.34375,0 1.1875,3.40625 2.21875,5.53125 3.25,7.375 5.6875,12.1875 3.4375,6.12499 4.25,7.375 8.78125,13.90625 7.9375,12.625 1.21875,11.3125 3.78125,25.84375 -0.002,-0.0161 -4.37265,-13.57769 -9.25,-22.78125 -7.375,-15.3125 -9.78125,-15.90625 -4.96875,-6.53124 -3.96875,-3.96875 -6.46875,-6 2.6875,3.3125 4.34375,4.4375 2.5625,2.87499 1.6875,2.9375 2.03125,3.25 3.3125,5.6875 2.875,5.28125 2.9375,6.53125 3.59375,8.71875 7.03125,18.1875 7.375,19.1875 4.4375,13.5625 z m -12.9406,-12.88394 -1.2869,-3.44454 -2.375,-4.5 -5.1875,-9.90625 -7.3125,-13.1875 -5.15625,-8.46875 -4.78125,-7.3125 -2.59375,-3.59375 -2.15625,-2.15625 3.71875,7.0625 3.40625,7.90625 5.125,11.65625 2.25,5.15625 2.25393,6.7029 z m -30.8494,-52.56954 -0.0625,-0.125 -0.1875,-0.125 z m 78.46875,-23.53124 -1.25,5.21874 -5.65625,22.625 -2.75,12.84375 -2.875,15.53125 -3.1875,10.125 -1.125,-2.625 -7.25,-13.4375 2.4375,-5.65625 7.9375,-16.625 4.25,-8.9375 5.6875,-12 z m 7.03125,16.84374 -1.03125,6 -2.9375,9.96875 -2.9375,7.375 -3.25,9.59375 -1.71875,9.4375 -1.625,10.0332 5.875,-5.9707 0.25,-3.0625 0.65625,-5.3125 1.5625,-7.5 3.40625,-13.40625 1.5625,-9.9375 z m -42.0625,27.34375 2.375,3.96875 -0.5,9.25 -0.375,0.28125 z m 4,6.65625 1.375,2.28125 -1.0625,2.5 -0.78125,0.5625 z"
           id="path5440" />
        <path
           id="path5442"
           d="m 297.50037,539.11859 -3,3 22.53125,22.53125 -2.96875,2.96875 22.5,22.5 -3,3 38.46875,38.46875 38.5,-38.46875 -3,-3 22.5,-22.5 -2.96875,-2.96875 22.53125,-22.53125 -3,-3 -74.5625,74.53125 -74.53125,-74.53125 z"
           style="color:#000000;fill:#ffffff;fill-opacity:1;stroke:none;stroke-width:0.82688445;marker:none;visibility:visible;display:inline;overflow:visible;enable-background:accumulate"
           inkscape:connector-curvature="0" />
        <path
           id="path5444"
           d="m 372.03162,420.77484 -93.375,93.40625 93.375,93.40625 93.40625,-93.40625 -93.40625,-93.40625 z m 0,1.65625 91.75,91.75 -91.75,91.75 -91.75,-91.75 91.75,-91.75 z"
           style="color:#000000;fill:#ffffff;fill-opacity:1;stroke:none;stroke-width:0.80000001;marker:none;visibility:visible;display:inline;overflow:visible;enable-background:accumulate"
           inkscape:connector-curvature="0" />
        <g
           transform="translate(268.5353,413.93109)"
           id="g5446"
           style="fill:#ffffff;fill-opacity:1;display:inline">
          <path
             style="font-size:medium;font-style:normal;font-variant:normal;font-weight:normal;font-stretch:normal;text-indent:0;text-align:start;text-decoration:none;line-height:normal;letter-spacing:normal;word-spacing:normal;text-transform:none;direction:ltr;block-progression:tb;writing-mode:lr-tb;text-anchor:start;baseline-shift:baseline;color:#000000;fill:#ffffff;fill-opacity:1;stroke:none;stroke-width:1.25;marker:none;visibility:visible;display:inline;overflow:visible;enable-background:accumulate;font-family:Sans;-inkscape-font-specification:Sans"
             d="m 30.875,210.40625 0,1.25 60.3125,0 0,-1.25 -60.3125,0 z"
             id="path5448"
             inkscape:connector-curvature="0" />
          <path
             inkscape:connector-curvature="0"
             id="path5450"
             d="m 115.83638,210.40625 0,1.25 60.3125,0 0,-1.25 -60.3125,0 z"
             style="font-size:medium;font-style:normal;font-variant:normal;font-weight:normal;font-stretch:normal;text-indent:0;text-align:start;text-decoration:none;line-height:normal;letter-spacing:normal;word-spacing:normal;text-transform:none;direction:ltr;block-progression:tb;writing-mode:lr-tb;text-anchor:start;baseline-shift:baseline;color:#000000;fill:#ffffff;fill-opacity:1;stroke:none;stroke-width:1.25;marker:none;visibility:visible;display:inline;overflow:visible;enable-background:accumulate;font-family:Sans;-inkscape-font-specification:Sans" />
        </g>
      </g>
    </g>
  </g>
  <g
     style="display:none"
     id="g4560"
     inkscape:groupmode="layer"
     inkscape:label="logo (greyscale)"
     transform="translate(-329.13455,-457.36984)">
    <g
       id="g4562"
       transform="matrix(0.37476995,0,0,0.37476995,232.61522,307.09071)"
       inkscape:export-filename="/home/vincent/Documents/developpement/grass/grass_splash/logo/logo_variant_bw_bg.png"
       inkscape:export-xdpi="600"
       inkscape:export-ydpi="600">
      <g
         style="display:inline"
         id="g4564"
         inkscape:label="color">
        <path
           sodipodi:nodetypes="cccccccccccccccccccccccccccccccccccccccccccccccccccccccccccccccccccccccccccccccccccccccccccccccccccccccccccccccccccccccccccccccccccccccccccccccccccccccccccccccccccccccccccccccccccccccccccccccccccccccccccccccccccccccccccccccccccccccccccccccccccccccccccc"
           inkscape:connector-curvature="0"
           style="fill:#8f8f8f;fill-opacity:1;stroke:none;display:inline"
           d="m 367.81011,602.52854 4.21781,4.2809 1.43857,-1.54392 -2.57138,-19.15924 0.21875,-3.09375 1.3125,-4.625 1.375,-4.25 1.5,-3.34375 4.875,8.1875 4.75,8.65625 1.05469,5.08007 6.62885,-6.5039 3.34766,-25.16992 7.03125,-34.0625 4.53125,-23.12499 9.1875,-18.21875 1.375,-3.78125 0.5,-2.21875 0.1875,-3.59375 -0.5625,-2.875 -1.3125,-2.59375 -2.40625,-2.40625 0.125,0.65625 1.1875,1.21875 1.09375,2.5625 0.125,2.0625 -1.5,4.125 -1.9375,4.4375 -4.15625,7.46875 2.3125,-17.25 0.65625,-9.0625 -0.84375,-0.15625 -4.65625,31 -0.875,1.5625 -7.65625,14.40625 -9.78125,19.37499 -8.21875,16.8125 -4.5625,11.71875 -2.59375,-4.4375 1.625,-3.34375 8.9375,-17.15625 9.0625,-15.125 3.78125,-7.37499 3.125,-6.125 0.84375,-2.09375 0.1875,-2.03125 -0.375,-1.5625 -0.375,0 -0.28125,1.375 -1.5625,3.59375 -3.78125,6.375 -10.8125,16.62499 -6.15625,9.125 -4.21875,7.46875 2.59375,-25.71875 0.96875,-10.96874 0.40625,-23.1875 -0.0625,0 0.18755,-0.78125 0.59375,-1.4375 0.46875,-1.3125 0.5625,-0.96875 0,-1.90625 -0.1875,-2.40625 0.84375,-1.5625 -0.375,-2.28125 0,-1.71875 0.3125,-0.96875 0.65625,-2.15625 0.46875,-1.15625 -0.875,-1.4375 0.75,-1.4375 -1.1875,-0.84375 -0.71875,-2.15625 1.03125,-1.6875 -1.4375,-0.46875 -0.625,-1.125 0,-0.96875 -0.65625,-1.09375 -0.65625,-0.59375 0.0625,-0.90625 0,-1 -0.3125,-2.71875 -0.21875,-1.5625 -0.96875,-0.71875 -0.46875,-0.84375 -1.09375,-0.53125 -0.65625,-1.1875 0.125,-1.34375 -0.125,-1.375 -0.71875,-1.1875 -1.25,-0.25 -1.15625,-0.40625 -0.59375,-0.84375 -0.40625,-0.90625 -0.90625,0.59375 -0.375,1.15625 -0.1875,1.25 -0.59375,1.96875 -0.40625,-0.65625 0.1875,2.40625 -0.125,0.53125 0,0.90625 0.34375,0.71875 0.3125,0.96875 0.59375,0.78125 0.25,0.34375 0.1875,0.90625 -0.75,0.5625 0.3125,0.8125 -0.71875,0.90625 0.125,0.71875 0.1875,0.71875 0.59375,0.71875 0.53125,0.65625 0.71875,0.625 0.125,0.53125 -0.25,0.78125 -0.59375,0.53125 -0.28125,0.4375 0.0937,1.125 0.90625,0.59375 0.53125,0.5625 0.3125,1.125 -0.96875,1.15625 -0.15625,0.8125 0.40625,0.90625 0.59375,0.71875 0,0.71875 0.4375,0.5625 0.40625,0.46875 0.3125,0.53125 -0.1875,0.90625 0.59375,0.84375 0.53125,0.125 0.1875,0.40625 -0.1875,0.71875 0.5,1.03125 0.53125,0.40625 0.40625,0.84375 -0.40625,1.4375 0.59375,1.3125 0.5625,0.25 0.28125,0.59375 0.125,1.6875 -0.3125,0.71875 -0.28125,0.84375 0.84375,4.25 1.5,0.96875 -0.125,18.4375 -1.75,19.90624 -1.03125,11.53125 -1.6875,14 -0.65625,1.6875 -5.5625,-9.53125 -1.90625,-12.78125 -2.46875,-20.74999 -2.9375,-19.25 0.21875,17.5625 1.0313,14.53124 1.78125,13.84375 -12.40625,-19.65625 -17.8125,-26.71874 -4.09375,-5.6875 -0.34375,0 1.1875,3.40625 2.21875,5.53125 3.25,7.375 5.6875,12.1875 3.4375,6.12499 4.25,7.375 8.78125,13.90625 7.9375,12.625 1.21875,11.3125 3.78125,25.84375 -0.002,-0.0161 -4.37265,-13.57769 -9.25,-22.78125 -7.375,-15.3125 -9.78125,-15.90625 -4.96875,-6.53124 -3.96875,-3.96875 -6.46875,-6 2.6875,3.3125 4.34375,4.4375 2.5625,2.87499 1.6875,2.9375 2.03125,3.25 3.3125,5.6875 2.875,5.28125 2.9375,6.53125 3.59375,8.71875 7.03125,18.1875 7.375,19.1875 4.4375,13.5625 z m -12.9406,-12.88394 -1.2869,-3.44454 -2.375,-4.5 -5.1875,-9.90625 -7.3125,-13.1875 -5.15625,-8.46875 -4.78125,-7.3125 -2.59375,-3.59375 -2.15625,-2.15625 3.71875,7.0625 3.40625,7.90625 5.125,11.65625 2.25,5.15625 2.25393,6.7029 z m -30.8494,-52.56954 -0.0625,-0.125 -0.1875,-0.125 z m 78.46875,-23.53124 -1.25,5.21874 -5.65625,22.625 -2.75,12.84375 -2.875,15.53125 -3.1875,10.125 -1.125,-2.625 -7.25,-13.4375 2.4375,-5.65625 7.9375,-16.625 4.25,-8.9375 5.6875,-12 z m 7.03125,16.84374 -1.03125,6 -2.9375,9.96875 -2.9375,7.375 -3.25,9.59375 -1.71875,9.4375 -1.625,10.0332 5.875,-5.9707 0.25,-3.0625 0.65625,-5.3125 1.5625,-7.5 3.40625,-13.40625 1.5625,-9.9375 z m -42.0625,27.34375 2.375,3.96875 -0.5,9.25 -0.375,0.28125 z m 4,6.65625 1.375,2.28125 -1.0625,2.5 -0.78125,0.5625 z"
           id="path4566" />
        <path
           id="path4568"
           d="m 297.50037,539.11859 -3,3 22.53125,22.53125 -2.96875,2.96875 22.5,22.5 -3,3 38.46875,38.46875 38.5,-38.46875 -3,-3 22.5,-22.5 -2.96875,-2.96875 22.53125,-22.53125 -3,-3 -74.5625,74.53125 -74.53125,-74.53125 z"
           style="color:#000000;fill:#000000;fill-opacity:1;stroke:none;stroke-width:0.82688445;marker:none;visibility:visible;display:inline;overflow:visible;enable-background:accumulate"
           inkscape:connector-curvature="0" />
        <path
           id="path4570"
           d="m 372.03162,420.77484 -93.375,93.40625 93.375,93.40625 93.40625,-93.40625 -93.40625,-93.40625 z m 0,1.65625 91.75,91.75 -91.75,91.75 -91.75,-91.75 91.75,-91.75 z"
           style="color:#000000;fill:#000000;fill-opacity:1;stroke:none;stroke-width:0.80000001;marker:none;visibility:visible;display:inline;overflow:visible;enable-background:accumulate"
           inkscape:connector-curvature="0" />
        <g
           transform="translate(268.5353,413.93109)"
           id="g4572"
           style="display:inline">
          <path
             style="font-size:medium;font-style:normal;font-variant:normal;font-weight:normal;font-stretch:normal;text-indent:0;text-align:start;text-decoration:none;line-height:normal;letter-spacing:normal;word-spacing:normal;text-transform:none;direction:ltr;block-progression:tb;writing-mode:lr-tb;text-anchor:start;baseline-shift:baseline;color:#000000;fill:#000000;fill-opacity:1;stroke:none;stroke-width:1.25;marker:none;visibility:visible;display:inline;overflow:visible;enable-background:accumulate;font-family:Sans;-inkscape-font-specification:Sans"
             d="m 30.875,210.40625 0,1.25 60.3125,0 0,-1.25 -60.3125,0 z"
             id="path4574"
             inkscape:connector-curvature="0" />
          <path
             inkscape:connector-curvature="0"
             id="path4576"
             d="m 115.83638,210.40625 0,1.25 60.3125,0 0,-1.25 -60.3125,0 z"
             style="font-size:medium;font-style:normal;font-variant:normal;font-weight:normal;font-stretch:normal;text-indent:0;text-align:start;text-decoration:none;line-height:normal;letter-spacing:normal;word-spacing:normal;text-transform:none;direction:ltr;block-progression:tb;writing-mode:lr-tb;text-anchor:start;baseline-shift:baseline;color:#000000;fill:#000000;fill-opacity:1;stroke:none;stroke-width:1.25;marker:none;visibility:visible;display:inline;overflow:visible;enable-background:accumulate;font-family:Sans;-inkscape-font-specification:Sans" />
        </g>
      </g>
      <g
         style="display:none"
         inkscape:label="grayscale_opaque"
         id="g4578">
        <path
           id="path4580"
           d="m 367.81011,602.52854 4.21781,4.2809 1.43857,-1.54392 -2.57138,-19.15924 0.21875,-3.09375 1.3125,-4.625 1.375,-4.25 1.5,-3.34375 4.875,8.1875 4.75,8.65625 1.05469,5.08007 6.62885,-6.5039 3.34766,-25.16992 7.03125,-34.0625 4.53125,-23.12499 9.1875,-18.21875 1.375,-3.78125 0.5,-2.21875 0.1875,-3.59375 -0.5625,-2.875 -1.3125,-2.59375 -2.40625,-2.40625 0.125,0.65625 1.1875,1.21875 1.09375,2.5625 0.125,2.0625 -1.5,4.125 -1.9375,4.4375 -4.15625,7.46875 2.3125,-17.25 0.65625,-9.0625 -0.84375,-0.15625 -4.65625,31 -0.875,1.5625 -7.65625,14.40625 -9.78125,19.37499 -8.21875,16.8125 -4.5625,11.71875 -2.59375,-4.4375 1.625,-3.34375 8.9375,-17.15625 9.0625,-15.125 3.78125,-7.37499 3.125,-6.125 0.84375,-2.09375 0.1875,-2.03125 -0.375,-1.5625 -0.375,0 -0.28125,1.375 -1.5625,3.59375 -3.78125,6.375 -10.8125,16.62499 -6.15625,9.125 -4.21875,7.46875 2.59375,-25.71875 0.96875,-10.96874 0.40625,-23.1875 -0.0625,0 0.18755,-0.78125 0.59375,-1.4375 0.46875,-1.3125 0.5625,-0.96875 0,-1.90625 -0.1875,-2.40625 0.84375,-1.5625 -0.375,-2.28125 0,-1.71875 0.3125,-0.96875 0.65625,-2.15625 0.46875,-1.15625 -0.875,-1.4375 0.75,-1.4375 -1.1875,-0.84375 -0.71875,-2.15625 1.03125,-1.6875 -1.4375,-0.46875 -0.625,-1.125 0,-0.96875 -0.65625,-1.09375 -0.65625,-0.59375 0.0625,-0.90625 0,-1 -0.3125,-2.71875 -0.21875,-1.5625 -0.96875,-0.71875 -0.46875,-0.84375 -1.09375,-0.53125 -0.65625,-1.1875 0.125,-1.34375 -0.125,-1.375 -0.71875,-1.1875 -1.25,-0.25 -1.15625,-0.40625 -0.59375,-0.84375 -0.40625,-0.90625 -0.90625,0.59375 -0.375,1.15625 -0.1875,1.25 -0.59375,1.96875 -0.40625,-0.65625 0.1875,2.40625 -0.125,0.53125 0,0.90625 0.34375,0.71875 0.3125,0.96875 0.59375,0.78125 0.25,0.34375 0.1875,0.90625 -0.75,0.5625 0.3125,0.8125 -0.71875,0.90625 0.125,0.71875 0.1875,0.71875 0.59375,0.71875 0.53125,0.65625 0.71875,0.625 0.125,0.53125 -0.25,0.78125 -0.59375,0.53125 -0.28125,0.4375 0.0937,1.125 0.90625,0.59375 0.53125,0.5625 0.3125,1.125 -0.96875,1.15625 -0.15625,0.8125 0.40625,0.90625 0.59375,0.71875 0,0.71875 0.4375,0.5625 0.40625,0.46875 0.3125,0.53125 -0.1875,0.90625 0.59375,0.84375 0.53125,0.125 0.1875,0.40625 -0.1875,0.71875 0.5,1.03125 0.53125,0.40625 0.40625,0.84375 -0.40625,1.4375 0.59375,1.3125 0.5625,0.25 0.28125,0.59375 0.125,1.6875 -0.3125,0.71875 -0.28125,0.84375 0.84375,4.25 1.5,0.96875 -0.125,18.4375 -1.75,19.90624 -1.03125,11.53125 -1.6875,14 -0.65625,1.6875 -5.5625,-9.53125 -1.90625,-12.78125 -2.46875,-20.74999 -2.9375,-19.25 0.21875,17.5625 1.0313,14.53124 1.78125,13.84375 -12.40625,-19.65625 -17.8125,-26.71874 -4.09375,-5.6875 -0.34375,0 1.1875,3.40625 2.21875,5.53125 3.25,7.375 5.6875,12.1875 3.4375,6.12499 4.25,7.375 8.78125,13.90625 7.9375,12.625 1.21875,11.3125 3.78125,25.84375 -0.002,-0.0161 -4.37265,-13.57769 -9.25,-22.78125 -7.375,-15.3125 -9.78125,-15.90625 -4.96875,-6.53124 -3.96875,-3.96875 -6.46875,-6 2.6875,3.3125 4.34375,4.4375 2.5625,2.87499 1.6875,2.9375 2.03125,3.25 3.3125,5.6875 2.875,5.28125 2.9375,6.53125 3.59375,8.71875 7.03125,18.1875 7.375,19.1875 4.4375,13.5625 z m -12.9406,-12.88394 -1.2869,-3.44454 -2.375,-4.5 -5.1875,-9.90625 -7.3125,-13.1875 -5.15625,-8.46875 -4.78125,-7.3125 -2.59375,-3.59375 -2.15625,-2.15625 3.71875,7.0625 3.40625,7.90625 5.125,11.65625 2.25,5.15625 2.25393,6.7029 z m -30.8494,-52.56954 -0.0625,-0.125 -0.1875,-0.125 z m 78.46875,-23.53124 -1.25,5.21874 -5.65625,22.625 -2.75,12.84375 -2.875,15.53125 -3.1875,10.125 -1.125,-2.625 -7.25,-13.4375 2.4375,-5.65625 7.9375,-16.625 4.25,-8.9375 5.6875,-12 z m 7.03125,16.84374 -1.03125,6 -2.9375,9.96875 -2.9375,7.375 -3.25,9.59375 -1.71875,9.4375 -1.625,10.0332 5.875,-5.9707 0.25,-3.0625 0.65625,-5.3125 1.5625,-7.5 3.40625,-13.40625 1.5625,-9.9375 z m -42.0625,27.34375 2.375,3.96875 -0.5,9.25 -0.375,0.28125 z m 4,6.65625 1.375,2.28125 -1.0625,2.5 -0.78125,0.5625 z"
           style="fill:#909090;fill-opacity:1;stroke:none;display:inline"
           inkscape:connector-curvature="0"
           sodipodi:nodetypes="cccccccccccccccccccccccccccccccccccccccccccccccccccccccccccccccccccccccccccccccccccccccccccccccccccccccccccccccccccccccccccccccccccccccccccccccccccccccccccccccccccccccccccccccccccccccccccccccccccccccccccccccccccccccccccccccccccccccccccccccccccccccccccc" />
        <path
           inkscape:connector-curvature="0"
           style="color:#000000;fill:#000000;fill-opacity:1;stroke:none;stroke-width:0.82688445;marker:none;visibility:visible;display:inline;overflow:visible;enable-background:accumulate"
           d="m 297.50037,539.11859 -3,3 22.53125,22.53125 -2.96875,2.96875 22.5,22.5 -3,3 38.46875,38.46875 38.5,-38.46875 -3,-3 22.5,-22.5 -2.96875,-2.96875 22.53125,-22.53125 -3,-3 -74.5625,74.53125 -74.53125,-74.53125 z"
           id="path4582" />
        <path
           inkscape:connector-curvature="0"
           style="color:#000000;fill:#000000;fill-opacity:1;stroke:none;stroke-width:0.80000001;marker:none;visibility:visible;display:inline;overflow:visible;enable-background:accumulate"
           d="m 372.03162,420.77484 -93.375,93.40625 93.375,93.40625 93.40625,-93.40625 -93.40625,-93.40625 z m 0,1.65625 91.75,91.75 -91.75,91.75 -91.75,-91.75 91.75,-91.75 z"
           id="path4584" />
        <g
           style="display:inline"
           id="g4586"
           transform="translate(268.5353,413.93109)">
          <path
             inkscape:connector-curvature="0"
             id="path4588"
             d="m 30.875,210.40625 0,1.25 60.3125,0 0,-1.25 -60.3125,0 z"
             style="font-size:medium;font-style:normal;font-variant:normal;font-weight:normal;font-stretch:normal;text-indent:0;text-align:start;text-decoration:none;line-height:normal;letter-spacing:normal;word-spacing:normal;text-transform:none;direction:ltr;block-progression:tb;writing-mode:lr-tb;text-anchor:start;baseline-shift:baseline;color:#000000;fill:#000000;fill-opacity:1;stroke:none;stroke-width:1.25;marker:none;visibility:visible;display:inline;overflow:visible;enable-background:accumulate;font-family:Sans;-inkscape-font-specification:Sans" />
          <path
             style="font-size:medium;font-style:normal;font-variant:normal;font-weight:normal;font-stretch:normal;text-indent:0;text-align:start;text-decoration:none;line-height:normal;letter-spacing:normal;word-spacing:normal;text-transform:none;direction:ltr;block-progression:tb;writing-mode:lr-tb;text-anchor:start;baseline-shift:baseline;color:#000000;fill:#000000;fill-opacity:1;stroke:none;stroke-width:1.25;marker:none;visibility:visible;display:inline;overflow:visible;enable-background:accumulate;font-family:Sans;-inkscape-font-specification:Sans"
             d="m 115.83638,210.40625 0,1.25 60.3125,0 0,-1.25 -60.3125,0 z"
             id="path4590"
             inkscape:connector-curvature="0" />
        </g>
      </g>
      <g
         id="g4592"
         inkscape:label="grayscale_transparent"
         style="display:none">
        <path
           sodipodi:nodetypes="cccccccccccccccccccccccccccccccccccccccccccccccccccccccccccccccccccccccccccccccccccccccccccccccccccccccccccccccccccccccccccccccccccccccccccccccccccccccccccccccccccccccccccccccccccccccccccccccccccccccccccccccccccccccccccccccccccccccccccccccccccccccccccc"
           inkscape:connector-curvature="0"
           style="fill:#000000;fill-opacity:0.44075832;stroke:none;display:inline"
           d="m 367.81011,602.52854 4.21781,4.2809 1.43857,-1.54392 -2.57138,-19.15924 0.21875,-3.09375 1.3125,-4.625 1.375,-4.25 1.5,-3.34375 4.875,8.1875 4.75,8.65625 1.05469,5.08007 6.62885,-6.5039 3.34766,-25.16992 7.03125,-34.0625 4.53125,-23.12499 9.1875,-18.21875 1.375,-3.78125 0.5,-2.21875 0.1875,-3.59375 -0.5625,-2.875 -1.3125,-2.59375 -2.40625,-2.40625 0.125,0.65625 1.1875,1.21875 1.09375,2.5625 0.125,2.0625 -1.5,4.125 -1.9375,4.4375 -4.15625,7.46875 2.3125,-17.25 0.65625,-9.0625 -0.84375,-0.15625 -4.65625,31 -0.875,1.5625 -7.65625,14.40625 -9.78125,19.37499 -8.21875,16.8125 -4.5625,11.71875 -2.59375,-4.4375 1.625,-3.34375 8.9375,-17.15625 9.0625,-15.125 3.78125,-7.37499 3.125,-6.125 0.84375,-2.09375 0.1875,-2.03125 -0.375,-1.5625 -0.375,0 -0.28125,1.375 -1.5625,3.59375 -3.78125,6.375 -10.8125,16.62499 -6.15625,9.125 -4.21875,7.46875 2.59375,-25.71875 0.96875,-10.96874 0.40625,-23.1875 -0.0625,0 0.18755,-0.78125 0.59375,-1.4375 0.46875,-1.3125 0.5625,-0.96875 0,-1.90625 -0.1875,-2.40625 0.84375,-1.5625 -0.375,-2.28125 0,-1.71875 0.3125,-0.96875 0.65625,-2.15625 0.46875,-1.15625 -0.875,-1.4375 0.75,-1.4375 -1.1875,-0.84375 -0.71875,-2.15625 1.03125,-1.6875 -1.4375,-0.46875 -0.625,-1.125 0,-0.96875 -0.65625,-1.09375 -0.65625,-0.59375 0.0625,-0.90625 0,-1 -0.3125,-2.71875 -0.21875,-1.5625 -0.96875,-0.71875 -0.46875,-0.84375 -1.09375,-0.53125 -0.65625,-1.1875 0.125,-1.34375 -0.125,-1.375 -0.71875,-1.1875 -1.25,-0.25 -1.15625,-0.40625 -0.59375,-0.84375 -0.40625,-0.90625 -0.90625,0.59375 -0.375,1.15625 -0.1875,1.25 -0.59375,1.96875 -0.40625,-0.65625 0.1875,2.40625 -0.125,0.53125 0,0.90625 0.34375,0.71875 0.3125,0.96875 0.59375,0.78125 0.25,0.34375 0.1875,0.90625 -0.75,0.5625 0.3125,0.8125 -0.71875,0.90625 0.125,0.71875 0.1875,0.71875 0.59375,0.71875 0.53125,0.65625 0.71875,0.625 0.125,0.53125 -0.25,0.78125 -0.59375,0.53125 -0.28125,0.4375 0.0937,1.125 0.90625,0.59375 0.53125,0.5625 0.3125,1.125 -0.96875,1.15625 -0.15625,0.8125 0.40625,0.90625 0.59375,0.71875 0,0.71875 0.4375,0.5625 0.40625,0.46875 0.3125,0.53125 -0.1875,0.90625 0.59375,0.84375 0.53125,0.125 0.1875,0.40625 -0.1875,0.71875 0.5,1.03125 0.53125,0.40625 0.40625,0.84375 -0.40625,1.4375 0.59375,1.3125 0.5625,0.25 0.28125,0.59375 0.125,1.6875 -0.3125,0.71875 -0.28125,0.84375 0.84375,4.25 1.5,0.96875 -0.125,18.4375 -1.75,19.90624 -1.03125,11.53125 -1.6875,14 -0.65625,1.6875 -5.5625,-9.53125 -1.90625,-12.78125 -2.46875,-20.74999 -2.9375,-19.25 0.21875,17.5625 1.0313,14.53124 1.78125,13.84375 -12.40625,-19.65625 -17.8125,-26.71874 -4.09375,-5.6875 -0.34375,0 1.1875,3.40625 2.21875,5.53125 3.25,7.375 5.6875,12.1875 3.4375,6.12499 4.25,7.375 8.78125,13.90625 7.9375,12.625 1.21875,11.3125 3.78125,25.84375 -0.002,-0.0161 -4.37265,-13.57769 -9.25,-22.78125 -7.375,-15.3125 -9.78125,-15.90625 -4.96875,-6.53124 -3.96875,-3.96875 -6.46875,-6 2.6875,3.3125 4.34375,4.4375 2.5625,2.87499 1.6875,2.9375 2.03125,3.25 3.3125,5.6875 2.875,5.28125 2.9375,6.53125 3.59375,8.71875 7.03125,18.1875 7.375,19.1875 4.4375,13.5625 z m -12.9406,-12.88394 -1.2869,-3.44454 -2.375,-4.5 -5.1875,-9.90625 -7.3125,-13.1875 -5.15625,-8.46875 -4.78125,-7.3125 -2.59375,-3.59375 -2.15625,-2.15625 3.71875,7.0625 3.40625,7.90625 5.125,11.65625 2.25,5.15625 2.25393,6.7029 z m -30.8494,-52.56954 -0.0625,-0.125 -0.1875,-0.125 z m 78.46875,-23.53124 -1.25,5.21874 -5.65625,22.625 -2.75,12.84375 -2.875,15.53125 -3.1875,10.125 -1.125,-2.625 -7.25,-13.4375 2.4375,-5.65625 7.9375,-16.625 4.25,-8.9375 5.6875,-12 z m 7.03125,16.84374 -1.03125,6 -2.9375,9.96875 -2.9375,7.375 -3.25,9.59375 -1.71875,9.4375 -1.625,10.0332 5.875,-5.9707 0.25,-3.0625 0.65625,-5.3125 1.5625,-7.5 3.40625,-13.40625 1.5625,-9.9375 z m -42.0625,27.34375 2.375,3.96875 -0.5,9.25 -0.375,0.28125 z m 4,6.65625 1.375,2.28125 -1.0625,2.5 -0.78125,0.5625 z"
           id="path4594" />
        <path
           id="path4596"
           d="m 297.50037,539.11859 -3,3 22.53125,22.53125 -2.96875,2.96875 22.5,22.5 -3,3 38.46875,38.46875 38.5,-38.46875 -3,-3 22.5,-22.5 -2.96875,-2.96875 22.53125,-22.53125 -3,-3 -74.5625,74.53125 -74.53125,-74.53125 z"
           style="color:#000000;fill:#000000;fill-opacity:1;stroke:none;stroke-width:0.82688445;marker:none;visibility:visible;display:inline;overflow:visible;enable-background:accumulate"
           inkscape:connector-curvature="0" />
        <path
           id="path4598"
           d="m 372.03162,420.77484 -93.375,93.40625 93.375,93.40625 93.40625,-93.40625 -93.40625,-93.40625 z m 0,1.65625 91.75,91.75 -91.75,91.75 -91.75,-91.75 91.75,-91.75 z"
           style="color:#000000;fill:#000000;fill-opacity:1;stroke:none;stroke-width:0.80000001;marker:none;visibility:visible;display:inline;overflow:visible;enable-background:accumulate"
           inkscape:connector-curvature="0" />
        <g
           transform="translate(268.5353,413.93109)"
           id="g4600"
           style="display:inline">
          <path
             style="font-size:medium;font-style:normal;font-variant:normal;font-weight:normal;font-stretch:normal;text-indent:0;text-align:start;text-decoration:none;line-height:normal;letter-spacing:normal;word-spacing:normal;text-transform:none;direction:ltr;block-progression:tb;writing-mode:lr-tb;text-anchor:start;baseline-shift:baseline;color:#000000;fill:#000000;fill-opacity:1;stroke:none;stroke-width:1.25;marker:none;visibility:visible;display:inline;overflow:visible;enable-background:accumulate;font-family:Sans;-inkscape-font-specification:Sans"
             d="m 30.875,210.40625 0,1.25 60.3125,0 0,-1.25 -60.3125,0 z"
             id="path4602"
             inkscape:connector-curvature="0" />
          <path
             inkscape:connector-curvature="0"
             id="path4604"
             d="m 115.83638,210.40625 0,1.25 60.3125,0 0,-1.25 -60.3125,0 z"
             style="font-size:medium;font-style:normal;font-variant:normal;font-weight:normal;font-stretch:normal;text-indent:0;text-align:start;text-decoration:none;line-height:normal;letter-spacing:normal;word-spacing:normal;text-transform:none;direction:ltr;block-progression:tb;writing-mode:lr-tb;text-anchor:start;baseline-shift:baseline;color:#000000;fill:#000000;fill-opacity:1;stroke:none;stroke-width:1.25;marker:none;visibility:visible;display:inline;overflow:visible;enable-background:accumulate;font-family:Sans;-inkscape-font-specification:Sans" />
        </g>
      </g>
      <g
         id="g4606"
         inkscape:label="white_transparent"
         style="display:none">
        <rect
           style="color:#000000;fill:#c6c6c6;fill-opacity:1;fill-rule:nonzero;stroke:none;stroke-width:0.125;marker:none;visibility:visible;display:inline;overflow:visible;enable-background:accumulate"
           id="rect4608"
           width="679.30383"
           height="437.77356"
           x="32.395325"
           y="307.29431"
           rx="15.09564"
           ry="15.09564"
           sodipodi:insensitive="true" />
        <path
           sodipodi:nodetypes="cccccccccccccccccccccccccccccccccccccccccccccccccccccccccccccccccccccccccccccccccccccccccccccccccccccccccccccccccccccccccccccccccccccccccccccccccccccccccccccccccccccccccccccccccccccccccccccccccccccccccccccccccccccccccccccccccccccccccccccccccccccccccccc"
           inkscape:connector-curvature="0"
           style="fill:#ffffff;fill-opacity:0.43668123;stroke:none;display:inline"
           d="m 367.81011,602.52854 4.21781,4.2809 1.43857,-1.54392 -2.57138,-19.15924 0.21875,-3.09375 1.3125,-4.625 1.375,-4.25 1.5,-3.34375 4.875,8.1875 4.75,8.65625 1.05469,5.08007 6.62885,-6.5039 3.34766,-25.16992 7.03125,-34.0625 4.53125,-23.12499 9.1875,-18.21875 1.375,-3.78125 0.5,-2.21875 0.1875,-3.59375 -0.5625,-2.875 -1.3125,-2.59375 -2.40625,-2.40625 0.125,0.65625 1.1875,1.21875 1.09375,2.5625 0.125,2.0625 -1.5,4.125 -1.9375,4.4375 -4.15625,7.46875 2.3125,-17.25 0.65625,-9.0625 -0.84375,-0.15625 -4.65625,31 -0.875,1.5625 -7.65625,14.40625 -9.78125,19.37499 -8.21875,16.8125 -4.5625,11.71875 -2.59375,-4.4375 1.625,-3.34375 8.9375,-17.15625 9.0625,-15.125 3.78125,-7.37499 3.125,-6.125 0.84375,-2.09375 0.1875,-2.03125 -0.375,-1.5625 -0.375,0 -0.28125,1.375 -1.5625,3.59375 -3.78125,6.375 -10.8125,16.62499 -6.15625,9.125 -4.21875,7.46875 2.59375,-25.71875 0.96875,-10.96874 0.40625,-23.1875 -0.0625,0 0.18755,-0.78125 0.59375,-1.4375 0.46875,-1.3125 0.5625,-0.96875 0,-1.90625 -0.1875,-2.40625 0.84375,-1.5625 -0.375,-2.28125 0,-1.71875 0.3125,-0.96875 0.65625,-2.15625 0.46875,-1.15625 -0.875,-1.4375 0.75,-1.4375 -1.1875,-0.84375 -0.71875,-2.15625 1.03125,-1.6875 -1.4375,-0.46875 -0.625,-1.125 0,-0.96875 -0.65625,-1.09375 -0.65625,-0.59375 0.0625,-0.90625 0,-1 -0.3125,-2.71875 -0.21875,-1.5625 -0.96875,-0.71875 -0.46875,-0.84375 -1.09375,-0.53125 -0.65625,-1.1875 0.125,-1.34375 -0.125,-1.375 -0.71875,-1.1875 -1.25,-0.25 -1.15625,-0.40625 -0.59375,-0.84375 -0.40625,-0.90625 -0.90625,0.59375 -0.375,1.15625 -0.1875,1.25 -0.59375,1.96875 -0.40625,-0.65625 0.1875,2.40625 -0.125,0.53125 0,0.90625 0.34375,0.71875 0.3125,0.96875 0.59375,0.78125 0.25,0.34375 0.1875,0.90625 -0.75,0.5625 0.3125,0.8125 -0.71875,0.90625 0.125,0.71875 0.1875,0.71875 0.59375,0.71875 0.53125,0.65625 0.71875,0.625 0.125,0.53125 -0.25,0.78125 -0.59375,0.53125 -0.28125,0.4375 0.0937,1.125 0.90625,0.59375 0.53125,0.5625 0.3125,1.125 -0.96875,1.15625 -0.15625,0.8125 0.40625,0.90625 0.59375,0.71875 0,0.71875 0.4375,0.5625 0.40625,0.46875 0.3125,0.53125 -0.1875,0.90625 0.59375,0.84375 0.53125,0.125 0.1875,0.40625 -0.1875,0.71875 0.5,1.03125 0.53125,0.40625 0.40625,0.84375 -0.40625,1.4375 0.59375,1.3125 0.5625,0.25 0.28125,0.59375 0.125,1.6875 -0.3125,0.71875 -0.28125,0.84375 0.84375,4.25 1.5,0.96875 -0.125,18.4375 -1.75,19.90624 -1.03125,11.53125 -1.6875,14 -0.65625,1.6875 -5.5625,-9.53125 -1.90625,-12.78125 -2.46875,-20.74999 -2.9375,-19.25 0.21875,17.5625 1.0313,14.53124 1.78125,13.84375 -12.40625,-19.65625 -17.8125,-26.71874 -4.09375,-5.6875 -0.34375,0 1.1875,3.40625 2.21875,5.53125 3.25,7.375 5.6875,12.1875 3.4375,6.12499 4.25,7.375 8.78125,13.90625 7.9375,12.625 1.21875,11.3125 3.78125,25.84375 -0.002,-0.0161 -4.37265,-13.57769 -9.25,-22.78125 -7.375,-15.3125 -9.78125,-15.90625 -4.96875,-6.53124 -3.96875,-3.96875 -6.46875,-6 2.6875,3.3125 4.34375,4.4375 2.5625,2.87499 1.6875,2.9375 2.03125,3.25 3.3125,5.6875 2.875,5.28125 2.9375,6.53125 3.59375,8.71875 7.03125,18.1875 7.375,19.1875 4.4375,13.5625 z m -12.9406,-12.88394 -1.2869,-3.44454 -2.375,-4.5 -5.1875,-9.90625 -7.3125,-13.1875 -5.15625,-8.46875 -4.78125,-7.3125 -2.59375,-3.59375 -2.15625,-2.15625 3.71875,7.0625 3.40625,7.90625 5.125,11.65625 2.25,5.15625 2.25393,6.7029 z m -30.8494,-52.56954 -0.0625,-0.125 -0.1875,-0.125 z m 78.46875,-23.53124 -1.25,5.21874 -5.65625,22.625 -2.75,12.84375 -2.875,15.53125 -3.1875,10.125 -1.125,-2.625 -7.25,-13.4375 2.4375,-5.65625 7.9375,-16.625 4.25,-8.9375 5.6875,-12 z m 7.03125,16.84374 -1.03125,6 -2.9375,9.96875 -2.9375,7.375 -3.25,9.59375 -1.71875,9.4375 -1.625,10.0332 5.875,-5.9707 0.25,-3.0625 0.65625,-5.3125 1.5625,-7.5 3.40625,-13.40625 1.5625,-9.9375 z m -42.0625,27.34375 2.375,3.96875 -0.5,9.25 -0.375,0.28125 z m 4,6.65625 1.375,2.28125 -1.0625,2.5 -0.78125,0.5625 z"
           id="path4610" />
        <path
           id="path4612"
           d="m 297.50037,539.11859 -3,3 22.53125,22.53125 -2.96875,2.96875 22.5,22.5 -3,3 38.46875,38.46875 38.5,-38.46875 -3,-3 22.5,-22.5 -2.96875,-2.96875 22.53125,-22.53125 -3,-3 -74.5625,74.53125 -74.53125,-74.53125 z"
           style="color:#000000;fill:#ffffff;fill-opacity:1;stroke:none;stroke-width:0.82688445;marker:none;visibility:visible;display:inline;overflow:visible;enable-background:accumulate"
           inkscape:connector-curvature="0" />
        <path
           id="path4614"
           d="m 372.03162,420.77484 -93.375,93.40625 93.375,93.40625 93.40625,-93.40625 -93.40625,-93.40625 z m 0,1.65625 91.75,91.75 -91.75,91.75 -91.75,-91.75 91.75,-91.75 z"
           style="color:#000000;fill:#ffffff;fill-opacity:1;stroke:none;stroke-width:0.80000001;marker:none;visibility:visible;display:inline;overflow:visible;enable-background:accumulate"
           inkscape:connector-curvature="0" />
        <g
           transform="translate(268.5353,413.93109)"
           id="g4616"
           style="fill:#ffffff;fill-opacity:1;display:inline">
          <path
             style="font-size:medium;font-style:normal;font-variant:normal;font-weight:normal;font-stretch:normal;text-indent:0;text-align:start;text-decoration:none;line-height:normal;letter-spacing:normal;word-spacing:normal;text-transform:none;direction:ltr;block-progression:tb;writing-mode:lr-tb;text-anchor:start;baseline-shift:baseline;color:#000000;fill:#ffffff;fill-opacity:1;stroke:none;stroke-width:1.25;marker:none;visibility:visible;display:inline;overflow:visible;enable-background:accumulate;font-family:Sans;-inkscape-font-specification:Sans"
             d="m 30.875,210.40625 0,1.25 60.3125,0 0,-1.25 -60.3125,0 z"
             id="path4618"
             inkscape:connector-curvature="0" />
          <path
             inkscape:connector-curvature="0"
             id="path4620"
             d="m 115.83638,210.40625 0,1.25 60.3125,0 0,-1.25 -60.3125,0 z"
             style="font-size:medium;font-style:normal;font-variant:normal;font-weight:normal;font-stretch:normal;text-indent:0;text-align:start;text-decoration:none;line-height:normal;letter-spacing:normal;word-spacing:normal;text-transform:none;direction:ltr;block-progression:tb;writing-mode:lr-tb;text-anchor:start;baseline-shift:baseline;color:#000000;fill:#ffffff;fill-opacity:1;stroke:none;stroke-width:1.25;marker:none;visibility:visible;display:inline;overflow:visible;enable-background:accumulate;font-family:Sans;-inkscape-font-specification:Sans" />
        </g>
      </g>
      <g
         style="display:none"
         inkscape:label="white_opaque"
         id="g4622">
        <rect
           sodipodi:insensitive="true"
           ry="15.09564"
           rx="15.09564"
           y="307.29431"
           x="32.395325"
           height="437.77356"
           width="679.30383"
           id="rect4624"
           style="color:#000000;fill:#c6c6c6;fill-opacity:1;fill-rule:nonzero;stroke:none;stroke-width:0.125;marker:none;visibility:visible;display:inline;overflow:visible;enable-background:accumulate" />
        <path
           id="path4626"
           d="m 367.81011,602.52854 4.21781,4.2809 1.43857,-1.54392 -2.57138,-19.15924 0.21875,-3.09375 1.3125,-4.625 1.375,-4.25 1.5,-3.34375 4.875,8.1875 4.75,8.65625 1.05469,5.08007 6.62885,-6.5039 3.34766,-25.16992 7.03125,-34.0625 4.53125,-23.12499 9.1875,-18.21875 1.375,-3.78125 0.5,-2.21875 0.1875,-3.59375 -0.5625,-2.875 -1.3125,-2.59375 -2.40625,-2.40625 0.125,0.65625 1.1875,1.21875 1.09375,2.5625 0.125,2.0625 -1.5,4.125 -1.9375,4.4375 -4.15625,7.46875 2.3125,-17.25 0.65625,-9.0625 -0.84375,-0.15625 -4.65625,31 -0.875,1.5625 -7.65625,14.40625 -9.78125,19.37499 -8.21875,16.8125 -4.5625,11.71875 -2.59375,-4.4375 1.625,-3.34375 8.9375,-17.15625 9.0625,-15.125 3.78125,-7.37499 3.125,-6.125 0.84375,-2.09375 0.1875,-2.03125 -0.375,-1.5625 -0.375,0 -0.28125,1.375 -1.5625,3.59375 -3.78125,6.375 -10.8125,16.62499 -6.15625,9.125 -4.21875,7.46875 2.59375,-25.71875 0.96875,-10.96874 0.40625,-23.1875 -0.0625,0 0.18755,-0.78125 0.59375,-1.4375 0.46875,-1.3125 0.5625,-0.96875 0,-1.90625 -0.1875,-2.40625 0.84375,-1.5625 -0.375,-2.28125 0,-1.71875 0.3125,-0.96875 0.65625,-2.15625 0.46875,-1.15625 -0.875,-1.4375 0.75,-1.4375 -1.1875,-0.84375 -0.71875,-2.15625 1.03125,-1.6875 -1.4375,-0.46875 -0.625,-1.125 0,-0.96875 -0.65625,-1.09375 -0.65625,-0.59375 0.0625,-0.90625 0,-1 -0.3125,-2.71875 -0.21875,-1.5625 -0.96875,-0.71875 -0.46875,-0.84375 -1.09375,-0.53125 -0.65625,-1.1875 0.125,-1.34375 -0.125,-1.375 -0.71875,-1.1875 -1.25,-0.25 -1.15625,-0.40625 -0.59375,-0.84375 -0.40625,-0.90625 -0.90625,0.59375 -0.375,1.15625 -0.1875,1.25 -0.59375,1.96875 -0.40625,-0.65625 0.1875,2.40625 -0.125,0.53125 0,0.90625 0.34375,0.71875 0.3125,0.96875 0.59375,0.78125 0.25,0.34375 0.1875,0.90625 -0.75,0.5625 0.3125,0.8125 -0.71875,0.90625 0.125,0.71875 0.1875,0.71875 0.59375,0.71875 0.53125,0.65625 0.71875,0.625 0.125,0.53125 -0.25,0.78125 -0.59375,0.53125 -0.28125,0.4375 0.0937,1.125 0.90625,0.59375 0.53125,0.5625 0.3125,1.125 -0.96875,1.15625 -0.15625,0.8125 0.40625,0.90625 0.59375,0.71875 0,0.71875 0.4375,0.5625 0.40625,0.46875 0.3125,0.53125 -0.1875,0.90625 0.59375,0.84375 0.53125,0.125 0.1875,0.40625 -0.1875,0.71875 0.5,1.03125 0.53125,0.40625 0.40625,0.84375 -0.40625,1.4375 0.59375,1.3125 0.5625,0.25 0.28125,0.59375 0.125,1.6875 -0.3125,0.71875 -0.28125,0.84375 0.84375,4.25 1.5,0.96875 -0.125,18.4375 -1.75,19.90624 -1.03125,11.53125 -1.6875,14 -0.65625,1.6875 -5.5625,-9.53125 -1.90625,-12.78125 -2.46875,-20.74999 -2.9375,-19.25 0.21875,17.5625 1.0313,14.53124 1.78125,13.84375 -12.40625,-19.65625 -17.8125,-26.71874 -4.09375,-5.6875 -0.34375,0 1.1875,3.40625 2.21875,5.53125 3.25,7.375 5.6875,12.1875 3.4375,6.12499 4.25,7.375 8.78125,13.90625 7.9375,12.625 1.21875,11.3125 3.78125,25.84375 -0.002,-0.0161 -4.37265,-13.57769 -9.25,-22.78125 -7.375,-15.3125 -9.78125,-15.90625 -4.96875,-6.53124 -3.96875,-3.96875 -6.46875,-6 2.6875,3.3125 4.34375,4.4375 2.5625,2.87499 1.6875,2.9375 2.03125,3.25 3.3125,5.6875 2.875,5.28125 2.9375,6.53125 3.59375,8.71875 7.03125,18.1875 7.375,19.1875 4.4375,13.5625 z m -12.9406,-12.88394 -1.2869,-3.44454 -2.375,-4.5 -5.1875,-9.90625 -7.3125,-13.1875 -5.15625,-8.46875 -4.78125,-7.3125 -2.59375,-3.59375 -2.15625,-2.15625 3.71875,7.0625 3.40625,7.90625 5.125,11.65625 2.25,5.15625 2.25393,6.7029 z m -30.8494,-52.56954 -0.0625,-0.125 -0.1875,-0.125 z m 78.46875,-23.53124 -1.25,5.21874 -5.65625,22.625 -2.75,12.84375 -2.875,15.53125 -3.1875,10.125 -1.125,-2.625 -7.25,-13.4375 2.4375,-5.65625 7.9375,-16.625 4.25,-8.9375 5.6875,-12 z m 7.03125,16.84374 -1.03125,6 -2.9375,9.96875 -2.9375,7.375 -3.25,9.59375 -1.71875,9.4375 -1.625,10.0332 5.875,-5.9707 0.25,-3.0625 0.65625,-5.3125 1.5625,-7.5 3.40625,-13.40625 1.5625,-9.9375 z m -42.0625,27.34375 2.375,3.96875 -0.5,9.25 -0.375,0.28125 z m 4,6.65625 1.375,2.28125 -1.0625,2.5 -0.78125,0.5625 z"
           style="fill:#ffffff;fill-opacity:1;stroke:none;display:inline"
           inkscape:connector-curvature="0"
           sodipodi:nodetypes="cccccccccccccccccccccccccccccccccccccccccccccccccccccccccccccccccccccccccccccccccccccccccccccccccccccccccccccccccccccccccccccccccccccccccccccccccccccccccccccccccccccccccccccccccccccccccccccccccccccccccccccccccccccccccccccccccccccccccccccccccccccccccccc" />
        <path
           inkscape:connector-curvature="0"
           style="color:#000000;fill:#ffffff;fill-opacity:1;stroke:none;stroke-width:0.82688445;marker:none;visibility:visible;display:inline;overflow:visible;enable-background:accumulate"
           d="m 297.50037,539.11859 -3,3 22.53125,22.53125 -2.96875,2.96875 22.5,22.5 -3,3 38.46875,38.46875 38.5,-38.46875 -3,-3 22.5,-22.5 -2.96875,-2.96875 22.53125,-22.53125 -3,-3 -74.5625,74.53125 -74.53125,-74.53125 z"
           id="path4628" />
        <path
           inkscape:connector-curvature="0"
           style="color:#000000;fill:#ffffff;fill-opacity:1;stroke:none;stroke-width:0.80000001;marker:none;visibility:visible;display:inline;overflow:visible;enable-background:accumulate"
           d="m 372.03162,420.77484 -93.375,93.40625 93.375,93.40625 93.40625,-93.40625 -93.40625,-93.40625 z m 0,1.65625 91.75,91.75 -91.75,91.75 -91.75,-91.75 91.75,-91.75 z"
           id="path4630" />
        <g
           style="fill:#ffffff;fill-opacity:1;display:inline"
           id="g4632"
           transform="translate(268.5353,413.93109)">
          <path
             inkscape:connector-curvature="0"
             id="path4634"
             d="m 30.875,210.40625 0,1.25 60.3125,0 0,-1.25 -60.3125,0 z"
             style="font-size:medium;font-style:normal;font-variant:normal;font-weight:normal;font-stretch:normal;text-indent:0;text-align:start;text-decoration:none;line-height:normal;letter-spacing:normal;word-spacing:normal;text-transform:none;direction:ltr;block-progression:tb;writing-mode:lr-tb;text-anchor:start;baseline-shift:baseline;color:#000000;fill:#ffffff;fill-opacity:1;stroke:none;stroke-width:1.25;marker:none;visibility:visible;display:inline;overflow:visible;enable-background:accumulate;font-family:Sans;-inkscape-font-specification:Sans" />
          <path
             style="font-size:medium;font-style:normal;font-variant:normal;font-weight:normal;font-stretch:normal;text-indent:0;text-align:start;text-decoration:none;line-height:normal;letter-spacing:normal;word-spacing:normal;text-transform:none;direction:ltr;block-progression:tb;writing-mode:lr-tb;text-anchor:start;baseline-shift:baseline;color:#000000;fill:#ffffff;fill-opacity:1;stroke:none;stroke-width:1.25;marker:none;visibility:visible;display:inline;overflow:visible;enable-background:accumulate;font-family:Sans;-inkscape-font-specification:Sans"
             d="m 115.83638,210.40625 0,1.25 60.3125,0 0,-1.25 -60.3125,0 z"
             id="path4636"
             inkscape:connector-curvature="0" />
        </g>
      </g>
    </g>
  </g>
  <g
     inkscape:groupmode="layer"
     id="layer3"
     inkscape:label="GRASS GIS (modified kerning)"
     style="display:inline"
     transform="translate(-329.13455,-457.36984)">
    <g
       id="g4549"
       transform="translate(-1.8081733,0)"
       inkscape:export-filename="/home/vincent/Documents/developpement/grass/grass_splash/logo/logo_variant_bw_bg.png"
       inkscape:export-xdpi="600"
       inkscape:export-ydpi="600">
      <flowRoot
         transform="matrix(0.78531774,0,0,0.78531774,56.306031,438.46065)"
         style="font-size:21.99999809px;font-style:normal;font-variant:normal;font-weight:normal;font-stretch:normal;text-align:start;line-height:125%;letter-spacing:0px;word-spacing:0px;writing-mode:lr-tb;text-anchor:start;fill:#000000;fill-opacity:1;stroke:#000000;stroke-width:0.31834248;stroke-linecap:round;stroke-linejoin:round;stroke-miterlimit:4;stroke-opacity:1;stroke-dasharray:none;font-family:Fira Sans;-inkscape-font-specification:Fira Sans"
         id="flowRoot5356"
         xml:space="preserve"
         inkscape:export-filename="/home/vincent/Documents/developpement/grass/grass_splash/logo/logo_variant_bg.png"
         inkscape:export-xdpi="600"
         inkscape:export-ydpi="600"><flowRegion
           id="flowRegion5358"><rect
             style="font-size:21.99999809px;font-style:normal;font-variant:normal;font-weight:normal;font-stretch:normal;text-align:start;line-height:125%;writing-mode:lr-tb;text-anchor:start;stroke:#000000;stroke-width:0.31834248;stroke-linecap:round;stroke-linejoin:round;stroke-miterlimit:4;stroke-opacity:1;stroke-dasharray:none;font-family:Fira Sans;-inkscape-font-specification:Fira Sans"
             y="134.13319"
             x="358.83777"
             height="26.105526"
             width="89.535889"
             id="rect5360" /></flowRegion><flowPara
           id="flowPara5362"
           style="font-size:21.99999809px;font-style:normal;font-variant:normal;font-weight:500;font-stretch:normal;text-align:start;line-height:125%;letter-spacing:-1.77950382px;writing-mode:lr-tb;text-anchor:start;stroke:#000000;stroke-width:0.31834248;stroke-linecap:round;stroke-linejoin:round;stroke-miterlimit:4;stroke-opacity:1;stroke-dasharray:none;font-family:Fira Sans;-inkscape-font-specification:Fira Sans Medium">G<flowSpan
   id="flowSpan4547"
   style="letter-spacing:0px;stroke:#000000;stroke-width:0.31834248;stroke-linecap:round;stroke-linejoin:round;stroke-miterlimit:4;stroke-opacity:1;stroke-dasharray:none">RASS</flowSpan></flowPara></flowRoot>      <flowRoot
         xml:space="preserve"
         id="flowRoot6517"
         style="font-size:21.99999809px;font-style:normal;font-variant:normal;font-weight:100;font-stretch:normal;text-align:start;line-height:125%;letter-spacing:0px;word-spacing:0px;writing-mode:lr-tb;text-anchor:start;fill:#000000;fill-opacity:1;stroke:#000000;stroke-width:0.31834248;stroke-linecap:round;stroke-linejoin:round;stroke-miterlimit:4;stroke-opacity:1;stroke-dasharray:none;font-family:Fira Sans;-inkscape-font-specification:Fira Sans Thin"
         transform="matrix(0.78531774,0,0,0.78531774,106.84321,438.46065)"
         inkscape:export-filename="/home/vincent/Documents/developpement/grass/grass_splash/logo/logo_variant_bg.png"
         inkscape:export-xdpi="600"
         inkscape:export-ydpi="600"><flowRegion
           id="flowRegion6519"><rect
             id="rect6521"
             width="89.535889"
             height="26.105526"
             x="358.83777"
             y="134.13319"
             style="font-size:21.99999809px;font-style:normal;font-variant:normal;font-weight:100;font-stretch:normal;text-align:start;line-height:125%;writing-mode:lr-tb;text-anchor:start;stroke:#000000;stroke-width:0.31834248;stroke-linecap:round;stroke-linejoin:round;stroke-miterlimit:4;stroke-opacity:1;stroke-dasharray:none;font-family:Fira Sans;-inkscape-font-specification:Fira Sans Thin" /></flowRegion><flowPara
           style="font-size:21.99999809px;font-style:normal;font-variant:normal;font-weight:100;font-stretch:normal;text-align:start;line-height:125%;letter-spacing:-1.77950382px;writing-mode:lr-tb;text-anchor:start;stroke:#000000;stroke-width:0.31834248;stroke-linecap:round;stroke-linejoin:round;stroke-miterlimit:4;stroke-opacity:1;stroke-dasharray:none;font-family:Fira Sans;-inkscape-font-specification:Fira Sans Thin"
           id="flowPara6523">GIS</flowPara></flowRoot>    </g>
  </g>
  <g
     style="display:none"
     inkscape:label="grass gis"
     id="g3077"
     inkscape:groupmode="layer"
     transform="translate(-329.13455,-457.36984)">
    <g
       id="g3176"
       transform="translate(0.28911718,0)">
      <flowRoot
         xml:space="preserve"
         id="flowRoot5165"
         style="font-size:21.99999809px;font-style:normal;font-variant:normal;font-weight:100;font-stretch:normal;text-align:start;line-height:125%;letter-spacing:0px;word-spacing:0px;writing-mode:lr-tb;text-anchor:start;fill:#000000;fill-opacity:1;stroke:none;display:inline;font-family:Fira Sans;-inkscape-font-specification:Fira Sans Thin"
         transform="matrix(0.92010725,0,0,0.89466694,6.1437805,419.51067)"><flowRegion
           id="flowRegion5167"><rect
             id="rect5169"
             width="89.535889"
             height="26.105526"
             x="358.83777"
             y="134.13319"
             style="font-size:21.99999809px;font-style:normal;font-variant:normal;font-weight:100;font-stretch:normal;text-align:start;line-height:125%;writing-mode:lr-tb;text-anchor:start;font-family:Fira Sans;-inkscape-font-specification:Fira Sans Thin" /></flowRegion><flowPara
           style="font-size:21.99999809px;font-style:normal;font-variant:normal;font-weight:300;font-stretch:normal;text-align:start;line-height:125%;letter-spacing:-0.6777854px;writing-mode:lr-tb;text-anchor:start;stroke:#000000;stroke-width:0.13777173;stroke-linejoin:round;stroke-miterlimit:4;stroke-opacity:1;stroke-dasharray:none;font-family:Fira Sans;-inkscape-font-specification:Fira Sans Light"
           id="flowPara5171">grass</flowPara></flowRoot>      <flowRoot
         xml:space="preserve"
         id="flowRoot5165-2"
         style="font-size:21.99999809px;font-style:normal;font-variant:normal;font-weight:100;font-stretch:normal;text-align:start;line-height:125%;letter-spacing:0px;word-spacing:0px;writing-mode:lr-tb;text-anchor:start;fill:#000000;fill-opacity:1;stroke:#000000;stroke-width:0.27554345;stroke-miterlimit:4;stroke-opacity:1;stroke-dasharray:none;display:inline;font-family:Fira Sans;-inkscape-font-specification:Fira Sans Thin"
         transform="matrix(0.92010725,0,0,0.89466694,53.843433,419.51067)"><flowRegion
           id="flowRegion5167-5"><rect
             id="rect5169-0"
             width="89.535889"
             height="26.105526"
             x="358.83777"
             y="134.13319"
             style="font-size:21.99999809px;font-style:normal;font-variant:normal;font-weight:100;font-stretch:normal;text-align:start;line-height:125%;writing-mode:lr-tb;text-anchor:start;stroke:#000000;stroke-width:0.27554345;stroke-miterlimit:4;stroke-opacity:1;stroke-dasharray:none;font-family:Fira Sans;-inkscape-font-specification:Fira Sans Thin" /></flowRegion><flowPara
           style="font-size:21.99999809px;font-style:normal;font-variant:normal;font-weight:100;font-stretch:normal;text-align:start;line-height:125%;letter-spacing:-0.6777854px;writing-mode:lr-tb;text-anchor:start;stroke:#000000;stroke-width:0.27554345;stroke-linecap:round;stroke-linejoin:round;stroke-miterlimit:4;stroke-opacity:1;stroke-dasharray:none;font-family:Fira Sans;-inkscape-font-specification:Fira Sans Thin"
           id="flowPara5171-7">gis</flowPara></flowRoot>    </g>
  </g>
  <g
     inkscape:groupmode="layer"
     id="layer4"
     inkscape:label="Bringing..."
     style="display:none"
     transform="translate(-329.13455,-457.36984)">
    <flowRoot
       xml:space="preserve"
       id="flowRoot5297-5"
       style="font-size:22px;font-style:normal;font-variant:normal;font-weight:normal;font-stretch:normal;text-align:start;line-height:125%;letter-spacing:0px;word-spacing:0px;writing-mode:lr-tb;text-anchor:start;fill:#000000;fill-opacity:1;stroke:none;font-family:EB Garamond;-inkscape-font-specification:EB Garamond"
       transform="matrix(0.31339095,0,0,0.31339095,214.76229,484.09667)"><flowRegion
         id="flowRegion5299-6"><rect
           id="rect5301-5"
           width="472.69949"
           height="27.879639"
           x="268.00415"
           y="258.24249"
           style="font-size:22px;font-style:normal;font-variant:normal;font-weight:normal;font-stretch:normal;text-align:start;line-height:125%;writing-mode:lr-tb;text-anchor:start;font-family:EB Garamond;-inkscape-font-specification:EB Garamond" /></flowRegion><flowPara
         id="flowPara5303-9">Bringing advanced geospatial technologies to the world</flowPara></flowRoot>  </g>
</svg>
