<?xml version="1.0" encoding="UTF-8"?>
<svg enable-background="new 0 0 122.4 122.4" version="1.1" viewBox="0 0 122.4 122.4" xml:space="preserve" xmlns="http://www.w3.org/2000/svg" xmlns:cc="http://creativecommons.org/ns#" xmlns:dc="http://purl.org/dc/elements/1.1/" xmlns:rdf="http://www.w3.org/1999/02/22-rdf-syntax-ns#"><title>OSGeo logomark</title><metadata><rdf:RDF><cc:Work rdf:about=""><dc:format>image/svg+xml</dc:format><dc:type rdf:resource="http://purl.org/dc/dcmitype/StillImage"/><dc:title>OSGeo logomark</dc:title><dc:date>June 2017</dc:date><dc:creator><cc:Agent><dc:title>Tim Pebbens</dc:title></cc:Agent></dc:creator><dc:rights><cc:Agent><dc:title>Copyright OSGeo Foundation</dc:title></cc:Agent></dc:rights><dc:publisher><cc:Agent><dc:title>OSGeo Foundation</dc:title></cc:Agent></dc:publisher><dc:subject><rdf:Bag><rdf:li>OSGeo</rdf:li><rdf:li>logomark</rdf:li><rdf:li>logo</rdf:li><rdf:li>compass</rdf:li></rdf:Bag></dc:subject><dc:description>Official OSGeo logomark</dc:description><dc:contributor><cc:Agent><dc:title>OSGeo Marketing Committee</dc:title></cc:Agent></dc:contributor><cc:license rdf:resource="http://creativecommons.org/licenses/by-nc-nd/4.0/"/><dc:identifier>osgeo-emblem-cmyk</dc:identifier></cc:Work><cc:License rdf:about="http://creativecommons.org/licenses/by-nc-nd/4.0/"><cc:permits rdf:resource="http://creativecommons.org/ns#Reproduction"/><cc:permits rdf:resource="http://creativecommons.org/ns#Distribution"/><cc:requires rdf:resource="http://creativecommons.org/ns#Notice"/><cc:requires rdf:resource="http://creativecommons.org/ns#Attribution"/><cc:prohibits rdf:resource="http://creativecommons.org/ns#CommercialUse"/></cc:License></rdf:RDF></metadata><style type="text/css">.st0{fill:#4DAF5C;}.st1{fill:#023B41;}</style><path class="st0" d="m58.1 24.6v-24.6l-7.7 13.4c-20.9 4.7-36.7 22.7-38.1 44.7h12.3c1.5-17.8 15.7-32 33.5-33.5"/><path class="st1" d="m24.6 64.2h-24.6l13.4 7.7c4.7 20.9 22.7 36.7 44.7 38.1v-12.2c-17.8-1.5-32-15.7-33.5-33.6"/><path class="st1" d="m97.8 58.1h24.5l-13.4-7.7c-4.7-20.9-22.7-36.7-44.7-38.1v12.3c17.9 1.5 32.1 15.7 33.6 33.5"/><path class="st0" d="m64.2 97.8v24.5l7.7-13.4c20.9-4.7 36.7-22.7 38.1-44.7h-12.2c-1.5 17.9-15.7 32.1-33.6 33.6"/><path class="st1" d="m65 57.4l-22.7-15.1 15.1 22.7 22.7 15.1-15.1-22.7zm-3.9 6.4c-1.5 0-2.7-1.2-2.7-2.7s1.2-2.7 2.7-2.7 2.7 1.2 2.7 2.7-1.2 2.7-2.7 2.7"/><polygon class="st0" points="57.4 65 52.3 57.3 29.1 61.2 52.3 65.1 42.3 80.1 57.3 70.1 61.2 93.3 65.1 70.1"/><polygon class="st0" points="70.1 57.3 80.1 42.3 65.1 52.3 61.2 29.1 57.3 52.3 65 57.4 70.1 65.1 93.3 61.2"/></svg>
