<?xml version="1.0" encoding="UTF-8" standalone="no"?>
<!-- Generator: Adobe Illustrator 21.1.0, SVG Export Plug-In . SVG Version: 6.00 Build 0)  -->

<svg
   xmlns:dc="http://purl.org/dc/elements/1.1/"
   xmlns:cc="http://creativecommons.org/ns#"
   xmlns:rdf="http://www.w3.org/1999/02/22-rdf-syntax-ns#"
   xmlns:svg="http://www.w3.org/2000/svg"
   xmlns="http://www.w3.org/2000/svg"
   xmlns:sodipodi="http://sodipodi.sourceforge.net/DTD/sodipodi-0.dtd"
   xmlns:inkscape="http://www.inkscape.org/namespaces/inkscape"
   version="1.1"
   id="Layer_1"
   x="0px"
   y="0px"
   viewBox="0 0 128.3 128.3"
   xml:space="preserve"
   sodipodi:docname="osgeo-emblem-inkscape.svg"
   width="128.3"
   height="128.3"
   inkscape:version="0.92.2 (5c3e80d, 2017-08-06)"
   inkscape:export-filename="/home/ben/osgeo/osgeo-emblem/osgeo-emblem-64x64.png"
   inkscape:export-xdpi="47.88776"
   inkscape:export-ydpi="47.88776"><metadata
     id="metadata25"><rdf:RDF><cc:Work
         rdf:about=""><dc:format>image/svg+xml</dc:format><dc:type
           rdf:resource="http://purl.org/dc/dcmitype/StillImage" /><dc:title></dc:title></cc:Work></rdf:RDF></metadata><defs
     id="defs23" /><sodipodi:namedview
     pagecolor="#ffffff"
     bordercolor="#666666"
     borderopacity="1"
     objecttolerance="10"
     gridtolerance="10"
     guidetolerance="10"
     inkscape:pageopacity="0"
     inkscape:pageshadow="2"
     inkscape:window-width="1908"
     inkscape:window-height="984"
     id="namedview21"
     showgrid="false"
     fit-margin-top="3"
     fit-margin-right="3"
     fit-margin-bottom="3"
     fit-margin-left="3"
     inkscape:zoom="1.9281046"
     inkscape:cx="-127.17966"
     inkscape:cy="59.950832"
     inkscape:window-x="0"
     inkscape:window-y="33"
     inkscape:window-maximized="1"
     inkscape:current-layer="Layer_1" /><style
     type="text/css"
     id="style2">
	.st0{fill:#4DAF5C;}
	.st1{fill:#023B41;}
</style><g
     id="g18"
     transform="translate(3,3)"><path
       class="st0"
       d="M 58.1,24.6 V 12.3 0 L 50.4,13.4 C 29.5,18.1 13.7,36.1 12.3,58.1 h 12.3 c 1.5,-17.8 15.7,-32 33.5,-33.5"
       id="path4"
       inkscape:connector-curvature="0"
       style="fill:#4daf5c" /><path
       class="st1"
       d="M 24.6,64.2 H 12.3 0 l 13.4,7.7 c 4.7,20.9 22.7,36.7 44.7,38.1 V 97.8 C 40.3,96.3 26.1,82.1 24.6,64.2"
       id="path6"
       inkscape:connector-curvature="0"
       style="fill:#023b41" /><path
       class="st1"
       d="M 97.8,58.1 H 110 122.3 L 108.9,50.4 C 104.2,29.5 86.2,13.7 64.2,12.3 v 12.3 c 17.9,1.5 32.1,15.7 33.6,33.5"
       id="path8"
       inkscape:connector-curvature="0"
       style="fill:#023b41" /><path
       class="st0"
       d="m 64.2,97.8 v 12.2 12.3 l 7.7,-13.4 C 92.8,104.2 108.6,86.2 110,64.2 H 97.8 C 96.3,82.1 82.1,96.3 64.2,97.8"
       id="path10"
       inkscape:connector-curvature="0"
       style="fill:#4daf5c" /><path
       class="st1"
       d="M 65,57.4 42.3,42.3 57.4,65 80.1,80.1 Z m -3.9,6.4 c -1.5,0 -2.7,-1.2 -2.7,-2.7 0,-1.5 1.2,-2.7 2.7,-2.7 1.5,0 2.7,1.2 2.7,2.7 0,1.5 -1.2,2.7 -2.7,2.7"
       id="path12"
       inkscape:connector-curvature="0"
       style="fill:#023b41" /><polygon
       class="st0"
       points="42.3,80.1 57.3,70.1 61.2,93.3 65.1,70.1 57.4,65 52.3,57.3 29.1,61.2 52.3,65.1 "
       id="polygon14"
       style="fill:#4daf5c" /><polygon
       class="st0"
       points="57.3,52.3 65,57.4 70.1,65.1 93.3,61.2 70.1,57.3 80.1,42.3 65.1,52.3 61.2,29.1 "
       id="polygon16"
       style="fill:#4daf5c" /></g></svg>