<?xml version="1.0" encoding="utf-8"?>
<!-- Generator: Adobe Illustrator 21.1.0, SVG Export Plug-In . SVG Version: 6.00 Build 0)  -->
<svg version="1.1" id="Layer_1" xmlns="http://www.w3.org/2000/svg" xmlns:xlink="http://www.w3.org/1999/xlink" x="0px" y="0px"
	 viewBox="0 0 122.4 122.4" style="enable-background:new 0 0 122.4 122.4;" xml:space="preserve">
<style type="text/css">
	.st0{fill:#4DAF5C;}
	.st1{fill:#023B41;}
</style>
<g>
	<path class="st0" d="M58.1,24.6V12.3V0l-7.7,13.4c-20.9,4.7-36.7,22.7-38.1,44.7h12.3C26.1,40.3,40.3,26.1,58.1,24.6"/>
	<path class="st1" d="M24.6,64.2H12.3H0l13.4,7.7c4.7,20.9,22.7,36.7,44.7,38.1V97.8C40.3,96.3,26.1,82.1,24.6,64.2"/>
	<path class="st1" d="M97.8,58.1H110h12.3l-13.4-7.7c-4.7-20.9-22.7-36.7-44.7-38.1v12.3C82.1,26.1,96.3,40.3,97.8,58.1"/>
	<path class="st0" d="M64.2,97.8V110v12.3l7.7-13.4c20.9-4.7,36.7-22.7,38.1-44.7H97.8C96.3,82.1,82.1,96.3,64.2,97.8"/>
	<path class="st1" d="M65,57.4L42.3,42.3L57.4,65l22.7,15.1L65,57.4z M61.1,63.8c-1.5,0-2.7-1.2-2.7-2.7c0-1.5,1.2-2.7,2.7-2.7
		c1.5,0,2.7,1.2,2.7,2.7C63.8,62.6,62.6,63.8,61.1,63.8"/>
	<polygon class="st0" points="57.4,65 52.3,57.3 29.1,61.2 52.3,65.1 42.3,80.1 57.3,70.1 61.2,93.3 65.1,70.1 	"/>
	<polygon class="st0" points="70.1,57.3 80.1,42.3 65.1,52.3 61.2,29.1 57.3,52.3 65,57.4 70.1,65.1 93.3,61.2 	"/>
</g>
</svg>
