<?xml version="1.0" encoding="UTF-8"?>
<svg enable-background="new 0 0 552.1 180.1" version="1.1" viewBox="0 0 552.1 180.1" xml:space="preserve" xmlns="http://www.w3.org/2000/svg" xmlns:cc="http://creativecommons.org/ns#" xmlns:dc="http://purl.org/dc/elements/1.1/" xmlns:rdf="http://www.w3.org/1999/02/22-rdf-syntax-ns#" xmlns:xlink="http://www.w3.org/1999/xlink"><title>OSGeo logotype</title><metadata><rdf:RDF><cc:Work rdf:about=""><dc:format>image/svg+xml</dc:format><dc:type rdf:resource="http://purl.org/dc/dcmitype/StillImage"/><dc:title>OSGeo logotype</dc:title><dc:date>June 2017</dc:date><dc:creator><cc:Agent><dc:title>Pim Tebbens</dc:title></cc:Agent></dc:creator><dc:rights><cc:Agent><dc:title>Copyright OSGeo Foundation</dc:title></cc:Agent></dc:rights><dc:publisher><cc:Agent><dc:title>OSGeo Foundation</dc:title></cc:Agent></dc:publisher><dc:subject><rdf:Bag><rdf:li>OSGeo</rdf:li><rdf:li>logo</rdf:li><rdf:li>logotype</rdf:li></rdf:Bag></dc:subject><dc:description>OSGeo Foundation official logotype</dc:description><dc:contributor><cc:Agent><dc:title>OSGeo Marketing Committee</dc:title></cc:Agent></dc:contributor><cc:license rdf:resource="http://creativecommons.org/licenses/by-nd/4.0/"/></cc:Work><cc:License rdf:about="http://creativecommons.org/licenses/by-nd/4.0/"><cc:permits rdf:resource="http://creativecommons.org/ns#Reproduction"/><cc:permits rdf:resource="http://creativecommons.org/ns#Distribution"/><cc:requires rdf:resource="http://creativecommons.org/ns#Notice"/><cc:requires rdf:resource="http://creativecommons.org/ns#Attribution"/></cc:License></rdf:RDF></metadata><style type="text/css">.st0{clip-path:url(#SVGID_2_);fill:#4DB05B;}.st1{clip-path:url(#SVGID_2_);fill:#003A40;}</style><defs><rect id="SVGID_1_" width="552.1" height="180.1"/></defs><clipPath id="SVGID_2_"><use xlink:href="#SVGID_1_"/></clipPath><path class="st0" d="m218.7 131.7c-5-2.9-9-6.9-11.9-11.9s-4.4-10.5-4.4-16.5v-26.5c0-6 1.5-11.5 4.4-16.5s6.9-9 11.9-11.9 10.5-4.4 16.4-4.4 11.4 1.5 16.4 4.4 9 6.9 11.9 11.9 4.4 10.5 4.4 16.5v26.5c0 6-1.5 11.5-4.4 16.5s-6.9 9-11.9 11.9-10.5 4.4-16.4 4.4-11.4-1.5-16.4-4.4m25.2-12.6c2.7-1.7 4.9-3.9 6.5-6.7s2.4-5.8 2.4-9.1v-26.5c0-3.2-.8-6.3-2.4-9.1s-3.8-5.1-6.5-6.7c-2.7-1.7-5.6-2.5-8.8-2.5-3.1 0-6.1.8-8.8 2.5s-4.9 3.9-6.5 6.7-2.4 5.8-2.4 9.1v26.5c0 3.2.8 6.3 2.4 9.1s3.8 5.1 6.5 6.7c2.7 1.7 5.6 2.5 8.8 2.5 3.1-.1 6.1-.9 8.8-2.5" clip-path="url(#SVGID_2_)"/><path class="st0" d="m291.8 133.8c-4.3-1.4-8.3-3.5-12-6-.4-.2-.7-.7-.9-1.3s-.1-1.2.1-1.7l4.3-7.8c.5-1 1.3-1.5 2.3-1.5.7 0 1.3.2 1.9.5 6.2 3.9 11.9 5.8 17.3 5.8 4.4 0 7.8-1.1 10.3-3.2s3.8-4.9 3.8-8.3c0-2.2-.6-4.1-1.9-5.7-1.2-1.5-2.9-2.8-4.9-3.9-2.1-1.1-5.1-2.4-9-4l-3.6-1.5c-5.6-2.4-10.3-5.5-14.1-9.2s-5.8-9.2-5.8-16.4c0-5.1 1.1-9.5 3.4-13.4s5.4-6.9 9.5-9.1c4-2.2 8.7-3.2 14-3.2 4.4 0 8.7.7 13 2.2s8.2 3.5 11.7 6c.4.2.7.7.9 1.3s.1 1.2-.1 1.7l-4.1 7.8c-.5 1-1.3 1.5-2.4 1.5-.7 0-1.3-.2-1.9-.5-3.2-2.1-6.3-3.6-9.2-4.5s-5.5-1.4-7.8-1.4c-3.7 0-6.6 1-8.8 3-2.1 2-3.2 4.6-3.2 7.8s1.2 5.9 3.5 8c2.4 2.1 6.1 4.2 11.3 6.4.7.2 3.6 1.4 8.5 3.4s8.8 5 11.7 8.9 4.3 8.5 4.3 13.8c0 5.1-1.2 9.7-3.6 13.7s-5.8 7.1-10.2 9.4-9.4 3.4-15.1 3.4c-4.5.2-8.9-.6-13.2-2" clip-path="url(#SVGID_2_)"/><path class="st1" d="m361.8 131.7c-5-2.9-8.9-6.9-11.9-11.9-2.9-5-4.4-10.5-4.4-16.5v-26.5c0-6 1.5-11.5 4.4-16.5s6.9-9 11.9-11.9 10.4-4.4 16.4-4.4c5.2 0 10 .9 14.5 2.8 4.4 1.9 8.2 4.6 11.4 8.1.5.6.7 1.3.7 2.1s-.3 1.7-1 2.5l-5.4 5.7c-.7.7-1.3 1-2 1-.8 0-1.6-.4-2.2-1.1-4.1-4.4-9.4-6.6-15.8-6.6-3.1 0-6.1.8-8.8 2.5s-4.9 3.9-6.5 6.7-2.4 5.8-2.4 9.1v26.5c0 3.2.8 6.3 2.4 9.1s3.8 5.1 6.5 6.7c2.7 1.7 5.6 2.5 8.8 2.5 3.1 0 6.1-.8 8.8-2.4s4.9-3.7 6.4-6.5c1.6-2.7 2.3-5.7 2.3-8.9v-6.1h-16.6c-.7 0-1.4-.2-1.9-.7s-.7-1.1-.7-1.9v-8.9c0-.7.2-1.4.7-1.9s1.1-.7 1.9-.7h26.1c1.5 0 2.7.5 3.8 1.5 1 1 1.5 2.3 1.5 3.8v14.4c0 6-1.5 11.5-4.4 16.5s-6.9 9-11.9 11.9-10.4 4.4-16.2 4.4c-6 0-11.4-1.5-16.4-4.4" clip-path="url(#SVGID_2_)"/><path class="st1" d="m438 130.5c-4.5-2.6-8.1-6.3-10.7-10.8s-4-9.5-4-14.9v-13.4c0-5.4 1.3-10.4 4-14.9 2.6-4.5 6.2-8.2 10.7-10.8s9.4-4 14.8-4 10.3 1.3 14.8 4c4.5 2.6 8.1 6.3 10.7 10.8 2.6 4.6 4 9.5 4 14.9v8.3c0 1.5-.5 2.7-1.5 3.8-1 1-2.3 1.5-3.8 1.5h-38.7v.6c0 4.1 1.4 7.5 4.3 10.4s6.3 4.3 10.3 4.3h19.6c.7 0 1.4.3 1.9.8s.7 1.1.7 1.9v9c0 .7-.2 1.4-.7 1.9s-1.1.7-1.9.7h-19.6c-5.5-.1-10.5-1.5-14.9-4.1m29.3-38.9v-1.1c0-4.1-1.4-7.5-4.3-10.4-2.8-2.9-6.3-4.3-10.3-4.3s-7.5 1.4-10.3 4.3-4.3 6.3-4.3 10.4v1.1h29.2z" clip-path="url(#SVGID_2_)"/><path class="st1" d="m508 132.2c-4.5-2.6-8.1-6.1-10.7-10.6s-3.9-9.3-3.9-14.5v-16.4c0-5.2 1.3-10.1 3.9-14.5 2.6-4.5 6.2-8 10.7-10.6s9.4-3.9 14.8-3.9 10.3 1.3 14.8 3.9 8.1 6.2 10.7 10.6c2.6 4.5 4 9.3 4 14.5v16.3c0 5.2-1.3 10.1-4 14.5-2.6 4.5-6.2 8-10.7 10.6s-9.4 3.9-14.8 3.9c-5.4.1-10.4-1.2-14.8-3.8m25-14.8c2.8-2.9 4.3-6.3 4.3-10.4v-16.3c0-4.1-1.4-7.5-4.3-10.4-2.8-2.9-6.3-4.3-10.3-4.3s-7.5 1.4-10.3 4.3-4.3 6.3-4.3 10.4v16.3c0 4.1 1.4 7.5 4.3 10.4 2.8 2.9 6.3 4.3 10.3 4.3 4.1 0 7.5-1.5 10.3-4.3" clip-path="url(#SVGID_2_)"/><path class="st0" d="m85.5 36.2v-36.2l-11.3 19.8c-30.8 6.9-54.1 33.4-56.1 65.8h18.1c2.2-26.3 23.1-47.2 49.3-49.4" clip-path="url(#SVGID_2_)"/><path class="st1" d="m36.2 94.6h-36.2l19.8 11.3c6.9 30.8 33.4 54.1 65.8 56.1v-18.1c-26.3-2.2-47.2-23.1-49.4-49.3" clip-path="url(#SVGID_2_)"/><path class="st1" d="m143.9 85.5h36.3l-19.8-11.3c-6.9-30.8-33.4-54.1-65.8-56.1v18.1c26.2 2.2 47.1 23.1 49.3 49.3" clip-path="url(#SVGID_2_)"/><path class="st0" d="m94.6 143.9v36.3l11.3-19.8c30.8-6.9 54.1-33.4 56.1-65.8h-18.1c-2.2 26.2-23.1 47.1-49.3 49.3" clip-path="url(#SVGID_2_)"/><path class="st1" d="m95.6 84.5l-33.4-22.3 22.3 33.4 33.4 22.3-22.3-33.4zm-5.6 9.4c-2.2 0-3.9-1.8-3.9-3.9 0-2.2 1.8-3.9 3.9-3.9s3.9 1.8 3.9 3.9-1.7 3.9-3.9 3.9" clip-path="url(#SVGID_2_)"/><polygon class="st0" points="84.5 95.6 77 84.4 42.8 90.1 77 95.7 62.2 117.9 84.3 103.1 90 137.3 95.7 103.1" clip-path="url(#SVGID_2_)"/><polygon class="st0" points="103.1 84.4 117.9 62.2 95.7 77 90 42.8 84.4 77 95.6 84.5 103.1 95.7 137.3 90" clip-path="url(#SVGID_2_)"/></svg>
