<?xml version="1.0" encoding="UTF-8" standalone="no"?>
<svg
     xmlns:dc="http://purl.org/dc/elements/1.1/"
     xmlns:cc="http://creativecommons.org/ns#"
     xmlns:rdf="http://www.w3.org/1999/02/22-rdf-syntax-ns#"
     xmlns:svg="http://www.w3.org/2000/svg"
     xmlns="http://www.w3.org/2000/svg"
     xmlns:sodipodi="http://sodipodi.sourceforge.net/DTD/sodipodi-0.dtd"
     xmlns:inkscape="http://www.inkscape.org/namespaces/inkscape"
     width="128.3px"
     height="128.3px"
     enable-background="new 0 0 128.3 128.3"
     version="1.1"
     viewBox="0 0 128.3 128.3"
     xml:space="preserve"
     id="svg22"
     sodipodi:docname="osgeo-emblem-inkscape.svg"
     inkscape:version="0.92.2 5c3e80d, 2017-08-06"><defs
         id="defs26" /><sodipodi:namedview
         pagecolor="#ffffff"
         bordercolor="#666666"
         borderopacity="1"
         objecttolerance="10"
         gridtolerance="10"
         guidetolerance="10"
         inkscape:pageopacity="0"
         inkscape:pageshadow="2"
         inkscape:window-width="640"
         inkscape:window-height="480"
         id="namedview24"
         showgrid="false"
         inkscape:zoom="1.8394388"
         inkscape:cx="64.150002"
         inkscape:cy="64.150002"
         inkscape:window-x="0"
         inkscape:window-y="0"
         inkscape:window-maximized="0"
         inkscape:current-layer="svg22" /><title
         id="title2">OSGeo Foundation logomark</title><metadata
         id="metadata4"><rdf:RDF><cc:Work
                 rdf:about=""><dc:format>image/svg+xml</dc:format><dc:type
                     rdf:resource="http://purl.org/dc/dcmitype/StillImage" /><dc:title>OSGeo Foundation logomark</dc:title><dc:date>June 2017</dc:date><dc:creator><cc:Agent><dc:title>Pim Tebbens</dc:title></cc:Agent></dc:creator><dc:rights><cc:Agent><dc:title>Copyright OSGeo Foundation</dc:title></cc:Agent></dc:rights><dc:publisher><cc:Agent><dc:title>OSGeo Foundation</dc:title></cc:Agent></dc:publisher><dc:subject><rdf:Bag><rdf:li>OSGeo</rdf:li><rdf:li>logo</rdf:li><rdf:li>logomark</rdf:li><rdf:li>compass</rdf:li><rdf:li>emblem</rdf:li></rdf:Bag></dc:subject><dc:description>OSGeo Foundation official logomark</dc:description><dc:contributor><cc:Agent><dc:title>OSGeo Foundation Marketing Committee</dc:title></cc:Agent></dc:contributor><cc:license
                     rdf:resource="http://creativecommons.org/licenses/by-nd/4.0/" /></cc:Work><cc:License
                 rdf:about="http://creativecommons.org/licenses/by-nd/4.0/"><cc:permits
                     rdf:resource="http://creativecommons.org/ns#Reproduction" /><cc:permits
                     rdf:resource="http://creativecommons.org/ns#Distribution" /><cc:requires
                     rdf:resource="http://creativecommons.org/ns#Notice" /><cc:requires
                     rdf:resource="http://creativecommons.org/ns#Attribution" /></cc:License></rdf:RDF></metadata><g
         transform="translate(3,3)"
         id="g20"><path
             d="m58.1 24.6v-24.6l-7.7 13.4c-20.9 4.7-36.7 22.7-38.1 44.7h12.3c1.5-17.8 15.7-32 33.5-33.5"
             fill="#4DAF5C"
             id="path6" /><path
             d="m24.6 64.201h-24.6l13.4 7.699c4.7 20.9 22.7 36.7 44.7 38.1v-12.2c-17.8-1.5-32-15.7-33.5-33.599"
             fill="#023B41"
             id="path8" /><path
             d="m97.8 58.1h24.5l-13.4-7.7c-4.699-20.9-22.699-36.7-44.699-38.1v12.3c17.899 1.5 32.099 15.7 33.599 33.5"
             fill="#023B41"
             id="path10" /><path
             d="m64.201 97.8v24.5l7.699-13.4c20.9-4.699 36.7-22.699 38.1-44.699h-12.2c-1.5 17.899-15.7 32.099-33.599 33.599"
             fill="#4DAF5C"
             id="path12" /><path
             d="m65 57.4l-22.7-15.1 15.1 22.7 22.7 15.1-15.1-22.7zm-3.9 6.4c-1.5 0-2.7-1.2-2.7-2.7s1.2-2.7 2.7-2.7 2.7 1.2 2.7 2.7-1.2 2.7-2.7 2.7"
             fill="#023B41"
             id="path14" /><polygon
             points="42.3 80.1 57.3 70.1 61.2 93.3 65.1 70.1 57.4 65 52.3 57.3 29.1 61.2 52.3 65.1"
             fill="#4DAF5C"
             id="polygon16" /><polygon
             points="57.3 52.3 65 57.4 70.1 65.1 93.3 61.2 70.1 57.3 80.1 42.3 65.1 52.3 61.2 29.1"
             fill="#4DAF5C"
             id="polygon18" /></g></svg>