<?xml version="1.0" encoding="utf-8"?>
<!-- Generator: Adobe Illustrator 21.1.0, SVG Export Plug-In . SVG Version: 6.00 Build 0)  -->
<svg version="1.1" id="Layer_1" xmlns="http://www.w3.org/2000/svg" xmlns:xlink="http://www.w3.org/1999/xlink" x="0px" y="0px"
	 viewBox="0 0 552.1 193.5" style="enable-background:new 0 0 552.1 193.5;" xml:space="preserve">
<style type="text/css">
	.st0{fill:#0B3A42;}
	.st1{fill:#4DB05B;}
	.st2{fill:#003A40;}
</style>
<g>
	<g>
		<path class="st0" d="M203,192.9c-0.4-0.4-0.6-0.9-0.6-1.5V154c0-0.2,0.1-0.4,0.2-0.6c0.2-0.2,0.3-0.2,0.6-0.2h3.1
			c0.2,0,0.4,0.1,0.6,0.2c0.2,0.2,0.2,0.3,0.2,0.6v35h14.7c0.2,0,0.4,0.1,0.6,0.2c0.2,0.2,0.2,0.3,0.2,0.6v2.8
			c0,0.2-0.1,0.4-0.2,0.6c-0.2,0.2-0.3,0.2-0.6,0.2h-17.3C203.8,193.5,203.4,193.3,203,192.9z"/>
		<path class="st0" d="M232.6,192.9c-0.4-0.4-0.6-0.9-0.6-1.5v-26.4h-6c-0.2,0-0.4-0.1-0.6-0.2c-0.2-0.2-0.2-0.3-0.2-0.6v-2.7
			c0-0.2,0.1-0.4,0.2-0.6c0.2-0.2,0.3-0.2,0.6-0.2h8.5c0.6,0,1.1,0.2,1.5,0.6c0.4,0.4,0.6,0.9,0.6,1.5v26.4h6c0.2,0,0.4,0.1,0.6,0.2
			c0.2,0.2,0.2,0.3,0.2,0.6v2.7c0,0.2-0.1,0.4-0.2,0.6c-0.2,0.2-0.3,0.2-0.6,0.2h-8.4C233.5,193.5,233.1,193.3,232.6,192.9z
			 M232.3,155.9c-0.2-0.2-0.2-0.3-0.2-0.6v-5c0-0.2,0.1-0.4,0.2-0.6c0.2-0.2,0.3-0.2,0.6-0.2h2.8c0.2,0,0.4,0.1,0.6,0.2
			c0.2,0.2,0.2,0.3,0.2,0.6v5c0,0.2-0.1,0.4-0.2,0.6c-0.2,0.2-0.3,0.2-0.6,0.2h-2.8C232.7,156.1,232.5,156,232.3,155.9z"/>
		<path class="st0" d="M257.1,193.3c-0.2-0.1-0.4-0.3-0.4-0.6l-10.9-30.8c0-0.1-0.1-0.2-0.1-0.4c0-0.2,0.1-0.4,0.3-0.6
			c0.2-0.2,0.4-0.3,0.7-0.3h2.7c0.2,0,0.5,0.1,0.7,0.2c0.2,0.1,0.4,0.3,0.4,0.6l9.2,26.4l9-26.4c0.1-0.2,0.2-0.4,0.4-0.6
			c0.2-0.1,0.4-0.2,0.7-0.2h2.6c0.3,0,0.6,0.1,0.8,0.4c0.2,0.3,0.2,0.6,0.1,0.9l-10.9,30.8c-0.1,0.2-0.2,0.4-0.4,0.6
			c-0.2,0.1-0.4,0.2-0.7,0.2h-3.3C257.5,193.5,257.3,193.4,257.1,193.3z"/>
		<path class="st0" d="M284.3,191.8c-1.9-1.1-3.5-2.7-4.6-4.6c-1.1-2-1.7-4.1-1.7-6.4v-8.3c0-2.3,0.6-4.4,1.7-6.4
			c1.1-2,2.6-3.5,4.6-4.6c1.9-1.1,4-1.7,6.3-1.7c2.3,0,4.4,0.6,6.3,1.7c1.9,1.1,3.5,2.7,4.6,4.6c1.1,2,1.7,4.1,1.7,6.4v3.9
			c0,0.6-0.2,1.1-0.6,1.5c-0.4,0.4-0.9,0.6-1.5,0.6h-18.6v2.6c0,1.5,0.4,2.8,1.1,4.1c0.7,1.2,1.7,2.2,2.9,2.9
			c1.2,0.7,2.6,1.1,4.1,1.1h8.4c0.2,0,0.4,0.1,0.6,0.2s0.2,0.3,0.2,0.6v2.7c0,0.2-0.1,0.4-0.2,0.6c-0.2,0.2-0.3,0.2-0.6,0.2h-8.4
			C288.3,193.5,286.2,192.9,284.3,191.8z M298.7,174.4v-2.1c0-1.5-0.4-2.8-1.1-4.1c-0.7-1.2-1.7-2.2-2.9-2.9
			c-1.2-0.7-2.6-1.1-4.1-1.1c-1.5,0-2.8,0.4-4.1,1.1c-1.2,0.7-2.2,1.7-2.9,2.9c-0.7,1.2-1.1,2.6-1.1,4.1v2.1H298.7z"/>
	</g>
	<g>
		<path class="st1" d="M218.7,131.7c-5-2.9-9-6.9-11.9-11.9c-2.9-5-4.4-10.5-4.4-16.5V76.8c0-6,1.5-11.5,4.4-16.5
			c2.9-5,6.9-9,11.9-11.9c5-2.9,10.5-4.4,16.4-4.4c5.9,0,11.4,1.5,16.4,4.4c5,2.9,9,6.9,11.9,11.9c2.9,5,4.4,10.5,4.4,16.5v26.5
			c0,6-1.5,11.5-4.4,16.5c-2.9,5-6.9,9-11.9,11.9c-5,2.9-10.5,4.4-16.4,4.4C229.2,136.1,223.7,134.6,218.7,131.7 M243.9,119.1
			c2.7-1.7,4.9-3.9,6.5-6.7c1.6-2.8,2.4-5.8,2.4-9.1V76.8c0-3.2-0.8-6.3-2.4-9.1c-1.6-2.8-3.8-5.1-6.5-6.7c-2.7-1.7-5.6-2.5-8.8-2.5
			c-3.1,0-6.1,0.8-8.8,2.5c-2.7,1.7-4.9,3.9-6.5,6.7c-1.6,2.8-2.4,5.8-2.4,9.1v26.5c0,3.2,0.8,6.3,2.4,9.1c1.6,2.8,3.8,5.1,6.5,6.7
			c2.7,1.7,5.6,2.5,8.8,2.5C238.2,121.5,241.2,120.7,243.9,119.1"/>
		<path class="st1" d="M291.8,133.8c-4.3-1.4-8.3-3.5-12-6c-0.4-0.2-0.7-0.7-0.9-1.3c-0.2-0.6-0.1-1.2,0.1-1.7l4.3-7.8
			c0.5-1,1.3-1.5,2.3-1.5c0.7,0,1.3,0.2,1.9,0.5c6.2,3.9,11.9,5.8,17.3,5.8c4.4,0,7.8-1.1,10.3-3.2c2.5-2.1,3.8-4.9,3.8-8.3
			c0-2.2-0.6-4.1-1.9-5.7c-1.2-1.5-2.9-2.8-4.9-3.9c-2.1-1.1-5.1-2.4-9-4l-3.6-1.5c-5.6-2.4-10.3-5.5-14.1-9.2
			c-3.8-3.7-5.8-9.2-5.8-16.4c0-5.1,1.1-9.5,3.4-13.4c2.3-3.9,5.4-6.9,9.5-9.1c4-2.2,8.7-3.2,14-3.2c4.4,0,8.7,0.7,13,2.2
			c4.3,1.5,8.2,3.5,11.7,6c0.4,0.2,0.7,0.7,0.9,1.3c0.2,0.6,0.1,1.2-0.1,1.7l-4.1,7.8c-0.5,1-1.3,1.5-2.4,1.5
			c-0.7,0-1.3-0.2-1.9-0.5c-3.2-2.1-6.3-3.6-9.2-4.5c-2.9-0.9-5.5-1.4-7.8-1.4c-3.7,0-6.6,1-8.8,3c-2.1,2-3.2,4.6-3.2,7.8
			c0,3.2,1.2,5.9,3.5,8c2.4,2.1,6.1,4.2,11.3,6.4c0.7,0.2,3.6,1.4,8.5,3.4c4.9,2,8.8,5,11.7,8.9c2.9,3.9,4.3,8.5,4.3,13.8
			c0,5.1-1.2,9.7-3.6,13.7c-2.4,4-5.8,7.1-10.2,9.4s-9.4,3.4-15.1,3.4C300.5,135.9,296.1,135.2,291.8,133.8"/>
		<path class="st2" d="M361.8,131.7c-5-2.9-8.9-6.9-11.9-11.9c-2.9-5-4.4-10.5-4.4-16.5V76.8c0-6,1.5-11.5,4.4-16.5
			c2.9-5,6.9-9,11.9-11.9c5-2.9,10.4-4.4,16.4-4.4c5.2,0,10,0.9,14.5,2.8c4.4,1.9,8.2,4.6,11.4,8.1c0.5,0.6,0.7,1.3,0.7,2.1
			c0,0.8-0.3,1.7-1,2.5l-5.4,5.7c-0.7,0.7-1.3,1-2,1c-0.8,0-1.6-0.4-2.2-1.1c-4.1-4.4-9.4-6.6-15.8-6.6c-3.1,0-6.1,0.8-8.8,2.5
			c-2.7,1.7-4.9,3.9-6.5,6.7c-1.6,2.8-2.4,5.8-2.4,9.1v26.5c0,3.2,0.8,6.3,2.4,9.1c1.6,2.8,3.8,5.1,6.5,6.7c2.7,1.7,5.6,2.5,8.8,2.5
			c3.1,0,6.1-0.8,8.8-2.4c2.7-1.6,4.9-3.7,6.4-6.5c1.6-2.7,2.3-5.7,2.3-8.9v-6.1h-16.6c-0.7,0-1.4-0.2-1.9-0.7
			c-0.5-0.5-0.7-1.1-0.7-1.9v-8.9c0-0.7,0.2-1.4,0.7-1.9c0.5-0.5,1.1-0.7,1.9-0.7h26.1c1.5,0,2.7,0.5,3.8,1.5c1,1,1.5,2.3,1.5,3.8
			v14.4c0,6-1.5,11.5-4.4,16.5c-2.9,5-6.9,9-11.9,11.9c-5,2.9-10.4,4.4-16.2,4.4C372.2,136.1,366.8,134.6,361.8,131.7"/>
		<path class="st2" d="M438,130.5c-4.5-2.6-8.1-6.3-10.7-10.8c-2.6-4.5-4-9.5-4-14.9V91.4c0-5.4,1.3-10.4,4-14.9
			c2.6-4.5,6.2-8.2,10.7-10.8c4.5-2.6,9.4-4,14.8-4c5.4,0,10.3,1.3,14.8,4c4.5,2.6,8.1,6.3,10.7,10.8c2.6,4.6,4,9.5,4,14.9v8.3
			c0,1.5-0.5,2.7-1.5,3.8c-1,1-2.3,1.5-3.8,1.5h-38.7v0.6c0,4.1,1.4,7.5,4.3,10.4s6.3,4.3,10.3,4.3h19.6c0.7,0,1.4,0.3,1.9,0.8
			c0.5,0.5,0.7,1.1,0.7,1.9v9c0,0.7-0.2,1.4-0.7,1.9c-0.5,0.5-1.1,0.7-1.9,0.7h-19.6C447.4,134.5,442.4,133.1,438,130.5 M467.3,91.6
			v-1.1c0-4.1-1.4-7.5-4.3-10.4c-2.8-2.9-6.3-4.3-10.3-4.3c-4,0-7.5,1.4-10.3,4.3c-2.8,2.9-4.3,6.3-4.3,10.4v1.1H467.3z"/>
		<path class="st2" d="M508,132.2c-4.5-2.6-8.1-6.1-10.7-10.6c-2.6-4.5-3.9-9.3-3.9-14.5V90.7c0-5.2,1.3-10.1,3.9-14.5
			c2.6-4.5,6.2-8,10.7-10.6c4.5-2.6,9.4-3.9,14.8-3.9c5.4,0,10.3,1.3,14.8,3.9c4.5,2.6,8.1,6.2,10.7,10.6c2.6,4.5,4,9.3,4,14.5V107
			c0,5.2-1.3,10.1-4,14.5c-2.6,4.5-6.2,8-10.7,10.6c-4.5,2.6-9.4,3.9-14.8,3.9C517.4,136.1,512.4,134.8,508,132.2 M533,117.4
			c2.8-2.9,4.3-6.3,4.3-10.4V90.7c0-4.1-1.4-7.5-4.3-10.4c-2.8-2.9-6.3-4.3-10.3-4.3c-4,0-7.5,1.4-10.3,4.3
			c-2.8,2.9-4.3,6.3-4.3,10.4V107c0,4.1,1.4,7.5,4.3,10.4c2.8,2.9,6.3,4.3,10.3,4.3C526.8,121.7,530.2,120.2,533,117.4"/>
		<path class="st1" d="M85.5,36.2V18.2V0L74.2,19.8c-30.8,6.9-54.1,33.4-56.1,65.8h18.1C38.4,59.3,59.3,38.4,85.5,36.2"/>
		<path class="st2" d="M36.2,94.5H18.2H0l19.8,11.3c6.9,30.8,33.4,54.1,65.8,56.1v-18.1C59.3,141.7,38.4,120.8,36.2,94.5"/>
		<path class="st2" d="M143.9,85.5h18.1h18.2l-19.8-11.3c-6.9-30.8-33.4-54.1-65.8-56.1v18.1C120.8,38.4,141.7,59.3,143.9,85.5"/>
		<path class="st1" d="M94.6,143.9v18.1v18.2l11.3-19.8c30.8-6.9,54.1-33.4,56.1-65.8h-18.1C141.7,120.8,120.8,141.7,94.6,143.9"/>
		<path class="st2" d="M95.6,84.5L62.2,62.2l22.3,33.4l33.4,22.3L95.6,84.5z M90,93.9c-2.2,0-3.9-1.8-3.9-3.9c0-2.2,1.8-3.9,3.9-3.9
			s3.9,1.8,3.9,3.9C93.9,92.1,92.2,93.9,90,93.9"/>
		<polygon class="st1" points="84.5,95.6 77,84.3 42.8,90 77,95.7 62.2,117.9 84.3,103.1 90,137.3 95.7,103.1 		"/>
		<polygon class="st1" points="103.1,84.3 117.9,62.2 95.7,77 90,42.8 84.4,77 95.6,84.5 103.1,95.7 137.3,90 		"/>
	</g>
</g>
</svg>
