<?xml version="1.0" encoding="utf-8"?>
<!-- Generator: Adobe Illustrator 21.1.0, SVG Export Plug-In . SVG Version: 6.00 Build 0)  -->
<svg version="1.1" id="Layer_1" xmlns="http://www.w3.org/2000/svg" xmlns:xlink="http://www.w3.org/1999/xlink" x="0px" y="0px"
	 viewBox="0 0 552.1 211.4" style="enable-background:new 0 0 552.1 211.4;" xml:space="preserve">
<style type="text/css">
	.st0{enable-background:new    ;}
	.st1{fill:#0B3A42;}
	.st2{fill:#4DB05B;}
	.st3{fill:#003A40;}
</style>
<g class="st0">
	<path class="st1" d="M202.9,193.2c-0.2-0.2-0.2-0.3-0.2-0.6v-37.4c0-0.6,0.2-1.1,0.6-1.5c0.4-0.4,0.9-0.6,1.5-0.6h9.7
		c2.3,0,4.4,0.6,6.4,1.7c1.9,1.1,3.5,2.6,4.6,4.5c1.1,1.9,1.7,4,1.7,6.3c0,2.3-0.6,4.4-1.7,6.3c-1.1,1.9-2.6,3.4-4.6,4.5
		c-1.9,1.1-4.1,1.7-6.4,1.7h-7.1v14.6c0,0.2-0.1,0.4-0.2,0.6c-0.2,0.2-0.3,0.2-0.6,0.2h-3.1C203.2,193.5,203,193.4,202.9,193.2z
		 M214.2,173.6c1.5,0,2.8-0.4,4.1-1.1c1.2-0.7,2.2-1.7,2.9-2.9c0.7-1.2,1.1-2.6,1.1-4s-0.4-2.8-1.1-4c-0.7-1.2-1.7-2.2-2.9-2.9
		c-1.2-0.7-2.6-1.1-4.1-1.1h-6.8v16H214.2z"/>
	<path class="st1" d="M233.4,193.2c-0.2-0.2-0.2-0.3-0.2-0.6V190c0-0.2,0.1-0.4,0.2-0.6c0.2-0.2,0.3-0.2,0.6-0.2h4.8v-24.4H234
		c-0.2,0-0.4-0.1-0.6-0.2c-0.2-0.2-0.2-0.3-0.2-0.6v-2.5c0-0.2,0.1-0.4,0.2-0.6c0.2-0.2,0.3-0.2,0.6-0.2h7.2c0.6,0,1.1,0.2,1.5,0.6
		c0.4,0.4,0.6,0.9,0.6,1.5v2.9l3.4-2.6c1.4-1.1,2.5-1.8,3.4-2.2c0.9-0.4,1.8-0.6,2.8-0.6h1.7c0.3,0,0.5,0.1,0.6,0.2
		c0.1,0.2,0.2,0.3,0.2,0.6v2.8c0,0.2-0.1,0.4-0.2,0.6c-0.2,0.2-0.3,0.2-0.6,0.2h-1.3c-1,0-1.9,0.2-2.7,0.6c-0.9,0.4-2.1,1.3-3.8,2.6
		l-3.4,2.7v18.4h6.7c0.2,0,0.4,0.1,0.6,0.2c0.2,0.2,0.2,0.3,0.2,0.6v2.7c0,0.2-0.1,0.4-0.2,0.6c-0.2,0.2-0.3,0.2-0.6,0.2H234
		C233.8,193.5,233.6,193.4,233.4,193.2z"/>
	<path class="st1" d="M266.3,192.5c-1.9-1.1-3.5-2.7-4.6-4.6c-1.1-2-1.7-4.1-1.7-6.4v-9c0-2.3,0.6-4.4,1.7-6.4
		c1.1-2,2.6-3.5,4.6-4.6c1.9-1.1,4-1.7,6.3-1.7c2.3,0,4.4,0.6,6.3,1.7c1.9,1.1,3.5,2.7,4.6,4.6c1.1,2,1.7,4.1,1.7,6.4v9
		c0,2.3-0.6,4.4-1.7,6.4c-1.1,2-2.6,3.5-4.6,4.6s-4,1.7-6.3,1.7C270.3,194.2,268.2,193.7,266.3,192.5z M276.7,188.9
		c1.2-0.7,2.2-1.7,2.9-2.9c0.7-1.2,1.1-2.6,1.1-4.1v-9.6c0-1.5-0.4-2.8-1.1-4.1c-0.7-1.2-1.7-2.2-2.9-2.9c-1.2-0.7-2.6-1.1-4.1-1.1
		c-1.5,0-2.8,0.4-4.1,1.1c-1.2,0.7-2.2,1.7-2.9,2.9c-0.7,1.2-1.1,2.6-1.1,4.1v9.6c0,1.5,0.4,2.8,1.1,4.1c0.7,1.2,1.7,2.2,2.9,2.9
		c1.2,0.7,2.6,1.1,4.1,1.1C274.1,189.9,275.5,189.6,276.7,188.9z"/>
	<path class="st1" d="M291.2,204.4c-0.2-0.2-0.2-0.3-0.2-0.6v-2.6c0-0.2,0.1-0.4,0.2-0.6c0.2-0.2,0.3-0.2,0.6-0.2h3.4
		c1.3,0,2.4-0.4,3.2-1.2c0.8-0.8,1.2-1.9,1.2-3.3v-31h-7.7c-0.2,0-0.4-0.1-0.6-0.2c-0.2-0.2-0.2-0.3-0.2-0.6v-2.7
		c0-0.2,0.1-0.4,0.2-0.6c0.2-0.2,0.3-0.2,0.6-0.2H302c0.6,0,1.1,0.2,1.5,0.6c0.4,0.4,0.6,0.9,0.6,1.5V196c0,2.4-0.8,4.5-2.3,6.2
		c-1.5,1.7-3.5,2.5-6.1,2.5h-3.9C291.6,204.7,291.4,204.6,291.2,204.4z M299.8,154.7c-0.2-0.2-0.2-0.3-0.2-0.6v-5
		c0-0.2,0.1-0.4,0.2-0.6c0.2-0.2,0.3-0.2,0.6-0.2h2.8c0.2,0,0.4,0.1,0.6,0.2c0.2,0.2,0.2,0.3,0.2,0.6v5c0,0.2-0.1,0.4-0.2,0.6
		c-0.2,0.2-0.3,0.2-0.6,0.2h-2.8C300.2,155,300,154.9,299.8,154.7z"/>
	<path class="st1" d="M319.6,191.8c-1.9-1.1-3.5-2.7-4.6-4.6c-1.1-2-1.7-4.1-1.7-6.4v-8.3c0-2.3,0.6-4.4,1.7-6.4
		c1.1-2,2.6-3.5,4.6-4.6c1.9-1.1,4-1.7,6.3-1.7c2.3,0,4.4,0.6,6.3,1.7c1.9,1.1,3.5,2.7,4.6,4.6c1.1,2,1.7,4.1,1.7,6.4v3.9
		c0,0.6-0.2,1.1-0.6,1.5c-0.4,0.4-0.9,0.6-1.5,0.6h-18.6v2.6c0,1.5,0.4,2.8,1.1,4.1c0.7,1.2,1.7,2.2,2.9,2.9
		c1.2,0.7,2.6,1.1,4.1,1.1h8.4c0.2,0,0.4,0.1,0.6,0.2c0.2,0.2,0.2,0.3,0.2,0.6v2.7c0,0.2-0.1,0.4-0.2,0.6c-0.2,0.2-0.3,0.2-0.6,0.2
		h-8.4C323.6,193.5,321.5,192.9,319.6,191.8z M334,174.4v-2.1c0-1.5-0.4-2.8-1.1-4.1c-0.7-1.2-1.7-2.2-2.9-2.9
		c-1.2-0.7-2.6-1.1-4.1-1.1s-2.8,0.4-4.1,1.1c-1.2,0.7-2.2,1.7-2.9,2.9c-0.7,1.2-1.1,2.6-1.1,4.1v2.1H334z"/>
	<path class="st1" d="M351.9,192.5c-1.9-1.1-3.5-2.7-4.6-4.6c-1.1-2-1.7-4.1-1.7-6.4v-9c0-2.3,0.6-4.4,1.7-6.4
		c1.1-2,2.6-3.5,4.6-4.6c1.9-1.1,4-1.7,6.3-1.7c1.7,0,3.2,0.3,4.7,0.9c1.5,0.6,2.8,1.5,3.9,2.6c0.2,0.2,0.3,0.5,0.3,0.8
		c0,0.3-0.1,0.6-0.3,0.9c-0.4,0.4-0.8,0.9-1.3,1.3c-0.3,0.2-0.6,0.3-0.9,0.3c-0.3,0-0.7-0.1-0.9-0.4c-1.5-1.4-3.4-2.1-5.5-2.1
		c-1.5,0-2.8,0.4-4.1,1.1c-1.2,0.7-2.2,1.7-2.9,2.9c-0.7,1.2-1.1,2.6-1.1,4.1v9.6c0,1.5,0.4,2.8,1.1,4.1c0.7,1.2,1.7,2.2,2.9,2.9
		c1.2,0.7,2.6,1.1,4.1,1.1c2.1,0,4-0.7,5.5-2.1c0.3-0.3,0.6-0.4,0.9-0.4c0.3,0,0.6,0.1,0.9,0.3c0.5,0.4,0.9,0.8,1.3,1.3
		c0.2,0.2,0.3,0.5,0.3,0.9c0,0.3-0.1,0.6-0.3,0.8c-1.1,1.1-2.4,1.9-3.9,2.6s-3.1,0.9-4.7,0.9C356,194.2,353.8,193.7,351.9,192.5z"/>
	<path class="st1" d="M379.8,190.9c-1.6-1.7-2.4-3.8-2.4-6.4v-19.7h-3.8c-0.2,0-0.4-0.1-0.6-0.2c-0.2-0.2-0.2-0.3-0.2-0.6v-2.6
		c0-0.2,0.1-0.4,0.2-0.6s0.3-0.2,0.6-0.2h3.8v-6.1c0-0.2,0.1-0.4,0.2-0.6c0.2-0.2,0.3-0.2,0.6-0.2h2.9c0.2,0,0.4,0.1,0.6,0.2
		c0.2,0.2,0.2,0.3,0.2,0.6v6.1h10.2c0.2,0,0.4,0.1,0.6,0.2s0.2,0.3,0.2,0.6v2.7c0,0.2-0.1,0.4-0.2,0.6s-0.3,0.2-0.6,0.2h-10.2v19.1
		c0,1.5,0.5,2.7,1.4,3.6c0.9,0.9,2.1,1.4,3.6,1.4l5.3,0.1c0.2,0,0.4,0.1,0.6,0.2s0.2,0.3,0.2,0.6v2.7c0,0.2-0.1,0.4-0.2,0.6
		c-0.2,0.2-0.3,0.2-0.6,0.2h-5.8C383.5,193.5,381.3,192.6,379.8,190.9z"/>
</g>
<g>
	<path class="st2" d="M218.7,131.7c-5-2.9-9-6.9-11.9-11.9s-4.4-10.5-4.4-16.5V76.8c0-6,1.5-11.5,4.4-16.5s6.9-9,11.9-11.9
		s10.5-4.4,16.4-4.4s11.4,1.5,16.4,4.4c5,2.9,9,6.9,11.9,11.9s4.4,10.5,4.4,16.5v26.5c0,6-1.5,11.5-4.4,16.5s-6.9,9-11.9,11.9
		s-10.5,4.4-16.4,4.4C229.2,136.1,223.7,134.6,218.7,131.7 M243.9,119.1c2.7-1.7,4.9-3.9,6.5-6.7c1.6-2.8,2.4-5.8,2.4-9.1V76.8
		c0-3.2-0.8-6.3-2.4-9.1c-1.6-2.8-3.8-5.1-6.5-6.7s-5.6-2.5-8.8-2.5c-3.1,0-6.1,0.8-8.8,2.5s-4.9,3.9-6.5,6.7s-2.4,5.8-2.4,9.1v26.5
		c0,3.2,0.8,6.3,2.4,9.1c1.6,2.8,3.8,5.1,6.5,6.7c2.7,1.7,5.6,2.5,8.8,2.5C238.2,121.5,241.2,120.7,243.9,119.1"/>
	<path class="st2" d="M291.8,133.8c-4.3-1.4-8.3-3.5-12-6c-0.4-0.2-0.7-0.7-0.9-1.3c-0.2-0.6-0.1-1.2,0.1-1.7l4.3-7.8
		c0.5-1,1.3-1.5,2.3-1.5c0.7,0,1.3,0.2,1.9,0.5c6.2,3.9,11.9,5.8,17.3,5.8c4.4,0,7.8-1.1,10.3-3.2s3.8-4.9,3.8-8.3
		c0-2.2-0.6-4.1-1.9-5.7c-1.2-1.5-2.9-2.8-4.9-3.9c-2.1-1.1-5.1-2.4-9-4l-3.6-1.5c-5.6-2.4-10.3-5.5-14.1-9.2
		c-3.8-3.7-5.8-9.2-5.8-16.4c0-5.1,1.1-9.5,3.4-13.4s5.4-6.9,9.5-9.1c4-2.2,8.7-3.2,14-3.2c4.4,0,8.7,0.7,13,2.2s8.2,3.5,11.7,6
		c0.4,0.2,0.7,0.7,0.9,1.3c0.2,0.6,0.1,1.2-0.1,1.7l-4.1,7.8c-0.5,1-1.3,1.5-2.4,1.5c-0.7,0-1.3-0.2-1.9-0.5
		c-3.2-2.1-6.3-3.6-9.2-4.5c-2.9-0.9-5.5-1.4-7.8-1.4c-3.7,0-6.6,1-8.8,3c-2.1,2-3.2,4.6-3.2,7.8c0,3.2,1.2,5.9,3.5,8
		c2.4,2.1,6.1,4.2,11.3,6.4c0.7,0.2,3.6,1.4,8.5,3.4s8.8,5,11.7,8.9c2.9,3.9,4.3,8.5,4.3,13.8c0,5.1-1.2,9.7-3.6,13.7
		s-5.8,7.1-10.2,9.4s-9.4,3.4-15.1,3.4C300.5,136,296.1,135.2,291.8,133.8"/>
	<path class="st3" d="M361.8,131.7c-5-2.9-8.9-6.9-11.9-11.9c-2.9-5-4.4-10.5-4.4-16.5V76.8c0-6,1.5-11.5,4.4-16.5s6.9-9,11.9-11.9
		s10.4-4.4,16.4-4.4c5.2,0,10,0.9,14.5,2.8c4.4,1.9,8.2,4.6,11.4,8.1c0.5,0.6,0.7,1.3,0.7,2.1s-0.3,1.7-1,2.5l-5.4,5.7
		c-0.7,0.7-1.3,1-2,1c-0.8,0-1.6-0.4-2.2-1.1c-4.1-4.4-9.4-6.6-15.8-6.6c-3.1,0-6.1,0.8-8.8,2.5c-2.7,1.7-4.9,3.9-6.5,6.7
		c-1.6,2.8-2.4,5.8-2.4,9.1v26.5c0,3.2,0.8,6.3,2.4,9.1c1.6,2.8,3.8,5.1,6.5,6.7c2.7,1.7,5.6,2.5,8.8,2.5c3.1,0,6.1-0.8,8.8-2.4
		c2.7-1.6,4.9-3.7,6.4-6.5c1.6-2.7,2.3-5.7,2.3-8.9v-6.1h-16.6c-0.7,0-1.4-0.2-1.9-0.7s-0.7-1.1-0.7-1.9v-8.9c0-0.7,0.2-1.4,0.7-1.9
		s1.1-0.7,1.9-0.7h26.1c1.5,0,2.7,0.5,3.8,1.5c1,1,1.5,2.3,1.5,3.8v14.4c0,6-1.5,11.5-4.4,16.5s-6.9,9-11.9,11.9
		c-5,2.9-10.4,4.4-16.2,4.4C372.2,136.1,366.8,134.6,361.8,131.7"/>
	<path class="st3" d="M438,130.5c-4.5-2.6-8.1-6.3-10.7-10.8s-4-9.5-4-14.9V91.4c0-5.4,1.3-10.4,4-14.9c2.6-4.5,6.2-8.2,10.7-10.8
		c4.5-2.6,9.4-4,14.8-4s10.3,1.3,14.8,4c4.5,2.6,8.1,6.3,10.7,10.8c2.6,4.6,4,9.5,4,14.9v8.3c0,1.5-0.5,2.7-1.5,3.8
		c-1,1-2.3,1.5-3.8,1.5h-38.7v0.6c0,4.1,1.4,7.5,4.3,10.4s6.3,4.3,10.3,4.3h19.6c0.7,0,1.4,0.3,1.9,0.8s0.7,1.1,0.7,1.9v9
		c0,0.7-0.2,1.4-0.7,1.9s-1.1,0.7-1.9,0.7h-19.6C447.4,134.5,442.4,133.1,438,130.5 M467.3,91.6v-1.1c0-4.1-1.4-7.5-4.3-10.4
		c-2.8-2.9-6.3-4.3-10.3-4.3s-7.5,1.4-10.3,4.3s-4.3,6.3-4.3,10.4v1.1H467.3z"/>
	<path class="st3" d="M508,132.2c-4.5-2.6-8.1-6.1-10.7-10.6s-3.9-9.3-3.9-14.5V90.7c0-5.2,1.3-10.1,3.9-14.5
		c2.6-4.5,6.2-8,10.7-10.6s9.4-3.9,14.8-3.9c5.4,0,10.3,1.3,14.8,3.9c4.5,2.6,8.1,6.2,10.7,10.6c2.6,4.5,4,9.3,4,14.5V107
		c0,5.2-1.3,10.1-4,14.5c-2.6,4.5-6.2,8-10.7,10.6s-9.4,3.9-14.8,3.9C517.4,136.1,512.4,134.8,508,132.2 M533,117.4
		c2.8-2.9,4.3-6.3,4.3-10.4V90.7c0-4.1-1.4-7.5-4.3-10.4c-2.8-2.9-6.3-4.3-10.3-4.3s-7.5,1.4-10.3,4.3s-4.3,6.3-4.3,10.4V107
		c0,4.1,1.4,7.5,4.3,10.4c2.8,2.9,6.3,4.3,10.3,4.3C526.8,121.7,530.2,120.2,533,117.4"/>
	<path class="st2" d="M85.5,36.2v-18V0L74.2,19.8c-30.8,6.9-54.1,33.4-56.1,65.8h18.1C38.4,59.3,59.3,38.4,85.5,36.2"/>
	<path class="st3" d="M36.2,94.6h-18H0l19.8,11.3c6.9,30.8,33.4,54.1,65.8,56.1v-18.1C59.3,141.7,38.4,120.8,36.2,94.6"/>
	<path class="st3" d="M143.9,85.5H162h18.2l-19.8-11.3c-6.9-30.8-33.4-54.1-65.8-56.1v18.1C120.8,38.4,141.7,59.3,143.9,85.5"/>
	<path class="st2" d="M94.5,143.9V162v18.2l11.3-19.8c30.8-6.9,54.1-33.4,56.1-65.8h-18.1C141.7,120.8,120.8,141.7,94.5,143.9"/>
	<path class="st3" d="M95.6,84.5L62.2,62.2l22.3,33.4l33.4,22.3L95.6,84.5z M90,93.9c-2.2,0-3.9-1.8-3.9-3.9c0-2.2,1.8-3.9,3.9-3.9
		c2.2,0,3.9,1.8,3.9,3.9S92.2,93.9,90,93.9"/>
	<polygon class="st2" points="84.5,95.6 77,84.4 42.8,90.1 77,95.7 62.2,117.9 84.3,103.1 90,137.3 95.7,103.1 	"/>
	<polygon class="st2" points="103.1,84.4 117.9,62.2 95.7,77 90,42.8 84.4,77 95.6,84.5 103.1,95.7 137.3,90 	"/>
</g>
</svg>
