<?xml version="1.0" encoding="UTF-8" standalone="no"?>
<svg
   xmlns:dc="http://purl.org/dc/elements/1.1/"
   xmlns:cc="http://creativecommons.org/ns#"
   xmlns:rdf="http://www.w3.org/1999/02/22-rdf-syntax-ns#"
   xmlns:svg="http://www.w3.org/2000/svg"
   xmlns="http://www.w3.org/2000/svg"
   xmlns:sodipodi="http://sodipodi.sourceforge.net/DTD/sodipodi-0.dtd"
   xmlns:inkscape="http://www.inkscape.org/namespaces/inkscape"
   inkscape:export-ydpi="154.47459"
   inkscape:export-xdpi="154.47459"
   inkscape:export-filename="/Users/shfeldman/OneDrive/Work/OSGeo UK/Logos/New Logo/OSGeoUK Avatar 3a.png"
   inkscape:version="1.0 (4035a4f, 2020-05-01)"
   sodipodi:docname="OSGeoUK Avatar 3.svg"
   id="svg22"
   xml:space="preserve"
   viewBox="0 0 128.3 128.3"
   version="1.1"
   enable-background="new 0 0 128.3 128.3"
   height="128.3px"
   width="128.3px"><defs
     id="defs26" /><sodipodi:namedview
     inkscape:document-rotation="0"
     inkscape:current-layer="svg22"
     inkscape:window-maximized="0"
     inkscape:window-y="0"
     inkscape:window-x="0"
     inkscape:cy="64.150002"
     inkscape:cx="64.150002"
     inkscape:zoom="5.3936086"
     showgrid="false"
     id="namedview24"
     inkscape:window-height="900"
     inkscape:window-width="1440"
     inkscape:pageshadow="2"
     inkscape:pageopacity="0"
     guidetolerance="10"
     gridtolerance="10"
     objecttolerance="10"
     borderopacity="1"
     bordercolor="#666666"
     pagecolor="#ffffff" /><title
     id="title2">OSGeo Foundation logomark</title><metadata
     id="metadata4"><rdf:RDF><cc:Work
         rdf:about=""><dc:format>image/svg+xml</dc:format><dc:type
           rdf:resource="http://purl.org/dc/dcmitype/StillImage" /><dc:title>OSGeo Foundation logomark</dc:title><dc:date>June 2017</dc:date><dc:creator><cc:Agent><dc:title>Pim Tebbens</dc:title></cc:Agent></dc:creator><dc:rights><cc:Agent><dc:title>Copyright OSGeo Foundation</dc:title></cc:Agent></dc:rights><dc:publisher><cc:Agent><dc:title>OSGeo Foundation</dc:title></cc:Agent></dc:publisher><dc:subject><rdf:Bag><rdf:li>OSGeo</rdf:li><rdf:li>logo</rdf:li><rdf:li>logomark</rdf:li><rdf:li>compass</rdf:li><rdf:li>emblem</rdf:li></rdf:Bag></dc:subject><dc:description>OSGeo Foundation official logomark</dc:description><dc:contributor><cc:Agent><dc:title>OSGeo Foundation Marketing Committee</dc:title></cc:Agent></dc:contributor><cc:license
           rdf:resource="http://creativecommons.org/licenses/by-nd/4.0/" /></cc:Work><cc:License
         rdf:about="http://creativecommons.org/licenses/by-nd/4.0/"><cc:permits
           rdf:resource="http://creativecommons.org/ns#Reproduction" /><cc:permits
           rdf:resource="http://creativecommons.org/ns#Distribution" /><cc:requires
           rdf:resource="http://creativecommons.org/ns#Notice" /><cc:requires
           rdf:resource="http://creativecommons.org/ns#Attribution" /></cc:License></rdf:RDF></metadata><ellipse
     transform="matrix(0.99999925,-0.00122722,0.0011226,0.99999937,0,0)"
     ry="61.245789"
     rx="61.455551"
     cy="64.076813"
     cx="64.087296"
     id="path846"
     style="fill:#ffffff;fill-opacity:1;stroke:#ffffff;stroke-width:1.17922;stroke-opacity:1" /><g
     id="g20"
     transform="translate(3,3)"><path
       id="path6"
       fill="#4DAF5C"
       d="m58.1 24.6v-24.6l-7.7 13.4c-20.9 4.7-36.7 22.7-38.1 44.7h12.3c1.5-17.8 15.7-32 33.5-33.5" /><path
       id="path8"
       fill="#023B41"
       d="m24.6 64.201h-24.6l13.4 7.699c4.7 20.9 22.7 36.7 44.7 38.1v-12.2c-17.8-1.5-32-15.7-33.5-33.599" /><path
       id="path10"
       fill="#023B41"
       d="m97.8 58.1h24.5l-13.4-7.7c-4.699-20.9-22.699-36.7-44.699-38.1v12.3c17.899 1.5 32.099 15.7 33.599 33.5" /><path
       sodipodi:nodetypes="cccsccc"
       style="fill:#4daf5c;fill-opacity:1"
       id="path12"
       fill="#4DAF5C"
       d="m 64.201,97.8 v 24.5 0 c 11.345475,1.42447 30.611851,-7.44993 43.12758,-20.19335 11.53257,-11.742379 14.94773,-27.995218 14.90813,-38.461864 L 97.8,64.201 C 96.3,82.1 82.1,96.3 64.201,97.8" /><path
       id="path14"
       fill="#023B41"
       d="m65 57.4l-22.7-15.1 15.1 22.7 22.7 15.1-15.1-22.7zm-3.9 6.4c-1.5 0-2.7-1.2-2.7-2.7s1.2-2.7 2.7-2.7 2.7 1.2 2.7 2.7-1.2 2.7-2.7 2.7" /><polygon
       id="polygon16"
       fill="#4DAF5C"
       points="42.3 80.1 57.3 70.1 61.2 93.3 65.1 70.1 57.4 65 52.3 57.3 29.1 61.2 52.3 65.1" /><polygon
       id="polygon18"
       fill="#4DAF5C"
       points="57.3 52.3 65 57.4 70.1 65.1 93.3 61.2 70.1 57.3 80.1 42.3 65.1 52.3 61.2 29.1" /><text
       id="text853"
       y="99.714165"
       x="86.365028"
       style="font-style:normal;font-variant:normal;font-weight:bold;font-stretch:normal;font-size:17.3333px;line-height:1.25;font-family:'Miriam Libre';-inkscape-font-specification:'Miriam Libre, Bold';font-variant-ligatures:normal;font-variant-caps:normal;font-variant-numeric:normal;font-variant-east-asian:normal;fill:#ffffff;fill-opacity:1"
       xml:space="preserve"><tspan
         y="99.714165"
         x="86.365028"
         id="tspan851"
         sodipodi:role="line">UK</tspan></text></g></svg>
