<?xml version="1.0" encoding="UTF-8" standalone="no"?>
<svg
   xmlns:dc="http://purl.org/dc/elements/1.1/"
   xmlns:cc="http://creativecommons.org/ns#"
   xmlns:rdf="http://www.w3.org/1999/02/22-rdf-syntax-ns#"
   xmlns:svg="http://www.w3.org/2000/svg"
   xmlns="http://www.w3.org/2000/svg"
   xmlns:sodipodi="http://sodipodi.sourceforge.net/DTD/sodipodi-0.dtd"
   xmlns:inkscape="http://www.inkscape.org/namespaces/inkscape"
   width="593px"
   height="228px"
   viewBox="0 0 593 228"
   version="1.1"
   id="svg3486"
   inkscape:version="0.91pre3 r13670"
   sodipodi:docname="OSGeoUK2.svg"
   inkscape:export-filename="/home/jo/git/uk.osgeo.org/images/OSGeo_UK.svg.png"
   inkscape:export-xdpi="90"
   inkscape:export-ydpi="90">
  <metadata
     id="metadata3524">
    <rdf:RDF>
      <cc:Work
         rdf:about="">
        <dc:format>image/svg+xml</dc:format>
        <dc:type
           rdf:resource="http://purl.org/dc/dcmitype/StillImage" />
        <dc:title>OSGeo_community</dc:title>
      </cc:Work>
    </rdf:RDF>
  </metadata>
  <sodipodi:namedview
     pagecolor="#ffffff"
     bordercolor="#666666"
     borderopacity="1"
     objecttolerance="10"
     gridtolerance="10"
     guidetolerance="10"
     inkscape:pageopacity="0"
     inkscape:pageshadow="2"
     inkscape:window-width="1440"
     inkscape:window-height="851"
     id="namedview3522"
     showgrid="true"
     inkscape:zoom="1"
     inkscape:cx="390.73534"
     inkscape:cy="23.845216"
     inkscape:window-x="0"
     inkscape:window-y="1"
     inkscape:window-maximized="1"
     inkscape:current-layer="svg3486">
    <inkscape:grid
       type="xygrid"
       id="grid4910" />
  </sodipodi:namedview>
  <!-- Generator: Sketch 45.2 (43514) - http://www.bohemiancoding.com/sketch -->
  <title
     id="title3488">OSGeo_community</title>
  <desc
     id="desc3490">Created with Sketch.</desc>
  <defs
     id="defs3492" />
  <g
     id="g4928"
     transform="translate(-7,-16)">
    <text
       transform="scale(0.9382045,1.0658657)"
       sodipodi:linespacing="125%"
       id="text3575"
       y="153.41333"
       x="482.01599"
       style="font-style:normal;font-variant:normal;font-weight:bold;font-stretch:normal;font-size:84.72377777px;line-height:125%;font-family:Sintony;-inkscape-font-specification:'Sintony, Bold';text-align:start;letter-spacing:0px;word-spacing:0px;writing-mode:lr-tb;text-anchor:start;fill:#4db05b;fill-opacity:1;stroke:none;stroke-width:1px;stroke-linecap:butt;stroke-linejoin:miter;stroke-opacity:1"
       xml:space="preserve"><tspan
         y="153.41333"
         x="482.01599"
         id="tspan3577"
         sodipodi:role="line">:UK</tspan></text>
    <g
       transform="matrix(0.76084465,0,0,0.74377358,27.54275,63.586)"
       id="Group"
       style="fill:none;fill-rule:nonzero;stroke:none;stroke-width:1">
      <path
         d="m 218.7,131.7 c -5,-2.9 -9,-6.9 -11.9,-11.9 -2.9,-5 -4.4,-10.5 -4.4,-16.5 l 0,-26.5 c 0,-6 1.5,-11.5 4.4,-16.5 2.9,-5 6.9,-9 11.9,-11.9 5,-2.9 10.5,-4.4 16.4,-4.4 5.9,0 11.4,1.5 16.4,4.4 5,2.9 9,6.9 11.9,11.9 2.9,5 4.4,10.5 4.4,16.5 l 0,26.5 c 0,6 -1.5,11.5 -4.4,16.5 -2.9,5 -6.9,9 -11.9,11.9 -5,2.9 -10.5,4.4 -16.4,4.4 -5.9,0 -11.4,-1.5 -16.4,-4.4 m 25.2,-12.6 c 2.7,-1.7 4.9,-3.9 6.5,-6.7 1.6,-2.8 2.4,-5.8 2.4,-9.1 l 0,-26.5 c 0,-3.2 -0.8,-6.3 -2.4,-9.1 -1.6,-2.8 -3.8,-5.1 -6.5,-6.7 -2.7,-1.6 -5.6,-2.5 -8.8,-2.5 -3.1,0 -6.1,0.8 -8.8,2.5 -2.7,1.7 -4.9,3.9 -6.5,6.7 -1.6,2.8 -2.4,5.8 -2.4,9.1 l 0,26.5 c 0,3.2 0.8,6.3 2.4,9.1 1.6,2.8 3.8,5.1 6.5,6.7 2.7,1.7 5.6,2.5 8.8,2.5 3.1,-0.1 6.1,-0.9 8.8,-2.5"
         id="Shape"
         inkscape:connector-curvature="0"
         style="fill:#4db05b" />
      <path
         d="m 291.8,133.8 c -4.3,-1.4 -8.3,-3.5 -12,-6 -0.4,-0.2 -0.7,-0.7 -0.9,-1.3 -0.2,-0.6 -0.1,-1.2 0.1,-1.7 l 4.3,-7.8 c 0.5,-1 1.3,-1.5 2.3,-1.5 0.7,0 1.3,0.2 1.9,0.5 6.2,3.9 11.9,5.8 17.3,5.8 4.4,0 7.8,-1.1 10.3,-3.2 2.5,-2.1 3.8,-4.9 3.8,-8.3 0,-2.2 -0.6,-4.1 -1.9,-5.7 -1.2,-1.5 -2.9,-2.8 -4.9,-3.9 -2.1,-1.1 -5.1,-2.4 -9,-4 l -3.6,-1.5 c -5.6,-2.4 -10.3,-5.5 -14.1,-9.2 -3.8,-3.7 -5.8,-9.2 -5.8,-16.4 0,-5.1 1.1,-9.5 3.4,-13.4 2.3,-3.9 5.4,-6.9 9.5,-9.1 4,-2.2 8.7,-3.2 14,-3.2 4.4,0 8.7,0.7 13,2.2 4.3,1.5 8.2,3.5 11.7,6 0.4,0.2 0.7,0.7 0.9,1.3 0.2,0.6 0.1,1.2 -0.1,1.7 l -4.1,7.8 c -0.5,1 -1.3,1.5 -2.4,1.5 -0.7,0 -1.3,-0.2 -1.9,-0.5 -3.2,-2.1 -6.3,-3.6 -9.2,-4.5 -2.9,-0.9 -5.5,-1.4 -7.8,-1.4 -3.7,0 -6.6,1 -8.8,3 -2.1,2 -3.2,4.6 -3.2,7.8 0,3.2 1.2,5.9 3.5,8 2.4,2.1 6.1,4.2 11.3,6.4 0.7,0.2 3.6,1.4 8.5,3.4 4.9,2 8.8,5 11.7,8.9 2.9,3.9 4.3,8.5 4.3,13.8 0,5.1 -1.2,9.7 -3.6,13.7 -2.4,4 -5.8,7.1 -10.2,9.4 -4.4,2.3 -9.4,3.4 -15.1,3.4 -4.5,0.2 -8.9,-0.6 -13.2,-2"
         id="path3500"
         inkscape:connector-curvature="0"
         style="fill:#4db05b" />
      <path
         d="m 361.8,131.7 c -5,-2.9 -8.9,-6.9 -11.9,-11.9 -2.9,-5 -4.4,-10.5 -4.4,-16.5 l 0,-26.5 c 0,-6 1.5,-11.5 4.4,-16.5 2.9,-5 6.9,-9 11.9,-11.9 5,-2.9 10.4,-4.4 16.4,-4.4 5.2,0 10,0.9 14.5,2.8 4.4,1.9 8.2,4.6 11.4,8.1 0.5,0.6 0.7,1.3 0.7,2.1 0,0.8 -0.3,1.7 -1,2.5 l -5.4,5.7 c -0.7,0.7 -1.3,1 -2,1 -0.8,0 -1.6,-0.4 -2.2,-1.1 -4.1,-4.4 -9.4,-6.6 -15.8,-6.6 -3.1,0 -6.1,0.8 -8.8,2.5 -2.7,1.7 -4.9,3.9 -6.5,6.7 -1.6,2.8 -2.4,5.8 -2.4,9.1 l 0,26.5 c 0,3.2 0.8,6.3 2.4,9.1 1.6,2.8 3.8,5.1 6.5,6.7 2.7,1.7 5.6,2.5 8.8,2.5 3.1,0 6.1,-0.8 8.8,-2.4 2.7,-1.6 4.9,-3.7 6.4,-6.5 1.6,-2.7 2.3,-5.7 2.3,-8.9 l 0,-6.1 -16.6,0 c -0.7,0 -1.4,-0.2 -1.9,-0.7 -0.5,-0.5 -0.7,-1.1 -0.7,-1.9 l 0,-8.9 c 0,-0.7 0.2,-1.4 0.7,-1.9 0.5,-0.5 1.1,-0.7 1.9,-0.7 l 26.1,0 c 1.5,0 2.7,0.5 3.8,1.5 1,1 1.5,2.3 1.5,3.8 l 0,14.4 c 0,6 -1.5,11.5 -4.4,16.5 -2.9,5 -6.9,9 -11.9,11.9 -5,2.9 -10.4,4.4 -16.2,4.4 -6,0 -11.4,-1.5 -16.4,-4.4"
         id="path3502"
         inkscape:connector-curvature="0"
         style="fill:#003a40" />
      <path
         d="m 438,130.5 c -4.5,-2.6 -8.1,-6.3 -10.7,-10.8 -2.6,-4.5 -4,-9.5 -4,-14.9 l 0,-13.4 c 0,-5.4 1.3,-10.4 4,-14.9 2.6,-4.5 6.2,-8.2 10.7,-10.8 4.5,-2.6 9.4,-4 14.8,-4 5.4,0 10.3,1.3 14.8,4 4.5,2.6 8.1,6.3 10.7,10.8 2.6,4.6 4,9.5 4,14.9 l 0,8.3 c 0,1.5 -0.5,2.7 -1.5,3.8 -1,1 -2.3,1.5 -3.8,1.5 l -38.7,0 0,0.6 c 0,4.1 1.4,7.5 4.3,10.4 2.9,2.9 6.3,4.3 10.3,4.3 l 19.6,0 c 0.7,0 1.4,0.3 1.9,0.8 0.5,0.5 0.7,1.1 0.7,1.9 l 0,9 c 0,0.7 -0.2,1.4 -0.7,1.9 -0.5,0.5 -1.1,0.7 -1.9,0.7 l -19.6,0 c -5.5,-0.1 -10.5,-1.5 -14.9,-4.1 l 0,0 z m 29.3,-38.9 0,-1.1 c 0,-4.1 -1.4,-7.5 -4.3,-10.4 -2.8,-2.9 -6.3,-4.3 -10.3,-4.3 -4,0 -7.5,1.4 -10.3,4.3 -2.8,2.9 -4.3,6.3 -4.3,10.4 l 0,1.1 29.2,0 z"
         id="path3504"
         inkscape:connector-curvature="0"
         style="fill:#003a40" />
      <path
         d="m 508,132.2 c -4.5,-2.6 -8.1,-6.1 -10.7,-10.6 -2.6,-4.5 -3.9,-9.3 -3.9,-14.5 l 0,-16.4 c 0,-5.2 1.3,-10.1 3.9,-14.5 2.6,-4.5 6.2,-8 10.7,-10.6 4.5,-2.6 9.4,-3.9 14.8,-3.9 5.4,0 10.3,1.3 14.8,3.9 4.5,2.6 8.1,6.2 10.7,10.6 2.6,4.5 4,9.3 4,14.5 l 0,16.3 c 0,5.2 -1.3,10.1 -4,14.5 -2.6,4.5 -6.2,8 -10.7,10.6 -4.5,2.6 -9.4,3.9 -14.8,3.9 -5.4,0.1 -10.4,-1.2 -14.8,-3.8 m 25,-14.8 c 2.8,-2.9 4.3,-6.3 4.3,-10.4 l 0,-16.3 c 0,-4.1 -1.4,-7.5 -4.3,-10.4 -2.8,-2.9 -6.3,-4.3 -10.3,-4.3 -4,0 -7.5,1.4 -10.3,4.3 -2.8,2.9 -4.3,6.3 -4.3,10.4 l 0,16.3 c 0,4.1 1.4,7.5 4.3,10.4 2.8,2.9 6.3,4.3 10.3,4.3 4.1,0 7.5,-1.5 10.3,-4.3"
         id="path3506"
         inkscape:connector-curvature="0"
         style="fill:#003a40" />
      <path
         d="m 85.5,36.2 0,-18 L 85.5,0 74.2,19.8 C 43.4,26.7 20.1,53.2 18.1,85.6 l 18.1,0 C 38.4,59.3 59.3,38.4 85.5,36.2"
         id="path3508"
         inkscape:connector-curvature="0"
         style="fill:#4db05b" />
      <path
         d="m 36.2,94.6 -18,0 -18.2,0 19.8,11.3 c 6.9,30.8 33.4,54.1 65.8,56.1 l 0,-18.1 C 59.3,141.7 38.4,120.8 36.2,94.6"
         id="path3510"
         inkscape:connector-curvature="0"
         style="fill:#003a40" />
      <path
         d="m 143.9,85.5 18.1,0 18.2,0 -19.8,-11.3 C 153.5,43.4 127,20.1 94.6,18.1 l 0,18.1 c 26.2,2.2 47.1,23.1 49.3,49.3"
         id="path3512"
         inkscape:connector-curvature="0"
         style="fill:#003a40" />
      <path
         d="m 94.5,143.9 0,18.1 0,18.2 11.3,-19.8 c 30.8,-6.9 54.1,-33.4 56.1,-65.8 l -18.1,0 c -2.1,26.2 -23,47.1 -49.3,49.3"
         id="path3514"
         inkscape:connector-curvature="0"
         style="fill:#4db05b" />
      <path
         d="M 95.6,84.5 62.2,62.2 84.5,95.6 117.9,117.9 95.6,84.5 Z M 90,93.9 c -2.2,0 -3.9,-1.8 -3.9,-3.9 0,-2.2 1.8,-3.9 3.9,-3.9 2.2,0 3.9,1.8 3.9,3.9 0,2.1 -1.7,3.9 -3.9,3.9 l 0,0 z"
         id="path3516"
         inkscape:connector-curvature="0"
         style="fill:#003a40" />
      <polygon
         id="polygon3518"
         points="90,137.3 95.7,103.1 84.5,95.6 77,84.4 42.8,90.1 77,95.7 62.2,117.9 84.3,103.1 "
         style="fill:#4db05b" />
      <polygon
         id="polygon3520"
         points="103.1,95.7 137.3,90 103.1,84.4 117.9,62.2 95.7,77 90,42.8 84.4,77 95.6,84.5 "
         style="fill:#4db05b" />
    </g>
  </g>
  <text
     xml:space="preserve"
     style="font-style:normal;font-weight:normal;font-size:40px;line-height:125%;font-family:Sans;letter-spacing:0px;word-spacing:0px;fill:#000000;fill-opacity:1;stroke:none;stroke-width:1px;stroke-linecap:butt;stroke-linejoin:miter;stroke-opacity:1"
     x="387"
     y="-39"
     id="text4906"
     sodipodi:linespacing="125%"><tspan
       sodipodi:role="line"
       id="tspan4908"
       x="387"
       y="-39" /></text>
</svg>
