<?xml version="1.0" encoding="UTF-8"?>
<svg width="593px" height="228px" viewBox="0 0 593 228" version="1.1" xmlns="http://www.w3.org/2000/svg" xmlns:xlink="http://www.w3.org/1999/xlink">
    <!-- Generator: Sketch 45.2 (43514) - http://www.bohemiancoding.com/sketch -->
    <title>osgeo_marketing</title>
    <desc>Created with Sketch.</desc>
    <defs></defs>
    <g id="Page-1" stroke="none" stroke-width="1" fill="none" fill-rule="evenodd">
        <g id="osgeo_marketing">
            <g id="osgeo-marketing" transform="translate(7.000000, 7.000000)">
                <path d="M221.3873,194.0221 C221.174632,193.886766 221.029634,193.703101 220.9523,193.4711 L209.8163,161.2231 L205.9883,192.4851 C205.949633,192.794435 205.823968,193.036099 205.6113,193.2101 C205.398632,193.384101 205.137635,193.4711 204.8283,193.4711 L202.1023,193.4711 C201.792965,193.4711 201.551301,193.364768 201.3773,193.1521 C201.203299,192.939432 201.135633,192.697768 201.1743,192.4271 L206.2203,153.7991 C206.258967,153.605766 206.345966,153.451101 206.4813,153.3351 C206.616634,153.219099 206.761633,153.1611 206.9163,153.1611 L210.9763,153.1611 C211.208301,153.1611 211.440299,153.228766 211.6723,153.3641 C211.904301,153.499434 212.039633,153.683099 212.0783,153.9151 L223.5043,187.0331 L235.0463,153.6831 C235.162301,153.335098 235.394298,153.1611 235.7423,153.1611 L239.7443,153.1611 C240.053635,153.1611 240.314632,153.248099 240.5273,153.4221 C240.739968,153.596101 240.865633,153.837765 240.9043,154.1471 L245.8923,192.4271 L245.8923,192.5431 C245.8923,192.775101 245.805301,192.987766 245.6313,193.1811 C245.457299,193.374434 245.234968,193.4711 244.9643,193.4711 L242.1803,193.4711 C241.870965,193.4711 241.609968,193.384101 241.3973,193.2101 C241.184632,193.036099 241.058967,192.794435 241.0203,192.4851 L237.1923,161.3391 L226.0563,193.4711 C225.978966,193.703101 225.833968,193.886766 225.6213,194.0221 C225.408632,194.157434 225.186301,194.2251 224.9543,194.2251 L222.0543,194.2251 C221.822299,194.2251 221.599968,194.157434 221.3873,194.0221 Z M255.6943,191.7021 C253.799624,190.020092 252.8523,187.806447 252.8523,185.0611 C252.8523,182.509087 253.712625,180.401775 255.4333,178.7391 C257.153975,177.076425 259.560951,176.032435 262.6543,175.6071 L270.1943,174.5631 C271.315639,174.408433 272.127631,174.031436 272.6303,173.4321 C273.132969,172.832764 273.3843,171.972439 273.3843,170.8511 L273.3843,170.3871 C273.3843,168.531091 272.659307,167.032772 271.2093,165.8921 C269.759293,164.751428 267.951644,164.1811 265.7863,164.1811 C264.084958,164.1811 262.605973,164.51943 261.3493,165.1961 C260.092627,165.87277 259.09697,166.810427 258.3623,168.0091 C258.052965,168.511769 257.666302,168.7631 257.2023,168.7631 C256.970299,168.7631 256.718968,168.666434 256.4483,168.4731 L254.8823,167.4291 C254.534298,167.119765 254.3603,166.791102 254.3603,166.4431 C254.3603,166.288433 254.418299,166.095101 254.5343,165.8631 C255.655639,164.007091 257.192624,162.547439 259.1453,161.4841 C261.097976,160.420761 263.350287,159.8891 265.9023,159.8891 C268.222312,159.8891 270.290958,160.324096 272.1083,161.1941 C273.925642,162.064104 275.327295,163.291759 276.3133,164.8771 C277.299305,166.462441 277.7923,168.29909 277.7923,170.3871 L277.7923,192.6591 C277.7923,192.891101 277.714967,193.084433 277.5603,193.2391 C277.405633,193.393767 277.212301,193.4711 276.9803,193.4711 L274.5443,193.4711 C274.312299,193.4711 274.118967,193.393767 273.9643,193.2391 C273.809633,193.084433 273.7323,192.891101 273.7323,192.6591 L273.7323,188.6571 C272.533627,190.397109 270.996643,191.760095 269.1213,192.7461 C267.245957,193.732105 265.206311,194.2251 263.0023,194.2251 C260.024952,194.2251 257.588976,193.384108 255.6943,191.7021 Z M268.6283,188.6571 C270.174974,187.651762 271.383296,186.385441 272.2533,184.8581 C273.123304,183.330759 273.5583,181.832441 273.5583,180.3631 L273.5583,177.9851 C272.630295,178.101101 269.652992,178.507097 264.6263,179.2031 L263.0023,179.4351 C259.135614,180.015103 257.2023,181.832418 257.2023,184.8871 C257.2023,186.472441 257.782294,187.748429 258.9423,188.7151 C260.102306,189.681771 261.610291,190.1651 263.4663,190.1651 C265.360976,190.1651 267.081626,189.662438 268.6283,188.6571 Z M285.2743,193.2391 C285.119633,193.084433 285.0423,192.891101 285.0423,192.6591 L285.0423,189.9911 C285.0423,189.759099 285.119633,189.565767 285.2743,189.4111 C285.428967,189.256433 285.622299,189.1791 285.8543,189.1791 L290.6683,189.1791 L290.6683,164.7611 L285.8543,164.7611 C285.622299,164.7611 285.428967,164.683767 285.2743,164.5291 C285.119633,164.374433 285.0423,164.181101 285.0423,163.9491 L285.0423,161.4551 C285.0423,161.223099 285.119633,161.029767 285.2743,160.8751 C285.428967,160.720433 285.622299,160.6431 285.8543,160.6431 L293.1043,160.6431 C293.684303,160.6431 294.177298,160.846098 294.5833,161.2521 C294.989302,161.658102 295.1923,162.151097 295.1923,162.7311 L295.1923,165.6311 L298.5563,163.0211 C299.948307,161.938428 301.079296,161.213435 301.9493,160.8461 C302.819304,160.478765 303.737629,160.2951 304.7043,160.2951 L306.4443,160.2951 C306.714968,160.2951 306.917966,160.372433 307.0533,160.5271 C307.188634,160.681767 307.2563,160.875099 307.2563,161.1071 L307.2563,163.9491 C307.2563,164.181101 307.178967,164.374433 307.0243,164.5291 C306.869633,164.683767 306.676301,164.7611 306.4443,164.7611 L305.1683,164.7611 C304.201628,164.7611 303.292971,164.964098 302.4423,165.3701 C301.591629,165.776102 300.315642,166.65576 298.6143,168.0091 L295.1923,170.7351 L295.1923,189.1791 L301.9203,189.1791 C302.152301,189.1791 302.345633,189.256433 302.5003,189.4111 C302.654967,189.565767 302.7323,189.759099 302.7323,189.9911 L302.7323,192.6591 C302.7323,192.891101 302.654967,193.084433 302.5003,193.2391 C302.345633,193.393767 302.152301,193.4711 301.9203,193.4711 L285.8543,193.4711 C285.622299,193.4711 285.428967,193.393767 285.2743,193.2391 Z M314.4773,193.2681 C314.303299,193.132766 314.2163,192.949101 314.2163,192.7171 L314.2163,150.2611 C314.2163,150.029099 314.293633,149.835767 314.4483,149.6811 C314.602967,149.526433 314.796299,149.4491 315.0283,149.4491 L317.9283,149.4491 C318.160301,149.4491 318.353633,149.526433 318.5083,149.6811 C318.662967,149.835767 318.7403,150.029099 318.7403,150.2611 L318.7403,173.4031 L321.1183,173.4031 L332.5443,161.1651 C332.853635,160.817098 333.182298,160.6431 333.5303,160.6431 L337.3003,160.6431 C337.532301,160.6431 337.715966,160.710766 337.8513,160.8461 C337.986634,160.981434 338.0543,161.145766 338.0543,161.3391 C338.0543,161.571101 337.976967,161.764433 337.8223,161.9191 L324.9463,175.3751 L338.5183,192.3111 C338.634301,192.465767 338.6923,192.620433 338.6923,192.7751 C338.6923,192.968434 338.634301,193.132766 338.5183,193.2681 C338.402299,193.403434 338.228301,193.4711 337.9963,193.4711 L334.2263,193.4711 C333.878298,193.4711 333.549635,193.297102 333.2403,192.9491 L321.1183,177.6951 L318.7403,177.6951 L318.7403,192.7171 C318.7403,192.949101 318.653301,193.132766 318.4793,193.2681 C318.305299,193.403434 318.102301,193.4711 317.8703,193.4711 L315.0863,193.4711 C314.854299,193.4711 314.651301,193.403434 314.4773,193.2681 Z M349.0163,191.7891 C347.082957,190.667761 345.555639,189.130776 344.4343,187.1781 C343.312961,185.225424 342.7523,183.108445 342.7523,180.8271 L342.7523,172.5331 C342.7523,170.251755 343.312961,168.134776 344.4343,166.1821 C345.555639,164.229424 347.082957,162.692439 349.0163,161.5711 C350.949643,160.449761 353.056955,159.8891 355.3383,159.8891 C357.619645,159.8891 359.726957,160.449761 361.6603,161.5711 C363.593643,162.692439 365.120961,164.229424 366.2423,166.1821 C367.363639,168.134776 367.9243,170.251755 367.9243,172.5331 L367.9243,176.4771 C367.9243,177.057103 367.721302,177.550098 367.3153,177.9561 C366.909298,178.362102 366.416303,178.5651 365.8363,178.5651 L347.2763,178.5651 L347.2763,181.1171 C347.2763,182.586441 347.633963,183.93976 348.3493,185.1771 C349.064637,186.41444 350.04096,187.390763 351.2783,188.1061 C352.51564,188.821437 353.868959,189.1791 355.3383,189.1791 L363.7483,189.1791 C363.980301,189.1791 364.173633,189.256433 364.3283,189.4111 C364.482967,189.565767 364.5603,189.759099 364.5603,189.9911 L364.5603,192.6591 C364.5603,192.891101 364.482967,193.084433 364.3283,193.2391 C364.173633,193.393767 363.980301,193.4711 363.7483,193.4711 L355.3383,193.4711 C353.056955,193.4711 350.949643,192.910439 349.0163,191.7891 Z M363.4003,174.3891 L363.4003,172.2431 C363.4003,170.773759 363.042637,169.42044 362.3273,168.1831 C361.611963,166.94576 360.63564,165.969437 359.3983,165.2541 C358.16096,164.538763 356.807641,164.1811 355.3383,164.1811 C353.868959,164.1811 352.51564,164.538763 351.2783,165.2541 C350.04096,165.969437 349.064637,166.94576 348.3493,168.1831 C347.633963,169.42044 347.2763,170.773759 347.2763,172.2431 L347.2763,174.3891 L363.4003,174.3891 Z M380.3363,190.9481 C378.750959,189.266092 377.9583,187.149113 377.9583,184.5971 L377.9583,164.8771 L374.1303,164.8771 C373.898299,164.8771 373.704967,164.799767 373.5503,164.6451 C373.395633,164.490433 373.3183,164.297101 373.3183,164.0651 L373.3183,161.4551 C373.3183,161.223099 373.395633,161.029767 373.5503,160.8751 C373.704967,160.720433 373.898299,160.6431 374.1303,160.6431 L377.9583,160.6431 L377.9583,154.5531 C377.9583,154.321099 378.035633,154.127767 378.1903,153.9731 C378.344967,153.818433 378.538299,153.7411 378.7703,153.7411 L381.6703,153.7411 C381.902301,153.7411 382.095633,153.818433 382.2503,153.9731 C382.404967,154.127767 382.4823,154.321099 382.4823,154.5531 L382.4823,160.6431 L392.6903,160.6431 C392.922301,160.6431 393.115633,160.720433 393.2703,160.8751 C393.424967,161.029767 393.5023,161.223099 393.5023,161.4551 L393.5023,164.1231 C393.5023,164.355101 393.424967,164.548433 393.2703,164.7031 C393.115633,164.857767 392.922301,164.9351 392.6903,164.9351 L382.4823,164.9351 L382.4823,184.0751 C382.4823,185.583108 382.936629,186.791429 383.8453,187.7001 C384.753971,188.608771 385.942959,189.082433 387.4123,189.1211 L392.6903,189.1791 C392.922301,189.1791 393.115633,189.256433 393.2703,189.4111 C393.424967,189.565767 393.5023,189.759099 393.5023,189.9911 L393.5023,192.6591 C393.5023,192.891101 393.424967,193.084433 393.2703,193.2391 C393.115633,193.393767 392.922301,193.4711 392.6903,193.4711 L386.8903,193.4711 C384.106286,193.4711 381.921641,192.630108 380.3363,190.9481 Z M406.4363,155.8871 C406.281633,155.732433 406.2043,155.539101 406.2043,155.3071 L406.2043,150.2611 C406.2043,150.029099 406.281633,149.835767 406.4363,149.6811 C406.590967,149.526433 406.784299,149.4491 407.0163,149.4491 L409.8003,149.4491 C410.032301,149.4491 410.225633,149.526433 410.3803,149.6811 C410.534967,149.835767 410.6123,150.029099 410.6123,150.2611 L410.6123,155.3071 C410.6123,155.539101 410.534967,155.732433 410.3803,155.8871 C410.225633,156.041767 410.032301,156.1191 409.8003,156.1191 L407.0163,156.1191 C406.784299,156.1191 406.590967,156.041767 406.4363,155.8871 Z M406.7553,192.8621 C406.349298,192.456098 406.1463,191.963103 406.1463,191.3831 L406.1463,164.9351 L400.1143,164.9351 C399.882299,164.9351 399.688967,164.857767 399.5343,164.7031 C399.379633,164.548433 399.3023,164.355101 399.3023,164.1231 L399.3023,161.4551 C399.3023,161.223099 399.379633,161.029767 399.5343,160.8751 C399.688967,160.720433 399.882299,160.6431 400.1143,160.6431 L408.5823,160.6431 C409.162303,160.6431 409.655298,160.846098 410.0613,161.2521 C410.467302,161.658102 410.6703,162.151097 410.6703,162.7311 L410.6703,189.1791 L416.6443,189.1791 C416.876301,189.1791 417.069633,189.256433 417.2243,189.4111 C417.378967,189.565767 417.4563,189.759099 417.4563,189.9911 L417.4563,192.6591 C417.4563,192.891101 417.378967,193.084433 417.2243,193.2391 C417.069633,193.393767 416.876301,193.4711 416.6443,193.4711 L408.2343,193.4711 C407.654297,193.4711 407.161302,193.268102 406.7553,192.8621 Z M424.9383,193.1811 C424.783633,193.026433 424.7063,192.833101 424.7063,192.6011 L424.7063,161.4551 C424.7063,161.223099 424.783633,161.029767 424.9383,160.8751 C425.092967,160.720433 425.286299,160.6431 425.5183,160.6431 L428.4183,160.6431 C428.650301,160.6431 428.843633,160.720433 428.9983,160.8751 C429.152967,161.029767 429.2303,161.223099 429.2303,161.4551 L429.2303,164.6451 C430.235638,163.059759 431.540625,161.861104 433.1453,161.0491 C434.749975,160.237096 436.557623,159.8311 438.5683,159.8311 C441.854983,159.8311 444.51329,160.836423 446.5433,162.8471 C448.57331,164.857777 449.5883,167.506417 449.5883,170.7931 L449.5883,192.6011 C449.5883,192.833101 449.510967,193.026433 449.3563,193.1811 C449.201633,193.335767 449.008301,193.4131 448.7763,193.4131 L445.8763,193.4131 C445.644299,193.4131 445.450967,193.335767 445.2963,193.1811 C445.141633,193.026433 445.0643,192.833101 445.0643,192.6011 L445.0643,171.6631 C445.0643,169.188421 444.41664,167.30344 443.1213,166.0081 C441.82596,164.71276 440.076311,164.0651 437.8723,164.0651 C435.28162,164.0651 433.193641,164.915758 431.6083,166.6171 C430.022959,168.318442 429.2303,170.657752 429.2303,173.6351 L429.2303,192.6011 C429.2303,192.833101 429.152967,193.026433 428.9983,193.1811 C428.843633,193.335767 428.650301,193.4131 428.4183,193.4131 L425.5183,193.4131 C425.286299,193.4131 425.092967,193.335767 424.9383,193.1811 Z M461.1593,203.3891 C458.858622,202.03576 457.7083,200.025113 457.7083,197.3571 C457.7083,196.00376 458.01763,194.70844 458.6363,193.4711 C459.25497,192.23376 460.086295,191.209104 461.1303,190.3971 C460.163629,189.739763 459.457969,189.07277 459.0133,188.3961 C458.568631,187.71943 458.3463,186.897772 458.3463,185.9311 C458.3463,184.732427 458.68463,183.591772 459.3613,182.5091 C460.03797,181.426428 460.956294,180.51777 462.1163,179.7831 C460.801627,178.777762 459.77697,177.530774 459.0423,176.0421 C458.30763,174.553426 457.9403,172.900442 457.9403,171.0831 C457.9403,168.879089 458.471961,166.926442 459.5353,165.2251 C460.598639,163.523758 462.038958,162.209105 463.8563,161.2811 C465.673642,160.353095 467.684289,159.8891 469.8883,159.8891 C471.396308,159.8891 472.904292,160.140431 474.4123,160.6431 L485.8963,160.6431 C486.128301,160.6431 486.321633,160.720433 486.4763,160.8751 C486.630967,161.029767 486.7083,161.223099 486.7083,161.4551 L486.7083,164.1231 C486.7083,164.355101 486.630967,164.548433 486.4763,164.7031 C486.321633,164.857767 486.128301,164.9351 485.8963,164.9351 L480.0383,164.9351 C481.236973,166.675109 481.8363,168.724422 481.8363,171.0831 C481.8363,173.287111 481.304639,175.239758 480.2413,176.9411 C479.177961,178.642442 477.737642,179.957095 475.9203,180.8851 C474.102958,181.813105 472.092311,182.2771 469.8883,182.2771 C468.418959,182.2771 466.891641,182.025769 465.3063,181.5231 C464.455629,181.909769 463.798302,182.41243 463.3343,183.0311 C462.870298,183.64977 462.6383,184.307097 462.6383,185.0031 C462.6383,185.892438 463.024963,186.549765 463.7983,186.9751 C464.41697,187.323102 465.325627,187.574433 466.5243,187.7291 C467.722973,187.883767 469.598287,188.077099 472.1503,188.3091 L474.4123,188.4831 C476.268309,188.637767 477.863293,188.889098 479.1973,189.2371 C480.531307,189.585102 481.671962,190.261762 482.6193,191.2671 C483.566638,192.272438 484.0403,193.741757 484.0403,195.6751 C484.0403,198.845783 482.74498,201.262425 480.1543,202.9251 C477.56362,204.587775 474.218987,205.4191 470.1203,205.4191 C466.446948,205.4191 463.459978,204.74244 461.1593,203.3891 Z M475.3693,176.2741 C476.741974,174.940093 477.4283,173.209777 477.4283,171.0831 C477.4283,168.956423 476.741974,167.226107 475.3693,165.8921 C473.996626,164.558093 472.169645,163.8911 469.8883,163.8911 C467.606955,163.8911 465.779974,164.558093 464.4073,165.8921 C463.034626,167.226107 462.3483,168.956423 462.3483,171.0831 C462.3483,173.209777 463.034626,174.940093 464.4073,176.2741 C465.779974,177.608107 467.606955,178.2751 469.8883,178.2751 C472.169645,178.2751 473.996626,177.608107 475.3693,176.2741 Z M477.2543,200.1411 C478.955642,199.290429 479.8063,197.956442 479.8063,196.1391 C479.8063,195.211095 479.564636,194.515102 479.0813,194.0511 C478.597964,193.587098 477.940637,193.268101 477.1093,193.0941 C476.277963,192.920099 475.050308,192.755767 473.4263,192.6011 C473.078298,192.562433 472.25664,192.494767 470.9613,192.3981 C469.66596,192.301433 468.244974,192.156434 466.6983,191.9631 C465.770295,191.847099 464.99697,191.731101 464.3783,191.6151 C463.604963,192.195103 462.995969,192.910429 462.5513,193.7611 C462.106631,194.611771 461.8843,195.481762 461.8843,196.3711 C461.8843,198.149776 462.705958,199.435429 464.3493,200.2281 C465.992642,201.020771 468.090287,201.4171 470.6423,201.4171 C473.34898,201.4171 475.552958,200.991771 477.2543,200.1411 Z" id="Marketing" fill="#003A40"></path>
                <g id="Group" fill-rule="nonzero">
                    <path d="M218.7,131.7 C213.7,128.8 209.7,124.8 206.8,119.8 C203.9,114.8 202.4,109.3 202.4,103.3 L202.4,76.8 C202.4,70.8 203.9,65.3 206.8,60.3 C209.7,55.3 213.7,51.3 218.7,48.4 C223.7,45.5 229.2,44 235.1,44 C241,44 246.5,45.5 251.5,48.4 C256.5,51.3 260.5,55.3 263.4,60.3 C266.3,65.3 267.8,70.8 267.8,76.8 L267.8,103.3 C267.8,109.3 266.3,114.8 263.4,119.8 C260.5,124.8 256.5,128.8 251.5,131.7 C246.5,134.6 241,136.1 235.1,136.1 C229.2,136.1 223.7,134.6 218.7,131.7 M243.9,119.1 C246.6,117.4 248.8,115.2 250.4,112.4 C252,109.6 252.8,106.6 252.8,103.3 L252.8,76.8 C252.8,73.6 252,70.5 250.4,67.7 C248.8,64.9 246.6,62.6 243.9,61 C241.2,59.4 238.3,58.5 235.1,58.5 C232,58.5 229,59.3 226.3,61 C223.6,62.7 221.4,64.9 219.8,67.7 C218.2,70.5 217.4,73.5 217.4,76.8 L217.4,103.3 C217.4,106.5 218.2,109.6 219.8,112.4 C221.4,115.2 223.6,117.5 226.3,119.1 C229,120.8 231.9,121.6 235.1,121.6 C238.2,121.5 241.2,120.7 243.9,119.1" id="Shape" fill="#4DB05B"></path>
                    <path d="M291.8,133.8 C287.5,132.4 283.5,130.3 279.8,127.8 C279.4,127.6 279.1,127.1 278.9,126.5 C278.7,125.9 278.8,125.3 279,124.8 L283.3,117 C283.8,116 284.6,115.5 285.6,115.5 C286.3,115.5 286.9,115.7 287.5,116 C293.7,119.9 299.4,121.8 304.8,121.8 C309.2,121.8 312.6,120.7 315.1,118.6 C317.6,116.5 318.9,113.7 318.9,110.3 C318.9,108.1 318.3,106.2 317,104.6 C315.8,103.1 314.1,101.8 312.1,100.7 C310,99.6 307,98.3 303.1,96.7 L299.5,95.2 C293.9,92.8 289.2,89.7 285.4,86 C281.6,82.3 279.6,76.8 279.6,69.6 C279.6,64.5 280.7,60.1 283,56.2 C285.3,52.3 288.4,49.3 292.5,47.1 C296.5,44.9 301.2,43.9 306.5,43.9 C310.9,43.9 315.2,44.6 319.5,46.1 C323.8,47.6 327.7,49.6 331.2,52.1 C331.6,52.3 331.9,52.8 332.1,53.4 C332.3,54 332.2,54.6 332,55.1 L327.9,62.9 C327.4,63.9 326.6,64.4 325.5,64.4 C324.8,64.4 324.2,64.2 323.6,63.9 C320.4,61.8 317.3,60.3 314.4,59.4 C311.5,58.5 308.9,58 306.6,58 C302.9,58 300,59 297.8,61 C295.7,63 294.6,65.6 294.6,68.8 C294.6,72 295.8,74.7 298.1,76.8 C300.5,78.9 304.2,81 309.4,83.2 C310.1,83.4 313,84.6 317.9,86.6 C322.8,88.6 326.7,91.6 329.6,95.5 C332.5,99.4 333.9,104 333.9,109.3 C333.9,114.4 332.7,119 330.3,123 C327.9,127 324.5,130.1 320.1,132.4 C315.7,134.7 310.7,135.8 305,135.8 C300.5,136 296.1,135.2 291.8,133.8" id="Shape" fill="#4DB05B"></path>
                    <path d="M361.8,131.7 C356.8,128.8 352.9,124.8 349.9,119.8 C347,114.8 345.5,109.3 345.5,103.3 L345.5,76.8 C345.5,70.8 347,65.3 349.9,60.3 C352.8,55.3 356.8,51.3 361.8,48.4 C366.8,45.5 372.2,44 378.2,44 C383.4,44 388.2,44.9 392.7,46.8 C397.1,48.7 400.9,51.4 404.1,54.9 C404.6,55.5 404.8,56.2 404.8,57 C404.8,57.8 404.5,58.7 403.8,59.5 L398.4,65.2 C397.7,65.9 397.1,66.2 396.4,66.2 C395.6,66.2 394.8,65.8 394.2,65.1 C390.1,60.7 384.8,58.5 378.4,58.5 C375.3,58.5 372.3,59.3 369.6,61 C366.9,62.7 364.7,64.9 363.1,67.7 C361.5,70.5 360.7,73.5 360.7,76.8 L360.7,103.3 C360.7,106.5 361.5,109.6 363.1,112.4 C364.7,115.2 366.9,117.5 369.6,119.1 C372.3,120.8 375.2,121.6 378.4,121.6 C381.5,121.6 384.5,120.8 387.2,119.2 C389.9,117.6 392.1,115.5 393.6,112.7 C395.2,110 395.9,107 395.9,103.8 L395.9,97.7 L379.3,97.7 C378.6,97.7 377.9,97.5 377.4,97 C376.9,96.5 376.7,95.9 376.7,95.1 L376.7,86.2 C376.7,85.5 376.9,84.8 377.4,84.3 C377.9,83.8 378.5,83.6 379.3,83.6 L405.4,83.6 C406.9,83.6 408.1,84.1 409.2,85.1 C410.2,86.1 410.7,87.4 410.7,88.9 L410.7,103.3 C410.7,109.3 409.2,114.8 406.3,119.8 C403.4,124.8 399.4,128.8 394.4,131.7 C389.4,134.6 384,136.1 378.2,136.1 C372.2,136.1 366.8,134.6 361.8,131.7" id="Shape" fill="#003A40"></path>
                    <path d="M438,130.5 C433.5,127.9 429.9,124.2 427.3,119.7 C424.7,115.2 423.3,110.2 423.3,104.8 L423.3,91.4 C423.3,86 424.6,81 427.3,76.5 C429.9,72 433.5,68.3 438,65.7 C442.5,63.1 447.4,61.7 452.8,61.7 C458.2,61.7 463.1,63 467.6,65.7 C472.1,68.3 475.7,72 478.3,76.5 C480.9,81.1 482.3,86 482.3,91.4 L482.3,99.7 C482.3,101.2 481.8,102.4 480.8,103.5 C479.8,104.5 478.5,105 477,105 L438.3,105 L438.3,105.6 C438.3,109.7 439.7,113.1 442.6,116 C445.5,118.9 448.9,120.3 452.9,120.3 L472.5,120.3 C473.2,120.3 473.9,120.6 474.4,121.1 C474.9,121.6 475.1,122.2 475.1,123 L475.1,132 C475.1,132.7 474.9,133.4 474.4,133.9 C473.9,134.4 473.3,134.6 472.5,134.6 L452.9,134.6 C447.4,134.5 442.4,133.1 438,130.5 L438,130.5 Z M467.3,91.6 L467.3,90.5 C467.3,86.4 465.9,83 463,80.1 C460.2,77.2 456.7,75.8 452.7,75.8 C448.7,75.8 445.2,77.2 442.4,80.1 C439.6,83 438.1,86.4 438.1,90.5 L438.1,91.6 L467.3,91.6 Z" id="Shape" fill="#003A40"></path>
                    <path d="M508,132.2 C503.5,129.6 499.9,126.1 497.3,121.6 C494.7,117.1 493.4,112.3 493.4,107.1 L493.4,90.7 C493.4,85.5 494.7,80.6 497.3,76.2 C499.9,71.7 503.5,68.2 508,65.6 C512.5,63 517.4,61.7 522.8,61.7 C528.2,61.7 533.1,63 537.6,65.6 C542.1,68.2 545.7,71.8 548.3,76.2 C550.9,80.7 552.3,85.5 552.3,90.7 L552.3,107 C552.3,112.2 551,117.1 548.3,121.5 C545.7,126 542.1,129.5 537.6,132.1 C533.1,134.7 528.2,136 522.8,136 C517.4,136.1 512.4,134.8 508,132.2 M533,117.4 C535.8,114.5 537.3,111.1 537.3,107 L537.3,90.7 C537.3,86.6 535.9,83.2 533,80.3 C530.2,77.4 526.7,76 522.7,76 C518.7,76 515.2,77.4 512.4,80.3 C509.6,83.2 508.1,86.6 508.1,90.7 L508.1,107 C508.1,111.1 509.5,114.5 512.4,117.4 C515.2,120.3 518.7,121.7 522.7,121.7 C526.8,121.7 530.2,120.2 533,117.4" id="Shape" fill="#003A40"></path>
                    <path d="M85.5,36.2 L85.5,18.2 L85.5,0 L74.2,19.8 C43.4,26.7 20.1,53.2 18.1,85.6 L36.2,85.6 C38.4,59.3 59.3,38.4 85.5,36.2" id="Shape" fill="#4DB05B"></path>
                    <path d="M36.2,94.6 L18.2,94.6 L0,94.6 L19.8,105.9 C26.7,136.7 53.2,160 85.6,162 L85.6,143.9 C59.3,141.7 38.4,120.8 36.2,94.6" id="Shape" fill="#003A40"></path>
                    <path d="M143.9,85.5 L162,85.5 L180.2,85.5 L160.4,74.2 C153.5,43.4 127,20.1 94.6,18.1 L94.6,36.2 C120.8,38.4 141.7,59.3 143.9,85.5" id="Shape" fill="#003A40"></path>
                    <path d="M94.5,143.9 L94.5,162 L94.5,180.2 L105.8,160.4 C136.6,153.5 159.9,127 161.9,94.6 L143.8,94.6 C141.7,120.8 120.8,141.7 94.5,143.9" id="Shape" fill="#4DB05B"></path>
                    <path d="M95.6,84.5 L62.2,62.2 L84.5,95.6 L117.9,117.9 L95.6,84.5 Z M90,93.9 C87.8,93.9 86.1,92.1 86.1,90 C86.1,87.8 87.9,86.1 90,86.1 C92.2,86.1 93.9,87.9 93.9,90 C93.9,92.1 92.2,93.9 90,93.9 L90,93.9 Z" id="Shape" fill="#003A40"></path>
                    <polygon id="Shape" fill="#4DB05B" points="84.5 95.6 77 84.4 42.8 90.1 77 95.7 62.2 117.9 84.3 103.1 90 137.3 95.7 103.1"></polygon>
                    <polygon id="Shape" fill="#4DB05B" points="103.1 84.4 117.9 62.2 95.7 77 90 42.8 84.4 77 95.6 84.5 103.1 95.7 137.3 90"></polygon>
                </g>
            </g>
        </g>
    </g>
</svg>