<?xml version="1.0" encoding="utf-8"?>
<!-- Generator: Adobe Illustrator 21.1.0, SVG Export Plug-In . SVG Version: 6.00 Build 0)  -->
<svg version="1.1" id="Layer_1" xmlns="http://www.w3.org/2000/svg" xmlns:xlink="http://www.w3.org/1999/xlink" x="0px" y="0px"
	 viewBox="0 0 363.3 100.2" style="enable-background:new 0 0 363.3 100.2;" xml:space="preserve">
<style type="text/css">
	.st0{fill:#0B3A42;}
	.st1{fill:#4DB05B;}
	.st2{fill:#003A40;}
</style>
<g>
	<path class="st0" d="M100,94.8c-0.2-0.2-0.3-0.4-0.3-0.7V77.3c0-0.1,0-0.2,0.1-0.3c0.1-0.1,0.2-0.1,0.3-0.1h1.4
		c0.1,0,0.2,0,0.3,0.1c0.1,0.1,0.1,0.2,0.1,0.3v15.8h6.6c0.1,0,0.2,0,0.3,0.1c0.1,0.1,0.1,0.2,0.1,0.3v1.3c0,0.1,0,0.2-0.1,0.3
		c-0.1,0.1-0.2,0.1-0.3,0.1h-7.8C100.5,95.1,100.2,95,100,94.8z"/>
	<path class="st0" d="M114.1,94.7c-0.9-0.5-1.6-1.2-2.1-2.1c-0.5-0.9-0.8-1.8-0.8-2.9v-4.1c0-1,0.3-2,0.8-2.9
		c0.5-0.9,1.2-1.6,2.1-2.1s1.8-0.8,2.9-0.8s2,0.3,2.9,0.8s1.6,1.2,2.1,2.1c0.5,0.9,0.8,1.8,0.8,2.9v4.1c0,1-0.3,2-0.8,2.9
		c-0.5,0.9-1.2,1.6-2.1,2.1c-0.9,0.5-1.8,0.8-2.9,0.8S115,95.2,114.1,94.7z M118.8,93c0.6-0.3,1-0.8,1.3-1.3
		c0.3-0.6,0.5-1.2,0.5-1.8v-4.4c0-0.7-0.2-1.3-0.5-1.8s-0.8-1-1.3-1.3c-0.6-0.3-1.2-0.5-1.8-0.5s-1.3,0.2-1.8,0.5s-1,0.8-1.3,1.3
		s-0.5,1.2-0.5,1.8v4.4c0,0.7,0.2,1.3,0.5,1.8c0.3,0.6,0.8,1,1.3,1.3s1.2,0.5,1.8,0.5S118.2,93.3,118.8,93z"/>
	<path class="st0" d="M129,94.7c-0.9-0.5-1.6-1.2-2.1-2.1c-0.5-0.9-0.8-1.8-0.8-2.9v-4.1c0-1,0.3-2,0.8-2.9c0.5-0.9,1.2-1.6,2.1-2.1
		s1.8-0.8,2.9-0.8c0.8,0,1.5,0.1,2.1,0.4c0.7,0.3,1.3,0.7,1.8,1.2c0.1,0.1,0.2,0.2,0.2,0.4c0,0.1-0.1,0.3-0.2,0.4
		c-0.2,0.2-0.4,0.4-0.6,0.6c-0.1,0.1-0.3,0.2-0.4,0.2c-0.2,0-0.3-0.1-0.4-0.2c-0.7-0.6-1.5-1-2.5-1c-0.7,0-1.3,0.2-1.8,0.5
		s-1,0.8-1.3,1.3s-0.5,1.2-0.5,1.8v4.4c0,0.7,0.2,1.3,0.5,1.8c0.3,0.6,0.8,1,1.3,1.3s1.2,0.5,1.8,0.5c1,0,1.8-0.3,2.5-1
		c0.1-0.1,0.3-0.2,0.4-0.2c0.1,0,0.3,0.1,0.4,0.2c0.2,0.2,0.4,0.4,0.6,0.6c0.1,0.1,0.2,0.2,0.2,0.4c0,0.1-0.1,0.3-0.2,0.4
		c-0.5,0.5-1.1,0.9-1.8,1.2c-0.7,0.3-1.4,0.4-2.1,0.4C130.9,95.4,129.9,95.2,129,94.7z"/>
	<path class="st0" d="M139.9,94.3c-0.9-0.8-1.3-1.8-1.3-3c0-1.2,0.4-2.1,1.2-2.9c0.8-0.8,1.9-1.2,3.3-1.4l3.4-0.5
		c0.5-0.1,0.9-0.2,1.1-0.5c0.2-0.3,0.3-0.7,0.3-1.2v-0.2c0-0.8-0.3-1.5-1-2s-1.5-0.8-2.5-0.8c-0.8,0-1.4,0.2-2,0.5
		c-0.6,0.3-1,0.7-1.3,1.3c-0.1,0.2-0.3,0.3-0.5,0.3c-0.1,0-0.2,0-0.3-0.1l-0.7-0.5c-0.2-0.1-0.2-0.3-0.2-0.4c0-0.1,0-0.2,0.1-0.3
		c0.5-0.8,1.2-1.5,2.1-2c0.9-0.5,1.9-0.7,3.1-0.7c1,0,2,0.2,2.8,0.6c0.8,0.4,1.5,0.9,1.9,1.7c0.4,0.7,0.7,1.5,0.7,2.5v10.1
		c0,0.1,0,0.2-0.1,0.3c-0.1,0.1-0.2,0.1-0.3,0.1h-1.1c-0.1,0-0.2,0-0.3-0.1c-0.1-0.1-0.1-0.2-0.1-0.3v-1.8c-0.5,0.8-1.2,1.4-2.1,1.8
		c-0.8,0.4-1.8,0.7-2.8,0.7C141.8,95.4,140.7,95.1,139.9,94.3z M145.7,92.9c0.7-0.5,1.2-1,1.6-1.7s0.6-1.4,0.6-2v-1.1
		c-0.4,0.1-1.8,0.2-4,0.6l-0.7,0.1c-1.7,0.3-2.6,1.1-2.6,2.5c0,0.7,0.3,1.3,0.8,1.7s1.2,0.7,2,0.7C144.2,93.6,145,93.4,145.7,92.9z"
		/>
	<path class="st0" d="M155.4,94.8c-0.2-0.2-0.3-0.4-0.3-0.7v-17h-2.4c-0.1,0-0.2,0-0.3-0.1c-0.1-0.1-0.1-0.2-0.1-0.3v-1.2
		c0-0.1,0-0.2,0.1-0.3c0.1-0.1,0.2-0.1,0.3-0.1h3.5c0.3,0,0.5,0.1,0.7,0.3c0.2,0.2,0.3,0.4,0.3,0.7v17h2.8c0.1,0,0.2,0,0.3,0.1
		c0.1,0.1,0.1,0.2,0.1,0.3v1.2c0,0.1,0,0.2-0.1,0.3c-0.1,0.1-0.2,0.1-0.3,0.1h-3.9C155.8,95.1,155.6,95,155.4,94.8z"/>
	<path class="st0" d="M173.2,94.6c-1-0.6-1.7-1.4-2.3-2.3s-0.8-2-0.8-3.2v-6.1c0-1.2,0.3-2.2,0.8-3.2s1.3-1.8,2.3-2.3
		c1-0.6,2-0.9,3.1-0.9c0.9,0,1.8,0.2,2.6,0.5c0.8,0.3,1.5,0.8,2.1,1.4c0.1,0.1,0.1,0.2,0.1,0.3c0,0.1,0,0.2-0.1,0.3
		c-0.4,0.4-0.6,0.7-0.7,0.8c-0.1,0.1-0.2,0.1-0.4,0.1c-0.1,0-0.3-0.1-0.4-0.2c-0.9-0.8-1.9-1.3-3.2-1.3c-0.8,0-1.4,0.2-2.1,0.6
		c-0.6,0.4-1.1,0.9-1.5,1.6c-0.4,0.7-0.6,1.4-0.6,2.2v6.1c0,0.8,0.2,1.5,0.6,2.2s0.9,1.2,1.5,1.6c0.6,0.4,1.3,0.6,2.1,0.6
		c1.3,0,2.4-0.4,3.2-1.3c0.1-0.1,0.3-0.2,0.4-0.2c0.1,0,0.2,0,0.4,0.1c0.1,0.1,0.3,0.4,0.7,0.8c0.1,0.1,0.1,0.2,0.1,0.3
		c0,0.1,0,0.2-0.1,0.3c-0.6,0.6-1.3,1.1-2.1,1.4c-0.8,0.3-1.7,0.5-2.6,0.5C175.2,95.4,174.1,95.2,173.2,94.6z"/>
	<path class="st0" d="M185,95c-0.1-0.1-0.1-0.2-0.1-0.3V75.6c0-0.1,0-0.2,0.1-0.3c0.1-0.1,0.2-0.1,0.3-0.1h1.3c0.1,0,0.2,0,0.3,0.1
		c0.1,0.1,0.1,0.2,0.1,0.3v6.5c0.5-0.7,1-1.3,1.8-1.6c0.7-0.4,1.5-0.5,2.5-0.5c1.5,0,2.7,0.5,3.6,1.4c0.9,0.9,1.4,2.1,1.4,3.6v9.9
		c0,0.1,0,0.2-0.1,0.3c-0.1,0.1-0.2,0.1-0.3,0.1h-1.3c-0.1,0-0.2,0-0.3-0.1c-0.1-0.1-0.1-0.2-0.1-0.3v-9.5c0-1.1-0.3-2-0.9-2.6
		c-0.6-0.6-1.4-0.9-2.4-0.9c-1.2,0-2.1,0.4-2.8,1.2c-0.7,0.8-1.1,1.8-1.1,3.2v8.6c0,0.1,0,0.2-0.1,0.3c-0.1,0.1-0.2,0.1-0.3,0.1
		h-1.3C185.1,95.1,185,95.1,185,95z"/>
	<path class="st0" d="M200.7,94.3c-0.9-0.8-1.3-1.8-1.3-3c0-1.2,0.4-2.1,1.2-2.9c0.8-0.8,1.9-1.2,3.3-1.4l3.4-0.5
		c0.5-0.1,0.9-0.2,1.1-0.5c0.2-0.3,0.3-0.7,0.3-1.2v-0.2c0-0.8-0.3-1.5-1-2s-1.5-0.8-2.5-0.8c-0.8,0-1.4,0.2-2,0.5
		c-0.6,0.3-1,0.7-1.3,1.3c-0.1,0.2-0.3,0.3-0.5,0.3c-0.1,0-0.2,0-0.3-0.1l-0.7-0.5c-0.2-0.1-0.2-0.3-0.2-0.4c0-0.1,0-0.2,0.1-0.3
		c0.5-0.8,1.2-1.5,2.1-2c0.9-0.5,1.9-0.7,3.1-0.7c1,0,2,0.2,2.8,0.6c0.8,0.4,1.5,0.9,1.9,1.7c0.4,0.7,0.7,1.5,0.7,2.5v10.1
		c0,0.1,0,0.2-0.1,0.3c-0.1,0.1-0.2,0.1-0.3,0.1h-1.1c-0.1,0-0.2,0-0.3-0.1c-0.1-0.1-0.1-0.2-0.1-0.3v-1.8c-0.5,0.8-1.2,1.4-2.1,1.8
		c-0.8,0.4-1.8,0.7-2.8,0.7C202.6,95.4,201.5,95.1,200.7,94.3z M206.5,92.9c0.7-0.5,1.2-1,1.6-1.7s0.6-1.4,0.6-2v-1.1
		c-0.4,0.1-1.8,0.2-4,0.6l-0.7,0.1c-1.7,0.3-2.6,1.1-2.6,2.5c0,0.7,0.3,1.3,0.8,1.7s1.2,0.7,2,0.7C205,93.6,205.8,93.4,206.5,92.9z"
		/>
	<path class="st0" d="M215.2,100.1c-0.1-0.1-0.1-0.2-0.1-0.3V80.6c0-0.1,0-0.2,0.1-0.3c0.1-0.1,0.2-0.1,0.3-0.1h1.2
		c0.1,0,0.2,0,0.3,0.1c0.1,0.1,0.1,0.2,0.1,0.3v1.2c0.5-0.6,1.1-1.1,1.8-1.4c0.7-0.3,1.4-0.5,2.2-0.5c1,0,1.9,0.2,2.8,0.7
		c0.8,0.5,1.5,1.2,2,2s0.7,1.8,0.7,2.8V90c0,1-0.2,1.9-0.7,2.8s-1.2,1.5-2,2s-1.8,0.7-2.8,0.7c-0.7,0-1.4-0.1-2.1-0.4
		c-0.7-0.3-1.3-0.6-1.8-1.1v5.8c0,0.1,0,0.2-0.1,0.3c-0.1,0.1-0.2,0.1-0.3,0.1h-1.3C215.4,100.2,215.3,100.1,215.2,100.1z M222.7,93
		c0.6-0.3,1-0.8,1.3-1.3c0.3-0.6,0.5-1.2,0.5-1.8v-4.4c0-0.7-0.2-1.3-0.5-1.8s-0.8-1-1.3-1.3s-1.2-0.5-1.8-0.5s-1.3,0.2-1.8,0.5
		c-0.6,0.3-1,0.8-1.3,1.3c-0.3,0.6-0.5,1.2-0.5,1.8v4.4c0,0.7,0.2,1.3,0.5,1.8c0.3,0.6,0.8,1,1.3,1.3c0.6,0.3,1.2,0.5,1.8,0.5
		S222.1,93.3,222.7,93z"/>
	<path class="st0" d="M232.2,94c-0.7-0.8-1.1-1.7-1.1-2.9v-8.9h-1.7c-0.1,0-0.2,0-0.3-0.1c-0.1-0.1-0.1-0.2-0.1-0.3v-1.2
		c0-0.1,0-0.2,0.1-0.3c0.1-0.1,0.2-0.1,0.3-0.1h1.7v-2.8c0-0.1,0-0.2,0.1-0.3c0.1-0.1,0.2-0.1,0.3-0.1h1.3c0.1,0,0.2,0,0.3,0.1
		c0.1,0.1,0.1,0.2,0.1,0.3v2.8h4.6c0.1,0,0.2,0,0.3,0.1c0.1,0.1,0.1,0.2,0.1,0.3v1.2c0,0.1,0,0.2-0.1,0.3c-0.1,0.1-0.2,0.1-0.3,0.1
		h-4.6v8.7c0,0.7,0.2,1.2,0.6,1.6c0.4,0.4,0.9,0.6,1.6,0.6l2.4,0c0.1,0,0.2,0,0.3,0.1c0.1,0.1,0.1,0.2,0.1,0.3v1.2
		c0,0.1,0,0.2-0.1,0.3c-0.1,0.1-0.2,0.1-0.3,0.1h-2.6C233.9,95.1,232.9,94.7,232.2,94z"/>
	<path class="st0" d="M243.7,94.3c-0.9-0.5-1.6-1.2-2.1-2.1c-0.5-0.9-0.8-1.8-0.8-2.9v-3.7c0-1,0.3-2,0.8-2.9
		c0.5-0.9,1.2-1.6,2.1-2.1s1.8-0.8,2.9-0.8s2,0.3,2.9,0.8s1.6,1.2,2.1,2.1c0.5,0.9,0.8,1.8,0.8,2.9v1.8c0,0.3-0.1,0.5-0.3,0.7
		s-0.4,0.3-0.7,0.3h-8.4v1.2c0,0.7,0.2,1.3,0.5,1.8c0.3,0.6,0.8,1,1.3,1.3s1.2,0.5,1.8,0.5h3.8c0.1,0,0.2,0,0.3,0.1
		c0.1,0.1,0.1,0.2,0.1,0.3v1.2c0,0.1,0,0.2-0.1,0.3c-0.1,0.1-0.2,0.1-0.3,0.1h-3.8C245.5,95.1,244.6,94.9,243.7,94.3z M250.2,86.5
		v-1c0-0.7-0.2-1.3-0.5-1.8s-0.8-1-1.3-1.3c-0.6-0.3-1.2-0.5-1.8-0.5s-1.3,0.2-1.8,0.5s-1,0.8-1.3,1.3s-0.5,1.2-0.5,1.8v1H250.2z"/>
	<path class="st0" d="M255.1,95c-0.1-0.1-0.1-0.2-0.1-0.3v-1.2c0-0.1,0-0.2,0.1-0.3c0.1-0.1,0.2-0.1,0.3-0.1h2.2v-11h-2.2
		c-0.1,0-0.2,0-0.3-0.1c-0.1-0.1-0.1-0.2-0.1-0.3v-1.1c0-0.1,0-0.2,0.1-0.3c0.1-0.1,0.2-0.1,0.3-0.1h3.3c0.3,0,0.5,0.1,0.7,0.3
		c0.2,0.2,0.3,0.4,0.3,0.7v1.3l1.5-1.2c0.6-0.5,1.1-0.8,1.5-1c0.4-0.2,0.8-0.2,1.2-0.2h0.8c0.1,0,0.2,0,0.3,0.1
		c0.1,0.1,0.1,0.2,0.1,0.3v1.3c0,0.1,0,0.2-0.1,0.3c-0.1,0.1-0.2,0.1-0.3,0.1h-0.6c-0.4,0-0.8,0.1-1.2,0.3c-0.4,0.2-1,0.6-1.7,1.2
		l-1.5,1.2v8.3h3c0.1,0,0.2,0,0.3,0.1c0.1,0.1,0.1,0.2,0.1,0.3v1.2c0,0.1,0,0.2-0.1,0.3c-0.1,0.1-0.2,0.1-0.3,0.1h-7.3
		C255.2,95.1,255.1,95.1,255.1,95z"/>
</g>
<g>
	<path class="st1" d="M105.3,63.4c-2.4-1.4-4.3-3.3-5.7-5.7c-1.4-2.4-2.1-5.1-2.1-7.9V37c0-2.9,0.7-5.5,2.1-7.9
		c1.4-2.4,3.3-4.3,5.7-5.7c2.4-1.4,5.1-2.1,7.9-2.1c2.9,0,5.5,0.7,7.9,2.1c2.4,1.4,4.3,3.3,5.7,5.7c1.4,2.4,2.1,5.1,2.1,7.9v12.7
		c0,2.9-0.7,5.5-2.1,7.9c-1.4,2.4-3.3,4.3-5.7,5.7c-2.4,1.4-5.1,2.1-7.9,2.1C110.3,65.5,107.7,64.8,105.3,63.4 M117.4,57.3
		c1.3-0.8,2.3-1.9,3.1-3.2c0.8-1.4,1.2-2.8,1.2-4.4V37c0-1.6-0.4-3-1.2-4.4c-0.8-1.4-1.8-2.4-3.1-3.2c-1.3-0.8-2.7-1.2-4.2-1.2
		c-1.5,0-2.9,0.4-4.2,1.2c-1.3,0.8-2.3,1.9-3.1,3.2c-0.8,1.4-1.2,2.8-1.2,4.4v12.7c0,1.6,0.4,3,1.2,4.4c0.8,1.4,1.8,2.4,3.1,3.2
		c1.3,0.8,2.7,1.2,4.2,1.2C114.7,58.5,116.1,58.1,117.4,57.3"/>
	<path class="st1" d="M140.5,64.4c-2.1-0.7-4-1.7-5.8-2.9c-0.2-0.1-0.3-0.3-0.4-0.6c-0.1-0.3-0.1-0.6,0.1-0.8l2.1-3.8
		c0.2-0.5,0.6-0.7,1.1-0.7c0.3,0,0.6,0.1,0.9,0.2c3,1.9,5.7,2.8,8.3,2.8c2.1,0,3.8-0.5,5-1.5c1.2-1,1.8-2.3,1.8-4
		c0-1.1-0.3-2-0.9-2.7c-0.6-0.7-1.4-1.4-2.4-1.9c-1-0.5-2.4-1.2-4.3-1.9l-1.7-0.7c-2.7-1.2-5-2.6-6.8-4.4c-1.8-1.8-2.8-4.4-2.8-7.9
		c0-2.4,0.5-4.6,1.6-6.5c1.1-1.9,2.6-3.3,4.6-4.4c1.9-1,4.2-1.6,6.7-1.6c2.1,0,4.2,0.4,6.3,1c2.1,0.7,4,1.7,5.6,2.9
		c0.2,0.1,0.3,0.3,0.4,0.6c0.1,0.3,0.1,0.6-0.1,0.8l-2,3.8c-0.2,0.5-0.6,0.7-1.1,0.7c-0.3,0-0.6-0.1-0.9-0.2c-1.5-1-3-1.7-4.4-2.2
		c-1.4-0.4-2.7-0.7-3.8-0.7c-1.8,0-3.2,0.5-4.2,1.5c-1,1-1.5,2.2-1.5,3.7c0,1.6,0.6,2.8,1.7,3.9c1.1,1,2.9,2,5.4,3.1
		c0.4,0.1,1.7,0.7,4.1,1.6c2.4,1,4.2,2.4,5.6,4.3c1.4,1.9,2.1,4.1,2.1,6.6c0,2.5-0.6,4.7-1.8,6.6c-1.2,1.9-2.8,3.4-4.9,4.5
		c-2.1,1.1-4.5,1.6-7.3,1.6C144.7,65.4,142.6,65.1,140.5,64.4"/>
	<path class="st2" d="M174.2,63.4c-2.4-1.4-4.3-3.3-5.7-5.7c-1.4-2.4-2.1-5.1-2.1-7.9V37c0-2.9,0.7-5.5,2.1-7.9
		c1.4-2.4,3.3-4.3,5.7-5.7c2.4-1.4,5-2.1,7.9-2.1c2.5,0,4.8,0.5,7,1.3c2.1,0.9,4,2.2,5.5,3.9c0.2,0.3,0.4,0.6,0.4,1
		c0,0.4-0.2,0.8-0.5,1.2l-2.6,2.7c-0.3,0.3-0.6,0.5-1,0.5c-0.4,0-0.8-0.2-1.1-0.5c-2-2.1-4.5-3.2-7.6-3.2c-1.5,0-2.9,0.4-4.2,1.2
		c-1.3,0.8-2.4,1.9-3.1,3.2c-0.8,1.4-1.2,2.8-1.2,4.4v12.7c0,1.6,0.4,3,1.2,4.4c0.8,1.4,1.8,2.4,3.1,3.2c1.3,0.8,2.7,1.2,4.2,1.2
		c1.5,0,2.9-0.4,4.2-1.1c1.3-0.8,2.3-1.8,3.1-3.1c0.8-1.3,1.1-2.8,1.1-4.3V47h-8c-0.4,0-0.7-0.1-0.9-0.4c-0.2-0.2-0.4-0.5-0.4-0.9
		v-4.3c0-0.4,0.1-0.7,0.4-0.9c0.2-0.2,0.5-0.4,0.9-0.4h12.6c0.7,0,1.3,0.2,1.8,0.7c0.5,0.5,0.7,1.1,0.7,1.8v6.9
		c0,2.9-0.7,5.5-2.1,7.9c-1.4,2.4-3.3,4.3-5.7,5.7c-2.4,1.4-5,2.1-7.8,2.1C179.2,65.5,176.6,64.8,174.2,63.4"/>
	<path class="st2" d="M210.8,62.8c-2.2-1.3-3.9-3-5.1-5.2c-1.3-2.2-1.9-4.6-1.9-7.2V44c0-2.6,0.6-5,1.9-7.2c1.3-2.2,3-3.9,5.1-5.2
		c2.2-1.3,4.5-1.9,7.1-1.9c2.6,0,4.9,0.6,7.1,1.9c2.2,1.3,3.9,3,5.1,5.2c1.3,2.2,1.9,4.6,1.9,7.2v4c0,0.7-0.3,1.3-0.7,1.8
		c-0.5,0.5-1.1,0.7-1.8,0.7h-18.6v0.3c0,2,0.7,3.6,2.1,5c1.4,1.4,3,2.1,5,2.1h9.5c0.4,0,0.7,0.1,0.9,0.4c0.2,0.2,0.4,0.5,0.4,0.9
		v4.3c0,0.4-0.1,0.7-0.4,0.9c-0.2,0.2-0.5,0.4-0.9,0.4h-9.5C215.4,64.7,213,64.1,210.8,62.8 M225,44.1v-0.5c0-2-0.7-3.6-2.1-5
		c-1.4-1.4-3-2.1-5-2.1c-1.9,0-3.6,0.7-5,2.1c-1.4,1.4-2.1,3-2.1,5v0.5H225z"/>
	<path class="st2" d="M244.5,63.6c-2.2-1.3-3.9-3-5.1-5.1c-1.3-2.2-1.9-4.5-1.9-7v-7.8c0-2.5,0.6-4.8,1.9-7c1.3-2.1,3-3.9,5.1-5.1
		c2.2-1.3,4.5-1.9,7.1-1.9c2.6,0,4.9,0.6,7.1,1.9c2.2,1.3,3.9,3,5.1,5.1c1.3,2.2,1.9,4.5,1.9,7v7.8c0,2.5-0.6,4.8-1.9,7
		c-1.3,2.2-3,3.9-5.1,5.1c-2.2,1.3-4.5,1.9-7.1,1.9C249.1,65.5,246.7,64.9,244.5,63.6 M256.6,56.5c1.4-1.4,2.1-3,2.1-5v-7.8
		c0-2-0.7-3.6-2.1-5c-1.4-1.4-3-2.1-5-2.1c-1.9,0-3.6,0.7-5,2.1c-1.4,1.4-2.1,3-2.1,5v7.8c0,2,0.7,3.6,2.1,5c1.4,1.4,3,2.1,5,2.1
		C253.6,58.6,255.2,57.9,256.6,56.5"/>
	<path class="st1" d="M41.2,17.4V8.7V0l-5.4,9.5c-14.8,3.3-26,16.1-27,31.7h8.7C18.5,28.6,28.5,18.5,41.2,17.4"/>
	<path class="st2" d="M17.4,45.5H8.7H0L9.5,51c3.3,14.8,16.1,26,31.7,27v-8.7C28.5,68.2,18.5,58.2,17.4,45.5"/>
	<path class="st2" d="M69.3,41.2H78h8.7l-9.5-5.4c-3.3-14.8-16.1-26-31.7-27v8.7C58.1,18.5,68.2,28.5,69.3,41.2"/>
	<path class="st1" d="M45.5,69.3V78v8.7l5.4-9.5c14.8-3.3,26-16.1,27-31.7h-8.7C68.2,58.1,58.1,68.2,45.5,69.3"/>
	<path class="st2" d="M46,40.7L29.9,29.9L40.7,46l16.1,10.7L46,40.7z M43.3,45.2c-1,0-1.9-0.8-1.9-1.9c0-1,0.8-1.9,1.9-1.9
		c1,0,1.9,0.8,1.9,1.9C45.2,44.4,44.4,45.2,43.3,45.2"/>
	<polygon class="st1" points="40.7,46 37.1,40.6 20.6,43.4 37.1,46.1 29.9,56.8 40.6,49.6 43.3,66.1 46.1,49.6 	"/>
	<polygon class="st1" points="49.6,40.6 56.8,29.9 46.1,37.1 43.3,20.6 40.6,37.1 46,40.7 49.6,46.1 66.1,43.3 	"/>
</g>
<g>
	<path class="st2" d="M297.3,64.5c-0.2-0.2-0.4-0.5-0.4-0.9V24.5c0-0.7,0.2-1.3,0.8-1.8c0.5-0.5,1.1-0.8,1.8-0.8h11.2
		c2.4,0,4.7,0.6,6.7,1.7c2,1.2,3.7,2.7,4.9,4.7c1.2,2,1.8,4.2,1.8,6.5c0,2.9-0.9,5.5-2.6,7.7c-1.7,2.3-4,3.8-6.7,4.6l10,15.4
		c0.2,0.3,0.2,0.6,0.2,0.8c0,0.4-0.1,0.7-0.4,0.9c-0.3,0.2-0.6,0.4-1,0.4h-4.9c-0.7,0-1.2-0.3-1.6-0.8l-10-16h-2.9v15.6
		c0,0.4-0.1,0.7-0.4,0.9c-0.2,0.2-0.5,0.4-0.9,0.4h-4.8C297.8,64.8,297.5,64.7,297.3,64.5z M310.4,41.1c1.8,0,3.3-0.6,4.5-1.7
		c1.2-1.1,1.8-2.6,1.8-4.3c0-1.8-0.6-3.3-1.8-4.4c-1.2-1.2-2.7-1.7-4.5-1.7h-6.1v12.2H310.4z"/>
	<path class="st2" d="M339.4,63.5c-2.4-1.4-4.4-3.3-5.8-5.8c-1.4-2.4-2.1-5.1-2.1-8V37c0-2.9,0.7-5.5,2.1-8c1.4-2.4,3.3-4.3,5.8-5.8
		c2.4-1.4,5.1-2.1,8-2.1c2.9,0,5.5,0.7,8,2.1c2.4,1.4,4.4,3.3,5.8,5.8c1.4,2.4,2.1,5.1,2.1,8v12.8c0,2.9-0.7,5.5-2.1,8
		c-1.4,2.4-3.4,4.3-5.8,5.8c-2.4,1.4-5.1,2.1-8,2.1C344.5,65.6,341.8,64.9,339.4,63.5z M351.6,57.4c1.3-0.8,2.4-1.9,3.1-3.2
		c0.8-1.4,1.2-2.8,1.2-4.4V37c0-1.6-0.4-3-1.2-4.4c-0.8-1.4-1.8-2.4-3.1-3.2c-1.3-0.8-2.7-1.2-4.3-1.2s-2.9,0.4-4.3,1.2
		c-1.3,0.8-2.4,1.9-3.1,3.2c-0.8,1.4-1.2,2.8-1.2,4.4v12.8c0,1.6,0.4,3,1.2,4.4c0.8,1.4,1.8,2.4,3.1,3.2c1.3,0.8,2.7,1.2,4.3,1.2
		S350.3,58.2,351.6,57.4z"/>
</g>
<circle class="st1" cx="280.9" cy="43.4" r="4.2"/>
</svg>
