<?xml version="1.0" encoding="UTF-8"?>
<svg width="400px" height="400px" viewBox="0 0 400 400" version="1.1" xmlns="http://www.w3.org/2000/svg" xmlns:xlink="http://www.w3.org/1999/xlink">
    <!-- Generator: Sketch 46.2 (44496) - http://www.bohemiancoding.com/sketch -->
    <title>osgeo-ko-emblem-circle</title>
    <desc>Created with Sketch.</desc>
    <defs></defs>
    <g id="Page-1" stroke="none" stroke-width="1" fill="none" fill-rule="evenodd">
        <g id="osgeo-ko-emblem-circle">
            <polygon id="Fill-1" fill="#FFFFFE" points="0.171428571 400 398.185714 400 398.185714 1.81714286 0.171428571 1.81714286"></polygon>
            <path d="M190.348571,96.4142857 L190.348571,26.1028571 L168.42,64.48 C108.7,77.8485714 63.4228571,129.388571 59.5485714,192.162857 L94.5942857,192.162857 C98.8,141.22 139.402857,100.62 190.348571,96.4142857" id="Fill-3" fill="#46AE65"></path>
            <path d="M94.5885714,209.645714 L24.2857143,209.645714 L62.6628571,231.571429 C76.0314286,291.291429 127.571429,336.568571 190.345714,340.442857 L190.345714,305.394286 C139.402857,301.185714 98.7971429,260.588571 94.5885714,209.645714" id="Fill-4" fill="#0C3034"></path>
            <path d="M303.582857,192.162857 L373.888571,192.162857 L335.511429,170.237143 C322.145714,110.517143 270.605714,65.2371429 207.831429,61.3657143 L207.831429,96.4142857 C258.774286,100.622857 299.377143,141.22 303.582857,192.162857" id="Fill-5" fill="#0C3034"></path>
            <path d="M207.828571,305.394286 L207.828571,400 L398.185714,400 L398.185714,209.645714 L303.58,209.645714 C299.374286,260.588571 258.771429,301.185714 207.828571,305.394286" id="Fill-6" fill="#46AE65"></path>
            <path d="M198.98,208.391429 C194.754286,208.391429 191.331429,204.968571 191.331429,200.745714 C191.331429,196.52 194.754286,193.097143 198.98,193.097143 C203.202857,193.097143 206.625714,196.52 206.625714,200.745714 C206.625714,204.968571 203.202857,208.391429 198.98,208.391429 M209.902857,190.085714 L145.011429,146.828571 L188.271429,211.72 L253.168571,254.982857 L209.902857,190.085714" id="Fill-7" fill="#0C3034"></path>
            <polyline id="Fill-8" fill="#46AE65" points="188.271429 211.72 173.685714 189.842857 107.317143 200.905714 173.685714 211.962857 145.014286 254.977143 188.028571 226.305714 199.085714 292.674286 210.148571 226.305714 188.271429 211.72"></polyline>
            <polyline id="Fill-9" fill="#46AE65" points="224.488571 189.842857 253.165714 146.828571 210.151429 175.505714 199.088571 109.131429 188.025714 175.505714 209.9 190.088571 224.488571 211.962857 290.857143 200.905714 224.488571 189.842857"></polyline>
            <text id="KO" font-family="MiriamLibre-Bold, Miriam Libre" font-size="48" font-weight="bold" letter-spacing="-0.100000001" fill="#FFFFFE">
                <tspan x="271" y="323">K</tspan>
                <tspan x="300.084" y="323">O</tspan>
            </text>
        </g>
    </g>
</svg>