<?xml version="1.0" encoding="UTF-8" standalone="no"?>
<!-- Created with Inkscape (http://www.inkscape.org/) -->

<svg
   width="70.747383mm"
   height="16.137459mm"
   viewBox="0 0 70.747383 16.137459"
   version="1.1"
   id="svg5"
   inkscape:version="1.1.2 (0a00cf5339, 2022-02-04)"
   sodipodi:docname="deegree_logo_final-pfade-test.svg"
   xmlns:inkscape="http://www.inkscape.org/namespaces/inkscape"
   xmlns:sodipodi="http://sodipodi.sourceforge.net/DTD/sodipodi-0.dtd"
   xmlns="http://www.w3.org/2000/svg"
   xmlns:svg="http://www.w3.org/2000/svg">
  <sodipodi:namedview
     id="namedview7"
     pagecolor="#ffffff"
     bordercolor="#000000"
     borderopacity="0.25"
     inkscape:showpageshadow="2"
     inkscape:pageopacity="0.0"
     inkscape:pagecheckerboard="0"
     inkscape:deskcolor="#d1d1d1"
     inkscape:document-units="mm"
     showgrid="false"
     inkscape:zoom="4.2835116"
     inkscape:cx="168.20312"
     inkscape:cy="64.549843"
     inkscape:window-width="2504"
     inkscape:window-height="1376"
     inkscape:window-x="56"
     inkscape:window-y="27"
     inkscape:window-maximized="1"
     inkscape:current-layer="layer1"
     inkscape:pageshadow="2" />
  <defs
     id="defs2">
    <rect
       x="150.66698"
       y="372.33105"
       width="462.09253"
       height="105.9505"
       id="rect113" />
  </defs>
  <g
     inkscape:label="Layer 1"
     inkscape:groupmode="layer"
     id="layer1"
     transform="translate(-67.06579,-109.56324)">
    <g
       transform="matrix(0.26458333,0,0,0.26458333,26.490871,8.0062815)"
       id="text111"
       style="font-size:64px;white-space:pre;shape-inside:url(#rect113);display:inline">
      <path
         d="m 190.47402,383.83732 h -4.736 v 18.368 h -0.128 c -2.752,-4.544 -8.192,-6.848 -13.44,-6.848 -10.176,0 -18.816,7.744 -18.816,18.176 0,5.12 2.112,9.728 3.84,11.2 4.928,5.184 9.6,7.232 14.656,7.232 6.08,0 10.624,-2.304 14.016,-7.232 h 0.128 v 6.4 h 4.48 z m -4.608,29.632 c 0,7.68 -6.208,13.952 -13.888,13.952 -7.68,0 -13.888,-6.272 -13.888,-13.952 0,-7.552 6.336,-13.568 13.76,-13.568 7.616,0 14.016,5.824 14.016,13.568 z"
         id="path11" />
      <path
         d="m 233.60998,415.32532 c -0.128,-5.056 -0.832,-9.152 -4.096,-13.184 -3.52,-4.288 -8.576,-6.784 -14.08,-6.784 -10.176,0 -18.24,8.128 -18.24,18.304 0,10.24 8.128,18.304 18.368,18.304 7.424,0 14.592,-5.184 17.024,-12.224 h -4.928 c -2.112,4.8 -7.36,7.68 -12.544,7.68 -6.464,0 -12.928,-5.44 -13.184,-12.096 z m -31.68,-4.288 c 1.152,-6.464 6.976,-11.136 13.568,-11.136 6.464,0 12.16,4.928 13.376,11.136 z"
         id="path13" />
      <path
         d="m 275.20996,415.32532 c -0.128,-5.056 -0.832,-9.152 -4.096,-13.184 -3.52,-4.288 -8.576,-6.784 -14.08,-6.784 -10.176,0 -18.24,8.128 -18.24,18.304 0,10.24 8.128,18.304 18.368,18.304 7.424,0 14.592,-5.184 17.024,-12.224 h -4.928 c -2.112,4.8 -7.36,7.68 -12.544,7.68 -6.464,0 -12.928,-5.44 -13.184,-12.096 z m -31.68,-4.288 c 1.152,-6.464 6.976,-11.136 13.568,-11.136 6.464,0 12.16,4.928 13.376,11.136 z"
         id="path15" />
      <path
         d="m 316.74593,396.12532 h -4.544 v 6.784 h -0.128 c -2.56,-5.056 -8.256,-7.552 -13.824,-7.552 -4.992,0 -9.92,1.728 -14.528,7.552 -1.28,1.408 -3.328,5.888 -3.328,10.816 0,5.12 1.792,9.6 5.504,13.12 3.328,3.136 8,5.12 12.608,5.12 5.44,0 11.456,-2.496 13.568,-7.744 h 0.128 v 1.92 c 0,3.072 0,5.312 -1.536,8.064 -2.304,4.032 -6.976,6.08 -11.456,6.08 -6.016,0 -10.176,-3.136 -12.928,-8.32 h -4.608 c 1.92,7.68 9.472,12.864 17.152,12.864 4.992,0 10.432,-1.984 13.824,-5.696 3.904,-4.224 4.096,-7.552 4.096,-12.992 z m -18.624,3.776 c 7.808,0 14.016,5.888 14.016,13.76 0,3.456 -1.6,7.296 -3.968,9.792 -2.624,2.752 -5.888,3.968 -9.6,3.968 -8,0 -13.44,-6.4 -13.44,-14.144 0,-7.168 5.696,-13.376 12.992,-13.376 z"
         id="path17" />
      <path
         d="m 324.80983,431.13332 h 4.736 v -19.584 c 0,-3.968 0.32,-6.336 3.584,-9.088 1.984,-1.664 3.776,-2.24 6.336,-2.432 v -4.672 c -4.288,0.128 -8.32,1.664 -10.048,5.824 h -0.128 v -5.056 h -4.48 z"
         id="path19" />
      <path
         d="m 379.14575,415.32532 c -0.128,-5.056 -0.832,-9.152 -4.096,-13.184 -3.52,-4.288 -8.576,-6.784 -14.08,-6.784 -10.176,0 -18.24,8.128 -18.24,18.304 0,10.24 8.128,18.304 18.368,18.304 7.424,0 14.592,-5.184 17.024,-12.224 h -4.928 c -2.112,4.8 -7.36,7.68 -12.544,7.68 -6.464,0 -12.928,-5.44 -13.184,-12.096 z m -31.68,-4.288 c 1.152,-6.464 6.976,-11.136 13.568,-11.136 6.464,0 12.16,4.928 13.376,11.136 z"
         style="fill:#fc5414"
         id="path21" />
      <path
         d="m 420.74572,415.32532 c -0.128,-5.056 -0.832,-9.152 -4.096,-13.184 -3.52,-4.288 -8.576,-6.784 -14.08,-6.784 -10.176,0 -18.24,8.128 -18.24,18.304 0,10.24 8.128,18.304 18.368,18.304 7.424,0 14.592,-5.184 17.024,-12.224 h -4.928 c -2.112,4.8 -7.36,7.68 -12.544,7.68 -6.464,0 -12.928,-5.44 -13.184,-12.096 z m -31.68,-4.288 c 1.152,-6.464 6.976,-11.136 13.568,-11.136 6.464,0 12.16,4.928 13.376,11.136 z"
         style="fill:#fc5414"
         id="path23" />
    </g>
  </g>
</svg>
