<?xml version="1.0" encoding="UTF-8"?>
<svg width="596px" height="796px" viewBox="0 0 596 796" version="1.1" xmlns="http://www.w3.org/2000/svg" xmlns:xlink="http://www.w3.org/1999/xlink">
    <!-- Generator: Sketch 46.1 (44463) - http://www.bohemiancoding.com/sketch -->
    <title>geonetwork_a4</title>
    <desc>Created with Sketch.</desc>
    <defs>
        <radialGradient cx="52.0472671%" cy="53.0601016%" fx="52.0472671%" fy="53.0601016%" r="60.031091%" gradientTransform="translate(0.520473,0.530601),scale(0.855072,1.000000),translate(-0.520473,-0.530601)" id="radialGradient-1">
            <stop stop-color="#CDCD08" offset="0%"></stop>
            <stop stop-color="#CDCD08" offset="58.74%"></stop>
            <stop stop-color="#998675" offset="100%"></stop>
        </radialGradient>
        <radialGradient cx="34.2743586%" cy="51.5248581%" fx="34.2743586%" fy="51.5248581%" r="33.9684717%" gradientTransform="translate(0.342744,0.515249),scale(0.975309,1.000000),translate(-0.342744,-0.515249)" id="radialGradient-2">
            <stop stop-color="#0D71B9" offset="0%"></stop>
            <stop stop-color="#1C3761" offset="100%"></stop>
        </radialGradient>
    </defs>
    <g id="Page-1" stroke="none" stroke-width="1" fill="none" fill-rule="evenodd">
        <g id="geonetwork_a4" transform="translate(0.000000, -2.000000)">
            <g id="Footer" transform="translate(0.000000, 595.000000)">
                <polygon id="Fill-1" fill="#EAEAEA" fill-rule="nonzero" points="0 201.593814 595.2746 101.5159 595.2746 100.0779 0 0"></polygon>
                <polygon id="Fill-3" fill="#CFD1D0" fill-rule="nonzero" points="0 201.077914 0 202.409913 595.2746 202.409913 595.2746 101"></polygon>
                <g id="URL" transform="translate(321.000000, 136.000000)" font-size="14" font-family="Helvetica" fill="#00393F" font-weight="normal">
                    <text id="www.geonetwork-opensource.org">
                        <tspan x="0" y="14">www.geonetwork-opensource.org</tspan>
                    </text>
                </g>
                <g id="gnlogo" transform="translate(14.000000, 105.000000)" fill-rule="nonzero">
                    <path d="M41.1281984,67.7785704 C22.5457617,67.7785704 7.23883567,64.9465744 5.22509076,61.3530606 C5.07570091,61.0879674 5,60.8186227 5,60.5455266 C5,58.0689056 11.2879543,57.2686241 20.8577068,57.0160353 C26.8119232,57.7525443 33.7374251,58.1346787 41.1281984,58.1346787 C59.2798189,58.1346787 73.9957245,61.3563118 73.9957245,65.3299593 C73.9957245,65.6588249 73.8951253,65.9594306 73.6999628,66.2337771 C72.3529392,68.1259426 66.5149149,68.7784221 58.2836351,69 C53.7207059,68.2402328 47.7119144,67.7785704 41.1281984,67.7785704 Z M21.46935,22.9470534 C25.1422276,22.4953946 29.1830468,21.981964 33.4703342,21.981964 L33.4708372,21.981964 C33.7794253,18.9056321 34.135295,16.8981761 34.5552968,14.6541368 C36.6696409,14.7551724 38.6869068,14.8129427 41.0406771,14.8129427 L41.0406771,21.981964 L41.1309649,21.981964 C48.283821,21.981964 54.9859927,22.3150812 60.7800048,23.0278318 C68.8075712,21.7168708 74,19.5841207 74,17.2225401 C74,16.7818852 73.8171609,16.3314767 73.4716026,15.9145801 C70.6948126,12.556149 57.270098,10 41.1281984,10 C25.1173293,10 11.779633,12.5018799 8.85546516,15.8195467 C8.46539168,16.263953 8.26016927,16.7166122 8.26016927,17.185277 C8.26067227,19.5458572 13.4505861,21.6353421 21.46935,22.9470534 Z" id="Shape" fill="url(#radialGradient-1)"></path>
                    <path d="M74,15.004 C74.1025,15.136 74.2025,15.2705 74.305,15.405 C74.2115,15.2675 74.1135,15.134 74.005,15 L74,15.004 Z" id="Shape" stroke="#35679A" stroke-width="0.2674" fill="#1C3761"></path>
                    <path d="M57.4814079,79 L57.4834239,79 C57.2054656,77.595669 49.9034552,77.3330135 41.2807022,77.3330135 C29.1019488,77.3330135 18.8880551,75.606742 16.126365,73.4862371 L16.130397,73.4797333 C11.7296858,70.1179939 8.04667637,65.8877405 5.30590245,61.0586328 C7.32368259,64.6537603 22.6612813,67.4896885 41.2809542,67.4896885 C47.877863,67.4896885 53.8984432,67.9599668 58.4707678,68.7201667 C63.8069105,69.6076919 67.1703814,70.9204688 67.1703814,72.3613214 C67.1703814,72.7197835 66.9624797,73.105762 66.5680965,73.4412105 L66.5675925,73.5305133 C63.7985944,75.662525 60.748362,77.261221 57.4814079,79 Z M74.2140897,65.0299829 C74.2140897,65.3589276 74.1132889,65.6596055 73.9177353,65.9340179 C76.9452876,62.0111965 79.4504396,57.4740115 80.8959232,52.6168872 C80.9654757,52.408764 81,52.1798786 81,51.9687537 C81,47.2584662 63.2174777,43.440707 41.2807022,43.440707 C18.7434059,43.440707 0.454863639,39.6899874 0.454863639,34.9807006 L0.451839615,34.8881458 C0.154225234,36.8745713 0,38.9077745 0,40.9759985 C0,43.9935341 0.328610629,46.9357753 0.952063617,49.767451 C1.59063673,52.7477146 9.48686789,55.2984741 20.9695918,56.714312 C26.9357395,57.4509979 33.875119,57.8332241 41.2807022,57.8332241 C59.4686957,57.8332241 74.2140897,61.055631 74.2140897,65.0299829 Z M49.500756,23.8448607 C49.9520916,28.30475 50.2330739,33.2016478 50.3069105,38.3586996 C67.8936271,37.4809302 80.9926919,34.0956769 80.9926919,30.0515337 C80.9926919,29.8399084 80.9657277,29.6265322 80.8959232,29.4196597 C79.4146553,24.409695 76.994428,19.7994668 73.8386067,15.7870924 C74.0848127,16.1415521 74.2138377,16.5047671 74.2138377,16.8737354 C74.2140897,20.2284706 63.7129137,23.0468885 49.500756,23.8448607 Z M41.2607941,14.5013315 C38.9693398,14.5013315 36.8474828,14.4490505 34.7296578,14.3487412 C34.1921375,17.2014293 33.7294618,20.4008226 33.380439,23.8616206 C19.0125441,23.0879128 8.35260682,20.252735 8.35260682,16.8732351 C8.35260682,16.503016 8.48011984,16.1383002 8.72708182,15.7820894 C5.55084841,19.8199789 3.08878871,24.4549718 1.61004088,29.501208 C1.55636445,29.6835659 1.55107241,29.8666743 1.55107241,30.0510334 C1.55107241,34.7605703 19.628689,38.5785797 41.2607941,38.5785797 L41.2607941,14.5013315 L41.2607941,14.5013315 Z M56.7417819,3.90931342 C56.7417819,3.18038206 55.6833735,2.50448208 53.8838271,1.95190508 L53.8858431,1.94540123 C49.9115193,0.682904124 45.6768774,0 41.2807022,0 C36.755502,0 32.4021672,0.722177364 28.3262866,2.0577177 L28.3283026,2.06322096 C26.7422019,2.59428523 25.8201266,3.22866063 25.8201266,3.90931342 C25.8201266,5.77491744 32.7413619,7.28856317 41.2809542,7.28856317 C49.8187826,7.28856317 56.7417819,5.77466729 56.7417819,3.90931342 Z" id="Shape" fill="url(#radialGradient-2)"></path>
                </g>
            </g>
            <g id="GeoNetwork" transform="translate(55.307540, 70.000000)">
                <g id="Analyze" transform="translate(1.000000, 430.000000)" font-family="Helvetica" font-weight="normal">
                    <g id="Monitoring-and-repor" transform="translate(2.000000, 24.000000)" font-size="8.5" fill="#000000">
                        <text id="Monitoring-and-reporting-tools-provide-summarized">
                            <tspan x="0.69246" y="9">Monitoring and reporting tools provide summarized</tspan>
                        </text>
                        <text id="information-about-the-content-of-the-catalog-and">
                            <tspan x="0.69246" y="22">information about the content of the catalog and</tspan>
                        </text>
                        <text id="statistics-on-the-search.-System-maintainer-can">
                            <tspan x="0.69246" y="35">statistics on the search. System maintainer can</tspan>
                        </text>
                        <text id="easily-access-to-system-status.">
                            <tspan x="0.69246" y="48">easily access to system status.</tspan>
                        </text>
                    </g>
                    <g id="Analyze-information" font-size="14" fill="#4AB969">
                        <text>
                            <tspan x="0.69246" y="14">Analyze information</tspan>
                        </text>
                    </g>
                </g>
                <g id="Make-your-maps" transform="translate(1.000000, 301.000000)" font-family="Helvetica" font-weight="normal">
                    <g id="The-interactive-map" transform="translate(1.000000, 32.000000)" font-size="8.5" fill="#000000">
                        <text id="The-interactive-map-viewer-based-on-OpenLayers-3">
                            <tspan x="0.69246" y="9">The interactive map viewer based on OpenLayers 3</tspan>
                        </text>
                        <text id="provides-access-to-OGC-services-(WMS,-WMTS)-and">
                            <tspan x="0.69246" y="22">provides access to OGC services (WMS, WMTS) and</tspan>
                        </text>
                        <text id="standards-(KML,-OWS).-Connected-to-the-catalog,-users">
                            <tspan x="0.69246" y="35">standards (KML, OWS). Connected to the catalog, users</tspan>
                        </text>
                        <text id="can-easily-find-new-services,-layers-and-even-dynamic">
                            <tspan x="0.69246" y="48">can easily find new services, layers and even dynamic</tspan>
                        </text>
                        <text id="maps-to-combine-them-together.-User-maps-can-be">
                            <tspan x="0.69246" y="61">maps to combine them together. User maps can be</tspan>
                        </text>
                        <text id="annotated-and-printed-and-shared-with-others.">
                            <tspan x="0.69246" y="74">annotated and printed and shared with others.</tspan>
                        </text>
                    </g>
                    <g id="Group" font-size="14" fill="#4AB969">
                        <text id="Make-your-maps">
                            <tspan x="0.69246" y="14">Make your maps</tspan>
                        </text>
                    </g>
                </g>
                <g id="Configuration" transform="translate(249.000000, 320.000000)">
                    <polygon id="Arrow" fill="#4AB969" fill-rule="nonzero" points="2.69246 209.4631 2.69246 214.3461 6.91746 211.9031"></polygon>
                    <polygon id="Arrow" fill="#4AB969" fill-rule="nonzero" points="2.69246 196.4631 2.69246 201.3461 6.91746 198.9031"></polygon>
                    <polygon id="Arrow" fill="#4AB969" fill-rule="nonzero" points="2.69246 183.4631 2.69246 188.3461 6.91746 185.9031"></polygon>
                    <polygon id="Arrow" fill="#4AB969" fill-rule="nonzero" points="2.69246 171.4631 2.69246 176.3461 6.91746 173.9031"></polygon>
                    <polygon id="Arrow" fill="#4AB969" fill-rule="nonzero" points="2.69246 157.4631 2.69246 162.3461 6.91746 159.9031"></polygon>
                    <polygon id="Arrow" fill="#4AB969" fill-rule="nonzero" points="2.69246 144.4631 2.69246 149.3461 6.91746 146.9031"></polygon>
                    <polygon id="Arrow" fill="#4AB969" fill-rule="nonzero" points="2.69246 131.4631 2.69246 136.3461 6.91746 133.9031"></polygon>
                    <polygon id="Arrow" fill="#4AB969" fill-rule="nonzero" points="2.69246 118.4631 2.69246 123.3461 6.91746 120.9031"></polygon>
                    <g id="OGC-CSW-2.0.2-ISO-Pr" transform="translate(13.000000, 114.000000)" font-size="8.5" font-family="Helvetica" fill="#000000" font-weight="normal">
                        <text id="OGC-CSW-2.0.2-ISO-Profile">
                            <tspan x="0" y="9">OGC-CSW 2.0.2 ISO Profile</tspan>
                        </text>
                        <text id="OAI-PMH">
                            <tspan x="0" y="22">OAI-PMH</tspan>
                        </text>
                        <text id="Z39.50-protocols">
                            <tspan x="0" y="35">Z39.50 protocols</tspan>
                        </text>
                        <text id="Thredds">
                            <tspan x="0" y="48">Thredds</tspan>
                        </text>
                        <text id="Webdav">
                            <tspan x="0" y="61">Webdav</tspan>
                        </text>
                        <text id="Web-Accessible-Folders">
                            <tspan x="0" y="74">Web Accessible Folders</tspan>
                        </text>
                        <text id="ESRI-GeoPortal">
                            <tspan x="0" y="87">ESRI GeoPortal</tspan>
                        </text>
                        <text id="Other-GeoNetwork-node">
                            <tspan x="0" y="100">Other GeoNetwork node</tspan>
                        </text>
                    </g>
                    <g id="The-administration-c" transform="translate(0.000000, 26.000000)" font-size="8.5" font-family="Helvetica" fill="#000000" font-weight="normal">
                        <text id="The-administration-console-provides-quick">
                            <tspan x="0.69246" y="9">The administration console provides quick</tspan>
                        </text>
                        <text id="access-to-the-system-configuration.-Easily">
                            <tspan x="0.69246" y="22">access to the system configuration. Easily</tspan>
                        </text>
                        <text id="manage-user-and-group-accounts,-classification">
                            <tspan x="0.69246" y="35">manage user and group accounts, classification</tspan>
                        </text>
                        <text id="systems-from-the-web-interface-and-schedule">
                            <tspan x="0.69246" y="48">systems from the web interface and schedule</tspan>
                        </text>
                        <text id="metadata-harvesting-from-many-sources">
                            <tspan x="0.69246" y="61">metadata harvesting from many sources</tspan>
                        </text>
                        <text id="including:">
                            <tspan x="0.69246" y="74">including:</tspan>
                        </text>
                    </g>
                    <g id="Easy-configuration" font-size="14" font-family="Helvetica" fill="#4AB969" font-weight="normal">
                        <text>
                            <tspan x="0.69246" y="14">Easy configuration</tspan>
                        </text>
                    </g>
                </g>
                <g id="Publish" transform="translate(249.000000, 0.000000)">
                    <polygon id="Arrow" fill="#4AB969" fill-rule="nonzero" points="2.69246 276.4631 2.69246 281.3461 6.91746 278.9031"></polygon>
                    <polygon id="Arrow" fill="#4AB969" fill-rule="nonzero" points="2.69246 262.4631 2.69246 267.3461 6.91746 264.9031"></polygon>
                    <polygon id="Arrow" fill="#4AB969" fill-rule="nonzero" points="2.69246 249.4631 2.69246 254.3461 6.91746 251.9031"></polygon>
                    <polygon id="Arrow" fill="#4AB969" fill-rule="nonzero" points="2.69246 237.4631 2.69246 242.3461 6.91746 239.9031"></polygon>
                    <g id="multilingual-metadat" transform="translate(14.000000, 232.000000)" font-size="8.5" font-family="Helvetica" fill="#000000" font-weight="normal">
                        <text id="multilingual-metadata-editing,">
                            <tspan x="0" y="9">multilingual metadata editing,</tspan>
                        </text>
                        <text id="validation-system,">
                            <tspan x="0" y="22">validation system,</tspan>
                        </text>
                        <text id="suggestion-to-improve-metadata-quality">
                            <tspan x="0" y="35">suggestion to improve metadata quality</tspan>
                        </text>
                        <text id="geopublication-of-layers-to-publish-geodata">
                            <tspan x="0" y="48">geopublication of layers to publish geodata</tspan>
                        </text>
                        <text id="layers-in-OGC-services-(eg.-GeoServer)">
                            <tspan x="0" y="61">layers in OGC services (eg. GeoServer)</tspan>
                        </text>
                    </g>
                    <g id="The-editor-provides" transform="translate(2.000000, 183.000000)" font-size="8.5" font-family="Helvetica" fill="#000000" font-weight="normal">
                        <text id="The-editor-provides-uploading-of-data,-graphics,">
                            <tspan x="0" y="9">The editor provides uploading of data, graphics,</tspan>
                        </text>
                        <text id="documents,-pdf-files-and-any-other-content-type.-It">
                            <tspan x="0" y="22">documents, pdf files and any other content type. It</tspan>
                        </text>
                        <text id="supports-among-other:">
                            <tspan x="0" y="35">supports among other:</tspan>
                        </text>
                    </g>
                    <g id="Publish-&amp;-describe-r" font-size="14" font-family="Helvetica" fill="#4AB969" font-weight="normal">
                        <text id="Publish-&amp;-describe-resources">
                            <tspan x="0.69246" y="14">Publish &amp; describe resources</tspan>
                        </text>
                    </g>
                    <g id="Describe-information" transform="translate(1.000000, 25.000000)" font-size="8.5" font-family="Helvetica" fill="#000000" font-weight="normal">
                        <text id="Describe-information-using-the-online-metadata">
                            <tspan x="0.69246" y="9">Describe information using the online metadata</tspan>
                        </text>
                        <text id="editing-tools.-The-metadata-editor-support">
                            <tspan x="0.69246" y="22">editing tools. The metadata editor support</tspan>
                        </text>
                        <text id="ISO19115/119/110-standards-used-for-spatial">
                            <tspan x="0.69246" y="35">ISO19115/119/110 standards used for spatial</tspan>
                        </text>
                        <text id="resources-and-also-Dublin-Core-format-usually">
                            <tspan x="0.69246" y="48">resources and also Dublin Core format usually</tspan>
                        </text>
                        <text id="used-for-opendata-portal.">
                            <tspan x="0.69246" y="61">used for opendata portal.</tspan>
                        </text>
                    </g>
                    <g id="Based-on-user-profil" transform="translate(1.000000, 104.000000)" font-size="8.5" font-family="Helvetica" fill="#000000" font-weight="normal">
                        <text id="Based-on-user-profiles-(eg.-reviewer,-editor),-a">
                            <tspan x="0" y="9">Based on user profiles (eg. reviewer, editor), a</tspan>
                        </text>
                        <text id="dashboard-provides-easy-access-to-their">
                            <tspan x="0" y="22">dashboard provides easy access to their</tspan>
                        </text>
                        <text id="informations-and-tasks.-Online-editing-of-metadata">
                            <tspan x="0" y="35">informations and tasks. Online editing of metadata</tspan>
                        </text>
                        <text id="is-based-on-a-powerful-template-system-and">
                            <tspan x="0" y="48">is based on a powerful template system and</tspan>
                        </text>
                        <text id="directories-of-information-(eg.-contacts,-thesaurus).">
                            <tspan x="0" y="61">directories of information (eg. contacts, thesaurus).</tspan>
                        </text>
                    </g>
                </g>
                <g id="Information" transform="translate(1.000000, 109.000000)" font-family="Helvetica" font-weight="normal">
                    <g id="GeoSpatial-layers,-b" transform="translate(0.000000, 118.000000)" font-size="8.5" fill="#000000">
                        <text id="GeoSpatial-layers,-but-also-services,-maps-or-even-non">
                            <tspan x="0" y="9">GeoSpatial layers, but also services, maps or even non</tspan>
                        </text>
                        <text id="geographic-datasets-can-be-described-in-the-catalog.">
                            <tspan x="0" y="22">geographic datasets can be described in the catalog.</tspan>
                        </text>
                        <text id="Easily-navigate-accross-records-and-find-sources-or">
                            <tspan x="0" y="35">Easily navigate accross records and find sources or</tspan>
                        </text>
                        <text id="services-publishing-a-dataset.">
                            <tspan x="0" y="48">services publishing a dataset.</tspan>
                        </text>
                    </g>
                    <g id="GeoNetwork-provides" transform="translate(1.000000, 26.000000)" font-size="8.5" fill="#000000">
                        <text id="GeoNetwork-provides-an-easy-to-use-web-interface-to">
                            <tspan x="0" y="9">GeoNetwork provides an easy to use web interface to</tspan>
                        </text>
                        <text id="search-geospatial-data-across-multiple-catalogs.-The">
                            <tspan x="0" y="22">search geospatial data across multiple catalogs. The</tspan>
                        </text>
                        <text id="search-provides-full-text-search-as-well-as-faceted">
                            <tspan x="0" y="35">search provides full-text search as well as faceted</tspan>
                        </text>
                        <text id="search-on-keywords,-resource-types,-organizations,">
                            <tspan x="0" y="48">search on keywords, resource types, organizations,</tspan>
                        </text>
                        <text id="scale,-...-Users-can-easily-refine-the-search-and-quickly">
                            <tspan x="0" y="61">scale, ... Users can easily refine the search and quickly</tspan>
                        </text>
                        <text id="gets-to-the-records-of-interests.">
                            <tspan x="0" y="74">gets to the records of interests.</tspan>
                        </text>
                    </g>
                    <g id="Find-&amp;-get-informati" transform="translate(1.000000, 0.000000)" font-size="14" fill="#4AB969">
                        <text id="Find-&amp;-get-information">
                            <tspan x="0" y="14">Find &amp; get information</tspan>
                        </text>
                    </g>
                </g>
                <g id="Introduction" transform="translate(0.709460, 0.000000)" font-family="Helvetica" font-weight="normal">
                    <g id="GeoNetwork-is-a-cata" transform="translate(1.000000, 26.000000)" font-size="8.5" fill="#000000">
                        <text id="GeoNetwork-is-a-catalog-application-to">
                            <tspan x="0.29054001" y="9">GeoNetwork is a catalog application to</tspan>
                        </text>
                        <text id="register-spatially">
                            <tspan x="149.39954" y="9">register spatially</tspan>
                        </text>
                        <text id="referenced-resources">
                            <tspan x="0.29054001" y="22">referenced resources</tspan>
                        </text>
                        <text id=".-It-provides-powerful">
                            <tspan x="80.20604" y="22">. It provides powerful</tspan>
                        </text>
                        <text id="metadata">
                            <tspan x="160.31154" y="22">metadata</tspan>
                        </text>
                        <text id="editing">
                            <tspan x="0.29054001" y="35">editing</tspan>
                        </text>
                        <text id="and">
                            <tspan x="29.49654" y="35">and</tspan>
                        </text>
                        <text id="search">
                            <tspan x="50.29604" y="35">search</tspan>
                        </text>
                        <text id="functions-as-well-as-an-interactive">
                            <tspan x="78.44804" y="35">functions as well as an interactive</tspan>
                        </text>
                        <text id="web-map-viewer.-It-is-currently-used-in">
                            <tspan x="0.29054001" y="48">web map viewer. It is currently used in</tspan>
                        </text>
                        <text id="numerous">
                            <tspan x="147.49604" y="48">numerous</tspan>
                        </text>
                        <text id="Spatial-Data-Infrastructure-initiatives-across-the-world">
                            <tspan x="0.29054001" y="61">Spatial Data Infrastructure initiatives across the world</tspan>
                        </text>
                        <text id=".">
                            <tspan x="226.55204" y="61">.</tspan>
                        </text>
                    </g>
                    <g id="tspan63" font-size="14" fill="#4AB969">
                        <text id="GeoNetwork-opensource">
                            <tspan x="0.55545995" y="14">GeoNetwork opensource</tspan>
                        </text>
                    </g>
                </g>
            </g>
            <g id="Title" transform="translate(52.000000, 0.000000)" font-size="33" font-family="Helvetica" fill="#4AB969" font-weight="normal">
                <text id="GeoNetwork-opensource">
                    <tspan x="0.865002" y="34">GeoNetwork opensource</tspan>
                </text>
            </g>
            <g id="OSGeo-Logo" transform="translate(440.000000, 2.000000)" fill-rule="nonzero">
                <g id="Group-30">
                    <path d="M58.3490027,28.8959753 C58.9975507,28.5005781 59.5134959,27.9683589 59.8968384,27.2957014 C60.2795781,26.6230438 60.4718521,25.9021732 60.4718521,25.1300636 L60.4718521,18.8169677 C60.4718521,18.0448581 60.2795781,17.3239874 59.8968384,16.6519326 C59.5134959,15.9810833 58.9975507,15.4458504 58.3490027,15.0510559 C57.7004548,14.6556586 57.0018795,14.4585627 56.2556877,14.4585627 C55.5076877,14.4585627 54.8103178,14.6556586 54.1617699,15.0510559 C53.5132219,15.4458504 52.9972767,15.9810833 52.6127288,16.6519326 C52.229989,17.3239874 52.0383178,18.0448581 52.0383178,18.8169677 L52.0383178,25.1300636 C52.0383178,25.9021732 52.229989,26.6230438 52.6127288,27.2957014 C52.9972767,27.9683589 53.5132219,28.5005781 54.1617699,28.8959753 C54.8103178,29.2913726 55.5076877,29.4890712 56.2556877,29.4890712 C57.0018795,29.4890712 57.7004548,29.2913726 58.3490027,28.8959753 M52.3336603,31.9060575 C51.1342082,31.203263 50.1854959,30.2551534 49.4875233,29.0599205 C48.7901534,27.8640849 48.4405644,26.553126 48.4405644,25.1300636 L48.4405644,18.8169677 C48.4405644,17.3945079 48.7901534,16.0847545 49.4875233,14.8895216 C50.1854959,13.6918778 51.1342082,12.7437682 52.3336603,12.0433847 C53.5319068,11.3405901 54.8392493,10.9897956 56.2556877,10.9897956 C57.6703178,10.9897956 58.9776603,11.3405901 60.1771123,12.0433847 C61.3759616,12.7437682 62.324674,13.6918778 63.0220438,14.8895216 C63.7200164,16.0847545 64.0690027,17.3945079 64.0690027,18.8169677 L64.0690027,25.1300636 C64.0690027,26.553126 63.7200164,27.8640849 63.0220438,29.0599205 C62.324674,30.2551534 61.3759616,31.203263 60.1771123,31.9060575 C58.9776603,32.6064411 57.6703178,32.9572356 56.2556877,32.9572356 C54.8392493,32.9572356 53.5319068,32.6064411 52.3336603,31.9060575" id="Fill-17" fill="#4AB969"></path>
                    <path d="M69.7856877,32.4086219 C68.7537973,32.0632521 67.7948384,31.584074 66.9106192,30.9716904 C66.8117699,30.9114164 66.7430575,30.8083479 66.7038795,30.6606767 C66.6640986,30.5105945 66.6749479,30.3791973 66.7340164,30.2592521 L67.7659068,28.3907589 C67.8834411,28.1556904 68.0702904,28.0357452 68.3252493,28.0357452 C68.4831671,28.0357452 68.6308384,28.075526 68.7688658,28.1556904 C70.2425644,29.0839096 71.6186192,29.5486219 72.8970301,29.5486219 C73.9379616,29.5486219 74.7588932,29.2954712 75.3592219,28.7921836 C75.9589479,28.2870877 76.2579068,27.6307041 76.2579068,26.8200192 C76.2579068,26.2872033 76.1102356,25.8387649 75.8160986,25.4710937 C75.5207562,25.1058334 75.1271671,24.7948197 74.636537,24.5374499 C74.1447014,24.2818882 73.4268384,23.9642444 72.4835507,23.5893403 L71.6288658,23.2337238 C70.2913863,22.6611211 69.166674,21.9287923 68.2529205,21.040354 C67.3379616,20.1501074 66.8804822,18.8451759 66.8804822,17.126771 C66.8804822,15.9212915 67.1511123,14.8532367 67.6917699,13.9256203 C68.2330301,12.9955929 68.9840438,12.2747162 69.9484274,11.7599764 C70.9110027,11.2470449 72.0218521,10.9896751 73.2803726,10.9896751 C74.3225096,10.9896751 75.3592219,11.1632641 76.3911123,11.508634 C77.4224,11.8558121 78.3518247,12.3349901 79.1775781,12.9473737 C79.2752219,13.0052367 79.344537,13.1089079 79.3837151,13.2589901 C79.4234959,13.4066614 79.4138521,13.5404696 79.3547836,13.6580038 L78.3813589,15.5258942 C78.2638247,15.7633737 78.0763726,15.8809079 77.820811,15.8809079 C77.6628932,15.8809079 77.5164274,15.8411271 77.3784,15.7633737 C76.6123178,15.2685244 75.879989,14.9135107 75.1826192,14.6959216 C74.4834411,14.4783326 73.8602082,14.3704422 73.3093041,14.3704422 C72.4250849,14.3704422 71.7265096,14.6121408 71.2153863,15.0949353 C70.704263,15.5801408 70.4493041,16.1985518 70.4493041,16.9489627 C70.4493041,17.7192641 70.7295781,18.356354 71.2895233,18.8608471 C71.8500712,19.3641348 72.7493589,19.8728471 73.987989,20.3881896 C74.1645918,20.4478608 74.8378521,20.7190937 76.0077699,21.2018882 C77.1770849,21.6870937 78.1065096,22.3935047 78.7936329,23.3217238 C79.4825644,24.2517512 79.8267288,25.3493403 79.8267288,26.6126767 C79.8267288,27.8386493 79.5362082,28.930211 78.9563726,29.8879644 C78.376537,30.8481288 77.5652493,31.5943205 76.5237151,32.1271425 C75.4815781,32.6599644 74.282126,32.9275808 72.9259616,32.9275808 C71.864537,32.9275808 70.8175781,32.7539918 69.7856877,32.4086219" id="Fill-19" fill="#4AB969"></path>
                    <path d="M86.4892329,31.9058164 C85.2988219,31.2030219 84.3555342,30.2555151 83.6581644,29.0596795 C82.959589,27.8644466 82.6118082,26.5528849 82.6118082,25.1298225 L82.6118082,18.8173293 C82.6118082,17.3942668 82.959589,16.0845134 83.6581644,14.8892805 C84.3555342,13.6922395 85.2988219,12.7441299 86.4892329,12.0431436 C87.6778356,11.3409518 88.9797534,10.9895545 90.3961918,10.9895545 C91.6342192,10.9895545 92.7842466,11.213171 93.846274,11.6561847 C94.9076986,12.1010066 95.8118082,12.7501573 96.5592055,13.5982121 C96.6767397,13.7380477 96.7357479,13.9056093 96.7357479,14.1033079 C96.7357479,14.3004038 96.6568493,14.4981025 96.500137,14.6958011 L95.2018356,16.0585956 C95.0445205,16.2183216 94.8878082,16.2966778 94.7310959,16.2966778 C94.5333973,16.2966778 94.3567945,16.2086778 94.2000822,16.0290614 C93.216411,14.9833079 91.9590959,14.4583216 90.4251233,14.4583216 C89.677726,14.4583216 88.9797534,14.6560203 88.3312055,15.0508148 C87.6826575,15.4462121 87.1667123,15.9814449 86.7833699,16.6516915 C86.4006301,17.324349 86.2089589,18.044617 86.2089589,18.8173293 L86.2089589,25.1298225 C86.2089589,25.9025348 86.4006301,26.6228027 86.7833699,27.2954603 C87.1667123,27.9681178 87.6826575,28.5009397 88.3312055,28.8957342 C88.9797534,29.2911315 89.677726,29.4888301 90.4251233,29.4888301 C91.1725205,29.4888301 91.8704932,29.3013781 92.5184384,28.9258712 C93.1669863,28.5509671 93.6781096,28.0356247 94.052411,27.3834603 C94.4255068,26.7325014 94.6123562,26.020069 94.6123562,25.2497677 L94.6123562,23.7965622 L90.662,23.7965622 C90.4841918,23.7965622 90.3371233,23.736891 90.2183836,23.618754 C90.1008493,23.5012197 90.0417808,23.3517403 90.0417808,23.1739321 L90.0417808,21.0402334 C90.0417808,20.8630279 90.1008493,20.7135485 90.2183836,20.5954115 C90.3371233,20.4754663 90.4841918,20.4176033 90.662,20.4176033 L96.8834192,20.4176033 C97.2366247,20.4176033 97.5361863,20.5411649 97.7827068,20.7870827 C98.0280219,21.0348088 98.1509808,21.3355759 98.1509808,21.6911923 L98.1509808,25.1298225 C98.1509808,26.5528849 97.8013918,27.8644466 97.1040219,29.0596795 C96.4067123,30.2555151 95.4622192,31.2030219 94.2742192,31.9058164 C93.0832055,32.6062 91.7909315,32.9575973 90.3961918,32.9575973 C88.9797534,32.9575973 87.6778356,32.6062 86.4892329,31.9058164" id="Fill-20" fill="#00393F"></path>
                    <path d="M111.667419,22.3437184 L111.667419,22.0785129 C111.667419,21.1081019 111.328077,20.2841567 110.650597,19.6012526 C109.971912,18.9207595 109.150378,18.5796088 108.187803,18.5796088 C107.224625,18.5796088 106.404296,18.9207595 105.725611,19.6012526 C105.047529,20.2841567 104.708186,21.1081019 104.708186,22.0785129 L104.708186,22.3437184 L111.667419,22.3437184 Z M104.664186,31.6222877 C103.592515,30.9918219 102.742049,30.1311096 102.113392,29.0437671 C101.483529,27.9582329 101.170104,26.7726438 101.170104,25.487006 L101.170104,22.2858553 C101.170104,21.0008142 101.483529,19.8152252 102.113392,18.72728 C102.742049,17.6417518 103.592515,16.7816422 104.664186,16.1487655 C105.735858,15.5158888 106.909995,15.1988477 108.187803,15.1988477 C109.466214,15.1988477 110.640351,15.5158888 111.711419,16.1487655 C112.78309,16.7816422 113.632953,17.6417518 114.262214,18.72728 C114.891474,19.8152252 115.206104,21.0008142 115.206104,22.2858553 L115.206104,24.2718827 C115.206104,24.6268964 115.083145,24.9282663 114.83783,25.1759923 C114.59131,25.4237184 114.291748,25.544869 113.937337,25.544869 L104.708186,25.544869 L104.708186,25.6949512 C104.708186,26.6629452 105.047529,27.4868904 105.725611,28.1697945 C106.404296,28.8520959 107.224625,29.1914384 108.187803,29.1914384 L112.877118,29.1914384 C113.053118,29.1914384 113.200789,29.2511096 113.318926,29.3710548 C113.43646,29.488589 113.495529,29.6362603 113.495529,29.8140685 L113.495529,31.9495753 C113.495529,32.1273836 113.43646,32.2750548 113.318926,32.395 C113.200789,32.5125342 113.053118,32.5722055 112.877118,32.5722055 L108.187803,32.5722055 C106.909995,32.5722055 105.735858,32.2551644 104.664186,31.6222877 Z" id="Fill-21" fill="#00393F"></path>
                    <path d="M127.353238,28.4949726 C128.031321,27.8144795 128.370663,26.9881233 128.370663,26.0201293 L128.370663,22.1360745 C128.370663,21.1686773 128.031321,20.3441293 127.353238,19.6612252 C126.675759,18.9789238 125.854225,18.6395814 124.891047,18.6395814 C123.927266,18.6395814 123.106937,18.9789238 122.428252,19.6612252 C121.750773,20.3441293 121.41143,21.1686773 121.41143,22.1360745 L121.41143,26.0201293 C121.41143,26.9881233 121.750773,27.8144795 122.428252,28.4949726 C123.106937,29.177274 123.927266,29.5190274 124.891047,29.5190274 C125.854225,29.5190274 126.675759,29.177274 127.353238,28.4949726 M121.368033,32.023411 C120.296362,31.4007808 119.445896,30.5563425 118.817238,29.4888904 C118.187375,28.4208356 117.873348,27.2653836 117.873348,26.0201293 L117.873348,22.1360745 C117.873348,20.8908142 118.187375,19.7353622 118.817238,18.6673074 C119.445896,17.6016696 120.296362,16.755423 121.368033,16.1327929 C122.438499,15.5101627 123.613238,15.1985463 124.891047,15.1985463 C126.168855,15.1985463 127.342992,15.5101627 128.414663,16.1327929 C129.485732,16.755423 130.336197,17.6016696 130.965458,18.6673074 C131.594115,19.7353622 131.909951,20.8908142 131.909951,22.1360745 L131.909951,26.0201293 C131.909951,27.2653836 131.594115,28.4208356 130.965458,29.4888904 C130.336197,30.5563425 129.485732,31.4007808 128.414663,32.023411 C127.342992,32.6460411 126.168855,32.9576575 124.891047,32.9576575 C123.613238,32.9576575 122.438499,32.6460411 121.368033,32.023411" id="Fill-22" fill="#00393F"></path>
                    <path d="M20.5659858,9.12854137 L20.5659858,4.81955507 L20.5659858,0.485265753 L17.8705337,5.20289753 C10.5291699,6.84656877 4.96347726,13.18196 4.48671014,20.8994334 L8.79448493,20.8994334 C9.31163562,14.636371 14.3029233,9.64568603 20.5659858,9.12854137" id="Fill-23" fill="#4AB969"></path>
                    <path d="M8.79460548,23.0479595 L4.48683068,23.0479595 L0.151926575,23.0479595 L4.86957041,25.7434115 C6.51324164,33.0847753 12.8492356,38.6504679 20.5661063,39.1272351 L20.5661063,34.8182488 C14.3030438,34.3011041 9.31175616,29.3104192 8.79460548,23.0479595" id="Fill-24" fill="#00393F"></path>
                    <path d="M34.4861151,20.8990718 L38.7944986,20.8990718 L43.1288,20.8990718 L38.4111562,18.2036197 C36.7680877,10.8622559 30.431503,5.29656329 22.7146323,4.81979616 L22.7146323,9.12817973 C28.9776948,9.64592712 33.9689644,14.6366121 34.4861151,20.8990718" id="Fill-25" fill="#00393F"></path>
                    <path d="M22.7147529,34.8184296 L22.7147529,39.1274159 L22.7147529,43.4617112 L25.4101989,38.7440734 C32.7515507,37.1010049 38.3172493,30.765011 38.7940164,23.0481403 L34.4862356,23.0481403 C33.9690849,29.3106 28.9778153,34.3012849 22.7147529,34.8184296" id="Fill-26" fill="#4AB969"></path>
                    <path d="M21.6270488,22.8938992 C21.1080899,22.8938992 20.6867748,22.4731868 20.6867748,21.9536252 C20.6867748,21.4346663 21.1080899,21.013954 21.6270488,21.013954 C22.1460077,21.013954 22.5673227,21.4346663 22.5673227,21.9536252 C22.5673227,22.4731868 22.1460077,22.8938992 21.6270488,22.8938992 Z M22.9699529,20.6438718 L14.9926986,15.3259052 L20.3106652,23.3031595 L28.2879195,28.621126 L22.9699529,20.6438718 Z" id="Fill-27" fill="#00393F"></path>
                    <polygon id="Fill-28" fill="#4AB969" points="18.5182981 20.6136745 10.3590164 21.9734553 18.5182981 23.3332362 14.9928795 28.6210658 20.280709 25.0956471 21.6404899 33.2549288 23.0002707 25.0956471 20.310846 23.3030992"></polygon>
                    <polygon id="Fill-29" fill="#4AB969" points="28.2881605 15.3258449 23.000331 18.8512636 21.6405501 10.6919819 20.2807693 18.8512636 22.970194 20.6438115 24.7627419 23.3332362 32.9214027 21.9734553 24.7627419 20.6136745"></polygon>
                </g>
            </g>
        </g>
    </g>
</svg>