<?xml version="1.0" encoding="UTF-8"?>
<svg width="596px" height="843px" viewBox="0 0 596 843" version="1.1" xmlns="http://www.w3.org/2000/svg" xmlns:xlink="http://www.w3.org/1999/xlink">
    <!-- Generator: Sketch 44.1 (41455) - http://www.bohemiancoding.com/sketch -->
    <title>geonetwork_a4</title>
    <desc>Created with Sketch.</desc>
    <defs>
        <radialGradient cx="52.0486551%" cy="53.0608166%" fx="52.0486551%" fy="53.0608166%" r="60.0293666%" gradientTransform="translate(0.520487,0.530608),scale(0.854647,1.000000),translate(-0.520487,-0.530608)" id="radialGradient-1">
            <stop stop-color="#CDCD08" offset="0%"></stop>
            <stop stop-color="#CDCD08" offset="58.74%"></stop>
            <stop stop-color="#998675" offset="100%"></stop>
        </radialGradient>
        <radialGradient cx="34.2749516%" cy="51.5256423%" fx="34.2749516%" fy="51.5256423%" r="33.9707474%" gradientTransform="translate(0.342750,0.515256),scale(0.976845,1.000000),translate(-0.342750,-0.515256)" id="radialGradient-2">
            <stop stop-color="#0D71B9" offset="0%"></stop>
            <stop stop-color="#1C3761" offset="100%"></stop>
        </radialGradient>
    </defs>
    <g id="Page-1" stroke="none" stroke-width="1" fill="none" fill-rule="evenodd">
        <g id="A4">
            <g id="geonetwork_a4" transform="translate(0.000000, 37.000000)">
                <g id="Footer" transform="translate(0.000000, 603.000000)">
                    <polygon id="Fill-1" fill="#EAEAEA" fill-rule="nonzero" points="0 201.593814 595.2746 101.5159 595.2746 100.0779 0 0"></polygon>
                    <polygon id="Fill-3" fill="#CFD1D0" fill-rule="nonzero" points="0 201.077914 0 202.409913 595.2746 202.409913 595.2746 101"></polygon>
                    <text id="URL" fill="#00393F" font-family="MiriamLibre-Bold, Miriam Libre" font-size="14" font-weight="bold">
                        <tspan x="314" y="134">www.geonetwork-opensource.org</tspan>
                    </text>
                    <g id="GN-Logo" transform="translate(55.000000, 86.000000)" fill-rule="nonzero">
                        <g id="Group" transform="translate(53.443271, 2.360909)">
                            <g id="Shape" fill="#1C3761">
                                <path d="M12.8222284,19.4556616 L20.2656884,19.4556616 L20.2656884,35.4549523 C17.676065,36.4571582 14.9848994,36.9576709 12.1933792,36.9576709 C8.48738527,36.9576709 5.61094965,35.4165875 3.56407237,32.3338305 C1.51719509,29.2510734 0.493459537,24.9736964 0.493459537,19.5016993 C0.493459537,14.0143564 1.5516363,9.76058841 3.66917747,6.739215 C5.785531,3.71843182 8.75875832,2.20745 12.5888594,2.20745 C15.1636375,2.20745 17.5905558,2.93224909 19.8702082,4.38125705 L18.7764026,6.3691425 C16.6362965,5.01280023 14.5745738,4.33462909 12.5888594,4.33462909 C9.4095786,4.33462909 7.00225614,5.63371932 5.36689205,8.23071932 C3.73034032,10.8283095 2.91265828,14.600452 2.91265828,19.5483273 C2.91265828,24.3887811 3.73865372,28.1379048 5.3900508,30.7968786 C7.04144788,33.4558525 9.37929408,34.7856345 12.4035894,34.7856345 C14.5745738,34.7856345 16.4272739,34.5005548 17.9622834,33.929805 L17.9622834,21.6300589 L12.8222284,21.6300589 L12.8222284,19.4556616 L12.8222284,19.4556616 Z"></path>
                                <path d="M31.0725116,36.9576709 C28.4050986,36.9576709 26.3546584,35.8291564 24.9200035,33.5709468 C23.4853486,31.3133275 22.7686149,28.164465 22.7686149,24.12613 C22.7686149,19.84108 23.4081527,16.5694502 24.6872284,14.3112407 C25.9668978,12.0536214 27.8077216,10.9239264 30.212075,10.9239264 C32.3052698,10.9239264 33.9572606,11.914918 35.16686,13.8951305 C36.3764594,15.875343 36.9809622,18.5461214 36.9809622,21.9062852 L36.9809622,23.9407986 L25.0245148,23.9407986 C25.0559869,27.5937152 25.5755743,30.3300089 26.5832769,32.1484991 C27.5909794,33.9675795 29.1188632,34.8765295 31.1657405,34.8765295 C32.7476613,34.8765295 34.4144975,34.3600807 36.166843,33.3277732 L36.166843,35.4549523 C34.55345,36.4577484 32.8557354,36.9576709 31.0725116,36.9576709 Z M30.0725287,12.912402 C27.033388,12.912402 25.3653641,15.9261025 25.0714261,21.952323 L34.7713798,21.952323 C34.7713798,19.1936007 34.3485842,16.9967748 33.5035867,15.3630257 C32.6579953,13.7298668 31.5143093,12.912402 30.0725287,12.912402 Z"></path>
                                <path d="M54.4177201,23.8947609 C54.4177201,28.117837 53.7467101,31.351102 52.4058778,33.5939657 C51.0638579,35.8368293 49.1446507,36.9576709 46.6488499,36.9576709 C44.1833337,36.9576709 42.2950048,35.8368293 40.984457,33.5939657 C39.6739092,31.351102 39.0183384,28.1184273 39.0183384,23.8947609 C39.0183384,15.2473411 41.5931165,10.9233361 46.7414849,10.9233361 C49.1606836,10.9233361 51.0448559,12.0565725 52.3945954,14.322455 C53.7431472,16.5883375 54.4177201,19.7796964 54.4177201,23.8947609 Z M41.3217434,23.8947609 C41.3217434,27.5169857 41.7552277,30.2526891 42.6239778,32.1024614 C43.4927278,33.9522336 44.8489993,34.8765295 46.6945736,34.8765295 C50.3073387,34.8765295 52.1143151,31.21594 52.1143151,23.8947609 C52.1143151,16.6343752 50.3073387,13.0050677 46.6945736,13.0050677 C44.802088,13.0050677 43.4339402,13.914608 42.5889427,15.7330982 C41.7439452,17.5521786 41.3217434,20.2731264 41.3217434,23.8947609 Z"></path>
                                <path d="M75.8544099,36.495523 L72.947096,36.495523 L60.0838944,6.18440136 L59.8986244,6.18440136 C60.0838944,8.28088864 60.1777171,10.3000561 60.1777171,12.2424941 L60.1777171,36.4961132 L57.9443822,36.4961132 L57.9443822,2.69320705 L60.8986074,2.69320705 L73.669174,32.6578652 L73.8087203,32.6578652 C73.6840193,30.130512 73.6228565,28.0186789 73.6228565,26.3229559 L73.6228565,2.69379727 L75.8555976,2.69379727 L75.8555976,36.495523 L75.8544099,36.495523 Z"></path>
                                <path d="M87.73188,36.9576709 C85.064467,36.9576709 83.0140268,35.8291564 81.5793719,33.5709468 C80.1453108,31.3133275 79.4279833,28.164465 79.4279833,24.12613 C79.4279833,19.84108 80.068115,16.5694502 81.3471906,14.3112407 C82.6262662,12.0536214 84.4676838,10.9239264 86.8714434,10.9239264 C88.9646382,10.9239264 90.616629,11.914918 91.8262284,13.8951305 C93.0358278,15.875343 93.6409244,18.5461214 93.6409244,21.9062852 L93.6409244,23.9407986 L81.684477,23.9407986 C81.7153553,27.5937152 82.2349427,30.3300089 83.2432391,32.1484991 C84.2509416,33.9675795 85.7788254,34.8765295 87.8257027,34.8765295 C89.4070297,34.8765295 91.0744597,34.3600807 92.8268052,33.3277732 L92.8268052,35.4549523 C91.2134122,36.4577484 89.5156977,36.9576709 87.73188,36.9576709 Z M86.7324909,12.912402 C83.6927564,12.912402 82.0253263,15.9261025 81.7313883,21.952323 L91.4307482,21.952323 C91.4307482,19.1936007 91.0085464,16.9967748 90.1629551,15.3630257 C89.3173637,13.7298668 88.1736777,12.912402 86.7324909,12.912402 Z"></path>
                                <path d="M101.493522,34.9231575 C102.175815,34.9231575 102.780318,34.831082 103.308218,34.6457507 L103.308218,36.495523 C102.625926,36.8036216 101.749456,36.9576709 100.679997,36.9576709 C98.0737468,36.9576709 96.7715124,35.0240864 96.7715124,31.1545564 L96.7715124,13.3515311 L94.4924538,13.3515311 L94.4924538,12.0571627 L96.7251949,11.4096834 L97.4466791,5.44484659 L98.9816886,5.44484659 L98.9816886,11.4096834 L102.982214,11.4096834 L102.982214,13.3515311 L98.9816886,13.3515311 L98.9816886,30.5300959 C98.9816886,32.2258189 99.1675524,33.3820741 99.5398739,33.9982714 C99.9121953,34.6150589 100.563016,34.9231575 101.493522,34.9231575 Z"></path>
                                <path d="M118.953439,36.495523 L115.464187,19.5016993 C115.432715,19.3783418 115.4054,19.2473114 115.382241,19.108608 C115.359082,18.9704948 115.115025,17.4902048 114.650068,14.6695086 L114.603157,14.6695086 L114.277747,16.6343752 L113.74272,19.5011091 L110.137675,36.4949327 L107.508859,36.4949327 L102.019642,11.4090932 L104.229224,11.4090932 L107.369907,26.0213498 L108.83544,33.6512177 L108.974986,33.6512177 C109.254079,31.4473091 109.703596,28.8886739 110.323538,25.975312 L113.463627,11.4090932 L115.789597,11.4090932 L118.953439,26.0213498 C119.201653,27.1156311 119.643451,29.6589205 120.278832,33.6512177 L120.417785,33.6512177 C120.46529,33.143032 120.693908,31.8634193 121.104234,29.8129698 C121.514559,27.7631105 122.82867,21.6288784 125.047753,11.4090932 L127.234177,11.4090932 L121.557908,36.4949327 L118.953439,36.4949327 L118.953439,36.495523 Z"></path>
                                <path d="M142.902556,23.8947609 C142.902556,28.117837 142.231546,31.351102 140.89012,33.5939657 C139.548694,35.8368293 137.630081,36.9576709 135.133686,36.9576709 C132.66817,36.9576709 130.779841,35.8368293 129.469293,33.5939657 C128.158746,31.351102 127.503769,28.1184273 127.503769,23.8947609 C127.503769,15.2473411 130.077359,10.9233361 135.226321,10.9233361 C137.64552,10.9233361 139.529692,12.0565725 140.878838,14.322455 C142.228577,16.5883375 142.902556,19.7796964 142.902556,23.8947609 Z M129.807174,23.8947609 C129.807174,27.5169857 130.240658,30.2526891 131.109408,32.1024614 C131.977564,33.9522336 133.334429,34.8765295 135.180004,34.8765295 C138.792769,34.8765295 140.599745,31.21594 140.599745,23.8947609 C140.599745,16.6343752 138.792769,13.0050677 135.180004,13.0050677 C133.287518,13.0050677 131.91937,13.914608 131.074373,15.7330982 C130.229375,17.5521786 129.807174,20.2731264 129.807174,23.8947609 Z"></path>
                                <path d="M153.082312,10.9239264 C153.873272,10.9239264 154.609602,11.0325282 155.292488,11.2479611 L154.757462,13.444787 C154.19987,13.213418 153.625652,13.0977334 153.036588,13.0977334 C152.183277,13.0977334 151.388754,13.5333211 150.651831,14.4039064 C149.915501,15.275672 149.33772,16.4885891 148.919081,18.0456086 C148.500442,19.6026282 148.290826,21.32137 148.290826,23.2012439 L148.290826,36.495523 L146.08065,36.495523 L146.08065,11.4096834 L147.895346,11.4096834 L148.128121,15.8021548 L148.290826,15.8021548 C149.468953,12.5505927 151.066313,10.9239264 153.082312,10.9239264 Z"></path>
                                <polygon points="158.957509 24.0800923 160.376725 21.5362127 166.610585 11.4096834 169.006625 11.4096834 163.191404 20.6349357 169.517899 36.495523 167.191929 36.495523 161.702712 22.6694491 158.911191 26.3217755 158.911191 36.4949327 156.701015 36.4949327 156.701015 0.5194 158.911191 0.5194 158.911191 19.8711816 158.748486 24.079502 158.957509 24.079502"></polygon>
                            </g>
                            <g transform="translate(108.074170, 39.545227)" id="Shape" fill="#B1AD14">
                                <path d="M5.93160928,3.50358909 C5.93160928,4.53589659 5.66973725,5.34214705 5.14658701,5.92234045 C4.62343676,6.50253386 3.89957735,6.79292568 2.97797783,6.79292568 C2.40732246,6.79292568 1.90198664,6.65953432 1.45959512,6.39393205 C1.01779741,6.12773955 0.676948101,5.7458625 0.435859567,5.24948136 C0.194771032,4.75310023 0.0754143937,4.17054591 0.0754143937,3.50417932 C0.0754143937,2.47128159 0.33550498,1.66680182 0.854498524,1.09074 C1.37408588,0.514087955 2.09497623,0.226647273 3.01835719,0.226647273 C3.90967219,0.226647273 4.61809244,0.521170682 5.14361794,1.11080773 C5.66854962,1.69985455 5.93160928,2.49725159 5.93160928,3.50358909 Z M1.07599119,3.50358909 C1.07599119,4.31220045 1.23869626,4.92898795 1.5641064,5.35336136 C1.89011035,5.77714455 2.36872454,5.98903614 3.00113658,5.98903614 C3.63236099,5.98903614 4.1121628,5.778325 4.44054201,5.3563125 C4.7677336,4.9343 4.93103248,4.31633205 4.93103248,3.50358909 C4.93103248,2.69792886 4.7677336,2.08645341 4.44054201,1.6685725 C4.1121628,1.25010136 3.62879811,1.04175114 2.98985411,1.04175114 C2.35803588,1.04175114 1.88120314,1.24774045 1.55876207,1.66030932 C1.23691482,2.07169773 1.07599119,2.68612432 1.07599119,3.50358909 Z"></path>
                                <path d="M10.2913926,6.79233545 C9.87750413,6.79233545 9.4980569,6.71560591 9.15483234,6.56332727 C8.81160778,6.41104864 8.52420174,6.17731864 8.29142661,5.86154705 L8.22195035,5.86154705 C8.26826785,6.23161955 8.29142661,6.58221455 8.29142661,6.91333205 L8.29142661,9.52036591 L7.32588484,9.52036591 L7.32588484,0.341151364 L8.11090711,0.341151364 L8.2451091,1.20819523 L8.29142661,1.20819523 C8.53964091,0.861731818 8.82823457,0.610885227 9.15839523,0.457426136 C9.48796206,0.302786591 9.86562785,0.226057045 10.2913926,0.226057045 C11.1369839,0.226057045 11.7895856,0.5129075 12.2491977,1.08719864 C12.7088099,1.66148977 12.9380221,2.46655977 12.9380221,3.50358909 C12.9380221,4.54415977 12.7034655,5.35218091 12.2373215,5.9276525 C11.7699897,6.50430455 11.1215447,6.79233545 10.2913926,6.79233545 Z M10.1524401,1.04116091 C9.50043216,1.04116091 9.02953756,1.21999977 8.73975627,1.57826773 C8.44878735,1.93653568 8.29914619,2.50669523 8.29142661,3.28933659 L8.29142661,3.50299886 C8.29142661,4.39306159 8.44047395,5.02991682 8.73975627,5.41297432 C9.03785096,5.79603182 9.51705896,5.98844591 10.1755988,5.98844591 C10.7266583,5.98844591 11.1577674,5.76652045 11.4701136,5.32325977 C11.781866,4.88058932 11.9374453,4.26970409 11.9374453,3.49119432 C11.9374453,2.70147023 11.781866,2.09589705 11.4701136,1.67388455 C11.1583612,1.25187205 10.7183449,1.04116091 10.1524401,1.04116091 Z"></path>
                                <path d="M17.0187128,6.79233545 C16.0763298,6.79233545 15.3328745,6.50725568 14.7883469,5.93650591 C14.2438194,5.36634636 13.9712587,4.57426136 13.9712587,3.56143136 C13.9712587,2.54033818 14.2242235,1.72936591 14.7301531,1.12792432 C15.2360828,0.526482727 15.9154061,0.226647273 16.768717,0.226647273 C17.567397,0.226647273 18.1992153,0.487527727 18.6641717,1.00928864 C19.1291282,1.53163977 19.3619033,2.220435 19.3619033,3.07567432 L19.3619033,3.68242795 L14.9712417,3.68242795 C14.9902437,4.42670455 15.1796704,4.99096182 15.5383342,5.37638023 C15.8969979,5.76120841 16.4017399,5.95421273 17.053154,5.95421273 C17.7390093,5.95421273 18.4177389,5.81196795 19.0887488,5.52629795 L19.0887488,6.3821275 C18.7478995,6.52850386 18.4248646,6.63356432 18.120238,6.69671864 C17.8156113,6.75987295 17.449228,6.79233545 17.0187128,6.79233545 Z M16.7574346,1.02876614 C16.2455668,1.02876614 15.8376165,1.19462 15.5329898,1.52632773 C15.2283632,1.85803545 15.0496251,2.31605182 14.9949942,2.9021475 L18.3268853,2.9021475 C18.3268853,2.29716455 18.1909019,1.83324591 17.9195288,1.51216227 C17.6481557,1.19107864 17.2609889,1.02876614 16.7574346,1.02876614 Z"></path>
                                <path d="M25.0720199,6.67665091 L25.0720199,2.57870295 C25.0720199,2.06225409 24.9538509,1.67742591 24.7169191,1.42244773 C24.4805811,1.16805977 24.1106349,1.04116091 23.6064867,1.04116091 C22.9396334,1.04116091 22.4515182,1.21999977 22.1409534,1.57826773 C21.8303886,1.93653568 21.6759969,2.52794341 21.6759969,3.35308114 L21.6759969,6.67665091 L20.7104552,6.67665091 L20.7104552,0.341741591 L21.4954775,0.341741591 L21.6528382,1.20878545 L21.6991557,1.20878545 C21.8968958,0.897145455 22.174207,0.655152273 22.5304955,0.483396136 C22.8873778,0.31164 23.2846394,0.226057045 23.7228742,0.226057045 C24.4900821,0.226057045 25.0678632,0.410207955 25.4556238,0.777919545 C25.8427907,1.14622136 26.0369679,1.73467795 26.0369679,2.54387955 L26.0369679,6.67665091 L25.0720199,6.67665091 L25.0720199,6.67665091 Z"></path>
                                <path d="M31.8337813,4.94846545 C31.8337813,5.53751227 31.6128825,5.9925775 31.1710848,6.31248068 C30.7292871,6.63238386 30.1087513,6.79233545 29.3100713,6.79233545 C28.46448,6.79233545 27.8059401,6.65894409 27.3326703,6.39334182 L27.3326703,5.50268886 C27.6390784,5.65732841 27.9674576,5.778325 28.3184017,5.86685909 C28.6693459,5.95539318 29.0072261,6.00025045 29.3332301,6.00025045 C29.8373783,6.00025045 30.2245451,5.91997955 30.4959181,5.76061818 C30.7672912,5.60066659 30.9032746,5.3563125 30.9032746,5.02932659 C30.9032746,4.78261159 30.7957943,4.57190045 30.5808335,4.39660295 C30.3658728,4.22130545 29.9460462,4.01413568 29.3219476,3.77509364 C28.7287273,3.55552909 28.3071193,3.36370523 28.0571235,3.19962205 C27.806534,3.03612909 27.6206701,2.84961727 27.4989382,2.64185727 C27.3766125,2.43350705 27.3154497,2.18561159 27.3154497,1.89640023 C27.3154497,1.37995136 27.5262537,0.972694545 27.9490493,0.674039545 C28.371845,0.375384545 28.9514076,0.226057045 29.6877371,0.226057045 C30.3741862,0.226057045 31.0446024,0.364170227 31.7001732,0.642167273 L31.3575424,1.4218575 C30.7174108,1.16038682 30.1378482,1.02876614 29.6182608,1.02876614 C29.1604302,1.02876614 28.8154242,1.10018364 28.5832428,1.24301864 C28.3504677,1.38526341 28.2340801,1.58180909 28.2340801,1.83206545 C28.2340801,2.00205091 28.2780224,2.14606636 28.365313,2.2658825 C28.4520099,2.38510841 28.5933377,2.49902227 28.7869211,2.60644364 C28.9805045,2.713865 29.3528259,2.87027523 29.9038854,3.07449386 C30.659217,3.34835932 31.170491,3.62399545 31.4359259,3.90081205 C31.7013608,4.17939932 31.8337813,4.52822364 31.8337813,4.94846545 Z"></path>
                                <path d="M38.6080129,3.50358909 C38.6080129,4.53589659 38.3461408,5.34214705 37.8229906,5.92234045 C37.2992465,6.50253386 36.5759809,6.79292568 35.6537876,6.79292568 C35.0843199,6.79292568 34.5777964,6.65953432 34.1359987,6.39393205 C33.694201,6.12773955 33.3527579,5.7458625 33.1122631,5.24948136 C32.8717684,4.75251 32.751818,4.17054591 32.751818,3.50417932 C32.751818,2.47128159 33.0119086,1.66680182 33.5309021,1.09074 C34.0504895,0.514087955 34.7713798,0.226647273 35.694167,0.226647273 C36.5860758,0.226647273 37.294496,0.521170682 37.8200215,1.11080773 C38.345547,1.70044477 38.6080129,2.49725159 38.6080129,3.50358909 Z M33.751801,3.50358909 C33.751801,4.31220045 33.914506,4.92898795 34.2399162,5.35336136 C34.5659201,5.77714455 35.0445343,5.98903614 35.6763525,5.98903614 C36.3081708,5.98903614 36.7879726,5.778325 37.115758,5.3563125 C37.4435434,4.9343 37.6074361,4.31633205 37.6074361,3.50358909 C37.6074361,2.69792886 37.4435434,2.08645341 37.115758,1.6685725 C36.7879726,1.25010136 36.3046079,1.04175114 35.6650701,1.04175114 C35.0338457,1.04175114 34.5564191,1.24774045 34.2345718,1.66030932 C33.9121308,2.07169773 33.751801,2.68612432 33.751801,3.50358909 Z"></path>
                                <path d="M40.9096364,0.341151364 L40.9096364,4.45090386 C40.9096364,4.96735273 41.0278054,5.35277114 41.2647373,5.60715909 C41.5016691,5.86154705 41.8710215,5.98844591 42.3751697,5.98844591 C43.0420229,5.98844591 43.5295443,5.80665591 43.8383277,5.44484659 C44.1465172,5.08303727 44.300315,4.49103932 44.300315,3.67003318 L44.300315,0.340561136 L45.265263,0.340561136 L45.265263,6.67547045 L44.4689583,6.67547045 L44.3294119,5.82613341 L44.2771563,5.82613341 C44.0794162,6.13777341 43.8050741,6.37740568 43.4541299,6.54266932 C43.1031858,6.70852318 42.7023612,6.79174523 42.2534378,6.79174523 C41.4779165,6.79174523 40.8977601,6.60818455 40.5111871,6.24224364 C40.1258018,5.87630273 39.9328122,5.29079727 39.9328122,4.48454682 L39.9328122,0.340561136 L40.9096364,0.340561136 L40.9096364,0.341151364 Z"></path>
                                <path d="M49.9219534,0.226057045 C50.2052027,0.226057045 50.4587613,0.249075909 50.6838169,0.295113636 L50.5496149,1.18517636 C50.2859614,1.12733409 50.0531863,1.09900318 49.8518833,1.09900318 C49.3358588,1.09900318 48.8952487,1.30735341 48.5282716,1.72346364 C48.1624821,2.13957386 47.9789935,2.65779341 47.9789935,3.27812227 L47.9789935,6.67724114 L47.0134518,6.67724114 L47.0134518,0.342331818 L47.8103503,0.342331818 L47.9207998,1.51570364 L47.9677111,1.51570364 C48.2034553,1.103725 48.4890799,0.7855925 48.8222096,0.561896364 C49.156527,0.33761 49.5223165,0.226057045 49.9219534,0.226057045 Z"></path>
                                <path d="M54.1249697,6.79233545 C53.2021826,6.79233545 52.4878242,6.50961659 51.9824884,5.94476909 C51.4759649,5.38051182 51.2235939,4.58193432 51.2235939,3.54903659 C51.2235939,2.48898841 51.4807154,1.67034318 51.9943646,1.09251068 C52.5080139,0.514678182 53.2401867,0.225466818 54.1896955,0.225466818 C54.4961035,0.225466818 54.8019178,0.257929318 55.1083259,0.323444545 C55.414734,0.388959773 55.6552287,0.465689318 55.8298101,0.554813636 L55.532903,1.3699175 C55.3197237,1.28492477 55.0869486,1.21468773 54.8351714,1.15920636 C54.5828004,1.10313477 54.3601201,1.07539409 54.1659429,1.07539409 C52.8708343,1.07539409 52.2235769,1.89640023 52.2235769,3.53782227 C52.2235769,4.31574182 52.3815315,4.91305182 52.6974406,5.32916205 C53.0133497,5.74527227 53.4812752,5.9536225 54.101811,5.9536225 C54.6332746,5.9536225 55.1778022,5.84029886 55.7359874,5.61306136 L55.7359874,6.46239841 C55.3102227,6.68196295 54.7728209,6.79233545 54.1249697,6.79233545 Z"></path>
                                <path d="M59.6426906,6.79233545 C58.7003075,6.79233545 57.9568523,6.50725568 57.4123247,5.93650591 C56.8677972,5.36634636 56.5952365,4.57426136 56.5952365,3.56143136 C56.5952365,2.54033818 56.8482013,1.72936591 57.3541309,1.12792432 C57.8600606,0.526482727 58.5393839,0.226647273 59.3926948,0.226647273 C60.1913748,0.226647273 60.823193,0.487527727 61.2881495,1.00928864 C61.753106,1.53163977 61.9858811,2.220435 61.9858811,3.07567432 L61.9858811,3.68242795 L57.5952195,3.68242795 C57.6142215,4.42670455 57.8036482,4.99096182 58.1623119,5.37638023 C58.5209757,5.76120841 59.0257177,5.95421273 59.6771318,5.95421273 C60.3629871,5.95421273 61.0417166,5.81196795 61.7127266,5.52629795 L61.7127266,6.3821275 C61.3718773,6.52850386 61.0488424,6.63356432 60.7442158,6.69671864 C60.4395891,6.75987295 60.0732058,6.79233545 59.6426906,6.79233545 Z M59.3814123,1.02876614 C58.8695446,1.02876614 58.4615943,1.19462 58.1569676,1.52632773 C57.852341,1.85803545 57.6736029,2.31605182 57.618972,2.9021475 L60.9508631,2.9021475 C60.9508631,2.29716455 60.8148796,1.83324591 60.5435066,1.51216227 C60.2721335,1.19107864 59.8855605,1.02876614 59.3814123,1.02876614 Z"></path>
                            </g>
                        </g>
                        <g id="Group">
                            <path d="M21.7157825,35.1326882 C12.1316225,35.1326882 4.23686377,33.6724659 3.19828287,31.8197425 C3.12108703,31.6834 3.0818953,31.5446966 3.0818953,31.4036323 C3.0818953,30.1263805 6.32530804,29.7138116 11.2604972,29.5833714 C14.3317039,29.9634777 17.9040896,30.1612039 21.7151887,30.1612039 C31.077856,30.1612039 38.6679881,31.8215132 38.6679881,33.870192 C38.6679881,34.0401775 38.6163263,34.194817 38.5153779,34.3358814 C37.8200215,35.3109368 34.8099777,35.6485468 30.5636129,35.7630509 C28.2109214,35.3705498 25.1118055,35.1326882 21.7157825,35.1326882 Z M11.5770002,12.0412266 C13.4712672,11.8080868 15.5555548,11.5655034 17.7663248,11.5655034 L17.7669186,11.5655034 C17.9266546,9.82905477 18.1742751,8.92246568 18.3910172,7.76562023 C19.4812599,7.81756023 20.5299357,7.82582341 21.8001041,7.82582341 L21.8001041,11.5655034 L21.7175639,11.5655034 C25.4069311,11.5655034 28.8635231,11.7142407 31.8521896,12.0825425 C35.9928555,11.406142 38.6703633,10.297105 38.6703633,9.07887591 C38.6703633,8.85104818 38.5765407,8.61436705 38.3978027,8.39893409 C36.965523,6.66720727 30.0416503,5.34745909 21.7163763,5.34745909 C13.4582033,5.34745909 6.57827286,6.63592523 5.0705788,8.34581364 C4.86927581,8.57482182 4.76298308,8.81917591 4.76298308,9.06057886 C4.7635769,10.2782177 7.44049097,11.3648261 11.5770002,12.0412266 Z" id="Shape" fill="url(#radialGradient-1)"></path>
                            <path d="M30.0559019,41.0815889 L30.0559019,41.0815889 C29.9133865,40.292455 26.1545431,40.2169059 21.7157825,40.2169059 C15.4474806,40.2169059 10.1898504,39.3244823 8.76825935,38.2319716 L8.77004079,38.2266595 C6.50523372,36.493162 4.60918523,34.3128625 3.19828287,31.8232839 C4.23686377,33.6760073 12.1316225,35.1380002 21.7157825,35.1380002 C25.1118055,35.1380002 28.2109214,35.3794032 30.5642067,35.7719043 C33.3111909,36.2287402 35.0427529,36.9057309 35.0427529,37.6482368 C35.0427529,37.8323877 34.9358663,38.0318845 34.7333757,38.2048211 L34.7321881,38.2567611 C33.307628,39.3551741 31.7375835,40.1342741 30.0559019,41.0815889 Z M38.6685819,33.870192 C38.6685819,34.0401775 38.6169201,34.194817 38.5159717,34.3358814 C40.0741399,32.3137627 41.3639042,29.9758725 42.1085471,27.4715382 C42.144176,27.364707 42.1619904,27.2466616 42.1619904,27.1374695 C42.1619904,24.710455 33.0083457,22.7426373 21.7157825,22.7426373 C10.1156236,22.7426373 0.70129448,20.809643 0.70129448,18.3826284 L0.699513037,18.3342298 C0.546308994,19.3576839 0.466737901,20.4059275 0.466737901,21.471878 C0.466737901,23.0271268 0.635974926,24.5434207 0.956634553,26.0030527 C1.28560758,27.5400045 5.34967144,28.8538505 11.2604972,29.5833714 C14.3317039,29.9634777 17.9040896,30.1612039 21.7151887,30.1612039 C31.0784498,30.1612039 38.6685819,31.8215132 38.6685819,33.870192 Z M25.9478958,12.642078 C26.1800771,14.9410132 26.3243739,17.464825 26.362378,20.1226184 C35.4150743,19.6699141 42.1578337,17.9252023 42.1578337,15.8411098 C42.1578337,15.7313275 42.144176,15.6227257 42.1085471,15.5153043 C41.345496,12.93306 40.0996739,10.556805 38.4749985,8.48864864 C38.6020747,8.67161909 38.6685819,8.85931136 38.6685819,9.04936455 C38.6685819,10.7781402 33.2630919,12.2312798 25.9478958,12.642078 Z M21.8001041,7.82641364 C20.5293419,7.82641364 19.4818538,7.79985341 18.391611,7.74732318 C18.1142998,9.21757932 17.8536154,10.8672645 17.6736898,12.6509314 C10.2777348,12.2519377 4.77901607,10.7911252 4.77901607,9.04936455 C4.77901607,8.85813091 4.83839748,8.66866795 4.9654737,8.4856975 C3.33070342,10.5674291 2.05994119,12.9566691 1.2992653,15.5566202 C1.27135604,15.6510566 1.31411066,15.745493 1.31411066,15.8405195 C1.31411066,18.2675341 10.5253553,20.2353518 21.7995103,20.2353518 L21.7995103,7.82641364 L21.8001041,7.82641364 Z M29.6746732,2.36622114 C29.6746732,1.99142682 29.1301456,1.6426025 28.2037956,1.35752273 L28.2049832,1.35339114 C26.1592936,0.703550909 23.9794019,0.351775455 21.7157825,0.351775455 C19.3874373,0.351775455 17.145789,0.724208864 15.0478437,1.41241386 L15.0484375,1.41595523 C14.2319431,1.68923045 13.7574856,2.01562614 13.7574856,2.36622114 C13.7574856,3.32888182 17.3203704,4.10857205 21.7151887,4.10857205 C26.1117884,4.10857205 29.6746732,3.32888182 29.6746732,2.36622114 Z" id="Shape" fill="url(#radialGradient-2)"></path>
                        </g>
                    </g>
                </g>
                <g id="GeoNetwork" transform="translate(55.307540, 89.000000)">
                    <g id="Configuration" transform="translate(259.000000, 317.000000)">
                        <polygon id="Arrow" fill="#4AB969" fill-rule="nonzero" points="2 209 2 213.883 6.225 211.44"></polygon>
                        <polygon id="Arrow" fill="#4AB969" fill-rule="nonzero" points="2 196 2 200.883 6.225 198.44"></polygon>
                        <polygon id="Arrow" fill="#4AB969" fill-rule="nonzero" points="2 183 2 187.883 6.225 185.44"></polygon>
                        <polygon id="Arrow" fill="#4AB969" fill-rule="nonzero" points="2 171 2 175.883 6.225 173.44"></polygon>
                        <polygon id="Arrow" fill="#4AB969" fill-rule="nonzero" points="2 157 2 161.883 6.225 159.44"></polygon>
                        <polygon id="Arrow" fill="#4AB969" fill-rule="nonzero" points="2 144 2 148.883 6.225 146.44"></polygon>
                        <polygon id="Arrow" fill="#4AB969" fill-rule="nonzero" points="2 131 2 135.883 6.225 133.44"></polygon>
                        <polygon id="Arrow" fill="#4AB969" fill-rule="nonzero" points="2 118 2 122.883 6.225 120.44"></polygon>
                        <text id="OGC-CSW-2.0.2-ISO-Pr" font-family="Sintony" font-size="8.5" font-weight="normal" line-spacing="13" fill="#000000">
                            <tspan x="12" y="123">OGC-CSW 2.0.2 ISO Profile</tspan>
                            <tspan x="12" y="136">OAI-PMH</tspan>
                            <tspan x="12" y="149">Z39.50 protocols</tspan>
                            <tspan x="12" y="162">Thredds</tspan>
                            <tspan x="12" y="175">Webdav</tspan>
                            <tspan x="12" y="188">Web Accessible Folders</tspan>
                            <tspan x="12" y="201">ESRI GeoPortal</tspan>
                            <tspan x="12" y="214">Other GeoNetwork node</tspan>
                        </text>
                        <text id="The-administration-c" font-family="Sintony" font-size="8.5" font-weight="normal" line-spacing="13" fill="#000000">
                            <tspan x="0" y="35">The administration console provides quick </tspan>
                            <tspan x="0" y="48">access to the system configuration. Easily </tspan>
                            <tspan x="0" y="61">manage user and group accounts, classification </tspan>
                            <tspan x="0" y="74">systems from the web interface and schedule </tspan>
                            <tspan x="0" y="87">metadata harvesting from many sources </tspan>
                            <tspan x="0" y="100">including:</tspan>
                        </text>
                        <text id="Easy-configuration" font-family="MiriamLibre-Regular, Miriam Libre" font-size="14" font-weight="normal" fill="#4AB969">
                            <tspan x="0" y="14">Easy configuration</tspan>
                        </text>
                    </g>
                    <g id="Publish" transform="translate(259.000000, 1.000000)">
                        <polygon id="Arrow" fill="#4AB969" fill-rule="nonzero" points="2 276 2 280.883 6.225 278.44"></polygon>
                        <polygon id="Arrow" fill="#4AB969" fill-rule="nonzero" points="2 262 2 266.883 6.225 264.44"></polygon>
                        <polygon id="Arrow" fill="#4AB969" fill-rule="nonzero" points="2 249 2 253.883 6.225 251.44"></polygon>
                        <polygon id="Arrow" fill="#4AB969" fill-rule="nonzero" points="2 237 2 241.883 6.225 239.44"></polygon>
                        <text id="multilingual-metadat" font-family="Sintony" font-size="8.5" font-weight="normal" line-spacing="13" fill="#000000">
                            <tspan x="12" y="241">multilingual metadata editing,</tspan>
                            <tspan x="12" y="254">validation system,</tspan>
                            <tspan x="12" y="267">suggestion to improve metadata quality</tspan>
                            <tspan x="12" y="280">geopublication of layers to publish geodata </tspan>
                            <tspan x="12" y="293">layers in OGC services (eg. GeoServer)</tspan>
                        </text>
                        <text id="The-editor-provides" font-family="Sintony" font-size="8.5" font-weight="normal" line-spacing="13" fill="#000000">
                            <tspan x="0" y="192">The editor provides uploading of data, graphics, </tspan>
                            <tspan x="0" y="205">documents, pdf files and any other content type. It </tspan>
                            <tspan x="0" y="218">supports among other:</tspan>
                        </text>
                        <text id="Publish-&amp;-describe-r" font-family="MiriamLibre-Regular, Miriam Libre" font-size="14" font-weight="normal" fill="#4AB969">
                            <tspan x="0" y="14">Publish &amp; describe resources</tspan>
                        </text>
                        <text id="Describe-information" font-family="Sintony" font-size="8.5" font-weight="normal" line-spacing="13" fill="#000000">
                            <tspan x="0" y="34">Describe information using the online metadata </tspan>
                            <tspan x="0" y="47">editing tools. The metadata editor supports </tspan>
                            <tspan x="0" y="60">ISO19115/119/110 standards used for spatial </tspan>
                            <tspan x="0" y="73">resources and also Dublin Core format usually </tspan>
                            <tspan x="0" y="86">used for opendata portals.</tspan>
                        </text>
                        <text id="Based-on-user-profil" font-family="Sintony" font-size="8.5" font-weight="normal" line-spacing="13" fill="#000000">
                            <tspan x="0" y="113">Based on user profiles (eg. reviewer, editor), a </tspan>
                            <tspan x="0" y="126">dashboard provides easy access to their </tspan>
                            <tspan x="0" y="139">informations and tasks. Online editing of metadata </tspan>
                            <tspan x="0" y="152">is based on a powerful template system and </tspan>
                            <tspan x="0" y="165">directories of information (eg. contacts, thesaurus).</tspan>
                        </text>
                    </g>
                    <g id="Analyze" transform="translate(0.000000, 422.000000)" font-weight="normal">
                        <text id="Monitoring-and-repor" font-family="Sintony" font-size="8.5" line-spacing="13" fill="#000000">
                            <tspan x="0" y="35">Monitoring and reporting tools provide summarized </tspan>
                            <tspan x="0" y="48">information about the content of the catalog and </tspan>
                            <tspan x="0" y="61">statistics on the search. System maintainer can </tspan>
                            <tspan x="0" y="74">easily access to system status.</tspan>
                        </text>
                        <text id="Analyze-information" font-family="MiriamLibre-Regular, Miriam Libre" font-size="14" fill="#4AB969">
                            <tspan x="0" y="14">Analyze information</tspan>
                        </text>
                    </g>
                    <g id="Make-your-maps" transform="translate(0.000000, 299.000000)" font-weight="normal">
                        <text id="The-interactive-map" font-family="Sintony" font-size="8.5" line-spacing="13" fill="#000000">
                            <tspan x="0" y="35">The interactive map viewer based on OpenLayers 3 </tspan>
                            <tspan x="0" y="48">provides access to OGC services (WMS, WMTS) and </tspan>
                            <tspan x="0" y="61">standards (KML, OWS). Connected to the catalog, users </tspan>
                            <tspan x="0" y="74">can easily find new services, layers and even dynamic </tspan>
                            <tspan x="0" y="87">maps to combine them together. User maps can be </tspan>
                            <tspan x="0" y="100">annotated and printed and shared with others.</tspan>
                        </text>
                        <text font-family="MiriamLibre-Regular, Miriam Libre" font-size="14" fill="#4AB969">
                            <tspan x="0" y="14">Make your maps</tspan>
                        </text>
                    </g>
                    <g id="Information" transform="translate(0.000000, 110.000000)" font-weight="normal">
                        <text id="GeoSpatial-layers,-b" font-family="Sintony" font-size="8.5" line-spacing="13" fill="#000000">
                            <tspan x="0" y="127">GeoSpatial layers, but also services, maps or even non </tspan>
                            <tspan x="0" y="140">geographic datasets can be described in the catalog. </tspan>
                            <tspan x="0" y="153">Easily navigate accross records and find sources or </tspan>
                            <tspan x="0" y="166">services publishing a dataset.</tspan>
                        </text>
                        <text id="GeoNetwork-provides" font-family="Sintony" font-size="8.5" line-spacing="13" fill="#000000">
                            <tspan x="0" y="37">GeoNetwork provides an easy to use web interface to </tspan>
                            <tspan x="0" y="50">search geospatial data across multiple catalogs. The </tspan>
                            <tspan x="0" y="63">search provides full-text search as well as faceted </tspan>
                            <tspan x="0" y="76">search on keywords, resource types, organizations, </tspan>
                            <tspan x="0" y="89">scale, ... Users can easily refine the search and quickly </tspan>
                            <tspan x="0" y="102">get to the records of interest.</tspan>
                        </text>
                        <text id="Find-&amp;-get-informati" font-family="MiriamLibre-Regular, Miriam Libre" font-size="14" fill="#4AB969">
                            <tspan x="0" y="14">Find &amp; get information</tspan>
                        </text>
                    </g>
                    <g id="Welcome" font-weight="normal">
                        <text id="GeoNetwork-is-a-cata" font-family="Sintony" font-size="8.5" line-spacing="13" fill="#000000">
                            <tspan x="0" y="35">GeoNetwork is a catalog application to </tspan>
                            <tspan x="161.109" y="35" font-family="Sintony-Bold, Sintony" font-weight="bold">register spatially </tspan>
                            <tspan x="0" y="48" font-family="Sintony-Bold, Sintony" font-weight="bold">referenced resources</tspan>
                            <tspan x="87.9155" y="48">. It provides powerful </tspan>
                            <tspan x="177.021" y="48" font-family="Sintony-Bold, Sintony" font-weight="bold">metadata </tspan>
                            <tspan x="0" y="61" font-family="Sintony-Bold, Sintony" font-weight="bold">editing</tspan>
                            <tspan x="29.206" y="61"> and </tspan>
                            <tspan x="50.0055" y="61" font-family="Sintony-Bold, Sintony" font-weight="bold">search</tspan>
                            <tspan x="78.1575" y="61"> functions as well as an interactive </tspan>
                            <tspan x="0" y="74">web map viewer. It is currently used in </tspan>
                            <tspan x="162.2055" y="74" font-family="Sintony-Bold, Sintony" font-weight="bold">numerous </tspan>
                            <tspan x="0" y="87" font-family="Sintony-Bold, Sintony" font-weight="bold">Spatial Data Infrastructure initiatives across the world</tspan>
                            <tspan x="226.2615" y="87">.</tspan>
                        </text>
                        <text id="tspan63" font-family="MiriamLibre-Regular, Miriam Libre" font-size="14" fill="#4AB969">
                            <tspan x="0" y="14">Welcome</tspan>
                        </text>
                    </g>
                </g>
                <g id="Header" transform="translate(55.000000, 3.000000)">
                    <text id="Subtitle" fill="#00393F" font-family="MiriamLibre-Bold, Miriam Libre" font-size="14" font-weight="bold">
                        <tspan x="0" y="63">The opensource spatial catalogue</tspan>
                    </text>
                    <text id="Title" font-family="MiriamLibre-Bold, Miriam Libre" font-size="29" font-weight="bold" fill="#4AB969">
                        <tspan x="0" y="30">GeoNetwork opensource</tspan>
                    </text>
                    <g id="OSGeo-Logo" transform="translate(382.000000, 0.000000)" fill-rule="nonzero">
                        <g id="Group-30">
                            <path d="M55.0573558,27.2658644 C55.6693172,26.8927727 56.1561563,26.3905777 56.5178733,25.7558668 C56.8790215,25.121156 57.0604487,24.4409518 57.0604487,23.7123993 L57.0604487,17.7554446 C57.0604487,17.0268921 56.8790215,16.3466879 56.5178733,15.7125458 C56.1561563,15.0795412 55.6693172,14.5745024 55.0573558,14.2019795 C54.4453945,13.8288878 53.7862279,13.6429107 53.0821311,13.6429107 C52.3763281,13.6429107 51.718299,13.8288878 51.1063377,14.2019795 C50.4943763,14.5745024 50.0075371,15.0795412 49.6446827,15.7125458 C49.2835345,16.3466879 49.1026761,17.0268921 49.1026761,17.7554446 L49.1026761,23.7123993 C49.1026761,24.4409518 49.2835345,25.121156 49.6446827,25.7558668 C50.0075371,26.3905777 50.4943763,26.8927727 51.1063377,27.2658644 C51.718299,27.6389561 52.3763281,27.8255019 53.0821311,27.8255019 C53.7862279,27.8255019 54.4453945,27.6389561 55.0573558,27.2658644 M49.3813574,30.1061386 C48.2495701,29.4429909 47.3543775,28.5483671 46.6957797,27.420561 C46.0377506,26.2921861 45.707883,25.0551824 45.707883,23.7123993 L45.707883,17.7554446 C45.707883,16.4132302 46.0377506,15.177364 46.6957797,14.0495579 C47.3543775,12.9194768 48.2495701,12.024853 49.3813574,11.3639802 C50.5120072,10.7008325 51.7455984,10.3698274 53.0821311,10.3698274 C54.4169576,10.3698274 55.6505489,10.7008325 56.7823361,11.3639802 C57.9135547,12.024853 58.8087472,12.9194768 59.4667763,14.0495579 C60.1253741,15.177364 60.454673,16.4132302 60.454673,17.7554446 L60.454673,23.7123993 C60.454673,25.0551824 60.1253741,26.2921861 59.4667763,27.420561 C58.8087472,28.5483671 57.9135547,29.4429909 56.7823361,30.1061386 C55.6505489,30.7670114 54.4169576,31.0980165 53.0821311,31.0980165 C51.7455984,31.0980165 50.5120072,30.7670114 49.3813574,30.1061386" id="Fill-17" fill="#4AB969"></path>
                            <path d="M65.8488621,30.5803518 C64.8751839,30.2544653 63.9703228,29.8023191 63.1359851,29.224482 C63.0427122,29.1676083 62.9778761,29.0703542 62.9409082,28.9310135 C62.9033716,28.7893979 62.9136088,28.6654132 62.9693451,28.5522345 L63.9430234,26.7891488 C64.0539272,26.5673412 64.2302357,26.4541625 64.4708116,26.4541625 C64.6198208,26.4541625 64.7591614,26.4916992 64.8894023,26.5673412 C66.279965,27.4431967 67.5783923,27.8816932 68.7846842,27.8816932 C69.7668936,27.8816932 70.5415138,27.6428235 71.1079762,27.1679278 C71.6738698,26.691326 71.9559635,26.071971 71.9559635,25.3070193 C71.9559635,24.8042612 71.8166229,24.3811206 71.5390791,24.0341909 C71.2603978,23.6895361 70.8890123,23.3960676 70.4260601,23.1532168 C69.9619705,22.9120721 69.2846043,22.6123476 68.3945304,22.258593 L67.5880609,21.9230379 C66.3260328,21.3827375 65.2647689,20.6917216 64.4025631,19.8534028 C63.5392199,19.0133778 63.1075483,17.7820615 63.1075483,16.1605971 C63.1075483,15.0231224 63.3629113,14.0153199 63.8730687,13.1400332 C64.3837948,12.2624715 65.0924415,11.5822616 66.0024212,11.09656 C66.9106947,10.6125645 67.9588776,10.3697137 69.1464011,10.3697137 C70.129748,10.3697137 71.1079762,10.53351 72.0816545,10.8593965 C73.054764,11.1869892 73.931757,11.6391354 74.7109271,12.2169725 C74.8030625,12.2715713 74.8684673,12.3693941 74.9054353,12.5110097 C74.9429719,12.6503503 74.9338721,12.77661 74.8781359,12.8875138 L73.9596251,14.6500307 C73.8487213,14.8741133 73.671844,14.985017 73.4306994,14.985017 C73.2816902,14.985017 73.143487,14.9474804 73.0132462,14.8741133 C72.2903811,14.4071799 71.5993652,14.0721936 70.9413361,13.8668795 C70.2816008,13.6615653 69.6935264,13.5597613 69.1737005,13.5597613 C68.3393629,13.5597613 67.6801963,13.787825 67.1979071,14.2433836 C66.7156178,14.7012171 66.4750419,15.2847416 66.4750419,15.9928196 C66.4750419,16.7196659 66.7395048,17.3208155 67.2678618,17.7968487 C67.7967875,18.2717443 68.6453436,18.7517586 69.8140988,19.238029 C69.9807388,19.294334 70.6160184,19.5502658 71.7199375,20.0058244 C72.8232879,20.463658 73.7002809,21.1302181 74.3486414,22.0060736 C74.9987082,22.8836353 75.3234572,23.9193059 75.3234572,25.1113737 C75.3234572,26.2681854 75.0493258,27.2981687 74.5022005,28.2018923 C73.9550752,29.1078908 73.1895548,29.8119876 72.2067767,30.3147514 C71.2234298,30.8175152 70.0916426,31.0700346 68.8119836,31.0700346 C67.8104372,31.0700346 66.8225404,30.9062383 65.8488621,30.5803518" id="Fill-19" fill="#4AB969"></path>
                            <path d="M81.6101089,30.1059111 C80.4868527,29.4427634 79.5967788,28.5487083 78.9387497,27.4203335 C78.2795832,26.2925273 77.9514217,25.0549549 77.9514217,23.7121718 L77.9514217,17.7557858 C77.9514217,16.4130027 78.2795832,15.1771365 78.9387497,14.0493304 C79.5967788,12.9198181 80.4868527,12.0251943 81.6101089,11.3637528 C82.7316589,10.7011738 83.9601316,10.3695999 85.2966643,10.3695999 C86.4648507,10.3695999 87.5500015,10.5806015 88.5521167,10.9986234 C89.5536631,11.4183515 90.4067691,12.0308816 91.1120034,12.831095 C91.2229072,12.9630421 91.2785865,13.1211511 91.2785865,13.3076969 C91.2785865,13.493674 91.2041388,13.6802199 91.0562671,13.8667657 L89.8312069,15.1526808 C89.6827665,15.3033962 89.5348948,15.377332 89.3870231,15.377332 C89.2004772,15.377332 89.0338372,15.2942964 88.8859655,15.1248127 C87.9577862,14.1380534 86.7714001,13.6426832 85.3239637,13.6426832 C84.6187294,13.6426832 83.9601316,13.829229 83.3481702,14.201752 C82.7362088,14.5748437 82.2493697,15.0798824 81.8876528,15.7123183 C81.5265046,16.3470292 81.3456461,17.0266646 81.3456461,17.7557858 L81.3456461,23.7121718 C81.3456461,24.441293 81.5265046,25.1209285 81.8876528,25.7556393 C82.2493697,26.3903502 82.7362088,26.893114 83.3481702,27.2656369 C83.9601316,27.6387286 84.6187294,27.8252744 85.3239637,27.8252744 C86.0291979,27.8252744 86.6877957,27.6483971 87.2991884,27.2940738 C87.9111497,26.9403192 88.393439,26.4540487 88.7466249,25.838675 C89.0986733,25.2244387 89.2749818,24.5521968 89.2749818,23.8253505 L89.2749818,22.4541248 L85.5474774,22.4541248 C85.3796999,22.4541248 85.240928,22.3978199 85.1288867,22.2863473 C85.017983,22.1754436 84.9622467,22.0343967 84.9622467,21.8666192 L84.9622467,19.8532891 C84.9622467,19.6860803 85.017983,19.5450334 85.1288867,19.4335609 C85.240928,19.3203822 85.3796999,19.2657834 85.5474774,19.2657834 L91.4179272,19.2657834 C91.7512073,19.2657834 92.0338697,19.3823746 92.2664833,19.6144194 C92.4979594,19.8481704 92.6139818,20.1319704 92.6139818,20.4675254 L92.6139818,23.7121718 C92.6139818,25.0549549 92.2841141,26.2925273 91.626085,27.4203335 C90.9681128,28.5487083 90.0769015,29.4427634 88.9559202,30.1059111 C87.8320952,30.7667839 86.6127224,31.0983577 85.2966643,31.0983577 C83.9601316,31.0983577 82.7316589,30.7667839 81.6101089,30.1059111" id="Fill-20" fill="#00393F"></path>
                            <path d="M105.367916,21.0832404 L105.367916,20.832996 C105.367916,19.9173289 105.047717,19.139865 104.408456,18.4954856 C103.768058,17.8533812 102.992869,17.5314758 102.084596,17.5314758 C101.175753,17.5314758 100.401702,17.8533812 99.7613037,18.4954856 C99.1214742,19.139865 98.8012751,19.9173289 98.8012751,20.832996 L98.8012751,21.0832404 L105.367916,21.0832404 Z M98.7597573,29.8383771 C97.7485423,29.2434778 96.946054,28.4313209 96.3528609,27.4053188 C95.7585304,26.3810229 95.462787,25.2623166 95.462787,24.0492055 L95.462787,21.0286416 C95.462787,19.8160937 95.7585304,18.6973873 96.3528609,17.6708165 C96.946054,16.6465262 97.7485423,15.8349381 98.7597573,15.2377639 C99.7709722,14.6405897 100.878873,14.3414339 102.084596,14.3414339 C103.290888,14.3414339 104.398788,14.6405897 105.409434,15.2377639 C106.420649,15.8349381 107.222569,16.6465262 107.81633,17.6708165 C108.410092,18.6973873 108.706973,19.8160937 108.706973,21.0286416 L108.706973,22.9026311 C108.706973,23.2376174 108.590951,23.521986 108.359475,23.7557371 C108.126861,23.9894881 107.844199,24.1038043 107.509781,24.1038043 L98.8012751,24.1038043 L98.8012751,24.2454199 C98.8012751,25.1588064 99.1214742,25.9362703 99.7613037,26.5806497 C100.401702,27.2244603 101.175753,27.5446594 102.084596,27.5446594 L106.509372,27.5446594 C106.675443,27.5446594 106.814784,27.6009644 106.926256,27.7141432 C107.03716,27.8250469 107.092897,27.9643876 107.092897,28.1321651 L107.092897,30.1472014 C107.092897,30.3149789 107.03716,30.4543196 106.926256,30.5674983 C106.814784,30.6784021 106.675443,30.7347071 106.509372,30.7347071 L102.084596,30.7347071 C100.878873,30.7347071 99.7709722,30.4355512 98.7597573,29.8383771 Z" id="Fill-21" fill="#00393F"></path>
                            <path d="M120.16885,26.8874835 C120.80868,26.245379 121.128879,25.4656402 121.128879,24.5522537 L121.128879,20.8873104 C121.128879,19.974487 120.80868,19.1964543 120.16885,18.552075 C119.529589,17.9082643 118.7544,17.5880652 117.845558,17.5880652 C116.936147,17.5880652 116.162096,17.9082643 115.521697,18.552075 C114.882437,19.1964543 114.562238,19.974487 114.562238,20.8873104 L114.562238,24.5522537 C114.562238,25.4656402 114.882437,26.245379 115.521697,26.8874835 C116.162096,27.5312941 116.936147,27.8537682 117.845558,27.8537682 C118.7544,27.8537682 119.529589,27.5312941 120.16885,26.8874835 M114.521288,30.2168717 C113.510073,29.6293661 112.707585,28.8325651 112.114392,27.8253313 C111.520062,26.8175288 111.223749,25.7272593 111.223749,24.5522537 L111.223749,20.8873104 C111.223749,19.7122991 111.520062,18.6220296 112.114392,17.6142271 C112.707585,16.6087052 113.510073,15.810198 114.521288,15.2226924 C115.531366,14.6351867 116.639835,14.3411495 117.845558,14.3411495 C119.051281,14.3411495 120.159182,14.6351867 121.170396,15.2226924 C122.181043,15.810198 122.983531,16.6087052 123.577293,17.6142271 C124.170486,18.6220296 124.468504,19.7122991 124.468504,20.8873104 L124.468504,24.5522537 C124.468504,25.7272593 124.170486,26.8175288 123.577293,27.8253313 C122.983531,28.8325651 122.181043,29.6293661 121.170396,30.2168717 C120.159182,30.8043774 119.051281,31.0984146 117.845558,31.0984146 C116.639835,31.0984146 115.531366,30.8043774 114.521288,30.2168717" id="Fill-22" fill="#00393F"></path>
                            <path d="M19.4057952,8.61357224 L19.4057952,4.54766913 L19.4057952,0.457890418 L16.8624019,4.90938606 C9.93518697,6.46033274 4.68347222,12.438325 4.233601,19.720432 L8.29836096,19.720432 C8.78633758,13.8106882 13.4960513,9.10154318 19.4057952,8.61357224" id="Fill-23" fill="#4AB969"></path>
                            <path d="M8.2984747,21.7477531 L4.23371475,21.7477531 L0.143355929,21.7477531 L4.59486295,24.2911464 C6.14580963,31.2183613 12.1243707,36.470076 19.4059089,36.9199473 L19.4059089,32.8540441 C13.4961651,32.3660732 8.78645133,27.6569282 8.2984747,21.7477531" id="Fill-24" fill="#00393F"></path>
                            <path d="M32.5406471,19.7200908 L36.6059815,19.7200908 L40.6957716,19.7200908 L36.2442646,17.1766975 C34.6938866,10.2494826 28.7147682,4.99776784 21.43323,4.54789662 L21.43323,8.613231 C27.3429738,9.10177067 32.0526705,13.8109157 32.5406471,19.7200908" id="Fill-25" fill="#00393F"></path>
                            <path d="M21.4333437,32.8542148 L21.4333437,36.9201179 L21.4333437,41.0099023 L23.9767313,36.5584009 C30.9039349,35.008023 36.1556553,29.029462 36.6055265,21.7479237 L32.5407609,21.7479237 C32.0527843,27.6570988 27.3430876,32.3662438 21.4333437,32.8542148" id="Fill-26" fill="#4AB969"></path>
                            <path d="M20.4070004,21.6023838 C19.9173175,21.6023838 19.5197701,21.2054052 19.5197701,20.7151536 C19.5197701,20.2254708 19.9173175,19.8284921 20.4070004,19.8284921 C20.8966832,19.8284921 21.2942306,20.2254708 21.2942306,20.7151536 C21.2942306,21.2054052 20.8966832,21.6023838 20.4070004,21.6023838 Z M21.6741471,19.4792874 L14.1469143,14.4613237 L19.164878,21.9885565 L26.6921108,27.0065202 L21.6741471,19.4792874 Z" id="Fill-27" fill="#00393F"></path>
                            <polygon id="Fill-28" fill="#4AB969" points="17.4736239 19.4507937 9.77463242 20.7338651 17.4736239 22.0169365 14.147085 27.0064633 19.1366118 23.6799244 20.4196832 31.3789158 21.7027546 23.6799244 19.1650487 21.9884996"></polygon>
                            <polygon id="Fill-29" fill="#4AB969" points="26.6923383 14.4612668 21.7028115 17.7878057 20.4197401 10.0888143 19.1366687 17.7878057 21.6743746 19.4792305 23.3657994 22.0169365 31.064205 20.7338651 23.3657994 19.4507937"></polygon>
                        </g>
                    </g>
                </g>
            </g>
        </g>
    </g>
</svg>