<?xml version="1.0" encoding="UTF-8" standalone="no"?>
<svg
     xmlns:dc="http://purl.org/dc/elements/1.1/"
     xmlns:cc="http://creativecommons.org/ns#"
     xmlns:rdf="http://www.w3.org/1999/02/22-rdf-syntax-ns#"
     xmlns:svg="http://www.w3.org/2000/svg"
     xmlns="http://www.w3.org/2000/svg"
     xmlns:sodipodi="http://sodipodi.sourceforge.net/DTD/sodipodi-0.dtd"
     xmlns:inkscape="http://www.inkscape.org/namespaces/inkscape"
     version="1.1"
     id="svg311"
     inkscape:version="0.92.2 5c3e80d, 2017-08-06"
     sodipodi:docname="compass-color.svg"
     x="0px"
     y="0px"
     width="595.279px"
     height="595.281px"
     viewBox="0 0 595.279 595.281"
     enable-background="new 0 0 595.279 595.281"
     xml:space="preserve"><title
         id="title478">osgeo-compass-color</title><metadata
         id="metadata150"><rdf:RDF><cc:Work
                 rdf:about=""><dc:format>image/svg+xml</dc:format><dc:type
                     rdf:resource="http://purl.org/dc/dcmitype/StillImage" /><dc:title>osgeo-compass-color</dc:title><dc:date>08-21-2018</dc:date><dc:creator><cc:Agent><dc:title>Nicolas Bozon</dc:title></cc:Agent></dc:creator><dc:rights><cc:Agent><dc:title>copyright OSGeo</dc:title></cc:Agent></dc:rights><dc:publisher><cc:Agent><dc:title>OSGeo</dc:title></cc:Agent></dc:publisher><dc:identifier>osgeo-compass-color</dc:identifier><dc:description>OSGeo compass color</dc:description><dc:contributor><cc:Agent><dc:title>OSGeo Marketing Committee</dc:title></cc:Agent></dc:contributor><cc:license
                     rdf:resource="http://creativecommons.org/licenses/by-sa/4.0/" /></cc:Work><cc:License
                 rdf:about="http://creativecommons.org/licenses/by-sa/4.0/"><cc:permits
                     rdf:resource="http://creativecommons.org/ns#Reproduction" /><cc:permits
                     rdf:resource="http://creativecommons.org/ns#Distribution" /><cc:requires
                     rdf:resource="http://creativecommons.org/ns#Notice" /><cc:requires
                     rdf:resource="http://creativecommons.org/ns#Attribution" /><cc:permits
                     rdf:resource="http://creativecommons.org/ns#DerivativeWorks" /><cc:requires
                     rdf:resource="http://creativecommons.org/ns#ShareAlike" /></cc:License></rdf:RDF></metadata><defs
         id="defs148" /><sodipodi:namedview
         inkscape:cy="247.91186"
         inkscape:cx="310.14915"
         inkscape:zoom="1"
         showgrid="false"
         id="namedview313"
         guidetolerance="10"
         gridtolerance="10"
         objecttolerance="10"
         borderopacity="1"
         bordercolor="#666666"
         pagecolor="#ffffff"
         inkscape:current-layer="svg311"
         inkscape:window-maximized="0"
         inkscape:window-y="0"
         inkscape:window-height="699"
         inkscape:window-width="974"
         inkscape:pageshadow="2"
         inkscape:pageopacity="0"
         inkscape:window-x="0" /><path
         id="path297"
         fill="#4DAF5C"
         d="M282.564,119.639V0l-37.448,65.17C143.47,88.027,66.628,175.569,59.82,282.563h59.82  C126.935,195.995,195.995,126.934,282.564,119.639" /><path
         id="path299"
         fill="#023B41"
         d="M119.64,312.23H0l65.169,37.448c22.858,101.646,110.399,178.487,217.395,185.296V475.64  C195.995,468.345,126.935,399.286,119.64,312.23" /><path
         id="path301"
         fill="#023B41"
         d="M475.641,282.563h119.152l-65.169-37.448C506.766,143.47,419.225,66.629,312.23,59.82v59.819  C399.285,126.934,468.345,195.995,475.641,282.563" /><path
         id="path303"
         fill="#4DAF5C"
         d="M312.23,475.64v119.154l37.448-65.17c101.646-22.858,178.487-110.399,185.296-217.395H475.64  C468.345,399.286,399.285,468.345,312.23,475.64" /><path
         id="path305"
         fill="#023B41"
         d="M316.12,279.159l-110.398-73.438l73.438,110.399l110.398,73.438L316.12,279.159L316.12,279.159  z M297.154,310.285c-7.295,0-13.131-5.836-13.131-13.131s5.836-13.132,13.131-13.132s13.131,5.837,13.131,13.132  S304.448,310.285,297.154,310.285" /><polygon
         id="polygon307"
         fill="#4DAF5C"
         points="279.159,316.121 254.356,278.673 141.525,297.64 254.356,316.607 205.722,389.558   278.673,340.925 297.64,453.756 316.607,340.925 " /><polygon
         id="polygon309"
         fill="#4DAF5C"
         points="340.924,278.673 389.558,205.721 316.607,254.356 297.64,141.525 278.673,254.356   316.12,279.159 340.924,316.607 453.755,297.64 " /></svg>
