<?xml version="1.0" encoding="UTF-8" standalone="no"?>
<svg
     xmlns:dc="http://purl.org/dc/elements/1.1/"
     xmlns:cc="http://creativecommons.org/ns#"
     xmlns:rdf="http://www.w3.org/1999/02/22-rdf-syntax-ns#"
     xmlns:svg="http://www.w3.org/2000/svg"
     xmlns="http://www.w3.org/2000/svg"
     xmlns:sodipodi="http://sodipodi.sourceforge.net/DTD/sodipodi-0.dtd"
     xmlns:inkscape="http://www.inkscape.org/namespaces/inkscape"
     version="1.1"
     id="Calque_1"
     x="0px"
     y="0px"
     width="595.279px"
     height="595.281px"
     viewBox="0 0 595.279 595.281"
     enable-background="new 0 0 595.279 595.281"
     xml:space="preserve"
     sodipodi:docname="foss4g-color.svg"
     inkscape:version="0.92.2 5c3e80d, 2017-08-06"><title
         id="title457">osgeo-foss4g-color</title><metadata
         id="metadata161"><rdf:RDF><cc:Work
                 rdf:about=""><dc:format>image/svg+xml</dc:format><dc:type
                     rdf:resource="http://purl.org/dc/dcmitype/StillImage" /><dc:title>osgeo-foss4g-color</dc:title><dc:date>08-21-2018</dc:date><dc:creator><cc:Agent><dc:title>Nicolas Bozon</dc:title></cc:Agent></dc:creator><dc:rights><cc:Agent><dc:title>copyright OSGeo</dc:title></cc:Agent></dc:rights><dc:publisher><cc:Agent><dc:title>OSGeo</dc:title></cc:Agent></dc:publisher><dc:identifier>osgeo-foss4g-color</dc:identifier><dc:description>OSGeo FOSS4G color</dc:description><dc:contributor><cc:Agent><dc:title>OSGeo Marketing Committee</dc:title></cc:Agent></dc:contributor><cc:license
                     rdf:resource="http://creativecommons.org/licenses/by-sa/4.0/" /></cc:Work><cc:License
                 rdf:about="http://creativecommons.org/licenses/by-sa/4.0/"><cc:permits
                     rdf:resource="http://creativecommons.org/ns#Reproduction" /><cc:permits
                     rdf:resource="http://creativecommons.org/ns#Distribution" /><cc:requires
                     rdf:resource="http://creativecommons.org/ns#Notice" /><cc:requires
                     rdf:resource="http://creativecommons.org/ns#Attribution" /><cc:permits
                     rdf:resource="http://creativecommons.org/ns#DerivativeWorks" /><cc:requires
                     rdf:resource="http://creativecommons.org/ns#ShareAlike" /></cc:License></rdf:RDF></metadata><defs
         id="defs159" /><sodipodi:namedview
         pagecolor="#ffffff"
         bordercolor="#666666"
         borderopacity="1"
         objecttolerance="10"
         gridtolerance="10"
         guidetolerance="10"
         inkscape:pageopacity="0"
         inkscape:pageshadow="2"
         inkscape:window-width="640"
         inkscape:window-height="480"
         id="namedview157"
         showgrid="false"
         inkscape:zoom="0.39645142"
         inkscape:cx="297.6395"
         inkscape:cy="297.6405"
         inkscape:window-x="0"
         inkscape:window-y="0"
         inkscape:window-maximized="0"
         inkscape:current-layer="Calque_1" /><g
         id="g154"><path
             fill="#4DAF5C"
             d="M594.197,333.993L594.197,333.993l-18.461-54.074l-25.413-74.088c-1.113-3.252-4.136-5.436-7.515-5.436   c-0.193,0-0.389,0.007-0.586,0.021c-3.584,0.271-6.561,2.971-7.234,6.564c-1.17,6.228-7.329,27.682-21.587,51.837   c-7.688,13.022-16.439,24.567-26.013,34.313c-11.413,11.619-24.042,20.7-37.535,26.989c-19.728,9.195-37.737,14.701-53.713,16.435   c-3.654,0.396-7.202,0.597-10.641,0.597c-14.656,0-26.95-3.554-36.544-10.562c-1.33-0.972-2.605-2.017-3.82-3.13   c4.929-1.077,10.209-2.117,15.755-3.104c3.046-0.542,5.45-0.972,7.308-1.389c2.445-0.548,6.539-1.469,8.35-5.651   c1.044-2.378,1.396-3.181-1.198-28.726c-1.263-12.443-3.137-29.528-5.568-50.782c-4.061-35.493-8.377-71.185-8.56-72.698   c-0.456-3.771-3.482-6.75-7.189-7.086c-0.032-0.002-3.212-0.294-8.534-0.294c-7.357,0-18.953,0.562-32.412,3.243   c-16.063,3.197-30.679,8.587-43.445,16.016c-2.62,0.453-5.561,0.683-8.745,0.683c-38.136,0.003-104.398-32.198-126.712-44.606   c-2.462-1.37-7.354-3.903-12.46-5.472c-3.199-0.981-6.008-1.46-8.584-1.46c-1.475,0-2.871,0.164-4.172,0.488l-1.808,0.628   l-2.709,1.555c-1.373,1.128-3.369,3.01-4.188,4.596L6.811,245.077c-0.665,0.877-6.512,8.965-6.799,22.902   c-0.163,7.909,1.497,16.171,4.938,24.556c4.096,9.981,10.757,20.198,19.802,30.365c2.52,3.085,23.812,29.089,47.666,56.025   c14.747,16.652,27.477,30.279,37.83,40.497c18.21,17.968,25.584,22.032,29.975,23.566l4.324,1.513l3.492-3.07   c8.715-7.664,53.008-46.626,90.646-79.904c1.537,10.503,2.689,17.016,2.703,17.081c0.018,0.101,0.04,0.199,0.062,0.299   c0.066,0.309,0.149,0.613,0.25,0.912l0.007,0.03l0.042,0.112c18.47,51.188,63.515,78.242,130.265,78.244h0.006   c8.31,0,16.396-0.436,24.121-1.144c18.963-1.739,35.681-5.174,47.702-8.204c21.956-5.53,43.482-14.644,63.982-27.082   c16.336-9.915,32.062-21.953,46.733-35.78c24.985-23.546,38.235-44.045,38.789-44.907   C594.682,339.001,595.001,336.347,594.197,333.993z M141.687,425.588c-3.608-2.432-9.854-7.449-20.353-17.809   c-10.102-9.967-22.575-23.322-37.073-39.693c-24.81-28.017-47.149-55.411-47.372-55.685l-0.233-0.272   c-13.552-15.201-20.721-30.091-20.732-43.058c-0.007-8.482,2.964-13.285,3.49-14.07l83.376-103.206   c8.094,14.644,29.878,41.953,66.354,83.207c28.044,31.718,56.324,61.983,63.152,69.263c0.887,12.055,2.164,24.853,3.801,38.074   C199.948,374.324,156.325,412.713,141.687,425.588z M253.793,354.699c-2.166-15.37-4.723-36.521-6.094-58.616   c-1.489-24.011-1.291-44.322,0.589-60.373c2.153-18.379,6.529-31.022,12.659-36.564c29.122-26.349,68.829-29.192,84.549-29.192   c0.25,0,0.501,0.001,0.748,0.003c6.342,52.659,13.46,114.914,14.909,133.88c-0.937,0.171-1.922,0.349-2.89,0.521l-0.121,0.021   c-11.577,2.062-30.951,5.516-51.443,13.603C283.891,326.981,266.123,339.319,253.793,354.699z"
             id="path152" /></g></svg>
