<?xml version="1.0" encoding="UTF-8" standalone="no"?>
<svg
     xmlns:dc="http://purl.org/dc/elements/1.1/"
     xmlns:cc="http://creativecommons.org/ns#"
     xmlns:rdf="http://www.w3.org/1999/02/22-rdf-syntax-ns#"
     xmlns:svg="http://www.w3.org/2000/svg"
     xmlns="http://www.w3.org/2000/svg"
     xmlns:sodipodi="http://sodipodi.sourceforge.net/DTD/sodipodi-0.dtd"
     xmlns:inkscape="http://www.inkscape.org/namespaces/inkscape"
     version="1.1"
     id="Calque_1"
     x="0px"
     y="0px"
     width="651.621px"
     height="625.391px"
     viewBox="0 0 651.621 625.391"
     enable-background="new 0 0 651.621 625.391"
     xml:space="preserve"
     sodipodi:docname="geoforall-color.svg"
     inkscape:version="0.92.2 5c3e80d, 2017-08-06"><title
         id="title436">osgeo-geoforall-color</title><metadata
         id="metadata222"><rdf:RDF><cc:Work
                 rdf:about=""><dc:format>image/svg+xml</dc:format><dc:type
                     rdf:resource="http://purl.org/dc/dcmitype/StillImage" /><dc:title>osgeo-geoforall-color</dc:title><dc:date>08-21-2018</dc:date><dc:creator><cc:Agent><dc:title>Nicolas Bozon</dc:title></cc:Agent></dc:creator><dc:rights><cc:Agent><dc:title>copyright OSGeo</dc:title></cc:Agent></dc:rights><dc:publisher><cc:Agent><dc:title>OSGeo</dc:title></cc:Agent></dc:publisher><dc:identifier>osgeo-geoforall-color</dc:identifier><dc:description>OSGeo GeoForAll color</dc:description><dc:contributor><cc:Agent><dc:title>OSGeo Marketing Committee</dc:title></cc:Agent></dc:contributor><cc:license
                     rdf:resource="http://creativecommons.org/licenses/by-sa/4.0/" /></cc:Work><cc:License
                 rdf:about="http://creativecommons.org/licenses/by-sa/4.0/"><cc:permits
                     rdf:resource="http://creativecommons.org/ns#Reproduction" /><cc:permits
                     rdf:resource="http://creativecommons.org/ns#Distribution" /><cc:requires
                     rdf:resource="http://creativecommons.org/ns#Notice" /><cc:requires
                     rdf:resource="http://creativecommons.org/ns#Attribution" /><cc:permits
                     rdf:resource="http://creativecommons.org/ns#DerivativeWorks" /><cc:requires
                     rdf:resource="http://creativecommons.org/ns#ShareAlike" /></cc:License></rdf:RDF></metadata><defs
         id="defs220" /><sodipodi:namedview
         pagecolor="#ffffff"
         bordercolor="#666666"
         borderopacity="1"
         objecttolerance="10"
         gridtolerance="10"
         guidetolerance="10"
         inkscape:pageopacity="0"
         inkscape:pageshadow="2"
         inkscape:window-width="640"
         inkscape:window-height="480"
         id="namedview218"
         showgrid="false"
         inkscape:zoom="0.37736393"
         inkscape:cx="325.81049"
         inkscape:cy="312.6955"
         inkscape:window-x="0"
         inkscape:window-y="0"
         inkscape:window-maximized="0"
         inkscape:current-layer="Calque_1" /><g
         id="layer1"
         transform="translate(-226.1321,-293.592)"
         display="none"><g
             id="g2086"
             transform="matrix(1.697553,0,0,1.697553,-237.7672,38.25535)"
             display="inline"><g
                 id="g1987"><path
                     id="path1989"
                     fill="#010101"
                     d="M531.68,391.406c-5.99,1.605-12.383,2.12-18.202,4.105     c9.855-8.449,9.292-21.523,15.867-31.474c2.095-2.817,3.826-5.771,6.267-8.444c-4,8.022-2.266,18.43-6.86,26.215     c-1.768,3.092-4.298,6.092-7.094,8.52c0.914-0.035,1.713-0.826,2.516-1.354c7.463-7.446,17.212-9.529,25.283-15.58     c3.234-2.576,6.196-5.952,7.617-9.604C555.546,376.146,543.256,387.725,531.68,391.406L531.68,391.406z" /><path
                     id="path1991"
                     fill="#010101"
                     d="M558.563,341.385c-3.651,5.196-8.068,10.033-11.441,15.312     c0.376-4.18,0.871-9.32-0.758-13.28c-2.821-8.528-5.3-17.186-6.1-26.545l0.11-3.579c2.125,9.558,11.512,16.128,10.92,26.849     c0.215,2.598-0.589,4.807-1.075,7.092l0.161,0.169l0.423-0.474c1.392-5.259,2.095-10.789,4.26-15.695     c3.076-7.061,6.917-14.186,5.352-22.711C565.096,318.572,563.678,332.001,558.563,341.385L558.563,341.385z" /><path
                     id="path1993"
                     fill="#010101"
                     d="M552.8,287.235c6.156,8.344,7.506,21.639,3.021,31.209     c-1.671,4.056-2.851,8.377-3.508,12.866c-0.313-0.774-0.384-1.815-0.664-2.678c-2.449-9.367-11.309-16.044-14.952-24.876     c-1.156-2.888-2.141-5.872-2.687-9.008c3.893,7.2,13.487,10.919,16.103,18.855c1.071,2.007,1.011,4.514,1.675,6.673     c0.14,0,0.278-0.104,0.278-0.246c-1.151-8.174-0.799-16.729,0.31-24.802c-0.064-4.372-0.491-8.614-2.921-11.999     C551.015,284.139,551.717,285.882,552.8,287.235L552.8,287.235z" /><path
                     id="path1995"
                     fill="#010101"
                     d="M548.46,285.634c1.617,7.311-0.745,14.431,0.74,21.812l-0.055,0.064     c-3.977-7.821-12.421-11.512-18.232-17.772c-3.366-3.715-4.83-8.242-5.672-13.035c3.329,8.026,12.311,9.795,17.469,16.558     c1.726,1.559,2.289,3.719,3.402,5.487l0.182-0.175c-2.966-6.331-3.96-13.457-6.029-20.209c-1.037-2.926-3.093-5.801-5.852-7.646     C541.183,272.101,547.051,279.169,548.46,285.634L548.46,285.634z" /><path
                     id="path1997"
                     fill="#010101"
                     d="M530.36,268.867c5.099,4.563,7.405,10.471,8.893,16.593l0.843,1.944     c-7.4-5.322-14.122-12.477-18.849-20.033l-5.772-5.838C520.549,263.684,526.02,264.968,530.36,268.867L530.36,268.867z" /><path
                     id="path1999"
                     fill="#010101"
                     d="M413.482,262.502c-5.116,4.485-8.664,10.156-12.458,15.444     c-3.402,4.212-7.753,6.989-11.61,10.612c2.082-4.316,2.158-9.471,5.11-13.435C398.726,267.793,406.518,265.214,413.482,262.502     L413.482,262.502z" /><path
                     id="path2001"
                     fill="#010101"
                     d="M385.507,278.118c2.488-3.093,5.642-5.243,9.191-6.15     c-6.892,4.735-6.443,13.219-8.629,20.273c-0.697,2.608-1.906,5.011-2.509,7.685l0.175,0.139c1.147-3.022,3.163-5.878,5.678-8.345     c4.895-4.519,12.137-7.335,14.535-14.019c-0.11,9.289-7.859,16.592-15.273,21.812c-3.057,2.682-6.006,5.74-7.69,9.188     c-0.165-2.344,0.347-4.697,0.18-7.207C380.36,293.385,379.774,284.13,385.507,278.118L385.507,278.118z" /><path
                     id="path2003"
                     fill="#010101"
                     d="M371.561,305.845c-0.207-8.217,3.203-14.924,8.009-21.047     c0.14-0.07,0.239-0.21,0.419-0.176c-5.29,8.039-0.914,18.165-1.155,27.306l-0.698,9.359c0.104,0.068,0.104,0.349,0.349,0.24     c0.312-1.044,0.381-2.158,0.589-3.23c1.246-7.549,7.802-12.906,13.529-18.123c1.223-1.364,2.304-2.75,2.932-4.351     c-0.467,3.759-1.646,7.551-3.205,11.026c-4.457,8.692-12.69,15.824-14.194,25.774     C377.407,323.088,370.914,315.959,371.561,305.845L371.561,305.845z" /><path
                     id="path2005"
                     fill="#010101"
                     d="M367.559,317.53c0.592-2.57,1.045-5.23,2.164-7.589     c-2.119,10.863,5.187,18.69,7.584,28.106c1.003,3.522,1.248,7.304,2.683,10.609c0.134,0.073,0.25-0.067,0.332-0.174     c-3.568-10.001,1.583-19.297,6.759-27.128c1.259-2.122,1.984-4.485,2.61-6.924c0.55,4.527-0.594,9.74-1.252,14.44     c-1.259,5.981-3.138,11.652-4.773,17.454c-1.076,3.626-0.793,7.717-0.24,11.516l-0.518-0.415     c-3.795-6.998-11.31-12.456-13.541-20.101C367.529,331.232,366.309,324.172,367.559,317.53L367.559,317.53z" /><path
                     id="path2007"
                     fill="#010101"
                     d="M367.217,338.747c0.836,11.514,13.217,17.598,18.957,27.13     c1.358,1.951,2.536,4.109,4.351,5.741c-0.284-1.226-1.428-2.259-1.848-3.516c-2.008-3.997-2.74-8.761-2.257-13.594     c0.556-5.881,3.022-11.338,2.081-17.524c5.043,10.874,3.512,24.447,6.331,36.23c0.739,2.576,2.23,4.877,3.208,7.341     c-10.362-7.057-24.491-13.772-29.088-26.706C367.013,349.39,366.797,343.869,367.217,338.747L367.217,338.747z" /><path
                     id="path2009"
                     fill="#010101"
                     d="M373.406,365.188c5.778,13.07,20.247,14.153,29.948,22.111     c1.785,1.583,3.656,2.928,5.672,3.867l0.104-0.105c-2.227-2.014-4.804-4.308-6.363-6.918c-5.678-7.895-3.681-18.954-7.935-27.446     c3.866,4.625,7.381,9.432,9.714,14.677c3.471,8.563,4.798,18.236,12.831,24.709c-8.693-2.864-18.877-2.065-26.549-7.416     C382.45,383.516,374.974,374.784,373.406,365.188L373.406,365.188z" /><path
                     id="path2011"
                     fill="#010101"
                     d="M388.255,389.57c9.263,10.535,24.399,7.02,36.739,9.777     c1.743,0.238,3.338,0.937,5.186,0.654c-1.471-0.931-3.512-0.83-5.118-1.676c-9.672-3.398-11.091-13.869-16.342-20.93     c6.708,4.454,12.347,10.463,18.535,16.284c4.449,3.897,9.803,5.695,15.445,6.842c-1.356,0.495-3.133,0.359-4.588,0.74     c-10.135,2.492-21.396,6.566-32.144,2.919C398.98,401.98,391.77,396.455,388.255,389.57L388.255,389.57z" /><path
                     id="path2013"
                     fill="#010101"
                     d="M513.983,414.128c-10.439,3.895-21.332-0.178-29.485-6.361     c-3.301-2.097-6.21-5.119-10.48-4.851c-1.549-0.029-3.042,0.047-4.358,0.426c7.92,3.686,15.279,8.767,22.005,15.266     c-1.134,1.295-2.603,2.506-3.986,3.622c-6.483-6.985-13.662-13.708-21.701-17.635c-1.575,0.204-3.072,1.151-4.491,1.913     c-6.544,4.137-13.015,9.46-17.88,15.976l-4.181-3.452c6.671-6.75,14.053-12.003,22.126-15.756     c-7.934-2.513-13.112,4.133-19.134,7.514c-7.018,4.9-17.11,7.201-25.591,3.82c-4.561-1.729-8.98-4.277-12.283-8.418     c6.674,4.598,16.615,5.08,24.205,2.094c10.185-4.418,20.769-10.018,33.048-7.34c1.916,0.033,3.778,1.942,5.588,0.317     c9.127-2.37,19.458-0.74,27.315,3.43l8.098,3.246c7.527,2.783,17.259,2.013,23.711-2.573     C523.193,409.494,518.662,412.452,513.983,414.128L513.983,414.128z" /><path
                     id="path2015"
                     fill="#010101"
                     d="M525.169,403.341c-11.72,4.425-23.51-1.006-34.74-2.821l-2.162-0.276v-0.068     c5.37-1.218,10.582-2.817,14.855-6.675c6.296-6.05,11.897-12.278,18.887-17.047c-5.183,6.647-5.734,16.108-14.297,20.381     c-2.118,1.386-4.793,1.632-6.98,2.682c3.118,0.067,5.974-1.05,9.062-1.363c11.483-1.802,24.62,0.047,32.676-9.735     C539.478,395.236,531.988,400.944,525.169,403.341L525.169,403.341z" /><path
                     id="path2017"
                     fill="#010101"
                     d="M546.463,370.366c-4.628,3.029-9.32,5.839-13.767,9.283v-0.423     c6.812-11.321,3.482-26.875,7.679-39.335l1.565-4.174c-0.876,7.762,2.496,14.337,2.259,22.126     c-0.236,4.705-1.771,8.877-4.243,12.633h0.419c3.337-4.384,5.944-9.045,9.845-13.22c6.055-5.839,12.211-11.827,13.006-19.929     C565.281,350.854,557.691,362.708,546.463,370.366L546.463,370.366z" /></g></g></g><g
         id="g215"><path
             fill="none"
             d="M472.778,482.566c-0.326,0.339-0.629,0.702-0.871,1.116c-0.031,0.055-0.063,0.117-0.094,0.178   c-0.012,0.021-0.024,0.04-0.033,0.061l-0.02,0.051l-0.031,0.079l-0.189,0.287c-0.126,0.212-0.236,0.429-0.337,0.649   c-0.011,0.025-0.022,0.053-0.035,0.083c-0.087,0.208-0.2,0.503-0.015,0.173l0.355-0.566l0.184-0.289l0.084-0.131   c-0.317,0.646-0.418,0.854-0.433,0.882c-0.003,0.007,0.048-0.094,0.081-0.161c0-0.003,0.002-0.006,0.004-0.008   c-0.002,0.002-0.004,0.005-0.004,0.008l0.004-0.007c-0.002,0.003-0.002,0.003-0.004,0.005l0.66-1.17   c0.231-0.41,0.463-0.826,0.695-1.239c-0.002,0.001-0.002,0.001-0.003,0.003C472.778,482.567,472.778,482.567,472.778,482.566z"
             id="path181" /><path
             fill="none"
             d="M560.158,301.089c0.232,0.243,0.537,0.405,0.809,0.576c0.09,0.018,0.152,0.066,0.223,0.101   c0.039,0.015,0.08,0.028,0.123,0.032c0.021,0.006,0.038,0.006,0.072,0.012l0.176,0.117c0.245,0.145,0.508,0.259,0.781,0.338   c0.028,0.004,0.084,0.027,0.091,0.022l-0.003-0.002c0,0,0.004,0.001,0.006,0.001l-0.111-0.067l-0.217-0.139l-0.428-0.277   l-0.408-0.258c0.767,0.373,0.814,0.393,0.732,0.351c0.102,0.047-0.075-0.041-0.135-0.072l-0.006-0.002   c0.01,0.004,0.021,0.01,0.04,0.019l-0.105-0.062l-0.222-0.128l-0.883-0.506c-0.291-0.17-0.583-0.345-0.877-0.516   c0.002,0.003,0.005,0.007,0.008,0.01c-0.005-0.002-0.008-0.004-0.012-0.007C559.919,300.791,560.033,300.943,560.158,301.089z"
             id="path183" /><path
             fill="#023B41"
             d="M425.399,103.619c18.994,8.86,41.57,0.644,50.43-18.351c8.861-18.994,0.645-41.578-18.35-50.432   c-18.994-8.858-41.578-0.649-50.437,18.351C398.188,72.182,406.405,94.76,425.399,103.619z"
             id="path185" /><path
             fill="#023B41"
             d="M104.968,199.41c8.814-19.012,0.548-41.577-18.461-50.397c-19.011-8.815-41.572-0.548-50.392,18.468   c-8.82,19.004-0.556,41.571,18.456,50.386C73.587,226.686,96.147,218.42,104.968,199.41z"
             id="path187" /><path
             fill="#023B41"
             d="M225.388,521.739c-19.011-8.822-41.571-0.555-50.392,18.461c-8.814,19.012-0.548,41.572,18.463,50.393   c19.011,8.814,41.577,0.555,50.391-18.461C252.669,553.113,244.403,530.553,225.388,521.739z"
             id="path189" /><path
             fill="#4DAF5C"
             d="M190.361,300.996c0-75.801,61.449-137.25,137.25-137.25c75.801,0,137.25,61.449,137.25,137.25   c0,14.977-2.408,29.391-6.843,42.883c4.308-12.982,6.671-26.518,7.014-40.16l0.861-1.484c1.714-2.992,4.05-7.101,6.932-12.34   c1.489-2.668,3.099-5.642,4.839-8.868c1.758-3.234,3.641-6.737,5.598-10.473c4.016-7.531,8.424-16.146,13.103-25.285l1.577-3.141   c4.294-8.556,8.733-17.401,13.361-26.99l3.926-8.186l3.949-8.42l3.958-8.595c0.683-1.471,1.351-2.95,2.006-4.433l1.067-2.408   l0.666-1.702c0.171-0.492,0.312-0.996,0.449-1.495l0.125-0.455c1.322-5.304,0.734-10.916-1.652-15.8   c-1.213-2.479-2.807-4.668-4.68-6.446c-0.576-0.596-1.17-1.076-1.657-1.457l-0.851-0.668c-0.219-0.151-0.439-0.3-0.661-0.444   l-0.259-0.168c-0.949-0.612-1.502-0.932-1.873-1.094l-0.853-0.435l-0.497-0.238l-18.709-8.241l-9.464-4.106l-9.562-4.015   l-19.249-7.859c-14.456-5.859-26.821-11.184-37.806-16.283c-6.848-3.167-12.779-6.023-18.133-8.738   c-5.672-2.858-11.036-5.703-17.455-9.123l-5.072-2.727c-9.813-5.282-19.08-10.271-28.26-14.749   c-5.225-2.562-10.49-5.045-15.789-7.449l-7.458-3.385c-0.741-0.353-1.865-0.787-2.792-1.129l-0.31-0.093   c-0.819-0.25-1.747-0.533-2.564-0.654c-1.298-0.274-2.647-0.407-4.123-0.407c-0.722,0-1.444,0.033-2.166,0.091   c-1.87,0.154-3.769,0.603-6.037,1.438c-1.918,0.781-3.651,1.744-5.171,2.877c-1.713,1.303-3.094,2.653-4.028,3.912   c-0.697,0.83-1.296,1.79-1.705,2.477c-0.301,0.468-0.45,0.77-0.591,1.063l-0.677,1.392c-1.881,4.367-3.613,8.532-5.24,12.453   c-1.725,4.153-3.292,8.081-4.464,11.037c-1.341,3.353-2.609,6.518-3.69,9.388c-4.182,10.827-6.399,17.407-6.644,18.13   c-0.667,2.007,0.146,4.233,1.894,5.27c0.722,0.453,1.556,0.692,2.406,0.692c1.574,0,3.056-0.831,3.865-2.17   c0.394-0.643,4.014-6.584,9.596-16.694c1.421-2.527,2.929-5.333,4.563-8.378l0.281-0.522c1.747-3.235,3.624-6.742,5.583-10.508   c1.938-3.731,3.996-7.699,6.06-11.808l0.49-0.849c0.073-0.093,0.148-0.192,0.239-0.312c0.033-0.045,0.066-0.094,0.176-0.207   l0.164-0.18c0.256-0.302,0.639-0.627,1.154-0.983c0.357-0.241,0.853-0.484,1.268-0.642c0.705-0.204,1.252-0.313,1.648-0.331   l0.447-0.007c0.483,0,0.849,0.033,1.208,0.128l0.24,0.046l0.557,0.191l0.332,0.146c0.205,0.088,0.435,0.187,0.847,0.396   l7.435,3.557c5.247,2.521,10.533,4.96,15.858,7.312c9.374,4.174,19.193,8.086,29.606,12.234l5.197,2.075   c6.131,2.467,12.14,4.898,18.227,7.512c5.568,2.381,11.569,5.089,18.348,8.28c11.062,5.186,23.09,11.239,36.775,18.505   c6.135,3.239,12.272,6.472,18.412,9.704c3.07,1.582,6.131,3.158,9.23,4.748l9.209,4.604l17.998,8.866l0.885,0.494   c0.1,0.083,0.196,0.155,0.284,0.214l0.061,0.043l0.174,0.157l0.171,0.144l0.131,0.144c0.419,0.434,0.76,0.938,1.012,1.485   c0.449,1.023,0.557,2.257,0.318,3.098c-0.068,0.198-0.133,0.396-0.191,0.598c-0.09,0.194-0.165,0.375-0.22,0.511l-1,2.068   c-0.711,1.455-1.413,2.916-2.103,4.381l-4.059,8.589l-3.914,8.442l-3.734,8.245c-4.256,9.448-8.105,18.356-11.828,26.968   l-1.779,4.123c-3.742,8.864-7.613,18.029-10.816,25.968c-1.508,3.665-2.982,7.343-4.427,11.034   c-0.679,1.707-1.331,3.342-1.946,4.906c-2.33-16.141-7.495-32.062-15.594-47.003l-4.455-7.741l-0.281,0.376   c-8.867-13.89-19.854-25.756-33.24-35.804c-1.564-1.174-3.131-2.344-4.729-3.467l0.037-0.053l-1.125-0.694   c-1.418-0.962-2.869-1.876-4.386-2.708c-1.452-0.892-2.921-1.759-4.405-2.6l-0.165-0.098l-0.005,0.004   c-17.086-9.668-35.834-15.738-54.971-17.6l0.098-0.132l-1.786-0.02c-3.189-0.271-6.387-0.423-9.587-0.453l-2.932-0.002   l-0.251,0.334c-5.049,0.039-10.068,0.361-15.029,0.954c-2.392-1.436-4.794-2.857-7.205-4.263c-2.473-1.481-5.194-3.028-8.075-4.667   l-1.306-0.743c-2.927-1.673-6.832-3.895-11.081-6.23c-8.3-4.589-17.311-9.422-26.783-14.369   c-9.585-5.008-20.373-10.451-32.055-16.184c-11.112-5.443-23.362-11.103-36.408-16.819l-2.465-1.088l-1.722-0.684   c-0.753-0.313-1.455-0.504-2.069-0.673l-0.407-0.111c-2.108-0.543-4.277-0.818-6.454-0.816c-1.048,0-2.098,0.062-3.116,0.189   c-6.409,0.774-12.443,4.068-16.582,9.064l-0.725,0.911l-1.48,2.211c-0.456,0.748-0.624,1.072-0.706,1.259l-0.804,1.663   l-6.937,16.191c-5.979,13.972-11.697,29.065-16.307,41.237c-6.004,15.857-11.336,28.738-16.783,40.552   c-5.341,11.805-11.681,24.139-19.381,37.708l-10.063,17.865c-3.705,6.708-6.631,12.255-9.208,17.449   c-1.576,3.152-3.04,6.225-4.144,8.56l-0.782,1.683c-1.044,2.245-2.061,4.432-3.073,6.737c-2.12,4.856-2.658,10.257-1.52,15.189   c0.529,2.456,1.445,4.812,2.71,6.979c1.29,2.216,2.84,4.176,4.401,5.582c0.501,0.508,1.008,0.916,1.438,1.26l0.44,0.344   c0.38,0.3,0.756,0.586,1.214,0.871c0.532,0.343,1.07,0.674,1.612,0.996l1.697,0.852c0.179,0.089,0.327,0.162,0.393,0.188   l3.327,1.414c1.834,0.787,3.654,1.531,5.44,2.264l1.781,0.729c4.59,1.901,8.961,3.626,13.409,5.37   c7.514,2.941,14.938,5.698,22.06,8.194c5.959,2.097,10.598,3.581,13.982,4.666l0.49,0.159c3.378,1.049,5.214,1.568,5.214,1.568   c0.431,0.126,0.878,0.188,1.327,0.187c1.602,0,3.09-0.792,3.965-2.107c0.719-1.055,0.982-2.353,0.733-3.605   c-0.238-1.243-0.965-2.339-2.019-3.041c0,0-1.584-1.071-4.607-2.993l-0.267-0.167c-2.887-1.806-7.254-4.535-12.741-7.752   c-6.768-3.976-13.606-7.829-20.513-11.558l-0.718-0.387c-3.826-2.058-7.782-4.186-12.028-6.371l-1.529-0.794   c-1.812-0.948-3.63-1.884-5.457-2.808l-0.208-0.102l0.007-0.02l-2.441-1.213l-0.769-0.441c-0.044-0.038-0.088-0.075-0.133-0.112   c-0.15-0.146-0.3-0.289-0.451-0.431c-0.959-0.994-1.257-2.778-0.647-4.014l3.873-8.254c1.567-3.448,2.75-6.12,3.833-8.652   c2.298-5.308,4.646-11.132,7.393-18.35l7.131-19.202c5.379-14.618,10.698-27.424,16.273-39.162   c5.478-11.739,11.865-24.125,20.104-38.98c8.027-14.464,14.665-26.528,20.957-39.091l7.682-15.366l0.407-0.727l0.25-0.275   c0.427-0.44,1.143-0.756,1.737-0.786l0.177-0.005c0.263,0,0.499,0.046,0.521,0.051c0.095,0.038,0.189,0.072,0.31,0.111l2.961,1.429   c12.858,6.296,25.094,11.995,36.368,16.936c11.803,5.164,22.926,9.88,33.063,14.012c9.713,3.966,19.223,7.724,28.262,11.167   c4.515,1.727,8.74,3.275,11.911,4.429l0.095,0.036c-25.973,7.812-49.359,23.235-66.836,44.561l-0.104-0.077l-7.038,9.38   l0.161,0.122c-18.567,27.79-26.674,61.278-23.035,93.956c-1.573,2.404-3.125,4.823-4.654,7.256   c-8.222,13.045-17.832,29.612-27.06,46.649c-5.137,9.475-10.697,20.193-16.528,31.857c-5.499,11.029-11.147,23.266-16.783,36.371   l-1.03,2.383l-0.771,1.945c-0.316,0.786-0.519,1.56-0.748,2.432c-0.814,3.193-1.022,6.51-0.612,9.778   c0.807,6.521,4.172,12.646,9.259,16.825l0.925,0.73l1.124,0.796c0.409,0.267,0.821,0.524,1.225,0.765   c0.695,0.42,1,0.584,1.216,0.678l1.687,0.806l16.257,6.774c6.808,2.811,13.672,5.487,20.588,8.026   c6.965,2.53,13.946,5.024,20.94,7.478l10.449,3.772c3.293,1.22,6.669,2.505,10.316,3.93c6.532,2.571,13.302,5.452,20.133,8.567   c11.86,5.318,24.147,11.844,37.571,19.956l4.591,2.757c4.4,2.646,8.743,5.258,13.043,7.791c6.452,3.764,12.103,6.868,17.256,9.479   c2.862,1.476,5.716,2.845,8.48,4.176c1.396,0.665,2.798,1.317,4.207,1.958l4.22,1.869c3.153,1.381,6.627,2.113,10.054,2.111   c1.812,0,3.598-0.203,5.283-0.598c2.492-0.558,4.846-1.48,6.989-2.74c2.248-1.315,4.182-2.859,5.667-4.509   c0.5-0.493,0.917-1.02,1.266-1.472l1.129-1.552c0.373-0.578,0.734-1.167,1.076-1.765l0.766-1.574   c0.094-0.193,0.193-0.393,0.272-0.6l0.011,0.003l1.297-3.163c0.852-2.059,1.649-4.094,2.432-6.09l0.459-1.163   c1.895-4.767,3.611-9.397,5.127-13.489c2.717-7.366,5.256-14.796,7.617-22.281c2.191-6.952,3.541-11.809,4.293-14.672l1.332-5.296   c0.269-1.175-0.182-2.397-1.148-3.116c-1.3-0.969-3.286-0.678-4.26,0.631l-3.178,4.428c-1.695,2.42-4.531,6.596-8.418,12.744   c-4.19,6.639-8.221,13.377-12.09,20.209c-2.23,3.947-4.611,8.174-6.981,12.623l-0.716,1.326c-0.98,1.815-1.981,3.668-2.959,5.568   l-0.027,0.058l-0.06-0.083l-1.333,2.73l-0.41,0.697l-0.598,0.568c-0.198,0.191-0.568,0.377-0.859,0.516   c-0.26,0.128-0.571,0.212-0.998,0.258c-0.66,0.102-1.299-0.004-1.949-0.324l-4.01-1.924c-1.396-0.662-2.799-1.312-4.207-1.949   l-0.796-0.355c-2.546-1.133-5.181-2.307-7.851-3.412c-5.357-2.264-11.204-4.505-18.409-7.058c-4.738-1.653-9.572-3.296-14.473-4.96   l-4.966-1.686c-14.82-4.996-27.737-10.16-39.502-15.795c-6.964-3.29-13.355-6.507-19.534-9.838   c-3.238-1.744-6.458-3.523-9.658-5.334c-2.497-1.434-4.993-2.868-7.486-4.307l-2.138-1.231   c-6.398-3.753-12.815-7.475-19.251-11.163c-6.403-3.639-12.879-7.148-19.422-10.53l-14.268-7.31l0.004-0.018l-1.034-0.518v-0.002   l-0.627-0.357l-0.5-0.664h-0.011c-0.174-0.335-0.274-0.722-0.269-1.066c0.002-0.18,0.032-0.356,0.086-0.527l1.557-3.146   c6.324-12.686,12.021-24.902,16.928-36.313c5.132-11.976,9.721-23.143,13.638-33.194c5.863-15.016,11.276-29.961,15.601-42.996   c0.133,0.506,0.259,1.01,0.4,1.514l-0.004,0.002l0.091,0.312c0.235,0.836,0.477,1.672,0.729,2.504l3.162,10.438l0.316-0.421   c7.101,18.065,18.178,34.53,32.044,48.146l-0.013,0.014l3.049,3.754c2.93,2.934,6.21,5.398,9.493,7.861   c15.946,11.967,33.413,19.944,52.879,24.293l3.871,0.706l0.03-0.04C237.736,423.036,190.361,367.551,190.361,300.996z"
             id="path191" /><path
             fill="#4DAF5C"
             d="M441.076,378.335l-0.048-0.036c-0.297,0.436-0.599,0.868-0.901,1.3L441.076,378.335z"
             id="path193" /><path
             fill="#4DAF5C"
             d="M457.14,346.464c-0.12,0.341-0.238,0.683-0.36,1.022C456.903,347.147,457.018,346.805,457.14,346.464z"
             id="path195" /><path
             fill="#4DAF5C"
             d="M434.037,387.717l0.655-0.874c-0.228,0.284-0.456,0.569-0.686,0.853L434.037,387.717z"
             id="path197" /><path
             fill="#4DAF5C"
             d="M561.01,362.807c4.242-5.663,8.525-11.189,12.477-16.703c3.973-5.509,7.555-11.04,10.655-16.598   c1.569-2.774,3.001-5.56,4.345-8.338c0.664-1.378,1.309-2.767,1.929-4.166c0.316-0.694,0.62-1.381,0.916-2.074   c0.317-0.744,0.632-1.486,0.949-2.219c2.751-6.242,3.317-13.32,1.823-19.589c-1.431-6.308-4.83-11.92-9.424-16.054   c-0.555-0.532-1.158-1.009-1.764-1.475l-0.92-0.688l-0.467-0.338l-0.609-0.399c-0.814-0.52-1.645-1.012-2.493-1.476l-0.3-0.161   l-0.115-0.05l-0.24-0.1l-0.938-0.398c-1.563-0.771-0.505-0.24-0.887-0.423l-0.117-0.044l-0.238-0.089l-0.95-0.345   c-0.637-0.221-1.27-0.444-1.896-0.66c-2.514-0.893-4.992-1.708-7.407-2.507c-4.593-1.494-9.222-2.884-13.88-4.166   c-8.797-2.436-16.646-4.172-23.226-5.354c-6.569-1.199-11.862-1.862-15.517-2.219c-1.398-0.135-2.801-0.245-4.205-0.327   c-0.966-0.039-1.463-0.061-1.463-0.061c-0.579-0.023-1.142,0.181-1.566,0.572c-0.881,0.812-0.938,2.184-0.127,3.067   c0,0,0.338,0.373,0.998,1.083c0.969,1.02,1.959,2.021,2.967,3c2.623,2.563,6.557,6.168,11.717,10.406   c5.148,4.261,11.545,9.132,19.084,14.273c3.988,2.727,8.039,5.362,12.146,7.906c2.035,1.247,4.119,2.52,6.268,3.779   c-0.322,0.633-0.635,1.27-0.936,1.912c-0.668,1.375-1.312,2.763-1.932,4.16c-1.283,2.861-2.472,5.765-3.561,8.704   c-2.24,5.958-4.15,12.266-5.791,18.855c-1.66,6.581-3.102,13.414-4.693,20.314c-1.564,6.908-3.34,13.853-5.609,20.654   c-2.241,6.822-5.005,13.496-8.159,20.047c-3.163,6.552-6.652,13.014-10.54,19.32c-3.883,6.314-8.131,12.488-12.504,18.607   c-4.371,6.118-8.805,12.205-12.986,18.378c-4.156,6.103-8.08,12.36-11.762,18.763c-1.768,3.145-3.531,6.28-5.282,9.399   c-11.727-6.223-23.349-11.649-34.686-16.169c-11.804-4.732-23.183-8.729-33.806-12.166c-10.628-3.428-20.542-6.201-29.418-8.471   c-7.713-1.971-15.489-3.691-23.314-5.153c-1.157-0.216-2.315-0.422-3.476-0.624c-6.099,1.004-12.327,1.614-18.668,1.787   c0.624,0.62,1.792,1.76,3.511,3.34c2.674,2.463,6.646,5.969,11.817,10.191c6.171,5.025,12.507,9.851,18.993,14.465   c7.467,5.31,15.988,11.084,25.468,16.986c9.487,5.887,19.889,11.993,31.126,17.945c11.229,5.979,23.4,11.561,36.307,16.664   l3.49,1.387l1.521,0.571c1.002,0.377,2.055,0.657,3.104,0.921c4.207,1.043,8.57,1.279,12.864,0.699   c8.495-1.121,16.394-5.531,21.792-12.221l0.982-1.271l0.475-0.642l0.561-0.845c0.377-0.578,0.737-1.168,1.082-1.77   c0.332-0.559,0.768-1.358,0.755-1.393l0.267-0.613l0.199-0.467c0.895-1.804,0.281-0.59,0.494-1.031l0.473-1.265   c0.632-1.682,1.263-3.374,1.896-5.065c1.26-3.383,2.53-6.789,3.8-10.205c2.511-6.947,4.756-13.983,6.73-21.098   c2.006-7.178,3.788-14.496,5.641-21.785c1.849-7.289,3.811-14.521,6.131-21.562c2.303-7.044,4.977-13.879,7.939-20.524   c2.969-6.645,6.273-13.063,10.035-19.178C552.596,374.307,556.75,368.472,561.01,362.807z M559.817,300.629   c0.294,0.171,0.586,0.346,0.877,0.516l0.883,0.506l0.222,0.128l0.105,0.062c-0.019-0.009-0.03-0.015-0.04-0.019l0.006,0.002   c0.06,0.031,0.236,0.119,0.135,0.072c0.082,0.042,0.034,0.022-0.732-0.351l0.408,0.258l0.428,0.277l0.217,0.139l0.111,0.067   c-0.002,0-0.006-0.001-0.006-0.001l0.003,0.002c-0.007,0.005-0.062-0.018-0.091-0.022c-0.273-0.079-0.536-0.193-0.781-0.338   l-0.176-0.117c-0.034-0.005-0.051-0.005-0.072-0.012c-0.043-0.004-0.084-0.018-0.123-0.032c-0.07-0.035-0.133-0.083-0.223-0.101   c-0.271-0.171-0.576-0.333-0.809-0.576c-0.125-0.146-0.239-0.298-0.346-0.457c0.004,0.002,0.007,0.004,0.012,0.007   C559.822,300.636,559.819,300.633,559.817,300.629z M472.084,483.805l-0.66,1.17c0.002-0.002,0.002-0.002,0.004-0.005l-0.004,0.007   c-0.033,0.067-0.084,0.168-0.081,0.161c-0.003,0.005-0.003,0.007-0.001,0.002c-0.002,0.005-0.002,0.003,0.001-0.002   c0.015-0.028,0.115-0.235,0.433-0.882l-0.084,0.131l-0.184,0.289l-0.355,0.566c-0.186,0.33-0.072,0.035,0.015-0.173   c0.013-0.03,0.024-0.058,0.035-0.083c0.101-0.221,0.211-0.438,0.337-0.649l0.189-0.287l0.031-0.079l0.02-0.051   c0.009-0.021,0.021-0.04,0.033-0.061c0.03-0.061,0.062-0.123,0.094-0.178c0.242-0.414,0.545-0.777,0.871-1.116   c0,0.001,0,0.001-0.001,0.003c0.001-0.002,0.001-0.002,0.003-0.003C472.547,482.979,472.316,483.395,472.084,483.805z"
             id="path199" /><path
             fill="#023B41"
             d="M597.049,389.506c-19.01-8.818-41.571-0.554-50.391,18.457c-8.814,19.016-0.556,41.57,18.462,50.397   c19.012,8.815,41.571,0.548,50.392-18.462C624.324,420.887,616.065,398.322,597.049,389.506z"
             id="path201" /><path
             fill="#023B41"
             d="M349.385,436.28c0.232,0.039,0.464,0.084,0.696,0.125c33.69-5.549,63.246-23.362,83.926-48.709   l-0.075-0.056C412.361,413.966,382.074,430.965,349.385,436.28z"
             id="path203" /><path
             fill="#023B41"
             d="M300.693,435.459l-0.09,0.123c8.733,1.743,17.763,2.664,27.009,2.664c1.271,0,2.539-0.021,3.802-0.055   c-0.069-0.068-0.136-0.137-0.192-0.191C321.102,438.287,310.867,437.475,300.693,435.459z"
             id="path205" /><path
             fill="#023B41"
             d="M441.029,378.299c6.478-9.484,11.795-19.822,15.751-30.812c-3.908,10.764-9.18,21.11-15.807,30.771   L441.029,378.299z"
             id="path207" /><path
             fill="#023B41"
             d="M440.127,379.599l-5.435,7.244C436.581,384.491,438.395,382.075,440.127,379.599z"
             id="path209" /><path
             fill="#023B41"
             d="M458.019,343.879c-0.286,0.864-0.575,1.727-0.879,2.585C457.44,345.606,457.735,344.745,458.019,343.879z"
             id="path211" /><path
             fill="#023B41"
             d="M349.385,436.28c32.689-5.314,62.976-22.313,84.547-48.64l0.075,0.056c0.229-0.283,0.458-0.568,0.686-0.853   l5.435-7.244c0.303-0.432,0.604-0.864,0.901-1.3l-0.056-0.041c6.627-9.661,11.898-20.008,15.807-30.771   c0.122-0.34,0.24-0.682,0.36-1.022c0.304-0.858,0.593-1.721,0.879-2.585c4.435-13.492,6.843-27.906,6.843-42.883   c0-75.801-61.449-137.25-137.25-137.25c-75.802,0-137.25,61.449-137.25,137.25c0,66.555,47.375,122.04,110.241,134.586l0.09-0.123   c10.174,2.016,20.409,2.828,30.528,2.541c0.057,0.055,0.123,0.123,0.192,0.191c6.341-0.173,12.569-0.783,18.668-1.787   C349.849,436.364,349.617,436.319,349.385,436.28z M316.814,285.066l-43.143-32.382l26.161-34.854   c15.852,5.24,32.743,13.366,49.349,24.112L316.814,285.066z M358.885,248.549c1.59,1.137,3.167,2.292,4.73,3.467   c13.545,10.168,25.54,21.272,35.625,32.623l-29.906,39.848l-43.143-32.383L358.885,248.549z M309.774,294.446l-32.369,43.121   c-14.953-12.94-27.472-26.892-36.935-40.649l26.161-34.855L309.774,294.446z M319.152,301.484l43.143,32.382l-29.908,39.848   c-13.719-6.516-27.731-14.933-41.277-25.1c-1.563-1.174-3.114-2.365-4.65-3.574L319.152,301.484z M371.672,340.907l52.499,39.4   c-15.456,13.556-46.505,12.156-80.765-1.74L371.672,340.907z M431.212,370.93l-52.501-39.404l28.269-37.66   C429.893,322.879,439.906,352.305,431.212,370.93z M445.024,343.993c-3.248-18.557-13.911-39.472-30.67-59.951l27.362-36.455   C455.743,278.369,456.507,313.011,445.024,343.993z M403.035,199.494c13.133,9.854,24.502,22.055,32.823,36.364l-29.356,39.111   c-10.229-11.193-22.252-22.129-35.846-32.334c-1.564-1.172-3.141-2.329-4.729-3.469l32.418-43.191   C399.753,197.031,401.627,198.438,403.035,199.494z M332.45,174.372c19.349,0.594,38.579,6.229,55.812,15.5l-32.01,42.648   c-16.479-10.802-33.073-19.088-48.896-24.714L332.45,174.372z M308.043,175.624c2.155,0.723,4.314,1.431,6.479,2.123   l-19.615,26.134c-15.913-4.355-30.735-5.814-43.483-4.216C267.979,187.245,287.383,178.989,308.043,175.624z M287.162,214.199   l-23.339,31.095l-33.27-24.973C242.263,210.05,262.93,208.365,287.162,214.199z M223.512,229.7l33.271,24.971l-23.338,31.096   C221.076,264.127,216.923,243.812,223.512,229.7z M201.843,312.83c0.708-2.564,1.058-3.938,1.062-3.943   c0.308-1.212-0.17-2.507-1.179-3.217c-0.111-0.077-0.23-0.133-0.346-0.194c-0.616-17.079,2.128-34.053,8.131-49.968   c2.023,12.686,7.565,26.514,16.189,40.573l-22.065,29.398C202.833,321.295,202.234,317.074,201.843,312.83z M207.855,340.376   l25.093-33.434c9.823,13.62,22.415,27.241,37.387,40.048l-32.011,42.648C224.61,375.679,213.825,358.789,207.855,340.376z    M295.771,422.493c-15.712-4.463-30.486-11.15-44.082-21.355c-1.563-1.175-3.128-2.348-4.691-3.521l32.418-43.194   c1.538,1.207,3.088,2.397,4.651,3.572c13.597,10.204,27.454,18.693,41.061,25.389L295.771,422.493z M308.672,424.847l27.361-36.456   c24.763,10.551,48.198,14.92,67.097,12.593C376.368,420.86,342.378,429.751,308.672,424.847z"
             id="path213" /></g></svg>
