<?xml version="1.0" encoding="UTF-8" standalone="no"?>
<svg
     xmlns:dc="http://purl.org/dc/elements/1.1/"
     xmlns:cc="http://creativecommons.org/ns#"
     xmlns:rdf="http://www.w3.org/1999/02/22-rdf-syntax-ns#"
     xmlns:svg="http://www.w3.org/2000/svg"
     xmlns="http://www.w3.org/2000/svg"
     xmlns:sodipodi="http://sodipodi.sourceforge.net/DTD/sodipodi-0.dtd"
     xmlns:inkscape="http://www.inkscape.org/namespaces/inkscape"
     version="1.1"
     id="Calque_1"
     x="0px"
     y="0px"
     width="636.271px"
     height="636.269px"
     viewBox="0 0 636.271 636.269"
     enable-background="new 0 0 636.271 636.269"
     xml:space="preserve"
     sodipodi:docname="charter-member.svg"
     inkscape:version="0.92.2 5c3e80d, 2017-08-06"><title
         id="title25">osgeo-charter-member</title><metadata
         id="metadata23"><rdf:RDF><cc:Work
                 rdf:about=""><dc:format>image/svg+xml</dc:format><dc:type
                     rdf:resource="http://purl.org/dc/dcmitype/StillImage" /><dc:title>osgeo-charter-member</dc:title><dc:date>08-21-2018</dc:date><dc:creator><cc:Agent><dc:title>Nicolas Bozon</dc:title></cc:Agent></dc:creator><dc:rights><cc:Agent><dc:title>copyright OSGeo</dc:title></cc:Agent></dc:rights><dc:publisher><cc:Agent><dc:title>OSGeo</dc:title></cc:Agent></dc:publisher><dc:identifier>osgeo-charter-member</dc:identifier><dc:description>OSGeo charter member</dc:description><dc:contributor><cc:Agent><dc:title>OSGeo Marketing Committee</dc:title></cc:Agent></dc:contributor><cc:license
                     rdf:resource="http://creativecommons.org/licenses/by-sa/4.0/" /></cc:Work><cc:License
                 rdf:about="http://creativecommons.org/licenses/by-sa/4.0/"><cc:permits
                     rdf:resource="http://creativecommons.org/ns#Reproduction" /><cc:permits
                     rdf:resource="http://creativecommons.org/ns#Distribution" /><cc:requires
                     rdf:resource="http://creativecommons.org/ns#Notice" /><cc:requires
                     rdf:resource="http://creativecommons.org/ns#Attribution" /><cc:permits
                     rdf:resource="http://creativecommons.org/ns#DerivativeWorks" /><cc:requires
                     rdf:resource="http://creativecommons.org/ns#ShareAlike" /></cc:License></rdf:RDF></metadata><defs
         id="defs21" /><sodipodi:namedview
         pagecolor="#ffffff"
         bordercolor="#666666"
         borderopacity="1"
         objecttolerance="10"
         gridtolerance="10"
         guidetolerance="10"
         inkscape:pageopacity="0"
         inkscape:pageshadow="2"
         inkscape:window-width="640"
         inkscape:window-height="480"
         id="namedview19"
         showgrid="false"
         inkscape:zoom="0.37091231"
         inkscape:cx="318.1355"
         inkscape:cy="318.13449"
         inkscape:window-x="0"
         inkscape:window-y="0"
         inkscape:window-maximized="0"
         inkscape:current-layer="Calque_1" /><g
         id="g10"><path
             fill="#010101"
             d="M302.229,127.961V64.172V0l-39.904,69.847C153.628,94.171,71.226,187.974,64.18,302.225h63.775   C135.611,209.508,209.508,135.621,302.229,127.961z"
             id="path2" /><path
             fill="#010101"
             d="M127.951,334.048H64.172H0l69.848,39.904c24.323,108.682,118.128,191.09,232.378,198.139V508.31   C209.508,500.652,135.611,426.765,127.951,334.048z"
             id="path4" /><path
             fill="#010101"
             d="M566.432,262.323C542.103,153.631,448.3,71.223,334.048,64.177v63.789   c92.716,7.652,166.612,81.545,174.274,174.261h63.781h64.168L566.432,262.323z"
             id="path6" /><path
             fill="#010101"
             d="M334.048,508.31v63.803v64.156l39.902-69.846c108.688-24.324,191.102-118.127,198.145-232.385h-63.776   C500.66,426.755,426.759,500.642,334.048,508.31z"
             id="path8" /></g><g
         id="g16"><path
             fill="#010101"
             d="M418.382,337.88c-2.5-8.314-5.681-15.467-9.451-21.258c-3.525-5.412-8.09-9.724-13.951-13.18   c-4.783-2.82-10.107-4.417-16.199-4.845c-16.824,15.213-36.916,22.92-59.779,22.92c-22.865,0-42.957-7.706-59.779-22.92   c-6.091,0.429-11.417,2.024-16.2,4.845c-5.862,3.456-10.425,7.768-13.95,13.18c-3.771,5.789-6.951,12.94-9.453,21.26   c-2.59,8.617-4.389,17.289-5.345,25.775c-0.977,8.688-1.474,18.07-1.474,27.881c0,11.076,3.034,20.245,9.274,28.034   c5.751,7.177,12.315,10.666,20.066,10.666h153.72c7.752,0,14.315-3.489,20.065-10.666c6.241-7.787,9.274-16.958,9.274-28.034   c0-9.816-0.497-19.197-1.474-27.882C422.774,355.179,420.975,346.506,418.382,337.88z"
             id="path12" /><path
             fill="#010101"
             d="M319.001,292c16.75,0,30.654-5.762,42.506-17.614c11.854-11.853,17.614-25.756,17.614-42.506   s-5.761-30.655-17.614-42.506c-11.852-11.853-25.756-17.614-42.506-17.614s-30.654,5.762-42.506,17.614   c-11.852,11.852-17.614,25.756-17.614,42.506s5.762,30.654,17.614,42.506C288.346,286.238,302.251,292,319.001,292z"
             id="path14" /></g></svg>