<?xml version="1.0" encoding="UTF-8" standalone="no"?>
<svg
     xmlns:dc="http://purl.org/dc/elements/1.1/"
     xmlns:cc="http://creativecommons.org/ns#"
     xmlns:rdf="http://www.w3.org/1999/02/22-rdf-syntax-ns#"
     xmlns:svg="http://www.w3.org/2000/svg"
     xmlns="http://www.w3.org/2000/svg"
     xmlns:sodipodi="http://sodipodi.sourceforge.net/DTD/sodipodi-0.dtd"
     xmlns:inkscape="http://www.inkscape.org/namespaces/inkscape"
     version="1.1"
     id="Calque_1"
     x="0px"
     y="0px"
     width="636.271px"
     height="636.269px"
     viewBox="0 0 636.271 636.269"
     enable-background="new 0 0 636.271 636.269"
     xml:space="preserve"
     sodipodi:docname="code-of-conduct.svg"
     inkscape:version="0.92.2 5c3e80d, 2017-08-06"><title
         id="title61">osgeo-code-of-conduct</title><metadata
         id="metadata59"><rdf:RDF><cc:Work
                 rdf:about=""><dc:format>image/svg+xml</dc:format><dc:type
                     rdf:resource="http://purl.org/dc/dcmitype/StillImage" /><dc:title>osgeo-code-of-conduct</dc:title><dc:date>08-21-2018</dc:date><dc:creator><cc:Agent><dc:title>Nicolas Bozon</dc:title></cc:Agent></dc:creator><dc:rights><cc:Agent><dc:title>copyright OSGeo</dc:title></cc:Agent></dc:rights><dc:publisher><cc:Agent><dc:title>OSGeo</dc:title></cc:Agent></dc:publisher><dc:identifier>osgeo-code-of-conduct</dc:identifier><dc:description>OSGeo Code of Conduct</dc:description><dc:contributor><cc:Agent><dc:title>OSGeo Marketing Committee</dc:title></cc:Agent></dc:contributor><cc:license
                     rdf:resource="http://creativecommons.org/licenses/by-sa/4.0/" /></cc:Work><cc:License
                 rdf:about="http://creativecommons.org/licenses/by-sa/4.0/"><cc:permits
                     rdf:resource="http://creativecommons.org/ns#Reproduction" /><cc:permits
                     rdf:resource="http://creativecommons.org/ns#Distribution" /><cc:requires
                     rdf:resource="http://creativecommons.org/ns#Notice" /><cc:requires
                     rdf:resource="http://creativecommons.org/ns#Attribution" /><cc:permits
                     rdf:resource="http://creativecommons.org/ns#DerivativeWorks" /><cc:requires
                     rdf:resource="http://creativecommons.org/ns#ShareAlike" /></cc:License></rdf:RDF></metadata><defs
         id="defs57" /><sodipodi:namedview
         pagecolor="#ffffff"
         bordercolor="#666666"
         borderopacity="1"
         objecttolerance="10"
         gridtolerance="10"
         guidetolerance="10"
         inkscape:pageopacity="0"
         inkscape:pageshadow="2"
         inkscape:window-width="640"
         inkscape:window-height="480"
         id="namedview55"
         showgrid="false"
         inkscape:zoom="0.37091231"
         inkscape:cx="318.1355"
         inkscape:cy="318.13449"
         inkscape:window-x="0"
         inkscape:window-y="0"
         inkscape:window-maximized="0"
         inkscape:current-layer="Calque_1" /><g
         id="layer1"
         transform="translate(-226.1321,-293.592)"
         display="none"><g
             id="g2086"
             transform="matrix(1.697553,0,0,1.697553,-237.7672,38.25535)"
             display="inline"><g
                 id="g1987"><path
                     id="path1989"
                     fill="#010101"
                     d="M527.456,395.001c-5.99,1.605-12.383,2.119-18.202,4.105     c9.855-8.45,9.292-21.523,15.867-31.475c2.095-2.817,3.826-5.771,6.267-8.444c-4,8.022-2.265,18.43-6.86,26.215     c-1.768,3.091-4.298,6.092-7.094,8.521c0.914-0.036,1.713-0.826,2.516-1.354c7.463-7.446,17.212-9.529,25.283-15.58     c3.234-2.576,6.196-5.952,7.617-9.605C551.322,379.741,539.032,391.321,527.456,395.001L527.456,395.001z" /><path
                     id="path1991"
                     fill="#010101"
                     d="M554.339,344.979c-3.651,5.196-8.068,10.033-11.44,15.312     c0.376-4.18,0.871-9.321-0.758-13.28c-2.821-8.528-5.3-17.186-6.1-26.545l0.11-3.579c2.124,9.558,11.512,16.128,10.92,26.849     c0.215,2.598-0.589,4.807-1.075,7.092l0.161,0.169l0.423-0.474c1.392-5.259,2.095-10.789,4.26-15.695     c3.076-7.061,6.917-14.186,5.352-22.711C560.872,322.167,559.453,335.596,554.339,344.979L554.339,344.979z" /><path
                     id="path1993"
                     fill="#010101"
                     d="M548.576,290.83c6.156,8.344,7.506,21.639,3.021,31.209     c-1.671,4.056-2.851,8.377-3.507,12.866c-0.313-0.774-0.384-1.815-0.664-2.678c-2.449-9.367-11.309-16.044-14.952-24.876     c-1.156-2.888-2.141-5.872-2.687-9.008c3.893,7.2,13.487,10.919,16.103,18.855c1.071,2.007,1.011,4.514,1.675,6.673     c0.14,0,0.278-0.104,0.278-0.246c-1.151-8.174-0.799-16.729,0.31-24.802c-0.064-4.372-0.491-8.614-2.921-11.999     C546.791,287.734,547.493,289.477,548.576,290.83L548.576,290.83z" /><path
                     id="path1995"
                     fill="#010101"
                     d="M544.236,289.229c1.617,7.311-0.745,14.431,0.74,21.812l-0.055,0.064     c-3.977-7.821-12.421-11.512-18.232-17.772c-3.366-3.715-4.83-8.242-5.672-13.035c3.329,8.026,12.312,9.795,17.469,16.558     c1.726,1.559,2.289,3.719,3.402,5.487l0.182-0.175c-2.966-6.331-3.96-13.457-6.029-20.209c-1.037-2.926-3.093-5.801-5.852-7.646     C536.959,275.696,542.827,282.764,544.236,289.229L544.236,289.229z" /><path
                     id="path1997"
                     fill="#010101"
                     d="M526.136,272.462c5.099,4.563,7.405,10.471,8.893,16.593l0.843,1.944     c-7.4-5.322-14.123-12.477-18.849-20.033l-5.772-5.839C516.325,267.279,521.795,268.563,526.136,272.462L526.136,272.462z" /><path
                     id="path1999"
                     fill="#010101"
                     d="M409.258,266.097c-5.116,4.485-8.664,10.156-12.458,15.444     c-3.402,4.212-7.753,6.989-11.61,10.612c2.082-4.316,2.158-9.471,5.11-13.435C394.502,271.387,402.293,268.809,409.258,266.097     L409.258,266.097z" /><path
                     id="path2001"
                     fill="#010101"
                     d="M381.282,281.713c2.488-3.093,5.642-5.243,9.191-6.15     c-6.892,4.735-6.443,13.219-8.629,20.273c-0.697,2.608-1.906,5.011-2.509,7.685l0.175,0.139c1.147-3.022,3.163-5.878,5.679-8.345     c4.894-4.519,12.137-7.335,14.535-14.019c-0.11,9.289-7.859,16.592-15.273,21.812c-3.057,2.682-6.006,5.74-7.69,9.188     c-0.165-2.344,0.347-4.697,0.18-7.207C376.135,296.98,375.549,287.725,381.282,281.713L381.282,281.713z" /><path
                     id="path2003"
                     fill="#010101"
                     d="M367.337,309.44c-0.207-8.217,3.203-14.924,8.009-21.047c0.14-0.07,0.239-0.21,0.419-0.176     c-5.29,8.039-0.914,18.165-1.155,27.306l-0.698,9.359c0.104,0.068,0.104,0.349,0.349,0.24c0.312-1.043,0.381-2.158,0.589-3.23     c1.246-7.549,7.802-12.906,13.529-18.123c1.223-1.364,2.304-2.75,2.932-4.351c-0.467,3.759-1.646,7.55-3.205,11.026     c-4.457,8.692-12.69,15.824-14.194,25.774C373.182,326.683,366.69,319.554,367.337,309.44L367.337,309.44z" /><path
                     id="path2005"
                     fill="#010101"
                     d="M363.335,321.125c0.592-2.57,1.045-5.23,2.164-7.588     c-2.119,10.863,5.187,18.69,7.584,28.106c1.003,3.522,1.248,7.304,2.683,10.609c0.134,0.071,0.25-0.067,0.333-0.174     c-3.568-10.001,1.583-19.297,6.759-27.128c1.259-2.122,1.984-4.485,2.61-6.924c0.55,4.527-0.594,9.74-1.252,14.44     c-1.259,5.981-3.138,11.652-4.773,17.455c-1.076,3.625-0.793,7.717-0.24,11.516l-0.518-0.415     c-3.795-6.998-11.31-12.456-13.541-20.101C363.305,334.827,362.084,327.767,363.335,321.125L363.335,321.125z" /><path
                     id="path2007"
                     fill="#010101"
                     d="M362.993,342.342c0.836,11.514,13.217,17.598,18.957,27.13     c1.358,1.951,2.536,4.109,4.351,5.741c-0.284-1.225-1.428-2.259-1.848-3.516c-2.008-3.997-2.74-8.76-2.257-13.594     c0.556-5.88,3.022-11.338,2.081-17.524c5.043,10.874,3.512,24.447,6.331,36.23c0.739,2.576,2.23,4.877,3.208,7.342     c-10.362-7.057-24.491-13.772-29.088-26.707C362.789,352.984,362.573,347.464,362.993,342.342L362.993,342.342z" /><path
                     id="path2009"
                     fill="#010101"
                     d="M369.182,368.783c5.778,13.07,20.247,14.153,29.948,22.111     c1.785,1.583,3.656,2.928,5.672,3.867l0.104-0.105c-2.227-2.013-4.804-4.308-6.363-6.918c-5.678-7.895-3.681-18.954-7.935-27.445     c3.866,4.625,7.381,9.432,9.714,14.676c3.471,8.563,4.798,18.236,12.831,24.709c-8.693-2.864-18.877-2.065-26.549-7.418     C378.226,387.111,370.75,378.379,369.182,368.783L369.182,368.783z" /><path
                     id="path2011"
                     fill="#010101"
                     d="M384.03,393.165c9.263,10.536,24.4,7.021,36.739,9.777     c1.743,0.238,3.338,0.937,5.186,0.652c-1.472-0.931-3.512-0.83-5.118-1.675c-9.672-3.399-11.091-13.87-16.342-20.93     c6.708,4.454,12.347,10.463,18.535,16.284c4.449,3.897,9.803,5.694,15.445,6.841c-1.356,0.496-3.133,0.359-4.588,0.74     c-10.135,2.492-21.396,6.566-32.144,2.92C394.755,405.574,387.546,400.049,384.03,393.165L384.03,393.165z" /><path
                     id="path2013"
                     fill="#010101"
                     d="M509.758,417.724c-10.439,3.895-21.332-0.178-29.485-6.361     c-3.301-2.097-6.21-5.119-10.48-4.851c-1.549-0.029-3.042,0.047-4.358,0.426c7.92,3.686,15.279,8.767,22.005,15.266     c-1.134,1.296-2.603,2.506-3.986,3.622c-6.483-6.985-13.662-13.708-21.701-17.635c-1.575,0.204-3.072,1.151-4.491,1.913     c-6.544,4.136-13.016,9.46-17.88,15.975l-4.181-3.452c6.672-6.75,14.053-12.003,22.126-15.756     c-7.934-2.514-13.112,4.133-19.134,7.513c-7.018,4.9-17.11,7.201-25.591,3.821c-4.561-1.729-8.98-4.278-12.283-8.419     c6.674,4.598,16.615,5.08,24.205,2.094c10.185-4.418,20.769-10.018,33.048-7.339c1.916,0.032,3.778,1.941,5.588,0.316     c9.127-2.37,19.458-0.74,27.315,3.43l8.098,3.246c7.527,2.783,17.259,2.013,23.711-2.573     C518.969,413.089,514.438,416.047,509.758,417.724L509.758,417.724z" /><path
                     id="path2015"
                     fill="#010101"
                     d="M520.945,406.936c-11.719,4.425-23.51-1.006-34.74-2.821l-2.162-0.276v-0.068     c5.37-1.217,10.582-2.817,14.855-6.674c6.296-6.051,11.897-12.279,18.887-17.047c-5.183,6.647-5.734,16.108-14.297,20.38     c-2.118,1.386-4.793,1.633-6.98,2.683c3.118,0.067,5.974-1.05,9.062-1.363c11.483-1.802,24.62,0.047,32.676-9.735     C535.254,398.831,527.764,404.539,520.945,406.936L520.945,406.936z" /><path
                     id="path2017"
                     fill="#010101"
                     d="M542.238,373.961c-4.628,3.029-9.32,5.839-13.767,9.283v-0.422     c6.812-11.321,3.482-26.876,7.679-39.335l1.565-4.174c-0.876,7.762,2.496,14.337,2.259,22.126     c-0.236,4.705-1.771,8.877-4.243,12.633h0.419c3.337-4.384,5.944-9.045,9.845-13.22c6.055-5.839,12.211-11.827,13.006-19.929     C561.057,354.448,553.467,366.303,542.238,373.961L542.238,373.961z" /></g></g></g><g
         id="g48"><path
             d="M302.229,127.961V64.172V0l-39.904,69.847C153.628,94.171,71.226,187.974,64.18,302.225h63.775   C135.611,209.508,209.508,135.621,302.229,127.961z"
             id="path20" /><path
             d="M127.951,334.048H64.172H0l69.848,39.904c24.323,108.682,118.128,191.09,232.378,198.139V508.31   C209.508,500.652,135.611,426.765,127.951,334.048z"
             id="path22" /><path
             d="M566.432,262.323C542.103,153.631,448.3,71.223,334.048,64.177v63.789c92.716,7.652,166.612,81.545,174.274,174.261h63.781   h64.168L566.432,262.323z"
             id="path24" /><path
             d="M334.048,508.31v63.803v64.156l39.902-69.846c108.688-24.324,191.102-118.127,198.145-232.385h-63.776   C500.66,426.755,426.759,500.642,334.048,508.31z"
             id="path26" /><g
             display="none"
             id="g46"><path
                 display="inline"
                 d="M357.1,393.031l-4.565,5.582l7.061,1.445c34.278,7.035,74.72-1.951,96.646-30.919l4.395-5.808    l-7.194-1.129C419.015,356.8,380.018,365.017,357.1,393.031z"
                 id="path28" /><path
                 display="inline"
                 d="M391.733,272.091l5.551,4.107l1.312-6.786c5.988-30.945-8.434-63.124-32.568-82.529l-5.104-4.104    l-1.815,6.295C350.266,219.799,366.984,253.783,391.733,272.091z"
                 id="path30" /><path
                 display="inline"
                 d="M459.879,281.729c-33.324,10.524-56.87,41.394-63.009,75.169l-1.17,6.447l6.392-1.414    c34.486-7.607,58.671-41.773,63.408-75.443l0.966-6.843L459.879,281.729z"
                 id="path32" /><path
                 display="inline"
                 d="M414.118,309.183l4.633-5.992c19.702-25.525,23.585-61.192,10.81-90.676l-2.919-6.73l-4.52,5.786    c-19.902,25.499-22.905,61.013-10.863,90.602L414.118,309.183z"
                 id="path34" /><path
                 display="inline"
                 d="M221.167,309.186l2.857-7.013c12.043-29.588,9.046-65.103-10.863-90.602l-4.513-5.786l-2.92,6.73    c-12.774,29.484-8.896,65.15,10.811,90.679L221.167,309.186z"
                 id="path36" /><path
                 display="inline"
                 d="M275.692,400.056l7.06-1.449l-4.562-5.578c-22.925-28.014-61.915-36.229-96.344-30.826l-7.193,1.127    l4.396,5.809C200.973,398.107,241.413,407.091,275.692,400.056z"
                 id="path38" /><path
                 display="inline"
                 d="M237.999,276.198l5.561-4.107c24.749-18.308,41.462-52.292,32.614-83.015l-1.81-6.295l-5.107,4.102    c-24.136,19.406-38.55,51.584-32.566,82.529L237.999,276.198z"
                 id="path40" /><path
                 display="inline"
                 d="M233.198,361.931l6.393,1.414l-1.169-6.447c-6.138-33.775-29.688-64.645-63.008-75.169l-6.593-2.086    l0.965,6.846C174.524,320.158,198.707,354.324,233.198,361.931z"
                 id="path42" /><path
                 display="inline"
                 d="M365.162,402.591c-14.432-0.789-29.014-0.434-43.098,2.812l-0.188,0.043l-0.18,0.061    c-2.664,0.859-5.438,0.859-8.099,0l-0.182-0.061l-0.183-0.043c-14.093-3.246-28.672-3.602-43.051-2.812    c-18.271,1.453-34.038,10.896-48.728,21.029l-6.45,4.449l7.184,3.127c14.854,6.482,31.579,5.547,47.206,2.92    c8.75-1.641,16.379-6.023,24.062-9.828c-5.609,5.965-11.44,11.707-18.168,16.246l-4.631,3.113l4.149,3.736    c1.711,1.539,3.406,3.09,5.092,4.662l2.084,1.939l2.619-1.131c16.037-6.926,20.585-24.146,33.035-32.27    c12.453,8.121,17.004,25.344,33.041,32.266l2.613,1.133l2.083-1.938c1.688-1.57,3.382-3.123,5.099-4.664l4.155-3.74l-4.636-3.111    c-6.729-4.539-12.557-10.281-18.168-16.246c7.678,3.805,15.3,8.186,24.029,9.826c15.664,2.631,32.389,3.57,47.244-2.914    l7.179-3.129l-6.446-4.449C399.153,413.492,383.39,404.045,365.162,402.591z"
                 id="path44" /></g></g><g
         id="g52"><path
             d="M378.546,220.894c-8.156,0-14.758,6.943-14.758,15.508v73.461h-6.895v-96.731c0-8.565-6.606-15.505-14.757-15.505   c-8.153,0-14.753,6.94-14.753,15.505v96.734h-6.894V194.979c0-8.565-6.61-15.508-14.765-15.508   c-8.147,0-14.751,6.939-14.751,15.508v114.887h-6.898v-96.734c0-8.565-6.61-15.505-14.757-15.505   c-8.151,0-14.756,6.94-14.756,15.505v104.182v30.756v3.857l-20.37-31.117c-4.44-7.187-13.577-9.23-20.419-4.563   c-6.838,4.661-8.781,14.262-4.345,21.455c0,0,28.806,52.403,41.591,75.616c12.248,20.814,39.317,39.479,67.439,39.479   c44.906,0,72.916-32.835,72.916-73.403l1.931-69.525v-73.464C393.303,227.836,386.692,220.894,378.546,220.894z"
             id="path50" /></g></svg>
