<?xml version="1.0" encoding="UTF-8" standalone="no"?>
<svg
     xmlns:dc="http://purl.org/dc/elements/1.1/"
     xmlns:cc="http://creativecommons.org/ns#"
     xmlns:rdf="http://www.w3.org/1999/02/22-rdf-syntax-ns#"
     xmlns:svg="http://www.w3.org/2000/svg"
     xmlns="http://www.w3.org/2000/svg"
     xmlns:sodipodi="http://sodipodi.sourceforge.net/DTD/sodipodi-0.dtd"
     xmlns:inkscape="http://www.inkscape.org/namespaces/inkscape"
     version="1.1"
     id="Calque_1"
     x="0px"
     y="0px"
     width="595.279px"
     height="595.281px"
     viewBox="0 0 595.279 595.281"
     enable-background="new 0 0 595.279 595.281"
     xml:space="preserve"
     sodipodi:docname="foss4g.svg"
     inkscape:version="0.92.2 5c3e80d, 2017-08-06"><title
         id="title13">osgeo-foss4g</title><metadata
         id="metadata11"><rdf:RDF><cc:Work
                 rdf:about=""><dc:format>image/svg+xml</dc:format><dc:type
                     rdf:resource="http://purl.org/dc/dcmitype/StillImage" /><dc:title>osgeo-foss4g</dc:title><dc:date>08-21-2018</dc:date><dc:creator><cc:Agent><dc:title>Nicolas Bozon</dc:title></cc:Agent></dc:creator><dc:rights><cc:Agent><dc:title>copyright OSGeo</dc:title></cc:Agent></dc:rights><dc:publisher><cc:Agent><dc:title>OSGeo</dc:title></cc:Agent></dc:publisher><dc:identifier>osgeo-foss4g</dc:identifier><dc:source /><dc:description>OSGeo FOSS4G</dc:description><dc:contributor><cc:Agent><dc:title>OSGeo Marketing Committee</dc:title></cc:Agent></dc:contributor><cc:license
                     rdf:resource="http://creativecommons.org/licenses/by-sa/4.0/" /></cc:Work><cc:License
                 rdf:about="http://creativecommons.org/licenses/by-sa/4.0/"><cc:permits
                     rdf:resource="http://creativecommons.org/ns#Reproduction" /><cc:permits
                     rdf:resource="http://creativecommons.org/ns#Distribution" /><cc:requires
                     rdf:resource="http://creativecommons.org/ns#Notice" /><cc:requires
                     rdf:resource="http://creativecommons.org/ns#Attribution" /><cc:permits
                     rdf:resource="http://creativecommons.org/ns#DerivativeWorks" /><cc:requires
                     rdf:resource="http://creativecommons.org/ns#ShareAlike" /></cc:License></rdf:RDF></metadata><defs
         id="defs9" /><sodipodi:namedview
         pagecolor="#ffffff"
         bordercolor="#666666"
         borderopacity="1"
         objecttolerance="10"
         gridtolerance="10"
         guidetolerance="10"
         inkscape:pageopacity="0"
         inkscape:pageshadow="2"
         inkscape:window-width="640"
         inkscape:window-height="480"
         id="namedview7"
         showgrid="false"
         inkscape:zoom="0.39645142"
         inkscape:cx="297.6395"
         inkscape:cy="297.6405"
         inkscape:window-x="0"
         inkscape:window-y="0"
         inkscape:window-maximized="0"
         inkscape:current-layer="Calque_1" /><path
         display="none"
         fill="#4DAF5C"
         d="M594.198,333.993l-18.462-54.074l-25.413-74.088c-1.114-3.252-4.136-5.436-7.515-5.436  c-0.193,0-0.389,0.007-0.586,0.021c-3.584,0.27-6.56,2.97-7.234,6.564c-1.17,6.228-7.329,27.682-21.587,51.837  c-7.688,13.023-16.44,24.568-26.013,34.314c-11.413,11.619-24.042,20.7-37.535,26.989c-24.239,11.299-45.888,17.029-64.353,17.03  c-14.657,0-26.951-3.554-36.544-10.562c-1.33-0.972-2.606-2.017-3.821-3.13c4.929-1.077,10.209-2.117,15.755-3.105  c3.046-0.542,5.45-0.971,7.308-1.388c2.445-0.548,6.539-1.469,8.349-5.652c1.044-2.378,1.397-3.18-1.198-28.725  c-1.263-12.444-3.137-29.529-5.568-50.783c-4.061-35.493-8.377-71.184-8.56-72.698c-0.456-3.77-3.482-6.75-7.189-7.086  c-0.032-0.002-3.212-0.294-8.534-0.294c-7.358,0-18.954,0.562-32.413,3.243c-16.063,3.198-30.678,8.587-43.445,16.016  c-2.62,0.453-5.56,0.683-8.745,0.683c-38.135,0.003-104.398-32.199-126.712-44.607c-2.462-1.37-7.354-3.903-12.46-5.471  c-3.199-0.982-6.007-1.46-8.584-1.46c-1.474,0-2.871,0.164-4.171,0.488l-1.808,0.628l-2.709,1.555  c-1.373,1.127-3.369,3.009-4.189,4.595L6.811,245.077c-0.665,0.877-6.511,8.965-6.799,22.902  c-0.163,7.909,1.498,16.171,4.938,24.556c4.096,9.981,10.757,20.198,19.802,30.365c2.519,3.085,23.812,29.089,47.666,56.026  c14.747,16.652,27.476,30.279,37.83,40.496c18.21,17.968,25.584,22.033,29.974,23.567l4.325,1.512l3.492-3.07  c8.715-7.664,53.008-46.626,90.646-79.904c1.537,10.503,2.69,17.016,2.703,17.081c0.018,0.101,0.04,0.199,0.062,0.299  c0.066,0.309,0.149,0.613,0.25,0.912l0.007,0.03l0.042,0.113c18.469,51.187,63.514,78.242,130.264,78.244h0.006  c28.708,0,54.904-5.083,71.823-9.348c21.956-5.53,43.483-14.644,63.983-27.082c16.336-9.915,32.061-21.953,46.733-35.78  c24.985-23.546,38.235-44.045,38.789-44.907C594.682,339.001,595,336.347,594.198,333.993L594.198,333.993z M141.687,425.587  c-3.608-2.431-9.853-7.449-20.352-17.808c-10.102-9.967-22.575-23.322-37.074-39.693c-24.809-28.017-47.149-55.411-47.372-55.685  l-0.233-0.272c-13.552-15.202-20.721-30.091-20.732-43.058c-0.007-8.482,2.963-13.285,3.49-14.07l83.376-103.206  c8.094,14.643,29.878,41.953,66.353,83.207c28.044,31.717,56.325,61.983,63.153,69.262c0.886,12.055,2.164,24.853,3.8,38.075  C199.948,374.324,156.325,412.712,141.687,425.587L141.687,425.587z M253.793,354.699c-2.166-15.37-4.723-36.522-6.094-58.616  c-1.489-24.011-1.291-44.323,0.589-60.373c2.153-18.379,6.529-31.023,12.659-36.565c29.122-26.348,68.829-29.192,84.549-29.192  c0.25,0,0.501,0.001,0.748,0.003c6.341,52.659,13.46,114.914,14.909,133.88c-0.937,0.171-1.922,0.348-2.89,0.521l-0.121,0.021  c-11.577,2.062-30.951,5.515-51.443,13.602C283.891,326.981,266.123,339.319,253.793,354.699L253.793,354.699z"
         id="path2" /><path
         d="M594.198,332.993l-18.462-54.074l-25.413-74.088c-1.114-3.252-4.136-5.436-7.515-5.436c-0.193,0-0.389,0.007-0.586,0.021  c-3.584,0.27-6.56,2.97-7.234,6.564c-1.17,6.228-7.329,27.682-21.587,51.837c-7.688,13.023-16.44,24.568-26.013,34.314  c-11.413,11.619-24.042,20.7-37.535,26.989c-24.239,11.299-45.888,17.029-64.353,17.03c-14.657,0-26.951-3.554-36.544-10.562  c-1.33-0.972-2.606-2.017-3.821-3.13c4.929-1.077,10.209-2.117,15.755-3.105c3.046-0.542,5.45-0.971,7.308-1.388  c2.445-0.548,6.539-1.469,8.349-5.652c1.044-2.378,1.397-3.18-1.198-28.725c-1.263-12.444-3.137-29.529-5.568-50.783  c-4.061-35.493-8.377-71.184-8.56-72.698c-0.456-3.77-3.482-6.75-7.189-7.086c-0.032-0.002-3.212-0.294-8.534-0.294  c-7.358,0-18.954,0.562-32.413,3.243c-16.063,3.198-30.678,8.587-43.445,16.016c-2.62,0.453-5.56,0.683-8.745,0.683  c-38.135,0.003-104.398-32.199-126.712-44.607c-2.462-1.37-7.354-3.903-12.46-5.471c-3.199-0.982-6.007-1.46-8.584-1.46  c-1.474,0-2.871,0.164-4.171,0.488l-1.808,0.628l-2.709,1.555c-1.373,1.127-3.369,3.009-4.189,4.595L6.811,244.077  c-0.665,0.877-6.511,8.965-6.799,22.902c-0.163,7.909,1.498,16.171,4.938,24.556c4.096,9.981,10.757,20.198,19.802,30.365  c2.519,3.085,23.812,29.089,47.666,56.026c14.747,16.652,27.476,30.279,37.83,40.496c18.21,17.968,25.584,22.033,29.974,23.567  l4.325,1.512l3.492-3.07c8.715-7.664,53.008-46.626,90.646-79.904c1.537,10.503,2.69,17.016,2.703,17.081  c0.018,0.101,0.04,0.199,0.062,0.299c0.066,0.309,0.149,0.613,0.25,0.912l0.007,0.03l0.042,0.113  c18.469,51.187,63.514,78.242,130.264,78.244h0.006c28.708,0,54.904-5.083,71.823-9.348c21.956-5.53,43.483-14.644,63.983-27.082  c16.336-9.915,32.061-21.953,46.733-35.78c24.985-23.546,38.235-44.045,38.789-44.907C594.682,338.001,595,335.347,594.198,332.993  L594.198,332.993z M141.687,424.587c-3.608-2.431-9.853-7.449-20.352-17.808c-10.102-9.967-22.575-23.322-37.074-39.693  c-24.809-28.017-47.149-55.411-47.372-55.685l-0.233-0.272c-13.552-15.202-20.721-30.091-20.732-43.058  c-0.007-8.482,2.963-13.285,3.49-14.07l83.376-103.206c8.094,14.643,29.878,41.953,66.353,83.207  c28.044,31.717,56.325,61.983,63.153,69.262c0.886,12.055,2.164,24.853,3.8,38.075C199.948,373.324,156.325,411.712,141.687,424.587  L141.687,424.587z M253.793,353.699c-2.166-15.37-4.723-36.522-6.094-58.616c-1.489-24.011-1.291-44.323,0.589-60.373  c2.153-18.379,6.529-31.023,12.659-36.565c29.122-26.348,68.829-29.192,84.549-29.192c0.25,0,0.501,0.001,0.748,0.003  c6.341,52.659,13.46,114.914,14.909,133.88c-0.937,0.171-1.922,0.348-2.89,0.521l-0.121,0.021  c-11.577,2.062-30.951,5.515-51.443,13.602C283.891,325.981,266.123,338.319,253.793,353.699L253.793,353.699z"
         id="path4" /></svg>