<?xml version="1.0" encoding="UTF-8" standalone="no"?>
<svg
     xmlns:dc="http://purl.org/dc/elements/1.1/"
     xmlns:cc="http://creativecommons.org/ns#"
     xmlns:rdf="http://www.w3.org/1999/02/22-rdf-syntax-ns#"
     xmlns:svg="http://www.w3.org/2000/svg"
     xmlns="http://www.w3.org/2000/svg"
     xmlns:sodipodi="http://sodipodi.sourceforge.net/DTD/sodipodi-0.dtd"
     xmlns:inkscape="http://www.inkscape.org/namespaces/inkscape"
     version="1.1"
     id="Calque_1"
     x="0px"
     y="0px"
     width="571.006px"
     height="571.006px"
     viewBox="0 0 571.006 571.006"
     enable-background="new 0 0 571.006 571.006"
     xml:space="preserve"
     sodipodi:docname="geoext.svg"
     inkscape:version="0.92.2 5c3e80d, 2017-08-06"><title
         id="title11">osgeo-geoext</title><metadata
         id="metadata9"><rdf:RDF><cc:Work
                 rdf:about=""><dc:format>image/svg+xml</dc:format><dc:type
                     rdf:resource="http://purl.org/dc/dcmitype/StillImage" /><dc:title>osgeo-geoext</dc:title><dc:date>08-21-2018</dc:date><dc:creator><cc:Agent><dc:title>Nicolas Bozon</dc:title></cc:Agent></dc:creator><dc:rights><cc:Agent><dc:title>copyright OSGeo</dc:title></cc:Agent></dc:rights><dc:publisher><cc:Agent><dc:title>OSGeo</dc:title></cc:Agent></dc:publisher><dc:identifier>osgeo-geoext</dc:identifier><dc:description>OSGeo GeoExt</dc:description><dc:contributor><cc:Agent><dc:title>OSGeo Marketing Committee</dc:title></cc:Agent></dc:contributor><cc:license
                     rdf:resource="http://creativecommons.org/licenses/by-sa/4.0/" /></cc:Work><cc:License
                 rdf:about="http://creativecommons.org/licenses/by-sa/4.0/"><cc:permits
                     rdf:resource="http://creativecommons.org/ns#Reproduction" /><cc:permits
                     rdf:resource="http://creativecommons.org/ns#Distribution" /><cc:requires
                     rdf:resource="http://creativecommons.org/ns#Notice" /><cc:requires
                     rdf:resource="http://creativecommons.org/ns#Attribution" /><cc:permits
                     rdf:resource="http://creativecommons.org/ns#DerivativeWorks" /><cc:requires
                     rdf:resource="http://creativecommons.org/ns#ShareAlike" /></cc:License></rdf:RDF></metadata><defs
         id="defs7" /><sodipodi:namedview
         pagecolor="#ffffff"
         bordercolor="#666666"
         borderopacity="1"
         objecttolerance="10"
         gridtolerance="10"
         guidetolerance="10"
         inkscape:pageopacity="0"
         inkscape:pageshadow="2"
         inkscape:window-width="640"
         inkscape:window-height="480"
         id="namedview5"
         showgrid="false"
         inkscape:zoom="0.41330565"
         inkscape:cx="285.50299"
         inkscape:cy="285.50299"
         inkscape:window-x="0"
         inkscape:window-y="0"
         inkscape:window-maximized="0"
         inkscape:current-layer="Calque_1" /><path
         d="M545.795,258.42L315.722,28.348c-14.957-14.958-39.207-14.958-54.165,0L202.794,87.11c0.869,0.999,2.063,1.888,3.712,2.437  c0.027,0.011,0.043,0.02,0.068,0.027c5.151,1.468,10.118,3.526,14.799,6.132c0.012,0.008,0.021,0.01,0.034,0.017  c5.576,2.792,10.14-1.642,10.14-1.642l6.485-6.484c2.755-2.755,7.222-2.755,9.977,0l8.732,8.731c2.756,2.756,2.756,7.223,0,9.979  l-6.485,6.487c0,0-4.434,4.562-1.64,10.141c0.005,0.013,0.007,0.02,0.015,0.033c2.606,4.683,4.664,9.652,6.133,14.807l0.023,0.059  c1.971,5.919,8.333,6.012,8.333,6.012h9.168c3.898,0.002,7.057,3.159,7.061,7.061v12.348c0,3.896-3.16,7.055-7.059,7.055h-9.174  c0,0-6.361,0.095-8.328,6.012l-0.022,0.055c-1.468,5.154-3.526,10.122-6.13,14.804c-0.01,0.015-0.012,0.026-0.02,0.04  c-2.792,5.577,1.64,10.139,1.64,10.139l6.485,6.485c2.756,2.758,2.756,7.227,0,9.981l-8.731,8.731c-2.755,2.756-7.221,2.756-9.978,0  l-6.486-6.486c0,0-4.562-4.432-10.138-1.639c-0.018,0.007-0.027,0.01-0.043,0.019c-4.682,2.604-9.648,4.661-14.8,6.129  c-0.019,0.008-0.038,0.016-0.058,0.022c-5.917,1.97-6.011,8.33-6.011,8.33v9.172c0,3.897-3.16,7.055-7.056,7.055h-12.346  c-3.895,0-7.055-3.157-7.055-7.055v-9.172c0,0-0.094-6.362-6.011-8.33c-0.021-0.007-0.034-0.014-0.056-0.022  c-5.156-1.469-10.126-3.527-14.812-6.136c-0.012-0.006-0.019-0.007-0.032-0.014c-5.576-2.792-10.139,1.641-10.139,1.641  l-6.485,6.486c-2.756,2.753-7.226,2.756-9.979,0l-8.73-8.731c-2.755-2.755-2.755-7.224,0-9.981l6.486-6.485  c0,0,4.434-4.565,1.639-10.142c-0.008-0.014-0.01-0.025-0.017-0.037c-2.606-4.683-4.665-9.652-6.133-14.807  c-0.009-0.02-0.018-0.034-0.022-0.056c-0.549-1.652-1.441-2.85-2.441-3.718l-85.822,85.821c-14.957,14.957-14.957,39.207,0,54.166  l142.496,142.494c0.697-0.781,1.305-1.762,1.717-3c0.008-0.023,0.017-0.035,0.022-0.059c1.469-5.153,3.525-10.119,6.13-14.801  c0.008-0.018,0.01-0.025,0.018-0.045c2.792-5.575-1.639-10.138-1.639-10.138l-6.486-6.484c-2.755-2.757-2.755-7.226,0-9.979  l8.73-8.732c2.756-2.756,7.226-2.756,9.979,0l6.488,6.488c0,0,4.562,4.434,10.139,1.641c0.015-0.008,0.026-0.014,0.042-0.02  c4.679-2.605,9.643-4.662,14.793-6.131c0.024-0.007,0.038-0.016,0.064-0.023c5.918-1.97,6.012-8.331,6.012-8.331v-9.173  c0-3.897,3.157-7.057,7.055-7.057h12.348c3.896,0,7.055,3.159,7.055,7.057v9.167c0,0,0.096,6.362,6.012,8.329  c0.027,0.012,0.043,0.02,0.067,0.026c5.151,1.469,10.119,3.526,14.799,6.132c0.013,0.008,0.022,0.012,0.034,0.017  c5.576,2.792,10.141-1.644,10.141-1.644l6.484-6.482c2.756-2.756,7.223-2.756,9.977,0l8.731,8.732c2.755,2.754,2.755,7.221,0,9.979  l-6.485,6.486c0,0-4.434,4.562-1.639,10.139c0.006,0.016,0.008,0.021,0.015,0.033c2.606,4.684,4.665,9.652,6.134,14.807  c0.008,0.023,0.015,0.037,0.021,0.061c1.971,5.92,8.333,6.012,8.333,6.012h9.169c3.897,0.002,7.057,3.16,7.06,7.059v12.351  c0,3.896-3.159,7.056-7.058,7.056h-9.173c0,0-6.363,0.094-8.329,6.011l-0.021,0.056c-1.469,5.152-3.525,10.121-6.131,14.803  c-0.009,0.015-0.011,0.025-0.019,0.043c-2.792,5.573,1.638,10.137,1.638,10.137l6.486,6.485c2.754,2.757,2.754,7.226,0,9.981  l-8.732,8.732c-2.752,2.754-7.219,2.754-9.977,0l-6.486-6.488c0,0-4.562-4.432-10.138-1.639c-0.017,0.01-0.027,0.012-0.043,0.021  c-4.683,2.604-9.649,4.659-14.801,6.128c-0.02,0.009-0.039,0.017-0.058,0.022c-1.238,0.412-2.218,1.019-2.999,1.716l2.1,2.099  c14.957,14.955,39.207,14.955,54.166,0l230.072-230.074c14.955-14.957,14.955-39.208-0.001-54.166L545.795,258.42z M371.431,305.897  c0,3.895-3.159,7.055-7.059,7.055h-9.174c0,0-6.361,0.094-8.327,6.011c-0.009,0.019-0.017,0.037-0.022,0.056  c-1.469,5.153-3.525,10.123-6.131,14.805c-0.008,0.015-0.011,0.025-0.02,0.041c-2.791,5.575,1.64,10.137,1.64,10.137l6.485,6.485  c2.756,2.757,2.756,7.226,0,9.981l-8.731,8.732c-2.754,2.756-7.22,2.756-9.977,0l-6.487-6.486c0,0-4.562-4.432-10.139-1.639  c-0.016,0.008-0.025,0.01-0.043,0.021c-4.682,2.603-9.648,4.659-14.801,6.128c-0.02,0.007-0.035,0.015-0.058,0.022  c-5.917,1.967-6.011,8.327-6.011,8.327v9.175c0,3.895-3.16,7.057-7.056,7.057h-12.349c-3.895,0-7.055-3.158-7.055-7.057v-9.175  c0,0-0.094-6.361-6.011-8.327c-0.021-0.01-0.035-0.016-0.056-0.022c-5.156-1.469-10.126-3.526-14.812-6.134  c-0.012-0.008-0.019-0.01-0.032-0.017c-5.576-2.791-10.139,1.642-10.139,1.642l-6.484,6.486c-2.757,2.754-7.226,2.756-9.979,0  l-8.731-8.732c-2.755-2.756-2.755-7.225,0-9.982l6.486-6.484c0,0,4.435-4.563,1.639-10.141c-0.008-0.014-0.01-0.022-0.017-0.037  c-2.605-4.682-4.665-9.652-6.134-14.807c-0.007-0.021-0.016-0.031-0.021-0.056c-1.969-5.919-8.329-6.013-8.329-6.013h-9.172  c-3.896,0-7.057-3.158-7.057-7.053v-12.35c0-3.897,3.159-7.057,7.057-7.057h9.169c0,0,6.365-0.094,8.332-6.012  c0.007-0.022,0.017-0.034,0.021-0.058c1.469-5.153,3.524-10.12,6.13-14.801c0.007-0.017,0.009-0.027,0.019-0.043  c2.793-5.576-1.64-10.139-1.64-10.139l-6.486-6.486c-2.755-2.755-2.755-7.224,0-9.979l8.732-8.73c2.755-2.755,7.224-2.755,9.979,0  l6.487,6.487c0,0,4.563,4.435,10.139,1.641c0.016-0.007,0.026-0.012,0.041-0.019c4.68-2.605,9.643-4.661,14.792-6.129  c0.024-0.008,0.039-0.016,0.066-0.023c5.918-1.969,6.011-8.332,6.011-8.332v-9.172c0-3.898,3.158-7.058,7.055-7.058h12.35  c3.896,0,7.054,3.161,7.054,7.058v9.166c0,0,0.096,6.361,6.012,8.331c0.026,0.01,0.043,0.019,0.068,0.026  c5.15,1.47,10.117,3.526,14.797,6.131c0.014,0.007,0.023,0.01,0.035,0.016c5.576,2.792,10.14-1.642,10.14-1.642l6.485-6.484  c2.755-2.756,7.222-2.756,9.977,0l8.73,8.73c2.758,2.755,2.758,7.223,0,9.979l-6.482,6.486c0,0-4.436,4.562-1.641,10.141  c0.006,0.013,0.008,0.02,0.014,0.032c2.607,4.684,4.666,9.652,6.135,14.808c0.007,0.021,0.014,0.037,0.022,0.059  c1.972,5.918,8.331,6.012,8.331,6.012h9.17c3.896,0.002,7.057,3.158,7.061,7.059L371.431,305.897L371.431,305.897z M225.473,159  c0,20.987-17.014,38.001-38.002,38.001c-20.987,0-38.001-17.015-38.001-38.001c0-20.987,17.014-38.003,38.001-38.003  C208.46,120.997,225.473,138.011,225.473,159z M314.988,300.872c0,20.986-17.015,38.002-38.001,38.002  c-20.988,0-38.003-17.014-38.003-38.002s17.015-38.002,38.003-38.002C297.974,262.87,314.988,279.883,314.988,300.872z   M282.053,471.287c0,20.988-17.014,38.002-38.002,38.002c-20.988,0-38.002-17.014-38.002-38.002  c0-20.986,17.014-38.002,38.002-38.002C265.04,433.287,282.053,450.299,282.053,471.287z"
         id="path2" /></svg>