<?xml version="1.0" encoding="UTF-8" standalone="no"?>
<svg
     xmlns:dc="http://purl.org/dc/elements/1.1/"
     xmlns:cc="http://creativecommons.org/ns#"
     xmlns:rdf="http://www.w3.org/1999/02/22-rdf-syntax-ns#"
     xmlns:svg="http://www.w3.org/2000/svg"
     xmlns="http://www.w3.org/2000/svg"
     xmlns:sodipodi="http://sodipodi.sourceforge.net/DTD/sodipodi-0.dtd"
     xmlns:inkscape="http://www.inkscape.org/namespaces/inkscape"
     version="1.1"
     id="Calque_1"
     x="0px"
     y="0px"
     width="497.201px"
     height="502.467px"
     viewBox="0 0 497.201 502.467"
     enable-background="new 0 0 497.201 502.467"
     xml:space="preserve"
     sodipodi:docname="geomoose.svg"
     inkscape:version="0.92.2 5c3e80d, 2017-08-06"><title
         id="title11">osgeo-geomoose</title><metadata
         id="metadata9"><rdf:RDF><cc:Work
                 rdf:about=""><dc:format>image/svg+xml</dc:format><dc:type
                     rdf:resource="http://purl.org/dc/dcmitype/StillImage" /><dc:title>osgeo-geomoose</dc:title><dc:date>08-21-2018</dc:date><dc:creator><cc:Agent><dc:title>Nicolas Bozon</dc:title></cc:Agent></dc:creator><dc:rights><cc:Agent><dc:title>copyright OSGeo</dc:title></cc:Agent></dc:rights><dc:publisher><cc:Agent><dc:title>OSGeo</dc:title></cc:Agent></dc:publisher><dc:identifier>osgeo-geomoose</dc:identifier><dc:description>OGeo Geomoose</dc:description><dc:contributor><cc:Agent><dc:title>OSGeo Marketing Committee</dc:title></cc:Agent></dc:contributor><cc:license
                     rdf:resource="http://creativecommons.org/licenses/by-sa/4.0/" /></cc:Work><cc:License
                 rdf:about="http://creativecommons.org/licenses/by-sa/4.0/"><cc:permits
                     rdf:resource="http://creativecommons.org/ns#Reproduction" /><cc:permits
                     rdf:resource="http://creativecommons.org/ns#Distribution" /><cc:requires
                     rdf:resource="http://creativecommons.org/ns#Notice" /><cc:requires
                     rdf:resource="http://creativecommons.org/ns#Attribution" /><cc:permits
                     rdf:resource="http://creativecommons.org/ns#DerivativeWorks" /><cc:requires
                     rdf:resource="http://creativecommons.org/ns#ShareAlike" /></cc:License></rdf:RDF></metadata><defs
         id="defs7" /><sodipodi:namedview
         pagecolor="#ffffff"
         bordercolor="#666666"
         borderopacity="1"
         objecttolerance="10"
         gridtolerance="10"
         guidetolerance="10"
         inkscape:pageopacity="0"
         inkscape:pageshadow="2"
         inkscape:window-width="640"
         inkscape:window-height="480"
         id="namedview5"
         showgrid="false"
         inkscape:zoom="0.46968258"
         inkscape:cx="248.60049"
         inkscape:cy="251.23351"
         inkscape:window-x="0"
         inkscape:window-y="0"
         inkscape:window-maximized="0"
         inkscape:current-layer="Calque_1" /><path
         d="M381.337,142.065c14.55,1.883,27.264,2.946,39.725,5.327c10.424,1.994,20.912,4.641,30.73,8.593  c14.98,6.027,23.438,17.893,26.244,33.913c0.937,5.339-0.41,9.276-5.504,10.672c-9.303,2.549-18.692,5.34-28.229,6.357  c-16.024,1.71-32.195,2.043-48.295,3.099c-6.532,0.429-10.65,3.768-14.568,9.465c-11.427,16.619-23.775,32.624-36.154,48.563  c-5.791,7.457-8.398,15.172-8.336,24.821c0.384,60.354,0.098,120.712,0.33,181.065c0.025,6.492-1.66,8.53-8.318,8.424  c-24.47-0.388-48.951-0.33-73.421-0.028c-5.929,0.074-7.665-1.69-7.646-7.62c0.193-60.831,0.139-121.662,0.084-182.492  c-0.006-6.404-0.193-12.837-0.794-19.207c-0.459-4.872-2.918-8.516-8.393-9.088c-5.498-0.574-10.456,0.861-12.205,6.344  c-1.768,5.556-3.001,11.547-3.021,17.35c-0.211,61.781-0.135,123.562-0.137,185.344v8.784h-88.299  c-0.133-2.854-0.369-5.595-0.369-8.336c-0.021-60.593,0.016-121.188-0.068-181.778c-0.008-6.152-0.531-12.324-1.16-18.451  c-0.501-4.89-2.828-8.514-8.258-9.246c-5.952-0.803-10.948,1.333-12.561,6.928c-1.878,6.514-2.961,13.49-2.985,20.271  c-0.218,60.591-0.127,121.187-0.129,181.778v8.818H21.34c-0.142-2.329-0.401-4.601-0.401-6.873  C20.923,405,20.802,335.14,21.003,265.279c0.085-29.61,10.302-54.751,34.312-73.373c28.437-22.057,88.424-27.988,119.094,18.803  c1.25,1.909,2.718,3.677,4.557,6.145c2.845-3.59,5.208-6.465,7.46-9.426c16.05-21.109,37.36-32.499,63.826-31.404  c11.758,0.488,18.143-5.87,26.684-13.284c-3.574-1-6.113-1.802-8.694-2.419c-38.563-9.221-77.122-18.473-115.72-27.553  c-4.882-1.149-7.268-3.687-7.944-8.59c-2.79-20.18,0.561-39.884,5.546-59.201c2.934-11.374,8.121-22.192,12.673-33.103  c1.138-2.729,3.483-5.117,5.702-7.205c8.282-7.797,19.5-5.411,22.349,5.583c1.973,7.613,2.15,15.98,1.583,23.901  c-1.068,14.897-3.473,29.693-4.852,44.577c-0.465,5.013-1.213,11.438,5.355,13.248c7.009,1.932,11.122-3.214,13.766-8.712  c3.182-6.611,5.518-13.625,8.24-20.458c2.196-5.508,4.247-11.084,6.689-16.481c2.18-4.821,5.539-8.465,11.51-7.705  c6.103,0.776,10.726,4.456,11.245,10.271c0.75,8.383,0.166,16.943-0.481,25.378c-0.51,6.606-2.27,13.11-2.924,19.714  c-0.517,5.187-0.849,10.874,5.595,13.14c5.729,2.013,11.36-0.615,14.546-7.214c2.677-5.535,4.421-11.516,6.802-17.206  c2.119-5.06,4.088-10.592,11.36-9.575c6.147,0.859,9.838,5.74,9.621,13.729c-0.192,7.101-1.114,14.184-1.78,21.271  c-0.521,5.553,2.017,8.705,7.124,10.836c15.339,6.407,30.813,6.376,46.506,1.795c5.926-1.729,11.877-3.416,17.705-5.432  c9.422-3.259,11.16-8.054,6.638-16.898c-1.827-3.575-4.083-7.201-4.69-11.033c-0.387-2.453,1.195-6.536,3.166-7.661  c1.829-1.044,5.939,0.084,7.99,1.645c3.533,2.688,5.783,7.189,9.465,9.516c2.679,1.692,6.799,1.104,10.275,1.532  c0.247-3.247,1.531-6.881,0.505-9.657c-1.787-4.829-5.175-9.043-7.57-13.681c-1.95-3.774-4.528-7.72-4.788-11.725  c-0.223-3.426,1.622-8.008,4.166-10.203c1.496-1.291,6.66,0.301,9.255,2.002c3.271,2.146,5.622,5.708,8.329,8.695  c2.393,2.641,4.547,5.524,7.135,7.953c3.479,3.263,7.652,7.282,12.448,3.883c4.971-3.523,1.097-8.36-0.728-12.117  c-4.041-8.327-8.841-16.281-12.963-24.573c-1.878-3.781-3.751-7.946-3.994-12.035c-0.196-3.32,1.092-8.125,3.469-9.808  c2.361-1.674,7.026-0.819,10.443-0.036c2.342,0.536,4.488,2.626,6.359,4.406c13.696,13.02,23.021,28.848,29.691,46.404  c2.12,5.571,0.754,9.09-4.274,12.521c-20.411,13.918-40.549,28.236-60.772,42.431c-1.818,1.276-3.52,2.72-6.67,5.174  L381.337,142.065z"
         id="path2" /></svg>