<?xml version="1.0" encoding="UTF-8" standalone="no"?>
<svg
     xmlns:dc="http://purl.org/dc/elements/1.1/"
     xmlns:cc="http://creativecommons.org/ns#"
     xmlns:rdf="http://www.w3.org/1999/02/22-rdf-syntax-ns#"
     xmlns:svg="http://www.w3.org/2000/svg"
     xmlns="http://www.w3.org/2000/svg"
     xmlns:sodipodi="http://sodipodi.sourceforge.net/DTD/sodipodi-0.dtd"
     xmlns:inkscape="http://www.inkscape.org/namespaces/inkscape"
     version="1.1"
     id="Calque_1"
     x="0px"
     y="0px"
     width="595.279px"
     height="595.281px"
     viewBox="0 0 595.279 595.281"
     enable-background="new 0 0 595.279 595.281"
     xml:space="preserve"
     sodipodi:docname="geotools.svg"
     inkscape:version="0.92.2 5c3e80d, 2017-08-06"><title
         id="title11">osgeo-geotools</title><metadata
         id="metadata9"><rdf:RDF><cc:Work
                 rdf:about=""><dc:format>image/svg+xml</dc:format><dc:type
                     rdf:resource="http://purl.org/dc/dcmitype/StillImage" /><dc:title>osgeo-geotools</dc:title><dc:date>08-21-2018</dc:date><dc:creator><cc:Agent><dc:title>Nicolas Bozon</dc:title></cc:Agent></dc:creator><dc:rights><cc:Agent><dc:title>copyright OSGeo</dc:title></cc:Agent></dc:rights><dc:publisher><cc:Agent><dc:title>OSGeo</dc:title></cc:Agent></dc:publisher><dc:identifier>osgeo-geotools</dc:identifier><dc:description>OSGeo Geotools</dc:description><dc:contributor><cc:Agent><dc:title>OSGeo Marketing Committee</dc:title></cc:Agent></dc:contributor><cc:license
                     rdf:resource="http://creativecommons.org/licenses/by-sa/4.0/" /></cc:Work><cc:License
                 rdf:about="http://creativecommons.org/licenses/by-sa/4.0/"><cc:permits
                     rdf:resource="http://creativecommons.org/ns#Reproduction" /><cc:permits
                     rdf:resource="http://creativecommons.org/ns#Distribution" /><cc:requires
                     rdf:resource="http://creativecommons.org/ns#Notice" /><cc:requires
                     rdf:resource="http://creativecommons.org/ns#Attribution" /><cc:permits
                     rdf:resource="http://creativecommons.org/ns#DerivativeWorks" /><cc:requires
                     rdf:resource="http://creativecommons.org/ns#ShareAlike" /></cc:License></rdf:RDF></metadata><defs
         id="defs7" /><sodipodi:namedview
         pagecolor="#ffffff"
         bordercolor="#666666"
         borderopacity="1"
         objecttolerance="10"
         gridtolerance="10"
         guidetolerance="10"
         inkscape:pageopacity="0"
         inkscape:pageshadow="2"
         inkscape:window-width="640"
         inkscape:window-height="480"
         id="namedview5"
         showgrid="false"
         inkscape:zoom="0.39645142"
         inkscape:cx="297.6395"
         inkscape:cy="297.6405"
         inkscape:window-x="0"
         inkscape:window-y="0"
         inkscape:window-maximized="0"
         inkscape:current-layer="Calque_1" /><path
         d="M574.497,272.991v-0.933l-0.141-0.285c-2.199-31.159-10.969-61.205-26.074-89.316  c-14.787-27.517-35.042-52.108-60.201-73.088C436.225,66.128,367.97,42.313,295.892,42.313c-36.723,0-72.469,6.009-106.247,17.861  c-32.769,11.498-62.243,27.958-87.603,48.925c-25.514,21.094-45.559,45.674-59.578,73.059  c-14.598,28.514-21.999,58.856-21.999,90.18c-0.012,6.084-0.103,11.712-0.188,17.154c-0.172,10.87-0.335,21.139,0.191,32.232  c1.492,31.423,9.747,61.778,24.535,90.217c14.371,27.638,34.31,52.364,59.264,73.492c51.434,43.549,119.487,67.534,191.624,67.534  c71.957,0,140.07-23.811,191.792-67.044c51.061-42.681,81.835-100.387,86.681-162.517l0.111-0.331l0.693-14.895L574.497,272.991  L574.497,272.991z M119.33,327.429c-10.196-20.418-15.368-42.188-15.368-64.703c0-31.686,10.408-62.316,30.125-88.736l7.391,3.691  c8.001,3.731,23.596,12.573,51.909,28.624l7.516,4.261c34.186,19.374,61.753,37.435,66.053,42.149  c10.048,11.018,21.93,17.086,33.448,17.086c1.643,0.063,10.797,3.697,28.369,13.17c14.627,7.887,27.538,15.811,32.125,19.717  c2.539,2.165,10.659,15.092,18.252,30.183c6.515,12.95,15.829,28.87,20.258,32.863c2.999,2.705,5.772,4.945,9.34,4.945  c2.48,0,4.898-1.033,8.237-2.82c2.601-1.391,4.577-2.096,5.876-2.096c0.721,0,1.206,0.205,1.735,0.734l0.229,0.228l12.561,7.876  c-1.826,1.684-3.689,3.328-5.589,4.928c-17.66,14.883-38.221,26.555-61.105,34.688c-23.596,8.386-48.664,12.639-74.512,12.639  c-51.052,0-99.111-16.807-135.326-47.327C143.089,364.558,129.118,347.03,119.33,327.429L119.33,327.429z M339.171,226.83  c-0.742,7.191-4.849,13.728-11.268,17.935c-5.174,3.391-17.979,6.253-27.962,6.253c-3.486,0-6.327-0.368-7.996-1.033  c-4.951-1.976-9.993-5.971-13.833-10.961c-3.765-4.894-5.924-10.138-5.924-14.387c0-16.169,17.778-26.311,34.447-26.583  l25.846,9.876c4.961,5.194,7.395,12.048,6.688,18.901H339.171z M281.439,192.16l-0.576,0.263  c-4.326,1.972-10.912,6.706-15.15,12.439c-1.719,2.324-3.257,4.774-4.492,6.743c-0.48,0.771-0.968,1.537-1.466,2.298l-143.41-83.764  c-0.269-1.839,0.568-4.272,2.422-6.975c5.571-8.123,19.432-17.174,30.415-17.174c0.177,0,0.352,0.002,0.527,0.007  c2.083,0.06,9.729,2.655,37.537,19.375c10.051,6.043,22.208,13.613,36.134,22.502c31.556,20.139,55.864,36.414,63.136,41.872  C284.975,190.553,282.9,191.496,281.439,192.16L281.439,192.16z M431.797,145.631c17.741,14.955,31.712,32.53,41.521,52.242  c10.062,20.223,15.232,41.734,15.369,63.953c-4.984-1.005-7.413-1.188-11.158-1.188c-0.702,0-1.453,0.006-2.299,0.013  c-11.789-0.511-55-7.759-68.151-11.437c-8.109-2.267-22.421-9.596-35.61-18.237c-14.199-9.301-24.145-18.251-25.957-23.356  c-4.492-12.64-23.376-20.415-35.002-20.455c-0.78-0.142-5.623-1.678-31.585-17.319c-16.178-9.748-34.092-21.087-44.669-28.001  c-18.196-11.893-19.509-12.921-22.124-14.969c-0.891-0.7-1.789-1.39-2.694-2.069c-2.319-1.737-4.307-3.353-5.904-4.652  c-0.474-0.385-0.903-0.735-1.298-1.053c28.606-13.684,60.969-20.894,93.947-20.894c25.824,0,50.893,4.268,74.506,12.686  C393.56,119.047,414.12,130.734,431.797,145.631z M482.784,300.863c-3.309,0-6.639,0.597-10.182,1.822  c-3.264,1.129-6.648,2.773-10.354,5.034l-13.054,8.005l17.68,20.424c8.644,9.98,18.027,20.051,20.917,22.449  c0.254,0.21,0.753,0.624,1.24,1.052c-0.33,0.139-0.709,0.292-1.137,0.462c-2.545,1.001-5.471,1.508-8.701,1.509  c-6.277,0-13.59-1.866-21.729-5.546c-6.327-2.861-13.019-6.767-19.888-11.608c-8.188-5.771-12.293-8.183-16.525-8.183  c-2.542,0-4.729,0.892-7.23,2.229c-2.139,1.146-3.633,1.656-4.847,1.656c-4.735,0.001-10.448-10.033-21.46-32.523  c-13.926-28.437-14.956-29.608-36.752-41.821c-7.718-4.323-15.686-8.785-17.252-10.644c0.479-0.543,1.507-1.385,1.892-1.701  c0.423-0.347,0.87-0.705,1.337-1.08c3.178-2.548,7.528-6.037,10.541-10.99l0.197-0.322l3.1-10.627l22.883,14.101  c25.975,16.095,35.771,18.836,95.291,26.661c6.131,0.806,11.828,1.683,16.932,2.606c13.994,2.531,20.611,4.925,22.025,6.206  c4.931,4.46,11.185,24.289,11.185,40.211v3.618l-8.61-8.611c-8.971-8.967-16.909-13.501-24.98-14.269  c-0.837-0.081-1.676-0.121-2.516-0.121L482.784,300.863z M148.977,116.707c-8.599-0.999-16.963,6.237-13.564,11.736  c1.151,1.863,6.464,2.963,11.807,2.444C159.915,129.654,161.342,118.145,148.977,116.707z"
         id="path2" /></svg>