<?xml version="1.0" encoding="UTF-8" standalone="no"?>
<svg
     xmlns:dc="http://purl.org/dc/elements/1.1/"
     xmlns:cc="http://creativecommons.org/ns#"
     xmlns:rdf="http://www.w3.org/1999/02/22-rdf-syntax-ns#"
     xmlns:svg="http://www.w3.org/2000/svg"
     xmlns="http://www.w3.org/2000/svg"
     xmlns:sodipodi="http://sodipodi.sourceforge.net/DTD/sodipodi-0.dtd"
     xmlns:inkscape="http://www.inkscape.org/namespaces/inkscape"
     version="1.1"
     id="Calque_1"
     x="0px"
     y="0px"
     width="577.863px"
     height="559.963px"
     viewBox="0 0 577.863 559.963"
     enable-background="new 0 0 577.863 559.963"
     xml:space="preserve"
     sodipodi:docname="getit.svg"
     inkscape:version="0.92.2 5c3e80d, 2017-08-06"><title
         id="title25">osgeo-getit</title><metadata
         id="metadata23"><rdf:RDF><cc:Work
                 rdf:about=""><dc:format>image/svg+xml</dc:format><dc:type
                     rdf:resource="http://purl.org/dc/dcmitype/StillImage" /><dc:title>osgeo-getit</dc:title><dc:date>08-21-2018</dc:date><dc:creator><cc:Agent><dc:title>Nicolas Bozon</dc:title></cc:Agent></dc:creator><dc:rights><cc:Agent><dc:title>copyright OSGeo</dc:title></cc:Agent></dc:rights><dc:publisher><cc:Agent><dc:title>OSGeo</dc:title></cc:Agent></dc:publisher><dc:identifier>osgeo-getit</dc:identifier><dc:description>OSGeo Get It</dc:description><dc:contributor><cc:Agent><dc:title>OSGeo Marketing Committee</dc:title></cc:Agent></dc:contributor><cc:license
                     rdf:resource="http://creativecommons.org/licenses/by-sa/4.0/" /></cc:Work><cc:License
                 rdf:about="http://creativecommons.org/licenses/by-sa/4.0/"><cc:permits
                     rdf:resource="http://creativecommons.org/ns#Reproduction" /><cc:permits
                     rdf:resource="http://creativecommons.org/ns#Distribution" /><cc:requires
                     rdf:resource="http://creativecommons.org/ns#Notice" /><cc:requires
                     rdf:resource="http://creativecommons.org/ns#Attribution" /><cc:permits
                     rdf:resource="http://creativecommons.org/ns#DerivativeWorks" /><cc:requires
                     rdf:resource="http://creativecommons.org/ns#ShareAlike" /></cc:License></rdf:RDF></metadata><defs
         id="defs21" /><sodipodi:namedview
         pagecolor="#ffffff"
         bordercolor="#666666"
         borderopacity="1"
         objecttolerance="10"
         gridtolerance="10"
         guidetolerance="10"
         inkscape:pageopacity="0"
         inkscape:pageshadow="2"
         inkscape:window-width="640"
         inkscape:window-height="480"
         id="namedview19"
         showgrid="false"
         inkscape:zoom="0.42145641"
         inkscape:cx="288.93149"
         inkscape:cy="279.98151"
         inkscape:window-x="0"
         inkscape:window-y="0"
         inkscape:window-maximized="0"
         inkscape:current-layer="Calque_1" /><g
         id="g16"><path
             fill="none"
             d="M331.063,436.755c-21.846-13.234-28.481-27.189-21.791-61.188c26.061,0,52.35,0,78.868,0   c0-11.658,0-22.196,0-34.096H307.75c-0.521-9.335-0.964-17.338-1.477-26.527c-10.869,0-24.212,0.16-34.128,0.16   c-0.103,4.195,0.101,7.129,0.141,11.51c0.173,24.707,0.148,49.412,0.653,74.109c0.15,7.278,0.795,14.838,2.961,21.725   c9.729,30.925,41.738,53.561,78.739,56.439c32.149,2.503,67.112-17.408,81.456-46.967c-9.303-5.174-18.642-10.371-27.733-15.428   C379.381,445.455,355.98,451.849,331.063,436.755z"
             id="path2" /><path
             fill="none"
             d="M340.683,222.033c-2.895-2.024-5.787-4.046-10.172-7.11c4.609-2.368,7.389-3.793,10.172-5.221   c38.151-21.654,76.304-43.31,114.364-64.918c-16.276-33.89-41.212-54.206-77.942-58.648c-5.21,0.037-10.421,0.071-15.631,0.111   c-14.387,5.481-30.354,8.601-42.863,16.916c-32.125,21.365-41.442,53.687-37.389,90.767c2.844,8.583,5.688,17.166,8.531,25.749   c5.654,7.386,11.315,14.772,16.969,22.16c1.775,2.315,3.551,4.631,5.324,6.949c2.753,1.643,5.506,3.28,8.258,4.923   c0.74-0.074,1.457,0.025,2.152,0.298c32.021,16.304,62.466,15.74,91.463-0.155c5.168-2.833,10.29-6.09,15.365-9.888   c6.375-7.897,12.75-15.798,19.818-24.552c-11.105-6.047-20.444-11.132-29.504-16.066   C390.345,233.553,367.726,238.725,340.683,222.033z M316.4,182.793c-3.569-23.483,7.555-44.901,27.52-55.54   c19.715-10.502,43.118-8.161,60.057,6.893C374.695,150.411,345.851,166.434,316.4,182.793z"
             id="path4" /><path
             fill="none"
             d="M143.761,235.066c0,11.654,0,22.261,0,33.961c17.168,0,33.439,0,50.007,0   c-8.427,29.56-41.089,44.894-70.123,33.914c-29.949-11.333-44.002-45.995-30.224-75.074c6.83-14.415,17.964-24.247,33.306-28.945   c21.846-6.688,40.672-0.067,57.635,14.68c8.475-7.972,16.248-15.285,23.991-22.564c-29.064-33.007-78.868-38.715-115.34-13.973   c-37.5,25.438-50.289,74.961-29.725,115.119c20.666,40.365,68.333,59.097,110.584,43.461   c41.116-15.221,66.835-60.328,57.131-100.578C201.909,235.066,172.761,235.066,143.761,235.066z"
             id="path6" /><path
             fill="none"
             d="M541.599,308.386c-0.347,1.677-1.176,1.905-1.969,3.197c-18.024,9.834-18.797,8.783-29.355-1.45   c0-5.153,0-9.8,0-14.845c8.627,0,16.75,0,24.916,0c0-4.565,0-8.65,0-13.167c-8.71,0-16.836,0-25.022,0   c-0.273-2.495,0.081-4.516,0.038-6.968c-4.146,0-9.036-0.017-13.455-0.017c0,6.936-0.167,13.399,0.051,19.851   c0.198,6.072-1.361,12.354,1.79,18.152c-12.474,8.439-15.984,8.037-28.163-3.641c0-11.143,0-22.734,0-34.574   c-4.232,0-8.008,0-12.706,0c0,6.32,0,12.359,0,18.148c0,5.486,0,10.755,0,15.795c4.233,9.193,10.644,15.312,18.782,19.617   c0.52,0.273,1.021,0.566,1.554,0.826c9.907-0.4,20.36,2.116,29.126-5.77c9.018,8.244,19.877,5.141,27.996,5.693   c8.529-2.964,13.052-7.618,17.252-13.933C548.541,312.818,545.277,310.735,541.599,308.386z"
             id="path8" /><path
             fill="none"
             d="M472.24,258.011c0-3.968-2.973-7.275-6.943-8.118c-0.638-0.133-1.296-0.221-1.977-0.221   c-4.926,0-8.92,3.733-8.92,8.339c0,1.755,0.588,3.382,1.581,4.726c1.61,2.177,4.292,3.61,7.339,3.61   C468.246,266.348,472.24,262.615,472.24,258.011z"
             id="path10" /><path
             d="M343.92,127.254c-19.965,10.638-31.089,32.056-27.52,55.54c29.451-16.359,58.295-32.382,87.576-48.647   C387.038,119.093,363.635,116.752,343.92,127.254z"
             id="path12" /><path
             d="M501.381,222.551c-8.615,0-16.857,1.596-24.473,4.498c6.186-15.676,9.633-32.865,9.633-50.918   c0-73.108-55.979-132.374-125.033-132.374c-67.809,0-122.971,57.16-124.94,128.446c-23.282-30.966-60.117-50.976-101.593-50.976   c-70.412,0-127.492,57.632-127.492,128.725c0,71.095,57.08,128.727,127.492,128.727c27.863,0,53.618-9.053,74.595-24.363   c-1.135,7.242-1.742,14.664-1.742,22.23c0,77.635,62.012,140.572,138.508,140.572c76.496,0,138.508-62.938,138.508-140.572   c0-4.814-0.246-9.566-0.713-14.256c5.517,1.426,11.295,2.189,17.25,2.189c38.537,0,69.776-31.775,69.776-70.967   C571.157,254.323,539.918,222.551,501.381,222.551z M173.872,335.644c-42.25,15.636-89.918-3.096-110.584-43.461   c-20.564-40.157-7.775-89.681,29.725-115.119c36.472-24.742,86.276-19.034,115.34,13.973c-7.744,7.279-15.517,14.592-23.991,22.564   c-16.962-14.747-35.789-21.368-57.635-14.68c-15.341,4.699-26.476,14.53-33.306,28.945c-13.778,29.079,0.275,63.741,30.224,75.074   c29.034,10.98,61.696-4.354,70.123-33.914c-16.568,0-32.839,0-50.007,0c0-11.7,0-22.307,0-33.961c29,0,58.147,0,87.242,0   C240.707,275.316,214.988,320.423,173.872,335.644z M354.639,478.888c-37.001-2.879-69.01-25.515-78.739-56.439   c-2.167-6.887-2.812-14.446-2.961-21.725c-0.505-24.697-0.48-49.402-0.653-74.109c-0.04-4.381-0.243-7.314-0.141-11.51   c9.916,0,23.259-0.16,34.128-0.16c0.513,9.189,0.955,17.192,1.477,26.527h80.391c0,11.899,0,22.438,0,34.096   c-26.519,0-52.808,0-78.868,0c-6.69,33.998-0.055,47.953,21.791,61.188c24.917,15.094,48.317,8.7,77.299-20.262   c9.092,5.057,18.431,10.254,27.733,15.428C421.752,461.48,386.789,481.391,354.639,478.888z M429.285,243.966   c-5.075,3.798-10.197,7.055-15.365,9.888c-28.997,15.895-59.441,16.459-91.463,0.155c-0.695-0.273-1.412-0.372-2.152-0.298   c-2.752-1.643-5.505-3.28-8.258-4.923c-1.773-2.317-3.549-4.634-5.324-6.949c-5.653-7.387-11.314-14.774-16.969-22.16   c-2.843-8.583-5.687-17.166-8.531-25.749c-4.054-37.08,5.264-69.402,37.389-90.767c12.51-8.315,28.477-11.435,42.863-16.916   c5.21-0.04,10.421-0.074,15.631-0.111c36.73,4.442,61.666,24.758,77.942,58.648c-38.061,21.608-76.213,43.265-114.364,64.918   c-2.783,1.428-5.562,2.853-10.172,5.221c4.385,3.064,7.277,5.086,10.172,7.11c27.043,16.692,49.662,11.52,78.916-18.685   c9.06,4.934,18.398,10.019,29.504,16.066C442.035,228.168,435.66,236.069,429.285,243.966z M455.981,262.738   c-0.993-1.344-1.581-2.971-1.581-4.726c0-4.606,3.994-8.339,8.92-8.339c0.681,0,1.339,0.088,1.977,0.221   c3.971,0.843,6.943,4.149,6.943,8.118c0,4.604-3.994,8.336-8.92,8.336C460.273,266.348,457.592,264.914,455.981,262.738z    M535.181,329.236c-8.119-0.553-18.979,2.551-27.996-5.693c-8.766,7.886-19.219,5.369-29.126,5.77   c-0.532-0.26-1.034-0.553-1.554-0.826c-8.139-4.305-14.549-10.424-18.782-19.617c0-5.04,0-10.309,0-15.795   c0-5.789,0-11.828,0-18.148c4.698,0,8.474,0,12.706,0c0,11.84,0,23.432,0,34.574c12.179,11.678,15.689,12.08,28.163,3.641   c-3.151-5.799-1.592-12.08-1.79-18.152c-0.218-6.451-0.051-12.915-0.051-19.851c4.419,0,9.309,0.017,13.455,0.017   c0.043,2.452-0.312,4.473-0.038,6.968c8.187,0,16.312,0,25.022,0c0,4.517,0,8.602,0,13.167c-8.166,0-16.289,0-24.916,0   c0,5.045,0,9.691,0,14.845c10.559,10.233,11.331,11.284,29.355,1.45c0.793-1.292,1.622-1.521,1.969-3.197   c3.678,2.349,6.941,4.432,10.834,6.917C548.233,321.617,543.711,326.272,535.181,329.236z"
             id="path14" /></g></svg>
