<?xml version="1.0" encoding="UTF-8" standalone="no"?>
<svg
     xmlns:dc="http://purl.org/dc/elements/1.1/"
     xmlns:cc="http://creativecommons.org/ns#"
     xmlns:rdf="http://www.w3.org/1999/02/22-rdf-syntax-ns#"
     xmlns:svg="http://www.w3.org/2000/svg"
     xmlns="http://www.w3.org/2000/svg"
     xmlns:sodipodi="http://sodipodi.sourceforge.net/DTD/sodipodi-0.dtd"
     xmlns:inkscape="http://www.inkscape.org/namespaces/inkscape"
     version="1.1"
     id="Calque_1"
     x="0px"
     y="0px"
     width="534.803px"
     height="563.102px"
     viewBox="0 0 534.803 563.102"
     enable-background="new 0 0 534.803 563.102"
     xml:space="preserve"
     sodipodi:docname="gvsig.svg"
     inkscape:version="0.92.2 5c3e80d, 2017-08-06"><title
         id="title51">osgeo-gvsig</title><metadata
         id="metadata49"><rdf:RDF><cc:Work
                 rdf:about=""><dc:format>image/svg+xml</dc:format><dc:type
                     rdf:resource="http://purl.org/dc/dcmitype/StillImage" /><dc:title>osgeo-gvsig</dc:title><dc:date>08-21-2018</dc:date><dc:creator><cc:Agent><dc:title>Nicolas Bozon</dc:title></cc:Agent></dc:creator><dc:rights><cc:Agent><dc:title>copyright OSGeo</dc:title></cc:Agent></dc:rights><dc:publisher><cc:Agent><dc:title>OSGeo</dc:title></cc:Agent></dc:publisher><dc:identifier>osgeo-gvsig</dc:identifier><dc:description>OSGeo gVSIG</dc:description><dc:contributor><cc:Agent><dc:title>OSGeo Marketing Committee</dc:title></cc:Agent></dc:contributor><cc:license
                     rdf:resource="http://creativecommons.org/licenses/by-sa/4.0/" /></cc:Work><cc:License
                 rdf:about="http://creativecommons.org/licenses/by-sa/4.0/"><cc:permits
                     rdf:resource="http://creativecommons.org/ns#Reproduction" /><cc:permits
                     rdf:resource="http://creativecommons.org/ns#Distribution" /><cc:requires
                     rdf:resource="http://creativecommons.org/ns#Notice" /><cc:requires
                     rdf:resource="http://creativecommons.org/ns#Attribution" /><cc:permits
                     rdf:resource="http://creativecommons.org/ns#DerivativeWorks" /><cc:requires
                     rdf:resource="http://creativecommons.org/ns#ShareAlike" /></cc:License></rdf:RDF></metadata><defs
         id="defs47" /><sodipodi:namedview
         pagecolor="#ffffff"
         bordercolor="#666666"
         borderopacity="1"
         objecttolerance="10"
         gridtolerance="10"
         guidetolerance="10"
         inkscape:pageopacity="0"
         inkscape:pageshadow="2"
         inkscape:window-width="640"
         inkscape:window-height="480"
         id="namedview45"
         showgrid="false"
         inkscape:zoom="0.41910703"
         inkscape:cx="267.40149"
         inkscape:cy="281.55099"
         inkscape:window-x="0"
         inkscape:window-y="0"
         inkscape:window-maximized="0"
         inkscape:current-layer="Calque_1" /><g
         id="g42"><path
             fill="none"
             d="M314.798,268.721c-0.002-4.074,0.005-8.147,0-12.219C314.802,260.574,314.797,264.647,314.798,268.721z"
             id="path2" /><path
             fill="none"
             d="M477.183,39.914c-0.004,0.007-0.013,0.025-0.021,0.045c-0.005,0.01-0.009,0.02-0.01,0.024   c0.004-0.008,0.012-0.026,0.021-0.044l0.014-0.031l0.001-0.002L477.183,39.914z"
             id="path4" /><path
             fill="none"
             d="M253.853,253.269c-12.393-6.813-25.187-12.9-37.702-19.486c-8.311-4.378-10.956-10.063-8.608-17.458   c2.022-6.361,8.549-10.264,16.899-8.918c8.483,1.363,16.842,3.578,25.18,5.717c8.674,2.226,15.76-0.856,18.788-8.581   c2.86-7.296-0.163-14.828-8.566-17.934l-38.908-8.192c-19.692-0.149-38.008,13.247-41.684,32.098   c-4.825,24.74,4.019,38.517,22.518,49.161c12.392,7.125,25.721,12.612,38.537,19.026c6.205,3.103,8.375,8.386,6.61,15.061   c-1.771,6.717-6.576,10.304-13.237,9.757c-6.347-0.52-12.771-1.9-18.791-3.977c-5.841-2.02-11.109-5.635-16.816-8.121   c-6.915-3.013-13.719-0.853-17.66,5.109c-3.742,5.656-3.473,13.533,1.757,17.723c18.095,14.496,38.824,21.322,61.831,16.95   c17.122-3.254,29.596-17.913,31.701-34.214h-0.004C278.268,277.082,271.433,262.931,253.853,253.269z"
             id="path6" /><path
             fill="none"
             d="M314.798,256.501c-0.004-20.422-0.103-40.847,0.033-61.266C314.694,215.656,314.794,236.079,314.798,256.501   L314.798,256.501z"
             id="path8" /><path
             fill="none"
             d="M314.805,256.501c0,4.096-0.009,8.193-0.008,12.29c0.001,2.146-0.001,4.291,0.012,6.437   c0,0.004,0,0.007,0,0.011c0-0.004,0-0.007,0-0.011c0,0.004,0,0.008,0,0.012c0.1,15.61,0.15,31.219,0.391,46.827   c0.104,6.78,4.072,10.055,10.601,10.977c9.438,1.332,17.749-3.925,17.636-17.626c-0.33-39.397-0.104-78.801-0.143-118.204   c-0.002-2.631,0.527-5.913-0.786-7.752c-2.562-3.588-5.776-8.133-9.563-9.16c-11.584-3.136-18.029,2.563-18.113,14.935   C314.695,215.655,314.794,236.079,314.805,256.501z"
             id="path10" /><path
             fill="none"
             d="M493.469,251.761c0.031-7.338-2.484-13.054-9.227-16.51c-8.878-0.207-17.762-0.692-26.635-0.542   c-8.687,0.147-13.871,5.649-14.049,14.069c-0.184,8.849,4.91,14.389,13.905,15.026c1.896,0.131,3.813,0.017,6.156,0.017v40.117   c-9.322,0-18.63,0.314-27.905-0.101c-6.857-0.308-11.616-5.486-11.715-13.177c-0.296-22.839-0.342-45.69-0.033-68.53   c0.119-8.884,5.305-13.404,14.264-13.641c14.883-0.393,29.767-0.609,44.65-0.946c0.928-0.02,1.852-0.441,2.777-0.672   c6.837-5.707,9.133-12.025,6.756-18.775c-2.738-7.777-9.643-9.005-16.277-9.11l-43.184,0.772   c-21.233,1.668-37.195,18.051-37.803,39.236c-0.717,24.973-0.778,49.999,0.047,74.962c0.733,22.125,18.99,38.816,41.094,39.1   c13.213,0.172,26.432,0.06,39.654,0.029c12.839-0.025,17.295-4.154,17.435-17.155C493.602,294.543,493.384,273.154,493.469,251.761   z"
             id="path12" /><path
             fill="none"
             d="M477.264,39.741l-0.02,0.034c-0.017,0.03-0.035,0.068-0.049,0.096   C477.219,39.824,477.264,39.741,477.264,39.741z"
             id="path14" /><path
             fill="none"
             d="M442.163,179.207c11.303-0.507,22.66-0.405,33.975-0.22C464.823,178.802,453.466,178.699,442.163,179.207z"
             id="path16" /><polygon
             fill="none"
             points="477.173,39.93 477.18,39.905 477.17,39.935  "
             id="polygon18" /><line
             fill="none"
             stroke="#000000"
             stroke-width="0"
             stroke-linecap="round"
             stroke-linejoin="round"
             x1="477.264"
             y1="39.741"
             x2="477.245"
             y2="39.776"
             id="line20" /><path
             d="M477.187,39.907c0,0-0.001,0.001-0.001,0.002L477.187,39.907l-0.015,0.032C477.179,39.923,477.186,39.907,477.187,39.907z"
             id="path22" /><line
             fill="none"
             stroke="#000000"
             stroke-width="0"
             stroke-linecap="round"
             stroke-linejoin="round"
             x1="314.809"
             y1="275.239"
             x2="314.809"
             y2="275.228"
             id="line24" /><line
             fill="none"
             stroke="#000000"
             stroke-width="0"
             stroke-linecap="round"
             stroke-linejoin="round"
             x1="477.169"
             y1="39.937"
             x2="477.171"
             y2="39.936"
             id="line26" /><path
             d="M380.036,147.64c3.723-17.24,7.9-34.396,11.775-51.607l5.109-19.451c-1.703,6.483-3.408,12.966-5.109,19.45   C387.935,113.245,383.758,130.4,380.036,147.64z"
             id="path28" /><path
             d="M511.864,243.086c-3.686-33.425-11.461-65.646-31.761-93.518c-11.958-16.42-23.908-32.843-36.619-50.304   c0.085-0.174,1.034-2.344,2.204-4.388c10.46-18.307,20.961-36.592,31.437-54.882h0.011l0.033-0.057l0.002-0.001l-0.002,0.001   c0,0.001-0.001,0.001-0.001,0.003l-0.032,0.055l0.01-0.001l0.004-0.004c0,0,0.002-0.005,0.002-0.006c0,0,0,0,0.001,0l0.021-0.044   c-0.009,0.018-0.017,0.037-0.021,0.044c0.001-0.005,0.005-0.014,0.01-0.024c0.009-0.021,0.018-0.039,0.021-0.045l0.004-0.007   l-0.001,0.002l0.078-0.167c0,0-0.045,0.083-0.068,0.13c0.014-0.028,0.032-0.065,0.049-0.096l-0.069,0.129l-0.051,0.088   c-6.416-0.242-11.524,1.787-14.976,7.657c-3.16,5.375-6.98,10.358-10.26,15.671c-22.194,35.953-40.886,73.648-56.781,112.805   c-14.24,35.089-23.118,71.026-19.603,109.209c2.78,30.212,16.009,55.285,38.869,74.952c10.839,9.317,22.802,17.327,34.249,25.927   c-0.18,0.151-0.484,0.637-0.824,0.662c-5.273,0.359-10.549,0.625-15.82,0.972c-49.581,3.267-91.248,22.328-118.592,64.858   c-16.152,25.125-28.303,52.803-42.631,79.129c-3.835,7.047-2.623,12.016,3.848,16.742c4.687-10.282,10.146-20.205,13.784-30.758   c4.151-12.021,11.339-15.943,24.092-18.199c96.573-17.094,159.886-73.576,191.018-166.147   C513.344,304.189,515.243,273.7,511.864,243.086z M477.18,39.905l-0.008,0.025c-0.001,0.001-0.002,0.003-0.003,0.005L477.18,39.905   z M493.381,315.93c-0.14,13.001-4.596,17.13-17.435,17.155c-13.223,0.03-26.441,0.143-39.654-0.029   c-22.104-0.283-40.36-16.975-41.094-39.1c-0.825-24.963-0.764-49.989-0.047-74.962c0.607-21.185,16.569-37.567,37.803-39.236   l43.184-0.772c-11.314-0.185-22.672-0.287-33.975,0.22c11.303-0.508,22.66-0.405,33.975-0.22c6.635,0.105,13.539,1.333,16.277,9.11   c2.377,6.75,0.081,13.068-6.756,18.775c-0.926,0.231-1.85,0.652-2.777,0.672c-14.884,0.337-29.768,0.554-44.65,0.946   c-8.959,0.237-14.145,4.756-14.264,13.641c-0.309,22.839-0.263,45.69,0.033,68.53c0.099,7.69,4.857,12.869,11.715,13.177   c9.275,0.415,18.583,0.101,27.905,0.101v-40.117c-2.343,0-4.26,0.114-6.156-0.017c-8.995-0.637-14.089-6.178-13.905-15.026   c0.178-8.42,5.362-13.922,14.049-14.069c8.873-0.149,17.757,0.336,26.635,0.542c6.742,3.456,9.258,9.171,9.227,16.51   C493.384,273.154,493.602,294.543,493.381,315.93z"
             id="path30" /><path
             d="M370.018,385.254c13.395-3.065,26.89-5.688,41.002-8.657c-4.871-6.583-9.424-12.691-13.926-18.835   c-15.527-21.188-25.697-44.508-28.861-70.793c-2.894-24.048-1.284-47.972,1.407-71.857c1.889-16.781,3.671-33.631,6.856-50.191   c1.111-5.773,2.301-11.53,3.537-17.279c3.724-17.24,7.901-34.396,11.775-51.608c1.705-6.483,3.404-12.967,5.109-19.45   c0.578-2.203,1.158-4.425,1.75-6.676c-2.381-1.39-4.604-2.737-6.87-4.007c-38.657-21.632-80.212-31.398-124.315-28.473   c-17.466,1.161-34.746,5.208-52.108,7.941c10.372,1.801,13.695,6.87,10.523,16.616c-8.646,26.581-17.399,53.132-26.151,79.679   c-1.899,5.757-4.704,10.647-11.789,10.833c-7.275,0.191-9.864-4.851-11.767-10.585c-8.774-26.432-17.564-52.855-26.246-79.317   c-2.685-8.173,0.021-14.546,6.673-16.555c6.471-1.955,11.716,1.353,14.421,9.373c5.436,16.117,10.754,32.273,16.533,49.65   c7-19.622,13.624-38.186,20.257-56.761c-7.877,2.391-15.754,4.785-23.631,7.181c-0.57-1.094-1.722-2.634-2.218-4.36   c-4.253-14.796-22.989-22.466-35.754-13.804c-1.243,0.842-3.759,0.299-5.516-0.196c-7.625-2.135-15.111-6.054-22.79-6.429   c-14.318-0.7-28.735,1.022-43.111,1.005C42.442,31.662,22.537,59.96,22.637,84.161c0.068,16.822,0.016,33.644-0.141,50.466   c-0.05,5.481-1.888,11.25-0.712,16.384c4.353,19.005,13.257,35.066,31.801,44.175c1.71,0.839,3.25,4.497,2.931,6.547   c-1.064,6.831-3.009,13.523-4.618,20.27c14.177-0.061,28.353-0.097,42.53-0.192c11.881-0.077,18.276-5.772,19.272-17.666   c0.455-5.445,0.076-10.957,0.076-17.328c-11.875,0-23.363-0.517-34.787,0.102c-27.832,1.509-45.06-20.426-44.472-44.209   c0.517-20.905-0.125-41.844,0.719-62.73c0.749-18.534,17.126-34.893,35.746-35.749c18.473-0.847,37.01-0.598,55.513-0.425   c7.994,0.076,11.288,3.734,11.313,11.729c0.145,50.253,0.36,100.506,0.16,150.759c-0.079,19.716-14.733,36.994-34.536,39.053   c-16.173,1.679-32.634,0.633-48.967,0.599c-2.061-0.002-4.119-1.185-6.18-1.827c-2.631,25.048-1.317,49.591,3.939,73.593   c0.696,3.176,1.46,6.338,2.29,9.48c1.043,3.963,2.188,7.897,3.438,11.799c1.422,4.413,2.971,8.785,4.646,13.105   c12.194,31.471,29.938,59.346,54.894,82.36c32.762,32.275,72.115,51.96,116.916,61.286c3.744,0.781,6.154,0.029,8.304-3.486   c5.261-8.596,10.974-16.917,16.553-25.317C286.272,426.275,321.282,396.411,370.018,385.254z M314.831,195.236   c0.084-12.372,6.529-18.07,18.113-14.935c3.787,1.027,7.002,5.571,9.563,9.16c1.313,1.84,0.784,5.122,0.786,7.752   c0.038,39.403-0.188,78.807,0.143,118.204c0.113,13.701-8.197,18.958-17.636,17.626c-6.528-0.922-10.497-4.196-10.601-10.977   c-0.24-15.607-0.291-31.217-0.391-46.827c0-0.004,0-0.008,0-0.012c-0.013-2.146-0.011-4.292-0.012-6.437   c-0.001-4.096,0.008-8.193,0.008-12.29C314.794,236.079,314.695,215.655,314.831,195.236c-0.136,20.419-0.037,40.843-0.033,61.266   v0c0.005,4.072-0.002,8.145,0,12.219c-0.001-4.074,0.005-8.147,0-12.219C314.794,236.079,314.694,215.656,314.831,195.236z    M275.701,296.99c-2.104,16.301-14.579,30.96-31.701,34.214c-23.007,4.372-43.736-2.454-61.831-16.95   c-5.23-4.189-5.5-12.066-1.757-17.723c3.94-5.962,10.745-8.122,17.66-5.109c5.707,2.486,10.975,6.102,16.816,8.121   c6.021,2.076,12.444,3.457,18.791,3.977c6.662,0.547,11.466-3.04,13.237-9.757c1.766-6.675-0.405-11.958-6.61-15.061   c-12.816-6.414-26.145-11.901-38.537-19.026c-18.499-10.644-27.342-24.42-22.518-49.161c3.676-18.851,21.992-32.248,41.684-32.098   l38.908,8.192c8.403,3.106,11.427,10.637,8.566,17.934c-3.028,7.725-10.114,10.807-18.788,8.581   c-8.337-2.139-16.696-4.354-25.18-5.717c-8.35-1.345-14.877,2.558-16.899,8.918c-2.348,7.396,0.297,13.081,8.608,17.458   c12.515,6.586,25.309,12.673,37.702,19.486c17.581,9.662,24.416,23.813,21.844,43.721H275.701z"
             id="path32" /><path
             d="M59.271,114.531L59.271,114.531c-0.005-9.831,0.042-19.662,0.16-29.494C59.312,94.868,59.265,104.7,59.271,114.531z"
             id="path34" /><path
             d="M72.255,160.781h29.985c6.097,0,11.04-4.943,11.04-11.04v-43.268v-0.002V78.545c0-5.296-3.732-9.717-8.708-10.788h-0.002   c-0.001,0-0.003,0-0.005-0.001L77.17,67.776c-7.305,0.073-12.616,2.783-15.435,7.766c-1.457,2.575-2.26,5.745-2.304,9.496   c-0.119,9.832-0.166,19.663-0.16,29.494c0.004,9.832,0.062,19.664,0.149,29.494C59.496,152.958,63.458,157.77,72.255,160.781z"
             id="path36" /><line
             fill="none"
             stroke="#000000"
             stroke-width="0"
             stroke-linecap="round"
             stroke-linejoin="round"
             x1="59.271"
             y1="114.532"
             x2="59.271"
             y2="114.532"
             id="line38" /><path
             fill="none"
             stroke="#000000"
             stroke-width="0"
             stroke-linecap="round"
             stroke-linejoin="round"
             d="M59.271,114.532   c-0.005-9.832,0.042-19.663,0.16-29.494"
             id="path40" /></g></svg>