<?xml version="1.0" encoding="UTF-8" standalone="no"?>
<svg
     xmlns:dc="http://purl.org/dc/elements/1.1/"
     xmlns:cc="http://creativecommons.org/ns#"
     xmlns:rdf="http://www.w3.org/1999/02/22-rdf-syntax-ns#"
     xmlns:svg="http://www.w3.org/2000/svg"
     xmlns="http://www.w3.org/2000/svg"
     xmlns:sodipodi="http://sodipodi.sourceforge.net/DTD/sodipodi-0.dtd"
     xmlns:inkscape="http://www.inkscape.org/namespaces/inkscape"
     version="1.1"
     id="Calque_1"
     x="0px"
     y="0px"
     width="636.271px"
     height="636.269px"
     viewBox="0 0 636.271 636.269"
     enable-background="new 0 0 636.271 636.269"
     xml:space="preserve"
     sodipodi:docname="local-chapter.svg"
     inkscape:version="0.92.2 5c3e80d, 2017-08-06"><title
         id="title21">osgeo-local-chapter</title><metadata
         id="metadata19"><rdf:RDF><cc:Work
                 rdf:about=""><dc:format>image/svg+xml</dc:format><dc:type
                     rdf:resource="http://purl.org/dc/dcmitype/StillImage" /><dc:title>osgeo-local-chapter</dc:title><dc:date>08-21-2018</dc:date><dc:creator><cc:Agent><dc:title>Nicolas Bozon</dc:title></cc:Agent></dc:creator><dc:rights><cc:Agent><dc:title>copyright OSGeo</dc:title></cc:Agent></dc:rights><dc:publisher><cc:Agent><dc:title>OSGeo</dc:title></cc:Agent></dc:publisher><dc:identifier>osgeo-local-chapter</dc:identifier><dc:description>OSGeo local chapter</dc:description><dc:contributor><cc:Agent><dc:title>OSGeo Marketing Committee</dc:title></cc:Agent></dc:contributor><cc:license
                     rdf:resource="http://creativecommons.org/licenses/by-sa/4.0/" /></cc:Work><cc:License
                 rdf:about="http://creativecommons.org/licenses/by-sa/4.0/"><cc:permits
                     rdf:resource="http://creativecommons.org/ns#Reproduction" /><cc:permits
                     rdf:resource="http://creativecommons.org/ns#Distribution" /><cc:requires
                     rdf:resource="http://creativecommons.org/ns#Notice" /><cc:requires
                     rdf:resource="http://creativecommons.org/ns#Attribution" /><cc:permits
                     rdf:resource="http://creativecommons.org/ns#DerivativeWorks" /><cc:requires
                     rdf:resource="http://creativecommons.org/ns#ShareAlike" /></cc:License></rdf:RDF></metadata><defs
         id="defs17" /><sodipodi:namedview
         pagecolor="#ffffff"
         bordercolor="#666666"
         borderopacity="1"
         objecttolerance="10"
         gridtolerance="10"
         guidetolerance="10"
         inkscape:pageopacity="0"
         inkscape:pageshadow="2"
         inkscape:window-width="640"
         inkscape:window-height="480"
         id="namedview15"
         showgrid="false"
         inkscape:zoom="0.37091231"
         inkscape:cx="318.1355"
         inkscape:cy="318.13449"
         inkscape:window-x="407"
         inkscape:window-y="60"
         inkscape:window-maximized="0"
         inkscape:current-layer="Calque_1" /><g
         id="g10"><path
             fill="#010101"
             d="M302.229,127.961V64.172V0l-39.904,69.847C153.628,94.171,71.226,187.974,64.18,302.225h63.775   C135.611,209.508,209.508,135.621,302.229,127.961z"
             id="path2" /><path
             fill="#010101"
             d="M127.951,334.048H64.172H0l69.848,39.904c24.323,108.682,118.128,191.09,232.378,198.139V508.31   C209.508,500.652,135.611,426.765,127.951,334.048z"
             id="path4" /><path
             fill="#010101"
             d="M566.432,262.323C542.103,153.631,448.3,71.223,334.048,64.177v63.789   c92.716,7.652,166.612,81.545,174.274,174.261h63.781h64.168L566.432,262.323z"
             id="path6" /><path
             fill="#010101"
             d="M334.048,508.31v63.803v64.156l39.902-69.846c108.688-24.324,191.102-118.127,198.145-232.385h-63.776   C500.66,426.755,426.759,500.642,334.048,508.31z"
             id="path8" /></g><path
         fill="#010101"
         d="M318.64,173.883c-53.258,0-96.436,43.178-96.436,96.435c0,72.324,56.254,96.435,96.436,192.871  c40.181-96.436,96.437-120.546,96.437-192.871C415.076,217.06,371.9,173.883,318.64,173.883z M318.64,318.535  c-26.628,0-48.218-21.588-48.218-48.217c0-26.629,21.589-48.219,48.218-48.219c26.63,0,48.218,21.589,48.218,48.219  C366.858,296.947,345.27,318.535,318.64,318.535z"
         id="path12" /></svg>