<?xml version="1.0" encoding="UTF-8" standalone="no"?>
<svg
     xmlns:dc="http://purl.org/dc/elements/1.1/"
     xmlns:cc="http://creativecommons.org/ns#"
     xmlns:rdf="http://www.w3.org/1999/02/22-rdf-syntax-ns#"
     xmlns:svg="http://www.w3.org/2000/svg"
     xmlns="http://www.w3.org/2000/svg"
     xmlns:sodipodi="http://sodipodi.sourceforge.net/DTD/sodipodi-0.dtd"
     xmlns:inkscape="http://www.inkscape.org/namespaces/inkscape"
     version="1.1"
     id="Calque_1"
     x="0px"
     y="0px"
     width="643.197px"
     height="443.18px"
     viewBox="0 0 643.197 443.18"
     enable-background="new 0 0 643.197 443.18"
     xml:space="preserve"
     sodipodi:docname="mapbender.svg"
     inkscape:version="0.92.2 5c3e80d, 2017-08-06"><title
         id="title15">osgeo-mapbender</title><metadata
         id="metadata13"><rdf:RDF><cc:Work
                 rdf:about=""><dc:format>image/svg+xml</dc:format><dc:type
                     rdf:resource="http://purl.org/dc/dcmitype/StillImage" /><dc:title>osgeo-mapbender</dc:title><dc:date>08-21-2018</dc:date><dc:creator><cc:Agent><dc:title>Nicolas Bozon</dc:title></cc:Agent></dc:creator><dc:rights><cc:Agent><dc:title>copyright OSGeo</dc:title></cc:Agent></dc:rights><dc:publisher><cc:Agent><dc:title>OSGeo</dc:title></cc:Agent></dc:publisher><dc:identifier>osgeo-mapbender</dc:identifier><dc:description>OSGeo Mapbender</dc:description><dc:contributor><cc:Agent><dc:title>OSGeo Marketing Committee</dc:title></cc:Agent></dc:contributor><cc:license
                     rdf:resource="http://creativecommons.org/licenses/by-sa/4.0/" /></cc:Work><cc:License
                 rdf:about="http://creativecommons.org/licenses/by-sa/4.0/"><cc:permits
                     rdf:resource="http://creativecommons.org/ns#Reproduction" /><cc:permits
                     rdf:resource="http://creativecommons.org/ns#Distribution" /><cc:requires
                     rdf:resource="http://creativecommons.org/ns#Notice" /><cc:requires
                     rdf:resource="http://creativecommons.org/ns#Attribution" /><cc:permits
                     rdf:resource="http://creativecommons.org/ns#DerivativeWorks" /><cc:requires
                     rdf:resource="http://creativecommons.org/ns#ShareAlike" /></cc:License></rdf:RDF></metadata><defs
         id="defs11" /><sodipodi:namedview
         pagecolor="#ffffff"
         bordercolor="#666666"
         borderopacity="1"
         objecttolerance="10"
         gridtolerance="10"
         guidetolerance="10"
         inkscape:pageopacity="0"
         inkscape:pageshadow="2"
         inkscape:window-width="640"
         inkscape:window-height="480"
         id="namedview9"
         showgrid="false"
         inkscape:zoom="0.53251501"
         inkscape:cx="321.59851"
         inkscape:cy="221.59"
         inkscape:window-x="0"
         inkscape:window-y="0"
         inkscape:window-maximized="0"
         inkscape:current-layer="Calque_1" /><g
         id="g6"><path
             fill="#010101"
             d="M563.899,261.664c-5.9-5.607-13.068-10.376-20.451-13.847c-45.662-21.494-91.561-42.49-137.341-63.734   c-2.548-1.183-4.038-1.192-6.017,1.163c-14.565,17.294-32.934,28.59-54.916,33.839c-2.77,0.662-3.6,1.756-3.552,4.476   c0.149,8.149,0.052,16.305,0.052,24.457c0,7.834-0.238,15.676,0.09,23.494c0.199,4.723-1.785,7.775-5.762,9.48   c-9.212,3.95-18.645,4.189-27.956,0.415c-4.285-1.737-6.58-4.862-6.488-10.04c0.28-15.819,0.075-31.648,0.126-47.475   c0.01-2.424-0.146-4.039-3.205-4.753c-22.362-5.216-40.852-16.819-55.801-34.236c-0.847-0.987-3.456-1.547-4.644-1.001   c-47.455,21.808-94.908,43.623-142.156,65.878c-6.345,2.987-12.296,7.608-17.217,12.655c-9.444,9.689-9.519,22.73,0.252,32.091   c6.214,5.954,13.737,11.079,21.531,14.749c46.378,21.859,93.143,42.895,139.491,64.814c21.456,10.143,43.295,17.971,67.189,19.325   c26.953,1.528,53.575-0.136,78.445-11.413c53.531-24.273,106.825-49.07,160.051-74.004c6.66-3.121,13.002-7.684,18.291-12.818   C574.295,285.103,574.388,271.633,563.899,261.664z"
             id="path2" /><path
             fill="#010101"
             d="M321.505,188.738c38.665,0.064,69.945-31.124,69.927-69.726c-0.011-37.718-31.166-68.933-68.158-69.715   c-34.91-0.738-71.026,26.402-71.286,69.867C251.754,157.669,283.081,188.675,321.505,188.738z"
             id="path4" /></g></svg>