<?xml version="1.0" encoding="UTF-8" standalone="no"?>
<svg
     xmlns:dc="http://purl.org/dc/elements/1.1/"
     xmlns:cc="http://creativecommons.org/ns#"
     xmlns:rdf="http://www.w3.org/1999/02/22-rdf-syntax-ns#"
     xmlns:svg="http://www.w3.org/2000/svg"
     xmlns="http://www.w3.org/2000/svg"
     xmlns:sodipodi="http://sodipodi.sourceforge.net/DTD/sodipodi-0.dtd"
     xmlns:inkscape="http://www.inkscape.org/namespaces/inkscape"
     version="1.1"
     id="Calque_1"
     x="0px"
     y="0px"
     width="643.197px"
     height="443.18px"
     viewBox="0 0 643.197 443.18"
     enable-background="new 0 0 643.197 443.18"
     xml:space="preserve"
     sodipodi:docname="mapfish.svg"
     inkscape:version="0.92.2 5c3e80d, 2017-08-06"><title
         id="title19">osgeo-mapfish</title><metadata
         id="metadata17"><rdf:RDF><cc:Work
                 rdf:about=""><dc:format>image/svg+xml</dc:format><dc:type
                     rdf:resource="http://purl.org/dc/dcmitype/StillImage" /><dc:title>osgeo-mapfish</dc:title><dc:date>08-21-2018</dc:date><dc:creator><cc:Agent><dc:title>Nicolas Bozon</dc:title></cc:Agent></dc:creator><dc:rights><cc:Agent><dc:title>copyright OSGeo</dc:title></cc:Agent></dc:rights><dc:publisher><cc:Agent><dc:title>OSGeo</dc:title></cc:Agent></dc:publisher><dc:identifier>osgeo-mapfish</dc:identifier><dc:description>OSGeo MapFish</dc:description><dc:contributor><cc:Agent><dc:title>OSGeo Marketing Committee</dc:title></cc:Agent></dc:contributor><cc:license
                     rdf:resource="http://creativecommons.org/licenses/by-sa/4.0/" /></cc:Work><cc:License
                 rdf:about="http://creativecommons.org/licenses/by-sa/4.0/"><cc:permits
                     rdf:resource="http://creativecommons.org/ns#Reproduction" /><cc:permits
                     rdf:resource="http://creativecommons.org/ns#Distribution" /><cc:requires
                     rdf:resource="http://creativecommons.org/ns#Notice" /><cc:requires
                     rdf:resource="http://creativecommons.org/ns#Attribution" /><cc:permits
                     rdf:resource="http://creativecommons.org/ns#DerivativeWorks" /><cc:requires
                     rdf:resource="http://creativecommons.org/ns#ShareAlike" /></cc:License></rdf:RDF></metadata><defs
         id="defs15" /><sodipodi:namedview
         pagecolor="#ffffff"
         bordercolor="#666666"
         borderopacity="1"
         objecttolerance="10"
         gridtolerance="10"
         guidetolerance="10"
         inkscape:pageopacity="0"
         inkscape:pageshadow="2"
         inkscape:window-width="640"
         inkscape:window-height="480"
         id="namedview13"
         showgrid="false"
         inkscape:zoom="0.53251501"
         inkscape:cx="321.59851"
         inkscape:cy="221.59"
         inkscape:window-x="0"
         inkscape:window-y="0"
         inkscape:window-maximized="0"
         inkscape:current-layer="Calque_1" /><g
         id="g10"><path
             d="M234.742,84.373c74.948,0,137.686,35.168,140.319,36.665c101.391,57.638,110.44,129.874,106.811,167.803l-0.066,0.691   l14.491,14.863l0.7-2.509c13.282-47.556,3.708-94.558-27.689-135.926c-23.333-30.743-57.529-56.934-98.891-75.741   c-39.779-18.087-84.301-28.049-125.363-28.049h-0.252c-37.434,0.037-71.59,8.261-98.776,23.782   c-30.395,17.354-51.868,43.164-63.823,76.714l-4.275,11.998l6.946-10.676C119.242,111.16,169.666,84.373,234.742,84.373z"
             id="path2" /><path
             d="M476.173,318.698c-7.104,24.959-20.299,51.089-39.217,77.666l2.323,1.888c21.582-23.353,37.885-47.146,48.455-70.716   l0.448-1.002l-11.354-10.139L476.173,318.698z"
             id="path4" /><path
             d="M559.72,392.762c-40.653-74.345-102.697-135.604-179.427-177.153c-67.467-36.535-144.433-56.656-216.718-56.656   c-26.65,0-52.012,2.734-75.382,8.126l0.458,2.957c8.271-0.668,16.856-1.007,25.517-1.007c127.255,0,252.817,71.39,258.101,74.429   c1.437,0.827,3.142,1.78,5.105,2.878c24.872,13.902,90.943,50.834,179.922,148.158l8.386,9.172L559.72,392.762z"
             id="path6" /><path
             d="M147.994,114.792c-5.017-0.512-9.349,3.119-9.85,8.021c-0.506,4.927,3.091,9.347,8.021,9.854   c0.309,0.032,0.616,0.047,0.92,0.047c4.622,0,8.461-3.469,8.931-8.07c0.244-2.387-0.456-4.727-1.97-6.587   C152.532,116.196,150.382,115.036,147.994,114.792z"
             id="path8" /></g></svg>