<?xml version="1.0" encoding="UTF-8" standalone="no"?>
<svg
     xmlns:dc="http://purl.org/dc/elements/1.1/"
     xmlns:cc="http://creativecommons.org/ns#"
     xmlns:rdf="http://www.w3.org/1999/02/22-rdf-syntax-ns#"
     xmlns:svg="http://www.w3.org/2000/svg"
     xmlns="http://www.w3.org/2000/svg"
     xmlns:sodipodi="http://sodipodi.sourceforge.net/DTD/sodipodi-0.dtd"
     xmlns:inkscape="http://www.inkscape.org/namespaces/inkscape"
     version="1.1"
     id="Calque_1"
     inkscape:version="0.92.2 5c3e80d, 2017-08-06"
     sodipodi:docname="opticks.svg"
     x="0px"
     y="0px"
     width="496.92px"
     height="497.312px"
     viewBox="0 0 496.92 497.312"
     enable-background="new 0 0 496.92 497.312"
     xml:space="preserve"><title
         id="title12">osgeo-opticks</title><metadata
         id="metadata10"><rdf:RDF><cc:Work
                 rdf:about=""><dc:format>image/svg+xml</dc:format><dc:type
                     rdf:resource="http://purl.org/dc/dcmitype/StillImage" /><dc:title>osgeo-opticks</dc:title><dc:date>08-21-2018</dc:date><dc:creator><cc:Agent><dc:title>Nicolas Bozon</dc:title></cc:Agent></dc:creator><dc:rights><cc:Agent><dc:title>copyright OSGeo</dc:title></cc:Agent></dc:rights><dc:publisher><cc:Agent><dc:title>OSGeo</dc:title></cc:Agent></dc:publisher><dc:identifier>osgeo-opticks</dc:identifier><dc:description>OSGeo Opticks</dc:description><dc:contributor><cc:Agent><dc:title>OSGeo Marketing Committee</dc:title></cc:Agent></dc:contributor><cc:license
                     rdf:resource="http://creativecommons.org/licenses/by-sa/4.0/" /></cc:Work><cc:License
                 rdf:about="http://creativecommons.org/licenses/by-sa/4.0/"><cc:permits
                     rdf:resource="http://creativecommons.org/ns#Reproduction" /><cc:permits
                     rdf:resource="http://creativecommons.org/ns#Distribution" /><cc:requires
                     rdf:resource="http://creativecommons.org/ns#Notice" /><cc:requires
                     rdf:resource="http://creativecommons.org/ns#Attribution" /><cc:permits
                     rdf:resource="http://creativecommons.org/ns#DerivativeWorks" /><cc:requires
                     rdf:resource="http://creativecommons.org/ns#ShareAlike" /></cc:License></rdf:RDF></metadata><defs
         id="defs8" /><sodipodi:namedview
         inkscape:cy="248.65601"
         inkscape:cx="248.46001"
         inkscape:zoom="0.47455118"
         showgrid="false"
         id="namedview7"
         guidetolerance="10"
         gridtolerance="10"
         objecttolerance="10"
         borderopacity="1"
         bordercolor="#666666"
         pagecolor="#ffffff"
         inkscape:current-layer="layer1"
         inkscape:window-maximized="0"
         inkscape:window-y="0"
         inkscape:window-height="480"
         inkscape:window-width="640"
         inkscape:pageshadow="2"
         inkscape:pageopacity="0"
         inkscape:window-x="0" /><g
         id="layer1"
         inkscape:label="Layer 1"
         inkscape:groupmode="layer"><path
             id="path2191"
             d="M364.009,211.65l-0.115,78.153h0.742v142.893c55.465-34.791,94.07-93.955,100.818-162.473L364.009,211.65z    M134.286,64.706C78.969,99.442,40.412,158.438,33.527,226.72l101.445,58.571l0.058-83.519h-0.743L134.286,64.706L134.286,64.706z" /><path
             id="path11171"
             d="M32.555,256.349c2.406,69.395,37.41,130.495,90.199,168.523l101.445-58.572l-73.814-42.645l-0.285,0.513   L32.555,256.349z M376.511,72.698L275.064,131.27l66.566,38.478l0.514-0.857l124.221,71.703   C463.82,171.535,428.988,110.667,376.511,72.698z" /><path
             id="path2193"
             d="M249.49,31.594c-31.721,0-61.884,6.82-89.058,19.068v117.202l63.539-36.65l-0.285-0.457l127.762-73.758   C321.049,40.779,286.333,31.594,249.49,31.594z M338.491,329.48l-70.391,40.589l0.457,0.743l-120.684,69.702   c30.327,16.103,64.909,25.234,101.617,25.234c31.705,0,61.847-6.78,89.001-19.011V329.48z" /></g></svg>
