<?xml version="1.0" encoding="utf-8"?>
<!DOCTYPE svg PUBLIC "-//W3C//DTD SVG 1.1//EN" "http://www.w3.org/Graphics/SVG/1.1/DTD/svg11.dtd">
<svg version="1.1"
	 id="svg2" xmlns:dc="http://purl.org/dc/elements/1.1/" xmlns:cc="http://creativecommons.org/ns#" xmlns:rdf="http://www.w3.org/1999/02/22-rdf-syntax-ns#" xmlns:svg="http://www.w3.org/2000/svg" xmlns:sodipodi="http://sodipodi.sourceforge.net/DTD/sodipodi-0.dtd" xmlns:inkscape="http://www.inkscape.org/namespaces/inkscape" sodipodi:docname="drawing5.svg" inkscape:version="0.48.4 r9939"
	 xmlns="http://www.w3.org/2000/svg" xmlns:xlink="http://www.w3.org/1999/xlink" x="0px" y="0px" width="738.498px"
	 height="712.609px" viewBox="0 0 738.498 712.609" enable-background="new 0 0 738.498 712.609" xml:space="preserve">
<defs>
	
	
		<inkscape:perspective  id="perspective4078" inkscape:vp_z="744.09448 : 526.18109 : 1" inkscape:vp_y="0 : 1000 : 0" inkscape:vp_x="0 : 526.18109 : 1" sodipodi:type="inkscape:persp3d" inkscape:persp3d-origin="372.04724 : 350.78739 : 1">
		</inkscape:perspective>
</defs>
<sodipodi:namedview  inkscape:zoom="1.1009789" borderopacity="1.0" bordercolor="#666666" pagecolor="#ffffff" id="base" fit-margin-left="0" fit-margin-top="0" showgrid="false" inkscape:cy="267.95615" inkscape:cx="345.59988" fit-margin-bottom="0" fit-margin-right="0" inkscape:window-maximized="1" inkscape:window-y="-3" inkscape:window-x="-3" inkscape:window-height="853" inkscape:window-width="1600" inkscape:current-layer="layer1" inkscape:document-units="px" inkscape:pageshadow="2" inkscape:pageopacity="0">
	</sodipodi:namedview>
<g>
	<path fill="none" d="M394.386,319.846c-6.201,3.959-16.156,10.583-21.074,18.22c19.665-17.383,1.254,41.444,14.74,48.694
		c10.918-3.176,26.769-27.424,49.259-24.487c4.695,0.613,9.992,2.464,15.868,4.834C425.08,354.319,387.241,329.539,394.386,319.846z
		"/>
	<path fill="none" d="M391.381,150.334c11.378-14.056,10.829-19.342,22.733-24.685c4.464-1.265,9.814-2.111,18.087-2.91
		c3.895-0.049,10.564-0.282,11.024-2.994l0.582-3.431c0,0-0.339-3.421-2.097-3.77c-3.301-0.655-6.736-0.973-10.065-1.006
		c-4.633-0.046-10.986,1.012-15.384,2.698c-13.19,2.202-17.391,12.099-19.957,15.992
		C394.38,131.257,387.099,152.182,391.381,150.334z"/>
	<path fill="none" d="M674.413,503.638c0.236-30.373-156.856-32.914-202.016-11.306c-1.372,6.947-6.103,11.029-11.986,13.415
		C462.517,539.924,674.137,538.972,674.413,503.638z M613.129,488.309l-21.101,18.529l-20.066-12.378L613.129,488.309z
		 M566.263,495.593l22.952,13.135l-72.174,13.172L566.263,495.593z"/>
	<path fill="none" d="M451.862,257.313c-2.29-2.07,1.328-61.676-4.839-69.503c-15.811-31.721-46.509-30.642-58.785,4.182
		c-2.923,8.291-5.83,14.696-2.308,65.02c-7.279,2.297-26.52,13.446-23.416,17.283c3.104,3.837,23.017-6.533,28.399-8.96
		c13.177-5.248,45.97-2.79,60.122,2.069c8.169,3.644,15.019,10.995,19.876,10.235C475.768,276.88,454.151,259.383,451.862,257.313z
		 M446.022,251.953c-0.041,1.747-9.801,1.998-20.638,2.038c-5.351,0.753-14.557,0.268-17.876,0.289
		c-0.4,0.002-0.78-0.056-1.143-0.163c-0.76-0.223-1.435-0.676-2.034-1.305c-3.404-3.571-4.325-12.875-3.896-18.774
		c0.568-7.828,0.469-16.574,1.822-23.02c0.822-5.799,2.347-11.43,5.896-15.823c17.229-20.284,33.902-4.64,37.833,16.901
		C447.66,218.65,446.276,241.137,446.022,251.953z"/>
	<path d="M408.154,195.194c-3.55,4.393-5.074,10.024-5.896,15.823c-1.354,6.446-1.254,15.192-1.822,23.02
		c-0.429,5.9,0.492,15.203,3.896,18.774c0.6,0.629,1.274,1.082,2.034,1.305c0.362,0.106,0.742,0.165,1.143,0.163
		c3.319-0.021,12.525,0.464,17.876-0.289c10.837-0.04,20.597-0.291,20.638-2.038c0.254-10.815,1.638-33.303-0.035-39.857
		C442.056,190.554,425.384,174.91,408.154,195.194z"/>
	<path d="M725.581,263.349c-15.331,2.981-17.488,1.326-33.023,2.946c-18.27,1.905-46.186,36.242-55.451,39.303
		c-12.205,4.033-42.421,3.719-50.964-5.887c-12.372-13.91-19.549-34.22-21.712-52.71c-2.148-18.369,3.871-36.829,4.256-55.319
		c0.587-28.269-6.117-46.15-18.696-73.868C523.052,58.46,432.71,12.003,362.562,14.256C297.973,3.148,243.459,53.516,231.385,80.784
		c5.862,6.919,3.585-3.085,5.975,8.777c-36.106,50.893-74.791,59.302-130.807,78.669c-18.188,5.985-98.568,7.241-106.823,36.546
		c-2.453,88.254,104.435,188.42,197.914,191.858c-9.771,10.123-17.035,22.185-24.137,31.885
		c-13.297,18.161-35.874,75.605-31.546,135.311c-13.646-4.614-81.587-39.673-87.356,7.558
		c-4.003,32.777,15.661,32.775,31.323,48.351c-1.573,2.396-2.676,5.64-4.601,9.649c-3.803,7.922,15.109,29.761,26.81,29.402
		c16.161-0.495,8.17-6.224,10.68-23.607c1.107-7.671-9.578-20.271-21.284-20.271c-6.232,0-9.159,1.473-11.205,4.251
		c-8.991-13.553-24.144-41.534-5.183-50.578c23.815-11.357,57.684,28.276,77.986,45.127c40.771,33.855,89.215,86.782,136.857,93.857
		c0.021-0.328,0.05-0.659,0.081-0.991c-21.705-18.697-34.094-53.625-30.972-91.666c0.082,0.041,0.165,0.075,0.249,0.106
		c0.077,0.029,0.149,0.076,0.228,0.098c7.232,1.998,11.725-0.154,15.431-14.619c1.228-4.793,0.458-31.784-6.059-35.519
		c0.902-2.462,1.858-4.818,2.872-7.057c6.37,0.417,13.523-1.936,17.792-12.701c1.231-3.105,1.508-7.73,0.534-11.769
		c0.874-0.673,1.767-1.307,2.676-1.91c4.501,13.821-0.77,29.985-16.512,28.175c-7.491-0.862,2.656,13.533,4.124,29.304
		c0.646,6.932-5.445,27.984-14.203,32.245c-9.51,4.627,16.768,87.65,60.869,85.412c45.742-3.752,62.942-59.139,59.415-100.451
		c-2.656-33.832-26.823-77.404-57.35-74.519c-13.309,8.964-26.816,3.854-34.287-1.467c1.131-0.668,2.295-1.273,3.479-1.841
		c0.568,0.107,1.148,0.204,1.737,0.287c6.017,0.848,12.951,0.181,17.289-6.787c0.894,0.3,1.783,0.592,2.666,0.866
		c-0.192,0.106-0.727,0.397-1.489,0.812c2.01-0.084,4.064-0.086,6.173,0.018c31.483,1.552,58.235,22.582,68.899,58.95l0.209,0.765
		c2.816,9.868,4.471,20.837,4.71,32.853c-0.057,8.189-0.629,16.069-1.695,23.564c-2.387,20.597-8.394,38.49-17.574,52.191
		c79.431,0.306,111.951-40.631,139.332-51.568c-0.567-11.734,0.124-25.119,1.648-39.652c0.766-7.296,1.787-14.082,3.059-20.378
		c2.831,0.128,5.692,0.233,8.576,0.318c-5.232,38.672-6.096,98.928,19.789,98.928c36.772,0,61.314-38.089,61.647-87.672
		c-0.095-4.89-0.265-9.677-0.52-14.321c4.155-0.465,8.207-0.979,12.132-1.539c29.332-4.196,51.505-11.073,55.75-20.504h1.225
		v-63.214h-1.401c0.509-1.237,0.777-2.519,0.773-3.846c-0.033-11.639-20.601-19.174-49.718-23.143
		c2.686-1.952,5.01-4.785,6.61-8.823c2.591-6.534,2.046-13.925-5.671-16.057s-24.302-2.173-26.434,5.544
		c-0.945,3.421-1.984,7.69-2.178,11.57c-0.093,1.868,0.009,3.646,0.414,5.196c-1.527-0.09-3.065-0.171-4.612-0.246
		c-0.069-6.651-4.18-11.764-10.572-15.515c1.182-0.45,2.347-0.997,3.463-1.652c4.408-2.585,8.041-6.891,8.804-13.928
		c0.709-6.55-1.628-13.092-9.132-13.092c-4.915,0-13.044,1.761-18.067,5.084c-30.992-6.518-74.845-30.704-95.733-22.576
		c-4.873,1.896-9.679,3.654-14.425,5.288c18.537-8.42,42.945-21.662,30.102-23.479c-13.643-1.931-25.861-6.722-36.559-11.196
		c1.225,0.457,2.413,0.88,3.547,1.257c4.255,2.128,66.479,13.203,98.768,14.03c43.065,0.495,85.073-14.146,114.438-47.329
		c37.683-28.512,45.065,2.653,39.443-42.918C739.729,287.109,737.837,260.967,725.581,263.349z M396.304,130.229
		c2.566-3.894,6.767-13.79,19.957-15.992c4.397-1.687,10.751-2.744,15.384-2.698c3.329,0.033,6.765,0.351,10.065,1.006
		c1.758,0.349,2.097,3.77,2.097,3.77l-0.582,3.431c-0.46,2.712-7.13,2.945-11.024,2.994c-8.272,0.799-13.623,1.646-18.087,2.91
		c-11.904,5.343-11.355,10.629-22.733,24.685C387.099,152.182,394.38,131.257,396.304,130.229z M437.311,362.273
		c-22.49-2.937-38.341,21.312-49.259,24.487c-13.486-7.25,4.925-66.077-14.74-48.694c4.918-7.637,14.873-14.261,21.074-18.22
		c-7.146,9.692,30.693,34.473,58.793,47.261C447.303,364.737,442.007,362.886,437.311,362.273z M472.397,492.333
		c45.159-21.608,202.252-19.067,202.016,11.306c-0.275,35.334-211.896,36.285-214.002,2.109
		C466.295,503.362,471.025,499.28,472.397,492.333z M470.912,277.639c-4.857,0.76-11.707-6.592-19.876-10.235
		c-14.152-4.859-46.945-7.317-60.122-2.069c-5.383,2.427-25.295,12.797-28.399,8.96c-3.104-3.837,16.137-14.986,23.416-17.283
		c-3.522-50.323-0.615-56.729,2.308-65.02c12.276-34.823,42.975-35.902,58.785-4.182c6.167,7.827,2.549,67.433,4.839,69.503
		C454.151,259.383,475.768,276.88,470.912,277.639z"/>
	<polygon points="566.263,495.593 517.042,521.899 589.216,508.727 	"/>
	<polygon points="613.129,488.309 571.962,494.461 592.028,506.839 	"/>
</g>
</svg>
