<?xml version="1.0" encoding="UTF-8" standalone="no"?>
<svg
     xmlns:dc="http://purl.org/dc/elements/1.1/"
     xmlns:cc="http://creativecommons.org/ns#"
     xmlns:rdf="http://www.w3.org/1999/02/22-rdf-syntax-ns#"
     xmlns:svg="http://www.w3.org/2000/svg"
     xmlns="http://www.w3.org/2000/svg"
     xmlns:sodipodi="http://sodipodi.sourceforge.net/DTD/sodipodi-0.dtd"
     xmlns:inkscape="http://www.inkscape.org/namespaces/inkscape"
     version="1.1"
     id="Calque_1"
     x="0px"
     y="0px"
     width="595.279px"
     height="595.281px"
     viewBox="0 0 595.279 595.281"
     enable-background="new 0 0 595.279 595.281"
     xml:space="preserve"
     sodipodi:docname="pgrouting.svg"
     inkscape:version="0.92.2 5c3e80d, 2017-08-06"><title
         id="title27">osgeo-pg-routing</title><metadata
         id="metadata25"><rdf:RDF><cc:Work
                 rdf:about=""><dc:format>image/svg+xml</dc:format><dc:type
                     rdf:resource="http://purl.org/dc/dcmitype/StillImage" /><dc:title>osgeo-pg-routing</dc:title><dc:date>08-21-2018</dc:date><dc:creator><cc:Agent><dc:title>Nicolas Bozon</dc:title></cc:Agent></dc:creator><dc:rights><cc:Agent><dc:title>copyright OSGeo</dc:title></cc:Agent></dc:rights><dc:publisher><cc:Agent><dc:title>OSGeo</dc:title></cc:Agent></dc:publisher><dc:identifier>osgeo-pgrouting</dc:identifier><dc:description>OSGeo PgRouting</dc:description><dc:contributor><cc:Agent><dc:title>OSGeo Marketing Commitee</dc:title></cc:Agent></dc:contributor><cc:license
                     rdf:resource="http://creativecommons.org/licenses/by-sa/4.0/" /></cc:Work><cc:License
                 rdf:about="http://creativecommons.org/licenses/by-sa/4.0/"><cc:permits
                     rdf:resource="http://creativecommons.org/ns#Reproduction" /><cc:permits
                     rdf:resource="http://creativecommons.org/ns#Distribution" /><cc:requires
                     rdf:resource="http://creativecommons.org/ns#Notice" /><cc:requires
                     rdf:resource="http://creativecommons.org/ns#Attribution" /><cc:permits
                     rdf:resource="http://creativecommons.org/ns#DerivativeWorks" /><cc:requires
                     rdf:resource="http://creativecommons.org/ns#ShareAlike" /></cc:License></rdf:RDF></metadata><defs
         id="defs23" /><sodipodi:namedview
         pagecolor="#ffffff"
         bordercolor="#666666"
         borderopacity="1"
         objecttolerance="10"
         gridtolerance="10"
         guidetolerance="10"
         inkscape:pageopacity="0"
         inkscape:pageshadow="2"
         inkscape:window-width="640"
         inkscape:window-height="480"
         id="namedview21"
         showgrid="false"
         inkscape:zoom="0.39645142"
         inkscape:cx="297.6395"
         inkscape:cy="297.6405"
         inkscape:window-x="0"
         inkscape:window-y="0"
         inkscape:window-maximized="0"
         inkscape:current-layer="Calque_1" /><g
         id="g12"><path
             fill="none"
             d="M452.735,310.582c-1.074,0.062-2.147,0.144-3.223,0.228c-1.074,0.084-2.148,0.173-3.223,0.25   c-1.075,0.077-2.148,0.142-3.221,0.181c-1.073,0.039-2.146,0.05-3.216,0.021c-2.342-0.065-4.617-0.31-6.841-0.709   c-2.222-0.401-4.39-0.96-6.512-1.657c-2.122-0.696-4.199-1.532-6.24-2.485c-2.04-0.953-4.043-2.024-6.021-3.194   c-2.601-1.54-5.048-3.222-7.37-5.016s-4.518-3.702-6.619-5.696c-2.101-1.995-4.104-4.078-6.042-6.224   c-1.938-2.144-3.808-4.35-5.64-6.59c-0.425-0.519-0.794-1.092-1.117-1.699c-0.324-0.607-0.602-1.251-0.842-1.913   c-0.241-0.662-0.445-1.341-0.623-2.021c-0.177-0.679-0.326-1.36-0.458-2.024c-0.448-2.249-0.858-4.505-1.253-6.763   c-0.395-2.259-0.774-4.521-1.157-6.781s-0.773-4.52-1.189-6.773s-0.858-4.503-1.35-6.743c-0.499-2.281-1.031-4.557-1.588-6.827   c-0.555-2.27-1.135-4.537-1.732-6.799c-0.597-2.262-1.208-4.522-1.829-6.779c-0.618-2.257-1.247-4.512-1.875-6.766   c-0.93-3.338-1.944-6.648-3.038-9.935c-1.095-3.285-2.266-6.545-3.505-9.784c-1.237-3.237-2.546-6.454-3.911-9.651   c-1.366-3.198-2.789-6.376-4.264-9.539c-1.174-2.522-2.415-5.012-3.729-7.459c-1.317-2.448-2.708-4.853-4.188-7.205   c-1.479-2.354-3.046-4.653-4.712-6.891c-1.666-2.238-3.432-4.413-5.307-6.517c-1.133-1.27-2.332-2.499-3.584-3.688   c-1.25-1.189-2.555-2.339-3.896-3.451s-2.723-2.188-4.128-3.228c-1.404-1.039-2.834-2.044-4.273-3.015   c-0.638-0.429-1.374-0.763-2.176-1.023c-0.802-0.259-1.667-0.442-2.559-0.571s-1.811-0.202-2.72-0.239   c-0.908-0.037-1.807-0.038-2.658-0.022c-2.547,0.051-5.094,0.117-7.64,0.202c-2.547,0.085-5.092,0.188-7.636,0.31   s-5.087,0.259-7.63,0.416s-5.084,0.331-7.624,0.522c-1.123,0.085-2.164,0.041-3.146-0.109c-0.981-0.151-1.903-0.409-2.786-0.752   c-0.884-0.344-1.728-0.771-2.555-1.259c-0.825-0.488-1.635-1.039-2.446-1.629c-2.73-1.98-5.465-3.959-8.2-5.933   c-2.736-1.975-5.475-3.946-8.214-5.916c-2.74-1.97-5.48-3.939-8.222-5.908c-2.74-1.969-5.481-3.937-8.221-5.908h-0.396h-0.396   H239.4h-0.396c-0.236,0.25-0.469,0.504-0.7,0.759c-0.23,0.254-0.462,0.509-0.694,0.762c-0.232,0.252-0.469,0.504-0.707,0.75   c-0.239,0.246-0.484,0.489-0.736,0.724c-9.382,8.763-18.767,17.523-28.152,26.283s-18.771,17.519-28.156,26.28   c-9.386,8.761-18.77,17.522-28.15,26.287c-1.977,1.847-3.953,3.696-5.929,5.543c4.853-0.714,9.814-1.089,14.862-1.089   c53.448,0,97.413,41.455,101.424,93.895c0.21,0.016,0.422,0.023,0.631,0.046c1.703,0.19,3.371,0.633,4.994,1.278   c1.623,0.645,3.199,1.492,4.722,2.488c1.62,1.062,3.181,2.2,4.708,3.386c1.526,1.185,3.019,2.415,4.503,3.656   c1.484,1.242,2.96,2.498,4.452,3.732s3.002,2.449,4.554,3.61c0.463,0.346,0.979,0.662,1.528,0.943   c0.549,0.281,1.134,0.529,1.734,0.739c0.602,0.21,1.22,0.382,1.835,0.513c0.616,0.132,1.231,0.22,1.827,0.264   c1.354,0.098,2.722,0.103,4.086,0.108c1.365,0.005,2.729,0.012,4.071,0.112c1.344,0.101,2.667,0.296,3.953,0.68   c1.286,0.385,2.536,0.956,3.73,1.811c1.523,1.091,2.923,2.274,4.212,3.536c1.29,1.262,2.471,2.601,3.563,4.002   c1.091,1.4,2.096,2.864,3.029,4.377c0.933,1.511,1.796,3.069,2.608,4.661c1.354,2.651,2.509,5.356,3.52,8.103   c1.011,2.745,1.877,5.529,2.657,8.338c0.78,2.81,1.473,5.641,2.134,8.479s1.292,5.685,1.949,8.523   c0.157,0.678,0.279,1.363,0.377,2.055c0.098,0.689,0.17,1.386,0.229,2.085c0.06,0.698,0.104,1.399,0.143,2.101   s0.073,1.401,0.11,2.098c0.083,1.495,0.176,2.99,0.266,4.486c0.09,1.495,0.177,2.99,0.255,4.486s0.142,2.992,0.186,4.487   c0.045,1.496,0.066,2.991,0.057,4.486c-0.016,2.484-0.017,4.973-0.023,7.461s-0.022,4.979-0.067,7.466   c-0.046,2.486-0.12,4.973-0.247,7.452c-0.127,2.48-0.307,4.955-0.56,7.424c-0.276,2.693-0.621,5.383-1.015,8.068   s-0.834,5.366-1.304,8.042c-0.471,2.676-0.967,5.352-1.471,8.024c-0.504,2.674-1.014,5.345-1.511,8.016   c-0.264,1.418-0.532,2.84-0.814,4.261c-0.283,1.422-0.584,2.841-0.912,4.251c-0.329,1.411-0.688,2.814-1.087,4.204   c-0.401,1.391-0.844,2.766-1.34,4.121c-0.639,1.741-1.31,3.477-2.013,5.201c-0.704,1.725-1.438,3.44-2.206,5.142   c-0.767,1.703-1.565,3.393-2.396,5.067c-0.83,1.674-1.691,3.333-2.584,4.974c-0.734,1.351-1.705,2.392-2.829,3.229   c-1.125,0.838-2.403,1.473-3.755,2.011c-1.352,0.537-2.776,0.979-4.193,1.429c-1.416,0.451-2.825,0.911-4.144,1.487   c-0.893,0.392-1.785,0.792-2.671,1.211c-0.886,0.418-1.764,0.853-2.628,1.308c-0.865,0.454-1.716,0.93-2.546,1.429   s-1.64,1.021-2.423,1.575c-0.629,0.442-1.073,1.062-1.356,1.796c-0.282,0.733-0.402,1.58-0.384,2.476   c0.02,0.896,0.179,1.843,0.456,2.777c0.277,0.934,0.672,1.855,1.162,2.703c0.658,1.137,1.442,2.091,2.321,2.902   c0.878,0.813,1.854,1.486,2.896,2.062c1.043,0.575,2.154,1.055,3.303,1.482c1.148,0.429,2.338,0.804,3.535,1.173   c0.108,0.032,0.212,0.078,0.313,0.133c0.102,0.054,0.2,0.116,0.297,0.181c0.097,0.065,0.193,0.134,0.29,0.201   c0.096,0.067,0.193,0.132,0.293,0.192h3.167h3.167h3.166h3.167c2.737-0.97,5.233-2.177,7.528-3.583   c2.294-1.407,4.385-3.018,6.314-4.79c1.93-1.773,3.697-3.712,5.342-5.779c1.644-2.067,3.167-4.261,4.605-6.547   c1.812-2.878,3.462-5.816,4.98-8.804c1.518-2.988,2.904-6.024,4.188-9.098c1.284-3.072,2.468-6.181,3.579-9.315   c1.11-3.136,2.15-6.293,3.147-9.467c0.695-2.214,1.339-4.44,1.947-6.677c0.609-2.236,1.185-4.481,1.745-6.731   c0.56-2.25,1.104-4.505,1.653-6.758s1.1-4.505,1.674-6.752c0.38-1.486,0.771-2.972,1.165-4.456c0.393-1.484,0.787-2.97,1.17-4.457   c0.383-1.486,0.756-2.976,1.109-4.468c0.351-1.492,0.682-2.986,0.979-4.489c0.354-1.778,0.676-3.562,0.979-5.35   c0.302-1.787,0.587-3.577,0.862-5.369c0.276-1.792,0.545-3.586,0.816-5.378c0.272-1.793,0.548-3.585,0.838-5.375   c0.228-1.401,0.462-2.802,0.698-4.201c0.236-1.4,0.475-2.8,0.712-4.2c0.237-1.399,0.472-2.8,0.702-4.201   c0.229-1.399,0.453-2.803,0.667-4.204c0.245-1.616,0.48-3.231,0.713-4.85s0.457-3.234,0.682-4.853   c0.226-1.618,0.449-3.234,0.676-4.853c0.226-1.618,0.457-3.234,0.693-4.85c0.225-1.525,0.45-3.051,0.679-4.575   c0.227-1.525,0.457-3.05,0.689-4.574c0.232-1.523,0.469-3.048,0.709-4.57s0.484-3.046,0.734-4.566   c0.21-1.279,0.433-2.557,0.662-3.834c0.228-1.277,0.463-2.553,0.696-3.829c0.234-1.276,0.468-2.552,0.693-3.829   s0.444-2.556,0.647-3.836c0.229-1.435,0.569-2.75,1.059-3.906c0.489-1.154,1.129-2.151,1.958-2.95c0.828-0.8,1.846-1.4,3.092-1.768   s2.719-0.497,4.46-0.353c2.169,0.18,4.337,0.378,6.504,0.58c2.168,0.201,4.335,0.407,6.503,0.602s4.336,0.377,6.506,0.534   c2.171,0.157,4.343,0.288,6.516,0.379c2.326,0.097,4.668,0.218,6.998,0.253c2.329,0.035,4.647-0.017,6.928-0.267   c2.279-0.25,4.52-0.698,6.694-1.458c2.174-0.761,4.281-1.83,6.297-3.324c0.334-0.247,0.66-0.504,0.979-0.769   c0.32-0.264,0.635-0.533,0.946-0.806c0.312-0.272,0.622-0.548,0.933-0.821s0.623-0.547,0.938-0.815l0.009,0.003   c0-0.123,0-0.246,0-0.37c0-0.123,0-0.246,0-0.369c-0.001-0.123-0.001-0.247-0.001-0.37   C452.736,310.828,452.736,310.705,452.735,310.582z M352.858,252.001c-0.727,1.603-1.81,3.102-3.121,4.38   c-1.311,1.279-2.849,2.34-4.487,3.064c-1.637,0.726-3.372,1.116-5.081,1.056c-1.658-0.058-3.38-0.456-5.013-1.141   c-1.632-0.685-3.178-1.655-4.484-2.857c-1.308-1.202-2.379-2.637-3.062-4.249c-0.684-1.611-0.98-3.401-0.744-5.316   c-0.309-1.533-0.066-3.129,0.575-4.658s1.682-2.991,2.971-4.256c1.289-1.266,2.826-2.334,4.458-3.076   c1.634-0.743,3.362-1.158,5.035-1.118c2.016,0.048,3.86,0.41,5.503,1.049c1.645,0.64,3.086,1.554,4.292,2.703   c1.206,1.15,2.176,2.537,2.878,4.12s1.136,3.362,1.266,5.299C353.957,248.693,353.587,250.399,352.858,252.001z"
             id="path2" /><g
             id="g8"><path
                 d="M349.699,237.581c-1.206-1.149-2.647-2.063-4.292-2.703c-1.643-0.639-3.487-1.001-5.503-1.049    c-1.673-0.04-3.401,0.375-5.035,1.118c-1.632,0.742-3.169,1.811-4.458,3.076c-1.289,1.265-2.329,2.727-2.971,4.256    s-0.884,3.125-0.575,4.658c-0.236,1.915,0.061,3.705,0.744,5.316c0.684,1.612,1.755,3.047,3.062,4.249    c1.307,1.202,2.853,2.173,4.484,2.857c1.633,0.685,3.354,1.083,5.013,1.141c1.709,0.061,3.444-0.33,5.081-1.056    c1.639-0.725,3.177-1.785,4.487-3.064c1.312-1.278,2.395-2.777,3.121-4.38c0.729-1.602,1.099-3.308,0.984-5.001    c-0.13-1.937-0.563-3.716-1.266-5.299S350.905,238.731,349.699,237.581z"
                 id="path4" /><path
                 d="M586.719,284.486c-2.043-5.042-5.109-9.766-9.198-13.854l-62.882-62.88l-62.881-62.88l-62.881-62.88l-62.882-62.88    c-4.088-4.088-8.811-7.154-13.851-9.198s-10.397-3.065-15.756-3.065s-10.717,1.021-15.758,3.065s-9.764,5.11-13.853,9.198    l-62.88,62.88l-62.88,62.88l-62.882,62.88l-62.88,62.88c-4.088,4.089-7.153,8.812-9.197,13.853    c-2.044,5.04-3.066,10.397-3.066,15.757s1.022,10.716,3.066,15.757s5.109,9.765,9.197,13.854l62.88,62.88l62.882,62.881    l62.881,62.881l62.881,62.881c4.088,4.089,8.812,7.154,13.852,9.197c5.041,2.045,10.399,3.066,15.758,3.066    c5.357,0,10.717-1.021,15.757-3.066c5.041-2.043,9.764-5.108,13.852-9.197l62.881-62.881l62.882-62.881l62.881-62.881    l62.881-62.88c4.088-4.089,7.153-8.812,9.198-13.854c2.043-5.041,3.064-10.397,3.064-15.757    C589.785,294.884,588.764,289.526,586.719,284.486z M208.195,370.199c-13.668,8.989-30.011,14.229-47.555,14.229    c-14.006,0-27.246-3.34-38.971-9.259c-28.335-14.303-47.816-43.685-47.816-77.528c0-33.317,18.879-62.308,46.498-76.848    c12.048-6.343,25.756-9.94,40.29-9.94c46.996,0,85.391,37.56,86.747,84.234c0.025,0.849,0.041,1.699,0.041,2.554    C247.427,327.946,231.804,354.671,208.195,370.199z M452.737,311.691c0,0.124,0,0.247,0,0.37l-0.009-0.003    c-0.315,0.269-0.628,0.542-0.938,0.815s-0.62,0.549-0.933,0.821c-0.312,0.272-0.626,0.542-0.946,0.806    c-0.318,0.265-0.645,0.521-0.979,0.769c-2.016,1.494-4.123,2.563-6.297,3.324c-2.175,0.76-4.415,1.208-6.694,1.458    c-2.28,0.25-4.599,0.302-6.928,0.267c-2.33-0.035-4.672-0.156-6.998-0.253c-2.173-0.091-4.345-0.222-6.516-0.379    c-2.17-0.157-4.338-0.34-6.506-0.534s-4.335-0.4-6.503-0.602c-2.167-0.202-4.335-0.4-6.504-0.58    c-1.741-0.145-3.214-0.015-4.46,0.353s-2.264,0.968-3.092,1.768c-0.829,0.799-1.469,1.796-1.958,2.95    c-0.489,1.156-0.829,2.472-1.059,3.906c-0.203,1.28-0.422,2.559-0.647,3.836s-0.459,2.553-0.693,3.829    c-0.233,1.276-0.469,2.552-0.696,3.829c-0.229,1.277-0.452,2.555-0.662,3.834c-0.25,1.521-0.494,3.044-0.734,4.566    s-0.477,3.047-0.709,4.57c-0.232,1.524-0.463,3.049-0.689,4.574c-0.229,1.524-0.454,3.05-0.679,4.575    c-0.236,1.615-0.468,3.231-0.693,4.85c-0.227,1.618-0.45,3.234-0.676,4.853c-0.225,1.618-0.449,3.234-0.682,4.853    s-0.468,3.233-0.713,4.85c-0.214,1.401-0.438,2.805-0.667,4.204c-0.23,1.401-0.465,2.802-0.702,4.201    c-0.237,1.4-0.476,2.8-0.712,4.2c-0.236,1.399-0.471,2.8-0.698,4.201c-0.29,1.79-0.565,3.582-0.838,5.375    c-0.271,1.792-0.54,3.586-0.816,5.378c-0.275,1.792-0.561,3.582-0.862,5.369c-0.303,1.787-0.625,3.571-0.979,5.35    c-0.297,1.503-0.628,2.997-0.979,4.489c-0.354,1.492-0.727,2.981-1.109,4.468c-0.383,1.487-0.777,2.973-1.17,4.457    c-0.394,1.484-0.785,2.97-1.165,4.456c-0.574,2.247-1.125,4.499-1.674,6.752s-1.094,4.508-1.653,6.758    c-0.561,2.25-1.136,4.495-1.745,6.731c-0.608,2.236-1.252,4.463-1.947,6.677c-0.997,3.174-2.037,6.331-3.147,9.467    c-1.111,3.135-2.295,6.243-3.579,9.315c-1.284,3.073-2.671,6.109-4.188,9.098c-1.519,2.987-3.169,5.926-4.98,8.804    c-1.438,2.286-2.962,4.479-4.605,6.547c-1.645,2.067-3.412,4.006-5.342,5.779c-1.93,1.772-4.021,3.383-6.314,4.79    c-2.295,1.406-4.791,2.613-7.528,3.583h-3.167h-3.166h-3.167h-3.167c-0.1-0.061-0.197-0.125-0.293-0.192    c-0.097-0.067-0.193-0.136-0.29-0.201c-0.097-0.064-0.195-0.127-0.297-0.181c-0.102-0.055-0.205-0.101-0.313-0.133    c-1.197-0.369-2.387-0.744-3.535-1.173c-1.148-0.428-2.26-0.907-3.303-1.482c-1.042-0.575-2.018-1.248-2.896-2.062    c-0.879-0.812-1.663-1.766-2.321-2.902c-0.49-0.848-0.885-1.77-1.162-2.703c-0.277-0.935-0.437-1.881-0.456-2.777    c-0.019-0.896,0.102-1.742,0.384-2.476c0.283-0.734,0.728-1.354,1.356-1.796c0.783-0.554,1.593-1.076,2.423-1.575    s1.681-0.975,2.546-1.429c0.864-0.455,1.742-0.89,2.628-1.308c0.886-0.419,1.778-0.819,2.671-1.211    c1.318-0.576,2.728-1.036,4.144-1.487c1.417-0.449,2.842-0.892,4.193-1.429c1.352-0.538,2.63-1.173,3.755-2.011    c1.124-0.838,2.095-1.879,2.829-3.229c0.893-1.641,1.754-3.3,2.584-4.974c0.83-1.675,1.629-3.364,2.396-5.067    c0.769-1.701,1.502-3.417,2.206-5.142c0.703-1.725,1.374-3.46,2.013-5.201c0.496-1.355,0.938-2.73,1.34-4.121    c0.398-1.39,0.758-2.793,1.087-4.204c0.328-1.41,0.629-2.829,0.912-4.251c0.282-1.421,0.551-2.843,0.814-4.261    c0.497-2.671,1.007-5.342,1.511-8.016c0.504-2.673,1-5.349,1.471-8.024c0.47-2.676,0.91-5.356,1.304-8.042    s0.738-5.375,1.015-8.068c0.253-2.469,0.433-4.943,0.56-7.424c0.127-2.479,0.201-4.966,0.247-7.452    c0.045-2.486,0.061-4.978,0.067-7.466s0.008-4.977,0.023-7.461c0.01-1.495-0.012-2.99-0.057-4.486    c-0.044-1.495-0.107-2.991-0.186-4.487s-0.165-2.991-0.255-4.486c-0.09-1.496-0.183-2.991-0.266-4.486    c-0.037-0.696-0.071-1.396-0.11-2.098s-0.083-1.402-0.143-2.101c-0.059-0.699-0.131-1.396-0.229-2.085    c-0.098-0.691-0.22-1.377-0.377-2.055c-0.657-2.839-1.288-5.685-1.949-8.523s-1.354-5.67-2.134-8.479    c-0.78-2.809-1.646-5.593-2.657-8.338c-1.011-2.746-2.165-5.451-3.52-8.103c-0.812-1.592-1.676-3.15-2.608-4.661    c-0.934-1.513-1.938-2.977-3.029-4.377c-1.093-1.401-2.273-2.74-3.563-4.002c-1.289-1.262-2.688-2.445-4.212-3.536    c-1.194-0.854-2.444-1.426-3.73-1.811c-1.286-0.384-2.609-0.579-3.953-0.68c-1.343-0.101-2.706-0.107-4.071-0.112    c-1.364-0.006-2.732-0.011-4.086-0.108c-0.596-0.044-1.211-0.132-1.827-0.264c-0.615-0.131-1.233-0.303-1.835-0.513    c-0.601-0.21-1.186-0.458-1.734-0.739c-0.55-0.281-1.065-0.598-1.528-0.943c-1.552-1.161-3.062-2.376-4.554-3.61    s-2.968-2.49-4.452-3.732c-1.484-1.241-2.977-2.472-4.503-3.656c-1.527-1.186-3.088-2.324-4.708-3.386    c-1.522-0.996-3.099-1.844-4.722-2.488c-1.623-0.646-3.291-1.088-4.994-1.278c-0.209-0.023-0.421-0.031-0.631-0.046    c-4.011-52.439-47.976-93.895-101.424-93.895c-5.048,0-10.009,0.375-14.862,1.089c1.977-1.847,3.952-3.696,5.929-5.543    c9.381-8.765,18.765-17.526,28.15-26.287c9.385-8.762,18.771-17.521,28.156-26.28s18.771-17.521,28.152-26.283    c0.252-0.234,0.497-0.478,0.736-0.724c0.238-0.246,0.475-0.498,0.707-0.75c0.232-0.253,0.464-0.508,0.694-0.762    c0.231-0.255,0.464-0.509,0.7-0.759h0.396h0.396h0.396h0.396c2.739,1.972,5.48,3.939,8.221,5.908    c2.741,1.969,5.481,3.938,8.222,5.908c2.739,1.97,5.478,3.941,8.214,5.916c2.735,1.974,5.47,3.952,8.2,5.933    c0.812,0.59,1.621,1.141,2.446,1.629c0.827,0.488,1.671,0.915,2.555,1.259c0.883,0.343,1.805,0.601,2.786,0.752    c0.982,0.15,2.023,0.194,3.146,0.109c2.54-0.191,5.081-0.365,7.624-0.522s5.086-0.295,7.63-0.416s5.089-0.225,7.636-0.31    c2.546-0.085,5.093-0.151,7.64-0.202c0.852-0.016,1.75-0.015,2.658,0.022c0.909,0.037,1.828,0.11,2.72,0.239    s1.757,0.312,2.559,0.571c0.802,0.261,1.538,0.595,2.176,1.023c1.439,0.971,2.869,1.976,4.273,3.015    c1.405,1.04,2.786,2.115,4.128,3.228s2.646,2.262,3.896,3.451c1.252,1.188,2.451,2.418,3.584,3.688    c1.875,2.104,3.641,4.278,5.307,6.517c1.666,2.237,3.232,4.537,4.712,6.891c1.48,2.353,2.871,4.757,4.188,7.205    c1.314,2.447,2.556,4.937,3.729,7.459c1.475,3.163,2.897,6.341,4.264,9.539c1.365,3.197,2.674,6.414,3.911,9.651    c1.239,3.239,2.41,6.499,3.505,9.784c1.094,3.286,2.108,6.597,3.038,9.935c0.628,2.254,1.257,4.509,1.875,6.766    c0.621,2.257,1.232,4.518,1.829,6.779c0.598,2.262,1.178,4.529,1.732,6.799c0.557,2.271,1.089,4.546,1.588,6.827    c0.491,2.24,0.934,4.489,1.35,6.743s0.807,4.514,1.189,6.773s0.763,4.522,1.157,6.781c0.395,2.258,0.805,4.514,1.253,6.763    c0.132,0.664,0.281,1.346,0.458,2.024c0.178,0.68,0.382,1.358,0.623,2.021c0.24,0.662,0.518,1.306,0.842,1.913    c0.323,0.607,0.692,1.181,1.117,1.699c1.832,2.24,3.702,4.446,5.64,6.59c1.938,2.146,3.941,4.229,6.042,6.224    c2.102,1.994,4.297,3.902,6.619,5.696s4.77,3.476,7.37,5.016c1.978,1.17,3.98,2.241,6.021,3.194    c2.041,0.953,4.118,1.789,6.24,2.485c2.122,0.697,4.29,1.256,6.512,1.657c2.224,0.399,4.499,0.644,6.841,0.709    c1.07,0.028,2.143,0.018,3.216-0.021c1.072-0.039,2.146-0.104,3.221-0.181c1.074-0.077,2.148-0.166,3.223-0.25    c1.075-0.084,2.148-0.165,3.223-0.228c0.001,0.123,0.001,0.246,0.001,0.37c0,0.123,0,0.247,0.001,0.37    C452.737,311.445,452.737,311.568,452.737,311.691z"
                 id="path6" /></g><path
             d="M114.899,346.626c-0.294,0.087-0.577,0.171-0.87,0.258c0.536,0.127,1.104,0.125,1.654-0.021l4.831-1.297   c-0.064-0.203-0.124-0.395-0.16-0.555C118.5,345.555,116.685,346.095,114.899,346.626z"
             id="path10" /></g><g
         id="g18"><path
             d="M209.786,252.685c0.303-1.144,0-2.362-0.84-3.2c-0.836-0.839-2.055-1.144-3.199-0.839l-69.312,18.606l56.637,47.699   L209.786,252.685z"
             id="path14" /><path
             d="M111.646,342.824c-0.305,1.145,0,2.363,0.837,3.201c0.434,0.434,0.971,0.721,1.546,0.858   c0.292-0.087,0.576-0.171,0.87-0.258c1.786-0.53,3.601-1.07,5.455-1.615c0.036,0.16,0.096,0.352,0.16,0.555l65.526-17.588   l-57.428-48.365L111.646,342.824z"
             id="path16" /></g></svg>
