<?xml version="1.0" encoding="UTF-8" standalone="no"?>
<svg
     xmlns:dc="http://purl.org/dc/elements/1.1/"
     xmlns:cc="http://creativecommons.org/ns#"
     xmlns:rdf="http://www.w3.org/1999/02/22-rdf-syntax-ns#"
     xmlns:svg="http://www.w3.org/2000/svg"
     xmlns="http://www.w3.org/2000/svg"
     xmlns:sodipodi="http://sodipodi.sourceforge.net/DTD/sodipodi-0.dtd"
     xmlns:inkscape="http://www.inkscape.org/namespaces/inkscape"
     version="1.1"
     id="Calque_1"
     x="0px"
     y="0px"
     width="595.279px"
     height="595.281px"
     viewBox="0 0 595.279 595.281"
     enable-background="new 0 0 595.279 595.281"
     xml:space="preserve"
     sodipodi:docname="postgis.svg"
     inkscape:version="0.92.2 5c3e80d, 2017-08-06"><title
         id="title11">osgeo-postgis</title><metadata
         id="metadata9"><rdf:RDF><cc:Work
                 rdf:about=""><dc:format>image/svg+xml</dc:format><dc:type
                     rdf:resource="http://purl.org/dc/dcmitype/StillImage" /><dc:title>osgeo-postgis</dc:title><dc:date>08-21-2018</dc:date><dc:creator><cc:Agent><dc:title>Nicolas Bozon</dc:title></cc:Agent></dc:creator><dc:rights><cc:Agent><dc:title>copyright OSGeo</dc:title></cc:Agent></dc:rights><dc:publisher><cc:Agent><dc:title>OSGeo</dc:title></cc:Agent></dc:publisher><dc:identifier>osgeo-postgis</dc:identifier><dc:description>OSGeo PostGIS</dc:description><dc:contributor><cc:Agent><dc:title>OSGeo Marketing Committee</dc:title></cc:Agent></dc:contributor><cc:license
                     rdf:resource="http://creativecommons.org/licenses/by-sa/4.0/" /></cc:Work><cc:License
                 rdf:about="http://creativecommons.org/licenses/by-sa/4.0/"><cc:permits
                     rdf:resource="http://creativecommons.org/ns#Reproduction" /><cc:permits
                     rdf:resource="http://creativecommons.org/ns#Distribution" /><cc:requires
                     rdf:resource="http://creativecommons.org/ns#Notice" /><cc:requires
                     rdf:resource="http://creativecommons.org/ns#Attribution" /><cc:permits
                     rdf:resource="http://creativecommons.org/ns#DerivativeWorks" /><cc:requires
                     rdf:resource="http://creativecommons.org/ns#ShareAlike" /></cc:License></rdf:RDF></metadata><defs
         id="defs7" /><sodipodi:namedview
         pagecolor="#ffffff"
         bordercolor="#666666"
         borderopacity="1"
         objecttolerance="10"
         gridtolerance="10"
         guidetolerance="10"
         inkscape:pageopacity="0"
         inkscape:pageshadow="2"
         inkscape:window-width="640"
         inkscape:window-height="480"
         id="namedview5"
         showgrid="false"
         inkscape:zoom="0.39645142"
         inkscape:cx="297.6395"
         inkscape:cy="297.6405"
         inkscape:window-x="0"
         inkscape:window-y="0"
         inkscape:window-maximized="0"
         inkscape:current-layer="Calque_1" /><path
         d="M339.904,233.829c-1.673-0.04-3.402,0.375-5.035,1.118c-1.632,0.742-3.169,1.811-4.458,3.076s-2.329,2.727-2.971,4.256  c-0.642,1.529-0.884,3.125-0.575,4.658c-0.237,1.915,0.06,3.705,0.744,5.317s1.755,3.047,3.062,4.249s2.853,2.173,4.485,2.857  c1.633,0.685,3.354,1.083,5.013,1.141c1.708,0.06,3.444-0.33,5.081-1.056c1.638-0.725,3.176-1.785,4.487-3.064  c1.311-1.279,2.394-2.778,3.121-4.38c0.728-1.602,1.099-3.308,0.984-5.001c-0.13-1.937-0.563-3.716-1.265-5.299  s-1.672-2.97-2.878-4.12s-2.648-2.064-4.292-2.703C343.764,234.239,341.919,233.877,339.904,233.829L339.904,233.829  L339.904,233.829L339.904,233.829L339.904,233.829z M577.521,270.633l-62.882-62.88l-62.881-62.88l-62.881-62.88l-62.881-62.88  c-4.088-4.088-8.811-7.154-13.851-9.198c-5.04-2.044-10.397-3.066-15.756-3.066c-5.358,0-10.716,1.022-15.757,3.066  c-5.041,2.044-9.764,5.11-13.853,9.198l-62.88,62.88l-62.88,62.88l-62.881,62.88l-62.88,62.88  c-4.088,4.088-7.154,8.811-9.198,13.852c-2.044,5.04-3.066,10.398-3.066,15.757s1.022,10.716,3.066,15.757s5.11,9.764,9.198,13.853  l62.88,62.88l62.881,62.881l62.881,62.881l62.881,62.881c4.088,4.088,8.812,7.154,13.852,9.197  c5.041,2.045,10.399,3.066,15.757,3.066s10.717-1.021,15.757-3.066c5.041-2.043,9.764-5.109,13.852-9.197l62.881-62.881  l62.881-62.881l62.881-62.881l62.881-62.88c4.088-4.089,7.153-8.812,9.198-13.853c2.043-5.041,3.065-10.398,3.065-15.757  c-0.001-5.358-1.022-10.716-3.067-15.756C584.676,279.444,581.61,274.72,577.521,270.633L577.521,270.633L577.521,270.633  L577.521,270.633L577.521,270.633z M452.728,312.058c-0.315,0.269-0.628,0.542-0.938,0.816c-0.311,0.273-0.621,0.549-0.933,0.821  s-0.626,0.542-0.946,0.806c-0.319,0.264-0.645,0.521-0.979,0.768c-2.015,1.494-4.123,2.564-6.297,3.324  c-2.175,0.76-4.415,1.208-6.694,1.458c-2.28,0.25-4.599,0.302-6.928,0.267c-2.33-0.035-4.672-0.156-6.998-0.253  c-2.173-0.091-4.345-0.222-6.515-0.379s-4.338-0.34-6.506-0.534s-4.335-0.4-6.503-0.602c-2.167-0.202-4.335-0.4-6.504-0.58  c-1.741-0.144-3.214-0.014-4.46,0.353s-2.264,0.968-3.092,1.767c-0.829,0.799-1.469,1.796-1.958,2.951  c-0.489,1.156-0.829,2.471-1.058,3.906c-0.204,1.28-0.422,2.559-0.648,3.836c-0.226,1.277-0.459,2.553-0.693,3.829  s-0.469,2.552-0.697,3.829c-0.229,1.277-0.452,2.555-0.662,3.834c-0.25,1.521-0.494,3.044-0.734,4.566  c-0.24,1.523-0.477,3.047-0.709,4.571s-0.463,3.049-0.69,4.574c-0.228,1.524-0.454,3.05-0.678,4.575  c-0.237,1.615-0.468,3.232-0.694,4.85s-0.45,3.234-0.675,4.852s-0.45,3.235-0.682,4.853s-0.468,3.233-0.713,4.849  c-0.214,1.402-0.438,2.805-0.667,4.205c-0.23,1.401-0.465,2.801-0.702,4.201s-0.476,2.8-0.712,4.2  c-0.236,1.399-0.471,2.8-0.698,4.201c-0.29,1.79-0.566,3.582-0.838,5.375c-0.272,1.792-0.54,3.586-0.816,5.378  s-0.561,3.582-0.863,5.369s-0.625,3.571-0.978,5.35c-0.297,1.502-0.628,2.997-0.979,4.489c-0.353,1.492-0.726,2.981-1.109,4.468  s-0.777,2.972-1.17,4.457c-0.394,1.484-0.785,2.969-1.165,4.456c-0.574,2.247-1.125,4.499-1.674,6.752s-1.094,4.507-1.653,6.757  c-0.561,2.25-1.136,4.496-1.745,6.732s-1.252,4.463-1.948,6.677c-0.997,3.173-2.037,6.331-3.147,9.466  c-1.111,3.135-2.295,6.244-3.579,9.316c-1.284,3.073-2.671,6.109-4.189,9.097s-3.169,5.926-4.98,8.804  c-1.439,2.286-2.962,4.48-4.606,6.547s-3.412,4.006-5.341,5.779c-1.93,1.773-4.021,3.383-6.315,4.79  c-2.295,1.407-4.791,2.614-7.528,3.583h-3.167h-3.166h-3.167h-3.167c-0.1-0.06-0.197-0.125-0.293-0.192  c-0.097-0.067-0.193-0.136-0.29-0.201s-0.195-0.127-0.297-0.181c-0.101-0.054-0.205-0.1-0.313-0.133  c-1.198-0.369-2.387-0.744-3.535-1.172c-1.149-0.428-2.26-0.908-3.303-1.483c-1.042-0.575-2.018-1.248-2.896-2.061  c-0.879-0.812-1.663-1.766-2.321-2.903c-0.49-0.847-0.885-1.769-1.162-2.703c-0.277-0.934-0.437-1.881-0.456-2.777  s0.101-1.742,0.384-2.476s0.727-1.353,1.356-1.796c0.783-0.553,1.593-1.076,2.423-1.575s1.681-0.974,2.546-1.429  c0.864-0.455,1.742-0.889,2.628-1.307c0.886-0.419,1.778-0.82,2.671-1.211c1.318-0.576,2.727-1.036,4.143-1.487  c1.417-0.45,2.842-0.892,4.193-1.429c1.352-0.538,2.63-1.173,3.755-2.011c1.124-0.838,2.095-1.879,2.829-3.229  c0.893-1.641,1.754-3.3,2.584-4.974c0.83-1.675,1.629-3.364,2.396-5.067c0.768-1.702,1.502-3.417,2.206-5.142  c0.703-1.725,1.374-3.46,2.013-5.201c0.496-1.356,0.938-2.731,1.339-4.121c0.399-1.39,0.758-2.793,1.087-4.204  c0.328-1.411,0.629-2.83,0.912-4.251s0.551-2.843,0.815-4.261c0.497-2.671,1.007-5.342,1.511-8.016c0.504-2.673,1-5.348,1.47-8.024  s0.911-5.357,1.304-8.042c0.394-2.686,0.738-5.375,1.015-8.069c0.253-2.468,0.432-4.943,0.559-7.423  c0.127-2.48,0.202-4.966,0.247-7.453c0.045-2.486,0.061-4.977,0.068-7.465s0.008-4.977,0.023-7.461  c0.01-1.495-0.012-2.99-0.056-4.486s-0.108-2.992-0.186-4.488s-0.165-2.991-0.255-4.486c-0.09-1.496-0.182-2.991-0.265-4.486  c-0.038-0.697-0.072-1.397-0.111-2.098c-0.039-0.701-0.083-1.402-0.142-2.101s-0.131-1.395-0.229-2.085  c-0.098-0.691-0.22-1.377-0.377-2.054c-0.657-2.839-1.288-5.685-1.949-8.524c-0.661-2.839-1.354-5.67-2.134-8.479  s-1.646-5.593-2.657-8.338c-1.011-2.746-2.165-5.451-3.52-8.103c-0.812-1.591-1.675-3.15-2.608-4.661  c-0.934-1.512-1.938-2.976-3.029-4.377c-1.093-1.401-2.274-2.74-3.564-4.002c-1.289-1.261-2.688-2.445-4.212-3.536  c-1.194-0.854-2.444-1.426-3.73-1.81s-2.61-0.579-3.953-0.68s-2.706-0.107-4.071-0.112c-1.365-0.006-2.733-0.011-4.086-0.109  c-0.596-0.044-1.211-0.132-1.827-0.263s-1.234-0.303-1.835-0.513s-1.186-0.458-1.735-0.739c-0.55-0.282-1.065-0.598-1.528-0.944  c-1.552-1.161-3.062-2.376-4.554-3.61s-2.968-2.49-4.452-3.732s-2.977-2.472-4.503-3.657c-1.527-1.185-3.088-2.324-4.708-3.385  c-1.522-0.997-3.099-1.844-4.722-2.489s-3.291-1.088-4.994-1.278s-3.443-0.127-5.209,0.241s-3.557,1.04-5.365,2.067  c-1.536,0.873-3.027,1.785-4.474,2.741c-1.446,0.957-2.848,1.958-4.204,3.012c-1.356,1.054-2.667,2.159-3.934,3.323  s-2.487,2.386-3.662,3.674c-1.593,1.745-3.08,3.547-4.475,5.396c-1.395,1.851-2.697,3.749-3.919,5.688s-2.366,3.921-3.442,5.937  c-1.077,2.016-2.086,4.065-3.042,6.144c-0.616,1.34-1.201,2.694-1.758,4.061c-0.557,1.367-1.086,2.745-1.589,4.132  c-0.503,1.386-0.982,2.781-1.439,4.181c-0.456,1.4-0.891,2.805-1.307,4.212c-0.623,2.106-1.228,4.218-1.815,6.335  c-0.588,2.116-1.159,4.236-1.714,6.361c-0.555,2.125-1.093,4.253-1.617,6.385c-0.523,2.131-1.031,4.266-1.524,6.401  c-0.245,1.06-0.444,2.13-0.613,3.205c-0.168,1.076-0.307,2.158-0.429,3.243c-0.123,1.085-0.23,2.173-0.338,3.26  c-0.107,1.088-0.215,2.175-0.337,3.258c-0.331,2.922-0.687,5.843-1.046,8.764c-0.359,2.92-0.721,5.841-1.063,8.763  s-0.667,5.845-0.95,8.77c-0.283,2.925-0.525,5.853-0.705,8.783c-0.159,2.594-0.247,5.191-0.289,7.808s-0.039,5.252-0.015,7.92  s0.066,5.37,0.104,8.12s0.069,5.548,0.069,8.409c-0.506-0.425-0.95-0.793-1.345-1.12s-0.743-0.613-1.056-0.873  c-0.313-0.261-0.593-0.494-0.853-0.718c-0.26-0.224-0.5-0.438-0.735-0.655c-1.565-1.456-3.129-2.915-4.692-4.374  s-3.125-2.919-4.687-4.379s-3.124-2.92-4.687-4.38c-1.562-1.459-3.126-2.918-4.691-4.375c-1.467-1.366-2.936-2.729-4.407-4.09  s-2.943-2.722-4.414-4.083c-1.471-1.361-2.941-2.723-4.409-4.087s-2.933-2.731-4.393-4.103c-1.706-1.602-3.405-3.209-5.101-4.819  s-3.39-3.223-5.083-4.835c-1.694-1.611-3.389-3.223-5.088-4.83c-1.699-1.607-3.402-3.211-5.113-4.807  c-1.519-1.416-3.038-2.834-4.56-4.247c-1.522-1.414-3.048-2.825-4.581-4.229s-3.071-2.803-4.619-4.19  c-1.549-1.388-3.106-2.767-4.678-4.131c-0.766-0.665-1.358-1.357-1.813-2.077c-0.456-0.72-0.773-1.467-0.99-2.24  s-0.331-1.572-0.378-2.398s-0.029-1.679,0.021-2.557c0.093-1.648,0.177-3.297,0.253-4.946s0.146-3.298,0.208-4.948  c0.062-1.649,0.119-3.299,0.171-4.949c0.052-1.65,0.099-3.301,0.142-4.95c0.008-0.292-0.02-0.583-0.067-0.869  c-0.048-0.285-0.116-0.563-0.19-0.828s-0.155-0.515-0.227-0.743c-0.072-0.229-0.136-0.436-0.177-0.613  c-1.854,0.545-3.668,1.085-5.455,1.616s-3.546,1.055-5.289,1.566s-3.468,1.012-5.188,1.497c-1.72,0.486-3.435,0.957-5.156,1.409  c-0.242,0.063-0.532,0.059-0.843,0.002s-0.643-0.165-0.97-0.307s-0.649-0.317-0.939-0.51c-0.29-0.192-0.549-0.399-0.75-0.606  c-1.567-1.607-2.97-3.305-4.247-5.069s-2.43-3.598-3.498-5.476c-1.067-1.878-2.05-3.802-2.988-5.748  c-0.938-1.947-1.831-3.918-2.72-5.889c-0.283-0.628-0.573-1.255-0.86-1.883c-0.287-0.629-0.573-1.258-0.848-1.891  c-0.275-0.633-0.541-1.269-0.787-1.909s-0.475-1.286-0.677-1.938c-0.37-1.195-0.723-2.395-1.063-3.598s-0.671-2.408-0.995-3.616  c-0.324-1.207-0.644-2.416-0.963-3.624c-0.32-1.209-0.642-2.417-0.97-3.623v-3.141v-3.14v-3.14v-3.14  c0.081-0.645,0.137-1.297,0.187-1.952c0.05-0.654,0.095-1.309,0.156-1.96c0.06-0.651,0.136-1.298,0.247-1.934  c0.111-0.637,0.258-1.263,0.461-1.873c0.634-1.907,1.278-3.811,1.935-5.711s1.325-3.798,2.007-5.691  c0.682-1.893,1.377-3.782,2.086-5.666c0.709-1.884,1.434-3.763,2.173-5.636c0.736-1.863,1.585-3.67,2.534-5.422  c0.949-1.753,1.998-3.451,3.133-5.097s2.356-3.241,3.65-4.786c1.294-1.545,2.661-3.04,4.087-4.488  c2.091-2.122,4.201-4.227,6.327-6.319s4.268-4.17,6.42-6.238s4.317-4.126,6.489-6.177c2.171-2.052,4.351-4.096,6.533-6.137  c9.374-8.771,18.753-17.537,28.134-26.301s18.765-17.526,28.15-26.287s18.771-17.52,28.157-26.28  c9.385-8.76,18.77-17.521,28.152-26.283c0.252-0.235,0.497-0.478,0.736-0.724s0.475-0.498,0.707-0.75  c0.233-0.253,0.464-0.508,0.695-0.762s0.464-0.508,0.7-0.758h0.396h0.396h0.396h0.396c2.739,1.971,5.48,3.939,8.221,5.908  c2.741,1.969,5.481,3.938,8.221,5.908c2.74,1.97,5.478,3.941,8.214,5.916c2.736,1.974,5.47,3.952,8.2,5.933  c0.812,0.59,1.621,1.14,2.447,1.629c0.827,0.488,1.671,0.915,2.554,1.258s1.805,0.601,2.787,0.752s2.023,0.195,3.146,0.11  c2.54-0.192,5.081-0.366,7.624-0.523s5.086-0.295,7.63-0.416c2.544-0.121,5.089-0.224,7.635-0.309s5.093-0.152,7.64-0.202  c0.852-0.016,1.75-0.015,2.658,0.022c0.909,0.037,1.828,0.11,2.72,0.239s1.757,0.313,2.559,0.572  c0.801,0.26,1.538,0.594,2.175,1.023c1.44,0.971,2.87,1.976,4.274,3.015c1.405,1.04,2.786,2.115,4.128,3.227  s2.646,2.262,3.896,3.451c1.252,1.189,2.451,2.418,3.584,3.688c1.875,2.103,3.641,4.278,5.307,6.516s3.232,4.538,4.712,6.891  s2.871,4.757,4.188,7.205c1.315,2.447,2.556,4.937,3.73,7.459c1.474,3.163,2.897,6.341,4.263,9.539  c1.366,3.197,2.674,6.414,3.912,9.652c1.239,3.239,2.41,6.499,3.504,9.784c1.094,3.286,2.109,6.596,3.039,9.934  c0.627,2.254,1.256,4.509,1.875,6.766c0.621,2.257,1.232,4.517,1.829,6.779s1.177,4.529,1.732,6.799  c0.557,2.271,1.089,4.546,1.588,6.827c0.491,2.24,0.934,4.489,1.35,6.743s0.806,4.514,1.189,6.774s0.763,4.522,1.157,6.781  c0.395,2.258,0.805,4.514,1.253,6.763c0.132,0.664,0.281,1.345,0.458,2.024c0.178,0.68,0.382,1.359,0.623,2.021  c0.24,0.662,0.518,1.305,0.842,1.913c0.323,0.607,0.692,1.18,1.117,1.699c1.832,2.24,3.702,4.446,5.64,6.59  c1.937,2.145,3.941,4.228,6.042,6.223s4.297,3.903,6.619,5.697s4.77,3.475,7.37,5.015c1.978,1.17,3.981,2.242,6.021,3.195  c2.041,0.953,4.118,1.789,6.24,2.485c2.122,0.697,4.29,1.256,6.512,1.657c2.223,0.4,4.499,0.644,6.84,0.709  c1.071,0.029,2.143,0.018,3.216-0.021c1.072-0.039,2.146-0.104,3.221-0.181c1.074-0.077,2.148-0.166,3.223-0.25  s2.148-0.165,3.222-0.227c0.001,0.123,0.001,0.246,0.001,0.37c0,0.123,0,0.247,0.001,0.37c0,0.123,0,0.246,0,0.369  c0,0.124,0,0.247,0,0.37L452.728,312.058L452.728,312.058L452.728,312.058L452.728,312.058z"
         id="path2" /></svg>