<?xml version="1.0" encoding="UTF-8" standalone="no"?>
<svg
     xmlns:dc="http://purl.org/dc/elements/1.1/"
     xmlns:cc="http://creativecommons.org/ns#"
     xmlns:rdf="http://www.w3.org/1999/02/22-rdf-syntax-ns#"
     xmlns:svg="http://www.w3.org/2000/svg"
     xmlns="http://www.w3.org/2000/svg"
     xmlns:sodipodi="http://sodipodi.sourceforge.net/DTD/sodipodi-0.dtd"
     xmlns:inkscape="http://www.inkscape.org/namespaces/inkscape"
     version="1.1"
     id="Calque_1"
     x="0px"
     y="0px"
     width="643.197px"
     height="443.18px"
     viewBox="0 0 643.197 443.18"
     enable-background="new 0 0 643.197 443.18"
     xml:space="preserve"
     sodipodi:docname="prontoraster.svg"
     inkscape:version="0.92.2 5c3e80d, 2017-08-06"><title
         id="title107">osgeo-prontoraster</title><metadata
         id="metadata105"><rdf:RDF><cc:Work
                 rdf:about=""><dc:format>image/svg+xml</dc:format><dc:type
                     rdf:resource="http://purl.org/dc/dcmitype/StillImage" /><dc:title>osgeo-prontoraster</dc:title><dc:date>08-21-2018</dc:date><dc:creator><cc:Agent><dc:title>Nicolas Bozon</dc:title></cc:Agent></dc:creator><dc:rights><cc:Agent><dc:title>copyright OSGeo</dc:title></cc:Agent></dc:rights><dc:publisher><cc:Agent><dc:title>OSGeo</dc:title></cc:Agent></dc:publisher><dc:identifier>osgeo-prontoraster</dc:identifier><dc:description>OSGeo Pronto Raster</dc:description><dc:contributor><cc:Agent><dc:title>OSGeo Marketing Committee</dc:title></cc:Agent></dc:contributor><cc:license
                     rdf:resource="http://creativecommons.org/licenses/by-sa/4.0/" /></cc:Work><cc:License
                 rdf:about="http://creativecommons.org/licenses/by-sa/4.0/"><cc:permits
                     rdf:resource="http://creativecommons.org/ns#Reproduction" /><cc:permits
                     rdf:resource="http://creativecommons.org/ns#Distribution" /><cc:requires
                     rdf:resource="http://creativecommons.org/ns#Notice" /><cc:requires
                     rdf:resource="http://creativecommons.org/ns#Attribution" /><cc:permits
                     rdf:resource="http://creativecommons.org/ns#DerivativeWorks" /><cc:requires
                     rdf:resource="http://creativecommons.org/ns#ShareAlike" /></cc:License></rdf:RDF></metadata><defs
         id="defs103" /><sodipodi:namedview
         pagecolor="#ffffff"
         bordercolor="#666666"
         borderopacity="1"
         objecttolerance="10"
         gridtolerance="10"
         guidetolerance="10"
         inkscape:pageopacity="0"
         inkscape:pageshadow="2"
         inkscape:window-width="640"
         inkscape:window-height="480"
         id="namedview101"
         showgrid="false"
         inkscape:zoom="0.53251501"
         inkscape:cx="321.59851"
         inkscape:cy="221.59"
         inkscape:window-x="0"
         inkscape:window-y="0"
         inkscape:window-maximized="0"
         inkscape:current-layer="Calque_1" /><g
         id="g98"><polygon
             fill="none"
             points="308.6,99.781 241.618,79.913 167.609,94.781 232.467,116.826  "
             id="polygon2" /><polygon
             fill="none"
             points="217.177,169.119 219.261,169.95 257.435,160.073 308.409,146.884 231.804,121.074 145.263,140.451    170.974,150.701  "
             id="polygon4" /><polygon
             fill="none"
             points="220.663,199.557 312.216,238.633 313.19,211.701 221.079,174.981  "
             id="polygon6" /><polygon
             fill="none"
             points="225.546,172.456 315.325,208.246 378.331,188.869 406.499,180.207 350.309,161.107 315.343,149.221    275.581,159.51  "
             id="polygon8" /><polygon
             fill="none"
             points="468.421,105.482 391.501,85.319 324.491,100.323 400.838,122.968  "
             id="polygon10" /><polygon
             fill="none"
             points="429.296,173.196 491.553,154.049 400.764,127.119 322.4,147.396 413.024,178.2  "
             id="polygon12" /><polygon
             fill="none"
             points="317.187,211.859 317.021,216.441 316.212,238.823 334.276,232.912 366.598,222.338 409.425,208.326    410.014,197.781 410.837,183.058 384.177,191.257  "
             id="polygon14" /><polygon
             fill="none"
             points="198.175,189.959 208.999,194.578 216.691,197.862 217.105,173.397 140.514,142.865 140.523,161.678    140.525,165.354 198.175,189.959  "
             id="polygon16" /><polygon
             fill="none"
             points="221.977,302.091 310.283,348.556 400.444,312.844 310.002,272.133  "
             id="polygon18" /><polygon
             fill="none"
             points="140.584,284.854 214.522,325.805 214.91,302.893 140.573,263.779  "
             id="polygon20" /><polygon
             fill="none"
             points="417.831,180.907 414.913,181.804 413.505,206.991 429.97,201.604 429.971,201.604 494.536,180.479    496.263,156.786 419.489,180.397  "
             id="polygon22" /><polygon
             fill="none"
             points="364.415,227.262 393.962,239.333 411.216,233.461 460.353,216.737 429.911,205.832  "
             id="polygon24" /><polygon
             fill="none"
             points="315.552,270.244 405.628,310.791 483.904,279.787 393.839,243.6  "
             id="polygon26" /><polygon
             fill="none"
             points="261.494,222.013 262.434,221.735 212.816,200.557 197.862,194.175 165.385,202.647 180.551,209.474    229.459,231.49  "
             id="polygon28" /><polygon
             fill="none"
             points="407.505,314.35 406.205,337.588 485.507,304.342 487.075,282.833 410.712,313.08  "
             id="polygon30" /><g
             id="g96"><polygon
                 fill="none"
                 points="308.6,99.781 241.618,79.913 167.609,94.781 232.467,116.826   "
                 id="polygon32" /><polygon
                 fill="none"
                 points="217.177,169.119 219.261,169.95 257.435,160.073 308.409,146.884 231.804,121.074 145.263,140.451     170.974,150.701   "
                 id="polygon34" /><polygon
                 fill="none"
                 points="220.663,199.557 312.216,238.633 313.19,211.701 221.079,174.981   "
                 id="polygon36" /><polygon
                 fill="none"
                 points="429.296,173.196 491.553,154.049 400.764,127.119 322.4,147.396 413.024,178.2   "
                 id="polygon38" /><polygon
                 fill="none"
                 points="198.175,189.959 208.999,194.578 216.691,197.862 217.105,173.397 140.514,142.865 140.523,161.678     140.525,165.354 198.175,189.959   "
                 id="polygon40" /><polygon
                 fill="none"
                 points="317.187,211.859 317.021,216.441 316.212,238.823 334.276,232.912 366.598,222.338 409.425,208.326     410.014,197.781 410.837,183.058 384.177,191.257   "
                 id="polygon42" /><polygon
                 fill="none"
                 points="468.421,105.482 391.501,85.319 324.491,100.323 400.838,122.968   "
                 id="polygon44" /><polygon
                 fill="none"
                 points="225.546,172.456 315.325,208.246 378.331,188.869 406.499,180.207 350.309,161.107 315.343,149.221     275.581,159.51   "
                 id="polygon46" /><polygon
                 fill="none"
                 points="261.494,222.013 262.434,221.735 212.816,200.557 197.862,194.175 165.385,202.647 180.551,209.474     229.459,231.49   "
                 id="polygon48" /><polygon
                 fill="none"
                 points="417.831,180.907 414.913,181.804 413.505,206.991 429.97,201.604 429.971,201.604 494.536,180.479     496.263,156.786 419.489,180.397   "
                 id="polygon50" /><polygon
                 fill="none"
                 points="364.415,227.262 393.962,239.333 411.216,233.461 460.353,216.737 429.911,205.832   "
                 id="polygon52" /><polygon
                 fill="none"
                 points="407.505,314.35 406.205,337.588 485.507,304.342 487.075,282.833 410.712,313.08   "
                 id="polygon54" /><polygon
                 fill="none"
                 points="315.552,270.244 405.628,310.791 483.904,279.787 393.839,243.6   "
                 id="polygon56" /><polygon
                 fill="none"
                 points="221.977,302.091 310.283,348.556 400.444,312.844 310.002,272.133   "
                 id="polygon58" /><polygon
                 fill="none"
                 points="140.584,284.854 214.522,325.805 214.91,302.893 140.573,263.779   "
                 id="polygon60" /><g
                 id="g94"><polygon
                     fill="none"
                     points="308.6,99.781 241.618,79.913 167.609,94.781 232.467,116.826    "
                     id="polygon62" /><polygon
                     fill="none"
                     points="217.177,169.119 219.261,169.95 257.435,160.073 308.409,146.884 231.804,121.074 145.263,140.451      170.974,150.701    "
                     id="polygon64" /><polygon
                     fill="none"
                     points="220.663,199.557 312.216,238.633 313.19,211.701 221.079,174.981    "
                     id="polygon66" /><polygon
                     fill="none"
                     points="429.296,173.196 491.553,154.049 400.764,127.119 322.4,147.396 413.024,178.2    "
                     id="polygon68" /><polygon
                     fill="none"
                     points="198.175,189.959 208.999,194.578 216.691,197.862 217.105,173.397 140.514,142.865 140.523,161.678      140.525,165.354 198.175,189.959    "
                     id="polygon70" /><polygon
                     fill="none"
                     points="317.187,211.859 317.021,216.441 316.212,238.823 334.276,232.912 366.598,222.338 409.425,208.326      410.014,197.781 410.837,183.058 384.177,191.257    "
                     id="polygon72" /><polygon
                     fill="none"
                     points="468.421,105.482 391.501,85.319 324.491,100.323 400.838,122.968    "
                     id="polygon74" /><polygon
                     fill="none"
                     points="225.546,172.456 315.325,208.246 378.331,188.869 406.499,180.207 350.309,161.107 315.343,149.221      275.581,159.51    "
                     id="polygon76" /><polygon
                     fill="none"
                     points="407.505,314.35 406.205,337.588 485.507,304.342 487.075,282.833 410.712,313.08    "
                     id="polygon78" /><polygon
                     fill="none"
                     points="417.831,180.907 414.913,181.804 413.505,206.991 429.97,201.604 429.971,201.604 494.536,180.479      496.263,156.786 419.489,180.397    "
                     id="polygon80" /><polygon
                     fill="none"
                     points="315.552,270.244 405.628,310.791 483.904,279.787 393.839,243.6    "
                     id="polygon82" /><polygon
                     fill="none"
                     points="364.415,227.262 393.962,239.333 411.216,233.461 460.353,216.737 429.911,205.832    "
                     id="polygon84" /><polygon
                     fill="none"
                     points="140.584,284.854 214.522,325.805 214.91,302.893 140.573,263.779    "
                     id="polygon86" /><polygon
                     fill="none"
                     points="261.494,222.013 262.434,221.735 212.816,200.557 197.862,194.175 165.385,202.647 180.551,209.474      229.459,231.49    "
                     id="polygon88" /><polygon
                     fill="none"
                     points="221.977,302.091 310.283,348.556 400.444,312.844 310.002,272.133    "
                     id="polygon90" /><path
                     d="M573.427,128.87l-89.133-23.363l-92.249-24.18L314.914,61.11l-73.596,14.784l-89.02,17.883h0l-82.529,16.579l3.402,1.356     l-3.402-1.356l-2.215,0.445l0.048,2.997l0.397,24.952l72.527,30.956v0l51.324,21.905l-38.448,10.03L71.62,222.975l-2.271,0.593     l0.044,2.757l0.38,23.883l66.812,37.004l81.823,45.318l88.64,49.094l1.922,1.065l2.073-0.87l94.913-39.789l79.226-33.213     l76.331-32l2.336-24.393l0.264-2.766l-2.174-0.779l-93.889-33.633l-31.939-11.443l62.22-20.356l74.454-24.36l2.549-26.618     l0.29-3.022L573.427,128.87z M391.501,85.319l76.92,20.163l-67.583,17.486l-76.347-22.646L391.501,85.319z M400.764,127.119     l90.789,26.93l-62.258,19.147l-16.271,5.004L322.4,147.396L400.764,127.119z M315.343,149.221l34.966,11.885l56.189,19.1     l-28.168,8.663l-63.005,19.377l-89.779-35.791l50.035-12.946L315.343,149.221z M410.837,183.058l-0.822,14.723l-0.59,10.545     l-42.826,14.012l-32.322,10.574l-18.064,5.91l0.809-22.381l0.166-4.582l66.99-20.602L410.837,183.058z M313.19,211.701     l-0.974,26.932l-91.553-39.076l0.417-24.576L313.19,211.701z M241.618,79.913L308.6,99.781l-76.133,17.045l-64.858-22.045     L241.618,79.913z M231.804,121.074l76.605,25.809l-50.974,13.189l-38.173,9.877l-2.084-0.831l-46.203-18.418l-25.711-10.25     L231.804,121.074z M140.525,165.354l-0.002-3.676l-0.008-18.813l76.59,30.532l-0.414,24.465l-7.692-3.283l-10.824-4.619h0     L140.525,165.354z M137.052,262.209l-0.445,21.076l-63.336-34.792l-0.01-21.075L137.052,262.209v-0.27V262.209z M214.522,325.805     l-73.938-40.951l-0.01-21.075l74.336,39.114L214.522,325.805z M180.551,209.474l-15.165-6.827l32.476-8.473l14.954,6.383     l49.618,21.177l-0.939,0.278l-32.036,9.478L180.551,209.474z M310.283,348.556l-88.306-46.465l88.025-29.958l90.442,40.711     L310.283,348.556z M485.507,304.342l-79.302,33.246l1.3-23.238l3.207-1.27l76.363-30.247L485.507,304.342z M483.904,279.787     l-78.276,31.004l-90.076-40.547l78.287-26.645L483.904,279.787z M460.353,216.737l-49.138,16.724l-17.254,5.872l-29.547-12.071     l65.496-21.43L460.353,216.737z M494.536,180.479l-64.564,21.125h-0.001l-16.466,5.387l1.408-25.187l2.918-0.897l1.658-0.51     l76.774-23.611L494.536,180.479z"
                     id="path92" /></g></g></g></svg>
