<?xml version="1.0" encoding="UTF-8" standalone="no"?>
<svg
     xmlns:dc="http://purl.org/dc/elements/1.1/"
     xmlns:cc="http://creativecommons.org/ns#"
     xmlns:rdf="http://www.w3.org/1999/02/22-rdf-syntax-ns#"
     xmlns:svg="http://www.w3.org/2000/svg"
     xmlns="http://www.w3.org/2000/svg"
     xmlns:sodipodi="http://sodipodi.sourceforge.net/DTD/sodipodi-0.dtd"
     xmlns:inkscape="http://www.inkscape.org/namespaces/inkscape"
     version="1.1"
     id="Calque_1"
     x="0px"
     y="0px"
     width="595.279px"
     height="595.281px"
     viewBox="0 0 595.279 595.281"
     enable-background="new 0 0 595.279 595.281"
     xml:space="preserve"
     sodipodi:docname="pycsw.svg"
     inkscape:version="0.92.2 5c3e80d, 2017-08-06"><title
         id="title11">osgeo-pycsw</title><metadata
         id="metadata9"><rdf:RDF><cc:Work
                 rdf:about=""><dc:format>image/svg+xml</dc:format><dc:type
                     rdf:resource="http://purl.org/dc/dcmitype/StillImage" /><dc:title>osgeo-pycsw</dc:title><dc:date>08-21-2018</dc:date><dc:creator><cc:Agent><dc:title>Nicolas Bozon</dc:title></cc:Agent></dc:creator><dc:rights><cc:Agent><dc:title>copyright OSGeo</dc:title></cc:Agent></dc:rights><dc:publisher><cc:Agent><dc:title>OSGeo</dc:title></cc:Agent></dc:publisher><dc:identifier>osgeo-pycsw</dc:identifier><dc:description>OSGeo pycsw</dc:description><dc:contributor><cc:Agent><dc:title>OSGeo Marketing Committee</dc:title></cc:Agent></dc:contributor><cc:license
                     rdf:resource="http://creativecommons.org/licenses/by-sa/4.0/" /></cc:Work><cc:License
                 rdf:about="http://creativecommons.org/licenses/by-sa/4.0/"><cc:permits
                     rdf:resource="http://creativecommons.org/ns#Reproduction" /><cc:permits
                     rdf:resource="http://creativecommons.org/ns#Distribution" /><cc:requires
                     rdf:resource="http://creativecommons.org/ns#Notice" /><cc:requires
                     rdf:resource="http://creativecommons.org/ns#Attribution" /><cc:permits
                     rdf:resource="http://creativecommons.org/ns#DerivativeWorks" /><cc:requires
                     rdf:resource="http://creativecommons.org/ns#ShareAlike" /></cc:License></rdf:RDF></metadata><defs
         id="defs7" /><sodipodi:namedview
         pagecolor="#ffffff"
         bordercolor="#666666"
         borderopacity="1"
         objecttolerance="10"
         gridtolerance="10"
         guidetolerance="10"
         inkscape:pageopacity="0"
         inkscape:pageshadow="2"
         inkscape:window-width="640"
         inkscape:window-height="480"
         id="namedview5"
         showgrid="false"
         inkscape:zoom="0.39645142"
         inkscape:cx="297.6395"
         inkscape:cy="297.6405"
         inkscape:window-x="0"
         inkscape:window-y="0"
         inkscape:window-maximized="0"
         inkscape:current-layer="Calque_1" /><path
         d="M352.931,36.632c-70.237-13.707-141.602,0.761-200.95,40.73c-31.306,21.083-57.283,47.868-77.201,79.593  c-56.329,89.718-54.496,204.433,4.665,292.261c82.516,122.528,249.332,155.086,371.85,72.572  c31.297-21.088,57.289-47.864,77.217-79.604c56.319-89.703,54.484-204.431-4.684-292.263  C483.851,90.569,423.16,50.34,352.931,36.632L352.931,36.632z M344.007,82.362c55.046,10.747,102.976,41.237,135.944,86.207  c-11.562,16.932-24.247,32.995-37.72,48.224c-1.777-2.776-3.457-5.576-5.314-8.334c-38.729-57.512-88.305-103.125-139.585-128.463  c-1.164-0.574-2.31-1.069-3.469-1.615C310.485,77.841,327.281,79.11,344.007,82.362L344.007,82.362z M160.324,134.536  c0.358-0.571,0.767-1.082,1.14-1.632l134.952,200.388c-29.214,16.1-58.648,28.729-86.978,37.59  c-1.468-2.096-3.003-4.087-4.438-6.221C148.269,280.444,129.49,183.648,160.324,134.536L160.324,134.536z M322.282,371.708  l81.072,120.391c-21.398,4.487-47.771-0.386-76.775-14.716c-30.233-14.935-59.945-38.587-86.722-68.257  C267.11,399.522,294.864,386.972,322.282,371.708L322.282,371.708z M442.944,464.638c-0.35,0.558-0.755,1.051-1.114,1.592  l-79.908-118.662c23.887-15.868,47.138-33.857,69.205-53.751C460.909,360.695,466.698,426.804,442.944,464.638L442.944,464.638z   M336.06,309.161L199.95,107.063c21.392-4.472,47.756,0.396,76.74,14.712c44.126,21.804,87.31,61.833,121.575,112.711  c3.729,5.532,7.27,11.131,10.668,16.751C385.924,272.938,361.32,292.298,336.06,309.161L336.06,309.161z M99.432,209.59  c3.122,53.653,24.239,114.732,61.678,172.891c-22.989,3.712-44.53,4.404-63.769,1.874C74.175,328.49,74.737,265.185,99.432,209.59  L99.432,209.59z M124.222,431.838c20.995-0.365,43.36-3.188,66.581-8.445c34.184,41.998,74.068,75.461,115.135,95.754  c1.083,0.533,2.16,0.996,3.243,1.511C238.823,522.936,168.815,491.722,124.222,431.838L124.222,431.838z M503.835,389.587  c-2.371-40.692-15.07-85.628-37.4-130.371c13.64-14.6,26.605-30.01,38.711-46.214C529.082,269.312,528.798,333.384,503.835,389.587z  "
         id="path2" /></svg>