<?xml version="1.0" encoding="UTF-8"?>
<svg width="593px" height="228px" viewBox="0 0 593 228" version="1.1" xmlns="http://www.w3.org/2000/svg" xmlns:xlink="http://www.w3.org/1999/xlink">
    <title>OSGeo_heritage</title>
    <defs>
        <path d="M213.5683,200.4711 C213.8003,200.4711 213.993633,200.393767 214.1483,200.2391 C214.302967,200.084433 214.3803,199.8911 214.3803,199.6591 L214.3803,199.6591 L214.3803,181.3891 L233.8683,181.3891 L233.8683,199.6591 C233.8683,199.8911 233.945633,200.084433 234.1003,200.2391 C234.254967,200.393767 234.4483,200.4711 234.6803,200.4711 L234.6803,200.4711 L237.8123,200.4711 C238.0443,200.4711 238.237633,200.393767 238.3923,200.2391 C238.546967,200.084433 238.6243,199.8911 238.6243,199.6591 L238.6243,199.6591 L238.6243,160.9731 C238.6243,160.7411 238.546967,160.547767 238.3923,160.3931 C238.237633,160.238433 238.0443,160.1611 237.8123,160.1611 L237.8123,160.1611 L234.6803,160.1611 C234.4483,160.1611 234.254967,160.238433 234.1003,160.3931 C233.945633,160.547767 233.8683,160.7411 233.8683,160.9731 L233.8683,160.9731 L233.8683,177.0391 L214.3803,177.0391 L214.3803,160.9731 C214.3803,160.7411 214.302967,160.547767 214.1483,160.3931 C213.993633,160.238433 213.8003,160.1611 213.5683,160.1611 L213.5683,160.1611 L210.4363,160.1611 C210.2043,160.1611 210.010967,160.238433 209.8563,160.3931 C209.701633,160.547767 209.6243,160.7411 209.6243,160.9731 L209.6243,160.9731 L209.6243,199.6591 C209.6243,199.8911 209.701633,200.084433 209.8563,200.2391 C210.010967,200.393767 210.2043,200.4711 210.4363,200.4711 L210.4363,200.4711 L213.5683,200.4711 Z M268.6103,200.4711 C268.8423,200.4711 269.035633,200.393767 269.1903,200.2391 C269.344967,200.084433 269.4223,199.8911 269.4223,199.6591 L269.4223,199.6591 L269.4223,196.9911 C269.4223,196.7591 269.344967,196.565767 269.1903,196.4111 C269.035633,196.256433 268.8423,196.1791 268.6103,196.1791 L268.6103,196.1791 L260.2003,196.1791 C258.730967,196.1791 257.377633,195.821433 256.1403,195.1061 C254.902967,194.390767 253.926633,193.414433 253.2113,192.1771 C252.495967,190.939767 252.1383,189.586433 252.1383,188.1171 L252.1383,188.1171 L252.1383,185.5651 L270.6983,185.5651 C271.2783,185.5651 271.7713,185.3621 272.1773,184.9561 C272.5833,184.5501 272.7863,184.0571 272.7863,183.4771 L272.7863,183.4771 L272.7863,179.5331 C272.7863,177.251767 272.225633,175.134767 271.1043,173.1821 C269.982967,171.229433 268.455633,169.692433 266.5223,168.5711 C264.588967,167.449767 262.481633,166.8891 260.2003,166.8891 C257.918967,166.8891 255.811633,167.449767 253.8783,168.5711 C251.944967,169.692433 250.417633,171.229433 249.2963,173.1821 C248.174967,175.134767 247.6143,177.251767 247.6143,179.5331 L247.6143,179.5331 L247.6143,187.8271 C247.6143,190.108433 248.174967,192.225433 249.2963,194.1781 C250.417633,196.130767 251.944967,197.667767 253.8783,198.7891 C255.811633,199.910433 257.918967,200.4711 260.2003,200.4711 L260.2003,200.4711 L268.6103,200.4711 Z M268.2623,181.3891 L252.1383,181.3891 L252.1383,179.2431 C252.1383,177.773767 252.495967,176.420433 253.2113,175.1831 C253.926633,173.945767 254.902967,172.969433 256.1403,172.2541 C257.377633,171.538767 258.730967,171.1811 260.2003,171.1811 C261.669633,171.1811 263.022967,171.538767 264.2603,172.2541 C265.497633,172.969433 266.473967,173.945767 267.1893,175.1831 C267.904633,176.420433 268.2623,177.773767 268.2623,179.2431 L268.2623,179.2431 L268.2623,181.3891 Z M295.6383,200.4711 C295.8703,200.4711 296.063633,200.393767 296.2183,200.2391 C296.372967,200.084433 296.4503,199.8911 296.4503,199.6591 L296.4503,199.6591 L296.4503,196.9911 C296.4503,196.7591 296.372967,196.565767 296.2183,196.4111 C296.063633,196.256433 295.8703,196.1791 295.6383,196.1791 L295.6383,196.1791 L288.9103,196.1791 L288.9103,177.7351 L292.3323,175.0091 C294.033633,173.655767 295.309633,172.7761 296.1603,172.3701 C297.010967,171.9641 297.919633,171.7611 298.8863,171.7611 L298.8863,171.7611 L300.1623,171.7611 C300.3943,171.7611 300.587633,171.683767 300.7423,171.5291 C300.896967,171.374433 300.9743,171.1811 300.9743,170.9491 L300.9743,170.9491 L300.9743,168.1071 C300.9743,167.8751 300.906633,167.681767 300.7713,167.5271 C300.635967,167.372433 300.432967,167.2951 300.1623,167.2951 L300.1623,167.2951 L298.4223,167.2951 C297.455633,167.2951 296.5373,167.478767 295.6673,167.8461 C294.7973,168.213433 293.6663,168.938433 292.2743,170.0211 L292.2743,170.0211 L288.9103,172.6311 L288.9103,169.7311 C288.9103,169.1511 288.7073,168.6581 288.3013,168.2521 C287.8953,167.8461 287.4023,167.6431 286.8223,167.6431 L286.8223,167.6431 L279.5723,167.6431 C279.3403,167.6431 279.146967,167.720433 278.9923,167.8751 C278.837633,168.029767 278.7603,168.2231 278.7603,168.4551 L278.7603,168.4551 L278.7603,170.9491 C278.7603,171.1811 278.837633,171.374433 278.9923,171.5291 C279.146967,171.683767 279.3403,171.7611 279.5723,171.7611 L279.5723,171.7611 L284.3863,171.7611 L284.3863,196.1791 L279.5723,196.1791 C279.3403,196.1791 279.146967,196.256433 278.9923,196.4111 C278.837633,196.565767 278.7603,196.7591 278.7603,196.9911 L278.7603,196.9911 L278.7603,199.6591 C278.7603,199.8911 278.837633,200.084433 278.9923,200.2391 C279.146967,200.393767 279.3403,200.4711 279.5723,200.4711 L279.5723,200.4711 L295.6383,200.4711 Z M316.5763,163.1191 C316.8083,163.1191 317.001633,163.041767 317.1563,162.8871 C317.310967,162.732433 317.3883,162.5391 317.3883,162.3071 L317.3883,162.3071 L317.3883,157.2611 C317.3883,157.0291 317.310967,156.835767 317.1563,156.6811 C317.001633,156.526433 316.8083,156.4491 316.5763,156.4491 L316.5763,156.4491 L313.7923,156.4491 C313.5603,156.4491 313.366967,156.526433 313.2123,156.6811 C313.057633,156.835767 312.9803,157.0291 312.9803,157.2611 L312.9803,157.2611 L312.9803,162.3071 C312.9803,162.5391 313.057633,162.732433 313.2123,162.8871 C313.366967,163.041767 313.5603,163.1191 313.7923,163.1191 L313.7923,163.1191 L316.5763,163.1191 Z M323.4203,200.4711 C323.6523,200.4711 323.845633,200.393767 324.0003,200.2391 C324.154967,200.084433 324.2323,199.8911 324.2323,199.6591 L324.2323,199.6591 L324.2323,196.9911 C324.2323,196.7591 324.154967,196.565767 324.0003,196.4111 C323.845633,196.256433 323.6523,196.1791 323.4203,196.1791 L323.4203,196.1791 L317.4463,196.1791 L317.4463,169.7311 C317.4463,169.1511 317.2433,168.6581 316.8373,168.2521 C316.4313,167.8461 315.9383,167.6431 315.3583,167.6431 L315.3583,167.6431 L306.8903,167.6431 C306.6583,167.6431 306.464967,167.720433 306.3103,167.8751 C306.155633,168.029767 306.0783,168.2231 306.0783,168.4551 L306.0783,168.4551 L306.0783,171.1231 C306.0783,171.3551 306.155633,171.548433 306.3103,171.7031 C306.464967,171.857767 306.6583,171.9351 306.8903,171.9351 L306.8903,171.9351 L312.9223,171.9351 L312.9223,198.3831 C312.9223,198.9631 313.1253,199.4561 313.5313,199.8621 C313.9373,200.2681 314.4303,200.4711 315.0103,200.4711 L315.0103,200.4711 L323.4203,200.4711 Z M347.0843,200.4711 C347.3163,200.4711 347.509633,200.393767 347.6643,200.2391 C347.818967,200.084433 347.8963,199.8911 347.8963,199.6591 L347.8963,199.6591 L347.8963,196.9911 C347.8963,196.7591 347.818967,196.565767 347.6643,196.4111 C347.509633,196.256433 347.3163,196.1791 347.0843,196.1791 L347.0843,196.1791 L341.8063,196.1211 C340.336967,196.082433 339.147967,195.608767 338.2393,194.7001 C337.330633,193.791433 336.8763,192.5831 336.8763,191.0751 L336.8763,191.0751 L336.8763,171.9351 L347.0843,171.9351 C347.3163,171.9351 347.509633,171.857767 347.6643,171.7031 C347.818967,171.548433 347.8963,171.3551 347.8963,171.1231 L347.8963,171.1231 L347.8963,168.4551 C347.8963,168.2231 347.818967,168.029767 347.6643,167.8751 C347.509633,167.720433 347.3163,167.6431 347.0843,167.6431 L347.0843,167.6431 L336.8763,167.6431 L336.8763,161.5531 C336.8763,161.3211 336.798967,161.127767 336.6443,160.9731 C336.489633,160.818433 336.2963,160.7411 336.0643,160.7411 L336.0643,160.7411 L333.1643,160.7411 C332.9323,160.7411 332.738967,160.818433 332.5843,160.9731 C332.429633,161.127767 332.3523,161.3211 332.3523,161.5531 L332.3523,161.5531 L332.3523,167.6431 L328.5243,167.6431 C328.2923,167.6431 328.098967,167.720433 327.9443,167.8751 C327.789633,168.029767 327.7123,168.2231 327.7123,168.4551 L327.7123,168.4551 L327.7123,171.0651 C327.7123,171.2971 327.789633,171.490433 327.9443,171.6451 C328.098967,171.799767 328.2923,171.8771 328.5243,171.8771 L328.5243,171.8771 L332.3523,171.8771 L332.3523,191.5971 C332.3523,194.1491 333.144967,196.2661 334.7303,197.9481 C336.315633,199.6301 338.5003,200.4711 341.2843,200.4711 L341.2843,200.4711 L347.0843,200.4711 Z M363.8463,201.2251 C366.0503,201.2251 368.089967,200.7321 369.9653,199.7461 C371.840633,198.7601 373.377633,197.3971 374.5763,195.6571 L374.5763,195.6571 L374.5763,199.6591 C374.5763,199.8911 374.653633,200.084433 374.8083,200.2391 C374.962967,200.393767 375.1563,200.4711 375.3883,200.4711 L375.3883,200.4711 L377.8243,200.4711 C378.0563,200.4711 378.249633,200.393767 378.4043,200.2391 C378.558967,200.084433 378.6363,199.8911 378.6363,199.6591 L378.6363,199.6591 L378.6363,177.3871 C378.6363,175.2991 378.1433,173.462433 377.1573,171.8771 C376.1713,170.291767 374.769633,169.0641 372.9523,168.1941 C371.134967,167.3241 369.0663,166.8891 366.7463,166.8891 C364.1943,166.8891 361.941967,167.420767 359.9893,168.4841 C358.036633,169.547433 356.499633,171.0071 355.3783,172.8631 C355.2623,173.0951 355.2043,173.288433 355.2043,173.4431 C355.2043,173.7911 355.3783,174.119767 355.7263,174.4291 L355.7263,174.4291 L357.2923,175.4731 C357.562967,175.666433 357.8143,175.7631 358.0463,175.7631 C358.5103,175.7631 358.896967,175.511767 359.2063,175.0091 C359.940967,173.810433 360.936633,172.872767 362.1933,172.1961 C363.449967,171.519433 364.928967,171.1811 366.6303,171.1811 C368.795633,171.1811 370.6033,171.751433 372.0533,172.8921 C373.5033,174.032767 374.2283,175.5311 374.2283,177.3871 L374.2283,177.3871 L374.2283,177.8511 C374.2283,178.972433 373.976967,179.832767 373.4743,180.4321 C372.971633,181.031433 372.159633,181.408433 371.0383,181.5631 L371.0383,181.5631 L363.4983,182.6071 C360.404967,183.032433 357.997967,184.076433 356.2773,185.7391 C354.556633,187.401767 353.6963,189.5091 353.6963,192.0611 C353.6963,194.806433 354.643633,197.0201 356.5383,198.7021 C358.432967,200.3841 360.868967,201.2251 363.8463,201.2251 Z M364.3103,197.1651 C362.4543,197.1651 360.9463,196.681767 359.7863,195.7151 C358.6263,194.748433 358.0463,193.472433 358.0463,191.8871 C358.0463,188.832433 359.979633,187.0151 363.8463,186.4351 L363.8463,186.4351 L365.4703,186.2031 C370.496967,185.5071 373.4743,185.1011 374.4023,184.9851 L374.4023,184.9851 L374.4023,187.3631 C374.4023,188.832433 373.9673,190.330767 373.0973,191.8581 C372.2273,193.385433 371.018967,194.651767 369.4723,195.6571 C367.925633,196.662433 366.204967,197.1651 364.3103,197.1651 Z M399.1683,212.4191 C403.266967,212.4191 406.611633,211.587767 409.2023,209.9251 C411.792967,208.262433 413.0883,205.845767 413.0883,202.6751 C413.0883,200.741767 412.614633,199.272433 411.6673,198.2671 C410.719967,197.261767 409.5793,196.5851 408.2453,196.2371 C406.9113,195.8891 405.3163,195.637767 403.4603,195.4831 L403.4603,195.4831 L401.1983,195.3091 C398.6463,195.0771 396.770967,194.883767 395.5723,194.7291 C394.373633,194.574433 393.464967,194.3231 392.8463,193.9751 C392.072967,193.549767 391.6863,192.892433 391.6863,192.0031 C391.6863,191.3071 391.9183,190.649767 392.3823,190.0311 C392.8463,189.412433 393.503633,188.909767 394.3543,188.5231 C395.939633,189.025767 397.466967,189.2771 398.9363,189.2771 C401.1403,189.2771 403.150967,188.8131 404.9683,187.8851 C406.785633,186.9571 408.225967,185.642433 409.2893,183.9411 C410.352633,182.239767 410.8843,180.2871 410.8843,178.0831 C410.8843,175.724433 410.284967,173.6751 409.0863,171.9351 L409.0863,171.9351 L414.9443,171.9351 C415.1763,171.9351 415.369633,171.857767 415.5243,171.7031 C415.678967,171.548433 415.7563,171.3551 415.7563,171.1231 L415.7563,171.1231 L415.7563,168.4551 C415.7563,168.2231 415.678967,168.029767 415.5243,167.8751 C415.369633,167.720433 415.1763,167.6431 414.9443,167.6431 L414.9443,167.6431 L403.4603,167.6431 C401.9523,167.140433 400.4443,166.8891 398.9363,166.8891 C396.7323,166.8891 394.721633,167.3531 392.9043,168.2811 C391.086967,169.2091 389.646633,170.523767 388.5833,172.2251 C387.519967,173.926433 386.9883,175.8791 386.9883,178.0831 C386.9883,179.900433 387.355633,181.553433 388.0903,183.0421 C388.824967,184.530767 389.849633,185.777767 391.1643,186.7831 C390.0043,187.517767 389.085967,188.426433 388.4093,189.5091 C387.732633,190.591767 387.3943,191.732433 387.3943,192.9311 C387.3943,193.897767 387.616633,194.719433 388.0613,195.3961 C388.505967,196.072767 389.211633,196.739767 390.1783,197.3971 C389.1343,198.2091 388.302967,199.233767 387.6843,200.4711 C387.065633,201.708433 386.7563,203.003767 386.7563,204.3571 C386.7563,207.0251 387.906633,209.035767 390.2073,210.3891 C392.507967,211.742433 395.494967,212.4191 399.1683,212.4191 Z M398.9363,185.2751 C396.654967,185.2751 394.827967,184.6081 393.4553,183.2741 C392.082633,181.9401 391.3963,180.209767 391.3963,178.0831 C391.3963,175.956433 392.082633,174.2261 393.4553,172.8921 C394.827967,171.5581 396.654967,170.8911 398.9363,170.8911 C401.217633,170.8911 403.044633,171.5581 404.4173,172.8921 C405.789967,174.2261 406.4763,175.956433 406.4763,178.0831 C406.4763,180.209767 405.789967,181.9401 404.4173,183.2741 C403.044633,184.6081 401.217633,185.2751 398.9363,185.2751 Z M399.6903,208.4171 C397.1383,208.4171 395.040633,208.020767 393.3973,207.2281 C391.753967,206.435433 390.9323,205.149767 390.9323,203.3711 C390.9323,202.481767 391.154633,201.611767 391.5993,200.7611 C392.043967,199.910433 392.652967,199.1951 393.4263,198.6151 C394.044967,198.7311 394.8183,198.8471 395.7463,198.9631 C397.292967,199.156433 398.713967,199.301433 400.0093,199.3981 C401.304633,199.494767 402.1263,199.562433 402.4743,199.6011 C404.0983,199.755767 405.325967,199.9201 406.1573,200.0941 C406.988633,200.2681 407.645967,200.5871 408.1293,201.0511 C408.612633,201.5151 408.8543,202.2111 408.8543,203.1391 C408.8543,204.956433 408.003633,206.290433 406.3023,207.1411 C404.600967,207.991767 402.396967,208.4171 399.6903,208.4171 Z M441.3923,200.4711 C441.6243,200.4711 441.817633,200.393767 441.9723,200.2391 C442.126967,200.084433 442.2043,199.8911 442.2043,199.6591 L442.2043,199.6591 L442.2043,196.9911 C442.2043,196.7591 442.126967,196.565767 441.9723,196.4111 C441.817633,196.256433 441.6243,196.1791 441.3923,196.1791 L441.3923,196.1791 L432.9823,196.1791 C431.512967,196.1791 430.159633,195.821433 428.9223,195.1061 C427.684967,194.390767 426.708633,193.414433 425.9933,192.1771 C425.277967,190.939767 424.9203,189.586433 424.9203,188.1171 L424.9203,188.1171 L424.9203,185.5651 L443.4803,185.5651 C444.0603,185.5651 444.5533,185.3621 444.9593,184.9561 C445.3653,184.5501 445.5683,184.0571 445.5683,183.4771 L445.5683,183.4771 L445.5683,179.5331 C445.5683,177.251767 445.007633,175.134767 443.8863,173.1821 C442.764967,171.229433 441.237633,169.692433 439.3043,168.5711 C437.370967,167.449767 435.263633,166.8891 432.9823,166.8891 C430.700967,166.8891 428.593633,167.449767 426.6603,168.5711 C424.726967,169.692433 423.199633,171.229433 422.0783,173.1821 C420.956967,175.134767 420.3963,177.251767 420.3963,179.5331 L420.3963,179.5331 L420.3963,187.8271 C420.3963,190.108433 420.956967,192.225433 422.0783,194.1781 C423.199633,196.130767 424.726967,197.667767 426.6603,198.7891 C428.593633,199.910433 430.700967,200.4711 432.9823,200.4711 L432.9823,200.4711 L441.3923,200.4711 Z M441.0443,181.3891 L424.9203,181.3891 L424.9203,179.2431 C424.9203,177.773767 425.277967,176.420433 425.9933,175.1831 C426.708633,173.945767 427.684967,172.969433 428.9223,172.2541 C430.159633,171.538767 431.512967,171.1811 432.9823,171.1811 C434.451633,171.1811 435.804967,171.538767 437.0423,172.2541 C438.279633,172.969433 439.255967,173.945767 439.9713,175.1831 C440.686633,176.420433 441.0443,177.773767 441.0443,179.2431 L441.0443,179.2431 L441.0443,181.3891 Z" id="path-1"></path>
    </defs>
    <g id="OSGeo_heritage" stroke="none" stroke-width="1" fill="none" fill-rule="evenodd">
        <g id="Group" transform="translate(7.000000, 7.000000)" fill-rule="nonzero">
            <path d="M218.7,131.7 C213.7,128.8 209.7,124.8 206.8,119.8 C203.9,114.8 202.4,109.3 202.4,103.3 L202.4,76.8 C202.4,70.8 203.9,65.3 206.8,60.3 C209.7,55.3 213.7,51.3 218.7,48.4 C223.7,45.5 229.2,44 235.1,44 C241,44 246.5,45.5 251.5,48.4 C256.5,51.3 260.5,55.3 263.4,60.3 C266.3,65.3 267.8,70.8 267.8,76.8 L267.8,103.3 C267.8,109.3 266.3,114.8 263.4,119.8 C260.5,124.8 256.5,128.8 251.5,131.7 C246.5,134.6 241,136.1 235.1,136.1 C229.2,136.1 223.7,134.6 218.7,131.7 M243.9,119.1 C246.6,117.4 248.8,115.2 250.4,112.4 C252,109.6 252.8,106.6 252.8,103.3 L252.8,76.8 C252.8,73.6 252,70.5 250.4,67.7 C248.8,64.9 246.6,62.6 243.9,61 C241.2,59.4 238.3,58.5 235.1,58.5 C232,58.5 229,59.3 226.3,61 C223.6,62.7 221.4,64.9 219.8,67.7 C218.2,70.5 217.4,73.5 217.4,76.8 L217.4,103.3 C217.4,106.5 218.2,109.6 219.8,112.4 C221.4,115.2 223.6,117.5 226.3,119.1 C229,120.8 231.9,121.6 235.1,121.6 C238.2,121.5 241.2,120.7 243.9,119.1" id="Shape" fill="#4DB05B"></path>
            <path d="M291.8,133.8 C287.5,132.4 283.5,130.3 279.8,127.8 C279.4,127.6 279.1,127.1 278.9,126.5 C278.7,125.9 278.8,125.3 279,124.8 L283.3,117 C283.8,116 284.6,115.5 285.6,115.5 C286.3,115.5 286.9,115.7 287.5,116 C293.7,119.9 299.4,121.8 304.8,121.8 C309.2,121.8 312.6,120.7 315.1,118.6 C317.6,116.5 318.9,113.7 318.9,110.3 C318.9,108.1 318.3,106.2 317,104.6 C315.8,103.1 314.1,101.8 312.1,100.7 C310,99.6 307,98.3 303.1,96.7 L299.5,95.2 C293.9,92.8 289.2,89.7 285.4,86 C281.6,82.3 279.6,76.8 279.6,69.6 C279.6,64.5 280.7,60.1 283,56.2 C285.3,52.3 288.4,49.3 292.5,47.1 C296.5,44.9 301.2,43.9 306.5,43.9 C310.9,43.9 315.2,44.6 319.5,46.1 C323.8,47.6 327.7,49.6 331.2,52.1 C331.6,52.3 331.9,52.8 332.1,53.4 C332.3,54 332.2,54.6 332,55.1 L327.9,62.9 C327.4,63.9 326.6,64.4 325.5,64.4 C324.8,64.4 324.2,64.2 323.6,63.9 C320.4,61.8 317.3,60.3 314.4,59.4 C311.5,58.5 308.9,58 306.6,58 C302.9,58 300,59 297.8,61 C295.7,63 294.6,65.6 294.6,68.8 C294.6,72 295.8,74.7 298.1,76.8 C300.5,78.9 304.2,81 309.4,83.2 C310.1,83.4 313,84.6 317.9,86.6 C322.8,88.6 326.7,91.6 329.6,95.5 C332.5,99.4 333.9,104 333.9,109.3 C333.9,114.4 332.7,119 330.3,123 C327.9,127 324.5,130.1 320.1,132.4 C315.7,134.7 310.7,135.8 305,135.8 C300.5,136 296.1,135.2 291.8,133.8" id="Shape" fill="#4DB05B"></path>
            <path d="M361.8,131.7 C356.8,128.8 352.9,124.8 349.9,119.8 C347,114.8 345.5,109.3 345.5,103.3 L345.5,76.8 C345.5,70.8 347,65.3 349.9,60.3 C352.8,55.3 356.8,51.3 361.8,48.4 C366.8,45.5 372.2,44 378.2,44 C383.4,44 388.2,44.9 392.7,46.8 C397.1,48.7 400.9,51.4 404.1,54.9 C404.6,55.5 404.8,56.2 404.8,57 C404.8,57.8 404.5,58.7 403.8,59.5 L398.4,65.2 C397.7,65.9 397.1,66.2 396.4,66.2 C395.6,66.2 394.8,65.8 394.2,65.1 C390.1,60.7 384.8,58.5 378.4,58.5 C375.3,58.5 372.3,59.3 369.6,61 C366.9,62.7 364.7,64.9 363.1,67.7 C361.5,70.5 360.7,73.5 360.7,76.8 L360.7,103.3 C360.7,106.5 361.5,109.6 363.1,112.4 C364.7,115.2 366.9,117.5 369.6,119.1 C372.3,120.8 375.2,121.6 378.4,121.6 C381.5,121.6 384.5,120.8 387.2,119.2 C389.9,117.6 392.1,115.5 393.6,112.7 C395.2,110 395.9,107 395.9,103.8 L395.9,97.7 L379.3,97.7 C378.6,97.7 377.9,97.5 377.4,97 C376.9,96.5 376.7,95.9 376.7,95.1 L376.7,86.2 C376.7,85.5 376.9,84.8 377.4,84.3 C377.9,83.8 378.5,83.6 379.3,83.6 L405.4,83.6 C406.9,83.6 408.1,84.1 409.2,85.1 C410.2,86.1 410.7,87.4 410.7,88.9 L410.7,103.3 C410.7,109.3 409.2,114.8 406.3,119.8 C403.4,124.8 399.4,128.8 394.4,131.7 C389.4,134.6 384,136.1 378.2,136.1 C372.2,136.1 366.8,134.6 361.8,131.7" id="Shape" fill="#003A40"></path>
            <path d="M438,130.5 C433.5,127.9 429.9,124.2 427.3,119.7 C424.7,115.2 423.3,110.2 423.3,104.8 L423.3,91.4 C423.3,86 424.6,81 427.3,76.5 C429.9,72 433.5,68.3 438,65.7 C442.5,63.1 447.4,61.7 452.8,61.7 C458.2,61.7 463.1,63 467.6,65.7 C472.1,68.3 475.7,72 478.3,76.5 C480.9,81.1 482.3,86 482.3,91.4 L482.3,99.7 C482.3,101.2 481.8,102.4 480.8,103.5 C479.8,104.5 478.5,105 477,105 L438.3,105 L438.3,105.6 C438.3,109.7 439.7,113.1 442.6,116 C445.5,118.9 448.9,120.3 452.9,120.3 L472.5,120.3 C473.2,120.3 473.9,120.6 474.4,121.1 C474.9,121.6 475.1,122.2 475.1,123 L475.1,132 C475.1,132.7 474.9,133.4 474.4,133.9 C473.9,134.4 473.3,134.6 472.5,134.6 L452.9,134.6 C447.4,134.5 442.4,133.1 438,130.5 L438,130.5 Z M467.3,91.6 L467.3,90.5 C467.3,86.4 465.9,83 463,80.1 C460.2,77.2 456.7,75.8 452.7,75.8 C448.7,75.8 445.2,77.2 442.4,80.1 C439.6,83 438.1,86.4 438.1,90.5 L438.1,91.6 L467.3,91.6 Z" id="Shape" fill="#003A40"></path>
            <path d="M508,132.2 C503.5,129.6 499.9,126.1 497.3,121.6 C494.7,117.1 493.4,112.3 493.4,107.1 L493.4,90.7 C493.4,85.5 494.7,80.6 497.3,76.2 C499.9,71.7 503.5,68.2 508,65.6 C512.5,63 517.4,61.7 522.8,61.7 C528.2,61.7 533.1,63 537.6,65.6 C542.1,68.2 545.7,71.8 548.3,76.2 C550.9,80.7 552.3,85.5 552.3,90.7 L552.3,107 C552.3,112.2 551,117.1 548.3,121.5 C545.7,126 542.1,129.5 537.6,132.1 C533.1,134.7 528.2,136 522.8,136 C517.4,136.1 512.4,134.8 508,132.2 M533,117.4 C535.8,114.5 537.3,111.1 537.3,107 L537.3,90.7 C537.3,86.6 535.9,83.2 533,80.3 C530.2,77.4 526.7,76 522.7,76 C518.7,76 515.2,77.4 512.4,80.3 C509.6,83.2 508.1,86.6 508.1,90.7 L508.1,107 C508.1,111.1 509.5,114.5 512.4,117.4 C515.2,120.3 518.7,121.7 522.7,121.7 C526.8,121.7 530.2,120.2 533,117.4" id="Shape" fill="#003A40"></path>
            <path d="M85.5,36.2 L85.5,18.2 L85.5,0 L74.2,19.8 C43.4,26.7 20.1,53.2 18.1,85.6 L36.2,85.6 C38.4,59.3 59.3,38.4 85.5,36.2" id="Shape" fill="#4DB05B"></path>
            <path d="M36.2,94.6 L18.2,94.6 L0,94.6 L19.8,105.9 C26.7,136.7 53.2,160 85.6,162 L85.6,143.9 C59.3,141.7 38.4,120.8 36.2,94.6" id="Shape" fill="#003A40"></path>
            <path d="M143.9,85.5 L162,85.5 L180.2,85.5 L160.4,74.2 C153.5,43.4 127,20.1 94.6,18.1 L94.6,36.2 C120.8,38.4 141.7,59.3 143.9,85.5" id="Shape" fill="#003A40"></path>
            <path d="M94.5,143.9 L94.5,162 L94.5,180.2 L105.8,160.4 C136.6,153.5 159.9,127 161.9,94.6 L143.8,94.6 C141.7,120.8 120.8,141.7 94.5,143.9" id="Shape" fill="#4DB05B"></path>
            <path d="M95.6,84.5 L62.2,62.2 L84.5,95.6 L117.9,117.9 L95.6,84.5 Z M90,93.9 C87.8,93.9 86.1,92.1 86.1,90 C86.1,87.8 87.9,86.1 90,86.1 C92.2,86.1 93.9,87.9 93.9,90 C93.9,92.1 92.2,93.9 90,93.9 L90,93.9 Z" id="Shape" fill="#003A40"></path>
            <polygon id="Shape" fill="#4DB05B" points="84.5 95.6 77 84.4 42.8 90.1 77 95.7 62.2 117.9 84.3 103.1 90 137.3 95.7 103.1"></polygon>
            <polygon id="Shape" fill="#4DB05B" points="103.1 84.4 117.9 62.2 95.7 77 90 42.8 84.4 77 95.6 84.5 103.1 95.7 137.3 90"></polygon>
        </g>
        <g id="Heritage" fill-rule="nonzero">
            <use fill="#000000" xlink:href="#path-1"></use>
            <use fill="#0B3A42" xlink:href="#path-1"></use>
        </g>
    </g>
</svg>