<?xml version="1.0" encoding="UTF-8"?>
<svg width="596px" height="843px" viewBox="0 0 596 843" version="1.1" xmlns="http://www.w3.org/2000/svg" xmlns:xlink="http://www.w3.org/1999/xlink">
    <!-- Generator: Sketch 44.1 (41455) - http://www.bohemiancoding.com/sketch -->
    <title>geonetwork_a4</title>
    <desc>Created with Sketch.</desc>
    <defs>
        <radialGradient cx="52.0486551%" cy="53.0608166%" fx="52.0486551%" fy="53.0608166%" r="60.0293666%" gradientTransform="translate(0.520487,0.530608),scale(0.854647,1.000000),translate(-0.520487,-0.530608)" id="radialGradient-1">
            <stop stop-color="#CDCD08" offset="0%"></stop>
            <stop stop-color="#CDCD08" offset="58.74%"></stop>
            <stop stop-color="#998675" offset="100%"></stop>
        </radialGradient>
        <radialGradient cx="34.2749516%" cy="51.5256423%" fx="34.2749516%" fy="51.5256423%" r="33.9707474%" gradientTransform="translate(0.342750,0.515256),scale(0.976845,1.000000),translate(-0.342750,-0.515256)" id="radialGradient-2">
            <stop stop-color="#0D71B9" offset="0%"></stop>
            <stop stop-color="#1C3761" offset="100%"></stop>
        </radialGradient>
    </defs>
    <g id="Page-1" stroke="none" stroke-width="1" fill="none" fill-rule="evenodd">
        <g id="A4">
            <g id="geonetwork_a4" transform="translate(0.000000, 37.000000)">
                <g id="Footer" transform="translate(0.000000, 603.000000)">
                    <polygon id="Fill-1" fill="#EAEAEA" fill-rule="nonzero" points="0 201.593814 595.2746 101.5159 595.2746 100.0779 0 0"></polygon>
                    <polygon id="Fill-3" fill="#CFD1D0" fill-rule="nonzero" points="0 201.077914 0 202.409913 595.2746 202.409913 595.2746 101"></polygon>
                    <text id="URL" fill="#00393F" font-family="MiriamLibre-Bold, Miriam Libre" font-size="14" font-weight="bold">
                        <tspan x="314" y="134">www.geonetwork-opensource.org</tspan>
                    </text>
                    <g id="GN-Logo" transform="translate(55.000000, 86.000000)" fill-rule="nonzero">
                        <g id="Group" transform="translate(53.443271, 2.360909)">
                            <g id="Shape" fill="#1C3761">
                                <path d="M12.8222284,19.4556616 L20.2656884,19.4556616 L20.2656884,35.4549523 C17.676065,36.4571582 14.9848994,36.9576709 12.1933792,36.9576709 C8.48738527,36.9576709 5.61094965,35.4165875 3.56407237,32.3338305 C1.51719509,29.2510734 0.493459537,24.9736964 0.493459537,19.5016993 C0.493459537,14.0143564 1.5516363,9.76058841 3.66917747,6.739215 C5.785531,3.71843182 8.75875832,2.20745 12.5888594,2.20745 C15.1636375,2.20745 17.5905558,2.93224909 19.8702082,4.38125705 L18.7764026,6.3691425 C16.6362965,5.01280023 14.5745738,4.33462909 12.5888594,4.33462909 C9.4095786,4.33462909 7.00225614,5.63371932 5.36689205,8.23071932 C3.73034032,10.8283095 2.91265828,14.600452 2.91265828,19.5483273 C2.91265828,24.3887811 3.73865372,28.1379048 5.3900508,30.7968786 C7.04144788,33.4558525 9.37929408,34.7856345 12.4035894,34.7856345 C14.5745738,34.7856345 16.4272739,34.5005548 17.9622834,33.929805 L17.9622834,21.6300589 L12.8222284,21.6300589 L12.8222284,19.4556616 L12.8222284,19.4556616 Z"></path>
                                <path d="M31.0725116,36.9576709 C28.4050986,36.9576709 26.3546584,35.8291564 24.9200035,33.5709468 C23.4853486,31.3133275 22.7686149,28.164465 22.7686149,24.12613 C22.7686149,19.84108 23.4081527,16.5694502 24.6872284,14.3112407 C25.9668978,12.0536214 27.8077216,10.9239264 30.212075,10.9239264 C32.3052698,10.9239264 33.9572606,11.914918 35.16686,13.8951305 C36.3764594,15.875343 36.9809622,18.5461214 36.9809622,21.9062852 L36.9809622,23.9407986 L25.0245148,23.9407986 C25.0559869,27.5937152 25.5755743,30.3300089 26.5832769,32.1484991 C27.5909794,33.9675795 29.1188632,34.8765295 31.1657405,34.8765295 C32.7476613,34.8765295 34.4144975,34.3600807 36.166843,33.3277732 L36.166843,35.4549523 C34.55345,36.4577484 32.8557354,36.9576709 31.0725116,36.9576709 Z M30.0725287,12.912402 C27.033388,12.912402 25.3653641,15.9261025 25.0714261,21.952323 L34.7713798,21.952323 C34.7713798,19.1936007 34.3485842,16.9967748 33.5035867,15.3630257 C32.6579953,13.7298668 31.5143093,12.912402 30.0725287,12.912402 Z"></path>
                                <path d="M54.4177201,23.8947609 C54.4177201,28.117837 53.7467101,31.351102 52.4058778,33.5939657 C51.0638579,35.8368293 49.1446507,36.9576709 46.6488499,36.9576709 C44.1833337,36.9576709 42.2950048,35.8368293 40.984457,33.5939657 C39.6739092,31.351102 39.0183384,28.1184273 39.0183384,23.8947609 C39.0183384,15.2473411 41.5931165,10.9233361 46.7414849,10.9233361 C49.1606836,10.9233361 51.0448559,12.0565725 52.3945954,14.322455 C53.7431472,16.5883375 54.4177201,19.7796964 54.4177201,23.8947609 Z M41.3217434,23.8947609 C41.3217434,27.5169857 41.7552277,30.2526891 42.6239778,32.1024614 C43.4927278,33.9522336 44.8489993,34.8765295 46.6945736,34.8765295 C50.3073387,34.8765295 52.1143151,31.21594 52.1143151,23.8947609 C52.1143151,16.6343752 50.3073387,13.0050677 46.6945736,13.0050677 C44.802088,13.0050677 43.4339402,13.914608 42.5889427,15.7330982 C41.7439452,17.5521786 41.3217434,20.2731264 41.3217434,23.8947609 Z"></path>
                                <path d="M75.8544099,36.495523 L72.947096,36.495523 L60.0838944,6.18440136 L59.8986244,6.18440136 C60.0838944,8.28088864 60.1777171,10.3000561 60.1777171,12.2424941 L60.1777171,36.4961132 L57.9443822,36.4961132 L57.9443822,2.69320705 L60.8986074,2.69320705 L73.669174,32.6578652 L73.8087203,32.6578652 C73.6840193,30.130512 73.6228565,28.0186789 73.6228565,26.3229559 L73.6228565,2.69379727 L75.8555976,2.69379727 L75.8555976,36.495523 L75.8544099,36.495523 Z"></path>
                                <path d="M87.73188,36.9576709 C85.064467,36.9576709 83.0140268,35.8291564 81.5793719,33.5709468 C80.1453108,31.3133275 79.4279833,28.164465 79.4279833,24.12613 C79.4279833,19.84108 80.068115,16.5694502 81.3471906,14.3112407 C82.6262662,12.0536214 84.4676838,10.9239264 86.8714434,10.9239264 C88.9646382,10.9239264 90.616629,11.914918 91.8262284,13.8951305 C93.0358278,15.875343 93.6409244,18.5461214 93.6409244,21.9062852 L93.6409244,23.9407986 L81.684477,23.9407986 C81.7153553,27.5937152 82.2349427,30.3300089 83.2432391,32.1484991 C84.2509416,33.9675795 85.7788254,34.8765295 87.8257027,34.8765295 C89.4070297,34.8765295 91.0744597,34.3600807 92.8268052,33.3277732 L92.8268052,35.4549523 C91.2134122,36.4577484 89.5156977,36.9576709 87.73188,36.9576709 Z M86.7324909,12.912402 C83.6927564,12.912402 82.0253263,15.9261025 81.7313883,21.952323 L91.4307482,21.952323 C91.4307482,19.1936007 91.0085464,16.9967748 90.1629551,15.3630257 C89.3173637,13.7298668 88.1736777,12.912402 86.7324909,12.912402 Z"></path>
                                <path d="M101.493522,34.9231575 C102.175815,34.9231575 102.780318,34.831082 103.308218,34.6457507 L103.308218,36.495523 C102.625926,36.8036216 101.749456,36.9576709 100.679997,36.9576709 C98.0737468,36.9576709 96.7715124,35.0240864 96.7715124,31.1545564 L96.7715124,13.3515311 L94.4924538,13.3515311 L94.4924538,12.0571627 L96.7251949,11.4096834 L97.4466791,5.44484659 L98.9816886,5.44484659 L98.9816886,11.4096834 L102.982214,11.4096834 L102.982214,13.3515311 L98.9816886,13.3515311 L98.9816886,30.5300959 C98.9816886,32.2258189 99.1675524,33.3820741 99.5398739,33.9982714 C99.9121953,34.6150589 100.563016,34.9231575 101.493522,34.9231575 Z"></path>
                                <path d="M118.953439,36.495523 L115.464187,19.5016993 C115.432715,19.3783418 115.4054,19.2473114 115.382241,19.108608 C115.359082,18.9704948 115.115025,17.4902048 114.650068,14.6695086 L114.603157,14.6695086 L114.277747,16.6343752 L113.74272,19.5011091 L110.137675,36.4949327 L107.508859,36.4949327 L102.019642,11.4090932 L104.229224,11.4090932 L107.369907,26.0213498 L108.83544,33.6512177 L108.974986,33.6512177 C109.254079,31.4473091 109.703596,28.8886739 110.323538,25.975312 L113.463627,11.4090932 L115.789597,11.4090932 L118.953439,26.0213498 C119.201653,27.1156311 119.643451,29.6589205 120.278832,33.6512177 L120.417785,33.6512177 C120.46529,33.143032 120.693908,31.8634193 121.104234,29.8129698 C121.514559,27.7631105 122.82867,21.6288784 125.047753,11.4090932 L127.234177,11.4090932 L121.557908,36.4949327 L118.953439,36.4949327 L118.953439,36.495523 Z"></path>
                                <path d="M142.902556,23.8947609 C142.902556,28.117837 142.231546,31.351102 140.89012,33.5939657 C139.548694,35.8368293 137.630081,36.9576709 135.133686,36.9576709 C132.66817,36.9576709 130.779841,35.8368293 129.469293,33.5939657 C128.158746,31.351102 127.503769,28.1184273 127.503769,23.8947609 C127.503769,15.2473411 130.077359,10.9233361 135.226321,10.9233361 C137.64552,10.9233361 139.529692,12.0565725 140.878838,14.322455 C142.228577,16.5883375 142.902556,19.7796964 142.902556,23.8947609 Z M129.807174,23.8947609 C129.807174,27.5169857 130.240658,30.2526891 131.109408,32.1024614 C131.977564,33.9522336 133.334429,34.8765295 135.180004,34.8765295 C138.792769,34.8765295 140.599745,31.21594 140.599745,23.8947609 C140.599745,16.6343752 138.792769,13.0050677 135.180004,13.0050677 C133.287518,13.0050677 131.91937,13.914608 131.074373,15.7330982 C130.229375,17.5521786 129.807174,20.2731264 129.807174,23.8947609 Z"></path>
                                <path d="M153.082312,10.9239264 C153.873272,10.9239264 154.609602,11.0325282 155.292488,11.2479611 L154.757462,13.444787 C154.19987,13.213418 153.625652,13.0977334 153.036588,13.0977334 C152.183277,13.0977334 151.388754,13.5333211 150.651831,14.4039064 C149.915501,15.275672 149.33772,16.4885891 148.919081,18.0456086 C148.500442,19.6026282 148.290826,21.32137 148.290826,23.2012439 L148.290826,36.495523 L146.08065,36.495523 L146.08065,11.4096834 L147.895346,11.4096834 L148.128121,15.8021548 L148.290826,15.8021548 C149.468953,12.5505927 151.066313,10.9239264 153.082312,10.9239264 Z"></path>
                                <polygon points="158.957509 24.0800923 160.376725 21.5362127 166.610585 11.4096834 169.006625 11.4096834 163.191404 20.6349357 169.517899 36.495523 167.191929 36.495523 161.702712 22.6694491 158.911191 26.3217755 158.911191 36.4949327 156.701015 36.4949327 156.701015 0.5194 158.911191 0.5194 158.911191 19.8711816 158.748486 24.079502 158.957509 24.079502"></polygon>
                            </g>
                            <g transform="translate(108.074170, 39.545227)" id="Shape" fill="#B1AD14">
                                <path d="M5.93160928,3.50358909 C5.93160928,4.53589659 5.66973725,5.34214705 5.14658701,5.92234045 C4.62343676,6.50253386 3.89957735,6.79292568 2.97797783,6.79292568 C2.40732246,6.79292568 1.90198664,6.65953432 1.45959512,6.39393205 C1.01779741,6.12773955 0.676948101,5.7458625 0.435859567,5.24948136 C0.194771032,4.75310023 0.0754143937,4.17054591 0.0754143937,3.50417932 C0.0754143937,2.47128159 0.33550498,1.66680182 0.854498524,1.09074 C1.37408588,0.514087955 2.09497623,0.226647273 3.01835719,0.226647273 C3.90967219,0.226647273 4.61809244,0.521170682 5.14361794,1.11080773 C5.66854962,1.69985455 5.93160928,2.49725159 5.93160928,3.50358909 Z M1.07599119,3.50358909 C1.07599119,4.31220045 1.23869626,4.92898795 1.5641064,5.35336136 C1.89011035,5.77714455 2.36872454,5.98903614 3.00113658,5.98903614 C3.63236099,5.98903614 4.1121628,5.778325 4.44054201,5.3563125 C4.7677336,4.9343 4.93103248,4.31633205 4.93103248,3.50358909 C4.93103248,2.69792886 4.7677336,2.08645341 4.44054201,1.6685725 C4.1121628,1.25010136 3.62879811,1.04175114 2.98985411,1.04175114 C2.35803588,1.04175114 1.88120314,1.24774045 1.55876207,1.66030932 C1.23691482,2.07169773 1.07599119,2.68612432 1.07599119,3.50358909 Z"></path>
                                <path d="M10.2913926,6.79233545 C9.87750413,6.79233545 9.4980569,6.71560591 9.15483234,6.56332727 C8.81160778,6.41104864 8.52420174,6.17731864 8.29142661,5.86154705 L8.22195035,5.86154705 C8.26826785,6.23161955 8.29142661,6.58221455 8.29142661,6.91333205 L8.29142661,9.52036591 L7.32588484,9.52036591 L7.32588484,0.341151364 L8.11090711,0.341151364 L8.2451091,1.20819523 L8.29142661,1.20819523 C8.53964091,0.861731818 8.82823457,0.610885227 9.15839523,0.457426136 C9.48796206,0.302786591 9.86562785,0.226057045 10.2913926,0.226057045 C11.1369839,0.226057045 11.7895856,0.5129075 12.2491977,1.08719864 C12.7088099,1.66148977 12.9380221,2.46655977 12.9380221,3.50358909 C12.9380221,4.54415977 12.7034655,5.35218091 12.2373215,5.9276525 C11.7699897,6.50430455 11.1215447,6.79233545 10.2913926,6.79233545 Z M10.1524401,1.04116091 C9.50043216,1.04116091 9.02953756,1.21999977 8.73975627,1.57826773 C8.44878735,1.93653568 8.29914619,2.50669523 8.29142661,3.28933659 L8.29142661,3.50299886 C8.29142661,4.39306159 8.44047395,5.02991682 8.73975627,5.41297432 C9.03785096,5.79603182 9.51705896,5.98844591 10.1755988,5.98844591 C10.7266583,5.98844591 11.1577674,5.76652045 11.4701136,5.32325977 C11.781866,4.88058932 11.9374453,4.26970409 11.9374453,3.49119432 C11.9374453,2.70147023 11.781866,2.09589705 11.4701136,1.67388455 C11.1583612,1.25187205 10.7183449,1.04116091 10.1524401,1.04116091 Z"></path>
                                <path d="M17.0187128,6.79233545 C16.0763298,6.79233545 15.3328745,6.50725568 14.7883469,5.93650591 C14.2438194,5.36634636 13.9712587,4.57426136 13.9712587,3.56143136 C13.9712587,2.54033818 14.2242235,1.72936591 14.7301531,1.12792432 C15.2360828,0.526482727 15.9154061,0.226647273 16.768717,0.226647273 C17.567397,0.226647273 18.1992153,0.487527727 18.6641717,1.00928864 C19.1291282,1.53163977 19.3619033,2.220435 19.3619033,3.07567432 L19.3619033,3.68242795 L14.9712417,3.68242795 C14.9902437,4.42670455 15.1796704,4.99096182 15.5383342,5.37638023 C15.8969979,5.76120841 16.4017399,5.95421273 17.053154,5.95421273 C17.7390093,5.95421273 18.4177389,5.81196795 19.0887488,5.52629795 L19.0887488,6.3821275 C18.7478995,6.52850386 18.4248646,6.63356432 18.120238,6.69671864 C17.8156113,6.75987295 17.449228,6.79233545 17.0187128,6.79233545 Z M16.7574346,1.02876614 C16.2455668,1.02876614 15.8376165,1.19462 15.5329898,1.52632773 C15.2283632,1.85803545 15.0496251,2.31605182 14.9949942,2.9021475 L18.3268853,2.9021475 C18.3268853,2.29716455 18.1909019,1.83324591 17.9195288,1.51216227 C17.6481557,1.19107864 17.2609889,1.02876614 16.7574346,1.02876614 Z"></path>
                                <path d="M25.0720199,6.67665091 L25.0720199,2.57870295 C25.0720199,2.06225409 24.9538509,1.67742591 24.7169191,1.42244773 C24.4805811,1.16805977 24.1106349,1.04116091 23.6064867,1.04116091 C22.9396334,1.04116091 22.4515182,1.21999977 22.1409534,1.57826773 C21.8303886,1.93653568 21.6759969,2.52794341 21.6759969,3.35308114 L21.6759969,6.67665091 L20.7104552,6.67665091 L20.7104552,0.341741591 L21.4954775,0.341741591 L21.6528382,1.20878545 L21.6991557,1.20878545 C21.8968958,0.897145455 22.174207,0.655152273 22.5304955,0.483396136 C22.8873778,0.31164 23.2846394,0.226057045 23.7228742,0.226057045 C24.4900821,0.226057045 25.0678632,0.410207955 25.4556238,0.777919545 C25.8427907,1.14622136 26.0369679,1.73467795 26.0369679,2.54387955 L26.0369679,6.67665091 L25.0720199,6.67665091 L25.0720199,6.67665091 Z"></path>
                                <path d="M31.8337813,4.94846545 C31.8337813,5.53751227 31.6128825,5.9925775 31.1710848,6.31248068 C30.7292871,6.63238386 30.1087513,6.79233545 29.3100713,6.79233545 C28.46448,6.79233545 27.8059401,6.65894409 27.3326703,6.39334182 L27.3326703,5.50268886 C27.6390784,5.65732841 27.9674576,5.778325 28.3184017,5.86685909 C28.6693459,5.95539318 29.0072261,6.00025045 29.3332301,6.00025045 C29.8373783,6.00025045 30.2245451,5.91997955 30.4959181,5.76061818 C30.7672912,5.60066659 30.9032746,5.3563125 30.9032746,5.02932659 C30.9032746,4.78261159 30.7957943,4.57190045 30.5808335,4.39660295 C30.3658728,4.22130545 29.9460462,4.01413568 29.3219476,3.77509364 C28.7287273,3.55552909 28.3071193,3.36370523 28.0571235,3.19962205 C27.806534,3.03612909 27.6206701,2.84961727 27.4989382,2.64185727 C27.3766125,2.43350705 27.3154497,2.18561159 27.3154497,1.89640023 C27.3154497,1.37995136 27.5262537,0.972694545 27.9490493,0.674039545 C28.371845,0.375384545 28.9514076,0.226057045 29.6877371,0.226057045 C30.3741862,0.226057045 31.0446024,0.364170227 31.7001732,0.642167273 L31.3575424,1.4218575 C30.7174108,1.16038682 30.1378482,1.02876614 29.6182608,1.02876614 C29.1604302,1.02876614 28.8154242,1.10018364 28.5832428,1.24301864 C28.3504677,1.38526341 28.2340801,1.58180909 28.2340801,1.83206545 C28.2340801,2.00205091 28.2780224,2.14606636 28.365313,2.2658825 C28.4520099,2.38510841 28.5933377,2.49902227 28.7869211,2.60644364 C28.9805045,2.713865 29.3528259,2.87027523 29.9038854,3.07449386 C30.659217,3.34835932 31.170491,3.62399545 31.4359259,3.90081205 C31.7013608,4.17939932 31.8337813,4.52822364 31.8337813,4.94846545 Z"></path>
                                <path d="M38.6080129,3.50358909 C38.6080129,4.53589659 38.3461408,5.34214705 37.8229906,5.92234045 C37.2992465,6.50253386 36.5759809,6.79292568 35.6537876,6.79292568 C35.0843199,6.79292568 34.5777964,6.65953432 34.1359987,6.39393205 C33.694201,6.12773955 33.3527579,5.7458625 33.1122631,5.24948136 C32.8717684,4.75251 32.751818,4.17054591 32.751818,3.50417932 C32.751818,2.47128159 33.0119086,1.66680182 33.5309021,1.09074 C34.0504895,0.514087955 34.7713798,0.226647273 35.694167,0.226647273 C36.5860758,0.226647273 37.294496,0.521170682 37.8200215,1.11080773 C38.345547,1.70044477 38.6080129,2.49725159 38.6080129,3.50358909 Z M33.751801,3.50358909 C33.751801,4.31220045 33.914506,4.92898795 34.2399162,5.35336136 C34.5659201,5.77714455 35.0445343,5.98903614 35.6763525,5.98903614 C36.3081708,5.98903614 36.7879726,5.778325 37.115758,5.3563125 C37.4435434,4.9343 37.6074361,4.31633205 37.6074361,3.50358909 C37.6074361,2.69792886 37.4435434,2.08645341 37.115758,1.6685725 C36.7879726,1.25010136 36.3046079,1.04175114 35.6650701,1.04175114 C35.0338457,1.04175114 34.5564191,1.24774045 34.2345718,1.66030932 C33.9121308,2.07169773 33.751801,2.68612432 33.751801,3.50358909 Z"></path>
                                <path d="M40.9096364,0.341151364 L40.9096364,4.45090386 C40.9096364,4.96735273 41.0278054,5.35277114 41.2647373,5.60715909 C41.5016691,5.86154705 41.8710215,5.98844591 42.3751697,5.98844591 C43.0420229,5.98844591 43.5295443,5.80665591 43.8383277,5.44484659 C44.1465172,5.08303727 44.300315,4.49103932 44.300315,3.67003318 L44.300315,0.340561136 L45.265263,0.340561136 L45.265263,6.67547045 L44.4689583,6.67547045 L44.3294119,5.82613341 L44.2771563,5.82613341 C44.0794162,6.13777341 43.8050741,6.37740568 43.4541299,6.54266932 C43.1031858,6.70852318 42.7023612,6.79174523 42.2534378,6.79174523 C41.4779165,6.79174523 40.8977601,6.60818455 40.5111871,6.24224364 C40.1258018,5.87630273 39.9328122,5.29079727 39.9328122,4.48454682 L39.9328122,0.340561136 L40.9096364,0.340561136 L40.9096364,0.341151364 Z"></path>
                                <path d="M49.9219534,0.226057045 C50.2052027,0.226057045 50.4587613,0.249075909 50.6838169,0.295113636 L50.5496149,1.18517636 C50.2859614,1.12733409 50.0531863,1.09900318 49.8518833,1.09900318 C49.3358588,1.09900318 48.8952487,1.30735341 48.5282716,1.72346364 C48.1624821,2.13957386 47.9789935,2.65779341 47.9789935,3.27812227 L47.9789935,6.67724114 L47.0134518,6.67724114 L47.0134518,0.342331818 L47.8103503,0.342331818 L47.9207998,1.51570364 L47.9677111,1.51570364 C48.2034553,1.103725 48.4890799,0.7855925 48.8222096,0.561896364 C49.156527,0.33761 49.5223165,0.226057045 49.9219534,0.226057045 Z"></path>
                                <path d="M54.1249697,6.79233545 C53.2021826,6.79233545 52.4878242,6.50961659 51.9824884,5.94476909 C51.4759649,5.38051182 51.2235939,4.58193432 51.2235939,3.54903659 C51.2235939,2.48898841 51.4807154,1.67034318 51.9943646,1.09251068 C52.5080139,0.514678182 53.2401867,0.225466818 54.1896955,0.225466818 C54.4961035,0.225466818 54.8019178,0.257929318 55.1083259,0.323444545 C55.414734,0.388959773 55.6552287,0.465689318 55.8298101,0.554813636 L55.532903,1.3699175 C55.3197237,1.28492477 55.0869486,1.21468773 54.8351714,1.15920636 C54.5828004,1.10313477 54.3601201,1.07539409 54.1659429,1.07539409 C52.8708343,1.07539409 52.2235769,1.89640023 52.2235769,3.53782227 C52.2235769,4.31574182 52.3815315,4.91305182 52.6974406,5.32916205 C53.0133497,5.74527227 53.4812752,5.9536225 54.101811,5.9536225 C54.6332746,5.9536225 55.1778022,5.84029886 55.7359874,5.61306136 L55.7359874,6.46239841 C55.3102227,6.68196295 54.7728209,6.79233545 54.1249697,6.79233545 Z"></path>
                                <path d="M59.6426906,6.79233545 C58.7003075,6.79233545 57.9568523,6.50725568 57.4123247,5.93650591 C56.8677972,5.36634636 56.5952365,4.57426136 56.5952365,3.56143136 C56.5952365,2.54033818 56.8482013,1.72936591 57.3541309,1.12792432 C57.8600606,0.526482727 58.5393839,0.226647273 59.3926948,0.226647273 C60.1913748,0.226647273 60.823193,0.487527727 61.2881495,1.00928864 C61.753106,1.53163977 61.9858811,2.220435 61.9858811,3.07567432 L61.9858811,3.68242795 L57.5952195,3.68242795 C57.6142215,4.42670455 57.8036482,4.99096182 58.1623119,5.37638023 C58.5209757,5.76120841 59.0257177,5.95421273 59.6771318,5.95421273 C60.3629871,5.95421273 61.0417166,5.81196795 61.7127266,5.52629795 L61.7127266,6.3821275 C61.3718773,6.52850386 61.0488424,6.63356432 60.7442158,6.69671864 C60.4395891,6.75987295 60.0732058,6.79233545 59.6426906,6.79233545 Z M59.3814123,1.02876614 C58.8695446,1.02876614 58.4615943,1.19462 58.1569676,1.52632773 C57.852341,1.85803545 57.6736029,2.31605182 57.618972,2.9021475 L60.9508631,2.9021475 C60.9508631,2.29716455 60.8148796,1.83324591 60.5435066,1.51216227 C60.2721335,1.19107864 59.8855605,1.02876614 59.3814123,1.02876614 Z"></path>
                            </g>
                        </g>
                        <g id="Group">
                            <path d="M21.7157825,35.1326882 C12.1316225,35.1326882 4.23686377,33.6724659 3.19828287,31.8197425 C3.12108703,31.6834 3.0818953,31.5446966 3.0818953,31.4036323 C3.0818953,30.1263805 6.32530804,29.7138116 11.2604972,29.5833714 C14.3317039,29.9634777 17.9040896,30.1612039 21.7151887,30.1612039 C31.077856,30.1612039 38.6679881,31.8215132 38.6679881,33.870192 C38.6679881,34.0401775 38.6163263,34.194817 38.5153779,34.3358814 C37.8200215,35.3109368 34.8099777,35.6485468 30.5636129,35.7630509 C28.2109214,35.3705498 25.1118055,35.1326882 21.7157825,35.1326882 Z M11.5770002,12.0412266 C13.4712672,11.8080868 15.5555548,11.5655034 17.7663248,11.5655034 L17.7669186,11.5655034 C17.9266546,9.82905477 18.1742751,8.92246568 18.3910172,7.76562023 C19.4812599,7.81756023 20.5299357,7.82582341 21.8001041,7.82582341 L21.8001041,11.5655034 L21.7175639,11.5655034 C25.4069311,11.5655034 28.8635231,11.7142407 31.8521896,12.0825425 C35.9928555,11.406142 38.6703633,10.297105 38.6703633,9.07887591 C38.6703633,8.85104818 38.5765407,8.61436705 38.3978027,8.39893409 C36.965523,6.66720727 30.0416503,5.34745909 21.7163763,5.34745909 C13.4582033,5.34745909 6.57827286,6.63592523 5.0705788,8.34581364 C4.86927581,8.57482182 4.76298308,8.81917591 4.76298308,9.06057886 C4.7635769,10.2782177 7.44049097,11.3648261 11.5770002,12.0412266 Z" id="Shape" fill="url(#radialGradient-1)"></path>
                            <path d="M30.0559019,41.0815889 L30.0559019,41.0815889 C29.9133865,40.292455 26.1545431,40.2169059 21.7157825,40.2169059 C15.4474806,40.2169059 10.1898504,39.3244823 8.76825935,38.2319716 L8.77004079,38.2266595 C6.50523372,36.493162 4.60918523,34.3128625 3.19828287,31.8232839 C4.23686377,33.6760073 12.1316225,35.1380002 21.7157825,35.1380002 C25.1118055,35.1380002 28.2109214,35.3794032 30.5642067,35.7719043 C33.3111909,36.2287402 35.0427529,36.9057309 35.0427529,37.6482368 C35.0427529,37.8323877 34.9358663,38.0318845 34.7333757,38.2048211 L34.7321881,38.2567611 C33.307628,39.3551741 31.7375835,40.1342741 30.0559019,41.0815889 Z M38.6685819,33.870192 C38.6685819,34.0401775 38.6169201,34.194817 38.5159717,34.3358814 C40.0741399,32.3137627 41.3639042,29.9758725 42.1085471,27.4715382 C42.144176,27.364707 42.1619904,27.2466616 42.1619904,27.1374695 C42.1619904,24.710455 33.0083457,22.7426373 21.7157825,22.7426373 C10.1156236,22.7426373 0.70129448,20.809643 0.70129448,18.3826284 L0.699513037,18.3342298 C0.546308994,19.3576839 0.466737901,20.4059275 0.466737901,21.471878 C0.466737901,23.0271268 0.635974926,24.5434207 0.956634553,26.0030527 C1.28560758,27.5400045 5.34967144,28.8538505 11.2604972,29.5833714 C14.3317039,29.9634777 17.9040896,30.1612039 21.7151887,30.1612039 C31.0784498,30.1612039 38.6685819,31.8215132 38.6685819,33.870192 Z M25.9478958,12.642078 C26.1800771,14.9410132 26.3243739,17.464825 26.362378,20.1226184 C35.4150743,19.6699141 42.1578337,17.9252023 42.1578337,15.8411098 C42.1578337,15.7313275 42.144176,15.6227257 42.1085471,15.5153043 C41.345496,12.93306 40.0996739,10.556805 38.4749985,8.48864864 C38.6020747,8.67161909 38.6685819,8.85931136 38.6685819,9.04936455 C38.6685819,10.7781402 33.2630919,12.2312798 25.9478958,12.642078 Z M21.8001041,7.82641364 C20.5293419,7.82641364 19.4818538,7.79985341 18.391611,7.74732318 C18.1142998,9.21757932 17.8536154,10.8672645 17.6736898,12.6509314 C10.2777348,12.2519377 4.77901607,10.7911252 4.77901607,9.04936455 C4.77901607,8.85813091 4.83839748,8.66866795 4.9654737,8.4856975 C3.33070342,10.5674291 2.05994119,12.9566691 1.2992653,15.5566202 C1.27135604,15.6510566 1.31411066,15.745493 1.31411066,15.8405195 C1.31411066,18.2675341 10.5253553,20.2353518 21.7995103,20.2353518 L21.7995103,7.82641364 L21.8001041,7.82641364 Z M29.6746732,2.36622114 C29.6746732,1.99142682 29.1301456,1.6426025 28.2037956,1.35752273 L28.2049832,1.35339114 C26.1592936,0.703550909 23.9794019,0.351775455 21.7157825,0.351775455 C19.3874373,0.351775455 17.145789,0.724208864 15.0478437,1.41241386 L15.0484375,1.41595523 C14.2319431,1.68923045 13.7574856,2.01562614 13.7574856,2.36622114 C13.7574856,3.32888182 17.3203704,4.10857205 21.7151887,4.10857205 C26.1117884,4.10857205 29.6746732,3.32888182 29.6746732,2.36622114 Z" id="Shape" fill="url(#radialGradient-2)"></path>
                        </g>
                    </g>
                </g>
                <g id="GeoNetwork" transform="translate(55.307540, 89.000000)">
                    <g id="Configuration" transform="translate(259.000000, 317.000000)">
                        <polygon id="Arrow" fill="#4AB969" fill-rule="nonzero" points="2 209 2 213.883 6.225 211.44"></polygon>
                        <polygon id="Arrow" fill="#4AB969" fill-rule="nonzero" points="2 196 2 200.883 6.225 198.44"></polygon>
                        <polygon id="Arrow" fill="#4AB969" fill-rule="nonzero" points="2 183 2 187.883 6.225 185.44"></polygon>
                        <polygon id="Arrow" fill="#4AB969" fill-rule="nonzero" points="2 171 2 175.883 6.225 173.44"></polygon>
                        <polygon id="Arrow" fill="#4AB969" fill-rule="nonzero" points="2 157 2 161.883 6.225 159.44"></polygon>
                        <polygon id="Arrow" fill="#4AB969" fill-rule="nonzero" points="2 144 2 148.883 6.225 146.44"></polygon>
                        <polygon id="Arrow" fill="#4AB969" fill-rule="nonzero" points="2 131 2 135.883 6.225 133.44"></polygon>
                        <polygon id="Arrow" fill="#4AB969" fill-rule="nonzero" points="2 118 2 122.883 6.225 120.44"></polygon>
                        <text id="OGC-CSW-2.0.2-ISO-Pr" font-family="Sintony" font-size="8.5" font-weight="normal" line-spacing="13" fill="#000000">
                            <tspan x="12" y="123">OGC-CSW 2.0.2 ISO Profile</tspan>
                            <tspan x="12" y="136">OAI-PMH</tspan>
                            <tspan x="12" y="149">Z39.50 protocols</tspan>
                            <tspan x="12" y="162">Thredds</tspan>
                            <tspan x="12" y="175">Webdav</tspan>
                            <tspan x="12" y="188">Web Accessible Folders</tspan>
                            <tspan x="12" y="201">ESRI GeoPortal</tspan>
                            <tspan x="12" y="214">Other GeoNetwork node</tspan>
                        </text>
                        <text id="The-administration-c" font-family="Sintony" font-size="8.5" font-weight="normal" line-spacing="13" fill="#000000">
                            <tspan x="0" y="35">The administration console provides quick </tspan>
                            <tspan x="0" y="48">access to the system configuration. Easily </tspan>
                            <tspan x="0" y="61">manage user and group accounts, classification </tspan>
                            <tspan x="0" y="74">systems from the web interface and schedule </tspan>
                            <tspan x="0" y="87">metadata harvesting from many sources </tspan>
                            <tspan x="0" y="100">including:</tspan>
                        </text>
                        <text id="Easy-configuration" font-family="MiriamLibre-Regular, Miriam Libre" font-size="14" font-weight="normal" fill="#4AB969">
                            <tspan x="0" y="14">Easy configuration</tspan>
                        </text>
                    </g>
                    <g id="Publish" transform="translate(259.000000, 1.000000)">
                        <polygon id="Arrow" fill="#4AB969" fill-rule="nonzero" points="2 276 2 280.883 6.225 278.44"></polygon>
                        <polygon id="Arrow" fill="#4AB969" fill-rule="nonzero" points="2 262 2 266.883 6.225 264.44"></polygon>
                        <polygon id="Arrow" fill="#4AB969" fill-rule="nonzero" points="2 249 2 253.883 6.225 251.44"></polygon>
                        <polygon id="Arrow" fill="#4AB969" fill-rule="nonzero" points="2 237 2 241.883 6.225 239.44"></polygon>
                        <text id="multilingual-metadat" font-family="Sintony" font-size="8.5" font-weight="normal" line-spacing="13" fill="#000000">
                            <tspan x="12" y="241">multilingual metadata editing,</tspan>
                            <tspan x="12" y="254">validation system,</tspan>
                            <tspan x="12" y="267">suggestion to improve metadata quality</tspan>
                            <tspan x="12" y="280">geopublication of layers to publish geodata </tspan>
                            <tspan x="12" y="293">layers in OGC services (eg. GeoServer)</tspan>
                        </text>
                        <text id="The-editor-provides" font-family="Sintony" font-size="8.5" font-weight="normal" line-spacing="13" fill="#000000">
                            <tspan x="0" y="192">The editor provides uploading of data, graphics, </tspan>
                            <tspan x="0" y="205">documents, pdf files and any other content type. It </tspan>
                            <tspan x="0" y="218">supports among other:</tspan>
                        </text>
                        <text id="Publish-&amp;-describe-r" font-family="MiriamLibre-Regular, Miriam Libre" font-size="14" font-weight="normal" fill="#4AB969">
                            <tspan x="0" y="14">Publish &amp; describe resources</tspan>
                        </text>
                        <text id="Describe-information" font-family="Sintony" font-size="8.5" font-weight="normal" line-spacing="13" fill="#000000">
                            <tspan x="0" y="34">Describe information using the online metadata </tspan>
                            <tspan x="0" y="47">editing tools. The metadata editor supports </tspan>
                            <tspan x="0" y="60">ISO19115/119/110 standards used for spatial </tspan>
                            <tspan x="0" y="73">resources and also Dublin Core format usually </tspan>
                            <tspan x="0" y="86">used for opendata portals.</tspan>
                        </text>
                        <text id="Based-on-user-profil" font-family="Sintony" font-size="8.5" font-weight="normal" line-spacing="13" fill="#000000">
                            <tspan x="0" y="113">Based on user profiles (eg. reviewer, editor), a </tspan>
                            <tspan x="0" y="126">dashboard provides easy access to their </tspan>
                            <tspan x="0" y="139">informations and tasks. Online editing of metadata </tspan>
                            <tspan x="0" y="152">is based on a powerful template system and </tspan>
                            <tspan x="0" y="165">directories of information (eg. contacts, thesaurus).</tspan>
                        </text>
                    </g>
                    <g id="Analyze" transform="translate(0.000000, 422.000000)" font-weight="normal">
                        <text id="Monitoring-and-repor" font-family="Sintony" font-size="8.5" line-spacing="13" fill="#000000">
                            <tspan x="0" y="35">Monitoring and reporting tools provide summarized </tspan>
                            <tspan x="0" y="48">information about the content of the catalog and </tspan>
                            <tspan x="0" y="61">statistics on the search. System maintainer can </tspan>
                            <tspan x="0" y="74">easily access to system status.</tspan>
                        </text>
                        <text id="Analyze-information" font-family="MiriamLibre-Regular, Miriam Libre" font-size="14" fill="#4AB969">
                            <tspan x="0" y="14">Analyze information</tspan>
                        </text>
                    </g>
                    <g id="Make-your-maps" transform="translate(0.000000, 299.000000)" font-weight="normal">
                        <text id="The-interactive-map" font-family="Sintony" font-size="8.5" line-spacing="13" fill="#000000">
                            <tspan x="0" y="35">The interactive map viewer based on OpenLayers 3 </tspan>
                            <tspan x="0" y="48">provides access to OGC services (WMS, WMTS) and </tspan>
                            <tspan x="0" y="61">standards (KML, OWS). Connected to the catalog, users </tspan>
                            <tspan x="0" y="74">can easily find new services, layers and even dynamic </tspan>
                            <tspan x="0" y="87">maps to combine them together. User maps can be </tspan>
                            <tspan x="0" y="100">annotated and printed and shared with others.</tspan>
                        </text>
                        <text font-family="MiriamLibre-Regular, Miriam Libre" font-size="14" fill="#4AB969">
                            <tspan x="0" y="14">Make your maps</tspan>
                        </text>
                    </g>
                    <g id="Information" transform="translate(0.000000, 110.000000)" font-weight="normal">
                        <text id="GeoSpatial-layers,-b" font-family="Sintony" font-size="8.5" line-spacing="13" fill="#000000">
                            <tspan x="0" y="127">GeoSpatial layers, but also services, maps or even non </tspan>
                            <tspan x="0" y="140">geographic datasets can be described in the catalog. </tspan>
                            <tspan x="0" y="153">Easily navigate accross records and find sources or </tspan>
                            <tspan x="0" y="166">services publishing a dataset.</tspan>
                        </text>
                        <text id="GeoNetwork-provides" font-family="Sintony" font-size="8.5" line-spacing="13" fill="#000000">
                            <tspan x="0" y="37">GeoNetwork provides an easy to use web interface to </tspan>
                            <tspan x="0" y="50">search geospatial data across multiple catalogs. The </tspan>
                            <tspan x="0" y="63">search provides full-text search as well as faceted </tspan>
                            <tspan x="0" y="76">search on keywords, resource types, organizations, </tspan>
                            <tspan x="0" y="89">scale, ... Users can easily refine the search and quickly </tspan>
                            <tspan x="0" y="102">get to the records of interest.</tspan>
                        </text>
                        <text id="Find-&amp;-get-informati" font-family="MiriamLibre-Regular, Miriam Libre" font-size="14" fill="#4AB969">
                            <tspan x="0" y="14">Find &amp; get information</tspan>
                        </text>
                    </g>
                    <g id="Welcome" font-weight="normal">
                        <text id="GeoNetwork-is-a-cata" font-family="Sintony" font-size="8.5" line-spacing="13" fill="#000000">
                            <tspan x="0" y="35">GeoNetwork is a catalog application to </tspan>
                            <tspan x="161.109" y="35" font-family="Sintony-Bold, Sintony" font-weight="bold">register spatially </tspan>
                            <tspan x="0" y="48" font-family="Sintony-Bold, Sintony" font-weight="bold">referenced resources</tspan>
                            <tspan x="87.9155" y="48">. It provides powerful </tspan>
                            <tspan x="177.021" y="48" font-family="Sintony-Bold, Sintony" font-weight="bold">metadata </tspan>
                            <tspan x="0" y="61" font-family="Sintony-Bold, Sintony" font-weight="bold">editing</tspan>
                            <tspan x="29.206" y="61"> and </tspan>
                            <tspan x="50.0055" y="61" font-family="Sintony-Bold, Sintony" font-weight="bold">search</tspan>
                            <tspan x="78.1575" y="61"> functions as well as an interactive </tspan>
                            <tspan x="0" y="74">web map viewer. It is currently used in </tspan>
                            <tspan x="162.2055" y="74" font-family="Sintony-Bold, Sintony" font-weight="bold">numerous </tspan>
                            <tspan x="0" y="87" font-family="Sintony-Bold, Sintony" font-weight="bold">Spatial Data Infrastructure initiatives across the world</tspan>
                            <tspan x="226.2615" y="87">.</tspan>
                        </text>
                        <text id="tspan63" font-family="MiriamLibre-Regular, Miriam Libre" font-size="14" fill="#4AB969">
                            <tspan x="0" y="14">Welcome</tspan>
                        </text>
                    </g>
                </g>
                <g id="Header" transform="translate(55.000000, 3.000000)">
                    <text id="Subtitle" fill="#00393F" font-family="MiriamLibre-Bold, Miriam Libre" font-size="14" font-weight="bold">
                        <tspan x="0" y="63">The opensource spatial catalogue</tspan>
                    </text>
                    <text id="Title" font-family="MiriamLibre-Bold, Miriam Libre" font-size="29" font-weight="bold" fill="#4AB969">
                        <tspan x="0" y="30">GeoNetwork opensource</tspan>
                    </text>
                    <g id="OSGeo_project" transform="translate(381.000000, 1.000000)" fill-rule="nonzero">
                        <path d="M44.0194503,42.418339 C43.9858878,42.3843877 43.9691067,42.341949 43.9691067,42.291022 L43.9691067,34.0790707 C43.9691067,33.951753 44.0131569,33.8435346 44.1012586,33.7544122 C44.1893603,33.6652898 44.2963393,33.6207293 44.4221989,33.6207293 L46.5366293,33.6207293 C47.0400677,33.6207293 47.5015458,33.7438012 47.9210778,33.9899488 C48.3406097,34.2360964 48.6720349,34.5671175 48.9153635,34.983022 C49.158692,35.3989264 49.2803544,35.8572633 49.2803544,36.3580463 C49.2803544,36.8588294 49.158692,37.3171662 48.9153635,37.7330707 C48.6720349,38.1489752 48.3406097,38.4799963 47.9210778,38.7261439 C47.5015458,38.9722915 47.0400677,39.0953634 46.5366293,39.0953634 L45.0011501,39.0953634 L45.0011501,42.291022 C45.0011501,42.341949 44.984369,42.3843877 44.9508065,42.418339 C44.9172441,42.4522903 44.8752914,42.4692659 44.8249476,42.4692659 L44.1453092,42.4692659 C44.0949654,42.4692659 44.0530127,42.4522903 44.0194503,42.418339 Z M46.4736998,38.115022 C46.7925442,38.115022 47.0862119,38.0365106 47.3547125,37.8794854 C47.623213,37.7224602 47.8350733,37.5081454 47.9903002,37.2365341 C48.145527,36.9649229 48.2231392,36.6720967 48.2231392,36.3580463 C48.2231392,36.043996 48.145527,35.7511698 47.9903002,35.4795585 C47.8350733,35.2079473 47.623213,34.9936325 47.3547125,34.8366073 C47.0862119,34.6795821 46.7925442,34.6010707 46.4736998,34.6010707 L45.0011501,34.6010707 L45.0011501,38.115022 L46.4736998,38.115022 Z M50.652217,42.418339 C50.6186545,42.3843877 50.6018734,42.341949 50.6018734,42.291022 L50.6018734,41.7053634 C50.6018734,41.6544364 50.6186545,41.6119976 50.652217,41.5780463 C50.6857795,41.544095 50.7277322,41.5271195 50.7780759,41.5271195 L51.8227052,41.5271195 L51.8227052,36.1670707 L50.7780759,36.1670707 C50.7277322,36.1670707 50.6857795,36.1500952 50.652217,36.1161439 C50.6186545,36.0821926 50.6018734,36.0397539 50.6018734,35.9888268 L50.6018734,35.4413634 C50.6018734,35.3904364 50.6186545,35.3479976 50.652217,35.3140463 C50.6857795,35.280095 50.7277322,35.2631195 50.7780759,35.2631195 L52.3513128,35.2631195 C52.4771724,35.2631195 52.5841515,35.30768 52.6722532,35.3968024 C52.7603549,35.4859248 52.8044051,35.5941432 52.8044051,35.721461 L52.8044051,36.3580463 L53.534387,35.7851195 C53.83645,35.5474598 54.0818725,35.388315 54.2706618,35.3076805 C54.4594511,35.227046 54.6587258,35.1867293 54.8684919,35.1867293 L55.2460687,35.1867293 C55.3048032,35.1867293 55.3488534,35.2037048 55.3782206,35.2376561 C55.4075878,35.2716074 55.4222712,35.3140461 55.4222712,35.3649732 L55.4222712,35.9888268 C55.4222712,36.0397539 55.4054901,36.0821926 55.3719277,36.1161439 C55.3383652,36.1500952 55.2964125,36.1670707 55.2460687,36.1670707 L54.969179,36.1670707 C54.7594129,36.1670707 54.562236,36.2116313 54.377642,36.3007537 C54.1930479,36.389876 53.916161,36.5829717 53.5469729,36.8800463 L52.8044051,37.4784366 L52.8044051,41.5271195 L54.2643689,41.5271195 C54.3147127,41.5271195 54.3566654,41.544095 54.3902278,41.5780463 C54.4237903,41.6119976 54.4405714,41.6544364 54.4405714,41.7053634 L54.4405714,42.291022 C54.4405714,42.341949 54.4237903,42.3843877 54.3902278,42.418339 C54.3566654,42.4522903 54.3147127,42.4692659 54.2643689,42.4692659 L50.7780759,42.4692659 C50.7277322,42.4692659 50.6857795,42.4522903 50.652217,42.418339 Z M57.7884195,42.2655585 C57.3688876,42.019411 57.0374624,41.682024 56.7941338,41.2533878 C56.5508053,40.8247516 56.4291429,40.3600489 56.4291429,39.8592659 L56.4291429,37.8731195 C56.4291429,37.3723365 56.5508053,36.9076338 56.7941338,36.4789976 C57.0374624,36.0503614 57.3688876,35.7129744 57.7884195,35.4668268 C58.2079515,35.2206792 58.6652344,35.0976073 59.1602821,35.0976073 C59.6553298,35.0976073 60.1126127,35.2206792 60.5321447,35.4668268 C60.9516766,35.7129744 61.2831018,36.0503614 61.5264304,36.4789976 C61.7697589,36.9076338 61.8914213,37.3723365 61.8914213,37.8731195 L61.8914213,39.8592659 C61.8914213,40.3600489 61.7697589,40.8247516 61.5264304,41.2533878 C61.2831018,41.682024 60.9516766,42.019411 60.5321447,42.2655585 C60.1126127,42.5117061 59.6553298,42.634778 59.1602821,42.634778 C58.6652344,42.634778 58.2079515,42.5117061 57.7884195,42.2655585 Z M60.0412948,41.4570951 C60.3097953,41.3000699 60.5216556,41.0857551 60.6768825,40.8141439 C60.8321093,40.5425327 60.9097215,40.2454627 60.9097215,39.9229244 L60.9097215,37.809461 C60.9097215,37.4869227 60.8321093,37.1898527 60.6768825,36.9182415 C60.5216556,36.6466302 60.3097953,36.4323154 60.0412948,36.2752902 C59.7727942,36.118265 59.4791264,36.0397537 59.1602821,36.0397537 C58.8414378,36.0397537 58.54777,36.118265 58.2792694,36.2752902 C58.0107689,36.4323154 57.7989086,36.6466302 57.6436817,36.9182415 C57.4884549,37.1898527 57.4108427,37.4869227 57.4108427,37.809461 L57.4108427,39.9229244 C57.4108427,40.2454627 57.4884549,40.5425327 57.6436817,40.8141439 C57.7989086,41.0857551 58.0107689,41.3000699 58.2792694,41.4570951 C58.54777,41.6141203 58.8414378,41.6926317 59.1602821,41.6926317 C59.4791264,41.6926317 59.7727942,41.6141203 60.0412948,41.4570951 Z M65.0630669,33.9644854 C65.0295044,33.9305341 65.0127233,33.8880953 65.0127233,33.8371683 L65.0127233,32.7295098 C65.0127233,32.6785827 65.0295044,32.636144 65.0630669,32.6021927 C65.0966294,32.5682414 65.1385821,32.5512659 65.1889259,32.5512659 L65.7930488,32.5512659 C65.8433926,32.5512659 65.8853453,32.5682414 65.9189078,32.6021927 C65.9524702,32.636144 65.9692514,32.6785827 65.9692514,32.7295098 L65.9692514,33.8371683 C65.9692514,33.8880953 65.9524702,33.9305341 65.9189078,33.9644854 C65.8853453,33.9984367 65.8433926,34.0154122 65.7930488,34.0154122 L65.1889259,34.0154122 C65.1385821,34.0154122 65.0966294,33.9984367 65.0630669,33.9644854 Z M63.2003544,44.8755585 C63.166792,44.8416072 63.1500108,44.7991685 63.1500108,44.7482415 L63.1500108,44.1880463 C63.1500108,44.1371193 63.166792,44.0946806 63.2003544,44.0607293 C63.2339169,44.026778 63.2758696,44.0098024 63.3262134,44.0098024 L64.0561953,44.0098024 C64.341477,44.0098024 64.5701184,43.9185593 64.7421266,43.7360707 C64.9141348,43.5535821 65.0001374,43.3138039 65.0001374,43.0167293 L65.0001374,36.2052659 L63.3262134,36.2052659 C63.2758696,36.2052659 63.2339169,36.1882903 63.2003544,36.154339 C63.166792,36.1203877 63.1500108,36.077949 63.1500108,36.027022 L63.1500108,35.4413634 C63.1500108,35.3904364 63.166792,35.3479976 63.2003544,35.3140463 C63.2339169,35.280095 63.2758696,35.2631195 63.3262134,35.2631195 L65.528745,35.2631195 C65.6546046,35.2631195 65.7615837,35.30768 65.8496854,35.3968024 C65.9377871,35.4859248 65.9818373,35.5941432 65.9818373,35.721461 L65.9818373,43.0167293 C65.9818373,43.5514636 65.8161246,44.0034348 65.4846944,44.3726561 C65.1532642,44.7418774 64.7148599,44.9264854 64.1694684,44.9264854 L63.3262134,44.9264854 C63.2758696,44.9264854 63.2339169,44.9095098 63.2003544,44.8755585 Z M69.3548571,42.1000463 C68.9353252,41.8538988 68.6039,41.5165118 68.3605714,41.0878756 C68.1172429,40.6592394 67.9955805,40.1945367 67.9955805,39.6937537 L67.9955805,37.8731195 C67.9955805,37.3723365 68.1172429,36.9076338 68.3605714,36.4789976 C68.6039,36.0503614 68.9353252,35.7129744 69.3548571,35.4668268 C69.7743891,35.2206792 70.231672,35.0976073 70.7267197,35.0976073 C71.2217675,35.0976073 71.6790503,35.2206792 72.0985823,35.4668268 C72.5181142,35.7129744 72.8495395,36.0503614 73.092868,36.4789976 C73.3361965,36.9076338 73.457859,37.3723365 73.457859,37.8731195 L73.457859,38.7388756 C73.457859,38.8661933 73.4138088,38.9744118 73.3257071,39.0635341 C73.2376054,39.1526565 73.1306263,39.1972171 73.0047667,39.1972171 L68.9772803,39.1972171 L68.9772803,39.7574122 C68.9772803,40.0799505 69.0548925,40.3770205 69.2101193,40.6486317 C69.3653462,40.9202429 69.5772065,41.1345577 69.8457071,41.2915829 C70.1142076,41.4486081 70.4078754,41.5271195 70.7267197,41.5271195 L72.5516745,41.5271195 C72.6020183,41.5271195 72.643971,41.544095 72.6775335,41.5780463 C72.7110959,41.6119976 72.727877,41.6544364 72.727877,41.7053634 L72.727877,42.291022 C72.727877,42.341949 72.7110959,42.3843877 72.6775335,42.418339 C72.643971,42.4522903 72.6020183,42.4692659 72.5516745,42.4692659 L70.7267197,42.4692659 C70.231672,42.4692659 69.7743891,42.3461939 69.3548571,42.1000463 Z M72.4761591,38.2805341 L72.4761591,37.809461 C72.4761591,37.4869227 72.3985469,37.1898527 72.2433201,36.9182415 C72.0880932,36.6466302 71.8762329,36.4323154 71.6077324,36.2752902 C71.3392318,36.118265 71.0455641,36.0397537 70.7267197,36.0397537 C70.4078754,36.0397537 70.1142076,36.118265 69.8457071,36.2752902 C69.5772065,36.4323154 69.3653462,36.6466302 69.2101193,36.9182415 C69.0548925,37.1898527 68.9772803,37.4869227 68.9772803,37.809461 L68.9772803,38.2805341 L72.4761591,38.2805341 Z M76.3652007,42.2655585 C75.9456688,42.019411 75.6142435,41.682024 75.370915,41.2533878 C75.1275865,40.8247516 75.0059241,40.3600489 75.0059241,39.8592659 L75.0059241,37.8731195 C75.0059241,37.3723365 75.1275865,36.9076338 75.370915,36.4789976 C75.6142435,36.0503614 75.9456688,35.7129744 76.3652007,35.4668268 C76.7847327,35.2206792 77.2420156,35.0976073 77.7370633,35.0976073 C78.0978608,35.0976073 78.4397742,35.165509 78.7628137,35.3013146 C79.0858533,35.4371202 79.3690331,35.62385 79.6123617,35.8615098 C79.6627055,35.9124368 79.687877,35.9718509 79.687877,36.0397537 C79.687877,36.0991686 79.6627055,36.1628265 79.6123617,36.2307293 C79.5284552,36.3240955 79.4319643,36.4217044 79.3228861,36.5235585 C79.2641516,36.5744856 79.2012228,36.5999488 79.1340976,36.5999488 C79.0585818,36.5999488 78.9914578,36.5702418 78.9327233,36.5108268 C78.5970979,36.1967764 78.1985484,36.0397537 77.7370633,36.0397537 C77.418219,36.0397537 77.1245512,36.118265 76.8560506,36.2752902 C76.5875501,36.4323154 76.3756898,36.6466302 76.2204629,36.9182415 C76.0652361,37.1898527 75.9876239,37.4869227 75.9876239,37.809461 L75.9876239,39.9229244 C75.9876239,40.2454627 76.0652361,40.5425327 76.2204629,40.8141439 C76.3756898,41.0857551 76.5875501,41.3000699 76.8560506,41.4570951 C77.1245512,41.6141203 77.418219,41.6926317 77.7370633,41.6926317 C78.1985484,41.6926317 78.5970979,41.5356089 78.9327233,41.2215585 C78.9914578,41.1621436 79.0585818,41.1324366 79.1340976,41.1324366 C79.2012228,41.1324366 79.2641516,41.1578998 79.3228861,41.2088268 C79.4235737,41.2937054 79.5200647,41.3913141 79.6123617,41.5016561 C79.6627055,41.5525831 79.687877,41.616241 79.687877,41.6926317 C79.687877,41.7605345 79.6627055,41.8199486 79.6123617,41.8708756 C79.3690331,42.1085353 79.0858533,42.2952651 78.7628137,42.4310707 C78.4397742,42.5668763 78.0978608,42.634778 77.7370633,42.634778 C77.2420156,42.634778 76.7847327,42.5117061 76.3652007,42.2655585 Z M82.4064304,41.9154366 C82.0624142,41.5462153 81.8904087,41.0815126 81.8904087,40.5213146 L81.8904087,36.1925341 L81.0597396,36.1925341 C81.0093958,36.1925341 80.9674431,36.1755586 80.9338807,36.1416073 C80.9003182,36.107656 80.8835371,36.0652173 80.8835371,36.0142902 L80.8835371,35.4413634 C80.8835371,35.3904364 80.9003182,35.3479976 80.9338807,35.3140463 C80.9674431,35.280095 81.0093958,35.2631195 81.0597396,35.2631195 L81.8904087,35.2631195 L81.8904087,33.9262902 C81.8904087,33.8753632 81.9071898,33.8329245 81.9407523,33.7989732 C81.9743147,33.7650219 82.0162674,33.7480463 82.0666112,33.7480463 L82.695906,33.7480463 C82.7462498,33.7480463 82.7882025,33.7650219 82.8217649,33.7989732 C82.8553274,33.8329245 82.8721085,33.8753632 82.8721085,33.9262902 L82.8721085,35.2631195 L85.087226,35.2631195 C85.1375698,35.2631195 85.1795225,35.280095 85.213085,35.3140463 C85.2466475,35.3479976 85.2634286,35.3904364 85.2634286,35.4413634 L85.2634286,36.027022 C85.2634286,36.077949 85.2466475,36.1203877 85.213085,36.154339 C85.1795225,36.1882903 85.1375698,36.2052659 85.087226,36.2052659 L82.8721085,36.2052659 L82.8721085,40.4067293 C82.8721085,40.7377554 82.9706971,41.0029966 83.167877,41.202461 C83.365057,41.4019253 83.6230652,41.5058999 83.9419096,41.5143878 L85.087226,41.5271195 C85.1375698,41.5271195 85.1795225,41.544095 85.213085,41.5780463 C85.2466475,41.6119976 85.2634286,41.6544364 85.2634286,41.7053634 L85.2634286,42.291022 C85.2634286,42.341949 85.2466475,42.3843877 85.213085,42.418339 C85.1795225,42.4522903 85.1375698,42.4692659 85.087226,42.4692659 L83.8286365,42.4692659 C83.2245105,42.4692659 82.7504465,42.2846579 82.4064304,41.9154366 Z" id="Project" fill="#0B3A42"></path>
                        <g id="Group">
                            <path d="M47.4575045,28.9097561 C46.3725136,28.2731707 45.5045208,27.395122 44.875226,26.297561 C44.2459313,25.2 43.920434,23.9926829 43.920434,22.6756098 L43.920434,16.8585366 C43.920434,15.5414634 44.2459313,14.3341463 44.875226,13.2365854 C45.5045208,12.1390244 46.3725136,11.2609756 47.4575045,10.6243902 C48.5424955,9.98780488 49.7359855,9.65853659 51.0162749,9.65853659 C52.2965642,9.65853659 53.4900542,9.98780488 54.5750452,10.6243902 C55.6600362,11.2609756 56.5280289,12.1390244 57.1573237,13.2365854 C57.7866184,14.3341463 58.1121157,15.5414634 58.1121157,16.8585366 L58.1121157,22.6756098 C58.1121157,23.9926829 57.7866184,25.2 57.1573237,26.297561 C56.5280289,27.395122 55.6600362,28.2731707 54.5750452,28.9097561 C53.4900542,29.5463415 52.2965642,29.8756098 51.0162749,29.8756098 C49.7359855,29.8756098 48.5424955,29.5463415 47.4575045,28.9097561 M52.925859,26.1439024 C53.5117541,25.7707317 53.9891501,25.2878049 54.3363472,24.6731707 C54.6835443,24.0585366 54.8571429,23.4 54.8571429,22.6756098 L54.8571429,16.8585366 C54.8571429,16.1560976 54.6835443,15.4756098 54.3363472,14.8609756 C53.9891501,14.2463415 53.5117541,13.7414634 52.925859,13.3902439 C52.3399638,13.0390244 51.7106691,12.8414634 51.0162749,12.8414634 C50.3435805,12.8414634 49.6925859,13.0170732 49.1066908,13.3902439 C48.5207957,13.7634146 48.0433996,14.2463415 47.6962025,14.8609756 C47.3490054,15.4756098 47.1754069,16.1341463 47.1754069,16.8585366 L47.1754069,22.6756098 C47.1754069,23.3780488 47.3490054,24.0585366 47.6962025,24.6731707 C48.0433996,25.2878049 48.5207957,25.7926829 49.1066908,26.1439024 C49.6925859,26.5170732 50.3218807,26.6926829 51.0162749,26.6926829 C51.6889693,26.6707317 52.3399638,26.495122 52.925859,26.1439024" id="Shape" fill="#4DB05B"></path>
                            <path d="M63.3200723,29.3707317 C62.3869801,29.0634146 61.5189873,28.602439 60.716094,28.0536585 C60.6292948,28.0097561 60.5641953,27.9 60.5207957,27.7682927 C60.477396,27.6365854 60.4990958,27.504878 60.5424955,27.395122 L61.4755877,25.6829268 C61.5840868,25.4634146 61.7576854,25.3536585 61.9746835,25.3536585 C62.1265823,25.3536585 62.2567812,25.397561 62.3869801,25.4634146 C63.7323689,26.3195122 64.9692586,26.7365854 66.1410488,26.7365854 C67.0958409,26.7365854 67.8336347,26.495122 68.3761302,26.0341463 C68.9186257,25.5731707 69.2007233,24.9585366 69.2007233,24.2121951 C69.2007233,23.7292683 69.0705244,23.3121951 68.7884268,22.9609756 C68.5280289,22.6317073 68.159132,22.3463415 67.7251356,22.104878 C67.2694394,21.8634146 66.6184448,21.5780488 65.7721519,21.2268293 L64.9909584,20.897561 C63.7757685,20.3707317 62.755877,19.6902439 61.9312839,18.8780488 C61.1066908,18.0658537 60.6726944,16.8585366 60.6726944,15.2780488 C60.6726944,14.1585366 60.9113924,13.1926829 61.4104882,12.3365854 C61.9095841,11.4804878 62.5822785,10.8219512 63.4719711,10.3390244 C64.3399638,9.85609756 65.3598553,9.63658537 66.5099458,9.63658537 C67.4647378,9.63658537 68.39783,9.7902439 69.3309222,10.1195122 C70.2640145,10.4487805 71.1103074,10.8878049 71.8698011,11.4365854 C71.9566004,11.4804878 72.0216998,11.5902439 72.0650995,11.7219512 C72.1084991,11.8536585 72.0867993,11.9853659 72.0433996,12.095122 L71.1537071,13.8073171 C71.045208,14.0268293 70.8716094,14.1365854 70.6329114,14.1365854 C70.4810127,14.1365854 70.3508137,14.0926829 70.2206148,14.0268293 C69.5262206,13.5658537 68.8535262,13.2365854 68.2242315,13.0390244 C67.5949367,12.8414634 67.0307414,12.7317073 66.5316456,12.7317073 C65.7287523,12.7317073 65.0994575,12.9512195 64.6220615,13.3902439 C64.1663653,13.8292683 63.9276673,14.4 63.9276673,15.102439 C63.9276673,15.804878 64.1880651,16.397561 64.6871609,16.8585366 C65.2079566,17.3195122 66.0108499,17.7804878 67.1392405,18.2634146 C67.2911392,18.3073171 67.920434,18.5707317 68.9837251,19.0097561 C70.0470163,19.4487805 70.8933092,20.1073171 71.522604,20.9634146 C72.1518987,21.8195122 72.4556962,22.8292683 72.4556962,23.9926829 C72.4556962,25.1121951 72.1952984,26.1219512 71.6745027,27 C71.1537071,27.8780488 70.4159132,28.5585366 69.4611212,29.0634146 C68.5063291,29.5682927 67.4213382,29.8097561 66.1844485,29.8097561 C65.2079566,29.8536585 64.2531646,29.6780488 63.3200723,29.3707317" id="Shape" fill="#4DB05B"></path>
                            <path d="M78.5099458,28.9097561 C77.4249548,28.2731707 76.5786618,27.395122 75.9276673,26.297561 C75.2983725,25.2 74.9728752,23.9926829 74.9728752,22.6756098 L74.9728752,16.8585366 C74.9728752,15.5414634 75.2983725,14.3341463 75.9276673,13.2365854 C76.556962,12.1390244 77.4249548,11.2609756 78.5099458,10.6243902 C79.5949367,9.98780488 80.7667269,9.65853659 82.0687161,9.65853659 C83.1971067,9.65853659 84.238698,9.85609756 85.2151899,10.2731707 C86.1699819,10.6902439 86.994575,11.2829268 87.6889693,12.0512195 C87.7974684,12.1829268 87.840868,12.3365854 87.840868,12.5121951 C87.840868,12.6878049 87.7757685,12.8853659 87.6238698,13.0609756 L86.4520796,14.3121951 C86.3001808,14.4658537 86.1699819,14.5317073 86.0180832,14.5317073 C85.8444846,14.5317073 85.6708861,14.4439024 85.5406872,14.2902439 C84.6509946,13.3243902 83.5009042,12.8414634 82.1121157,12.8414634 C81.4394213,12.8414634 80.7884268,13.0170732 80.2025316,13.3902439 C79.6166365,13.7634146 79.1392405,14.2463415 78.7920434,14.8609756 C78.4448463,15.4756098 78.2712477,16.1341463 78.2712477,16.8585366 L78.2712477,22.6756098 C78.2712477,23.3780488 78.4448463,24.0585366 78.7920434,24.6731707 C79.1392405,25.2878049 79.6166365,25.7926829 80.2025316,26.1439024 C80.7884268,26.5170732 81.4177215,26.6926829 82.1121157,26.6926829 C82.7848101,26.6926829 83.4358047,26.5170732 84.0216998,26.1658537 C84.6075949,25.8146341 85.084991,25.3536585 85.4104882,24.7390244 C85.7576854,24.1463415 85.9095841,23.4878049 85.9095841,22.7853659 L85.9095841,21.4463415 L82.3074141,21.4463415 C82.1555154,21.4463415 82.0036166,21.402439 81.8951175,21.2926829 C81.7866184,21.1829268 81.7432188,21.0512195 81.7432188,20.8756098 L81.7432188,18.9219512 C81.7432188,18.7682927 81.7866184,18.6146341 81.8951175,18.504878 C82.0036166,18.395122 82.1338156,18.3512195 82.3074141,18.3512195 L87.9710669,18.3512195 C88.2965642,18.3512195 88.556962,18.4609756 88.79566,18.6804878 C89.0126582,18.9 89.1211573,19.1853659 89.1211573,19.5146341 L89.1211573,22.6756098 C89.1211573,23.9926829 88.79566,25.2 88.1663653,26.297561 C87.5370705,27.395122 86.6690778,28.2731707 85.5840868,28.9097561 C84.4990958,29.5463415 83.3273056,29.8756098 82.0687161,29.8756098 C80.7667269,29.8756098 79.5949367,29.5463415 78.5099458,28.9097561" id="Shape" fill="#003A40"></path>
                            <path d="M95.045208,28.6463415 C94.0687161,28.0756098 93.2875226,27.2634146 92.7233273,26.2756098 C92.159132,25.2878049 91.8553345,24.1902439 91.8553345,23.004878 L91.8553345,20.0634146 C91.8553345,18.8780488 92.1374322,17.7804878 92.7233273,16.7926829 C93.2875226,15.804878 94.0687161,14.9926829 95.045208,14.4219512 C96.0216998,13.8512195 97.084991,13.5439024 98.2567812,13.5439024 C99.4285714,13.5439024 100.491863,13.8292683 101.468354,14.4219512 C102.444846,14.9926829 103.22604,15.804878 103.790235,16.7926829 C104.35443,17.802439 104.658228,18.8780488 104.658228,20.0634146 L104.658228,21.8853659 C104.658228,22.2146341 104.549729,22.4780488 104.332731,22.7195122 C104.115732,22.9390244 103.833635,23.0487805 103.508137,23.0487805 L95.1103074,23.0487805 L95.1103074,23.1804878 C95.1103074,24.0804878 95.4141049,24.8268293 96.0433996,25.4634146 C96.6726944,26.1 97.4104882,26.4073171 98.278481,26.4073171 L102.531646,26.4073171 C102.683544,26.4073171 102.835443,26.4731707 102.943942,26.5829268 C103.052441,26.6926829 103.095841,26.8243902 103.095841,27 L103.095841,28.9756098 C103.095841,29.1292683 103.052441,29.2829268 102.943942,29.3926829 C102.835443,29.502439 102.705244,29.5463415 102.531646,29.5463415 L98.278481,29.5463415 C97.084991,29.5243902 96,29.2170732 95.045208,28.6463415 L95.045208,28.6463415 Z M101.403255,20.1073171 L101.403255,19.8658537 C101.403255,18.9658537 101.099458,18.2195122 100.470163,17.5829268 C99.8625678,16.9463415 99.1030741,16.6390244 98.2350814,16.6390244 C97.3670886,16.6390244 96.6075949,16.9463415 96,17.5829268 C95.3924051,18.2195122 95.0669078,18.9658537 95.0669078,19.8658537 L95.0669078,20.1073171 L101.403255,20.1073171 Z" id="Shape" fill="#003A40"></path>
                            <path d="M110.235081,29.0195122 C109.25859,28.4487805 108.477396,27.6804878 107.913201,26.6926829 C107.349005,25.704878 107.066908,24.6512195 107.066908,23.5097561 L107.066908,19.9097561 C107.066908,18.7682927 107.349005,17.6926829 107.913201,16.7268293 C108.477396,15.7390244 109.25859,14.9707317 110.235081,14.4 C111.211573,13.8292683 112.274864,13.5439024 113.446655,13.5439024 C114.618445,13.5439024 115.681736,13.8292683 116.658228,14.4 C117.63472,14.9707317 118.415913,15.7609756 118.980108,16.7268293 C119.544304,17.7146341 119.848101,18.7682927 119.848101,19.9097561 L119.848101,23.4878049 C119.848101,24.6292683 119.566004,25.704878 118.980108,26.6707317 C118.415913,27.6585366 117.63472,28.4268293 116.658228,28.997561 C115.681736,29.5682927 114.618445,29.8536585 113.446655,29.8536585 C112.274864,29.8756098 111.189873,29.5902439 110.235081,29.0195122 M115.660036,25.7707317 C116.267631,25.1341463 116.593128,24.3878049 116.593128,23.4878049 L116.593128,19.9097561 C116.593128,19.0097561 116.289331,18.2634146 115.660036,17.6268293 C115.052441,16.9902439 114.292948,16.6829268 113.424955,16.6829268 C112.556962,16.6829268 111.797468,16.9902439 111.189873,17.6268293 C110.582278,18.2634146 110.256781,19.0097561 110.256781,19.9097561 L110.256781,23.4878049 C110.256781,24.3878049 110.560579,25.1341463 111.189873,25.7707317 C111.797468,26.4073171 112.556962,26.7146341 113.424955,26.7146341 C114.314647,26.7146341 115.052441,26.3853659 115.660036,25.7707317" id="Shape" fill="#003A40"></path>
                            <path d="M18.5533454,7.94634146 L18.5533454,3.99512195 L18.5533454,0 L16.1012658,4.34634146 C9.41772152,5.86097561 4.36166365,11.6780488 3.92766727,18.7902439 L7.85533454,18.7902439 C8.33273056,13.0170732 12.8679928,8.42926829 18.5533454,7.94634146" id="Shape" fill="#4DB05B"></path>
                            <path d="M7.85533454,20.7658537 L3.94936709,20.7658537 L0,20.7658537 L4.2965642,23.2463415 C5.79385172,30.0073171 11.5443038,35.1219512 18.5750452,35.5609756 L18.5750452,31.5878049 C12.8679928,31.104878 8.33273056,26.5170732 7.85533454,20.7658537" id="Shape" fill="#003A40"></path>
                            <path d="M31.2260398,18.7682927 L35.1537071,18.7682927 L39.1030741,18.7682927 L34.8065099,16.2878049 C33.3092224,9.52682927 27.5587703,4.41219512 20.5280289,3.97317073 L20.5280289,7.94634146 C26.2133816,8.42926829 30.7486438,13.0170732 31.2260398,18.7682927" id="Shape" fill="#003A40"></path>
                            <path d="M20.5063291,31.5878049 L20.5063291,35.5609756 L20.5063291,39.5560976 L22.9584087,35.2097561 C29.641953,33.695122 34.6980108,27.8780488 35.1320072,20.7658537 L31.20434,20.7658537 C30.7486438,26.5170732 26.2133816,31.104878 20.5063291,31.5878049" id="Shape" fill="#4DB05B"></path>
                            <path d="M20.7450271,18.5487805 L13.4972875,13.6536585 L18.3363472,20.9853659 L25.5840868,25.8804878 L20.7450271,18.5487805 Z M19.5298373,20.6121951 C19.0524412,20.6121951 18.6835443,20.2170732 18.6835443,19.7560976 C18.6835443,19.2731707 19.074141,18.9 19.5298373,18.9 C20.0072333,18.9 20.3761302,19.295122 20.3761302,19.7560976 C20.3761302,20.2170732 20.0072333,20.6121951 19.5298373,20.6121951 L19.5298373,20.6121951 Z" id="Shape" fill="#003A40"></path>
                            <polygon id="Shape" fill="#4DB05B" points="18.3363472 20.9853659 16.7088608 18.5268293 9.2875226 19.7780488 16.7088608 21.0073171 13.4972875 25.8804878 18.2929476 22.6317073 19.5298373 30.1390244 20.7667269 22.6317073"></polygon>
                            <polygon id="Shape" fill="#4DB05B" points="22.3725136 18.5268293 25.5840868 13.6536585 20.7667269 16.902439 19.5298373 9.39512195 18.3146474 16.902439 20.7450271 18.5487805 22.3725136 21.0073171 29.7938517 19.7560976"></polygon>
                        </g>
                    </g>
                </g>
            </g>
        </g>
    </g>
</svg>