<?xml version="1.0" encoding="UTF-8" standalone="no"?>
<!-- Created with Inkscape (http://www.inkscape.org/) -->

<svg
   xmlns:dc="http://purl.org/dc/elements/1.1/"
   xmlns:cc="http://creativecommons.org/ns#"
   xmlns:rdf="http://www.w3.org/1999/02/22-rdf-syntax-ns#"
   xmlns:svg="http://www.w3.org/2000/svg"
   xmlns="http://www.w3.org/2000/svg"
   xmlns:sodipodi="http://sodipodi.sourceforge.net/DTD/sodipodi-0.dtd"
   xmlns:inkscape="http://www.inkscape.org/namespaces/inkscape"
   width="744.09448819"
   height="1052.3622047"
   id="svg4295"
   version="1.1"
   inkscape:version="0.47pre3 "
   sodipodi:docname="New document 2">
  <defs
     id="defs4297">
    <inkscape:perspective
       sodipodi:type="inkscape:persp3d"
       inkscape:vp_x="0 : 526.18109 : 1"
       inkscape:vp_y="0 : 1000 : 0"
       inkscape:vp_z="744.09448 : 526.18109 : 1"
       inkscape:persp3d-origin="372.04724 : 350.78739 : 1"
       id="perspective4303" />
    <inkscape:perspective
       id="perspective4313"
       inkscape:persp3d-origin="0.5 : 0.33333333 : 1"
       inkscape:vp_z="1 : 0.5 : 1"
       inkscape:vp_y="0 : 1000 : 0"
       inkscape:vp_x="0 : 0.5 : 1"
       sodipodi:type="inkscape:persp3d" />
  </defs>
  <sodipodi:namedview
     id="base"
     pagecolor="#ffffff"
     bordercolor="#666666"
     borderopacity="1.0"
     inkscape:pageopacity="0.0"
     inkscape:pageshadow="2"
     inkscape:zoom="2.5534392"
     inkscape:cx="352.29698"
     inkscape:cy="566.92469"
     inkscape:document-units="px"
     inkscape:current-layer="layer1"
     showgrid="false"
     inkscape:window-width="1050"
     inkscape:window-height="1658"
     inkscape:window-x="1672"
     inkscape:window-y="-8"
     inkscape:window-maximized="1" />
  <metadata
     id="metadata4300">
    <rdf:RDF>
      <cc:Work
         rdf:about="">
        <dc:format>image/svg+xml</dc:format>
        <dc:type
           rdf:resource="http://purl.org/dc/dcmitype/StillImage" />
        <dc:title></dc:title>
      </cc:Work>
    </rdf:RDF>
  </metadata>
  <g
     inkscape:label="Layer 1"
     inkscape:groupmode="layer"
     id="layer1">
    <g
       id="g4319"
       inkscape:transform-center-x="-77.955172"
       inkscape:transform-center-y="145.82204"
       transform="matrix(2.3418097,0,0,2.3418097,-555.46108,-877.44209)">
      <path
         style="fill:#fdfdfd"
         d="m 344.5,532.36218 0,-30.5 30.5,0 30.5,0 0,30.5 0,30.5 -30.5,0 -30.5,0 0,-30.5 z"
         id="path4335" />
      <path
         style="fill:#d1d1d1"
         d="m 367.69098,562.0125 c -1.26996,-0.35768 -2.28246,-0.98782 -2.25,-1.40032 0.0325,-0.4125 0.059,-1.14818 0.059,-1.63485 0,-0.48666 2.91632,-0.65075 6.48071,-0.36463 9.61228,0.77158 14.94551,-1.06807 21.20318,-7.31383 8.5023,-8.48614 10.54893,-20.12713 5.40628,-30.75041 -1.53069,-3.16199 -1.94775,-5.11836 -1.32742,-6.22681 0.78019,-1.39414 1.14302,-1.25223 2.64009,1.03259 4.67753,7.13881 5.98765,19.0708 3.04288,27.71321 -0.85485,2.50886 -3.09778,6.36479 -4.98428,8.56874 -2.95837,3.45619 -3.22591,4.17657 -1.94572,5.23903 1.75334,1.45515 1.97212,3.98696 0.34452,3.98696 -0.62686,0 -1.67763,-0.73558 -2.33502,-1.63463 -1.09082,-1.49178 -1.77075,-1.4044 -7.7808,1 -6.47886,2.59195 -13.3433,3.25235 -18.55344,1.78495 z m -19.84645,-16.70894 c -4.94545,-10.80228 -3.62513,-23.20072 3.35389,-31.49482 2.36206,-2.80715 2.4277,-3.14971 0.92232,-4.81315 -0.89141,-0.98499 -1.62074,-2.31796 -1.62074,-2.96215 0,-1.87913 2.83461,-1.34881 3.95219,0.7394 0.97984,1.83085 1.26194,1.781 6.75364,-1.19344 4.81207,-2.60632 6.85866,-3.11316 12.76263,-3.16065 7.85293,-0.0632 10.74656,0.71952 9.98614,2.70115 -0.37621,0.98038 -2.20095,1.22587 -6.89187,0.92717 -9.0687,-0.57745 -15.23466,1.68788 -20.80584,7.64393 -2.43212,2.60013 -5.22605,6.83278 -6.20873,9.40589 -2.36203,6.1849 -1.80807,15.73552 1.25338,21.60904 2.15369,4.13194 2.18135,6.15625 0.0841,6.15625 -0.54797,0 -2.14148,-2.50138 -3.54113,-5.55862 z m 14.65547,-8.52083 0,-12.07946 3.10586,0.68216 c 1.70823,0.37519 4.40819,2.09845 5.99992,3.82946 l 2.89404,3.14729 -1.43114,-3.55329 c -0.88116,-2.18777 -1.21482,-5.16606 -0.86824,-7.75 0.51273,-3.8227 0.81852,-4.19671 3.43123,-4.19671 2.73284,0 2.86833,0.21257 2.86833,4.5 0,2.475 0.34939,4.5 0.77643,4.5 0.42703,0 0.60476,-1.8 0.39496,-4 -0.2098,-2.2 0.0275,-4 0.52741,-4 0.49988,0 2.34714,1.48392 4.10503,3.29761 l 3.19617,3.2976 0,12.2024 0,12.20239 -12.5,0 -12.5,0 0,-12.07945 z m -2.01865,-15.19944 c -1.17757,-2.46281 -1.09865,-3.08841 0.69384,-5.5 2.35197,-3.1643 6.85696,-4.01742 9.80876,-1.85751 1.85937,1.36055 1.74937,1.44506 -1.75176,1.34582 -4.39851,-0.12468 -5.68644,0.92499 -6.68451,5.44793 l -0.73762,3.34265 -1.32871,-2.77889 z"
         id="path4333" />
      <path
         style="fill:#fe9293"
         d="m 371,562.41394 c -0.55,-0.20725 -2.27721,-0.65972 -3.83825,-1.00549 -2.18845,-0.48474 -2.59096,-0.92664 -1.75811,-1.93017 0.77749,-0.93681 2.41337,-1.09905 5.83825,-0.57902 5.01796,0.76192 14.01859,-0.991 17.75811,-3.45849 3.57818,-2.36103 7.65608,-6.96632 9.79832,-11.06548 3.08758,-5.90808 3.03787,-18.40026 -0.0967,-24.29741 -2.54246,-4.78321 -2.08692,-7.32686 0.8381,-4.67975 2.81283,2.54558 4.96136,10.0938 4.95051,17.39219 -0.0107,7.21387 -2.55396,14.05427 -7.32674,19.70632 -2.30259,2.72679 -2.45283,3.29548 -1.15517,4.37245 1.60371,1.33096 2.03483,3.99309 0.64667,3.99309 -0.46476,0 -1.59492,-0.82864 -2.51147,-1.84141 -1.61487,-1.78442 -1.81314,-1.77065 -6.40499,0.44481 -4.3388,2.09337 -14.33488,3.8541 -16.73853,2.94836 z m -23.08852,-17.14315 c -4.84122,-9.8951 -3.55008,-22.16495 3.28534,-31.22103 2.40624,-3.18796 2.43349,-3.3861 0.72531,-5.27363 -1.36852,-1.51219 -1.50342,-2.23266 -0.58923,-3.14685 0.91419,-0.91419 1.52795,-0.69693 2.68075,0.94893 l 1.49511,2.13457 5.98453,-3.08647 c 5.01469,-2.58627 7.16125,-3.09602 13.24562,-3.14544 7.6367,-0.062 9.98777,0.62702 9.19432,2.69472 -0.34012,0.88633 -2.48016,1.13631 -7.36502,0.86029 -8.19648,-0.46315 -12.37725,0.75475 -18.41406,5.3642 -9.18898,7.01631 -12.54543,21.93762 -7.32827,32.57828 2.18642,4.45933 2.42041,6.88382 0.66434,6.88382 -0.46372,0 -2.07415,-2.51613 -3.57874,-5.59139 z m 14.58852,-8.42766 0,-12.01905 2.75,0.64594 c 1.5125,0.35527 4.2359,2.0498 6.05199,3.76561 l 3.302,3.11967 -1.48323,-3.54985 c -0.93541,-2.23877 -1.27532,-5.09983 -0.92032,-7.74656 0.51273,-3.8227 0.81852,-4.19671 3.43123,-4.19671 2.77533,0 2.86833,0.16212 2.86833,5 l 0,5 4.5,0 4.5,0 0,11 0,11 -12.5,0 -12.5,0 0,-12.01905 z m 17,-15.67712 0,-3.69616 3.5,3.39233 c 1.925,1.86578 3.5,3.52906 3.5,3.69617 0,0.1671 -1.575,0.30383 -3.5,0.30383 -3.36872,0 -3.5,-0.13864 -3.5,-3.69617 z m -18.90082,0.44617 c -2.30077,-6.18949 5.11978,-11.34547 10.45969,-7.26766 1.82306,1.39218 1.75639,1.44799 -1.09624,0.91753 -3.85268,-0.71643 -7.58512,2.09709 -7.80497,5.8834 -0.19176,3.30254 -0.47304,3.38678 -1.55848,0.46673 z"
         id="path4331" />
      <path
         style="fill:#9e9e9e"
         d="m 371,562.41394 c -0.55,-0.20725 -2.27721,-0.65972 -3.83825,-1.00549 -2.18845,-0.48474 -2.59096,-0.92664 -1.75811,-1.93017 0.77749,-0.93681 2.41337,-1.09905 5.83825,-0.57902 5.01796,0.76192 14.01859,-0.991 17.75811,-3.45849 3.57818,-2.36103 7.65608,-6.96632 9.79832,-11.06548 3.08758,-5.90808 3.03787,-18.40026 -0.0967,-24.29741 -2.54246,-4.78321 -2.08692,-7.32686 0.8381,-4.67975 2.81283,2.54558 4.96136,10.0938 4.95051,17.39219 -0.0107,7.21387 -2.55396,14.05427 -7.32674,19.70632 -2.30259,2.72679 -2.45283,3.29548 -1.15517,4.37245 1.60371,1.33096 2.03483,3.99309 0.64667,3.99309 -0.46476,0 -1.59492,-0.82864 -2.51147,-1.84141 -1.61487,-1.78442 -1.81314,-1.77065 -6.40499,0.44481 -4.3388,2.09337 -14.33488,3.8541 -16.73853,2.94836 z m -23.08852,-17.14315 c -4.84122,-9.8951 -3.55008,-22.16495 3.28534,-31.22103 2.40624,-3.18796 2.43349,-3.3861 0.72531,-5.27363 -1.36852,-1.51219 -1.50342,-2.23266 -0.58923,-3.14685 0.91419,-0.91419 1.52795,-0.69693 2.68075,0.94893 l 1.49511,2.13457 5.98453,-3.08647 c 5.01469,-2.58627 7.16125,-3.09602 13.24562,-3.14544 7.6367,-0.062 9.98777,0.62702 9.19432,2.69472 -0.34012,0.88633 -2.48016,1.13631 -7.36502,0.86029 -8.19648,-0.46315 -12.37725,0.75475 -18.41406,5.3642 -9.18898,7.01631 -12.54543,21.93762 -7.32827,32.57828 2.18642,4.45933 2.42041,6.88382 0.66434,6.88382 -0.46372,0 -2.07415,-2.51613 -3.57874,-5.59139 z m 15.58852,-8.26994 0,-11.86133 2.49851,0.47763 c 1.37419,0.26269 3.84919,2.01594 5.5,3.89612 3.44506,3.9237 3.56675,3.80211 1.46128,-1.45999 -1.12431,-2.80993 -1.27657,-4.54281 -0.56385,-6.41741 0.53701,-1.41243 0.7051,-2.83932 0.37355,-3.17087 -0.33155,-0.33155 0.82218,-0.60282 2.56384,-0.60282 3.08642,0 3.16667,0.11404 3.16667,4.5 l 0,4.5 4.5,0 4.5,0 0,11 0,11 -12,0 -12,0 0,-11.86133 z m 16,-15.83484 0,-3.69616 3.5,3.39233 c 1.925,1.86578 3.5,3.52906 3.5,3.69617 0,0.1671 -1.575,0.30383 -3.5,0.30383 -3.36872,0 -3.5,-0.13864 -3.5,-3.69617 z m -18.33333,2.0295 C 360.8,522.82885 360.5,521.05436 360.5,519.25222 c 0,-5.12978 6.8924,-8.63446 9.8863,-5.02704 0.91014,1.09666 0.68123,1.27698 -1.17146,0.92282 -3.09217,-0.5911 -6.86057,2.61142 -7.05718,5.99745 -0.0867,1.49343 -0.19516,2.71563 -0.24099,2.71602 -0.0458,3.9e-4 -0.38334,-0.29929 -0.75,-0.66596 z"
         id="path4329" />
      <path
         style="fill:#fe6663"
         d="m 365.52803,560.90066 c -2.32636,-1.47121 1.22089,-2.40028 6.78629,-1.77742 9.82892,1.10001 18.77573,-3.21348 24.85945,-11.98539 3.1726,-4.57447 3.68249,-6.14659 4.09912,-12.6385 0.41665,-6.49235 0.14643,-8.13365 -2.1734,-13.20081 -2.84217,-6.20812 -2.18297,-9.78268 0.92837,-5.03418 6.69149,10.2125 5.68505,25.22818 -2.37286,35.40212 -2.85,3.59841 -2.94581,3.97632 -1.40004,5.52209 1.13924,1.13924 1.33625,1.9824 0.62855,2.6901 -0.70769,0.70769 -1.59278,0.40976 -2.82385,-0.95056 -1.78359,-1.97085 -1.81875,-1.96833 -6.64313,0.47637 -3.92833,1.99064 -6.32918,2.45479 -12.63329,2.44239 -4.28078,-0.008 -8.44563,-0.43422 -9.25521,-0.94621 z M 348.3494,546.11218 c -1.70001,-3.46716 -2.42526,-6.93581 -2.68539,-12.84343 -0.31732,-7.20634 -0.0593,-8.68602 2.3538,-13.5 1.49061,-2.97361 3.3692,-6.15602 4.17465,-7.07201 1.28949,-1.46645 1.26938,-1.96317 -0.16834,-4.1574 -1.98106,-3.02348 -0.47746,-4.38807 1.91821,-1.74088 1.67043,1.8458 1.82627,1.8286 6.79661,-0.7501 5.26365,-2.73088 15.91763,-4.11665 21.28752,-2.76889 4.77137,1.19753 1.38638,2.58267 -6.33548,2.59248 -12.43842,0.0158 -20.52421,4.9618 -25.32364,15.49023 -2.72713,5.98246 -2.52187,16.86817 0.42792,22.69475 2.20609,4.35759 2.46168,6.80525 0.71061,6.80525 -0.4551,0 -1.87551,-2.1375 -3.15647,-4.75 z m 15.1506,-9.11133 0,-11.86133 2.49851,0.47763 c 1.37419,0.26269 3.84919,2.01594 5.5,3.89612 3.44506,3.9237 3.56675,3.80211 1.46128,-1.45999 -1.12431,-2.80993 -1.27657,-4.54281 -0.56385,-6.41741 0.53701,-1.41243 0.7051,-2.83932 0.37355,-3.17087 -0.33155,-0.33155 0.82218,-0.60282 2.56384,-0.60282 3.08642,0 3.16667,0.11404 3.16667,4.5 l 0,4.5 4.5,0 4.5,0 0,11 0,11 -12,0 -12,0 0,-11.86133 z m 16,-15.83484 0,-3.69616 3.5,3.39233 c 1.925,1.86578 3.5,3.52906 3.5,3.69617 0,0.1671 -1.575,0.30383 -3.5,0.30383 -3.36872,0 -3.5,-0.13864 -3.5,-3.69617 z m -18.33333,2.0295 C 360.8,522.82885 360.5,521.05436 360.5,519.25222 c 0,-5.12978 6.8924,-8.63446 9.8863,-5.02704 0.91014,1.09666 0.68123,1.27698 -1.17146,0.92282 -3.09217,-0.5911 -6.86057,2.61142 -7.05718,5.99745 -0.0867,1.49343 -0.19516,2.71563 -0.24099,2.71602 -0.0458,3.9e-4 -0.38334,-0.29929 -0.75,-0.66596 z"
         id="path4327" />
      <path
         style="fill:#646464"
         d="m 365.52803,560.90066 c -2.32636,-1.47121 1.22089,-2.40028 6.78629,-1.77742 9.82892,1.10001 18.77573,-3.21348 24.85945,-11.98539 3.1726,-4.57447 3.68249,-6.14659 4.09912,-12.6385 0.41665,-6.49235 0.14643,-8.13365 -2.1734,-13.20081 -2.84217,-6.20812 -2.18297,-9.78268 0.92837,-5.03418 6.69149,10.2125 5.68505,25.22818 -2.37286,35.40212 -2.85,3.59841 -2.94581,3.97632 -1.40004,5.52209 1.13924,1.13924 1.33625,1.9824 0.62855,2.6901 -0.70769,0.70769 -1.59278,0.40976 -2.82385,-0.95056 -1.78359,-1.97085 -1.81875,-1.96833 -6.64313,0.47637 -3.92833,1.99064 -6.32918,2.45479 -12.63329,2.44239 -4.28078,-0.008 -8.44563,-0.43422 -9.25521,-0.94621 z M 348.3494,546.11218 c -1.70001,-3.46716 -2.42526,-6.93581 -2.68539,-12.84343 -0.31732,-7.20634 -0.0593,-8.68602 2.3538,-13.5 1.49061,-2.97361 3.3692,-6.15602 4.17465,-7.07201 1.28949,-1.46645 1.26938,-1.96317 -0.16834,-4.1574 -1.98106,-3.02348 -0.47746,-4.38807 1.91821,-1.74088 1.67043,1.8458 1.82627,1.8286 6.79661,-0.7501 5.26365,-2.73088 15.91763,-4.11665 21.28752,-2.76889 4.77137,1.19753 1.38638,2.58267 -6.33548,2.59248 -12.43842,0.0158 -20.52421,4.9618 -25.32364,15.49023 -2.72713,5.98246 -2.52187,16.86817 0.42792,22.69475 2.20609,4.35759 2.46168,6.80525 0.71061,6.80525 -0.4551,0 -1.87551,-2.1375 -3.15647,-4.75 z m 15.1506,-9.11133 0,-11.86133 2.41295,0.46127 c 1.32712,0.25369 3.84729,2.24612 5.60038,4.42761 1.75309,2.18148 3.37273,3.78106 3.59919,3.5546 0.22645,-0.22646 -0.48232,-2.43292 -1.57507,-4.90325 -1.68838,-3.81687 -1.80747,-4.96659 -0.79289,-7.65453 0.85954,-2.27718 1.83268,-3.16304 3.47468,-3.16304 2.03646,0 2.28076,0.48202 2.28076,4.5 l 0,4.5 4.5,0 4.5,0 0,11 0,11 -12,0 -12,0 0,-11.86133 z m 16,-15.83484 0,-3.69616 3.5,3.39233 c 1.925,1.86578 3.5,3.52906 3.5,3.69617 0,0.1671 -1.575,0.30383 -3.5,0.30383 -3.36872,0 -3.5,-0.13864 -3.5,-3.69617 z m -18.99845,-0.61957 c -8.5e-4,-1.54866 0.43658,-3.6344 0.97207,-4.63497 1.123,-2.09834 5.08388,-3.34819 7.57783,-2.39117 1.32668,0.50909 0.95193,0.90147 -1.67054,1.7491 -2.29946,0.74324 -3.94018,2.21232 -5.12936,4.59278 l -1.74844,3.5 -0.002,-2.81574 z"
         id="path4325" />
      <path
         style="fill:#fe0d02"
         d="m 366.75,561.1999 c -0.6875,-0.27741 -1.25,-0.94927 -1.25,-1.49301 0,-0.61403 2.06791,-0.73026 5.45756,-0.30674 16.59353,2.07322 30.5335,-10.08744 30.78782,-26.85805 0.078,-5.14158 -0.45222,-7.61266 -2.53733,-11.8259 -2.9506,-5.96208 -2.09757,-8.84061 1.08972,-3.67722 6.46561,10.47427 4.74403,26.59002 -3.8069,35.63638 -2.01496,2.1317 -2.06115,2.45168 -0.58868,4.07874 0.87879,0.97106 1.59781,2.06763 1.59781,2.43682 0,1.31721 -2.91627,0.6433 -3.76291,-0.86956 -0.75289,-1.34534 -1.5521,-1.21972 -6.29969,0.99023 -4.26488,1.98526 -6.94688,2.51613 -12.4374,2.46187 -3.85,-0.038 -7.5625,-0.29615 -8.25,-0.57356 z m -18.39535,-15.58772 c -1.48015,-2.87771 -2.33343,-6.71786 -2.64261,-11.893 -0.40427,-6.76664 -0.15446,-8.25726 2.17864,-13 1.4494,-2.94635 3.402,-6.56375 4.33913,-8.03866 1.6064,-2.52828 1.60553,-2.79031 -0.0152,-4.58115 -2.39672,-2.64835 -0.84362,-3.70698 1.79784,-1.22545 l 2.16087,2.03003 4.68325,-2.61752 c 5.09966,-2.85025 13.91577,-4.15854 20.1464,-2.98966 5.80583,1.08918 3.10974,2.0586 -5.94519,2.13769 -7.08721,0.0619 -8.92999,0.45579 -12.83275,2.74295 -13.05663,7.6517 -18.16564,23.55197 -11.66475,36.30309 2.18206,4.27998 2.37859,5.38168 0.96,5.38168 -0.53882,0 -1.96337,-1.9125 -3.16567,-4.25 z m 15.14535,-8.61133 0,-11.86133 2.41295,0.46127 c 1.32712,0.25369 3.84729,2.24612 5.60038,4.42761 1.75309,2.18148 3.37273,3.78106 3.59919,3.5546 0.22645,-0.22646 -0.48232,-2.43292 -1.57507,-4.90325 -1.68838,-3.81687 -1.80747,-4.96659 -0.79289,-7.65453 0.85954,-2.27718 1.83268,-3.16304 3.47468,-3.16304 2.03646,0 2.28076,0.48202 2.28076,4.5 l 0,4.5 4.5,0 4.5,0 0,11 0,11 -12,0 -12,0 0,-11.86133 z m 17,-15.13867 c 0,-1.65 0.14081,-3 0.31291,-3 0.1721,0 1.60629,1.35 3.18709,3 l 2.87418,3 -3.18709,0 c -2.87455,0 -3.18709,-0.2942 -3.18709,-3 z m -19.99845,-1.31574 c -8.5e-4,-1.54866 0.43658,-3.6344 0.97207,-4.63497 1.123,-2.09834 5.08388,-3.34819 7.57783,-2.39117 1.32668,0.50909 0.95193,0.90147 -1.67054,1.7491 -2.29946,0.74324 -3.94018,2.21232 -5.12936,4.59278 l -1.74844,3.5 -0.002,-2.81574 z"
         id="path4323" />
      <path
         style="fill:#050505"
         d="m 366.75,561.1999 c -0.6875,-0.27741 -1.25,-0.94927 -1.25,-1.49301 0,-0.61403 2.06791,-0.73026 5.45756,-0.30674 16.59353,2.07322 30.5335,-10.08744 30.78782,-26.85805 0.078,-5.14158 -0.45222,-7.61266 -2.53733,-11.8259 -2.9506,-5.96208 -2.09757,-8.84061 1.08972,-3.67722 6.46561,10.47427 4.74403,26.59002 -3.8069,35.63638 -2.01496,2.1317 -2.06115,2.45168 -0.58868,4.07874 0.87879,0.97106 1.59781,2.06763 1.59781,2.43682 0,1.31721 -2.91627,0.6433 -3.76291,-0.86956 -0.75289,-1.34534 -1.5521,-1.21972 -6.29969,0.99023 -4.26488,1.98526 -6.94688,2.51613 -12.4374,2.46187 -3.85,-0.038 -7.5625,-0.29615 -8.25,-0.57356 z m -18.39535,-15.58772 c -1.48015,-2.87771 -2.33343,-6.71786 -2.64261,-11.893 -0.40427,-6.76664 -0.15446,-8.25726 2.17864,-13 1.4494,-2.94635 3.402,-6.56375 4.33913,-8.03866 1.6064,-2.52828 1.60553,-2.79031 -0.0152,-4.58115 -2.39672,-2.64835 -0.84362,-3.70698 1.79784,-1.22545 l 2.16087,2.03003 4.68325,-2.61752 c 5.09966,-2.85025 13.91577,-4.15854 20.1464,-2.98966 5.80583,1.08918 3.10974,2.0586 -5.94519,2.13769 -7.08721,0.0619 -8.92999,0.45579 -12.83275,2.74295 -13.05663,7.6517 -18.16564,23.55197 -11.66475,36.30309 2.18206,4.27998 2.37859,5.38168 0.96,5.38168 -0.53882,0 -1.96337,-1.9125 -3.16567,-4.25 z m 32.14535,-23.75 c 0,-1.65 0.14081,-3 0.31291,-3 0.1721,0 1.60629,1.35 3.18709,3 l 2.87418,3 -3.18709,0 c -2.87455,0 -3.18709,-0.2942 -3.18709,-3 z"
         id="path4321" />
    </g>
  </g>
</svg>
