<?xml version="1.0" encoding="UTF-8" standalone="no"?>
<svg
     xmlns:dc="http://purl.org/dc/elements/1.1/"
     xmlns:cc="http://creativecommons.org/ns#"
     xmlns:rdf="http://www.w3.org/1999/02/22-rdf-syntax-ns#"
     xmlns:svg="http://www.w3.org/2000/svg"
     xmlns="http://www.w3.org/2000/svg"
     xmlns:sodipodi="http://sodipodi.sourceforge.net/DTD/sodipodi-0.dtd"
     xmlns:inkscape="http://www.inkscape.org/namespaces/inkscape"
     version="1.1"
     id="Calque_1"
     x="0px"
     y="0px"
     width="636.271px"
     height="636.27px"
     viewBox="0 0 636.271 636.27"
     enable-background="new 0 0 636.271 636.27"
     xml:space="preserve"
     sodipodi:docname="board-color.svg"
     inkscape:version="0.92.2 5c3e80d, 2017-08-06"><title
         id="title564">osgeo-board-color</title><metadata
         id="metadata29"><rdf:RDF><cc:Work
                 rdf:about=""><dc:format>image/svg+xml</dc:format><dc:type
                     rdf:resource="http://purl.org/dc/dcmitype/StillImage" /><dc:title>osgeo-board-color</dc:title><dc:date>08-21-2018</dc:date><dc:creator><cc:Agent><dc:title>Nicolas Bozon</dc:title></cc:Agent></dc:creator><dc:rights><cc:Agent><dc:title>copyright OSGeo</dc:title></cc:Agent></dc:rights><dc:publisher><cc:Agent><dc:title>OSGeo</dc:title></cc:Agent></dc:publisher><dc:identifier>osgeo-board-color</dc:identifier><dc:description>OSGeo Board color</dc:description><dc:contributor><cc:Agent><dc:title>OSGeo Marketing Committee</dc:title></cc:Agent></dc:contributor><cc:license
                     rdf:resource="http://creativecommons.org/licenses/by-sa/4.0/" /></cc:Work><cc:License
                 rdf:about="http://creativecommons.org/licenses/by-sa/4.0/"><cc:permits
                     rdf:resource="http://creativecommons.org/ns#Reproduction" /><cc:permits
                     rdf:resource="http://creativecommons.org/ns#Distribution" /><cc:requires
                     rdf:resource="http://creativecommons.org/ns#Notice" /><cc:requires
                     rdf:resource="http://creativecommons.org/ns#Attribution" /><cc:permits
                     rdf:resource="http://creativecommons.org/ns#DerivativeWorks" /><cc:requires
                     rdf:resource="http://creativecommons.org/ns#ShareAlike" /></cc:License></rdf:RDF></metadata><defs
         id="defs27" /><sodipodi:namedview
         pagecolor="#ffffff"
         bordercolor="#666666"
         borderopacity="1"
         objecttolerance="10"
         gridtolerance="10"
         guidetolerance="10"
         inkscape:pageopacity="0"
         inkscape:pageshadow="2"
         inkscape:window-width="640"
         inkscape:window-height="480"
         id="namedview25"
         showgrid="false"
         inkscape:zoom="0.37091171"
         inkscape:cx="318.1355"
         inkscape:cy="318.13501"
         inkscape:window-x="0"
         inkscape:window-y="0"
         inkscape:window-maximized="0"
         inkscape:current-layer="Calque_1" /><g
         id="g22"><path
             fill="#4DAF5C"
             d="M302.229,127.961V64.172V0l-39.904,69.848C153.628,94.171,71.226,187.974,64.18,302.225h63.774   C135.611,209.508,209.508,135.621,302.229,127.961z"
             id="path2" /><path
             fill="#023B41"
             d="M127.951,334.048H64.172H0l69.849,39.904c24.322,108.683,118.128,191.091,232.378,198.14V508.31   C209.508,500.652,135.611,426.765,127.951,334.048z"
             id="path4" /><path
             fill="#023B41"
             d="M566.432,262.323c-24.329-108.692-118.132-191.1-232.384-198.146v63.788   c92.716,7.652,166.611,81.546,174.273,174.262h63.781h64.168L566.432,262.323z"
             id="path6" /><path
             fill="#4DAF5C"
             d="M334.049,508.31v63.803v64.156l39.901-69.846c108.688-24.324,191.103-118.127,198.146-232.386h-63.776   C500.66,426.756,426.76,500.642,334.049,508.31z"
             id="path8" /><g
             id="g20"><path
                 fill="#023B41"
                 d="M443.29,260.15c-39.153-28.232-77.978-57.376-116.801-86.254c-3.303-2.436-8.888-2.436-12.19,0    c-38.644,28.917-77.105,57.794-116.109,86.024c-3.484,2.437-2.764,9.057,1.229,8.827c80.95-2.663,161.899-2.663,242.819-0.228    C446.261,268.748,446.772,262.813,443.29,260.15z"
                 id="path10" /><path
                 fill="#4DAF5C"
                 d="M429.208,280.467c-9.579-0.229-14.264-0.229-23.841-0.456c-2.611,0-4.534,2.436-4.534,5.517    c0.511,41.7,0.181,83.362-1.051,125.062c0.001,3.082,1.922,5.289,4.354,5.289c9.547-0.457,14.263-0.646,23.66-1.104    c2.463-0.229,4.534-2.663,4.715-5.744c1.379-41.016,1.921-82.07,1.409-123.047C433.739,282.902,431.639,280.467,429.208,280.467z"
                 id="path12" /><path
                 fill="#4DAF5C"
                 d="M365.491,279.592c-9.576-0.228-14.262-0.228-23.839-0.228c-2.432,0-4.534,2.435-4.534,5.517    c0.181,42.348,0,84.694-0.18,127.042c-0.181,3.082,1.922,5.517,4.354,5.517c9.549-0.229,14.264-0.229,23.659-0.455    c2.433-0.229,4.533-2.667,4.533-5.748c0.691-42.117,0.871-84.274,0.541-126.126C370.026,282.027,367.926,279.592,365.491,279.592z    "
                 id="path14" /><path
                 fill="#4DAF5C"
                 d="M304.209,284.348c0-3.082-2.101-5.518-4.535-5.518c-9.576,0-14.261,0.229-23.84,0.229    c-2.431,0-4.532,2.436-4.532,5.517c-0.36,42.157,0,84.275,0.689,126.396c0,3.081,2.103,5.745,4.534,5.745    c9.396,0.229,14.113,0.457,23.511,0.457c2.434,0,4.354-2.437,4.354-5.52C304.03,369.309,304.03,326.96,304.209,284.348z"
                 id="path16" /><path
                 fill="#4DAF5C"
                 d="M240.375,285.262c0-3.083-2.102-5.519-4.534-5.519c-9.578,0-14.263,0.229-23.84,0.457    c-2.611,0-4.715,2.436-4.715,5.517c-0.54,41.244,0,82.068,1.383,123.084c0.181,3.082,2.281,5.516,4.713,5.746    c9.549,0.457,14.263,0.646,23.661,1.104c2.433,0.229,4.534-2.207,4.354-5.289C240.165,368.662,239.804,326.96,240.375,285.262z"
                 id="path18" /></g></g></svg>
