<?xml version="1.0" encoding="UTF-8" standalone="no"?>
<svg
     xmlns:dc="http://purl.org/dc/elements/1.1/"
     xmlns:cc="http://creativecommons.org/ns#"
     xmlns:rdf="http://www.w3.org/1999/02/22-rdf-syntax-ns#"
     xmlns:svg="http://www.w3.org/2000/svg"
     xmlns="http://www.w3.org/2000/svg"
     xmlns:sodipodi="http://sodipodi.sourceforge.net/DTD/sodipodi-0.dtd"
     xmlns:inkscape="http://www.inkscape.org/namespaces/inkscape"
     version="1.1"
     id="Calque_1"
     x="0px"
     y="0px"
     width="636.271px"
     height="636.27px"
     viewBox="0 0 636.271 636.27"
     enable-background="new 0 0 636.271 636.27"
     xml:space="preserve"
     sodipodi:docname="charter-member-color.svg"
     inkscape:version="0.92.2 5c3e80d, 2017-08-06"><title
         id="title543">osgeo-charter-member-color</title><metadata
         id="metadata52"><rdf:RDF><cc:Work
                 rdf:about=""><dc:format>image/svg+xml</dc:format><dc:type
                     rdf:resource="http://purl.org/dc/dcmitype/StillImage" /><dc:title>osgeo-charter-member-color</dc:title><dc:date>08-21-2018</dc:date><dc:creator><cc:Agent><dc:title>Nicolas Bozon</dc:title></cc:Agent></dc:creator><dc:rights><cc:Agent><dc:title>copyright OSGeo</dc:title></cc:Agent></dc:rights><dc:publisher><cc:Agent><dc:title>OSGeo</dc:title></cc:Agent></dc:publisher><dc:identifier>osgeo-charter-member-color</dc:identifier><dc:description>OSGeo Charter Member color</dc:description><dc:contributor><cc:Agent><dc:title>OSGeo Marketing Committee</dc:title></cc:Agent></dc:contributor><cc:license
                     rdf:resource="http://creativecommons.org/licenses/by-sa/4.0/" /></cc:Work><cc:License
                 rdf:about="http://creativecommons.org/licenses/by-sa/4.0/"><cc:permits
                     rdf:resource="http://creativecommons.org/ns#Reproduction" /><cc:permits
                     rdf:resource="http://creativecommons.org/ns#Distribution" /><cc:requires
                     rdf:resource="http://creativecommons.org/ns#Notice" /><cc:requires
                     rdf:resource="http://creativecommons.org/ns#Attribution" /><cc:permits
                     rdf:resource="http://creativecommons.org/ns#DerivativeWorks" /><cc:requires
                     rdf:resource="http://creativecommons.org/ns#ShareAlike" /></cc:License></rdf:RDF></metadata><defs
         id="defs50" /><sodipodi:namedview
         pagecolor="#ffffff"
         bordercolor="#666666"
         borderopacity="1"
         objecttolerance="10"
         gridtolerance="10"
         guidetolerance="10"
         inkscape:pageopacity="0"
         inkscape:pageshadow="2"
         inkscape:window-width="640"
         inkscape:window-height="480"
         id="namedview48"
         showgrid="false"
         inkscape:zoom="0.37091171"
         inkscape:cx="318.1355"
         inkscape:cy="318.13501"
         inkscape:window-x="0"
         inkscape:window-y="0"
         inkscape:window-maximized="0"
         inkscape:current-layer="Calque_1" /><g
         id="g39"><path
             fill="#4DAF5C"
             d="M302.229,127.961V64.172V0l-39.904,69.848C153.628,94.171,71.226,187.974,64.18,302.225h63.774   C135.611,209.508,209.508,135.621,302.229,127.961z"
             id="path31" /><path
             fill="#023B41"
             d="M127.951,334.048H64.172H0l69.849,39.904c24.322,108.683,118.128,191.091,232.378,198.14V508.31   C209.508,500.652,135.611,426.765,127.951,334.048z"
             id="path33" /><path
             fill="#023B41"
             d="M566.432,262.323c-24.329-108.692-118.132-191.1-232.384-198.146v63.788   c92.716,7.652,166.611,81.546,174.273,174.262h63.781h64.168L566.432,262.323z"
             id="path35" /><path
             fill="#4DAF5C"
             d="M334.049,508.31v63.803v64.156l39.901-69.846c108.688-24.324,191.103-118.127,198.146-232.386h-63.776   C500.66,426.756,426.76,500.642,334.049,508.31z"
             id="path37" /></g><g
         id="g45"><path
             fill="#4DAF5C"
             d="M418.383,337.88c-2.5-8.313-5.682-15.467-9.451-21.258c-3.525-5.412-8.09-9.724-13.951-13.18   c-4.783-2.82-10.107-4.417-16.199-4.845c-16.824,15.213-36.916,22.92-59.778,22.92c-22.865,0-42.958-7.706-59.779-22.92   c-6.092,0.429-11.417,2.023-16.2,4.845c-5.862,3.456-10.425,7.768-13.95,13.18c-3.771,5.789-6.951,12.94-9.453,21.26   c-2.59,8.617-4.389,17.289-5.345,25.775c-0.978,8.688-1.474,18.07-1.474,27.881c0,11.076,3.033,20.245,9.273,28.034   c5.751,7.178,12.315,10.666,20.066,10.666h153.72c7.752,0,14.315-3.488,20.065-10.666c6.241-7.787,9.273-16.958,9.273-28.034   c0-9.815-0.497-19.197-1.474-27.882C422.774,355.179,420.975,346.506,418.383,337.88z"
             id="path41" /><path
             fill="#023B41"
             d="M319.002,292c16.75,0,30.653-5.762,42.506-17.613c11.854-11.854,17.613-25.757,17.613-42.507   s-5.761-30.654-17.613-42.506c-11.853-11.853-25.756-17.613-42.506-17.613c-16.751,0-30.654,5.762-42.507,17.613   c-11.852,11.853-17.614,25.756-17.614,42.506s5.763,30.654,17.614,42.507C288.346,286.238,302.251,292,319.002,292z"
             id="path43" /></g></svg>
