<?xml version="1.0" encoding="UTF-8" standalone="no"?>
<svg
     xmlns:dc="http://purl.org/dc/elements/1.1/"
     xmlns:cc="http://creativecommons.org/ns#"
     xmlns:rdf="http://www.w3.org/1999/02/22-rdf-syntax-ns#"
     xmlns:svg="http://www.w3.org/2000/svg"
     xmlns="http://www.w3.org/2000/svg"
     xmlns:sodipodi="http://sodipodi.sourceforge.net/DTD/sodipodi-0.dtd"
     xmlns:inkscape="http://www.inkscape.org/namespaces/inkscape"
     version="1.1"
     id="Calque_1"
     x="0px"
     y="0px"
     width="636.271px"
     height="636.27px"
     viewBox="0 0 636.271 636.27"
     enable-background="new 0 0 636.271 636.27"
     xml:space="preserve"
     sodipodi:docname="committee-color.svg"
     inkscape:version="0.92.2 5c3e80d, 2017-08-06"><title
         id="title499">osgeo-committee-color</title><metadata
         id="metadata136"><rdf:RDF><cc:Work
                 rdf:about=""><dc:format>image/svg+xml</dc:format><dc:type
                     rdf:resource="http://purl.org/dc/dcmitype/StillImage" /><dc:title>osgeo-committee-color</dc:title><dc:date>08-21-2018</dc:date><dc:creator><cc:Agent><dc:title>Nicolas Bozon</dc:title></cc:Agent></dc:creator><dc:rights><cc:Agent><dc:title>copyright OSGeo</dc:title></cc:Agent></dc:rights><dc:publisher><cc:Agent><dc:title>OSGeo</dc:title></cc:Agent></dc:publisher><dc:identifier>osgeo-committee-color</dc:identifier><dc:description>OSGeo Committee color</dc:description><dc:contributor><cc:Agent><dc:title>OSGeo Marketing Committee</dc:title></cc:Agent></dc:contributor><cc:license
                     rdf:resource="http://creativecommons.org/licenses/by-sa/4.0/" /></cc:Work><cc:License
                 rdf:about="http://creativecommons.org/licenses/by-sa/4.0/"><cc:permits
                     rdf:resource="http://creativecommons.org/ns#Reproduction" /><cc:permits
                     rdf:resource="http://creativecommons.org/ns#Distribution" /><cc:requires
                     rdf:resource="http://creativecommons.org/ns#Notice" /><cc:requires
                     rdf:resource="http://creativecommons.org/ns#Attribution" /><cc:permits
                     rdf:resource="http://creativecommons.org/ns#DerivativeWorks" /><cc:requires
                     rdf:resource="http://creativecommons.org/ns#ShareAlike" /></cc:License></rdf:RDF></metadata><defs
         id="defs134" /><sodipodi:namedview
         pagecolor="#ffffff"
         bordercolor="#666666"
         borderopacity="1"
         objecttolerance="10"
         gridtolerance="10"
         guidetolerance="10"
         inkscape:pageopacity="0"
         inkscape:pageshadow="2"
         inkscape:window-width="640"
         inkscape:window-height="480"
         id="namedview132"
         showgrid="false"
         inkscape:zoom="0.37091171"
         inkscape:cx="318.1355"
         inkscape:cy="318.13501"
         inkscape:window-x="0"
         inkscape:window-y="0"
         inkscape:window-maximized="0"
         inkscape:current-layer="Calque_1" /><g
         id="g121"><path
             fill="#4DAF5C"
             d="M302.229,127.961V64.172V0l-39.904,69.848C153.628,94.171,71.226,187.974,64.18,302.225h63.773   C135.611,209.508,209.508,135.621,302.229,127.961z"
             id="path113" /><path
             fill="#023B41"
             d="M127.951,334.048H64.172H0l69.85,39.904c24.321,108.683,118.128,191.091,232.378,198.14V508.31   C209.508,500.652,135.611,426.765,127.951,334.048z"
             id="path115" /><path
             fill="#023B41"
             d="M566.432,262.323c-24.329-108.692-118.132-191.1-232.384-198.146v63.788   c92.716,7.652,166.61,81.546,174.272,174.262h63.781h64.168L566.432,262.323z"
             id="path117" /><path
             fill="#4DAF5C"
             d="M334.05,508.31v63.803v64.156l39.9-69.846c108.688-24.324,191.104-118.127,198.146-232.386H508.32   C500.66,426.756,426.76,500.642,334.05,508.31z"
             id="path119" /></g><g
         id="g129"><circle
             fill="#023B41"
             cx="317.509"
             cy="317.535"
             r="43.757"
             id="circle123" /><g
             id="g127"><path
                 fill="#4DAF5C"
                 d="M402.456,282.332c-4.37-10.565-2.438-22.459,5.438-33.485l11.251-15.756l-17.193-17.19l-15.764,11.255    c-7.034,5.021-14.661,7.676-22.057,7.676c-15.753,0-28.323-11.969-31.281-29.782l-3.186-19.086h-24.318l-3.185,19.098    c-2.973,17.802-15.54,29.765-31.272,29.771c-7.406,0-15.035-2.652-22.064-7.673l-15.756-11.255l-17.201,17.195l11.253,15.75    c7.871,11.03,9.803,22.92,5.439,33.482c-4.396,10.583-14.172,17.632-27.53,19.86l-19.099,3.186v24.317l19.103,3.187    c13.349,2.211,23.124,9.25,27.52,19.821c4.375,10.59,2.446,22.485-5.423,33.512l-11.257,15.76l17.203,17.204l15.753-11.253    c7.041-5.021,14.668-7.677,22.062-7.677c15.738,0,28.308,11.963,31.276,29.769l3.183,19.098h24.32l3.181-19.1    c2.974-17.81,15.544-29.771,31.279-29.771c7.398,0,15.025,2.654,22.062,7.678l15.76,11.252l17.2-17.205l-11.256-15.76    c-7.864-11.035-9.795-22.922-5.438-33.473c4.398-10.599,14.184-17.647,27.554-19.862l6.244-4.286V306.48l-6.27-4.289    C416.602,299.959,406.828,292.907,402.456,282.332z M317.509,389.832c-39.864,0-72.299-32.432-72.299-72.296    c0-39.865,32.435-72.298,72.299-72.298s72.298,32.433,72.298,72.298C389.805,357.4,357.374,389.832,317.509,389.832z"
                 id="path125" /></g></g></svg>
