<?xml version="1.0" encoding="UTF-8" standalone="no"?>
<svg
     xmlns:dc="http://purl.org/dc/elements/1.1/"
     xmlns:cc="http://creativecommons.org/ns#"
     xmlns:rdf="http://www.w3.org/1999/02/22-rdf-syntax-ns#"
     xmlns:svg="http://www.w3.org/2000/svg"
     xmlns="http://www.w3.org/2000/svg"
     xmlns:sodipodi="http://sodipodi.sourceforge.net/DTD/sodipodi-0.dtd"
     xmlns:inkscape="http://www.inkscape.org/namespaces/inkscape"
     version="1.1"
     id="Calque_1"
     x="0px"
     y="0px"
     width="636.271px"
     height="636.27px"
     viewBox="0 0 636.271 636.27"
     enable-background="new 0 0 636.271 636.27"
     xml:space="preserve"
     sodipodi:docname="gsoc-color.svg"
     inkscape:version="0.92.2 5c3e80d, 2017-08-06"><title
         id="title347">osgeo-gsoc-color</title><metadata
         id="metadata145"><rdf:RDF><cc:Work
                 rdf:about=""><dc:format>image/svg+xml</dc:format><dc:type
                     rdf:resource="http://purl.org/dc/dcmitype/StillImage" /><dc:title>osgeo-gsoc-color</dc:title><dc:date>08-21-2018</dc:date><dc:creator><cc:Agent><dc:title>Nicolas Bozon</dc:title></cc:Agent></dc:creator><dc:rights><cc:Agent><dc:title>copyright OSGeo</dc:title></cc:Agent></dc:rights><dc:publisher><cc:Agent><dc:title>OSGeo</dc:title></cc:Agent></dc:publisher><dc:identifier>osgeo-gsoc-color</dc:identifier><dc:description>OSGeo gsoc color</dc:description><cc:license
                     rdf:resource="http://creativecommons.org/licenses/by-sa/4.0/" /></cc:Work><cc:License
                 rdf:about="http://creativecommons.org/licenses/by-sa/4.0/"><cc:permits
                     rdf:resource="http://creativecommons.org/ns#Reproduction" /><cc:permits
                     rdf:resource="http://creativecommons.org/ns#Distribution" /><cc:requires
                     rdf:resource="http://creativecommons.org/ns#Notice" /><cc:requires
                     rdf:resource="http://creativecommons.org/ns#Attribution" /><cc:permits
                     rdf:resource="http://creativecommons.org/ns#DerivativeWorks" /><cc:requires
                     rdf:resource="http://creativecommons.org/ns#ShareAlike" /></cc:License></rdf:RDF></metadata><defs
         id="defs143" /><sodipodi:namedview
         pagecolor="#ffffff"
         bordercolor="#666666"
         borderopacity="1"
         objecttolerance="10"
         gridtolerance="10"
         guidetolerance="10"
         inkscape:pageopacity="0"
         inkscape:pageshadow="2"
         inkscape:window-width="640"
         inkscape:window-height="480"
         id="namedview141"
         showgrid="false"
         inkscape:zoom="0.37091171"
         inkscape:cx="318.1355"
         inkscape:cy="318.13501"
         inkscape:window-x="0"
         inkscape:window-y="0"
         inkscape:window-maximized="0"
         inkscape:current-layer="Calque_1" /><g
         id="g138"><path
             fill="#4DAF5C"
             d="M302.229,127.961V64.172V0l-39.904,69.848C153.628,94.171,71.226,187.974,64.18,302.225h63.775   C135.611,209.508,209.508,135.621,302.229,127.961z"
             id="path128" /><path
             fill="#023B41"
             d="M127.951,334.049H64.172H0l69.848,39.904c24.323,108.683,118.128,191.09,232.378,198.139V508.31   C209.508,500.652,135.611,426.766,127.951,334.049z"
             id="path130" /><path
             fill="#023B41"
             d="M566.432,262.323C542.103,153.631,448.3,71.223,334.048,64.177v63.788   c92.716,7.652,166.612,81.546,174.274,174.262h63.781h64.168L566.432,262.323z"
             id="path132" /><path
             fill="#4DAF5C"
             d="M334.048,508.31v63.802v64.157l39.902-69.845C482.638,542.1,565.052,448.298,572.094,334.039h-63.776   C500.66,426.756,426.759,500.642,334.048,508.31z"
             id="path134" /><path
             fill="#4DAF5C"
             d="M445.758,318.945c0-8.062-1.24-16.742-3.102-24.804H315.539v52.707h73.171   c-6.82,33.483-35.346,52.707-73.171,52.707c-44.646,0-80.609-35.966-80.609-80.61c0-44.646,35.965-80.611,80.609-80.611   c19.224,0,36.585,6.821,50.228,17.982l39.686-39.686c-24.183-21.083-55.188-34.104-89.912-34.104   c-75.648,0-136.418,60.768-136.418,136.418c0,75.649,60.77,136.419,136.418,136.419   C383.748,455.364,445.758,405.758,445.758,318.945z"
             id="path136" /></g></svg>
