<?xml version="1.0" encoding="UTF-8" standalone="no"?>
<svg
     xmlns:dc="http://purl.org/dc/elements/1.1/"
     xmlns:cc="http://creativecommons.org/ns#"
     xmlns:rdf="http://www.w3.org/1999/02/22-rdf-syntax-ns#"
     xmlns:svg="http://www.w3.org/2000/svg"
     xmlns="http://www.w3.org/2000/svg"
     xmlns:sodipodi="http://sodipodi.sourceforge.net/DTD/sodipodi-0.dtd"
     xmlns:inkscape="http://www.inkscape.org/namespaces/inkscape"
     version="1.1"
     id="Calque_1"
     x="0px"
     y="0px"
     width="636.271px"
     height="636.27px"
     viewBox="0 0 636.271 636.27"
     enable-background="new 0 0 636.271 636.27"
     xml:space="preserve"
     sodipodi:docname="open-geoscience-color.svg"
     inkscape:version="0.92.2 5c3e80d, 2017-08-06"><title
         id="title394">osgeo-oepn-geoscience-color</title><metadata
         id="metadata272"><rdf:RDF><cc:Work
                 rdf:about=""><dc:format>image/svg+xml</dc:format><dc:type
                     rdf:resource="http://purl.org/dc/dcmitype/StillImage" /><dc:title>osgeo-oepn-geoscience-color</dc:title><dc:date>08-21-2018</dc:date><dc:creator><cc:Agent><dc:title>Nicolas Bozon</dc:title></cc:Agent></dc:creator><dc:rights><cc:Agent><dc:title>copyright OSGeo</dc:title></cc:Agent></dc:rights><dc:publisher><cc:Agent><dc:title>OSGeo</dc:title></cc:Agent></dc:publisher><dc:identifier>osgeo-open-geoscience</dc:identifier><dc:description>OSGeo Open Geoscience</dc:description><dc:contributor><cc:Agent><dc:title>OSGeo Marketing Committee</dc:title></cc:Agent></dc:contributor><cc:license
                     rdf:resource="http://creativecommons.org/licenses/by-sa/4.0/" /></cc:Work><cc:License
                 rdf:about="http://creativecommons.org/licenses/by-sa/4.0/"><cc:permits
                     rdf:resource="http://creativecommons.org/ns#Reproduction" /><cc:permits
                     rdf:resource="http://creativecommons.org/ns#Distribution" /><cc:requires
                     rdf:resource="http://creativecommons.org/ns#Notice" /><cc:requires
                     rdf:resource="http://creativecommons.org/ns#Attribution" /><cc:permits
                     rdf:resource="http://creativecommons.org/ns#DerivativeWorks" /><cc:requires
                     rdf:resource="http://creativecommons.org/ns#ShareAlike" /></cc:License></rdf:RDF></metadata><defs
         id="defs270" /><sodipodi:namedview
         pagecolor="#ffffff"
         bordercolor="#666666"
         borderopacity="1"
         objecttolerance="10"
         gridtolerance="10"
         guidetolerance="10"
         inkscape:pageopacity="0"
         inkscape:pageshadow="2"
         inkscape:window-width="640"
         inkscape:window-height="480"
         id="namedview268"
         showgrid="false"
         inkscape:zoom="0.37091171"
         inkscape:cx="318.1355"
         inkscape:cy="318.13501"
         inkscape:window-x="0"
         inkscape:window-y="0"
         inkscape:window-maximized="0"
         inkscape:current-layer="Calque_1" /><g
         id="g253"><path
             fill="#4DAF5C"
             d="M302.229,127.961V64.172V0l-39.904,69.848C153.628,94.171,71.226,187.974,64.18,302.225h63.775   C135.611,209.508,209.508,135.621,302.229,127.961z"
             id="path245" /><path
             fill="#023B41"
             d="M127.951,334.049H64.172H0l69.848,39.904c24.323,108.683,118.128,191.09,232.378,198.139V508.31   C209.508,500.652,135.611,426.766,127.951,334.049z"
             id="path247" /><path
             fill="#023B41"
             d="M566.432,262.323C542.103,153.631,448.3,71.223,334.048,64.177v63.788   c92.716,7.652,166.612,81.546,174.274,174.262h63.781h64.168L566.432,262.323z"
             id="path249" /><path
             fill="#4DAF5C"
             d="M334.048,508.31v63.802v64.157l39.902-69.845C482.638,542.1,565.052,448.298,572.094,334.039h-63.776   C500.66,426.756,426.759,500.642,334.048,508.31z"
             id="path251" /></g><g
         id="g265"><path
             fill="#4DAF5C"
             d="M418.671,217.1c-25.854-25.854-61.561-41.855-101.011-41.855c-39.451,0-75.158,16.001-101.052,41.855   c-25.854,25.815-41.854,61.6-41.854,101.012c0,39.411,16.001,75.158,41.854,101.013c25.894,25.854,61.64,41.854,101.052,41.854   c39.412,0,75.158-16.001,101.011-41.854c25.854-25.854,41.855-61.602,41.855-101.013C460.526,278.7,444.525,242.954,418.671,217.1z    M252.157,213.316c18.956-11.902,41.421-18.76,65.502-18.76c3.508,0,7.015,0.158,10.483,0.434   c15.567,8.316,27.745,19.824,36.612,33.303c2.642-1.853,5.676-3.231,8.908-4.02c-5.873-9.262-13.203-17.696-21.952-25.027   c20.454,5.833,38.702,16.829,53.323,31.45c5.084,5.084,9.735,10.641,13.912,16.553c-4.177-0.907-8.473-1.694-12.848-2.286   c0.314,1.695,0.512,3.428,0.512,5.202c0,1.577-0.117,3.074-0.395,4.571c7.016,0.946,13.755,2.483,20.14,4.454   c6.897,12.73,11.666,26.84,13.716,41.816c-5.203,10.404-14.543,19.705-27.588,27.706c0,0,0,0-0.001,0.001   c0.001-0.001,0.001-0.001,0.001-0.001c-6.345-6.778-13.518-13.558-21.439-20.14c1.498-11.508,1.537-22.977,0.157-34.209   c-2.916,1.34-6.069,2.207-9.419,2.444c0.906,8.08,1.025,16.355,0.314,24.632c-10.444-8-21.952-15.646-34.17-22.623   c-8.749-4.966-17.854-9.577-27.272-13.755c10.956-3.98,22.149-6.937,33.263-8.907c-0.434-1.892-0.67-3.902-0.67-5.952   c0-1.261,0.082-2.522,0.275-3.744c-15.33,2.602-30.779,7.055-45.677,13.243c-19.233-7.449-39.451-13.006-59.945-15.646   C248.57,234.205,249.949,223.957,252.157,213.316z M403.93,333.482c-6.424,3.271-13.597,6.228-21.399,8.907   c2.877-7.488,5.083-15.134,6.66-22.858C394.511,324.142,399.438,328.793,403.93,333.482z M230.244,230.736   c3.35-3.35,6.857-6.503,10.562-9.419c-1.183,7.409-2.049,14.661-2.523,21.715c-6.03-0.551-12.139-0.79-18.208-0.749   C223.228,238.224,226.618,234.362,230.244,230.736z M207.425,362.687C207.425,362.687,207.425,362.687,207.425,362.687   c-0.749,2.325-1.419,4.689-2.01,7.054c-1.183-2.522-2.286-5.124-3.272-7.725C203.917,362.254,205.69,362.49,207.425,362.687   C207.425,362.687,207.425,362.686,207.425,362.687L207.425,362.687z M210.774,353.345c-4.02-0.473-8-0.945-12.021-1.498   c-3.034-10.719-4.69-22.03-4.69-33.735c0-24.278,7.016-46.899,19.076-65.975c8.198-0.355,16.435-0.158,24.671,0.551   c-0.196,8.907,0.197,17.499,1.104,25.775c2.798-1.024,5.833-1.576,8.986-1.576h0.59c-0.827-7.449-1.182-15.174-1.024-23.175   c16.238,2.208,32.357,6.228,47.886,11.666l-2.089,1.025c-9.656,4.927-18.957,10.681-27.707,17.144   c2.444,2.129,4.454,4.69,5.952,7.567c8.237-6.109,17.025-11.508,26.13-16.12c3.389-1.734,6.818-3.35,10.287-4.887   c12.258,4.926,24.08,10.72,35.233,17.065c13.676,7.764,26.327,16.355,37.599,25.302c-1.892,11.39-5.32,22.702-10.168,33.618   c-2.482,0.709-5.045,1.38-7.646,2.01c-22.78,5.598-49.619,8.829-79.848,9.223c-1.182-1.34-2.326-2.68-3.468-4.059   c-6.739-8.276-12.533-17.381-17.302-27.233c-2.68,1.733-5.715,2.995-8.946,3.625c4.769,9.972,10.522,19.194,17.184,27.667   c-15.804-0.196-32.437-1.143-49.855-2.916c4.02-9.734,9.104-18.799,15.055-27.154c-2.917-1.498-5.518-3.508-7.645-5.912   c-6.543,9.183-12.14,19.154-16.514,29.874L210.774,353.345z M404.996,405.449c-1.893,1.931-3.901,3.783-5.952,5.596   c-9.537-0.788-18.799-2.207-27.785-4.178c-3.271-0.749-6.463-1.537-9.656-2.404c-0.551,3.311-1.654,6.385-3.231,9.144   c3.548,0.985,7.134,1.853,10.799,2.681c6.148,1.34,12.454,2.443,18.917,3.271c-19.98,13.912-44.258,22.07-70.467,22.07   c-13.991,0-27.431-2.325-39.924-6.66c14.148-3.824,27.115-9.223,38.703-15.805c-2.286-2.286-4.178-4.967-5.518-7.961   c-14.11,7.882-30.308,13.912-48.477,17.341c-11.941-5.951-22.78-13.794-32.121-23.135c-6.818-6.818-12.809-14.425-17.893-22.622   c1.183-6.582,2.798-12.928,4.809-19.036c21.716,2.286,42.328,3.313,61.64,3.231c9.104,9.734,19.47,18.209,30.938,25.421   c0.986-3.153,2.523-6.069,4.533-8.592c-7.961-5.045-15.331-10.72-22.07-17.065c27.194-0.906,51.55-4.099,72.596-9.222   c-3.074,5.517-6.582,10.877-10.483,16.001c-1.261,1.654-2.562,3.271-3.901,4.887c2.641,1.853,4.965,4.178,6.778,6.857   c1.655-1.931,3.231-3.902,4.769-5.912c6.03-7.961,11.193-16.435,15.449-25.223c12.416-3.744,23.529-8.237,33.146-13.361   c8.789,10.208,15.332,20.258,19.036,29.52C423.518,383.418,415.124,395.319,404.996,405.449z M434.514,358.272   c-3.941-7.212-9.183-14.739-15.567-22.268c9.065-5.794,16.513-12.218,22.228-19.232v1.34   C441.175,332.142,438.85,345.66,434.514,358.272z"
             id="path255" /><path
             fill="#023B41"
             d="M379.89,271.134c11.547,0,20.888-9.38,20.888-20.928c0-11.547-9.341-20.927-20.888-20.927   c-11.548,0-20.929,9.38-20.929,20.927C358.962,261.753,368.303,271.134,379.89,271.134z"
             id="path257" /><polygon
             points="207.425,362.687 207.425,362.686 207.424,362.687  "
             id="polygon259" /><path
             fill="#023B41"
             d="M335.237,379.436c-11.549,0-20.928,9.38-20.928,20.928s9.379,20.929,20.928,20.929   c11.547,0,20.928-9.381,20.928-20.929S346.784,379.436,335.237,379.436z"
             id="path261" /><path
             fill="#023B41"
             d="M247.94,324.497c11.547,0,20.927-9.341,20.927-20.928c0-11.548-9.38-20.928-20.927-20.928   s-20.889,9.38-20.889,20.928C227.011,315.117,236.392,324.497,247.94,324.497z"
             id="path263" /></g></svg>
