<?xml version="1.0" encoding="UTF-8" standalone="no"?>
<svg
     xmlns:dc="http://purl.org/dc/elements/1.1/"
     xmlns:cc="http://creativecommons.org/ns#"
     xmlns:rdf="http://www.w3.org/1999/02/22-rdf-syntax-ns#"
     xmlns:svg="http://www.w3.org/2000/svg"
     xmlns="http://www.w3.org/2000/svg"
     xmlns:sodipodi="http://sodipodi.sourceforge.net/DTD/sodipodi-0.dtd"
     xmlns:inkscape="http://www.inkscape.org/namespaces/inkscape"
     version="1.1"
     id="Calque_1"
     x="0px"
     y="0px"
     width="726.012px"
     height="730.611px"
     viewBox="0 0 726.012 730.611"
     enable-background="new 0 0 726.012 730.611"
     xml:space="preserve"
     sodipodi:docname="travelgrant-color.svg"
     inkscape:version="0.92.2 5c3e80d, 2017-08-06"><title
         id="title326">osgeo-travelgrant-color</title><metadata
         id="metadata170"><rdf:RDF><cc:Work
                 rdf:about=""><dc:format>image/svg+xml</dc:format><dc:type
                     rdf:resource="http://purl.org/dc/dcmitype/StillImage" /><dc:title>osgeo-travelgrant-color</dc:title><dc:date>08-21-2018</dc:date><dc:creator><cc:Agent><dc:title>Nicolas Bozon</dc:title></cc:Agent></dc:creator><dc:rights><cc:Agent><dc:title>copyright OSGeo</dc:title></cc:Agent></dc:rights><dc:publisher><cc:Agent><dc:title>OSGeo</dc:title></cc:Agent></dc:publisher><dc:identifier>osgeo-travelgrant-color</dc:identifier><dc:description>OSGeo Travel grant color</dc:description><dc:contributor><cc:Agent><dc:title>OSGeo Marketing Committee</dc:title></cc:Agent></dc:contributor><cc:license
                     rdf:resource="http://creativecommons.org/licenses/by-sa/4.0/" /></cc:Work><cc:License
                 rdf:about="http://creativecommons.org/licenses/by-sa/4.0/"><cc:permits
                     rdf:resource="http://creativecommons.org/ns#Reproduction" /><cc:permits
                     rdf:resource="http://creativecommons.org/ns#Distribution" /><cc:requires
                     rdf:resource="http://creativecommons.org/ns#Notice" /><cc:requires
                     rdf:resource="http://creativecommons.org/ns#Attribution" /><cc:permits
                     rdf:resource="http://creativecommons.org/ns#DerivativeWorks" /><cc:requires
                     rdf:resource="http://creativecommons.org/ns#ShareAlike" /></cc:License></rdf:RDF></metadata><defs
         id="defs168" /><sodipodi:namedview
         pagecolor="#ffffff"
         bordercolor="#666666"
         borderopacity="1"
         objecttolerance="10"
         gridtolerance="10"
         guidetolerance="10"
         inkscape:pageopacity="0"
         inkscape:pageshadow="2"
         inkscape:window-width="640"
         inkscape:window-height="480"
         id="namedview166"
         showgrid="false"
         inkscape:zoom="0.3230173"
         inkscape:cx="363.00601"
         inkscape:cy="365.30551"
         inkscape:window-x="0"
         inkscape:window-y="0"
         inkscape:window-maximized="0"
         inkscape:current-layer="Calque_1" /><g
         id="g155"><path
             fill="#4DAF5C"
             d="M344.859,146.944V0l-45.536,80.206C175.31,108.142,81.268,215.858,73.22,347.048h72.788   C154.75,240.59,239.061,155.74,344.859,146.944z"
             id="path147" /><path
             fill="#023B41"
             d="M146.003,383.573H0l79.701,45.813c27.764,124.8,134.781,219.436,265.15,227.535v-73.27   C239.057,574.873,154.744,490.035,146.003,383.573z"
             id="path149" /><path
             fill="#023B41"
             d="M580.006,347.041h146.006l-79.701-45.829C618.564,176.418,511.527,81.79,381.156,73.709v73.224   C486.957,155.732,571.275,240.578,580.006,347.041z"
             id="path151" /><path
             fill="#4DAF5C"
             d="M381.156,583.667v146.945l45.541-80.207c124.012-27.935,218.049-135.657,226.092-266.826h-72.783   C571.262,490.018,486.949,574.873,381.156,583.667z"
             id="path153" /></g><path
         fill="#4DAF5C"
         d="M234.425,461.195c0,0.023,85.716,0.034,257.148,0.03c-0.001,0,0.002-57.137,0.013-171.41  c0-0.022-85.717-0.032-257.147-0.03C234.44,289.784,234.436,346.921,234.425,461.195z M205.852,289.815  c0-15.797,12.809-28.604,28.587-28.604h257.135c15.787,0,28.587,12.779,28.587,28.604v171.38c0,15.798-12.809,28.604-28.587,28.604  H234.439c-15.788,0-28.587-12.779-28.587-28.604V289.815z"
         id="path157" /><polygon
         fill="#4DAF5C"
         points="263.185,289.784 263.185,461.225 291.759,461.225 291.759,289.784 "
         id="polygon159" /><polygon
         fill="#4DAF5C"
         points="434.44,289.784 434.44,461.225 463.013,461.225 463.013,289.784 "
         id="polygon161" /><path
         fill="#023B41"
         d="M320.187,261.211v-21.312c0-3.855,3.184-7.027,7.072-7.027h72.271c3.9,0,7.071,3.166,7.071,7.027v21.312  h28.574v-21.312c0-19.651-15.972-35.602-35.646-35.602h-72.271c-19.647,0-35.646,15.943-35.646,35.602v21.312H320.187z"
         id="path163" /></svg>
