<?xml version="1.0" encoding="UTF-8" standalone="no"?>
<svg
     xmlns:dc="http://purl.org/dc/elements/1.1/"
     xmlns:cc="http://creativecommons.org/ns#"
     xmlns:rdf="http://www.w3.org/1999/02/22-rdf-syntax-ns#"
     xmlns:svg="http://www.w3.org/2000/svg"
     xmlns="http://www.w3.org/2000/svg"
     xmlns:sodipodi="http://sodipodi.sourceforge.net/DTD/sodipodi-0.dtd"
     xmlns:inkscape="http://www.inkscape.org/namespaces/inkscape"
     version="1.1"
     id="Calque_1"
     x="0px"
     y="0px"
     width="636.271px"
     height="636.27px"
     viewBox="0 0 636.271 636.27"
     enable-background="new 0 0 636.271 636.27"
     xml:space="preserve"
     sodipodi:docname="un-opengis-colored.svg"
     inkscape:version="0.92.2 5c3e80d, 2017-08-06"><title
         id="title352">osgeo-un-opengis-color</title><metadata
         id="metadata350"><rdf:RDF><cc:Work
                 rdf:about=""><dc:format>image/svg+xml</dc:format><dc:type
                     rdf:resource="http://purl.org/dc/dcmitype/StillImage" /><dc:title>osgeo-un-opengis-color</dc:title><dc:date>08-21-2018</dc:date><dc:creator><cc:Agent><dc:title>Nicolas Bozon</dc:title></cc:Agent></dc:creator><dc:rights><cc:Agent><dc:title>copyright OSGeo</dc:title></cc:Agent></dc:rights><dc:publisher><cc:Agent><dc:title>OSGeo</dc:title></cc:Agent></dc:publisher><dc:identifier>osgeo-un-opengis-color</dc:identifier><dc:description>OSGeo UN-OpenGIS color</dc:description><dc:contributor><cc:Agent><dc:title>OSGeo Marketing Commitee</dc:title></cc:Agent></dc:contributor><cc:license
                     rdf:resource="http://creativecommons.org/licenses/by-sa/4.0/" /></cc:Work><cc:License
                 rdf:about="http://creativecommons.org/licenses/by-sa/4.0/"><cc:permits
                     rdf:resource="http://creativecommons.org/ns#Reproduction" /><cc:permits
                     rdf:resource="http://creativecommons.org/ns#Distribution" /><cc:requires
                     rdf:resource="http://creativecommons.org/ns#Notice" /><cc:requires
                     rdf:resource="http://creativecommons.org/ns#Attribution" /><cc:permits
                     rdf:resource="http://creativecommons.org/ns#DerivativeWorks" /><cc:requires
                     rdf:resource="http://creativecommons.org/ns#ShareAlike" /></cc:License></rdf:RDF></metadata><defs
         id="defs348" /><sodipodi:namedview
         pagecolor="#ffffff"
         bordercolor="#666666"
         borderopacity="1"
         objecttolerance="10"
         gridtolerance="10"
         guidetolerance="10"
         inkscape:pageopacity="0"
         inkscape:pageshadow="2"
         inkscape:window-width="640"
         inkscape:window-height="480"
         id="namedview346"
         showgrid="false"
         inkscape:zoom="0.37091171"
         inkscape:cx="318.1355"
         inkscape:cy="318.13501"
         inkscape:window-x="0"
         inkscape:window-y="0"
         inkscape:window-maximized="0"
         inkscape:current-layer="Calque_1" /><g
         id="layer1"
         transform="translate(-226.1321,-293.592)"
         display="none"><g
             id="g2086"
             transform="matrix(1.697553,0,0,1.697553,-237.7672,38.25535)"
             display="inline"><g
                 id="g1987"><path
                     id="path1989"
                     fill="#010101"
                     d="M527.456,395.001c-5.99,1.605-12.383,2.12-18.202,4.105     c9.855-8.449,9.292-21.523,15.867-31.475c2.095-2.817,3.826-5.771,6.267-8.444c-4,8.022-2.265,18.43-6.86,26.215     c-1.768,3.092-4.298,6.092-7.094,8.521c0.914-0.035,1.713-0.826,2.516-1.354c7.463-7.446,17.212-9.529,25.283-15.58     c3.234-2.576,6.196-5.952,7.617-9.604C551.322,379.741,539.032,391.32,527.456,395.001L527.456,395.001z" /><path
                     id="path1991"
                     fill="#010101"
                     d="M554.339,344.979c-3.651,5.196-8.068,10.033-11.44,15.312     c0.376-4.18,0.871-9.32-0.758-13.28c-2.821-8.528-5.3-17.186-6.1-26.545l0.11-3.579c2.124,9.558,11.512,16.128,10.92,26.849     c0.215,2.598-0.589,4.807-1.075,7.092l0.161,0.169l0.423-0.474c1.392-5.259,2.095-10.789,4.26-15.695     c3.076-7.061,6.917-14.186,5.352-22.711C560.872,322.167,559.453,335.596,554.339,344.979L554.339,344.979z" /><path
                     id="path1993"
                     fill="#010101"
                     d="M548.576,290.83c6.156,8.344,7.506,21.639,3.021,31.209     c-1.671,4.056-2.851,8.377-3.507,12.866c-0.313-0.774-0.384-1.815-0.664-2.678c-2.449-9.367-11.309-16.044-14.952-24.876     c-1.156-2.888-2.141-5.872-2.687-9.008c3.893,7.2,13.487,10.919,16.103,18.855c1.071,2.007,1.011,4.514,1.675,6.673     c0.14,0,0.278-0.104,0.278-0.246c-1.151-8.174-0.799-16.729,0.31-24.802c-0.064-4.372-0.491-8.614-2.921-11.999     C546.791,287.734,547.493,289.477,548.576,290.83L548.576,290.83z" /><path
                     id="path1995"
                     fill="#010101"
                     d="M544.236,289.229c1.617,7.311-0.745,14.431,0.74,21.812l-0.055,0.064     c-3.977-7.821-12.421-11.512-18.232-17.772c-3.366-3.715-4.83-8.242-5.672-13.035c3.329,8.026,12.312,9.795,17.469,16.558     c1.726,1.559,2.289,3.719,3.402,5.487l0.182-0.175c-2.966-6.331-3.96-13.457-6.029-20.209c-1.037-2.926-3.093-5.801-5.852-7.646     C536.959,275.696,542.827,282.764,544.236,289.229L544.236,289.229z" /><path
                     id="path1997"
                     fill="#010101"
                     d="M526.136,272.462c5.099,4.562,7.405,10.471,8.893,16.593l0.843,1.944     c-7.4-5.322-14.123-12.477-18.849-20.033l-5.772-5.839C516.325,267.279,521.795,268.563,526.136,272.462L526.136,272.462z" /><path
                     id="path1999"
                     fill="#010101"
                     d="M409.258,266.097c-5.116,4.485-8.664,10.157-12.458,15.444     c-3.402,4.212-7.753,6.989-11.61,10.612c2.082-4.316,2.158-9.471,5.11-13.435C394.502,271.387,402.293,268.809,409.258,266.097     L409.258,266.097z" /><path
                     id="path2001"
                     fill="#010101"
                     d="M381.282,281.713c2.488-3.093,5.642-5.243,9.191-6.15     c-6.892,4.735-6.443,13.219-8.629,20.273c-0.697,2.608-1.906,5.011-2.509,7.685l0.175,0.139c1.147-3.022,3.163-5.878,5.679-8.345     c4.894-4.519,12.137-7.335,14.535-14.019c-0.11,9.289-7.859,16.592-15.273,21.812c-3.057,2.683-6.006,5.74-7.69,9.188     c-0.165-2.344,0.347-4.697,0.18-7.207C376.135,296.98,375.549,287.725,381.282,281.713L381.282,281.713z" /><path
                     id="path2003"
                     fill="#010101"
                     d="M367.337,309.44c-0.207-8.217,3.203-14.924,8.009-21.047c0.14-0.07,0.239-0.21,0.419-0.175     c-5.29,8.039-0.914,18.165-1.155,27.306l-0.698,9.359c0.104,0.068,0.104,0.349,0.349,0.24c0.312-1.043,0.381-2.158,0.589-3.23     c1.246-7.549,7.802-12.906,13.529-18.124c1.223-1.364,2.304-2.75,2.932-4.351c-0.467,3.759-1.646,7.55-3.205,11.026     c-4.457,8.692-12.69,15.824-14.194,25.774C373.182,326.683,366.69,319.554,367.337,309.44L367.337,309.44z" /><path
                     id="path2005"
                     fill="#010101"
                     d="M363.335,321.125c0.592-2.57,1.045-5.23,2.164-7.588     c-2.119,10.863,5.187,18.69,7.584,28.106c1.003,3.522,1.248,7.304,2.683,10.609c0.134,0.072,0.25-0.067,0.333-0.174     c-3.568-10.001,1.583-19.297,6.759-27.128c1.259-2.122,1.984-4.485,2.61-6.924c0.55,4.527-0.594,9.74-1.252,14.44     c-1.259,5.981-3.138,11.652-4.773,17.455c-1.076,3.626-0.793,7.717-0.24,11.516l-0.518-0.415     c-3.795-6.998-11.31-12.456-13.541-20.101C363.305,334.827,362.084,327.767,363.335,321.125L363.335,321.125z" /><path
                     id="path2007"
                     fill="#010101"
                     d="M362.993,342.342c0.836,11.514,13.217,17.598,18.957,27.13     c1.358,1.951,2.536,4.109,4.351,5.741c-0.284-1.226-1.428-2.259-1.848-3.516c-2.008-3.997-2.74-8.761-2.257-13.594     c0.556-5.881,3.022-11.338,2.081-17.524c5.043,10.874,3.512,24.447,6.331,36.23c0.739,2.576,2.23,4.877,3.208,7.341     c-10.362-7.057-24.491-13.772-29.088-26.706C362.789,352.984,362.573,347.464,362.993,342.342L362.993,342.342z" /><path
                     id="path2009"
                     fill="#010101"
                     d="M369.182,368.783c5.778,13.07,20.247,14.153,29.948,22.111     c1.785,1.583,3.656,2.928,5.672,3.866l0.104-0.105c-2.227-2.014-4.804-4.308-6.363-6.918c-5.678-7.895-3.681-18.954-7.935-27.446     c3.866,4.625,7.381,9.432,9.714,14.677c3.471,8.563,4.798,18.236,12.831,24.709c-8.693-2.864-18.877-2.065-26.549-7.417     C378.226,387.111,370.75,378.379,369.182,368.783L369.182,368.783z" /><path
                     id="path2011"
                     fill="#010101"
                     d="M384.03,393.165c9.263,10.535,24.4,7.02,36.739,9.777c1.743,0.238,3.338,0.937,5.186,0.653     c-1.472-0.931-3.512-0.83-5.118-1.676c-9.672-3.398-11.091-13.869-16.342-20.93c6.708,4.454,12.347,10.463,18.535,16.284     c4.449,3.897,9.803,5.695,15.445,6.842c-1.356,0.495-3.133,0.359-4.588,0.74c-10.135,2.492-21.396,6.566-32.144,2.919     C394.755,405.574,387.546,400.049,384.03,393.165L384.03,393.165z" /><path
                     id="path2013"
                     fill="#010101"
                     d="M509.758,417.723c-10.439,3.895-21.332-0.178-29.485-6.361     c-3.301-2.097-6.21-5.119-10.48-4.851c-1.549-0.029-3.042,0.047-4.358,0.426c7.92,3.686,15.279,8.767,22.005,15.266     c-1.134,1.295-2.603,2.506-3.986,3.622c-6.483-6.985-13.662-13.708-21.701-17.635c-1.575,0.204-3.072,1.151-4.491,1.913     c-6.544,4.137-13.016,9.46-17.88,15.976l-4.181-3.452c6.672-6.75,14.053-12.003,22.126-15.756     c-7.934-2.513-13.112,4.133-19.134,7.514c-7.018,4.9-17.11,7.201-25.591,3.82c-4.561-1.729-8.98-4.277-12.283-8.418     c6.674,4.598,16.615,5.08,24.205,2.094c10.185-4.418,20.769-10.018,33.048-7.34c1.916,0.033,3.778,1.942,5.588,0.317     c9.127-2.37,19.458-0.74,27.315,3.43l8.098,3.246c7.527,2.783,17.259,2.013,23.711-2.573     C518.969,413.089,514.438,416.047,509.758,417.723L509.758,417.723z" /><path
                     id="path2015"
                     fill="#010101"
                     d="M520.945,406.936c-11.719,4.425-23.51-1.006-34.74-2.821l-2.162-0.276v-0.068     c5.37-1.218,10.582-2.817,14.855-6.675c6.296-6.05,11.897-12.278,18.887-17.047c-5.183,6.647-5.734,16.108-14.297,20.381     c-2.118,1.386-4.793,1.632-6.98,2.682c3.118,0.067,5.974-1.05,9.062-1.363c11.483-1.802,24.62,0.047,32.676-9.735     C535.254,398.831,527.764,404.539,520.945,406.936L520.945,406.936z" /><path
                     id="path2017"
                     fill="#010101"
                     d="M542.238,373.961c-4.628,3.029-9.32,5.839-13.767,9.283v-0.423     c6.812-11.321,3.482-26.875,7.679-39.335l1.565-4.174c-0.876,7.762,2.496,14.337,2.259,22.126     c-0.236,4.705-1.771,8.877-4.243,12.633h0.419c3.337-4.384,5.944-9.045,9.845-13.22c6.055-5.839,12.211-11.827,13.006-19.929     C561.057,354.448,553.467,366.303,542.238,373.961L542.238,373.961z" /></g></g></g><g
         id="g343"><path
             fill="#4DAF5C"
             d="M302.229,127.961V64.172V0l-39.904,69.848C153.628,94.171,71.226,187.974,64.18,302.225h63.775   C135.611,209.508,209.508,135.621,302.229,127.961z"
             id="path317" /><path
             fill="#023B41"
             d="M127.951,334.049H64.172H0l69.848,39.904c24.323,108.683,118.128,191.09,232.378,198.139V508.31   C209.508,500.652,135.611,426.766,127.951,334.049z"
             id="path319" /><path
             fill="#023B41"
             d="M566.432,262.323C542.103,153.631,448.3,71.224,334.048,64.178v63.788   c92.716,7.652,166.612,81.546,174.274,174.262h63.781h64.168L566.432,262.323z"
             id="path321" /><path
             fill="#4DAF5C"
             d="M334.048,508.31v63.802v64.157l39.902-69.845C482.638,542.1,565.052,448.298,572.094,334.039h-63.776   C500.66,426.756,426.759,500.642,334.048,508.31z"
             id="path323" /><path
             fill="#023B41"
             d="M359.595,400.059c34.278,7.036,74.72-1.952,96.646-30.919l4.395-5.808l-7.194-1.129   c-34.425-5.404-73.422,2.812-96.34,30.827l-4.565,5.581L359.595,400.059z"
             id="path325" /><path
             fill="#4DAF5C"
             d="M366.028,186.883l-5.104-4.104l-1.815,6.295c-8.843,30.726,7.876,64.71,32.625,83.018l5.551,4.107   l1.312-6.786C404.586,238.467,390.164,206.289,366.028,186.883z"
             id="path327" /><path
             fill="#4DAF5C"
             d="M395.7,363.346l6.392-1.414c34.486-7.607,58.671-41.773,63.409-75.443l0.965-6.843l-6.587,2.083   c-33.324,10.523-56.87,41.394-63.009,75.169L395.7,363.346z"
             id="path329" /><path
             fill="#023B41"
             d="M418.751,303.191c19.702-25.525,23.585-61.192,10.81-90.676l-2.919-6.73l-4.52,5.786   c-19.902,25.499-22.905,61.013-10.863,90.602l2.859,7.011L418.751,303.191z"
             id="path331" /><path
             fill="#023B41"
             d="M221.167,309.186l2.857-7.014c12.043-29.588,9.046-65.103-10.863-90.602l-4.513-5.786l-2.92,6.73   c-12.774,29.483-8.896,65.149,10.811,90.679L221.167,309.186z"
             id="path333" /><path
             fill="#023B41"
             d="M275.692,400.057l7.06-1.449l-4.562-5.578c-22.925-28.014-61.915-36.229-96.344-30.826l-7.193,1.127   l4.396,5.809C200.973,398.106,241.413,407.093,275.692,400.057z"
             id="path335" /><path
             fill="#4DAF5C"
             d="M243.559,272.091c24.749-18.308,41.462-52.292,32.614-83.015l-1.81-6.295l-5.107,4.102   c-24.136,19.406-38.55,51.584-32.566,82.529l1.31,6.786L243.559,272.091z"
             id="path337" /><path
             fill="#4DAF5C"
             d="M168.821,279.642l0.965,6.846c4.738,33.669,28.921,67.835,63.412,75.443l6.393,1.414l-1.169-6.447   c-6.138-33.775-29.688-64.646-63.008-75.169L168.821,279.642z"
             id="path339" /><path
             fill="#4DAF5C"
             d="M350.683,452.854l2.613,1.132l2.083-1.938c1.688-1.569,3.382-3.123,5.099-4.664l4.155-3.739l-4.636-3.113   c-6.729-4.538-12.557-10.279-18.168-16.245c7.678,3.806,15.3,8.187,24.029,9.825c15.664,2.632,32.389,3.571,47.244-2.914   l7.179-3.128l-6.445-4.449c-14.684-10.129-30.446-19.575-48.675-21.028c-14.432-0.788-29.014-0.435-43.098,2.812l-0.188,0.043   l-0.179,0.062c-2.664,0.858-5.438,0.858-8.099,0l-0.183-0.062l-0.182-0.043c-14.093-3.246-28.672-3.601-43.051-2.812   c-18.271,1.453-34.038,10.896-48.728,21.028l-6.45,4.449l7.184,3.128c14.854,6.483,31.579,5.546,47.206,2.92   c8.75-1.64,16.379-6.023,24.062-9.828c-5.609,5.966-11.44,11.706-18.168,16.245l-4.631,3.113l4.149,3.738   c1.711,1.539,3.406,3.09,5.092,4.662l2.084,1.938l2.619-1.131c16.037-6.926,20.585-24.147,33.035-32.27   C330.095,428.71,334.646,445.932,350.683,452.854z"
             id="path341" /></g></svg>
