<?xml version="1.0" encoding="UTF-8" standalone="no"?>
<!-- Created with Inkscape (http://www.inkscape.org/) -->

<svg
   xmlns:dc="http://purl.org/dc/elements/1.1/"
   xmlns:cc="http://creativecommons.org/ns#"
   xmlns:rdf="http://www.w3.org/1999/02/22-rdf-syntax-ns#"
   xmlns:svg="http://www.w3.org/2000/svg"
   xmlns="http://www.w3.org/2000/svg"
   xmlns:sodipodi="http://sodipodi.sourceforge.net/DTD/sodipodi-0.dtd"
   xmlns:inkscape="http://www.inkscape.org/namespaces/inkscape"
   id="svg2"
   version="1.1"
   inkscape:version="0.91 r13725"
   xml:space="preserve"
   width="174.21249"
   height="174.2"
   viewBox="0 0 174.21249 174.2"
   sodipodi:docname="osgo-jp-emblem-circle.svg"
   inkscape:export-filename="/Users/jody/Drive/OSGeo Marketing/Branding/Collateral/Social Media/004-Community/osgeo-jp/osgo-jp-emblem-circle.png"
   inkscape:export-xdpi="206.64999"
   inkscape:export-ydpi="206.64999"><metadata
     id="metadata8"><rdf:RDF><cc:Work
         rdf:about=""><dc:format>image/svg+xml</dc:format><dc:type
           rdf:resource="http://purl.org/dc/dcmitype/StillImage" /><dc:title></dc:title></cc:Work></rdf:RDF></metadata><defs
     id="defs6" /><sodipodi:namedview
     pagecolor="#ffffff"
     bordercolor="#666666"
     borderopacity="1"
     objecttolerance="10"
     gridtolerance="10"
     guidetolerance="10"
     inkscape:pageopacity="0"
     inkscape:pageshadow="2"
     inkscape:window-width="1258"
     inkscape:window-height="894"
     id="namedview4"
     showgrid="false"
     inkscape:zoom="1.3547647"
     inkscape:cx="94.856671"
     inkscape:cy="87.099998"
     inkscape:window-x="126"
     inkscape:window-y="0"
     inkscape:window-maximized="0"
     inkscape:current-layer="g10" /><g
     id="g10"
     inkscape:groupmode="layer"
     inkscape:label="ink_ext_XXXXXX"
     transform="matrix(1.25,0,0,-1.25,0,174.2)"><g
       id="g12"
       transform="scale(0.1,0.1)"><path
         d="m 0,0 1393.65,0 0,1393.64 L 0,1393.64 0,0 Z"
         style="fill:#ffffff;fill-opacity:1;fill-rule:nonzero;stroke:none"
         id="path14"
         inkscape:connector-curvature="0" /><path
         d="m 666.215,1062.55 0,246.09 -76.742,-134.32 C 380.449,1127.53 221.977,947.145 208.422,727.434 l 122.652,0 c 14.727,178.3 156.836,320.396 335.141,335.116"
         style="fill:#4dbe5e;fill-opacity:1;fill-rule:nonzero;stroke:none"
         id="path16"
         inkscape:connector-curvature="0" /><path
         d="M 331.066,666.242 85,666.242 219.32,589.504 C 266.109,380.48 446.496,222.012 666.207,208.449 l 0,122.672 C 487.906,345.852 345.793,487.941 331.066,666.242"
         style="fill:#13343a;fill-opacity:1;fill-rule:nonzero;stroke:none"
         id="path18"
         inkscape:connector-curvature="0" /><path
         d="m 1062.54,727.426 246.07,0 -134.32,76.746 C 1127.51,1013.19 947.113,1171.67 727.406,1185.22 l 0,-122.67 C 905.711,1047.82 1047.82,905.727 1062.54,727.426"
         style="fill:#13343a;fill-opacity:1;fill-rule:nonzero;stroke:none"
         id="path20"
         inkscape:connector-curvature="0" /><path
         d="m 727.398,331.121 0,-331.121 666.252,0 0,666.242 -331.12,0 C 1047.81,487.941 905.699,345.852 727.398,331.121"
         style="fill:#4dbe5e;fill-opacity:1;fill-rule:nonzero;stroke:none"
         id="path22"
         inkscape:connector-curvature="0" /><path
         d="m 696.426,670.637 c -14.785,0 -26.762,11.976 -26.762,26.758 0,14.785 11.977,26.761 26.762,26.761 14.781,0 26.762,-11.976 26.762,-26.761 0,-14.782 -11.981,-26.758 -26.762,-26.758 M 734.664,734.699 507.543,886.098 658.949,658.984 886.09,507.559 734.664,734.699"
         style="fill:#13343a;fill-opacity:1;fill-rule:nonzero;stroke:none"
         id="path24"
         inkscape:connector-curvature="0" /><path
         d="M 658.949,658.984 607.902,735.551 375.605,696.828 607.902,658.125 507.551,507.578 658.098,607.93 696.797,375.641 735.523,607.93 658.949,658.984"
         style="fill:#4dbe5e;fill-opacity:1;fill-rule:nonzero;stroke:none"
         id="path26"
         inkscape:connector-curvature="0" /><path
         d="M 785.711,735.551 886.078,886.098 735.531,785.727 696.809,1018.04 658.086,785.727 734.652,734.691 785.711,658.125 1018,696.832 785.711,735.551"
         style="fill:#4dbe5e;fill-opacity:1;fill-rule:nonzero;stroke:none"
         id="path28"
         inkscape:connector-curvature="0" /><g
         id="g30"
         transform="scale(10,10)"><text
           transform="matrix(1,0,0,-1,95.8316,26.623)"
           style="font-variant:normal;font-weight:bold;font-size:17px;font-family:'Miriam Libre';-inkscape-font-specification:MiriamLibre-Bold;writing-mode:lr-tb;fill:#ffffff;fill-opacity:1;fill-rule:nonzero;stroke:none"
           id="text32"><tspan
             sodipodi:role="line"
             id="tspan34"
             x="0"
             y="0">JP</tspan></text>
</g></g></g></svg>