<?xml version="1.0" encoding="UTF-8"?>
<svg width="602px" height="208px" viewBox="0 0 602 208" version="1.1" xmlns="http://www.w3.org/2000/svg" xmlns:xlink="http://www.w3.org/1999/xlink">
    <title>osgeo-system-admin</title>
    <g id="Page-1" stroke="none" stroke-width="1" fill="none" fill-rule="evenodd">
        <g id="osgeo-system-admin" fill-rule="nonzero">
            <g id="System-Admin" transform="translate(200.6523, 148.2891)" fill="#0B3A42">
                <path d="M16.994,22.214 C21.0926667,23.374 23.983,24.7853333 25.665,26.448 C27.347,28.1106667 28.188,30.6723333 28.188,34.133 C28.188,37.5936667 26.9796667,40.4356667 24.563,42.659 C22.1463333,44.8823333 18.647,45.994 14.065,45.994 C9.483,45.994 6.12866667,45.0466667 4.002,43.152 C1.87533333,41.2573333 0.541333333,38.5313333 -2.84217094e-14,34.974 L4.176,34.22 C4.91066667,39.324 8.062,41.876 13.63,41.876 C19.9326667,41.876 23.084,39.382 23.084,34.394 C23.084,32.2286667 22.504,30.624 21.344,29.58 C20.184,28.536 18.2506667,27.6466667 15.544,26.912 L11.716,25.81 C7.73333333,24.7273333 4.93,23.345 3.306,21.663 C1.682,19.981 0.87,17.4096667 0.87,13.949 C0.87,10.4883333 2.03,7.63666667 4.35,5.394 C6.67,3.15133333 10.0436667,2.03 14.471,2.03 C18.8983333,2.03 22.1173333,2.97733333 24.128,4.872 C26.1386667,6.76666667 27.4146667,9.49266667 27.956,13.05 L23.78,13.804 C23.0453333,8.7 20.1066667,6.148 14.964,6.148 C8.97066667,6.148 5.974,8.642 5.974,13.63 C5.974,15.7953333 6.50566667,17.4096667 7.569,18.473 C8.63233333,19.5363333 10.44,20.416 12.992,21.112 L16.994,22.214 Z" id="Path"></path>
                <polygon id="Path" points="44.312 59.392 39.788 58.58 44.892 45.414 32.364 12.006 37.526 12.006 47.328 38.86 56.84 12.006 61.944 12.006"></polygon>
                <path d="M81.084,26.68 C84.564,27.5306667 87.0483333,28.6616667 88.537,30.073 C90.0256667,31.4843333 90.77,33.5916667 90.77,36.395 C90.77,39.1983333 89.726,41.47 87.638,43.21 C85.55,44.95 82.4566667,45.82 78.358,45.82 C74.2593333,45.82 71.2916667,45.037 69.455,43.471 C67.6183333,41.905 66.4486667,39.6333333 65.946,36.656 L70.006,36.018 C70.586,39.9233333 73.2346667,41.876 77.952,41.876 C83.172,41.876 85.782,40.1166667 85.782,36.598 C85.782,35.0513333 85.3083333,33.9106667 84.361,33.176 C83.4136667,32.4413333 81.722,31.7646667 79.286,31.146 L75.98,30.334 C72.616,29.4833333 70.2283333,28.362 68.817,26.97 C67.4056667,25.578 66.7,23.461 66.7,20.619 C66.7,17.777 67.7053333,15.4956667 69.716,13.775 C71.7266667,12.0543333 74.6943333,11.194 78.619,11.194 C82.5436667,11.194 85.3856667,11.977 87.145,13.543 C88.9043333,15.109 90.0353333,17.3806667 90.538,20.358 L86.42,20.996 C85.9173333,17.0906667 83.4426667,15.138 78.996,15.138 C74.124,15.138 71.688,16.8973333 71.688,20.416 C71.688,21.9626667 72.1326667,23.113 73.022,23.867 C73.9113333,24.621 75.4773333,25.288 77.72,25.868 L81.084,26.68 Z" id="Path"></path>
                <path d="M95.004,15.428 L95.004,12.006 L100.688,12.006 L100.688,5.974 L105.676,4.002 L105.676,12.006 L112.694,12.006 L112.694,15.428 L105.676,15.428 L105.676,37.41 C105.676,39.15 105.917667,40.3776667 106.401,41.093 C106.884333,41.8083333 107.59,42.166 108.518,42.166 C109.446,42.166 110.586667,42.0113333 111.94,41.702 L112.52,45.066 C110.432,45.6846667 108.663,45.994 107.213,45.994 C105.763,45.994 104.574,45.762 103.646,45.298 C102.718,44.834 102.060667,44.138 101.674,43.21 C101.016667,41.818 100.688,39.9426667 100.688,37.584 L100.688,15.428 L95.004,15.428 Z" id="Path"></path>
                <path d="M131.022,45.994 C125.956667,45.994 122.341333,44.5536667 120.176,41.673 C118.010667,38.7923333 116.928,34.4326667 116.928,28.594 C116.928,16.994 121.548667,11.194 130.79,11.194 C139.915333,11.194 144.478,16.762 144.478,27.898 L144.478,29.116 L121.858,29.116 C121.896667,33.6786667 122.592667,36.9556667 123.946,38.947 C125.299333,40.9383333 127.658,41.934 131.022,41.934 C136.512667,41.934 139.451333,39.7106667 139.838,35.264 L143.956,35.496 C143.221333,42.4946667 138.91,45.994 131.022,45.994 Z M139.49,25.404 C139.296667,22.156 138.562,19.6523333 137.286,17.893 C136.01,16.1336667 133.864,15.254 130.848,15.254 C127.832,15.254 125.666667,16.153 124.352,17.951 C123.037333,19.749 122.244667,22.2333333 121.974,25.404 L139.49,25.404 Z" id="Shape"></path>
                <path d="M168.49,11.194 C172.975333,11.194 175.991333,12.7213333 177.538,15.776 C178.968667,14.5 180.679667,13.4173333 182.671,12.528 C184.662333,11.6386667 186.721333,11.194 188.848,11.194 C195.576,11.194 198.94,14.6546667 198.94,21.576 L198.94,45.182 L193.952,45.182 L193.952,21.866 C193.952,19.7006667 193.488,18.0573333 192.56,16.936 C191.632,15.8146667 190.124,15.254 188.036,15.254 C184.594667,15.254 181.424,16.5686667 178.524,19.198 C178.64,19.9713333 178.698,20.764 178.698,21.576 L178.698,45.182 L173.71,45.182 L173.71,21.866 C173.71,19.7006667 173.246,18.0573333 172.318,16.936 C171.39,15.8146667 169.862667,15.254 167.736,15.254 C164.372,15.254 161.278667,16.472 158.456,18.908 L158.456,45.182 L153.468,45.182 L153.468,12.006 L156.542,12.006 L157.818,15.312 C161.066,12.5666667 164.623333,11.194 168.49,11.194 Z" id="Path"></path>
                <path d="M236.118,2.842 L242.904,2.842 L256.766,45.182 L251.72,45.182 L247.602,32.422 L231.478,32.422 L227.36,45.182 L222.314,45.182 L236.118,2.842 Z M239.54,7.366 L232.754,28.362 L246.268,28.362 L239.54,7.366 Z" id="Shape"></path>
                <path d="M271.556,45.994 C264.441333,45.994 260.884,40.194 260.884,28.594 C260.884,16.994 265.195333,11.194 273.818,11.194 C276.795333,11.194 279.85,11.948 282.982,13.456 L282.982,1.218 L287.97,0.638 L287.97,45.182 L284.664,45.182 L283.214,40.136 C279.695333,44.0413333 275.809333,45.994 271.556,45.994 Z M273.18,41.934 C276.66,41.934 279.927333,40.078 282.982,36.366 L282.982,17.4 C280.198,15.892 277.472,15.138 274.804,15.138 C271.556,15.138 269.255333,16.3173333 267.902,18.676 C266.548667,21.0346667 265.872,24.3406667 265.872,28.594 C265.872,37.4873333 268.308,41.934 273.18,41.934 Z" id="Shape"></path>
                <path d="M315.288,11.194 C319.773333,11.194 322.789333,12.7213333 324.336,15.776 C325.766667,14.5 327.477667,13.4173333 329.469,12.528 C331.460333,11.6386667 333.519333,11.194 335.646,11.194 C342.374,11.194 345.738,14.6546667 345.738,21.576 L345.738,45.182 L340.75,45.182 L340.75,21.866 C340.75,19.7006667 340.286,18.0573333 339.358,16.936 C338.43,15.8146667 336.922,15.254 334.834,15.254 C331.392667,15.254 328.222,16.5686667 325.322,19.198 C325.438,19.9713333 325.496,20.764 325.496,21.576 L325.496,45.182 L320.508,45.182 L320.508,21.866 C320.508,19.7006667 320.044,18.0573333 319.116,16.936 C318.188,15.8146667 316.660667,15.254 314.534,15.254 C311.17,15.254 308.076667,16.472 305.254,18.908 L305.254,45.182 L300.266,45.182 L300.266,12.006 L303.34,12.006 L304.616,15.312 C307.864,12.5666667 311.421333,11.194 315.288,11.194 Z" id="Path"></path>
                <path d="M357.454,12.006 L362.442,12.006 L362.442,45.182 L357.454,45.182 L357.454,12.006 Z M359.948,6.438 C357.976,6.438 356.99,5.365 356.99,3.219 C356.99,1.073 357.976,0 359.948,0 C361.997333,0 363.022,1.073 363.022,3.219 C363.022,5.365 361.997333,6.438 359.948,6.438 Z" id="Shape"></path>
                <path d="M379.088,15.486 C382.993333,12.6246667 386.840667,11.194 390.63,11.194 C394.419333,11.194 397.087333,12.0543333 398.634,13.775 C400.180667,15.4956667 400.954,18.1153333 400.954,21.634 L400.954,45.182 L395.966,45.182 L395.966,21.75 C395.966,19.43 395.521333,17.7673333 394.632,16.762 C393.742667,15.7566667 392.254,15.254 390.166,15.254 C386.57,15.254 383.09,16.5493333 379.726,19.14 L379.726,45.182 L374.738,45.182 L374.738,12.006 L377.696,12.006 L379.088,15.486 Z" id="Path"></path>
            </g>
            <g id="osgeo">
                <path d="M218.7,131.7 C213.7,128.8 209.7,124.8 206.8,119.8 C203.9,114.8 202.4,109.3 202.4,103.3 L202.4,76.8 C202.4,70.8 203.9,65.3 206.8,60.3 C209.7,55.3 213.7,51.3 218.7,48.4 C223.7,45.5 229.2,44 235.1,44 C241,44 246.5,45.5 251.5,48.4 C256.5,51.3 260.5,55.3 263.4,60.3 C266.3,65.3 267.8,70.8 267.8,76.8 L267.8,103.3 C267.8,109.3 266.3,114.8 263.4,119.8 C260.5,124.8 256.5,128.8 251.5,131.7 C246.5,134.6 241,136.1 235.1,136.1 C229.2,136.1 223.7,134.6 218.7,131.7 M243.9,119.1 C246.6,117.4 248.8,115.2 250.4,112.4 C252,109.6 252.8,106.6 252.8,103.3 L252.8,76.8 C252.8,73.6 252,70.5 250.4,67.7 C248.8,64.9 246.6,62.6 243.9,61 C241.2,59.4 238.3,58.5 235.1,58.5 C232,58.5 229,59.3 226.3,61 C223.6,62.7 221.4,64.9 219.8,67.7 C218.2,70.5 217.4,73.5 217.4,76.8 L217.4,103.3 C217.4,106.5 218.2,109.6 219.8,112.4 C221.4,115.2 223.6,117.5 226.3,119.1 C229,120.8 231.9,121.6 235.1,121.6 C238.2,121.5 241.2,120.7 243.9,119.1" id="Shape" fill="#4DB05B"></path>
                <path d="M291.8,133.8 C287.5,132.4 283.5,130.3 279.8,127.8 C279.4,127.6 279.1,127.1 278.9,126.5 C278.7,125.9 278.8,125.3 279,124.8 L283.3,117 C283.8,116 284.6,115.5 285.6,115.5 C286.3,115.5 286.9,115.7 287.5,116 C293.7,119.9 299.4,121.8 304.8,121.8 C309.2,121.8 312.6,120.7 315.1,118.6 C317.6,116.5 318.9,113.7 318.9,110.3 C318.9,108.1 318.3,106.2 317,104.6 C315.8,103.1 314.1,101.8 312.1,100.7 C310,99.6 307,98.3 303.1,96.7 L299.5,95.2 C293.9,92.8 289.2,89.7 285.4,86 C281.6,82.3 279.6,76.8 279.6,69.6 C279.6,64.5 280.7,60.1 283,56.2 C285.3,52.3 288.4,49.3 292.5,47.1 C296.5,44.9 301.2,43.9 306.5,43.9 C310.9,43.9 315.2,44.6 319.5,46.1 C323.8,47.6 327.7,49.6 331.2,52.1 C331.6,52.3 331.9,52.8 332.1,53.4 C332.3,54 332.2,54.6 332,55.1 L327.9,62.9 C327.4,63.9 326.6,64.4 325.5,64.4 C324.8,64.4 324.2,64.2 323.6,63.9 C320.4,61.8 317.3,60.3 314.4,59.4 C311.5,58.5 308.9,58 306.6,58 C302.9,58 300,59 297.8,61 C295.7,63 294.6,65.6 294.6,68.8 C294.6,72 295.8,74.7 298.1,76.8 C300.5,78.9 304.2,81 309.4,83.2 C310.1,83.4 313,84.6 317.9,86.6 C322.8,88.6 326.7,91.6 329.6,95.5 C332.5,99.4 333.9,104 333.9,109.3 C333.9,114.4 332.7,119 330.3,123 C327.9,127 324.5,130.1 320.1,132.4 C315.7,134.7 310.7,135.8 305,135.8 C300.5,136 296.1,135.2 291.8,133.8" id="Shape" fill="#4DB05B"></path>
                <path d="M361.8,131.7 C356.8,128.8 352.9,124.8 349.9,119.8 C347,114.8 345.5,109.3 345.5,103.3 L345.5,76.8 C345.5,70.8 347,65.3 349.9,60.3 C352.8,55.3 356.8,51.3 361.8,48.4 C366.8,45.5 372.2,44 378.2,44 C383.4,44 388.2,44.9 392.7,46.8 C397.1,48.7 400.9,51.4 404.1,54.9 C404.6,55.5 404.8,56.2 404.8,57 C404.8,57.8 404.5,58.7 403.8,59.5 L398.4,65.2 C397.7,65.9 397.1,66.2 396.4,66.2 C395.6,66.2 394.8,65.8 394.2,65.1 C390.1,60.7 384.8,58.5 378.4,58.5 C375.3,58.5 372.3,59.3 369.6,61 C366.9,62.7 364.7,64.9 363.1,67.7 C361.5,70.5 360.7,73.5 360.7,76.8 L360.7,103.3 C360.7,106.5 361.5,109.6 363.1,112.4 C364.7,115.2 366.9,117.5 369.6,119.1 C372.3,120.8 375.2,121.6 378.4,121.6 C381.5,121.6 384.5,120.8 387.2,119.2 C389.9,117.6 392.1,115.5 393.6,112.7 C395.2,110 395.9,107 395.9,103.8 L395.9,97.7 L379.3,97.7 C378.6,97.7 377.9,97.5 377.4,97 C376.9,96.5 376.7,95.9 376.7,95.1 L376.7,86.2 C376.7,85.5 376.9,84.8 377.4,84.3 C377.9,83.8 378.5,83.6 379.3,83.6 L405.4,83.6 C406.9,83.6 408.1,84.1 409.2,85.1 C410.2,86.1 410.7,87.4 410.7,88.9 L410.7,103.3 C410.7,109.3 409.2,114.8 406.3,119.8 C403.4,124.8 399.4,128.8 394.4,131.7 C389.4,134.6 384,136.1 378.2,136.1 C372.2,136.1 366.8,134.6 361.8,131.7" id="Shape" fill="#003A40"></path>
                <path d="M438,130.5 C433.5,127.9 429.9,124.2 427.3,119.7 C424.7,115.2 423.3,110.2 423.3,104.8 L423.3,91.4 C423.3,86 424.6,81 427.3,76.5 C429.9,72 433.5,68.3 438,65.7 C442.5,63.1 447.4,61.7 452.8,61.7 C458.2,61.7 463.1,63 467.6,65.7 C472.1,68.3 475.7,72 478.3,76.5 C480.9,81.1 482.3,86 482.3,91.4 L482.3,99.7 C482.3,101.2 481.8,102.4 480.8,103.5 C479.8,104.5 478.5,105 477,105 L438.3,105 L438.3,105.6 C438.3,109.7 439.7,113.1 442.6,116 C445.5,118.9 448.9,120.3 452.9,120.3 L472.5,120.3 C473.2,120.3 473.9,120.6 474.4,121.1 C474.9,121.6 475.1,122.2 475.1,123 L475.1,132 C475.1,132.7 474.9,133.4 474.4,133.9 C473.9,134.4 473.3,134.6 472.5,134.6 L452.9,134.6 C447.4,134.5 442.4,133.1 438,130.5 L438,130.5 Z M467.3,91.6 L467.3,90.5 C467.3,86.4 465.9,83 463,80.1 C460.2,77.2 456.7,75.8 452.7,75.8 C448.7,75.8 445.2,77.2 442.4,80.1 C439.6,83 438.1,86.4 438.1,90.5 L438.1,91.6 L467.3,91.6 Z" id="Shape" fill="#003A40"></path>
                <path d="M508,132.2 C503.5,129.6 499.9,126.1 497.3,121.6 C494.7,117.1 493.4,112.3 493.4,107.1 L493.4,90.7 C493.4,85.5 494.7,80.6 497.3,76.2 C499.9,71.7 503.5,68.2 508,65.6 C512.5,63 517.4,61.7 522.8,61.7 C528.2,61.7 533.1,63 537.6,65.6 C542.1,68.2 545.7,71.8 548.3,76.2 C550.9,80.7 552.3,85.5 552.3,90.7 L552.3,107 C552.3,112.2 551,117.1 548.3,121.5 C545.7,126 542.1,129.5 537.6,132.1 C533.1,134.7 528.2,136 522.8,136 C517.4,136.1 512.4,134.8 508,132.2 M533,117.4 C535.8,114.5 537.3,111.1 537.3,107 L537.3,90.7 C537.3,86.6 535.9,83.2 533,80.3 C530.2,77.4 526.7,76 522.7,76 C518.7,76 515.2,77.4 512.4,80.3 C509.6,83.2 508.1,86.6 508.1,90.7 L508.1,107 C508.1,111.1 509.5,114.5 512.4,117.4 C515.2,120.3 518.7,121.7 522.7,121.7 C526.8,121.7 530.2,120.2 533,117.4" id="Shape" fill="#003A40"></path>
                <path d="M85.5,36.2 L85.5,18.2 L85.5,0 L74.2,19.8 C43.4,26.7 20.1,53.2 18.1,85.6 L36.2,85.6 C38.4,59.3 59.3,38.4 85.5,36.2" id="Shape" fill="#4DB05B"></path>
                <path d="M36.2,94.6 L18.2,94.6 L0,94.6 L19.8,105.9 C26.7,136.7 53.2,160 85.6,162 L85.6,143.9 C59.3,141.7 38.4,120.8 36.2,94.6" id="Shape" fill="#003A40"></path>
                <path d="M143.9,85.5 L162,85.5 L180.2,85.5 L160.4,74.2 C153.5,43.4 127,20.1 94.6,18.1 L94.6,36.2 C120.8,38.4 141.7,59.3 143.9,85.5" id="Shape" fill="#003A40"></path>
                <path d="M94.5,143.9 L94.5,162 L94.5,180.2 L105.8,160.4 C136.6,153.5 159.9,127 161.9,94.6 L143.8,94.6 C141.7,120.8 120.8,141.7 94.5,143.9" id="Shape" fill="#4DB05B"></path>
                <path d="M95.6,84.5 L62.2,62.2 L84.5,95.6 L117.9,117.9 L95.6,84.5 Z M90,93.9 C87.8,93.9 86.1,92.1 86.1,90 C86.1,87.8 87.9,86.1 90,86.1 C92.2,86.1 93.9,87.9 93.9,90 C93.9,92.1 92.2,93.9 90,93.9 L90,93.9 Z" id="Shape" fill="#003A40"></path>
                <polygon id="Shape" fill="#4DB05B" points="84.5 95.6 77 84.4 42.8 90.1 77 95.7 62.2 117.9 84.3 103.1 90 137.3 95.7 103.1"></polygon>
                <polygon id="Shape" fill="#4DB05B" points="103.1 84.4 117.9 62.2 95.7 77 90 42.8 84.4 77 95.6 84.5 103.1 95.7 137.3 90"></polygon>
            </g>
        </g>
    </g>
</svg>